<?xml version="1.0" encoding="UTF-8"?>
<svg id="Layer_2" data-name="Layer 2" xmlns="http://www.w3.org/2000/svg" viewBox="0 0 428 500.9">
  <defs>
    <style>
      .cls-1 {
        fill: #fff;
      }

      .cls-2 {
        fill: #181216;
      }

      .cls-3 {
        fill: #ef9d7f;
      }

      .cls-4 {
        fill: #363636;
      }

      .cls-5 {
        fill: #fac300;
      }

      .cls-6 {
        fill: #f55;
      }

      .cls-7 {
        fill: #e58e73;
      }

      .cls-8 {
        fill: #f80500;
      }

      .cls-9 {
        fill: #e64c00;
      }

      .cls-10 {
        fill: #f4ae32;
      }

      .cls-11 {
        fill: #ea9611;
      }

      .cls-12 {
        fill: #353535;
      }

      .cls-13 {
        fill: #ffbda9;
      }

      .cls-14 {
        fill: #b72c2c;
      }

      .cls-15 {
        fill: #e08bfc;
      }

      .cls-16 {
        fill: #e27c5d;
      }

      .cls-17 {
        fill: #f7a22d;
      }
    </style>
  </defs>
  <g>
    <path class="cls-15" d="M191.02,134.78c8.53,7.17,17.05,14.35,25.58,21.52-2.31-9.33-4.61-18.65-6.92-27.98,5.11-.76,10.23-1.52,15.34-2.28,.73-27.45,1.46-54.9,2.18-82.35-64.6-.11-129.21-.21-193.81-.32,2.62,35.9,5.25,71.79,7.87,107.69,49.92-5.43,99.84-10.86,149.76-16.29Z"/>
    <polygon class="cls-10" points="50.35 61.15 53.69 85.23 124.75 80.2 132.03 61.15 50.35 61.15"/>
    <polygon class="cls-9" points="51.58 97.06 55.59 131.52 137.25 127.71 137.25 94.8 51.58 97.06"/>
    <polygon class="cls-1" points="146.97 61.15 143.34 66.61 201.01 63.88 203.23 57.67 146.97 61.15"/>
    <polygon class="cls-1" points="208.03 57.67 205.54 62.14 214.26 62.14 214.26 57.67 208.03 57.67"/>
    <polygon class="cls-1" points="149.99 71.64 147.43 80.2 201.01 78.47 201.01 71.64 149.99 71.64"/>
    <polygon class="cls-1" points="207.6 68.11 205.54 74.49 214.26 74.24 214.26 68.11 207.6 68.11"/>
    <polygon class="cls-1" points="147.43 99.84 211.53 94.8 209.9 99.84 145.13 110.15 147.43 99.84"/>
    <polygon class="cls-1" points="152.74 113.16 214.26 110.15 213.56 116.04 149.99 121.69 152.74 113.16"/>
  </g>
  <g>
    <path class="cls-15" d="M239.28,408.17c6.9-5.17,13.8-10.35,20.69-15.52,.86-11.04,1.72-22.07,2.59-33.11,40.53,.52,81.05,1.03,121.58,1.55,1.55,31.04,3.1,62.08,4.66,93.12-44.67-3.45-89.33-6.9-134-10.35,.52-11.04,1.03-22.07,1.55-33.11-5.69-.86-11.38-1.72-17.07-2.59Z"/>
    <path class="cls-1" d="M368.18,381.89h-90.64l-.86,39.3,92.85,8.1-1.35-47.4Zm-3.64,43.91l-47.9-4.51v-34.99h47.9v39.5Z"/>
    <polygon class="cls-1" points="352.82 394.45 356.05 398.94 326.47 416.86 324.32 413.28 352.82 394.45"/>
    <polygon class="cls-1" points="324.8 398.22 327.82 393.59 355.19 414.73 352.62 418.03 324.8 398.22"/>
  </g>
  <g>
    <g>
      <path class="cls-5" d="M218.24,196.33c-1.11-3.07-7.18-12.54-7.18-12.54l-10.81-14.61-48.19-8.69-3.44,29.67,21.06,4.8,14.66,4.22s4.33,5.68,6.04,8.5c1.3,2.14,2.27,3.96,2.9,5.21,8.32-5.52,16.64-11.04,24.95-16.56Z"/>
      <polygon class="cls-17" points="211.78 184.93 208.29 170.41 181.63 150.85 176.29 158.6 194.89 172.35 194.03 179.58 211.78 184.93"/>
      <path class="cls-1" d="M171.02,170.91s-.04,0-.07,0l-18.73-2.45c-.27-.04-.47-.29-.43-.56,.04-.27,.28-.47,.56-.43l18.73,2.45c.27,.04,.47,.29,.43,.56-.03,.25-.25,.44-.5,.44Z"/>
      <path class="cls-1" d="M171.02,178.63s-.04,0-.07,0l-19.86-2.66c-.27-.04-.47-.29-.43-.56,.04-.27,.29-.47,.56-.43l19.86,2.66c.27,.04,.47,.29,.43,.56-.03,.25-.25,.43-.5,.43Z"/>
      <path class="cls-1" d="M170.26,186.76s-.04,0-.07,0l-19.86-2.66c-.27-.04-.47-.29-.43-.56,.04-.27,.28-.46,.56-.43l19.86,2.66c.27,.04,.47,.29,.43,.56-.03,.25-.25,.43-.5,.43Z"/>
      <polygon class="cls-11" points="177.34 157.08 180.16 158.91 183.43 154.23 180.9 151.91 177.34 157.08"/>
    </g>
    <path class="cls-11" d="M276.43,186.32c12.13,6.5,9.96-.99,22.09,5.51-6.07,23.39-23.34,72.93-29.41,96.31-.29,1.12-1.99,2.69-1.99,2.69l-27.58,16.71-59.39-92.79,37.91-32.17,24.93,44.7,33.43-40.97Z"/>
    <path class="cls-10" d="M288.95,194c-12.22,47.35-24.45,94.7-36.67,142.04,46.04,1.1,92.09,2.19,138.13,3.29-12.56-49.83-25.12-99.66-37.67-149.49-21.26,1.39-42.52,2.77-63.79,4.16Z"/>
    <path class="cls-5" d="M294.54,191.64c15.07,.51,30.14,1.03,45.21,1.54-7.46,5.13-14.93,10.26-22.39,15.4-7.6-5.65-15.21-11.29-22.81-16.94Z"/>
    <g>
      <path class="cls-5" d="M353.46,136.97c5.5-3.21,11-6.43,16.5-9.64,.97-.57,2.2,.12,2.22,1.25l.52,26.04c0,.5-.23,.96-.64,1.25-6.57,4.53-13.13,9.07-19.7,13.6-1.03,.71-2.42-.1-2.31-1.35l2.68-30c.04-.48,.31-.9,.73-1.14Z"/>
      <path class="cls-1" d="M354.45,152.34c-.08,0-.15-.02-.23-.05-.25-.13-.34-.43-.22-.67,1.77-3.49,4.34-6.53,7.43-8.8,2.02-1.49,4.26-2.65,6.67-3.47,.26-.09,.55,.05,.63,.31,.09,.26-.05,.55-.31,.63-2.3,.78-4.46,1.9-6.39,3.32-2.96,2.18-5.43,5.1-7.13,8.44-.09,.17-.26,.27-.45,.27Z"/>
    </g>
    <g>
      <g>
        <path class="cls-5" d="M260.34,131.97c-5.5-3.21-11-6.43-16.5-9.64-.97-.57-2.2,.12-2.22,1.25l-.52,26.04c0,.5,.23,.96,.64,1.25,6.57,4.53,13.13,9.07,19.7,13.6,1.03,.71,2.42-.1,2.31-1.35l-2.68-30c-.04-.48-.31-.9-.73-1.14Z"/>
        <path class="cls-1" d="M259.36,147.34c-.18,0-.36-.1-.45-.27-1.7-3.35-4.17-6.27-7.13-8.44-1.94-1.42-4.09-2.54-6.39-3.32-.26-.09-.4-.37-.31-.63,.09-.26,.37-.4,.63-.31,2.4,.81,4.64,1.98,6.66,3.47,3.09,2.27,5.66,5.31,7.43,8.8,.13,.25,.03,.55-.22,.67-.07,.04-.15,.05-.23,.05Z"/>
      </g>
      <circle class="cls-10" cx="249.43" cy="158.12" r="3.89"/>
    </g>
    <g>
      <path class="cls-17" d="M262.89,84.84c-2.38,34.18-4.76,68.36-7.14,102.53-.23,3.28,2.3,6.1,5.58,6.23,28.3,1.11,56.59,2.22,84.89,3.33,3.18,.12,5.87-2.32,6.05-5.5,1.95-35.39,3.89-70.78,5.84-106.18,.18-3.35-2.49-6.16-5.84-6.15l-83.59,.32c-3.05,.01-5.58,2.38-5.79,5.42Z"/>
      <path class="cls-1" d="M328.72,196.74c-.25,0-.47-.19-.5-.45-.26-2.75-1.03-16.98,9.45-27.11,5.22-5.05,11.2-7.17,15.3-8.05,.27-.06,.54,.11,.59,.38,.06,.27-.11,.54-.38,.59-3.97,.86-9.77,2.91-14.82,7.8-10.15,9.82-9.4,23.63-9.15,26.3,.03,.27-.18,.52-.45,.54-.02,0-.03,0-.05,0Z"/>
      <path class="cls-1" d="M280.32,194.85s-.05,0-.08,0c-.27-.04-.46-.3-.41-.57,.43-2.67,2.11-16.49-7.57-26.8-4.77-5.09-10.44-7.36-14.36-8.38-.27-.07-.43-.34-.36-.61,.07-.27,.34-.43,.61-.36,4.05,1.05,9.91,3.4,14.84,8.66,10,10.66,8.27,24.9,7.82,27.65-.04,.25-.25,.42-.49,.42Z"/>
    </g>
    <g>
      <path class="cls-11" d="M312.02,84.17c-10.68,13.77-25.11,28.45-44.42,40.69-2.96,1.88-5.91,3.62-8.83,5.22,.25-12.89,1-26.57,2.46-40.94,.71-6.99,1.55-13.78,2.48-20.34,17.61-2.51,39.07-4,63.36-2.33,14.19,.97,27.13,2.87,38.63,5.18,.11,11.43,.14,22.97,.11,34.63-.02,7.93-.08,15.81-.17,23.63-3.47,2.43-6.93,4.85-10.4,7.28-7.45-5.82-16.47-13.97-25.3-24.96-8.19-10.19-13.93-19.99-17.93-28.05Z"/>
      <path class="cls-1" d="M360.22,125.01c-.07,0-.15-.02-.21-.05-2.89-1.37-5.71-2.93-8.41-4.62-14.84-9.34-26.43-23.23-34.44-41.3-.11-.25,0-.55,.25-.66,.25-.11,.55,0,.66,.25,7.93,17.88,19.38,31.63,34.06,40.86,2.66,1.67,5.45,3.21,8.3,4.56,.25,.12,.36,.42,.24,.67-.08,.18-.26,.29-.45,.29Z"/>
      <path class="cls-1" d="M361.05,103.82c-.06,0-.12-.01-.18-.03-5.31-2.06-10.49-4.56-15.37-7.45-8.93-5.27-17.04-11.88-24.13-19.63-.19-.2-.17-.52,.03-.71s.52-.17,.71,.03c7.01,7.68,15.05,14.22,23.9,19.44,4.84,2.86,9.96,5.34,15.23,7.38,.26,.1,.39,.39,.29,.65-.08,.2-.27,.32-.47,.32Z"/>
      <path class="cls-1" d="M356.5,85.31c-1.41,0-2.82-.07-4.21-.21-11.91-1.19-20.94-7.19-26.41-12.01-.21-.18-.23-.5-.04-.71,.18-.21,.5-.23,.71-.04,5.36,4.73,14.2,10.61,25.85,11.77,2.72,.27,5.5,.27,8.26,0,.27-.02,.52,.17,.55,.45,.03,.27-.17,.52-.45,.55-1.41,.14-2.83,.21-4.24,.21Z"/>
      <path class="cls-1" d="M265.33,115.26c-.18,0-.36-.1-.45-.27-.13-.25-.03-.55,.22-.67,5.26-2.67,10.38-5.72,15.21-9.06,10.69-7.39,20.27-16.37,28.49-26.71,.17-.22,.49-.25,.7-.08,.22,.17,.25,.49,.08,.7-8.28,10.41-17.93,19.46-28.7,26.91-4.87,3.37-10.03,6.44-15.33,9.13-.07,.04-.15,.05-.23,.05Z"/>
      <path class="cls-1" d="M266.96,97.71c-.23,0-.44-.16-.49-.4-.05-.27,.12-.53,.39-.59,5.56-1.12,10.93-2.96,15.96-5.48,7.48-3.75,14.1-8.9,19.67-15.31,.18-.21,.5-.23,.71-.05,.21,.18,.23,.5,.05,.71-5.65,6.51-12.37,11.75-19.97,15.55-5.11,2.56-10.57,4.43-16.21,5.57-.03,0-.07,0-.1,0Z"/>
      <path class="cls-1" d="M269.07,83.58c-.26,0-.48-.2-.5-.46-.02-.28,.19-.52,.46-.54,4.51-.33,8.95-1.25,13.19-2.74,5.8-2.02,11.16-5.06,15.93-9.01,.21-.18,.53-.15,.7,.07,.18,.21,.15,.53-.07,.7-4.87,4.03-10.33,7.12-16.24,9.18-4.33,1.51-8.85,2.45-13.45,2.79-.01,0-.03,0-.04,0Z"/>
    </g>
    <g>
      <path class="cls-10" d="M301.67,130.05c.09,9.63,.17,19.25,.26,28.88-5.66-.3-11.33-.61-16.99-.91-.12-2.87,.07-7.76,2.41-13.11,4.07-9.31,11.81-13.6,14.32-14.85Z"/>
      <path class="cls-1" d="M301.93,159.44s-.02,0-.03,0l-16.99-.92c-.26-.01-.46-.22-.47-.48-.2-4.6,.65-9.22,2.46-13.34,3.8-8.7,10.75-13.19,14.55-15.1,.15-.08,.34-.07,.48,.02s.24,.25,.24,.42l.26,28.88c0,.14-.05,.27-.15,.37-.09,.09-.22,.14-.35,.14Zm-16.51-1.89l16,.86-.25-27.54c-3.79,2.03-9.92,6.34-13.37,14.23-1.68,3.85-2.5,8.14-2.39,12.44Z"/>
    </g>
    <path class="cls-14" d="M299.58,175.21c-.13,0-.27-.05-.37-.16-.19-.2-.18-.52,.03-.71,2.35-2.19,8.73-7.18,17.09-6.38,2.28,.22,4.51,.85,6.64,1.89,.25,.12,.35,.42,.23,.67-.12,.25-.42,.35-.67,.23-2.02-.98-4.14-1.58-6.3-1.79-7.98-.77-14.06,4.02-16.31,6.11-.1,.09-.22,.13-.34,.13Z"/>
    <path class="cls-11" d="M353.36,168.6s-11.21,28.85-16.23,41.46c14.21-.23,28.41-.46,42.62-.69-4.22-11.42-17.48-46.73-17.48-46.73l-8.91,5.96Z"/>
    <path class="cls-11" d="M357.48,203.01s-16.9,25.93-24.41,37.24c13.95,2.69,27.9,5.39,41.85,8.08-1.78-12.05-7.51-49.32-7.51-49.32l-9.94,4Z"/>
    <circle class="cls-10" cx="363" cy="162.83" r="3.89"/>
    <path class="cls-11" d="M353.88,240.37s-19.24,24.25-27.76,34.8c13.64,3.98,27.28,7.96,40.92,11.94-.66-12.16-2.89-49.8-2.89-49.8l-10.27,3.06Z"/>
  </g>
  <g>
    <g>
      <polygon class="cls-4" points="70.26 300.17 53.78 307.54 64.6 333.61 88.19 324.64 86.09 300.17 70.26 300.17"/>
      <path class="cls-2" d="M69.03,331.84l-2.82-13.04c-.05-.22,.06-.45,.26-.55l19.13-9.86,.46,.89-18.79,9.68,2.74,12.67-.98,.21Z"/>
      <path class="cls-2" d="M66.37,333l-4.94-15.98c-.06-.19,0-.39,.14-.52l11.97-10.77,.67,.74-11.73,10.55,4.84,15.67-.96,.3Z"/>
    </g>
    <polygon class="cls-4" points="173.67 238.84 133.17 210.41 67 236.21 74.29 291.25 91.97 301.63 173.67 238.84"/>
    <g>
      <polygon class="cls-7" points="84.19 290.3 71.4 285.78 70.06 306.78 84.19 309.6 84.19 290.3"/>
      <path class="cls-8" d="M83.87,301.56l-6.04-7.63-3.6-1.51,.39-.92,3.72,1.56c.08,.03,.15,.08,.2,.15l6.12,7.73-.78,.62Z"/>
    </g>
    <polygon class="cls-7" points="104.33 333.61 92.93 366.57 110.27 390.53 135.17 366.57 140.61 347.8 104.33 333.61"/>
    <path class="cls-6" d="M180.38,359.54c13.67,29.7,40.55,86.69,40.55,86.69l-189.02-2.14,22.66-83.26,40.4-.18,15.45,11.27-.16,17.01,4.92-16.36,22.02-13.05"/>
    <path class="cls-3" d="M84.09,266.27l-.14,52.73c0,3.65,1.92,7.04,5.07,8.89l44.56,26.18c2.75,1.62,6.22,1.39,8.74-.58l28.39-22.21c3.21-2.51,5.05-6.38,4.97-10.46l-.82-54.21-39.46-23.85-51.31,23.5Z"/>
    <path class="cls-4" d="M119.04,249.19c19.23,11.07,55.86,33.16,55.86,33.16l-.09-43.53s-29.45,.29-42.08-.16c-4.54,3.93-9.15,6.59-13.69,10.53Z"/>
    <polygon class="cls-2" points="151.8 270.47 176.01 275.41 175.87 282.95 149.78 273.98 151.8 270.47"/>
    <polygon class="cls-2" points="124.15 269.76 99.44 269.96 98.13 277.38 125.46 273.59 124.15 269.76"/>
    <g>
      <path class="cls-6" d="M143.18,279.99c-.32,11.17-.96,33.52-.96,33.52l10.2,.2s2.57-24.18-9.24-33.72Z"/>
      <path class="cls-8" d="M152.41,314.24h-.01l-10.2-.2c-.14,0-.28-.06-.38-.17-.1-.1-.15-.24-.15-.38l.96-33.52c0-.2,.13-.38,.31-.47,.18-.08,.4-.06,.56,.07,11.89,9.61,9.54,33.19,9.43,34.19-.03,.27-.26,.48-.53,.48Zm-9.65-1.25l9.16,.18c.27-3.35,1.38-23.13-8.25-32.04l-.91,31.86Z"/>
    </g>
    <path class="cls-14" d="M135.17,330.56s0,0,0,0c0,0-3.78-6.22-5.67-9.33-2.98,1.81-5.95,3.62-8.93,5.44,0,0,0,0,0,0"/>
    <path class="cls-8" d="M114.79,343.53s-.06,0-.09,0c-.27-.05-.45-.31-.4-.58,.6-3.27,1.05-9.74-2.73-16.28-2.93-5.07-7.52-8.7-13.66-10.8-5.35-1.83-10.22-1.53-13.35-.97-.28,.05-.53-.13-.58-.4-.05-.27,.13-.53,.4-.58,3.25-.59,8.3-.89,13.85,1.01,6.38,2.18,11.15,5.96,14.21,11.24,3.93,6.81,3.47,13.55,2.84,16.96-.04,.24-.25,.41-.49,.41Z"/>
    <path class="cls-8" d="M156.37,343.01c-.25,0-.47-.19-.5-.44-.37-3.23-1.11-14.39,5.12-22.14,4.81-5.99,11.02-8.18,14.29-8.95,.27-.06,.54,.1,.6,.37,.06,.27-.1,.54-.37,.6-3.15,.74-9.11,2.85-13.74,8.61-5.99,7.45-5.27,18.26-4.91,21.4,.03,.27-.17,.52-.44,.55-.02,0-.04,0-.06,0Z"/>
    <path class="cls-3" d="M213.56,343.75c.85-2.65,5.75-10.91,5.75-10.91l8.38-12.21,42.68-3.85,2.4,19.66s-13.59,3.85-17.82,4.72c-7.97,1.65-12.38,4.03-12.38,4.03l-6.35,11.63s-15.39-8.6-22.65-13.06Z"/>
    <polygon class="cls-16" points="218.36 334.14 227.69 315.13 250.91 314.44 251.32 320.29 235.13 323.19 232.53 331.67 218.36 334.14"/>
    <path class="cls-8" d="M253.53,323.23c-.25,0-.46-.18-.5-.44-.04-.27,.16-.52,.43-.56l15.99-2.09c.27-.04,.52,.16,.56,.43,.04,.27-.16,.52-.43,.56l-15.99,2.09s-.04,0-.07,0Z"/>
    <path class="cls-8" d="M255.67,336.21c-.22,0-.42-.15-.48-.37-.07-.27,.09-.54,.35-.61l15.61-4.2c.26-.07,.54,.09,.61,.35,.07,.27-.09,.54-.35,.61l-15.61,4.2s-.09,.02-.13,.02Z"/>
    <path class="cls-8" d="M253.53,329.33c-.24,0-.45-.17-.49-.42-.05-.27,.14-.53,.41-.58l16.86-2.85c.26-.04,.53,.14,.58,.41,.05,.27-.14,.53-.41,.58l-16.86,2.85s-.06,0-.08,0Z"/>
    <g>
      <path class="cls-12" d="M114.05,289.97c-2.03,1.99-1.13,5.21-.9,6.03,.26,.92,.98,3.51,3.11,4.07,1.5,.39,2.78-.46,2.85-.51,2.08-1.43,1.66-4.75,1.52-5.89-.19-1.48-.51-4.08-2.43-4.83-1.47-.58-3.18,.19-4.14,1.13Z"/>
      <path class="cls-4" d="M106.62,293.91c1.35-1.04,1.84-2.47,6.75-4.08s10.84,2.35,10.84,2.35l.68-1.12s-5.28-3.79-10.49-2.98-7.55,3.45-8.79,4.46l1,1.36Z"/>
      <polygon class="cls-4" points="104.82 289.86 105.62 292.55 107.71 291.21 104.82 289.86"/>
    </g>
    <g>
      <path class="cls-12" d="M167.33,289.97c2.03,1.99,1.13,5.21,.9,6.03-.26,.92-.98,3.51-3.11,4.07-1.5,.39-2.78-.46-2.85-.51-2.08-1.43-1.66-4.75-1.52-5.89,.19-1.48,.51-4.08,2.43-4.83,1.47-.58,3.18,.19,4.14,1.13Z"/>
      <path class="cls-4" d="M174.77,293.91c-1.35-1.04-1.84-2.47-6.75-4.08s-10.84,2.35-10.84,2.35l-.68-1.12s5.28-3.79,10.49-2.98,7.55,3.45,8.79,4.46l-1,1.36Z"/>
      <polygon class="cls-4" points="176.57 289.86 175.77 292.55 173.67 291.21 176.57 289.86"/>
    </g>
    <path class="cls-14" d="M242.42,353.55l-30.58-13.15s-32.91,70.11-49.36,105.17l59.26,1.43"/>
    <polygon class="cls-13" points="250.96 315.18 247.59 315.56 248.11 319.5 251.25 319.36 250.96 315.18"/>
    <g>
      <path class="cls-2" d="M151.18,238.36s-45.62,36.22-68.45,55.53c.57-13.76,1.04-27.65,1.43-41.67,.14-5.08,.26-10.15,.38-15.2,22.22,.45,44.43,.89,66.65,1.34Z"/>
      <polygon class="cls-2" points="174.78 239.69 174.28 239.68 67.22 237.11 67.24 236.11 67.74 236.13 174.8 238.69 174.78 239.69"/>
      <rect class="cls-4" x="62.92" y="262.1" width="62.69" height="1" transform="translate(-184.74 263.73) rotate(-70.49)"/>
      <rect class="cls-4" x="70.9" y="262.91" width="71.82" height="1" transform="translate(-164.36 178.23) rotate(-50.49)"/>
    </g>
  </g>
</svg>