<?xml version="1.0" encoding="UTF-8"?>
<svg id="Layer_2" data-name="Layer 2" xmlns="http://www.w3.org/2000/svg" viewBox="0 0 428 608.44">
  <defs>
    <style>
      .cls-1 {
        fill: #fff;
      }

      .cls-2 {
        fill: #363636;
      }

      .cls-3 {
        fill: #eeb2ff;
      }

      .cls-4 {
        fill: #3ba45b;
      }

      .cls-5 {
        fill: #f7f2dc;
      }

      .cls-6 {
        fill: #f80500;
      }

      .cls-7 {
        fill: #ab7a5a;
      }

      .cls-8 {
        fill: #307f46;
      }

      .cls-9 {
        fill: #e64c00;
      }

      .cls-10 {
        fill: #c64dff;
      }

      .cls-11 {
        fill: #e8e8e8;
      }

      .cls-12 {
        fill: #515151;
      }

      .cls-13 {
        fill: #9e6647;
      }

      .cls-14 {
        fill: #b72c2c;
      }

      .cls-15 {
        fill: #e08bfc;
      }

      .cls-16 {
        fill: #6d6d6d;
      }

      .cls-17 {
        fill: #4ea978;
      }

      .cls-18 {
        fill: #d46cff;
      }

      .cls-19 {
        fill: #3864ab;
      }

      .cls-20 {
        fill: #f7a22d;
      }
    </style>
  </defs>
  <g>
    <polygon class="cls-3" points="340.16 93.03 350.95 156.69 285.53 158.42 285.53 113.67 340.16 93.03"/>
    <g>
      <polygon class="cls-15" points="326.49 228.89 375.77 242.48 374.39 252.07 308.44 249.36 303.98 201.22 315.06 205.97 326.49 228.89"/>
      <polygon class="cls-3" points="375.63 243.5 381.97 238.72 392.52 240.89 396.29 243.71 394.55 245.55 390.69 243.96 384.44 245.17 374.45 251.65 375.63 243.5"/>
      <polygon class="cls-18" points="391.78 238.23 385.6 239.47 390.96 240.57 391.68 240.27 395.54 240.57 396.41 239.31 391.78 238.23"/>
    </g>
    <g>
      <polygon class="cls-3" points="344.86 120.73 352.63 130 347.27 134.97 344.86 120.73"/>
      <path class="cls-6" d="M347.27,135.31s-.08,0-.11-.02c-.12-.04-.21-.15-.23-.27l-2.41-14.24c-.03-.16,.05-.31,.2-.38,.14-.06,.31-.03,.41,.09l7.78,9.27c.12,.14,.11,.35-.03,.48l-5.36,4.97c-.07,.06-.15,.09-.24,.09Zm-1.86-13.38l2.09,12.34,4.65-4.3-6.74-8.03Z"/>
    </g>
    <path class="cls-6" d="M343.65,146.35s-.03,0-.04,0c-3.02-.38-7.7-3.52-7.9-3.65-.16-.11-.2-.32-.09-.48,.11-.16,.33-.2,.48-.09,.05,.03,4.74,3.18,7.6,3.54,.19,.02,.33,.2,.3,.39-.02,.18-.17,.31-.35,.31Z"/>
    <polygon class="cls-18" points="306.25 157.87 336.53 157.07 321.39 194.03 310.73 187.1 306.25 157.87"/>
    <polygon class="cls-15" points="307.6 167.45 334.13 183.81 330.53 201.72 312.4 197.99 307.6 167.45"/>
    <path class="cls-18" d="M375.35,349.48l-44.82-147.75-19.27-11.16,1.93,12.56s-16.64,.23-30.7-.81c-7.79-.58-23.33-4.38-23.33-4.38l-34.77,177.33,150.97-25.79Z"/>
    <g>
      <polygon class="cls-15" points="291.93 202.85 302.01 255.75 354.07 259.11 354.85 271.86 268.97 286.03 250.32 225.06 259.11 192.87 291.93 202.85"/>
      <polygon class="cls-3" points="354.15 260.47 361.06 252.6 375.27 252.57 380.89 255.2 379.14 258.05 373.72 257.02 365.99 260.26 354.81 271.31 354.15 260.47"/>
      <polygon class="cls-18" points="373.6 249.33 365.96 252.59 373.16 252.58 374.02 252 379.08 251.35 379.87 249.5 373.6 249.33"/>
    </g>
    <path class="cls-10" d="M296.24,67.35l-35.27,33.62s-7.63,56.04-19.07,63.84c-11.44,7.8-22.98,10.59-22.98,10.59,0,0,13.75,14.77,37.63,22.13,23.88,7.36,56.63,5.59,56.63,5.59l-7.75-70.76,10.88-9.16s23.98-3.11,30.47-13.74c6.49-10.62,3.29-29.74-10.88-39.38-14.17-9.64-39.66-2.74-39.66-2.74Z"/>
    <g>
      <polygon class="cls-15" points="305.43 132.37 292.92 128.95 299.18 149.3 312.94 149.3 305.43 132.37"/>
      <path class="cls-6" d="M308.53,139.7s-.09,0-.13-.03l-9.09-3.75c-.18-.07-.26-.28-.19-.46,.07-.18,.28-.26,.46-.19l9.09,3.75c.18,.07,.26,.28,.19,.46-.06,.13-.19,.22-.32,.22Z"/>
    </g>
    <g>
      <polygon class="cls-2" points="362.23 267.41 410.58 235.18 410.58 242.06 362.23 271.31 362.23 267.41"/>
      <polygon class="cls-2" points="410.58 172.68 406.18 238.11 410.58 235.18 414.12 172.68 410.58 172.68"/>
    </g>
  </g>
  <g>
    <g>
      <polygon class="cls-4" points="220.14 137.29 170.42 157.05 176.54 193.38 235.11 174.77 220.14 137.29"/>
      <polygon class="cls-17" points="201.22 73.49 223.11 139.66 129.97 174.77 136.03 89.87 201.22 73.49"/>
      <path class="cls-8" d="M106.85,70.49l28.02,35.61,43.98-12.26,9.39,32.28,34.86,13.54-14-81.21s-39.33-4.47-54.57-2.46c-15.24,2.01-47.69,14.5-47.69,14.5Z"/>
      <polygon class="cls-4" points="181.54 117.35 190.96 107.65 198.66 133.25 184.77 135.09 181.54 117.35"/>
      <g>
        <polygon class="cls-4" points="134.51 111.18 132.74 136.02 121.71 131.2 134.51 111.18"/>
        <path class="cls-6" d="M132.74,136.4c-.05,0-.1-.01-.15-.03l-11.03-4.81c-.1-.04-.18-.13-.21-.24s-.02-.22,.04-.31l12.8-20.03c.09-.15,.28-.21,.44-.16,.17,.05,.27,.21,.26,.39l-1.77,24.84c0,.12-.08,.23-.18,.3-.06,.04-.13,.05-.2,.05Zm-10.47-5.36l10.13,4.42,1.63-22.82-11.76,18.4Z"/>
      </g>
      <path class="cls-14" d="M138.73,148.72l24.57-15.97s3.53,13.73-4.42,18.89c-7.95,5.16-20.15-2.92-20.15-2.92Z"/>
      <polygon class="cls-17" points="235.11 174.77 176.54 193.38 154.91 228.19 121.84 413.97 275.47 416.04 272.14 248.67 235.11 174.77"/>
      <polygon class="cls-8" points="154.91 228.19 272.14 248.67 275.47 416.04 121.84 413.97 154.91 228.19"/>
      <polygon class="cls-8" points="178.85 232.37 201.12 204.15 242.96 190.43 246.25 196.99 206.68 211.4 194.67 235.14 178.85 232.37"/>
      <g>
        <polygon class="cls-13" points="24.74 275.91 106.85 283.86 107.95 277.9 23 270.81 24.74 275.91"/>
        <g>
          <polygon class="cls-20" points="102.21 248.09 98.67 277.12 38.61 272.11 37.93 245.71 102.21 248.09"/>
          <path class="cls-1" d="M35.58,255.47l-.72-28.31s0-10.98,36.54-18.38c36.54-7.39,36.54,21.23,36.54,21.23l-3.41,28.01s-1.58,5.91-6.69,5.91-7.9-6.45-7.9-6.45c0,0-1.33,6.78-8.77,6.78s-8.44-7.42-8.44-7.42c0,0-2.78,12.08-12.12,12.08s-10.44-12.92-10.44-12.92c0,0-.56,7.03-7.34,6.92s-7.25-7.46-7.25-7.46Z"/>
        </g>
      </g>
      <g>
        <polygon class="cls-4" points="198.66 271.87 181.17 290.41 89.74 284.46 85.07 270.81 79.98 272.31 81.61 281.4 56.31 271.87 56.31 282.23 87.3 299.2 184.84 325.3 247.93 295.4 198.66 271.87"/>
        <polygon class="cls-17" points="215.08 221.98 184.84 271.1 255.67 303.16 260.45 239.95 215.08 221.98"/>
      </g>
    </g>
    <path class="cls-6" d="M183.52,125.97c-.08,0-.15-.02-.22-.07-.17-.12-.21-.36-.09-.53l6.58-9.35c.12-.17,.36-.21,.53-.09,.17,.12,.21,.36,.09,.53l-6.58,9.35c-.07,.1-.19,.16-.31,.16Z"/>
  </g>
  <polygon class="cls-20" points="242.58 41.58 251.07 26 258.27 42.22 275.72 45.48 262.52 57.34 264.81 74.94 249.45 66.05 233.42 73.67 237.12 56.31 224.93 43.42 242.58 41.58"/>
  <polygon class="cls-20" points="428 568.54 0 568.54 0 433.42 428.8 332.35 428 568.54"/>
  <polygon class="cls-1" points="395.47 386.62 405.41 381.4 403.51 392.47 411.56 400.31 400.44 401.93 395.47 412 390.5 401.93 379.38 400.31 387.42 392.47 385.52 381.4 395.47 386.62"/>
  <polygon class="cls-1" points="197.52 476.52 204.21 466.1 208.41 477.75 220.38 480.89 210.61 488.48 211.32 500.84 201.08 493.89 189.54 498.38 192.99 486.5 185.15 476.92 197.52 476.52"/>
  <polygon class="cls-15" points="127 203.15 134.98 190.73 139.99 204.61 154.26 208.35 142.6 217.41 143.45 232.14 131.24 223.85 117.49 229.21 121.6 215.04 112.25 203.62 127 203.15"/>
  <g>
    <path class="cls-20" d="M101.26,185.85h-3.21v3.3h-4.59v-3.3h-3.21v-4.38h3.21v-3.32h4.59v3.32h3.21v4.38Z"/>
    <path class="cls-20" d="M102.99,179.71v-4.48h7.31v15.76h-5.02v-11.27h-2.29Z"/>
  </g>
  <g>
    <path class="cls-9" d="M358.45,206.19h-3.37v3.46h-4.82v-3.46h-3.37v-4.6h3.37v-3.49h4.82v3.49h3.37v4.6Z"/>
    <path class="cls-9" d="M360.26,199.74v-4.71h7.68v16.55h-5.28v-11.84h-2.4Z"/>
  </g>
  <g>
    <path class="cls-1" d="M366.32,429.09h-3.72v3.82h-5.32v-3.82h-3.72v-5.07h3.72v-3.85h5.32v3.85h3.72v5.07Z"/>
    <path class="cls-1" d="M368.32,421.97v-5.2h8.47v18.27h-5.82v-13.07h-2.65Z"/>
  </g>
  <polygon class="cls-9" points="391.45 292.26 399.88 280.34 404.21 294.28 418.14 298.61 406.23 307.03 406.41 321.63 394.72 312.9 380.9 317.58 385.59 303.76 376.86 292.07 391.45 292.26"/>
  <polygon class="cls-9" points="183.97 398.59 196.33 376.69 206.2 399.82 230.84 404.81 211.89 421.34 214.77 446.32 193.19 433.41 170.32 443.86 175.93 419.35 158.92 400.83 183.97 398.59"/>
  <g>
    <polygon class="cls-13" points="277.28 410.6 317.01 409.99 330.17 441.82 274.58 441.82 277.28 410.6"/>
    <polygon class="cls-1" points="275.42 426.58 296.97 426.58 302.37 441.97 274.08 441.97 275.42 426.58"/>
    <polygon class="cls-1" points="323.6 424.87 308.35 424.87 302.37 441.97 330.66 441.97 323.6 424.87"/>
    <polygon class="cls-1" points="274.08 441.97 240.51 441.97 261.82 574.64 346.9 574.64 363.07 443.1 330.66 441.97 274.08 441.97"/>
    <polygon class="cls-19" points="291.79 441.97 314.3 441.97 308.65 461.95 297.07 458.86 291.79 441.97"/>
    <polygon class="cls-19" points="288.23 535.76 297.07 458.86 308.65 461.95 319.27 535.76 303.75 555.73 288.23 535.76"/>
    <polygon class="cls-11" points="363.07 443.1 375.62 458.86 398.9 559.39 324.56 553.72 329.66 523.25 353.16 523.7 363.07 443.1"/>
    <polygon class="cls-11" points="240.51 441.97 218.14 574.64 261.82 574.64 240.51 441.97"/>
    <g>
      <polygon class="cls-7" points="329.23 525.83 309.11 520.75 305.34 543.42 325.95 545.58 329.23 525.83"/>
      <polygon class="cls-13" points="324.16 509.49 329.03 512.98 326.99 525.26 320.84 523.71 324.16 509.49"/>
      <path class="cls-1" d="M319.92,529.55s-.06,0-.09-.01l-10.55-2.92c-.18-.05-.29-.24-.24-.43,.05-.18,.24-.29,.43-.24l10.55,2.92c.18,.05,.29,.24,.24,.43-.04,.15-.18,.25-.33,.25Z"/>
      <path class="cls-1" d="M320.69,535.39s-.04,0-.06,0l-12.62-2.1c-.19-.03-.32-.21-.29-.4,.03-.19,.22-.32,.4-.29l12.62,2.1c.19,.03,.32,.21,.29,.4-.03,.17-.18,.29-.34,.29Z"/>
      <path class="cls-1" d="M322.83,542.33s-.03,0-.04,0l-15.95-1.88c-.19-.02-.33-.2-.3-.39,.02-.19,.17-.32,.39-.3l15.95,1.88c.19,.02,.33,.2,.3,.39-.02,.18-.17,.31-.35,.31Z"/>
    </g>
    <g>
      <polygon class="cls-7" points="248.01 317.63 343.8 316.22 353.62 409.65 240.51 411.06 248.01 317.63"/>
      <g>
        <polygon class="cls-13" points="347.77 354.08 364.57 350.41 365.17 376.87 350.17 376.87 347.77 354.08"/>
        <path class="cls-1" d="M349.43,368.77l-.63-.29,.15-.32c.09-.2,2.33-5,4.96-7.58,2.63-2.58,6.31-4.07,6.46-4.13l.32-.13,.26,.65-.32,.13s-3.7,1.5-6.23,3.98c-2.54,2.49-4.79,7.33-4.81,7.38l-.15,.32Z"/>
      </g>
      <g>
        <polygon class="cls-13" points="245.04 355.15 228.23 351.48 227.64 377.94 243.17 377.94 245.04 355.15"/>
        <path class="cls-1" d="M243.37,369.83l-.15-.32s-2.27-4.89-4.81-7.38c-2.53-2.48-6.2-3.97-6.23-3.98l-.32-.13,.26-.65,.32,.13c.16,.06,3.83,1.55,6.46,4.13,2.63,2.58,4.86,7.38,4.95,7.58l.15,.32-.63,.29Z"/>
      </g>
      <path class="cls-2" d="M347.77,354.08l11.92-2.61,3.61-54.36s-89.86-16.6-93.44-17.77c-3.58-1.17-6.81-2.8-9.26-3.86-2.45-1.06-7.84-4.13-7.84-4.13l6.88,12.68-28.81,24.81,5.5,44.42,8.7,1.9,2.97-37.52,95.79-1.41,3.97,37.86Z"/>
      <polygon class="cls-2" points="336.4 344.79 338.07 337.47 319.4 337.47 316.67 341.92 336.4 344.79"/>
      <polygon class="cls-2" points="252.83 342.1 251.63 334.69 270.26 335.86 272.71 340.48 252.83 342.1"/>
      <path class="cls-1" d="M273.88,377.35c-.1,0-.2-.04-.27-.12-.07-.08-.1-.19-.07-.3l2.71-12.05c.03-.14,.14-.24,.27-.27l6.5-1.22,.14-20.05c0-.19,.16-.35,.35-.35h13.75c.19,0,.35,.16,.35,.35v32.67c0,.19-.15,.34-.33,.35l-23.39,.99h-.01Zm3-12.1l-2.56,11.38,22.6-.96v-31.99h-13.06l-.14,19.99c0,.17-.12,.31-.28,.34l-6.56,1.23Zm6.5-1.58h0Z"/>
      <path class="cls-2" d="M270.34,363.47l-.31-.62c-.08-.16-2.02-3.87-7.69-4.32-5.61-.45-7.94,4.12-8.04,4.32l-.31,.62-1.24-.61,.31-.62c.03-.06,2.87-5.6,9.4-5.09,6.48,.51,8.73,4.9,8.82,5.08l.31,.62-1.25,.62Z"/>
      <path class="cls-2" d="M334.63,363.47l-.31-.62c-.08-.16-2.02-3.87-7.69-4.32-5.61-.45-7.94,4.12-8.04,4.32l-.31,.62-1.24-.61,.31-.62c.03-.06,2.87-5.6,9.4-5.09,6.48,.51,8.73,4.9,8.82,5.08l.31,.62-1.25,.62Z"/>
      <polygon class="cls-2" points="241.32 389.62 251.65 402.79 338.25 402.28 351.41 384.36 354.88 410.59 308.67 412.01 308.67 417.37 288.62 417.37 286.29 412.31 239.6 411.7 241.32 389.62"/>
      <path class="cls-14" d="M287.27,389.64l13.11-1.3s-.35,6.06-5.89,6.33-7.23-5.03-7.23-5.03Z"/>
      <path class="cls-1" d="M321.47,402.73c-.14,0-.27-.08-.32-.22-.06-.15-5.88-14.75,5.06-25.75,10.95-11.02,23.07-5.65,23.19-5.6,.17,.08,.25,.29,.17,.46-.08,.18-.29,.25-.46,.17-.12-.05-11.81-5.21-22.41,5.46-10.62,10.68-4.97,24.86-4.92,25,.07,.18-.01,.38-.19,.45-.04,.02-.09,.03-.13,.03Z"/>
      <path class="cls-1" d="M266.4,403.05h-.01c-.19,0-.34-.17-.34-.36,0-.12,.3-12.33-6.18-19.41-6.51-7.11-16.32-9.64-16.42-9.67-.19-.05-.3-.24-.25-.42s.24-.3,.42-.25c.1,.03,10.11,2.61,16.76,9.87,6.67,7.29,6.36,19.77,6.36,19.9,0,.19-.16,.34-.35,.34Z"/>
      <polygon class="cls-2" points="260.61 383.8 279.08 372.13 291.79 374.35 305.67 371.1 322.97 383.84 296.01 385.77 291.8 381.18 287.41 386.25 260.61 383.8"/>
    </g>
  </g>
  <polygon class="cls-1" points="388.08 358.74 394.31 355.46 393.12 362.41 398.16 367.32 391.19 368.34 388.08 374.65 384.96 368.34 377.99 367.32 383.03 362.41 381.84 355.46 388.08 358.74"/>
  <g>
    <g>
      <polygon class="cls-9" points="37.83 84.52 104.94 89.3 90.32 155.7 48.04 157.03 37.83 84.52"/>
      <polygon class="cls-9" points="20.13 97.84 40.2 101.37 41.33 109.41 32.02 107.01 37.83 136.82 45.39 138.19 46.42 145.52 34.79 145.52 20.13 97.84"/>
    </g>
    <polygon class="cls-20" points="59.38 84.31 50.31 70.65 65.42 45.13 65.42 29.02 74.63 46.01 62.47 69.46 71.71 85.19 59.38 84.31"/>
    <polygon class="cls-20" points="77.56 55.39 68.69 70.65 81.08 85.85 90.75 86.64 76.1 70.65 77.56 55.39"/>
    <polygon class="cls-20" points="42.32 116.39 98.98 116.39 95.87 130.53 86.69 117.64 78.65 129.07 67.87 118.13 60.63 129.07 51.94 117.64 44.67 133.07 42.32 116.39"/>
    <circle class="cls-5" cx="52.64" cy="130.64" r="3.03"/>
    <circle class="cls-5" cx="87.43" cy="129.57" r="4.02"/>
    <circle class="cls-5" cx="68.79" cy="128.15" r="2.59"/>
  </g>
  <g>
    <g>
      <g>
        <polygon class="cls-16" points="366.96 35.07 398.98 34.71 400.21 65.69 368.44 70.4 366.96 35.07"/>
        <polygon class="cls-12" points="368.64 74.36 368.44 70.4 400.21 65.69 400.1 71.08 397.49 71.86 397.37 137.35 382.25 138.84 372.27 74.44 368.64 74.36"/>
      </g>
      <g>
        <polygon class="cls-1" points="375.04 69.55 373.02 34.89 373.77 34.84 375.79 69.51 375.04 69.55"/>
        <rect class="cls-1" x="384" y="34.84" width=".75" height="32.72" transform="translate(-2.72 28.38) rotate(-4.21)"/>
        <rect class="cls-1" x="394.09" y="34.98" width=".75" height="31.35" transform="translate(-2.03 19.7) rotate(-2.85)"/>
        <polygon class="cls-1" points="367.18 40.49 367.17 39.74 399.18 39.36 399.19 40.11 367.18 40.49"/>
        <rect class="cls-1" x="383.36" y="31.77" width=".75" height="32.05" transform="translate(327.49 430.39) rotate(-88.74)"/>
        <rect class="cls-1" x="367.55" y="56.77" width="31.97" height=".75" transform="translate(-2.64 21.97) rotate(-3.27)"/>
        <polygon class="cls-1" points="368.28 66.4 368.22 65.65 399.88 62.89 399.94 63.64 368.28 66.4"/>
      </g>
    </g>
    <polygon class="cls-9" points="373.02 86.96 376.65 86.51 378.93 98.23 374.5 98.78 373.02 86.96"/>
  </g>
  <g>
    <polygon class="cls-11" points="164.19 457.02 169.16 529.98 40.09 528.67 32.02 475.48 164.19 457.02"/>
    <polygon class="cls-12" points="167.16 455.64 168.82 471.47 30.84 485.13 28.35 473.22 167.16 455.64"/>
    <polygon class="cls-12" points="168.82 524.96 39.26 523.2 40.09 528.67 169.16 529.98 168.82 524.96"/>
    <circle class="cls-16" cx="103.06" cy="498.65" r="27.88"/>
    <circle class="cls-2" cx="103.06" cy="498.65" r="21.83"/>
    <circle class="cls-9" cx="137.95" cy="483.47" r="4.54"/>
    <polygon class="cls-9" points="143.41 511.71 130.22 511.71 123.49 521.38 142.5 520.47 143.41 511.71"/>
    <polygon class="cls-9" points="74.54 510.7 82.63 521.38 61.94 521.38 60.83 511.71 74.54 510.7"/>
    <polygon class="cls-2" points="103.3 455.39 109.48 463.03 82.94 466.39 84.34 458.17 103.3 455.39"/>
    <polygon class="cls-16" points="102.05 457.8 106.69 463.33 85.19 466.14 86.01 460.17 102.05 457.8"/>
    <polygon class="cls-9" points="158.56 452.56 159.11 456.66 148.49 458.01 147.67 454.46 158.56 452.56"/>
  </g>
  <g>
    <polygon class="cls-3" points="33.14 339.54 169.39 345.45 163.44 425.11 36.42 435.29 33.14 339.54"/>
    <polygon class="cls-18" points="79.77 325.32 75.21 341.36 81.88 341.65 83.89 333.16 126.79 333.49 128.9 343.69 135.86 343.69 131.41 326.99 79.77 325.32"/>
    <polygon class="cls-15" points="33.14 339.54 100.86 397.01 169.39 345.45 33.14 339.54"/>
    <polygon class="cls-1" points="89.04 388.36 117.04 389.63 117.04 396.71 89.04 396.71 89.04 388.36"/>
  </g>
</svg>