<?xml version="1.0" encoding="UTF-8"?>
<svg id="Layer_2" data-name="Layer 2" xmlns="http://www.w3.org/2000/svg" xmlns:xlink="http://www.w3.org/1999/xlink" viewBox="0 0 428 619.74">
  <defs>
    <style>
      .cls-1 {
        fill: #fff;
      }

      .cls-2 {
        fill: #ff7b85;
      }

      .cls-3 {
        fill: #ef9d7f;
      }

      .cls-4 {
        fill: #363636;
      }

      .cls-5 {
        fill: #62aa7a;
      }

      .cls-6 {
        fill: #ce7c63;
      }

      .cls-7 {
        fill: #ffbc2a;
      }

      .cls-8 {
        fill: #a87d5b;
      }

      .cls-9 {
        fill: #333;
      }

      .cls-10 {
        fill: #ffb39c;
      }

      .cls-11 {
        fill: #f80500;
      }

      .cls-12 {
        fill: #ab7a5a;
      }

      .cls-13 {
        fill: #ff8c8f;
      }

      .cls-14 {
        fill: #f4ae32;
      }

      .cls-15 {
        clip-path: url(#clippath);
      }

      .cls-16 {
        fill: none;
      }

      .cls-17 {
        fill: #353535;
      }

      .cls-18 {
        fill: #474747;
      }

      .cls-19 {
        fill: #e8e8e8;
      }

      .cls-20 {
        fill: #515151;
      }

      .cls-21 {
        fill: #9e6647;
      }

      .cls-22 {
        fill: #b72c2c;
      }

      .cls-23 {
        fill: #9b6a49;
      }

      .cls-24 {
        fill: #4cb0ed;
      }

      .cls-25 {
        fill: #6d6d6d;
      }

      .cls-26 {
        fill: #3864ab;
      }
    </style>
    <clipPath id="clippath">
      <path class="cls-16" d="M88.87,398.33h72.09c6.51,0,11.8,5.29,11.8,11.8v110.1H77.07v-110.1c0-6.51,5.29-11.8,11.8-11.8Z"/>
    </clipPath>
  </defs>
  <g>
    <rect class="cls-7" x="56.48" y="214.96" width="312.92" height="5" transform="translate(-58.61 354.91) rotate(-72.45)"/>
    <rect class="cls-7" x="56.48" y="214.96" width="312.92" height="5" transform="translate(-76.05 312.94) rotate(-63.89)"/>
    <rect class="cls-7" x="56.48" y="214.96" width="312.92" height="5" transform="translate(-87.03 268.91) rotate(-55.34)"/>
    <rect class="cls-7" x="56.48" y="214.96" width="312.92" height="5" transform="translate(-91.35 223.59) rotate(-46.76)"/>
    <rect class="cls-7" x="56.48" y="214.96" width="312.92" height="5" transform="translate(-88.88 178.27) rotate(-38.2)"/>
    <rect class="cls-7" x="56.48" y="214.96" width="312.92" height="5" transform="translate(-79.68 133.76) rotate(-29.64)"/>
    <rect class="cls-7" x="56.48" y="214.96" width="312.92" height="5" transform="translate(-63.97 91.15) rotate(-21.08)"/>
    <rect class="cls-7" x="56.48" y="214.96" width="312.92" height="5" transform="translate(-42.08 51.34) rotate(-12.52)"/>
    <rect class="cls-7" x="56.48" y="214.96" width="312.92" height="5" transform="translate(-14.49 15.2) rotate(-3.95)"/>
    <rect class="cls-7" x="210.44" y="61" width="5" height="312.92" transform="translate(-20.9 412.26) rotate(-85.4)"/>
    <rect class="cls-7" x="210.44" y="61" width="5" height="312.92" transform="translate(-47.3 375.28) rotate(-76.84)"/>
    <rect class="cls-7" x="210.44" y="61" width="5" height="312.92" transform="translate(-67.89 334.78) rotate(-68.28)"/>
    <rect class="cls-7" x="210.44" y="61" width="5" height="312.92" transform="translate(-82.23 291.67) rotate(-59.71)"/>
    <rect class="cls-7" x="210.44" y="61" width="5" height="312.92" transform="translate(-89.99 246.9) rotate(-51.15)"/>
    <rect class="cls-7" x="210.44" y="61" width="5" height="312.92" transform="translate(-90.99 201.47) rotate(-42.59)"/>
    <rect class="cls-7" x="210.44" y="61" width="5" height="312.92" transform="translate(-85.23 156.41) rotate(-34.03)"/>
    <rect class="cls-7" x="210.44" y="61" width="5" height="312.92" transform="translate(-72.82 112.7) rotate(-25.47)"/>
    <rect class="cls-7" x="210.44" y="61" width="5" height="312.92" transform="translate(-54.04 71.33) rotate(-16.91)"/>
    <rect class="cls-7" x="210.44" y="60.99" width="5" height="312.92" transform="translate(-29.31 33.21) rotate(-8.35)"/>
    <rect class="cls-7" x="56.48" y="214.96" width="312.92" height="5" transform="translate(-5.35 429.54) rotate(-89.78)"/>
    <rect class="cls-7" x="56.48" y="214.96" width="312.92" height="5" transform="translate(-34.49 394.68) rotate(-81.21)"/>
    <rect class="cls-7" x="56.48" y="214.96" width="312.92" height="5" transform="translate(-58.09 355.92) rotate(-72.66)"/>
    <rect class="cls-7" x="56.48" y="214.96" width="312.92" height="5" transform="translate(-75.68 314.05) rotate(-64.11)"/>
    <rect class="cls-7" x="56.48" y="214.96" width="312.92" height="5" transform="translate(-86.85 269.95) rotate(-55.53)"/>
    <rect class="cls-7" x="56.48" y="214.96" width="312.92" height="5" transform="translate(-91.33 224.73) rotate(-46.97)"/>
    <rect class="cls-7" x="56.48" y="214.96" width="312.92" height="5" transform="translate(-89.02 179.4) rotate(-38.42)"/>
    <rect class="cls-7" x="56.48" y="214.96" width="312.92" height="5" transform="translate(-80 134.89) rotate(-29.86)"/>
    <rect class="cls-7" x="56.48" y="214.96" width="312.92" height="5" transform="translate(-64.44 92.19) rotate(-21.3)"/>
    <rect class="cls-7" x="56.48" y="214.96" width="312.92" height="5" transform="translate(-42.71 52.31) rotate(-12.74)"/>
    <rect class="cls-7" x="56.48" y="214.96" width="312.92" height="5" transform="translate(-15.28 16.09) rotate(-4.18)"/>
    <rect class="cls-7" x="210.44" y="61" width="5" height="312.92" transform="translate(-20.17 413.13) rotate(-85.61)"/>
    <rect class="cls-7" x="210.44" y="61" width="5" height="312.92" transform="translate(-46.7 376.25) rotate(-77.05)"/>
    <rect class="cls-7" x="210.44" y="61" width="5" height="312.92" transform="translate(-67.45 335.83) rotate(-68.49)"/>
    <rect class="cls-7" x="210.44" y="61" width="5" height="312.92" transform="translate(-81.95 292.77) rotate(-59.93)"/>
    <rect class="cls-7" x="210.44" y="61" width="5" height="312.92" transform="translate(-89.87 248.03) rotate(-51.37)"/>
    <rect class="cls-7" x="210.44" y="60.99" width="5" height="312.92" transform="translate(-91.05 202.61) rotate(-42.81)"/>
    <rect class="cls-7" x="210.44" y="61" width="5" height="312.92" transform="translate(-85.45 157.53) rotate(-34.24)"/>
    <rect class="cls-7" x="210.44" y="61" width="5" height="312.92" transform="translate(-73.21 113.77) rotate(-25.68)"/>
    <rect class="cls-7" x="210.44" y="61" width="5" height="312.92" transform="translate(-54.58 72.33) rotate(-17.12)"/>
    <rect class="cls-7" x="210.44" y="61" width="5" height="312.92" transform="translate(-30 34.12) rotate(-8.56)"/>
    <rect class="cls-7" x="210.44" y="61" width="5" height="312.92"/>
  </g>
  <path class="cls-19" d="M118.15,337.72c.9,3,4.51,13.67,15.54,20.88,12.71,8.32,25.9,5.91,28.52,5.37,7.35-13.31,14.7-26.62,22.04-39.92l-66.1,13.68Z"/>
  <path class="cls-2" d="M228.5,178.82h0c62.63,0,113.47,50.85,113.47,113.47v165.75H115.03v-165.75c0-62.63,50.85-113.47,113.47-113.47Z"/>
  <g>
    <path class="cls-12" d="M130.13,80.49h8.88c8.05,0,14.58,6.53,14.58,14.58v48.24c0,7.75-6.29,14.04-14.04,14.04h-10.01c-15.25,0-27.63-12.38-27.63-27.63v-21.02c0-15.57,12.64-28.21,28.21-28.21Z"/>
    <path class="cls-1" d="M136.65,119.92c-.55,0-1-.45-1-1v-38.43c0-.55,.45-1,1-1s1,.45,1,1v38.43c0,.55-.45,1-1,1Z"/>
    <path class="cls-1" d="M123.63,119.92c-.55,0-1-.45-1-1v-38.03c0-.55,.45-1,1-1s1,.45,1,1v38.03c0,.55-.45,1-1,1Z"/>
    <path class="cls-1" d="M110.62,119.92c-.55,0-1-.45-1-1v-32.2c0-.55,.45-1,1-1s1,.45,1,1v32.2c0,.55-.45,1-1,1Z"/>
    <rect class="cls-12" x="117.78" y="152.98" width="32.67" height="17.15"/>
    <path class="cls-21" d="M148.04,106.88c-.4,.61-.61,1.32-.61,2.04v12.19s0,0,0,0c-8.67,0-15.71,7.03-15.71,15.71v3.96c0,8.67,7.03,15.7,15.7,15.7h0c7.29,0,13.2-5.91,13.2-13.2v-35.25c0-5.37-7.45-9.01-12.58-1.15Z"/>
  </g>
  <path class="cls-19" d="M118.6,291.99l-9.76-128.32,55.2-3.35,37.57,163.73-26.29,69.73h0c-32.9-23.98-53.64-61.19-56.72-101.79Z"/>
  <polygon class="cls-21" points="204.85 292.37 244.97 291.75 258.25 323.89 202.11 323.89 204.85 292.37"/>
  <polygon class="cls-1" points="202.96 308.5 208.56 308.5 214.01 324.05 201.61 324.05 202.96 308.5"/>
  <polygon class="cls-1" points="251.62 306.77 220.05 306.77 214.01 324.05 258.75 324.05 251.62 306.77"/>
  <polygon class="cls-1" points="201.61 324.05 184.64 324.05 166.75 458.02 275.15 458.02 289.8 325.19 258.75 324.05 201.61 324.05"/>
  <polygon class="cls-26" points="190.55 324.05 213.29 324.05 207.58 344.22 195.89 341.1 190.55 324.05"/>
  <polygon class="cls-26" points="197.96 418.08 206.89 340.42 218.59 343.54 229.3 418.08 213.63 438.25 197.96 418.08"/>
  <g>
    <polygon class="cls-12" points="188.81 198.19 284.52 210.12 281.31 304.65 168.32 290.3 188.81 198.19"/>
    <g>
      <polygon class="cls-21" points="283.21 248.43 300.48 247.11 297.39 273.58 282.43 271.49 283.21 248.43"/>
      <path class="cls-1" d="M282.8,263.2l-.46-.29,.15-.23c.12-.19,3.01-4.65,5.98-6.85,2.97-2.2,6.83-3.17,6.99-3.21l.26-.07,.13,.53-.26,.06s-3.92,.98-6.8,3.12c-2.89,2.14-5.82,6.66-5.84,6.71l-.15,.23Z"/>
    </g>
    <g>
      <polygon class="cls-21" points="180.62 235.18 164.38 229.18 160.1 255.48 175.58 257.65 180.62 235.18"/>
      <path class="cls-1" d="M176.97,249.5l-.08-.26c-.02-.05-1.59-5.21-3.78-8.05-2.19-2.84-5.65-4.84-5.68-4.86l-.24-.13,.27-.47,.24,.13c.15,.08,3.59,2.07,5.85,5,2.25,2.93,3.81,8.01,3.87,8.23l.08,.26-.52,.16Z"/>
    </g>
    <path class="cls-4" d="M283.21,248.43l12.25-.94,11.17-53.7s-87.29-29.07-90.7-30.74c-3.41-1.67-6.4-3.74-8.7-5.14-2.3-1.4-7.24-5.21-7.24-5.21l5.1,13.6-32.18,20.72-.71,45.06,8.41,3.11,8.19-37,95.71,11.94-1.31,38.31Z"/>
    <polygon class="cls-4" points="269.83 232.31 274.23 226.17 256.9 218.87 252.63 221.94 269.83 232.31"/>
    <polygon class="cls-4" points="191.41 218.5 190.18 211.03 208.95 212.17 211.42 216.82 191.41 218.5"/>
    <path class="cls-1" d="M229.79,263.53s-.02,0-.03,0l-23.46-2.27c-.08,0-.16-.05-.2-.13-.04-.07-.05-.16-.02-.24l4.38-11.64c.04-.1,.13-.17,.24-.18l6.72-.32,2.94-20.04c.02-.15,.14-.25,.31-.23l13.71,1.92c.15,.02,.25,.16,.23,.31l-4.55,32.58c-.02,.13-.13,.23-.27,.23Zm-23.08-2.78l22.85,2.21,4.48-32.05-13.17-1.84-2.94,19.99c-.02,.13-.13,.23-.26,.23l-6.77,.32-4.19,11.14Zm10.95-11.73h0Z"/>
    <path class="cls-4" d="M208.07,236.47c-.25,0-.48-.17-.53-.43-.04-.18-1-4.37-6.49-6.28-5.47-1.9-9.06,2.16-9.1,2.2-.2,.23-.54,.25-.77,.06-.23-.2-.25-.54-.06-.77,.04-.05,4.13-4.66,10.28-2.52,6.1,2.12,7.16,6.88,7.2,7.09,.06,.29-.13,.58-.42,.64-.04,0-.08,.01-.11,.01Z"/>
    <path class="cls-4" d="M264.46,246.44c-.24,0-.45-.16-.52-.39-.05-.17-1.29-4.29-6.91-5.82-5.55-1.51-8.79,2.64-8.93,2.82-.18,.24-.52,.29-.76,.11-.24-.18-.29-.52-.11-.76,.04-.05,3.79-4.93,10.08-3.21,6.23,1.7,7.61,6.38,7.67,6.58,.08,.29-.09,.59-.38,.67-.05,.01-.1,.02-.15,.02Z"/>
    <polygon class="cls-4" points="172.11 269.04 180.58 283.61 267 295.17 282.63 279.13 282.43 305.77 236.16 300.74 235.41 306.1 215.41 303.3 213.79 297.93 167.32 290.82 172.11 269.04"/>
    <path class="cls-22" d="M217.93,275.46l13.26,.53s-1.19,5.99-6.75,5.49c-5.56-.51-6.51-6.02-6.51-6.02Z"/>
    <path class="cls-1" d="M250.26,293.2c-.12,0-.23-.08-.26-.2-.04-.15-3.8-15.47,8.61-24.89,12.41-9.42,23.71-2.42,23.82-2.35,.13,.08,.16,.25,.08,.38-.08,.13-.25,.16-.38,.08-.11-.07-11.09-6.87-23.2,2.32-12.12,9.2-8.45,24.18-8.41,24.33,.04,.15-.05,.29-.2,.33-.02,0-.04,0-.07,0Z"/>
    <path class="cls-1" d="M195.3,285.85s-.03,0-.05,0c-.15-.03-.25-.17-.22-.31,.02-.12,2.02-12.28-3.47-20.27-5.51-8.01-14.96-11.92-15.06-11.96-.14-.06-.21-.21-.15-.35,.06-.14,.21-.21,.35-.15,.1,.04,9.7,4,15.3,12.15,5.62,8.17,3.58,20.55,3.56,20.67-.02,.13-.14,.23-.27,.23Z"/>
    <polygon class="cls-4" points="192.16 265.92 212.2 256.86 224.57 260.85 238.86 259.53 254.33 274.65 227.18 272.82 223.63 267.65 218.54 272.1 192.16 265.92"/>
    <circle class="cls-4" cx="196.37" cy="234.54" r="3.43"/>
    <circle class="cls-4" cx="252.63" cy="245.11" r="3.43"/>
  </g>
  <polygon class="cls-5" points="276.53 136.91 267.55 170.63 301.5 161.88 276.53 136.91"/>
  <polygon class="cls-24" points="326.8 207.34 317.82 241.05 351.77 232.3 326.8 207.34"/>
  <polygon class="cls-5" points="235.54 75.58 258.71 58.06 231.95 46.41 235.54 75.58"/>
  <polygon class="cls-2" points="177.9 115.71 203.69 122.58 197 96.61 177.9 115.71"/>
  <polygon class="cls-24" points="340.95 84.39 306 115.26 350.25 130.65 340.95 84.39"/>
  <polygon class="cls-7" points="345.34 284.18 298.75 286.17 323.45 325.98 345.34 284.18"/>
  <circle class="cls-5" cx="335.52" cy="50.51" r="8.57"/>
  <circle class="cls-24" cx="224.44" cy="142.21" r="8.09"/>
  <circle class="cls-24" cx="339.96" cy="161.18" r="8.09"/>
  <circle class="cls-5" cx="245.33" cy="101.3" r="4.55"/>
  <circle class="cls-13" cx="373.4" cy="101.3" r="4.55"/>
  <circle class="cls-13" cx="289.12" cy="53.08" r="4.55"/>
  <circle class="cls-2" cx="287.04" cy="98.66" r="8.86"/>
  <circle class="cls-2" cx="386.8" cy="191.82" r="8.86"/>
  <circle class="cls-24" cx="211.42" cy="31.3" r="5.04"/>
  <path class="cls-5" d="M100.54,458.04h241.44v84.96c0,15.88-12.89,28.77-28.77,28.77H100.54v-113.72h0Z"/>
  <g>
    <path class="cls-20" d="M226.26,433.5h127.09c6.71,0,12.15,5.45,12.15,12.15v58.73c0,5.16-4.19,9.36-9.36,9.36H223.46c-5.16,0-9.36-4.19-9.36-9.36v-58.73c0-6.71,5.45-12.15,12.15-12.15Z"/>
    <path class="cls-1" d="M234.15,440.47h127.09c6.71,0,12.15,5.45,12.15,12.15v58.73c0,5.16-4.19,9.36-9.36,9.36H231.35c-5.16,0-9.36-4.19-9.36-9.36v-58.73c0-6.71,5.45-12.15,12.15-12.15Z"/>
    <rect class="cls-18" x="282.44" y="440.15" width="1" height="80.56"/>
    <rect class="cls-18" x="222" y="478.51" width="151.4" height="1"/>
    <g>
      <path class="cls-18" d="M299.5,505.31c-.74-.3-1.33-.75-1.77-1.34-.44-.59-.67-1.3-.7-2.14h3.3c.05,.47,.21,.83,.49,1.08,.28,.25,.64,.37,1.09,.37s.82-.11,1.09-.32c.27-.21,.4-.5,.4-.88,0-.31-.11-.57-.32-.78s-.47-.37-.78-.51c-.31-.13-.75-.28-1.31-.45-.82-.25-1.49-.51-2.01-.76s-.97-.63-1.34-1.12c-.38-.5-.56-1.14-.56-1.94,0-1.18,.43-2.11,1.29-2.78,.86-.67,1.98-1,3.35-1s2.53,.33,3.39,1c.86,.67,1.32,1.6,1.38,2.8h-3.35c-.02-.41-.17-.73-.45-.97-.28-.24-.63-.35-1.07-.35-.38,0-.68,.1-.91,.3s-.34,.49-.34,.86c0,.41,.19,.73,.58,.96s.99,.48,1.81,.74c.82,.28,1.49,.54,2,.8s.96,.62,1.33,1.11c.38,.48,.56,1.11,.56,1.87s-.18,1.38-.55,1.97c-.37,.59-.9,1.06-1.6,1.41-.7,.35-1.53,.53-2.48,.53s-1.76-.15-2.5-.45Z"/>
      <path class="cls-18" d="M308.66,505.3c-.34-.32-.52-.72-.52-1.19s.17-.89,.52-1.21c.34-.33,.79-.49,1.33-.49s.97,.16,1.31,.49c.34,.33,.52,.73,.52,1.21s-.17,.87-.52,1.19c-.34,.32-.78,.48-1.31,.48s-.99-.16-1.33-.48Z"/>
      <path class="cls-18" d="M321.63,492.91v8.66c0,1.34-.38,2.37-1.13,3.1-.76,.73-1.77,1.09-3.05,1.09s-2.42-.38-3.23-1.14c-.81-.76-1.21-1.84-1.21-3.24h3.08c0,.53,.11,.93,.33,1.21,.22,.27,.53,.41,.94,.41,.37,0,.66-.12,.87-.36,.21-.24,.31-.59,.31-1.05v-8.66h3.1Z"/>
      <path class="cls-18" d="M327.23,495.39v2.57h4.15v2.39h-4.15v2.79h4.69v2.48h-7.79v-12.72h7.79v2.48h-4.69Z"/>
      <path class="cls-18" d="M342.38,496.94c-.23-.42-.56-.75-.99-.97-.43-.22-.93-.33-1.51-.33-1,0-1.81,.33-2.41,.99s-.91,1.54-.91,2.64c0,1.17,.32,2.09,.95,2.75,.63,.66,1.51,.99,2.62,.99,.76,0,1.4-.19,1.93-.58s.91-.94,1.15-1.67h-3.93v-2.28h6.74v2.88c-.23,.77-.62,1.49-1.17,2.16-.55,.67-1.25,1.2-2.09,1.61s-1.8,.62-2.86,.62c-1.26,0-2.38-.27-3.36-.83-.98-.55-1.75-1.31-2.3-2.29s-.83-2.1-.83-3.35,.28-2.38,.83-3.36,1.31-1.75,2.29-2.3,2.1-.82,3.35-.82c1.52,0,2.81,.37,3.85,1.11,1.04,.74,1.74,1.76,2.07,3.06h-3.42Z"/>
      <path class="cls-18" d="M355.66,503.39h-4.75l-.76,2.25h-3.24l4.6-12.72h3.59l4.6,12.72h-3.28l-.76-2.25Zm-.8-2.39l-1.58-4.66-1.56,4.66h3.13Z"/>
    </g>
    <g>
      <path class="cls-18" d="M304.2,454.47l-4.4,8.52v4.2h-3.1v-4.2l-4.4-8.52h3.52l2.46,5.33,2.45-5.33h3.48Z"/>
      <path class="cls-18" d="M313.37,464.94h-4.75l-.76,2.25h-3.24l4.6-12.72h3.59l4.6,12.72h-3.28l-.76-2.25Zm-.8-2.39l-1.58-4.66-1.56,4.66h3.13Z"/>
      <path class="cls-18" d="M320.91,466.87c-.74-.3-1.33-.75-1.77-1.34-.44-.59-.67-1.3-.7-2.14h3.3c.05,.47,.21,.83,.49,1.08,.28,.25,.64,.37,1.09,.37s.82-.11,1.09-.32c.27-.21,.4-.5,.4-.88,0-.31-.11-.57-.32-.78s-.47-.37-.78-.51c-.31-.13-.75-.28-1.31-.45-.82-.25-1.49-.51-2.01-.76s-.97-.63-1.34-1.12c-.38-.5-.56-1.14-.56-1.94,0-1.18,.43-2.11,1.29-2.78,.86-.67,1.98-1,3.35-1s2.53,.33,3.39,1c.86,.67,1.32,1.6,1.38,2.8h-3.35c-.02-.41-.17-.73-.45-.97-.28-.24-.63-.35-1.07-.35-.38,0-.68,.1-.91,.3s-.34,.49-.34,.86c0,.41,.19,.73,.58,.96s.99,.48,1.81,.74c.82,.28,1.49,.54,2,.8s.96,.62,1.33,1.11c.38,.48,.56,1.11,.56,1.87s-.18,1.38-.55,1.97c-.37,.59-.9,1.06-1.6,1.41-.7,.35-1.53,.53-2.48,.53s-1.76-.15-2.5-.45Z"/>
      <path class="cls-18" d="M344.36,454.47v12.72h-3.1v-7.63l-2.84,7.63h-2.5l-2.86-7.65v7.65h-3.1v-12.72h3.66l3.57,8.81,3.53-8.81h3.64Z"/>
      <path class="cls-18" d="M349.69,454.47v12.72h-3.1v-12.72h3.1Z"/>
      <path class="cls-18" d="M363.31,467.19h-3.1l-5.18-7.85v7.85h-3.1v-12.72h3.1l5.18,7.88v-7.88h3.1v12.72Z"/>
    </g>
  </g>
  <g>
    <path class="cls-20" d="M160.1,394.46H89.69c-9.03,0-16.35,8.11-16.35,18.11v150.67c0,10,7.32,18.11,16.35,18.11h70.4c9.03,0,16.35-8.11,16.35-18.11v-150.67c0-10-7.32-18.11-16.35-18.11Z"/>
    <path class="cls-1" d="M77.05,516.44h95.69v46.3c0,8.06-6.54,14.59-14.59,14.59H90.84c-7.61,0-13.79-6.18-13.79-13.79v-47.11h0Z"/>
    <path class="cls-7" d="M168.2,520.23H81.58c-2.51,0-4.54-2.03-4.54-4.54v-102.51c0-8.2,6.65-14.85,14.85-14.85h65.99c8.2,0,14.85,6.65,14.85,14.85v102.51c0,2.51-2.03,4.54-4.54,4.54Z"/>
    <g class="cls-15">
      <g>
        <g>
          <polygon class="cls-25" points="96.78 481.62 112.58 522.71 85.55 519.26 84.79 482.78 96.78 481.62"/>
          <path class="cls-3" d="M94.81,470.12l.16,5.26,.85-.94c.56-.62,1.34-1.01,2.18-1.02,.45,0,.92,.05,1.27,.26,.65,.39,.15,1.56-.2,2.23-.16,.3-.38,.56-.65,.78l-3.33,2.72,.07,2.37-10.36,1.01-1.15-11.18s-.08-3.72,4.1-6.73c2.1-1.52,3.87-.67,5.1,.55s1.93,2.94,1.98,4.7Z"/>
          <path class="cls-11" d="M92.13,473.49s-.03,0-.05,0c-.27-.03-.47-.27-.45-.55l.72-7.05c.03-.27,.28-.47,.55-.45,.27,.03,.47,.27,.45,.55l-.72,7.05c-.03,.26-.24,.45-.5,.45Z"/>
          <path class="cls-11" d="M89.79,473.32c-.27,0-.49-.21-.5-.48l-.37-7.94c-.01-.28,.2-.51,.48-.52,.28-.02,.51,.2,.52,.48l.37,7.94c.01,.28-.2,.51-.48,.52,0,0-.02,0-.02,0Z"/>
          <path class="cls-11" d="M87.01,472.99c-.23,0-.44-.17-.49-.41l-1.06-5.51c-.05-.27,.13-.53,.4-.59,.27-.05,.53,.12,.59,.4l1.06,5.51c.05,.27-.13,.53-.4,.59-.03,0-.06,0-.09,0Z"/>
        </g>
        <path class="cls-18" d="M93.44,500.43l-10.31,23.12,97.45,3.39s-2.26-9.35-6.38-15.84c-4.12-6.48-16.21-20.17-16.21-20.17l-64.56,9.5Z"/>
        <path class="cls-20" d="M100.12,438.58l25.48-13.98,26.6,17.38-.15,40.81,14.9,17.44s-17.21,17.28-39.64,16.5c-22.43-.78-40.47-10.37-40.47-10.37l10.02-25.74,3.27-42.03Z"/>
        <path class="cls-1" d="M121.47,516.94h0c-.37,0-.66-.3-.66-.67l.1-30.15c0-.37,.3-.66,.66-.66h0c.37,0,.66,.3,.66,.67l-.1,30.15c0,.37-.3,.66-.66,.66Z"/>
        <g>
          <g>
            <path class="cls-14" d="M118.03,483.75c-.22-.03-1.27-.14-2.5,.51-.38,.2-.99,.59-1.57,1.3,.93,.48,1.74,.59,2.21,.61,.69,.04,1.84,.1,2.48-.65,.31-.36,.57-.98,.33-1.37-.18-.3-.57-.35-.95-.4Z"/>
            <path class="cls-14" d="M118.11,485.97c-.21,.08-1.2,.46-1.99,1.6-.24,.35-.61,.98-.79,1.88,1.05,0,1.81-.28,2.24-.47,.63-.28,1.68-.76,1.9-1.72,.11-.46,.06-1.13-.34-1.37-.29-.18-.67-.05-1.02,.08Z"/>
            <path class="cls-14" d="M119.27,487.87c-.07,.21-.41,1.21-.02,2.55,.12,.41,.37,1.09,.95,1.81,.66-.81,.94-1.58,1.06-2.04,.18-.66,.48-1.78-.12-2.56-.28-.37-.84-.76-1.27-.61-.33,.11-.46,.48-.59,.84Z"/>
            <path class="cls-14" d="M121.53,488.25c0,.22,.08,1.28,.93,2.38,.26,.34,.75,.88,1.55,1.32,.31-1,.28-1.81,.22-2.28-.08-.68-.22-1.83-1.07-2.33-.4-.24-1.06-.39-1.41-.09-.26,.23-.25,.62-.23,1Z"/>
            <path class="cls-14" d="M123.38,487.43c.13,.18,.79,1.01,2.11,1.44,.41,.13,1.12,.3,2.03,.21-.31-1-.79-1.65-1.11-2.01-.45-.52-1.21-1.38-2.2-1.32-.47,.03-1.1,.28-1.21,.72-.09,.33,.15,.65,.38,.96Z"/>
            <path class="cls-14" d="M124.71,485.71c.22,.05,1.26,.25,2.54-.29,.39-.17,1.04-.5,1.68-1.16-.89-.56-1.68-.73-2.15-.8-.68-.09-1.82-.25-2.53,.44-.34,.33-.65,.93-.45,1.34,.15,.31,.54,.4,.91,.48Z"/>
          </g>
          <path class="cls-1" d="M117.67,483.56c.53-2.16,6.92-1.43,7.47,.49,.55,1.92-1.73,4.49-4.2,4.18-2.47-.32-3.8-2.5-3.26-4.66Z"/>
        </g>
        <polygon class="cls-3" points="100.24 448.95 143.16 450.44 142.78 473.83 121.1 486.12 99.75 472.75 100.24 448.95"/>
        <path class="cls-18" d="M143.86,440.75l-.37,10.61-43.76-1.52,.39-11.25s10.94-.91,21.3-.55,22.44,2.71,22.44,2.71Z"/>
        <path class="cls-9" d="M126.69,454.04l-.11,3.26s3.34-.04,6.71-.7c3.37-.66,7.4-2.54,7.4-2.54l.15-4.19s-5.2,2.07-7.09,2.63-7.05,1.54-7.05,1.54Z"/>
        <path class="cls-9" d="M114.67,454.27l-.12,3.44-12.66-3.01,.53-3.48s4.15,.67,6.31,1.21c2.17,.54,5.94,1.84,5.94,1.84Z"/>
        <path class="cls-11" d="M130.53,481.27c-.27,0-.5-.22-.5-.5,0-.21,0-5.24,3.94-8.55,3.93-3.29,8.72-2.77,8.92-2.74,.27,.03,.47,.28,.44,.55-.03,.27-.28,.47-.55,.44-.04,0-4.57-.49-8.16,2.52-3.59,3-3.58,7.72-3.58,7.77,0,.28-.22,.5-.5,.5h0Z"/>
        <path class="cls-11" d="M110.42,479.93c-.26,0-.48-.2-.5-.46,0-.05-.46-4.99-3.95-7.66-3.48-2.66-6.05-2.36-6.08-2.35-.27,.04-.52-.15-.56-.43-.04-.27,.15-.52,.42-.56,.12-.02,2.98-.39,6.82,2.55,3.85,2.95,4.32,8.15,4.34,8.37,.02,.27-.18,.52-.46,.54-.01,0-.03,0-.04,0Z"/>
        <path class="cls-22" d="M122.26,480.51c-.26,0-.51-.16-.62-.42-.13-.34,.03-.73,.37-.86,.04-.02,1.9-.79,3.33-2.83,1.49-2.12,1.95-4,1.95-4.02,.08-.36,.45-.57,.8-.49,.36,.08,.58,.44,.49,.8-.02,.09-.52,2.13-2.16,4.47-1.68,2.4-3.84,3.27-3.94,3.3-.08,.03-.16,.05-.24,.05Z"/>
        <g>
          <path class="cls-17" d="M111.94,466.08c-.15,0-.28-.08-.34-.23-.33-.76-1.11-2.18-2.72-3.09-2.64-1.49-5.37-.45-5.89-.22-.19,.08-.41,0-.49-.2s0-.41,.2-.49c.58-.25,3.61-1.41,6.56,.26,1.8,1.02,2.68,2.6,3.04,3.45,.08,.19,0,.41-.2,.49-.05,.02-.1,.03-.15,.03Z"/>
          <path class="cls-17" d="M103.48,462.06c-.15,0-.29-.09-.35-.23l-.66-1.59c-.08-.19,.01-.41,.2-.49,.19-.08,.41,.01,.49,.2l.66,1.59c.08,.19-.01,.41-.2,.49-.05,.02-.1,.03-.14,.03Z"/>
          <path class="cls-17" d="M104.73,461.88h0c-.21,0-.37-.17-.37-.38l.02-1.65c0-.21,.18-.38,.38-.37,.21,0,.37,.17,.37,.38l-.02,1.65c0,.21-.17,.37-.38,.37Z"/>
          <path class="cls-17" d="M107.39,461.99c-1.26,.29-1.69,1.76-1.79,2.13-.12,.42-.46,1.6,.24,2.33,.49,.51,1.19,.48,1.23,.48,1.15-.06,1.78-1.45,2-1.93,.28-.62,.78-1.71,.21-2.46-.43-.58-1.29-.69-1.88-.55Z"/>
        </g>
        <g>
          <path class="cls-17" d="M127.31,465.55c-.05,0-.11-.01-.16-.04-.19-.09-.26-.32-.17-.5,.4-.83,1.36-2.37,3.2-3.3,3.03-1.53,6-.22,6.56,.05,.19,.09,.26,.32,.17,.5-.09,.19-.32,.26-.5,.17-.51-.25-3.18-1.43-5.9-.06-1.65,.83-2.5,2.21-2.86,2.96-.06,.13-.2,.21-.34,.21Z"/>
          <path class="cls-17" d="M135.94,461.94c-.05,0-.11-.01-.16-.04-.19-.09-.27-.31-.18-.5l.73-1.55c.09-.19,.31-.26,.5-.18,.19,.09,.27,.31,.18,.5l-.73,1.55c-.06,.14-.2,.21-.34,.21Z"/>
          <path class="cls-17" d="M134.71,461.69h-.01c-.21,0-.37-.18-.36-.39l.06-1.65c0-.21,.18-.38,.39-.36,.21,0,.37,.18,.36,.39l-.06,1.65c0,.2-.17,.36-.37,.36Z"/>
          <path class="cls-17" d="M132.02,461.68c1.25,.35,1.6,1.84,1.69,2.22,.1,.43,.38,1.62-.35,2.31-.51,.49-1.21,.43-1.25,.42-1.15-.11-1.71-1.53-1.91-2.02-.25-.63-.7-1.75-.09-2.47,.46-.55,1.32-.63,1.91-.46Z"/>
        </g>
        <path class="cls-11" d="M111.78,471.84c-.17,0-.33-.08-.42-.23-.1-.15-.11-.33-.03-.49l7.01-14.65c.1-.2,.31-.32,.54-.28,.22,.04,.39,.22,.41,.44l1.47,14.32c.01,.14-.03,.27-.12,.38-.09,.1-.22,.17-.36,.17l-8.47,.33h-.02Zm6.69-13.33l-5.88,12.3,7.11-.28-1.23-12.02Z"/>
      </g>
    </g>
    <path class="cls-20" d="M140.23,405.8h-30.3c-4.12,0-7.47-3.34-7.47-7.47h0s22.33-1.65,22.33-1.65l22.91,1.65h0c0,4.12-3.34,7.47-7.47,7.47Z"/>
  </g>
  <g>
    <path class="cls-1" d="M163.44,506.8c-3.46-4.28-5.55-9.72-5.55-15.66,0-13.76,11.15-24.91,24.91-24.91,13.76,0,24.91,11.15,24.91,24.91,0,13.76-11.15,24.91-24.91,24.91-4.71,0-9.1-1.33-12.86-3.61l-9.91,4.56,3.41-10.21Z"/>
    <path class="cls-20" d="M160.03,517.51c-.12,0-.24-.04-.33-.13-.15-.13-.2-.34-.14-.53l3.32-9.95c-3.54-4.47-5.49-10.06-5.49-15.76,0-14.01,11.4-25.41,25.41-25.41s25.41,11.4,25.41,25.41-11.4,25.41-25.41,25.41c-4.52,0-8.97-1.22-12.89-3.54l-9.67,4.45c-.07,.03-.14,.05-.21,.05Zm22.77-50.78c-13.46,0-24.41,10.95-24.41,24.41,0,5.65,1.88,10.95,5.44,15.34,.11,.13,.14,.31,.09,.47l-3.04,9.12,8.86-4.08c.15-.07,.33-.06,.47,.03,3.82,2.31,8.18,3.53,12.6,3.53,13.46,0,24.41-10.95,24.41-24.41s-10.95-24.41-24.41-24.41Z"/>
  </g>
  <g>
    <rect class="cls-24" x="174.03" y="468.18" width="4.82" height="50.89" transform="translate(400.72 19.82) rotate(45)"/>
    <rect class="cls-24" x="174.03" y="468.18" width="4.82" height="50.89" transform="translate(-297.37 269.34) rotate(-45)"/>
  </g>
  <g>
    <rect class="cls-18" x="249.86" y="479.19" width="4.14" height="43.77" transform="translate(428.1 -31.38) rotate(45)"/>
    <rect class="cls-18" x="249.43" y="479.19" width="4.14" height="43.77" transform="translate(-280.65 324.6) rotate(-45)"/>
  </g>
  <g>
    <path class="cls-23" d="M195.44,366.29h1.71c2.94,0,5.33,2.39,5.33,5.33v22.33c0,2.94-2.39,5.33-5.33,5.33h-4.39c-4.39,0-7.96-3.57-7.96-7.96v-14.39c0-5.87,4.77-10.64,10.64-10.64Z" transform="translate(621.72 355.01) rotate(113.12)"/>
    <path class="cls-8" d="M164.47,381.42h23.47c11.5,0,20.84,9.34,20.84,20.84v12.68c0,8.39-6.82,15.21-15.21,15.21h-29.1c-5.1,0-9.24-4.14-9.24-9.24v-30.26c0-5.1,4.14-9.24,9.24-9.24Z" transform="translate(624.57 361.85) rotate(108.49)"/>
    <path class="cls-1" d="M178.28,394.21c-.07,0-.13-.01-.2-.04l-15.77-6.73c-.25-.11-.37-.4-.26-.66s.4-.37,.66-.26l15.77,6.73c.25,.11,.37,.4,.26,.66-.08,.19-.27,.3-.46,.3Z"/>
    <path class="cls-1" d="M173.52,405.14c-.07,0-.13-.01-.2-.04l-14.81-6.33c-.25-.11-.37-.4-.26-.66s.4-.37,.66-.26l14.81,6.33c.25,.11,.37,.4,.26,.66-.08,.19-.27,.3-.46,.3Z"/>
    <path class="cls-1" d="M168.81,416.28c-.07,0-.13-.01-.2-.04l-13.81-5.9c-.25-.11-.37-.4-.26-.66s.4-.37,.66-.26l13.81,5.9c.25,.11,.37,.4,.26,.66-.08,.19-.27,.3-.46,.3Z"/>
  </g>
  <path class="cls-19" d="M320.81,434.42l-.11-.58-13.67-91.47-17.23-17.18-18.93,78.65-59.63-14.5-16.96,48.91,88.56,23.83h0c2.77,.65,15.97,3.45,28.25-4.49,.06-.04,.13-.08,.19-.13,7.58-4.98,11.27-14.15,9.52-23.05Z"/>
  <g>
    <rect class="cls-7" x="233.28" y="513.12" width="17.54" height="43.25"/>
    <polygon class="cls-7" points="233.28 513.12 242.05 491.87 250.83 513.12 233.28 513.12"/>
  </g>
  <g>
    <path class="cls-10" d="M264.66,535.57c-2.54,0-6.59,0-9.13,0-2.99,0-5.86-2.64-5.72-5.72,.14-3.1,2.52-5.72,5.72-5.72,3.08,0,7.66-.02,10.74,0,2.71,0,4.95,.82,6.63,3,.96,1.25,1.67,2.68,2.42,4.06,2.79,5.11,5.36,10.34,7.69,15.67,.64,1.46,1.02,2.81,.58,4.41-.37,1.33-1.39,2.77-2.63,3.42-2.48,1.31-6.55,.87-7.83-2.05-2.12-4.84-4.43-9.6-6.93-14.25-.5-.94-1.02-1.87-1.54-2.8Z"/>
    <path class="cls-10" d="M265.89,579.28h-22.05v-36.43h33.82c4.29,0,7.76,3.72,7.76,8.31v7.23c0,11.54-8.75,20.9-19.54,20.9Z"/>
    <path class="cls-10" d="M263.44,536.31h0c0,4.02-3.26,7.27-7.27,7.27h-.17s0,7.53,0,7.53c0,0,19.3-3.03,19.3-3.86,0-.83-5.24-12.13-5.24-12.13l-5.91-2.57-.7,3.77Z"/>
    <path class="cls-10" d="M291.23,542.99h50.74v28.7h-79.44c0-15.84,12.86-28.7,28.7-28.7Z" transform="translate(604.51 1114.68) rotate(-180)"/>
    <path class="cls-10" d="M219.55,535.35c-.08,1.53,.48,2.93,1.24,4.26,.56,.98,1.24,1.93,1.82,2.86,.22,.34,.44,.7,.65,1.04,.8,1.29,1.61,2.58,2.43,3.87,.02,.03,.05,.07,.07,.1,1.17,1.89,2.24,4.06,4.04,5.42,.97,.72,2.06,1.09,3.21,1.26h0c.65,.1,1.32,.15,1.99,.15,.95,.02,1.9-.01,2.83-.01h12.19c1.5,0,2.82-.61,3.79-1.56,1.11-1.09,1.8-2.62,1.84-4.25,.1-3.13-2.82-5.64-5.8-5.64h-12.93c-.16,0-.37-.02-.58-.03-.1-.17-.22-.35-.33-.53h0c-.17-.29-.34-.56-.52-.82-.46-.73-.92-1.47-1.39-2.21-.34-.54-.69-1.09-1.03-1.64-.09-.15-.19-.31-.29-.46-.38-.61-.77-1.21-1.14-1.82,.41-.74,.82-1.48,1.24-2.22,.5-.9,1.01-1.82,1.52-2.74,.3-.53,.6-1.06,.89-1.6,1.56-2.79,.47-6.15-2.18-7.8-2.61-1.63-6.34-.45-7.8,2.16-1,1.8-1.99,3.58-2.99,5.38-1.21,2.16-2.64,4.27-2.78,6.82Z"/>
    <path class="cls-10" d="M219.55,543.67c-.08,1.53,.48,2.93,1.24,4.26,.56,1,1.24,1.95,1.82,2.87,.22,.34,.44,.7,.65,1.04,.8,1.29,1.61,2.58,2.43,3.87,1.2,1.91,2.28,4.13,4.11,5.51,.97,.73,2.07,1.1,3.21,1.27,1.57,.24,3.24,.13,4.82,.13h12.19c1.5,0,2.81-.6,3.78-1.56,1.12-1.08,1.81-2.61,1.85-4.25,.06-1.61-.7-3.06-1.84-4.08-.97,.95-2.29,1.56-3.79,1.56h-12.19c-.93,0-1.88,.03-2.83,.01-.68,0-1.34-.05-1.99-.14h0c-1.14-.18-2.23-.55-3.21-1.27-1.8-1.35-2.87-3.53-4.04-5.42-.02-.03-.05-.07-.07-.1-.81-1.29-1.63-2.58-2.43-3.87-.22-.34-.44-.7-.65-1.04-.58-.93-1.26-1.88-1.82-2.86-.65,1.27-1.16,2.59-1.24,4.06Z"/>
    <path class="cls-10" d="M219.55,552.01c-.08,1.53,.48,2.93,1.24,4.26,.56,.98,1.24,1.93,1.82,2.86,1.02,1.64,2.05,3.27,3.08,4.91,1.2,1.91,2.28,4.14,4.11,5.52,2.31,1.73,5.29,1.4,8.03,1.4h12.19c1.5,0,2.82-.61,3.79-1.56,1.11-1.09,1.8-2.62,1.84-4.25,.06-1.61-.7-3.07-1.85-4.09-.97,.96-2.28,1.56-3.78,1.56h-12.19c-1.58,0-3.25,.11-4.82-.13-1.13-.17-2.23-.54-3.21-1.27-1.83-1.37-2.91-3.6-4.11-5.51-.81-1.29-1.63-2.58-2.43-3.87-.22-.34-.44-.7-.65-1.04-.58-.93-1.26-1.88-1.82-2.87-.64,1.27-1.16,2.6-1.24,4.08Z"/>
    <path class="cls-10" d="M219.55,560.33c-.15,2.68,1.71,4.98,3.06,7.13,1.02,1.64,2.05,3.27,3.08,4.91,1.2,1.91,2.28,4.13,4.11,5.51,2.31,1.74,5.29,1.4,8.03,1.4h12.19c3.21,0,5.54-2.74,5.63-5.8,.06-1.61-.7-3.06-1.84-4.08-.97,.95-2.29,1.56-3.79,1.56h-12.19c-2.74,0-5.71,.33-8.03-1.4-1.83-1.37-2.91-3.61-4.11-5.52-1.03-1.64-2.06-3.27-3.08-4.91-.58-.93-1.26-1.88-1.82-2.86-.65,1.27-1.16,2.59-1.24,4.06Z"/>
    <g>
      <path class="cls-6" d="M235.51,554.81c-.25,0-.49,0-.74,0h0c-.68,0-1.37-.05-2.04-.14l-.43-.09c-1.17-.23-2.15-.65-3-1.28-1.56-1.17-2.57-2.88-3.55-4.53-.21-.35-.41-.69-.61-1.02l.36-.37-.42,.27-.65-1.04c-.6-.94-1.19-1.89-1.78-2.83l-.65-1.04c-.21-.33-.43-.66-.65-1-.4-.61-.82-1.24-1.18-1.88-.66-1.15-1.4-2.71-1.3-4.53,.12-2.32,1.25-4.26,2.33-6.14,.17-.3,.35-.6,.51-.9l2.99-5.38c.8-1.44,2.24-2.52,3.95-2.96,1.63-.42,3.24-.2,4.55,.61,2.94,1.83,3.97,5.55,2.35,8.46-.3,.54-.6,1.08-.89,1.61-.32,.57-.64,1.14-.95,1.71l-1.66,2.99,1.28,2.03c.34,.54,.68,1.09,1.03,1.63l1.39,2.21c.17,.26,.34,.54,.52,.81l.08,.13c.04,.06,.08,.13,.12,.19,.11,0,.21,.02,.29,.02h12.93c.28,0,.5,.22,.5,.5s-.22,.5-.5,.5h-12.93c-.11,0-.24,0-.38-.02l-.5-.03-.14-.23c-.1-.17-.21-.34-.32-.51l-.08-.14c-.14-.23-.29-.46-.43-.68l-1.39-2.22c-.34-.54-.69-1.09-1.03-1.64l-1.59-2.53,1.95-3.51c.32-.57,.63-1.14,.95-1.71,.3-.53,.59-1.06,.89-1.6,1.39-2.49,.53-5.55-2-7.13-1.07-.67-2.41-.84-3.77-.49-1.42,.37-2.67,1.29-3.33,2.48l-2.99,5.38c-.17,.31-.35,.61-.52,.91-1.07,1.86-2.09,3.62-2.2,5.7-.06,1.22,.3,2.45,1.17,3.99,.35,.62,.76,1.23,1.15,1.83,.23,.34,.45,.68,.66,1.02l.65,1.04c.59,.95,1.18,1.89,1.77,2.83l.72,1.15c.21,.34,.42,.69,.62,1.04,.93,1.57,1.89,3.19,3.29,4.24,.82,.6,1.79,.99,2.98,1.17l.42,.06c.49,.05,.99,.08,1.49,.08,.6,.01,1.19,0,1.78,0,.35,0,.7,0,1.04,0h12.19c.28,0,.5,.22,.5,.5s-.22,.5-.5,.5h-12.19c-.34,0-.69,0-1.03,0-.35,0-.71,0-1.07,0Z"/>
      <path class="cls-6" d="M235.26,563.15c-.85,0-1.71-.03-2.54-.16-1.36-.21-2.48-.65-3.43-1.37-1.55-1.16-2.56-2.85-3.53-4.49-.23-.39-.46-.78-.7-1.15l-.65-1.04c-.6-.94-1.19-1.89-1.78-2.83l-.65-1.04c-.2-.32-.41-.64-.63-.97-.41-.62-.83-1.26-1.21-1.93-.66-1.15-1.4-2.71-1.3-4.53,.07-1.36,.47-2.67,1.29-4.27l.42-.82,.46,.8c.35,.62,.76,1.23,1.15,1.83,.23,.34,.45,.68,.66,1.02l.65,1.04c.59,.95,1.18,1.89,1.77,2.83l.72,1.15c.21,.34,.42,.69,.62,1.04,.93,1.57,1.89,3.19,3.29,4.24,.82,.6,1.79,.99,2.98,1.17l.42,.06c.49,.05,.99,.08,1.49,.08,.6,.01,1.19,0,1.78,0,.35,0,.7,0,1.04,0h12.19c.28,0,.5,.22,.5,.5s-.22,.5-.5,.5h-12.19c-.34,0-.69,0-1.03,0-.6,0-1.2,.02-1.81,0h0c-.68,0-1.37-.05-2.04-.14l-.43-.09c-1.17-.23-2.15-.65-3-1.28-1.56-1.17-2.57-2.88-3.55-4.53-.21-.35-.41-.69-.61-1.02l.36-.37-.42,.27-.65-1.04c-.6-.94-1.19-1.89-1.78-2.83l-.65-1.04c-.21-.33-.43-.66-.65-1-.23-.35-.47-.71-.7-1.08-.49,1.1-.73,2.06-.79,3.04-.06,1.22,.3,2.45,1.17,3.98,.36,.64,.77,1.27,1.17,1.87,.22,.33,.43,.66,.64,.98l.65,1.04c.59,.95,1.18,1.89,1.77,2.83l.65,1.04c.24,.38,.47,.78,.71,1.17,.93,1.55,1.89,3.16,3.28,4.2,.81,.61,1.79,1,2.98,1.18,1.15,.18,2.38,.15,3.58,.13,.39,0,.78-.01,1.17-.01h12.19c.28,0,.5,.22,.5,.5s-.22,.5-.5,.5h-12.19c-.38,0-.76,0-1.15,.01-.4,0-.8,.01-1.2,.01Z"/>
      <path class="cls-6" d="M235.28,571.48c-2.1,0-4.2-.18-6-1.52-1.54-1.16-2.55-2.85-3.52-4.48-.24-.4-.47-.79-.71-1.17-1.03-1.64-2.06-3.28-3.08-4.91-.21-.33-.42-.66-.65-1-.4-.61-.82-1.24-1.18-1.88-.66-1.15-1.4-2.71-1.3-4.53,.09-1.71,.74-3.18,1.29-4.28l.42-.84,.46,.82c.36,.64,.77,1.26,1.17,1.87,.22,.33,.43,.66,.64,.98l.65,1.04c.59,.95,1.18,1.89,1.77,2.83l.65,1.04c.24,.38,.47,.78,.71,1.17,.93,1.55,1.89,3.16,3.28,4.2,.81,.61,1.79,1,2.98,1.18,1.15,.18,2.38,.15,3.58,.13,.39,0,.78-.01,1.17-.01h12.19c.28,0,.5,.22,.5,.5s-.22,.5-.5,.5h-12.19c-.38,0-.76,0-1.15,.01-1.24,.02-2.51,.04-3.74-.15-1.36-.21-2.48-.65-3.43-1.37-1.55-1.16-2.56-2.85-3.53-4.49-.23-.39-.46-.78-.7-1.15l-.65-1.04c-.6-.94-1.19-1.89-1.78-2.83l-.65-1.04c-.2-.32-.41-.64-.63-.97-.24-.37-.48-.74-.72-1.12-.38,.87-.73,1.91-.79,3.04-.06,1.22,.3,2.45,1.17,3.98,.35,.62,.76,1.23,1.15,1.83,.23,.34,.45,.68,.66,1.02,1.02,1.64,2.05,3.28,3.08,4.91,.24,.39,.48,.79,.72,1.19,.92,1.55,1.88,3.16,3.26,4.19,1.86,1.39,4.26,1.35,6.57,1.31,.39,0,.77-.01,1.15-.01h12.19c.28,0,.5,.22,.5,.5s-.22,.5-.5,.5h-12.19c-.38,0-.75,0-1.14,.01-.4,0-.79,.01-1.19,.01Z"/>
      <path class="cls-6" d="M235.23,579.8c-2.09,0-4.17-.19-5.95-1.52-1.55-1.16-2.56-2.85-3.53-4.49-.23-.39-.46-.78-.7-1.15-1.03-1.64-2.06-3.28-3.08-4.92-.2-.32-.42-.65-.64-.98-1.23-1.88-2.63-4-2.49-6.44,.07-1.36,.47-2.67,1.29-4.26l.42-.82,.46,.8c.35,.62,.76,1.23,1.15,1.83,.23,.34,.45,.68,.66,1.02,1.02,1.64,2.05,3.28,3.08,4.91,.24,.39,.48,.79,.72,1.19,.92,1.55,1.88,3.16,3.26,4.19,1.86,1.39,4.26,1.35,6.57,1.31,.39,0,.77-.01,1.15-.01h12.19c.28,0,.5,.22,.5,.5s-.22,.5-.5,.5h-12.19c-.38,0-.75,0-1.14,.01-2.49,.05-5.06,.08-7.19-1.51-1.54-1.16-2.55-2.85-3.52-4.48-.24-.4-.47-.79-.71-1.17-1.03-1.64-2.06-3.28-3.08-4.91-.21-.33-.42-.66-.65-1-.23-.35-.47-.71-.7-1.08-.49,1.1-.73,2.06-.79,3.04-.12,2.11,1.13,4,2.33,5.84,.22,.34,.44,.67,.65,1,1.02,1.64,2.05,3.27,3.08,4.91,.24,.38,.48,.78,.71,1.17,.93,1.55,1.88,3.16,3.27,4.2,1.85,1.39,4.24,1.35,6.55,1.31,.39,0,.79-.01,1.18-.01h28.28c11.61,0,16.62-10.43,16.67-10.54,.12-.25,.42-.36,.66-.24,.25,.12,.36,.41,.24,.66-.05,.11-5.31,11.12-17.58,11.12h-28.28c-.38,0-.77,0-1.16,.01-.41,0-.81,.01-1.22,.01Z"/>
    </g>
  </g>
  <g>
    <g>
      <path class="cls-7" d="M94.33,528.16l-1.73,3.36v1.46h-1.51v-1.46l-1.73-3.36h1.73l.77,1.71,.77-1.71h1.7Z"/>
      <path class="cls-7" d="M95.45,532.79c-.31-.16-.55-.39-.72-.68-.17-.3-.26-.65-.26-1.04s.09-.75,.26-1.04c.17-.3,.42-.53,.72-.68,.31-.16,.66-.24,1.04-.24s.73,.08,1.04,.24c.31,.16,.55,.39,.73,.68,.17,.3,.26,.65,.26,1.04s-.09,.75-.26,1.04c-.17,.3-.42,.53-.73,.68s-.66,.24-1.04,.24-.73-.08-1.04-.24Zm1.4-1.24c.1-.11,.14-.28,.14-.49s-.05-.38-.14-.49c-.1-.11-.21-.17-.35-.17s-.26,.06-.35,.17c-.1,.11-.14,.28-.14,.49s.05,.38,.14,.49c.09,.11,.21,.17,.36,.17s.26-.06,.35-.17Z"/>
      <path class="cls-7" d="M103.06,529.14v3.84h-1.51v-.59c-.12,.18-.28,.33-.47,.44-.2,.11-.43,.17-.7,.17-.44,0-.78-.15-1.03-.44s-.37-.69-.37-1.2v-2.23h1.5v2.04c0,.18,.05,.33,.15,.43,.1,.11,.23,.16,.39,.16s.3-.05,.4-.16c.1-.11,.14-.25,.14-.43v-2.04h1.51Z"/>
      <path class="cls-7" d="M105.82,529.32c.22-.13,.45-.2,.69-.2v1.61h-.43c-.29,0-.5,.05-.63,.15-.13,.1-.2,.28-.2,.53v1.57h-1.51v-3.84h1.51v.71c.15-.22,.34-.4,.56-.53Z"/>
      <path class="cls-7" d="M108.13,530.02c.17-.3,.4-.53,.69-.68,.3-.16,.64-.24,1.02-.24,.5,0,.92,.14,1.26,.42,.34,.28,.56,.67,.65,1.17h-1.6c-.06-.2-.17-.3-.35-.3-.12,0-.22,.06-.29,.17-.07,.11-.11,.28-.11,.5s.04,.39,.11,.5,.17,.17,.29,.17c.17,0,.29-.1,.35-.3h1.6c-.09,.5-.31,.89-.65,1.17-.34,.28-.76,.42-1.26,.42-.38,0-.72-.08-1.02-.24s-.53-.39-.69-.68c-.17-.3-.25-.65-.25-1.04s.08-.75,.25-1.04Z"/>
      <path class="cls-7" d="M113.01,532.79c-.31-.16-.55-.39-.72-.68-.17-.3-.26-.65-.26-1.04s.09-.75,.26-1.04c.17-.3,.42-.53,.72-.68,.31-.16,.66-.24,1.04-.24s.73,.08,1.04,.24c.31,.16,.55,.39,.73,.68,.17,.3,.26,.65,.26,1.04s-.09,.75-.26,1.04c-.17,.3-.42,.53-.73,.68s-.66,.24-1.04,.24-.73-.08-1.04-.24Zm1.4-1.24c.1-.11,.14-.28,.14-.49s-.05-.38-.14-.49c-.1-.11-.21-.17-.35-.17s-.26,.06-.35,.17c-.1,.11-.14,.28-.14,.49s.05,.38,.14,.49c.09,.11,.21,.17,.36,.17s.26-.06,.35-.17Z"/>
      <path class="cls-7" d="M122.82,529.56c.27,.29,.4,.69,.4,1.2v2.23h-1.5v-2.04c0-.16-.05-.29-.15-.38s-.23-.14-.39-.14-.3,.05-.4,.14-.14,.22-.14,.38v2.04h-1.5v-2.04c0-.16-.05-.29-.15-.38s-.23-.14-.39-.14-.3,.05-.4,.14-.14,.22-.14,.38v2.04h-1.51v-3.84h1.51v.52c.11-.16,.26-.29,.45-.39,.19-.1,.41-.15,.66-.15,.28,0,.52,.06,.74,.18,.21,.12,.38,.29,.51,.51,.14-.2,.32-.36,.54-.49,.22-.13,.46-.19,.72-.19,.49,0,.87,.15,1.14,.44Z"/>
      <path class="cls-7" d="M130.15,529.56c.27,.29,.4,.69,.4,1.2v2.23h-1.5v-2.04c0-.16-.05-.29-.15-.38s-.23-.14-.39-.14-.3,.05-.4,.14-.14,.22-.14,.38v2.04h-1.5v-2.04c0-.16-.05-.29-.15-.38s-.23-.14-.39-.14-.3,.05-.4,.14-.14,.22-.14,.38v2.04h-1.51v-3.84h1.51v.52c.11-.16,.26-.29,.45-.39,.19-.1,.41-.15,.66-.15,.28,0,.52,.06,.74,.18,.21,.12,.38,.29,.51,.51,.14-.2,.32-.36,.54-.49,.22-.13,.46-.19,.72-.19,.49,0,.87,.15,1.14,.44Z"/>
      <path class="cls-7" d="M134.9,531.33h-2.43c.02,.33,.16,.5,.42,.5,.16,0,.28-.08,.35-.22h1.6c-.05,.27-.17,.52-.34,.73-.17,.22-.39,.39-.66,.51s-.56,.19-.88,.19c-.38,0-.72-.08-1.02-.24s-.53-.39-.69-.68c-.17-.3-.25-.65-.25-1.04s.08-.75,.25-1.04c.17-.3,.4-.53,.69-.68,.3-.16,.64-.24,1.02-.24s.72,.08,1.02,.23c.3,.16,.53,.38,.69,.67,.17,.29,.25,.63,.25,1.03,0,.1,0,.2-.02,.3Zm-1.51-.66c0-.13-.04-.22-.12-.29-.08-.07-.18-.1-.31-.1-.27,0-.42,.13-.47,.39h.9Z"/>
      <path class="cls-7" d="M139.12,529.56c.25,.29,.37,.69,.37,1.2v2.23h-1.5v-2.04c0-.18-.05-.33-.15-.43s-.23-.16-.39-.16-.3,.05-.39,.16c-.1,.11-.14,.25-.14,.43v2.04h-1.51v-3.84h1.51v.59c.12-.18,.28-.33,.47-.44s.43-.17,.7-.17c.44,0,.78,.15,1.03,.44Z"/>
      <path class="cls-7" d="M142.54,531.7v1.29h-.57c-1.05,0-1.58-.52-1.58-1.57v-1.01h-.48v-1.26h.48v-.93h1.51v.93h.63v1.26h-.63v1.04c0,.09,.02,.16,.07,.2,.04,.04,.11,.06,.21,.06h.36Z"/>
      <path class="cls-7" d="M147.99,529.56c.25,.29,.37,.69,.37,1.2v2.23h-1.5v-2.04c0-.18-.05-.33-.15-.43s-.23-.16-.39-.16-.3,.05-.4,.16c-.09,.11-.14,.25-.14,.43v2.04h-1.51v-5.04h1.51v1.78c.12-.18,.28-.33,.47-.44,.2-.11,.43-.17,.71-.17,.44,0,.78,.15,1.03,.44Z"/>
      <path class="cls-7" d="M149.02,530.01c.14-.3,.33-.52,.57-.68,.24-.16,.51-.23,.81-.23,.25,0,.47,.05,.65,.15,.18,.1,.32,.24,.42,.42v-.52h1.5v3.84h-1.5v-.52c-.1,.18-.23,.32-.42,.42s-.4,.15-.65,.15c-.3,0-.57-.08-.81-.24-.24-.16-.43-.38-.57-.68-.14-.3-.21-.65-.21-1.05s.07-.75,.21-1.05Zm2.28,.58c-.1-.11-.24-.17-.4-.17s-.3,.06-.4,.17-.16,.27-.16,.48,.05,.36,.16,.48,.24,.17,.4,.17,.3-.06,.4-.17c.1-.11,.16-.27,.16-.48s-.05-.36-.16-.48Z"/>
      <path class="cls-7" d="M154.39,532.85c-.28-.12-.5-.28-.66-.49-.16-.21-.26-.45-.28-.71h1.45c.02,.11,.07,.2,.15,.25,.08,.05,.18,.08,.3,.08,.08,0,.14-.02,.18-.05,.04-.03,.07-.08,.07-.13,0-.09-.05-.15-.14-.18-.09-.04-.26-.08-.48-.12-.28-.05-.5-.11-.68-.18-.18-.06-.34-.17-.47-.33-.13-.15-.2-.37-.2-.64,0-.24,.06-.45,.19-.64,.12-.19,.31-.34,.55-.46s.54-.17,.89-.17c.52,0,.92,.13,1.21,.38,.29,.25,.47,.58,.53,.99h-1.34c-.02-.1-.07-.19-.14-.24-.07-.06-.17-.08-.29-.08-.08,0-.14,.01-.18,.04-.04,.03-.06,.07-.06,.13,0,.08,.05,.14,.14,.17,.09,.04,.25,.08,.46,.12,.28,.05,.51,.12,.7,.18,.19,.07,.36,.19,.5,.35,.14,.17,.21,.39,.21,.68,0,.23-.07,.43-.2,.61-.13,.18-.32,.33-.57,.43-.25,.1-.54,.16-.87,.16-.36,0-.68-.06-.96-.18Z"/>
      <path class="cls-7" d="M160.67,529.25c.18-.1,.39-.15,.64-.15,.3,0,.57,.08,.81,.23,.24,.16,.43,.38,.57,.68,.14,.3,.21,.65,.21,1.05s-.07,.75-.21,1.05c-.14,.3-.33,.52-.57,.68-.24,.16-.51,.24-.81,.24-.25,0-.46-.05-.64-.15s-.32-.24-.41-.42v.52h-1.51v-5.04h1.51v1.72c.1-.18,.23-.32,.41-.42Zm.54,1.34c-.1-.11-.24-.17-.4-.17s-.3,.06-.4,.17-.16,.27-.16,.48,.05,.36,.16,.48,.24,.17,.4,.17,.3-.06,.4-.17,.16-.27,.16-.48-.05-.36-.16-.48Z"/>
      <path class="cls-7" d="M167.07,531.33h-2.43c.02,.33,.16,.5,.42,.5,.16,0,.28-.08,.35-.22h1.6c-.05,.27-.17,.52-.34,.73-.17,.22-.39,.39-.66,.51s-.56,.19-.88,.19c-.38,0-.72-.08-1.02-.24-.3-.16-.53-.39-.69-.68-.17-.3-.25-.65-.25-1.04s.08-.75,.25-1.04c.17-.3,.4-.53,.69-.68,.3-.16,.64-.24,1.02-.24s.72,.08,1.02,.23,.53,.38,.69,.67c.17,.29,.25,.63,.25,1.03,0,.1,0,.2-.02,.3Zm-1.51-.66c0-.13-.04-.22-.12-.29-.08-.07-.18-.1-.31-.1-.27,0-.42,.13-.47,.39h.9Z"/>
      <path class="cls-7" d="M171.27,531.33h-2.43c.02,.33,.16,.5,.42,.5,.16,0,.28-.08,.35-.22h1.6c-.05,.27-.17,.52-.34,.73-.17,.22-.39,.39-.66,.51s-.56,.19-.88,.19c-.38,0-.72-.08-1.02-.24-.3-.16-.53-.39-.69-.68-.17-.3-.25-.65-.25-1.04s.08-.75,.25-1.04c.17-.3,.4-.53,.69-.68,.3-.16,.64-.24,1.02-.24s.72,.08,1.02,.23,.53,.38,.69,.67c.17,.29,.25,.63,.25,1.03,0,.1,0,.2-.02,.3Zm-1.51-.66c0-.13-.04-.22-.12-.29-.08-.07-.18-.1-.31-.1-.27,0-.42,.13-.47,.39h.9Z"/>
      <path class="cls-7" d="M175.48,529.56c.25,.29,.37,.69,.37,1.2v2.23h-1.5v-2.04c0-.18-.05-.33-.15-.43s-.23-.16-.39-.16-.3,.05-.4,.16c-.09,.11-.14,.25-.14,.43v2.04h-1.51v-3.84h1.51v.59c.12-.18,.28-.33,.47-.44,.2-.11,.43-.17,.71-.17,.44,0,.78,.15,1.03,.44Z"/>
      <path class="cls-7" d="M179.59,529.25c.18-.1,.39-.15,.64-.15,.3,0,.57,.08,.81,.23s.43,.38,.57,.68c.14,.3,.21,.65,.21,1.05s-.07,.75-.21,1.05c-.14,.3-.33,.52-.57,.68-.24,.16-.51,.24-.81,.24-.25,0-.46-.05-.64-.15-.18-.1-.32-.24-.41-.42v.52h-1.51v-5.04h1.51v1.72c.09-.18,.23-.32,.41-.42Zm.54,1.34c-.1-.11-.24-.17-.4-.17s-.3,.06-.4,.17-.16,.27-.16,.48,.05,.36,.16,.48,.24,.17,.4,.17,.3-.06,.4-.17,.16-.27,.16-.48-.05-.36-.16-.48Z"/>
      <path class="cls-7" d="M183.8,527.95v5.04h-1.51v-5.04h1.51Z"/>
      <path class="cls-7" d="M185.27,532.79c-.31-.16-.55-.39-.72-.68-.17-.3-.26-.65-.26-1.04s.09-.75,.26-1.04c.17-.3,.42-.53,.72-.68,.31-.16,.66-.24,1.04-.24s.73,.08,1.04,.24c.31,.16,.55,.39,.73,.68,.17,.3,.26,.65,.26,1.04s-.09,.75-.26,1.04c-.17,.3-.42,.53-.73,.68s-.66,.24-1.04,.24-.73-.08-1.04-.24Zm1.4-1.24c.1-.11,.14-.28,.14-.49s-.05-.38-.14-.49-.21-.17-.35-.17-.26,.06-.35,.17-.14,.28-.14,.49,.05,.38,.14,.49c.09,.11,.21,.17,.36,.17s.26-.06,.35-.17Z"/>
      <path class="cls-7" d="M188.86,530.02c.17-.3,.4-.53,.69-.68,.3-.16,.64-.24,1.02-.24,.5,0,.92,.14,1.26,.42,.34,.28,.56,.67,.65,1.17h-1.6c-.06-.2-.17-.3-.35-.3-.12,0-.22,.06-.29,.17-.07,.11-.11,.28-.11,.5s.04,.39,.11,.5,.17,.17,.29,.17c.17,0,.29-.1,.35-.3h1.6c-.09,.5-.31,.89-.65,1.17-.34,.28-.76,.42-1.26,.42-.38,0-.72-.08-1.02-.24-.3-.16-.53-.39-.69-.68-.17-.3-.25-.65-.25-1.04s.08-.75,.25-1.04Z"/>
      <path class="cls-7" d="M195.42,532.98l-.95-1.53v1.53h-1.51v-5.04h1.51v2.63l.96-1.44h1.76l-1.44,1.93,1.47,1.91h-1.8Z"/>
      <path class="cls-7" d="M201.26,531.33h-2.43c.02,.33,.16,.5,.42,.5,.16,0,.28-.08,.35-.22h1.6c-.05,.27-.17,.52-.34,.73-.17,.22-.39,.39-.66,.51s-.56,.19-.88,.19c-.38,0-.72-.08-1.02-.24-.3-.16-.53-.39-.69-.68-.17-.3-.25-.65-.25-1.04s.08-.75,.25-1.04c.17-.3,.4-.53,.69-.68,.3-.16,.64-.24,1.02-.24s.72,.08,1.02,.23c.3,.16,.53,.38,.69,.67,.17,.29,.25,.63,.25,1.03,0,.1,0,.2-.02,.3Zm-1.51-.66c0-.13-.04-.22-.12-.29-.08-.07-.18-.1-.31-.1-.27,0-.42,.13-.47,.39h.9Z"/>
      <path class="cls-7" d="M201.76,530.01c.14-.3,.33-.52,.57-.68,.24-.16,.51-.23,.81-.23,.25,0,.46,.05,.64,.15,.18,.1,.32,.24,.41,.42v-1.72h1.51v5.04h-1.51v-.52c-.09,.18-.23,.32-.41,.42-.18,.1-.39,.15-.64,.15-.3,0-.57-.08-.81-.24-.24-.16-.43-.38-.57-.68-.14-.3-.21-.65-.21-1.05s.07-.75,.21-1.05Zm2.28,.58c-.1-.11-.24-.17-.4-.17s-.3,.06-.4,.17c-.1,.11-.16,.27-.16,.48s.05,.36,.16,.48c.1,.11,.24,.17,.4,.17s.3-.06,.4-.17,.16-.27,.16-.48-.05-.36-.16-.48Z"/>
    </g>
    <g>
      <path class="cls-7" d="M94.33,548.09l-1.73,3.36v1.46h-1.51v-1.46l-1.73-3.36h1.73l.77,1.71,.77-1.71h1.7Z"/>
      <path class="cls-7" d="M95.45,552.72c-.31-.16-.55-.39-.72-.68-.17-.3-.26-.65-.26-1.04s.09-.75,.26-1.04c.17-.3,.42-.53,.72-.68,.31-.16,.66-.24,1.04-.24s.73,.08,1.04,.24c.31,.16,.55,.39,.73,.68,.17,.3,.26,.65,.26,1.04s-.09,.75-.26,1.04c-.17,.3-.42,.53-.73,.68s-.66,.24-1.04,.24-.73-.08-1.04-.24Zm1.4-1.24c.1-.11,.14-.28,.14-.49s-.05-.38-.14-.49c-.1-.11-.21-.17-.35-.17s-.26,.06-.35,.17c-.1,.11-.14,.28-.14,.49s.05,.38,.14,.49c.09,.11,.21,.17,.36,.17s.26-.06,.35-.17Z"/>
      <path class="cls-7" d="M103.06,549.07v3.84h-1.51v-.59c-.12,.18-.28,.33-.47,.44-.2,.11-.43,.17-.7,.17-.44,0-.78-.15-1.03-.44s-.37-.69-.37-1.2v-2.23h1.5v2.04c0,.18,.05,.33,.15,.43,.1,.11,.23,.16,.39,.16s.3-.05,.4-.16c.1-.11,.14-.25,.14-.43v-2.04h1.51Z"/>
      <path class="cls-7" d="M105.82,549.25c.22-.13,.45-.2,.69-.2v1.61h-.43c-.29,0-.5,.05-.63,.15-.13,.1-.2,.28-.2,.53v1.57h-1.51v-3.84h1.51v.71c.15-.22,.34-.4,.56-.53Z"/>
      <path class="cls-7" d="M108.13,549.95c.17-.3,.4-.53,.69-.68,.3-.16,.64-.24,1.02-.24,.5,0,.92,.14,1.26,.42,.34,.28,.56,.67,.65,1.17h-1.6c-.06-.2-.17-.3-.35-.3-.12,0-.22,.06-.29,.17-.07,.11-.11,.28-.11,.5s.04,.39,.11,.5,.17,.17,.29,.17c.17,0,.29-.1,.35-.3h1.6c-.09,.5-.31,.89-.65,1.17-.34,.28-.76,.42-1.26,.42-.38,0-.72-.08-1.02-.24s-.53-.39-.69-.68c-.17-.3-.25-.65-.25-1.04s.08-.75,.25-1.04Z"/>
      <path class="cls-7" d="M113.01,552.72c-.31-.16-.55-.39-.72-.68-.17-.3-.26-.65-.26-1.04s.09-.75,.26-1.04c.17-.3,.42-.53,.72-.68,.31-.16,.66-.24,1.04-.24s.73,.08,1.04,.24c.31,.16,.55,.39,.73,.68,.17,.3,.26,.65,.26,1.04s-.09,.75-.26,1.04c-.17,.3-.42,.53-.73,.68s-.66,.24-1.04,.24-.73-.08-1.04-.24Zm1.4-1.24c.1-.11,.14-.28,.14-.49s-.05-.38-.14-.49c-.1-.11-.21-.17-.35-.17s-.26,.06-.35,.17c-.1,.11-.14,.28-.14,.49s.05,.38,.14,.49c.09,.11,.21,.17,.36,.17s.26-.06,.35-.17Z"/>
      <path class="cls-7" d="M122.82,549.49c.27,.29,.4,.69,.4,1.2v2.23h-1.5v-2.04c0-.16-.05-.29-.15-.38s-.23-.14-.39-.14-.3,.05-.4,.14-.14,.22-.14,.38v2.04h-1.5v-2.04c0-.16-.05-.29-.15-.38s-.23-.14-.39-.14-.3,.05-.4,.14-.14,.22-.14,.38v2.04h-1.51v-3.84h1.51v.52c.11-.16,.26-.29,.45-.39,.19-.1,.41-.15,.66-.15,.28,0,.52,.06,.74,.18,.21,.12,.38,.29,.51,.51,.14-.2,.32-.36,.54-.49,.22-.13,.46-.19,.72-.19,.49,0,.87,.15,1.14,.44Z"/>
      <path class="cls-7" d="M130.15,549.49c.27,.29,.4,.69,.4,1.2v2.23h-1.5v-2.04c0-.16-.05-.29-.15-.38s-.23-.14-.39-.14-.3,.05-.4,.14-.14,.22-.14,.38v2.04h-1.5v-2.04c0-.16-.05-.29-.15-.38s-.23-.14-.39-.14-.3,.05-.4,.14-.14,.22-.14,.38v2.04h-1.51v-3.84h1.51v.52c.11-.16,.26-.29,.45-.39,.19-.1,.41-.15,.66-.15,.28,0,.52,.06,.74,.18,.21,.12,.38,.29,.51,.51,.14-.2,.32-.36,.54-.49,.22-.13,.46-.19,.72-.19,.49,0,.87,.15,1.14,.44Z"/>
      <path class="cls-7" d="M134.9,551.26h-2.43c.02,.33,.16,.5,.42,.5,.16,0,.28-.08,.35-.22h1.6c-.05,.27-.17,.52-.34,.73-.17,.22-.39,.39-.66,.51s-.56,.19-.88,.19c-.38,0-.72-.08-1.02-.24s-.53-.39-.69-.68c-.17-.3-.25-.65-.25-1.04s.08-.75,.25-1.04c.17-.3,.4-.53,.69-.68,.3-.16,.64-.24,1.02-.24s.72,.08,1.02,.23c.3,.16,.53,.38,.69,.67,.17,.29,.25,.63,.25,1.03,0,.1,0,.2-.02,.3Zm-1.51-.66c0-.13-.04-.22-.12-.29-.08-.07-.18-.1-.31-.1-.27,0-.42,.13-.47,.39h.9Z"/>
      <path class="cls-7" d="M139.12,549.49c.25,.29,.37,.69,.37,1.2v2.23h-1.5v-2.04c0-.18-.05-.33-.15-.43s-.23-.16-.39-.16-.3,.05-.39,.16c-.1,.11-.14,.25-.14,.43v2.04h-1.51v-3.84h1.51v.59c.12-.18,.28-.33,.47-.44s.43-.17,.7-.17c.44,0,.78,.15,1.03,.44Z"/>
      <path class="cls-7" d="M142.54,551.63v1.29h-.57c-1.05,0-1.58-.52-1.58-1.57v-1.01h-.48v-1.26h.48v-.93h1.51v.93h.63v1.26h-.63v1.04c0,.09,.02,.16,.07,.2,.04,.04,.11,.06,.21,.06h.36Z"/>
      <path class="cls-7" d="M147.99,549.49c.25,.29,.37,.69,.37,1.2v2.23h-1.5v-2.04c0-.18-.05-.33-.15-.43s-.23-.16-.39-.16-.3,.05-.4,.16c-.09,.11-.14,.25-.14,.43v2.04h-1.51v-5.04h1.51v1.78c.12-.18,.28-.33,.47-.44,.2-.11,.43-.17,.71-.17,.44,0,.78,.15,1.03,.44Z"/>
      <path class="cls-7" d="M149.02,549.94c.14-.3,.33-.52,.57-.68,.24-.16,.51-.23,.81-.23,.25,0,.47,.05,.65,.15,.18,.1,.32,.24,.42,.42v-.52h1.5v3.84h-1.5v-.52c-.1,.18-.23,.32-.42,.42s-.4,.15-.65,.15c-.3,0-.57-.08-.81-.24-.24-.16-.43-.38-.57-.68-.14-.3-.21-.65-.21-1.05s.07-.75,.21-1.05Zm2.28,.58c-.1-.11-.24-.17-.4-.17s-.3,.06-.4,.17-.16,.27-.16,.48,.05,.36,.16,.48,.24,.17,.4,.17,.3-.06,.4-.17c.1-.11,.16-.27,.16-.48s-.05-.36-.16-.48Z"/>
      <path class="cls-7" d="M154.39,552.78c-.28-.12-.5-.28-.66-.49-.16-.21-.26-.45-.28-.71h1.45c.02,.11,.07,.2,.15,.25,.08,.05,.18,.08,.3,.08,.08,0,.14-.02,.18-.05,.04-.03,.07-.08,.07-.13,0-.09-.05-.15-.14-.18-.09-.04-.26-.08-.48-.12-.28-.05-.5-.11-.68-.18-.18-.06-.34-.17-.47-.33-.13-.15-.2-.37-.2-.64,0-.24,.06-.45,.19-.64,.12-.19,.31-.34,.55-.46s.54-.17,.89-.17c.52,0,.92,.13,1.21,.38,.29,.25,.47,.58,.53,.99h-1.34c-.02-.1-.07-.19-.14-.24-.07-.06-.17-.08-.29-.08-.08,0-.14,.01-.18,.04-.04,.03-.06,.07-.06,.13,0,.08,.05,.14,.14,.17,.09,.04,.25,.08,.46,.12,.28,.05,.51,.12,.7,.18,.19,.07,.36,.19,.5,.35,.14,.17,.21,.39,.21,.68,0,.23-.07,.43-.2,.61-.13,.18-.32,.33-.57,.43-.25,.1-.54,.16-.87,.16-.36,0-.68-.06-.96-.18Z"/>
      <path class="cls-7" d="M160.67,549.18c.18-.1,.39-.15,.64-.15,.3,0,.57,.08,.81,.23,.24,.16,.43,.38,.57,.68,.14,.3,.21,.65,.21,1.05s-.07,.75-.21,1.05c-.14,.3-.33,.52-.57,.68-.24,.16-.51,.24-.81,.24-.25,0-.46-.05-.64-.15s-.32-.24-.41-.42v.52h-1.51v-5.04h1.51v1.72c.1-.18,.23-.32,.41-.42Zm.54,1.34c-.1-.11-.24-.17-.4-.17s-.3,.06-.4,.17-.16,.27-.16,.48,.05,.36,.16,.48,.24,.17,.4,.17,.3-.06,.4-.17,.16-.27,.16-.48-.05-.36-.16-.48Z"/>
      <path class="cls-7" d="M167.07,551.26h-2.43c.02,.33,.16,.5,.42,.5,.16,0,.28-.08,.35-.22h1.6c-.05,.27-.17,.52-.34,.73-.17,.22-.39,.39-.66,.51s-.56,.19-.88,.19c-.38,0-.72-.08-1.02-.24-.3-.16-.53-.39-.69-.68-.17-.3-.25-.65-.25-1.04s.08-.75,.25-1.04c.17-.3,.4-.53,.69-.68,.3-.16,.64-.24,1.02-.24s.72,.08,1.02,.23,.53,.38,.69,.67c.17,.29,.25,.63,.25,1.03,0,.1,0,.2-.02,.3Zm-1.51-.66c0-.13-.04-.22-.12-.29-.08-.07-.18-.1-.31-.1-.27,0-.42,.13-.47,.39h.9Z"/>
      <path class="cls-7" d="M171.27,551.26h-2.43c.02,.33,.16,.5,.42,.5,.16,0,.28-.08,.35-.22h1.6c-.05,.27-.17,.52-.34,.73-.17,.22-.39,.39-.66,.51s-.56,.19-.88,.19c-.38,0-.72-.08-1.02-.24-.3-.16-.53-.39-.69-.68-.17-.3-.25-.65-.25-1.04s.08-.75,.25-1.04c.17-.3,.4-.53,.69-.68,.3-.16,.64-.24,1.02-.24s.72,.08,1.02,.23,.53,.38,.69,.67c.17,.29,.25,.63,.25,1.03,0,.1,0,.2-.02,.3Zm-1.51-.66c0-.13-.04-.22-.12-.29-.08-.07-.18-.1-.31-.1-.27,0-.42,.13-.47,.39h.9Z"/>
      <path class="cls-7" d="M175.48,549.49c.25,.29,.37,.69,.37,1.2v2.23h-1.5v-2.04c0-.18-.05-.33-.15-.43s-.23-.16-.39-.16-.3,.05-.4,.16c-.09,.11-.14,.25-.14,.43v2.04h-1.51v-3.84h1.51v.59c.12-.18,.28-.33,.47-.44,.2-.11,.43-.17,.71-.17,.44,0,.78,.15,1.03,.44Z"/>
      <path class="cls-7" d="M179.59,549.18c.18-.1,.39-.15,.64-.15,.3,0,.57,.08,.81,.23s.43,.38,.57,.68c.14,.3,.21,.65,.21,1.05s-.07,.75-.21,1.05c-.14,.3-.33,.52-.57,.68-.24,.16-.51,.24-.81,.24-.25,0-.46-.05-.64-.15-.18-.1-.32-.24-.41-.42v.52h-1.51v-5.04h1.51v1.72c.09-.18,.23-.32,.41-.42Zm.54,1.34c-.1-.11-.24-.17-.4-.17s-.3,.06-.4,.17-.16,.27-.16,.48,.05,.36,.16,.48,.24,.17,.4,.17,.3-.06,.4-.17,.16-.27,.16-.48-.05-.36-.16-.48Z"/>
      <path class="cls-7" d="M183.8,547.87v5.04h-1.51v-5.04h1.51Z"/>
      <path class="cls-7" d="M185.27,552.72c-.31-.16-.55-.39-.72-.68-.17-.3-.26-.65-.26-1.04s.09-.75,.26-1.04c.17-.3,.42-.53,.72-.68,.31-.16,.66-.24,1.04-.24s.73,.08,1.04,.24c.31,.16,.55,.39,.73,.68,.17,.3,.26,.65,.26,1.04s-.09,.75-.26,1.04c-.17,.3-.42,.53-.73,.68s-.66,.24-1.04,.24-.73-.08-1.04-.24Zm1.4-1.24c.1-.11,.14-.28,.14-.49s-.05-.38-.14-.49-.21-.17-.35-.17-.26,.06-.35,.17-.14,.28-.14,.49,.05,.38,.14,.49c.09,.11,.21,.17,.36,.17s.26-.06,.35-.17Z"/>
      <path class="cls-7" d="M188.86,549.95c.17-.3,.4-.53,.69-.68,.3-.16,.64-.24,1.02-.24,.5,0,.92,.14,1.26,.42,.34,.28,.56,.67,.65,1.17h-1.6c-.06-.2-.17-.3-.35-.3-.12,0-.22,.06-.29,.17-.07,.11-.11,.28-.11,.5s.04,.39,.11,.5,.17,.17,.29,.17c.17,0,.29-.1,.35-.3h1.6c-.09,.5-.31,.89-.65,1.17-.34,.28-.76,.42-1.26,.42-.38,0-.72-.08-1.02-.24-.3-.16-.53-.39-.69-.68-.17-.3-.25-.65-.25-1.04s.08-.75,.25-1.04Z"/>
      <path class="cls-7" d="M195.42,552.91l-.95-1.53v1.53h-1.51v-5.04h1.51v2.63l.96-1.44h1.76l-1.44,1.93,1.47,1.91h-1.8Z"/>
      <path class="cls-7" d="M201.26,551.26h-2.43c.02,.33,.16,.5,.42,.5,.16,0,.28-.08,.35-.22h1.6c-.05,.27-.17,.52-.34,.73-.17,.22-.39,.39-.66,.51s-.56,.19-.88,.19c-.38,0-.72-.08-1.02-.24-.3-.16-.53-.39-.69-.68-.17-.3-.25-.65-.25-1.04s.08-.75,.25-1.04c.17-.3,.4-.53,.69-.68,.3-.16,.64-.24,1.02-.24s.72,.08,1.02,.23c.3,.16,.53,.38,.69,.67,.17,.29,.25,.63,.25,1.03,0,.1,0,.2-.02,.3Zm-1.51-.66c0-.13-.04-.22-.12-.29-.08-.07-.18-.1-.31-.1-.27,0-.42,.13-.47,.39h.9Z"/>
      <path class="cls-7" d="M201.76,549.94c.14-.3,.33-.52,.57-.68,.24-.16,.51-.23,.81-.23,.25,0,.46,.05,.64,.15,.18,.1,.32,.24,.41,.42v-1.72h1.51v5.04h-1.51v-.52c-.09,.18-.23,.32-.41,.42-.18,.1-.39,.15-.64,.15-.3,0-.57-.08-.81-.24-.24-.16-.43-.38-.57-.68-.14-.3-.21-.65-.21-1.05s.07-.75,.21-1.05Zm2.28,.58c-.1-.11-.24-.17-.4-.17s-.3,.06-.4,.17c-.1,.11-.16,.27-.16,.48s.05,.36,.16,.48c.1,.11,.24,.17,.4,.17s.3-.06,.4-.17,.16-.27,.16-.48-.05-.36-.16-.48Z"/>
    </g>
    <g>
      <path class="cls-7" d="M94.33,538.13l-1.73,3.36v1.46h-1.51v-1.46l-1.73-3.36h1.73l.77,1.71,.77-1.71h1.7Z"/>
      <path class="cls-7" d="M95.45,542.76c-.31-.16-.55-.39-.72-.68-.17-.3-.26-.65-.26-1.04s.09-.75,.26-1.04c.17-.3,.42-.53,.72-.68,.31-.16,.66-.24,1.04-.24s.73,.08,1.04,.24c.31,.16,.55,.39,.73,.68,.17,.3,.26,.65,.26,1.04s-.09,.75-.26,1.04c-.17,.3-.42,.53-.73,.68s-.66,.24-1.04,.24-.73-.08-1.04-.24Zm1.4-1.24c.1-.11,.14-.28,.14-.49s-.05-.38-.14-.49c-.1-.11-.21-.17-.35-.17s-.26,.06-.35,.17c-.1,.11-.14,.28-.14,.49s.05,.38,.14,.49c.09,.11,.21,.17,.36,.17s.26-.06,.35-.17Z"/>
      <path class="cls-7" d="M103.06,539.11v3.84h-1.51v-.59c-.12,.18-.28,.33-.47,.44-.2,.11-.43,.17-.7,.17-.44,0-.78-.15-1.03-.44s-.37-.69-.37-1.2v-2.23h1.5v2.04c0,.18,.05,.33,.15,.43,.1,.11,.23,.16,.39,.16s.3-.05,.4-.16c.1-.11,.14-.25,.14-.43v-2.04h1.51Z"/>
      <path class="cls-7" d="M105.82,539.28c.22-.13,.45-.2,.69-.2v1.61h-.43c-.29,0-.5,.05-.63,.15-.13,.1-.2,.28-.2,.53v1.57h-1.51v-3.84h1.51v.71c.15-.22,.34-.4,.56-.53Z"/>
      <path class="cls-7" d="M108.13,539.98c.17-.3,.4-.53,.69-.68,.3-.16,.64-.24,1.02-.24,.5,0,.92,.14,1.26,.42,.34,.28,.56,.67,.65,1.17h-1.6c-.06-.2-.17-.3-.35-.3-.12,0-.22,.06-.29,.17-.07,.11-.11,.28-.11,.5s.04,.39,.11,.5,.17,.17,.29,.17c.17,0,.29-.1,.35-.3h1.6c-.09,.5-.31,.89-.65,1.17-.34,.28-.76,.42-1.26,.42-.38,0-.72-.08-1.02-.24s-.53-.39-.69-.68c-.17-.3-.25-.65-.25-1.04s.08-.75,.25-1.04Z"/>
      <path class="cls-7" d="M113.01,542.76c-.31-.16-.55-.39-.72-.68-.17-.3-.26-.65-.26-1.04s.09-.75,.26-1.04c.17-.3,.42-.53,.72-.68,.31-.16,.66-.24,1.04-.24s.73,.08,1.04,.24c.31,.16,.55,.39,.73,.68,.17,.3,.26,.65,.26,1.04s-.09,.75-.26,1.04c-.17,.3-.42,.53-.73,.68s-.66,.24-1.04,.24-.73-.08-1.04-.24Zm1.4-1.24c.1-.11,.14-.28,.14-.49s-.05-.38-.14-.49c-.1-.11-.21-.17-.35-.17s-.26,.06-.35,.17c-.1,.11-.14,.28-.14,.49s.05,.38,.14,.49c.09,.11,.21,.17,.36,.17s.26-.06,.35-.17Z"/>
      <path class="cls-7" d="M122.82,539.52c.27,.29,.4,.69,.4,1.2v2.23h-1.5v-2.04c0-.16-.05-.29-.15-.38s-.23-.14-.39-.14-.3,.05-.4,.14-.14,.22-.14,.38v2.04h-1.5v-2.04c0-.16-.05-.29-.15-.38s-.23-.14-.39-.14-.3,.05-.4,.14-.14,.22-.14,.38v2.04h-1.51v-3.84h1.51v.52c.11-.16,.26-.29,.45-.39,.19-.1,.41-.15,.66-.15,.28,0,.52,.06,.74,.18,.21,.12,.38,.29,.51,.51,.14-.2,.32-.36,.54-.49,.22-.13,.46-.19,.72-.19,.49,0,.87,.15,1.14,.44Z"/>
      <path class="cls-7" d="M130.15,539.52c.27,.29,.4,.69,.4,1.2v2.23h-1.5v-2.04c0-.16-.05-.29-.15-.38s-.23-.14-.39-.14-.3,.05-.4,.14-.14,.22-.14,.38v2.04h-1.5v-2.04c0-.16-.05-.29-.15-.38s-.23-.14-.39-.14-.3,.05-.4,.14-.14,.22-.14,.38v2.04h-1.51v-3.84h1.51v.52c.11-.16,.26-.29,.45-.39,.19-.1,.41-.15,.66-.15,.28,0,.52,.06,.74,.18,.21,.12,.38,.29,.51,.51,.14-.2,.32-.36,.54-.49,.22-.13,.46-.19,.72-.19,.49,0,.87,.15,1.14,.44Z"/>
      <path class="cls-7" d="M134.9,541.29h-2.43c.02,.33,.16,.5,.42,.5,.16,0,.28-.08,.35-.22h1.6c-.05,.27-.17,.52-.34,.73-.17,.22-.39,.39-.66,.51s-.56,.19-.88,.19c-.38,0-.72-.08-1.02-.24s-.53-.39-.69-.68c-.17-.3-.25-.65-.25-1.04s.08-.75,.25-1.04c.17-.3,.4-.53,.69-.68,.3-.16,.64-.24,1.02-.24s.72,.08,1.02,.23c.3,.16,.53,.38,.69,.67,.17,.29,.25,.63,.25,1.03,0,.1,0,.2-.02,.3Zm-1.51-.66c0-.13-.04-.22-.12-.29-.08-.07-.18-.1-.31-.1-.27,0-.42,.13-.47,.39h.9Z"/>
      <path class="cls-7" d="M139.12,539.52c.25,.29,.37,.69,.37,1.2v2.23h-1.5v-2.04c0-.18-.05-.33-.15-.43s-.23-.16-.39-.16-.3,.05-.39,.16c-.1,.11-.14,.25-.14,.43v2.04h-1.51v-3.84h1.51v.59c.12-.18,.28-.33,.47-.44s.43-.17,.7-.17c.44,0,.78,.15,1.03,.44Z"/>
      <path class="cls-7" d="M142.54,541.66v1.29h-.57c-1.05,0-1.58-.52-1.58-1.57v-1.01h-.48v-1.26h.48v-.93h1.51v.93h.63v1.26h-.63v1.04c0,.09,.02,.16,.06,.2s.12,.06,.21,.06h.36Z"/>
      <path class="cls-7" d="M147.99,539.52c.25,.29,.37,.69,.37,1.2v2.23h-1.5v-2.04c0-.18-.05-.33-.15-.43s-.23-.16-.39-.16-.3,.05-.4,.16-.14,.25-.14,.43v2.04h-1.51v-5.04h1.51v1.78c.12-.18,.28-.33,.47-.44,.2-.11,.43-.17,.7-.17,.44,0,.79,.15,1.03,.44Z"/>
      <path class="cls-7" d="M149.02,539.98c.14-.3,.33-.52,.57-.68,.24-.16,.51-.23,.81-.23,.25,0,.47,.05,.65,.15,.18,.1,.32,.24,.41,.42v-.52h1.51v3.84h-1.51v-.52c-.09,.18-.23,.32-.41,.42s-.4,.15-.65,.15c-.3,0-.57-.08-.81-.24-.24-.16-.43-.38-.57-.68-.14-.3-.21-.65-.21-1.05s.07-.75,.21-1.05Zm2.28,.58c-.1-.11-.24-.17-.4-.17s-.3,.06-.4,.17c-.1,.11-.16,.27-.16,.48s.05,.36,.16,.48c.1,.11,.24,.17,.4,.17s.3-.06,.4-.17c.1-.11,.16-.27,.16-.48s-.05-.36-.16-.48Z"/>
      <path class="cls-7" d="M154.39,542.82c-.28-.12-.5-.28-.66-.49-.16-.21-.26-.45-.28-.71h1.45c.02,.11,.07,.2,.15,.25,.08,.05,.18,.08,.3,.08,.08,0,.14-.02,.18-.05,.04-.03,.07-.08,.07-.13,0-.09-.05-.15-.14-.18s-.26-.08-.48-.12c-.28-.05-.5-.11-.68-.18-.18-.06-.34-.17-.47-.33-.13-.15-.2-.37-.2-.64,0-.24,.06-.45,.19-.64,.12-.19,.31-.34,.55-.46,.25-.11,.54-.17,.89-.17,.52,0,.92,.13,1.21,.38s.47,.58,.53,.99h-1.34c-.02-.1-.07-.19-.14-.24-.07-.06-.17-.08-.29-.08-.08,0-.14,.01-.18,.04-.04,.03-.06,.07-.06,.13,0,.08,.05,.14,.14,.17,.09,.04,.25,.08,.46,.12,.28,.05,.51,.12,.7,.18,.19,.07,.36,.19,.5,.35,.14,.17,.21,.39,.21,.68,0,.23-.07,.43-.2,.61s-.32,.33-.57,.43c-.25,.1-.54,.16-.87,.16-.36,0-.68-.06-.96-.18Z"/>
      <path class="cls-7" d="M160.67,539.21c.18-.1,.39-.15,.64-.15,.3,0,.57,.08,.81,.23,.24,.16,.43,.38,.57,.68,.14,.3,.21,.65,.21,1.05s-.07,.75-.21,1.05c-.14,.3-.33,.52-.57,.68-.24,.16-.51,.24-.81,.24-.25,0-.46-.05-.64-.15-.18-.1-.32-.24-.41-.42v.52h-1.51v-5.04h1.51v1.72c.09-.18,.23-.32,.41-.42Zm.54,1.34c-.1-.11-.24-.17-.4-.17s-.3,.06-.4,.17c-.1,.11-.16,.27-.16,.48s.05,.36,.16,.48c.11,.11,.24,.17,.4,.17s.3-.06,.4-.17,.16-.27,.16-.48-.05-.36-.16-.48Z"/>
      <path class="cls-7" d="M167.07,541.29h-2.43c.02,.33,.16,.5,.42,.5,.16,0,.28-.08,.35-.22h1.6c-.05,.27-.17,.52-.34,.73-.17,.22-.39,.39-.66,.51s-.56,.19-.88,.19c-.38,0-.72-.08-1.02-.24-.3-.16-.53-.39-.69-.68-.17-.3-.25-.65-.25-1.04s.08-.75,.25-1.04c.17-.3,.4-.53,.69-.68,.3-.16,.64-.24,1.02-.24s.72,.08,1.02,.23c.3,.16,.53,.38,.69,.67,.17,.29,.25,.63,.25,1.03,0,.1,0,.2-.02,.3Zm-1.51-.66c0-.13-.04-.22-.12-.29-.08-.07-.18-.1-.31-.1-.27,0-.42,.13-.47,.39h.9Z"/>
      <path class="cls-7" d="M171.27,541.29h-2.43c.02,.33,.16,.5,.42,.5,.16,0,.28-.08,.35-.22h1.6c-.05,.27-.17,.52-.34,.73-.17,.22-.39,.39-.66,.51s-.56,.19-.88,.19c-.38,0-.72-.08-1.02-.24-.3-.16-.53-.39-.69-.68-.17-.3-.25-.65-.25-1.04s.08-.75,.25-1.04c.17-.3,.4-.53,.69-.68,.3-.16,.64-.24,1.02-.24s.72,.08,1.02,.23c.3,.16,.53,.38,.69,.67,.17,.29,.25,.63,.25,1.03,0,.1,0,.2-.02,.3Zm-1.51-.66c0-.13-.04-.22-.12-.29-.08-.07-.18-.1-.31-.1-.27,0-.42,.13-.47,.39h.9Z"/>
      <path class="cls-7" d="M175.48,539.52c.25,.29,.37,.69,.37,1.2v2.23h-1.5v-2.04c0-.18-.05-.33-.15-.43s-.23-.16-.39-.16-.3,.05-.39,.16-.14,.25-.14,.43v2.04h-1.51v-3.84h1.51v.59c.12-.18,.28-.33,.47-.44s.43-.17,.71-.17c.44,0,.78,.15,1.03,.44Z"/>
      <path class="cls-7" d="M179.59,539.21c.18-.1,.39-.15,.64-.15,.3,0,.57,.08,.81,.23s.43,.38,.57,.68c.14,.3,.21,.65,.21,1.05s-.07,.75-.21,1.05c-.14,.3-.33,.52-.57,.68-.24,.16-.51,.24-.81,.24-.25,0-.46-.05-.64-.15-.18-.1-.32-.24-.41-.42v.52h-1.51v-5.04h1.51v1.72c.09-.18,.23-.32,.41-.42Zm.54,1.34c-.11-.11-.24-.17-.4-.17s-.3,.06-.4,.17-.16,.27-.16,.48,.05,.36,.16,.48,.24,.17,.4,.17,.3-.06,.4-.17c.1-.11,.16-.27,.16-.48s-.05-.36-.16-.48Z"/>
      <path class="cls-7" d="M183.8,537.91v5.04h-1.51v-5.04h1.51Z"/>
      <path class="cls-7" d="M185.27,542.76c-.31-.16-.55-.39-.72-.68-.17-.3-.26-.65-.26-1.04s.09-.75,.26-1.04c.17-.3,.42-.53,.72-.68,.31-.16,.66-.24,1.04-.24s.73,.08,1.04,.24c.31,.16,.55,.39,.72,.68,.17,.3,.26,.65,.26,1.04s-.09,.75-.26,1.04c-.17,.3-.42,.53-.72,.68s-.66,.24-1.04,.24-.73-.08-1.04-.24Zm1.4-1.24c.1-.11,.14-.28,.14-.49s-.05-.38-.14-.49-.21-.17-.35-.17-.26,.06-.35,.17c-.1,.11-.14,.28-.14,.49s.05,.38,.14,.49c.09,.11,.21,.17,.36,.17s.26-.06,.35-.17Z"/>
      <path class="cls-7" d="M188.86,539.98c.17-.3,.4-.53,.69-.68,.3-.16,.64-.24,1.02-.24,.5,0,.92,.14,1.26,.42,.34,.28,.56,.67,.65,1.17h-1.6c-.06-.2-.17-.3-.35-.3-.12,0-.22,.06-.29,.17-.07,.11-.11,.28-.11,.5s.04,.39,.11,.5,.17,.17,.29,.17c.17,0,.29-.1,.35-.3h1.6c-.09,.5-.31,.89-.65,1.17-.34,.28-.76,.42-1.26,.42-.38,0-.72-.08-1.02-.24s-.53-.39-.69-.68c-.17-.3-.25-.65-.25-1.04s.08-.75,.25-1.04Z"/>
      <path class="cls-7" d="M195.42,542.95l-.95-1.53v1.53h-1.51v-5.04h1.51v2.63l.96-1.44h1.76l-1.44,1.93,1.47,1.91h-1.8Z"/>
      <path class="cls-7" d="M201.26,541.29h-2.43c.02,.33,.16,.5,.42,.5,.16,0,.28-.08,.35-.22h1.6c-.05,.27-.17,.52-.34,.73-.17,.22-.39,.39-.66,.51s-.56,.19-.88,.19c-.38,0-.72-.08-1.02-.24s-.53-.39-.69-.68c-.17-.3-.25-.65-.25-1.04s.08-.75,.25-1.04c.17-.3,.4-.53,.69-.68,.3-.16,.64-.24,1.02-.24s.72,.08,1.02,.23c.3,.16,.53,.38,.69,.67,.17,.29,.25,.63,.25,1.03,0,.1,0,.2-.02,.3Zm-1.51-.66c0-.13-.04-.22-.12-.29-.08-.07-.18-.1-.31-.1-.27,0-.42,.13-.47,.39h.9Z"/>
      <path class="cls-7" d="M201.76,539.98c.14-.3,.33-.52,.57-.68s.51-.23,.81-.23c.25,0,.46,.05,.64,.15,.18,.1,.32,.24,.41,.42v-1.72h1.51v5.04h-1.51v-.52c-.1,.18-.23,.32-.41,.42-.18,.1-.39,.15-.64,.15-.3,0-.57-.08-.81-.24-.24-.16-.43-.38-.57-.68-.14-.3-.21-.65-.21-1.05s.07-.75,.21-1.05Zm2.28,.58c-.1-.11-.24-.17-.4-.17s-.3,.06-.4,.17c-.1,.11-.16,.27-.16,.48s.05,.36,.16,.48c.1,.11,.24,.17,.4,.17s.3-.06,.4-.17,.16-.27,.16-.48-.05-.36-.16-.48Z"/>
    </g>
    <g>
      <path class="cls-7" d="M94.33,558.06l-1.73,3.36v1.46h-1.51v-1.46l-1.73-3.36h1.73l.77,1.71,.77-1.71h1.7Z"/>
      <path class="cls-7" d="M95.45,562.69c-.31-.16-.55-.39-.72-.68-.17-.3-.26-.65-.26-1.04s.09-.75,.26-1.04c.17-.3,.42-.53,.72-.68,.31-.16,.66-.24,1.04-.24s.73,.08,1.04,.24c.31,.16,.55,.39,.73,.68,.17,.3,.26,.65,.26,1.04s-.09,.75-.26,1.04c-.17,.3-.42,.53-.73,.68s-.66,.24-1.04,.24-.73-.08-1.04-.24Zm1.4-1.24c.1-.11,.14-.28,.14-.49s-.05-.38-.14-.49c-.1-.11-.21-.17-.35-.17s-.26,.06-.35,.17c-.1,.11-.14,.28-.14,.49s.05,.38,.14,.49c.09,.11,.21,.17,.36,.17s.26-.06,.35-.17Z"/>
      <path class="cls-7" d="M103.06,559.04v3.84h-1.51v-.59c-.12,.18-.28,.33-.47,.44-.2,.11-.43,.17-.7,.17-.44,0-.78-.15-1.03-.44s-.37-.69-.37-1.2v-2.23h1.5v2.04c0,.18,.05,.33,.15,.43,.1,.11,.23,.16,.39,.16s.3-.05,.4-.16c.1-.11,.14-.25,.14-.43v-2.04h1.51Z"/>
      <path class="cls-7" d="M105.82,559.21c.22-.13,.45-.2,.69-.2v1.61h-.43c-.29,0-.5,.05-.63,.15-.13,.1-.2,.28-.2,.53v1.57h-1.51v-3.84h1.51v.71c.15-.22,.34-.4,.56-.53Z"/>
      <path class="cls-7" d="M108.13,559.91c.17-.3,.4-.53,.69-.68,.3-.16,.64-.24,1.02-.24,.5,0,.92,.14,1.26,.42,.34,.28,.56,.67,.65,1.17h-1.6c-.06-.2-.17-.3-.35-.3-.12,0-.22,.06-.29,.17-.07,.11-.11,.28-.11,.5s.04,.39,.11,.5,.17,.17,.29,.17c.17,0,.29-.1,.35-.3h1.6c-.09,.5-.31,.89-.65,1.17-.34,.28-.76,.42-1.26,.42-.38,0-.72-.08-1.02-.24s-.53-.39-.69-.68c-.17-.3-.25-.65-.25-1.04s.08-.75,.25-1.04Z"/>
      <path class="cls-7" d="M113.01,562.69c-.31-.16-.55-.39-.72-.68-.17-.3-.26-.65-.26-1.04s.09-.75,.26-1.04c.17-.3,.42-.53,.72-.68,.31-.16,.66-.24,1.04-.24s.73,.08,1.04,.24c.31,.16,.55,.39,.73,.68,.17,.3,.26,.65,.26,1.04s-.09,.75-.26,1.04c-.17,.3-.42,.53-.73,.68s-.66,.24-1.04,.24-.73-.08-1.04-.24Zm1.4-1.24c.1-.11,.14-.28,.14-.49s-.05-.38-.14-.49c-.1-.11-.21-.17-.35-.17s-.26,.06-.35,.17c-.1,.11-.14,.28-.14,.49s.05,.38,.14,.49c.09,.11,.21,.17,.36,.17s.26-.06,.35-.17Z"/>
      <path class="cls-7" d="M122.82,559.45c.27,.29,.4,.69,.4,1.2v2.23h-1.5v-2.04c0-.16-.05-.29-.15-.38s-.23-.14-.39-.14-.3,.05-.4,.14-.14,.22-.14,.38v2.04h-1.5v-2.04c0-.16-.05-.29-.15-.38s-.23-.14-.39-.14-.3,.05-.4,.14-.14,.22-.14,.38v2.04h-1.51v-3.84h1.51v.52c.11-.16,.26-.29,.45-.39,.19-.1,.41-.15,.66-.15,.28,0,.52,.06,.74,.18,.21,.12,.38,.29,.51,.51,.14-.2,.32-.36,.54-.49,.22-.13,.46-.19,.72-.19,.49,0,.87,.15,1.14,.44Z"/>
      <path class="cls-7" d="M130.15,559.45c.27,.29,.4,.69,.4,1.2v2.23h-1.5v-2.04c0-.16-.05-.29-.15-.38s-.23-.14-.39-.14-.3,.05-.4,.14-.14,.22-.14,.38v2.04h-1.5v-2.04c0-.16-.05-.29-.15-.38s-.23-.14-.39-.14-.3,.05-.4,.14-.14,.22-.14,.38v2.04h-1.51v-3.84h1.51v.52c.11-.16,.26-.29,.45-.39,.19-.1,.41-.15,.66-.15,.28,0,.52,.06,.74,.18,.21,.12,.38,.29,.51,.51,.14-.2,.32-.36,.54-.49,.22-.13,.46-.19,.72-.19,.49,0,.87,.15,1.14,.44Z"/>
      <path class="cls-7" d="M134.9,561.22h-2.43c.02,.33,.16,.5,.42,.5,.16,0,.28-.08,.35-.22h1.6c-.05,.27-.17,.52-.34,.73-.17,.22-.39,.39-.66,.51s-.56,.19-.88,.19c-.38,0-.72-.08-1.02-.24s-.53-.39-.69-.68c-.17-.3-.25-.65-.25-1.04s.08-.75,.25-1.04c.17-.3,.4-.53,.69-.68,.3-.16,.64-.24,1.02-.24s.72,.08,1.02,.23c.3,.16,.53,.38,.69,.67,.17,.29,.25,.63,.25,1.03,0,.1,0,.2-.02,.3Zm-1.51-.66c0-.13-.04-.22-.12-.29-.08-.07-.18-.1-.31-.1-.27,0-.42,.13-.47,.39h.9Z"/>
      <path class="cls-7" d="M139.12,559.45c.25,.29,.37,.69,.37,1.2v2.23h-1.5v-2.04c0-.18-.05-.33-.15-.43s-.23-.16-.39-.16-.3,.05-.39,.16c-.1,.11-.14,.25-.14,.43v2.04h-1.51v-3.84h1.51v.59c.12-.18,.28-.33,.47-.44s.43-.17,.7-.17c.44,0,.78,.15,1.03,.44Z"/>
      <path class="cls-7" d="M142.54,561.59v1.29h-.57c-1.05,0-1.58-.52-1.58-1.57v-1.01h-.48v-1.26h.48v-.93h1.51v.93h.63v1.26h-.63v1.04c0,.09,.02,.16,.07,.2,.04,.04,.11,.06,.21,.06h.36Z"/>
      <path class="cls-7" d="M147.99,559.45c.25,.29,.37,.69,.37,1.2v2.23h-1.5v-2.04c0-.18-.05-.33-.15-.43s-.23-.16-.39-.16-.3,.05-.4,.16c-.09,.11-.14,.25-.14,.43v2.04h-1.51v-5.04h1.51v1.78c.12-.18,.28-.33,.47-.44,.2-.11,.43-.17,.71-.17,.44,0,.78,.15,1.03,.44Z"/>
      <path class="cls-7" d="M149.02,559.9c.14-.3,.33-.52,.57-.68,.24-.16,.51-.23,.81-.23,.25,0,.47,.05,.65,.15,.18,.1,.32,.24,.42,.42v-.52h1.5v3.84h-1.5v-.52c-.1,.18-.23,.32-.42,.42s-.4,.15-.65,.15c-.3,0-.57-.08-.81-.24-.24-.16-.43-.38-.57-.68-.14-.3-.21-.65-.21-1.05s.07-.75,.21-1.05Zm2.28,.58c-.1-.11-.24-.17-.4-.17s-.3,.06-.4,.17-.16,.27-.16,.48,.05,.36,.16,.48,.24,.17,.4,.17,.3-.06,.4-.17c.1-.11,.16-.27,.16-.48s-.05-.36-.16-.48Z"/>
      <path class="cls-7" d="M154.39,562.75c-.28-.12-.5-.28-.66-.49-.16-.21-.26-.45-.28-.71h1.45c.02,.11,.07,.2,.15,.25,.08,.05,.18,.08,.3,.08,.08,0,.14-.02,.18-.05,.04-.03,.07-.08,.07-.13,0-.09-.05-.15-.14-.18-.09-.04-.26-.08-.48-.12-.28-.05-.5-.11-.68-.18-.18-.06-.34-.17-.47-.33-.13-.15-.2-.37-.2-.64,0-.24,.06-.45,.19-.64,.12-.19,.31-.34,.55-.46s.54-.17,.89-.17c.52,0,.92,.13,1.21,.38,.29,.25,.47,.58,.53,.99h-1.34c-.02-.1-.07-.19-.14-.24-.07-.06-.17-.08-.29-.08-.08,0-.14,.01-.18,.04-.04,.03-.06,.07-.06,.13,0,.08,.05,.14,.14,.17,.09,.04,.25,.08,.46,.12,.28,.05,.51,.12,.7,.18,.19,.07,.36,.19,.5,.35,.14,.17,.21,.39,.21,.68,0,.23-.07,.43-.2,.61-.13,.18-.32,.33-.57,.43-.25,.1-.54,.16-.87,.16-.36,0-.68-.06-.96-.18Z"/>
      <path class="cls-7" d="M160.67,559.14c.18-.1,.39-.15,.64-.15,.3,0,.57,.08,.81,.23,.24,.16,.43,.38,.57,.68,.14,.3,.21,.65,.21,1.05s-.07,.75-.21,1.05c-.14,.3-.33,.52-.57,.68-.24,.16-.51,.24-.81,.24-.25,0-.46-.05-.64-.15s-.32-.24-.41-.42v.52h-1.51v-5.04h1.51v1.72c.1-.18,.23-.32,.41-.42Zm.54,1.34c-.1-.11-.24-.17-.4-.17s-.3,.06-.4,.17-.16,.27-.16,.48,.05,.36,.16,.48,.24,.17,.4,.17,.3-.06,.4-.17,.16-.27,.16-.48-.05-.36-.16-.48Z"/>
      <path class="cls-7" d="M167.07,561.22h-2.43c.02,.33,.16,.5,.42,.5,.16,0,.28-.08,.35-.22h1.6c-.05,.27-.17,.52-.34,.73-.17,.22-.39,.39-.66,.51s-.56,.19-.88,.19c-.38,0-.72-.08-1.02-.24-.3-.16-.53-.39-.69-.68-.17-.3-.25-.65-.25-1.04s.08-.75,.25-1.04c.17-.3,.4-.53,.69-.68,.3-.16,.64-.24,1.02-.24s.72,.08,1.02,.23,.53,.38,.69,.67c.17,.29,.25,.63,.25,1.03,0,.1,0,.2-.02,.3Zm-1.51-.66c0-.13-.04-.22-.12-.29-.08-.07-.18-.1-.31-.1-.27,0-.42,.13-.47,.39h.9Z"/>
      <path class="cls-7" d="M171.27,561.22h-2.43c.02,.33,.16,.5,.42,.5,.16,0,.28-.08,.35-.22h1.6c-.05,.27-.17,.52-.34,.73-.17,.22-.39,.39-.66,.51s-.56,.19-.88,.19c-.38,0-.72-.08-1.02-.24-.3-.16-.53-.39-.69-.68-.17-.3-.25-.65-.25-1.04s.08-.75,.25-1.04c.17-.3,.4-.53,.69-.68,.3-.16,.64-.24,1.02-.24s.72,.08,1.02,.23,.53,.38,.69,.67c.17,.29,.25,.63,.25,1.03,0,.1,0,.2-.02,.3Zm-1.51-.66c0-.13-.04-.22-.12-.29-.08-.07-.18-.1-.31-.1-.27,0-.42,.13-.47,.39h.9Z"/>
      <path class="cls-7" d="M175.48,559.45c.25,.29,.37,.69,.37,1.2v2.23h-1.5v-2.04c0-.18-.05-.33-.15-.43s-.23-.16-.39-.16-.3,.05-.4,.16c-.09,.11-.14,.25-.14,.43v2.04h-1.51v-3.84h1.51v.59c.12-.18,.28-.33,.47-.44,.2-.11,.43-.17,.71-.17,.44,0,.78,.15,1.03,.44Z"/>
      <path class="cls-7" d="M179.59,559.14c.18-.1,.39-.15,.64-.15,.3,0,.57,.08,.81,.23s.43,.38,.57,.68c.14,.3,.21,.65,.21,1.05s-.07,.75-.21,1.05c-.14,.3-.33,.52-.57,.68-.24,.16-.51,.24-.81,.24-.25,0-.46-.05-.64-.15-.18-.1-.32-.24-.41-.42v.52h-1.51v-5.04h1.51v1.72c.09-.18,.23-.32,.41-.42Zm.54,1.34c-.1-.11-.24-.17-.4-.17s-.3,.06-.4,.17-.16,.27-.16,.48,.05,.36,.16,.48,.24,.17,.4,.17,.3-.06,.4-.17,.16-.27,.16-.48-.05-.36-.16-.48Z"/>
      <path class="cls-7" d="M183.8,557.84v5.04h-1.51v-5.04h1.51Z"/>
      <path class="cls-7" d="M185.27,562.69c-.31-.16-.55-.39-.72-.68-.17-.3-.26-.65-.26-1.04s.09-.75,.26-1.04c.17-.3,.42-.53,.72-.68,.31-.16,.66-.24,1.04-.24s.73,.08,1.04,.24c.31,.16,.55,.39,.73,.68,.17,.3,.26,.65,.26,1.04s-.09,.75-.26,1.04c-.17,.3-.42,.53-.73,.68s-.66,.24-1.04,.24-.73-.08-1.04-.24Zm1.4-1.24c.1-.11,.14-.28,.14-.49s-.05-.38-.14-.49-.21-.17-.35-.17-.26,.06-.35,.17-.14,.28-.14,.49,.05,.38,.14,.49c.09,.11,.21,.17,.36,.17s.26-.06,.35-.17Z"/>
      <path class="cls-7" d="M188.86,559.91c.17-.3,.4-.53,.69-.68,.3-.16,.64-.24,1.02-.24,.5,0,.92,.14,1.26,.42,.34,.28,.56,.67,.65,1.17h-1.6c-.06-.2-.17-.3-.35-.3-.12,0-.22,.06-.29,.17-.07,.11-.11,.28-.11,.5s.04,.39,.11,.5,.17,.17,.29,.17c.17,0,.29-.1,.35-.3h1.6c-.09,.5-.31,.89-.65,1.17-.34,.28-.76,.42-1.26,.42-.38,0-.72-.08-1.02-.24-.3-.16-.53-.39-.69-.68-.17-.3-.25-.65-.25-1.04s.08-.75,.25-1.04Z"/>
      <path class="cls-7" d="M195.42,562.88l-.95-1.53v1.53h-1.51v-5.04h1.51v2.63l.96-1.44h1.76l-1.44,1.93,1.47,1.91h-1.8Z"/>
      <path class="cls-7" d="M201.26,561.22h-2.43c.02,.33,.16,.5,.42,.5,.16,0,.28-.08,.35-.22h1.6c-.05,.27-.17,.52-.34,.73-.17,.22-.39,.39-.66,.51s-.56,.19-.88,.19c-.38,0-.72-.08-1.02-.24-.3-.16-.53-.39-.69-.68-.17-.3-.25-.65-.25-1.04s.08-.75,.25-1.04c.17-.3,.4-.53,.69-.68,.3-.16,.64-.24,1.02-.24s.72,.08,1.02,.23c.3,.16,.53,.38,.69,.67,.17,.29,.25,.63,.25,1.03,0,.1,0,.2-.02,.3Zm-1.51-.66c0-.13-.04-.22-.12-.29-.08-.07-.18-.1-.31-.1-.27,0-.42,.13-.47,.39h.9Z"/>
      <path class="cls-7" d="M201.76,559.9c.14-.3,.33-.52,.57-.68,.24-.16,.51-.23,.81-.23,.25,0,.46,.05,.64,.15,.18,.1,.32,.24,.41,.42v-1.72h1.51v5.04h-1.51v-.52c-.09,.18-.23,.32-.41,.42-.18,.1-.39,.15-.64,.15-.3,0-.57-.08-.81-.24-.24-.16-.43-.38-.57-.68-.14-.3-.21-.65-.21-1.05s.07-.75,.21-1.05Zm2.28,.58c-.1-.11-.24-.17-.4-.17s-.3,.06-.4,.17c-.1,.11-.16,.27-.16,.48s.05,.36,.16,.48c.1,.11,.24,.17,.4,.17s.3-.06,.4-.17,.16-.27,.16-.48-.05-.36-.16-.48Z"/>
    </g>
  </g>
</svg>