<?xml version="1.0" encoding="UTF-8"?>
<svg id="Layer_2" data-name="Layer 2" xmlns="http://www.w3.org/2000/svg" xmlns:xlink="http://www.w3.org/1999/xlink" viewBox="0 0 428 542.48">
  <defs>
    <style>
      .cls-1 {
        fill: #fff;
      }

      .cls-2 {
        fill: #edeeea;
      }

      .cls-3 {
        fill: #181216;
      }

      .cls-4 {
        fill: #ef9d7f;
      }

      .cls-5 {
        fill: #363636;
      }

      .cls-6 {
        fill: #eeb2ff;
      }

      .cls-7 {
        fill: #fac300;
      }

      .cls-8 {
        fill: #f4c0ab;
      }

      .cls-9 {
        fill: #f55;
      }

      .cls-10 {
        fill: #623628;
      }

      .cls-11 {
        fill: #e58e73;
      }

      .cls-12 {
        fill: #3ba45b;
      }

      .cls-13 {
        fill: #f7f2dc;
      }

      .cls-14 {
        fill: #f80500;
      }

      .cls-15 {
        fill: #307f46;
      }

      .cls-16 {
        fill: #e64c00;
      }

      .cls-17 {
        fill: #f4ae32;
      }

      .cls-18 {
        clip-path: url(#clippath);
      }

      .cls-19 {
        fill: none;
      }

      .cls-20 {
        fill: #353535;
      }

      .cls-21 {
        fill: #9e6647;
      }

      .cls-22 {
        fill: #b72c2c;
      }

      .cls-23 {
        fill: #e08bfc;
      }

      .cls-24 {
        fill: #6d6d6d;
      }

      .cls-25 {
        fill: #d46cff;
      }

      .cls-26 {
        fill: #f7a22d;
      }
    </style>
    <clipPath id="clippath">
      <polygon class="cls-19" points="197.76 184.63 195.5 267.09 379.73 270.22 384.31 191.09 197.76 184.63"/>
    </clipPath>
  </defs>
  <g>
    <g>
      <polygon class="cls-1" points="53.68 33.94 53.68 161.54 238.76 201.98 248.85 37.62 53.68 33.94"/>
      <circle class="cls-23" cx="82.93" cy="64.06" r="14.73"/>
      <polygon class="cls-23" points="109.48 54.19 109.48 65.48 185.86 69.68 185.86 61.65 109.48 54.19"/>
      <polygon class="cls-23" points="105.35 72.17 105.35 82.6 175.92 84.44 175.92 78.31 105.35 72.17"/>
      <polygon class="cls-23" points="68.19 128.46 68.19 135.3 235.53 146.04 235.53 138.36 68.19 128.46"/>
      <polygon class="cls-23" points="68.19 141.65 68.19 148.74 228.9 160.26 228.9 154.49 68.19 141.65"/>
    </g>
    <g>
      <path class="cls-23" d="M76.04,98.35l1.11-6.44-.41-.58,3.31,.12-1.28,7.44c-.09,.29-.24,.52-.45,.71-.21,.18-.46,.27-.74,.26l-4.75-.17,.36-2,.56,.59,2.29,.08Z"/>
      <path class="cls-23" d="M88.28,97.64l-4.6-.17-.19,1.15,4.03,.15,.74-.54-.51,1.99-6.33-.23c-.29-.01-.5-.11-.64-.31-.14-.2-.2-.44-.19-.73l.91-5.3,7.48,.27-.71,3.71Zm-4.1-2.45l-.17,.85,1.72,.06,.18-.85-1.74-.06Z"/>
      <path class="cls-23" d="M94.19,102.16l.35-1.7-4.6-.17,1.08-6.29,7.5,.27-1.46,8.43c-.05,.29-.19,.52-.42,.71-.23,.18-.49,.27-.78,.26l-6.48-.24,.36-2,.56,.59,3.88,.14Zm-.48-6.62l-.67,3.41,1.69,.06,.7-3.41-1.72-.06Z"/>
      <path class="cls-23" d="M104.19,95.92l-1.53-.06-.16,.56-2.88-.11,.51-1.99,7.05,.26-1.07,5.57,.56,.74-6.76-.25c-.29-.01-.5-.11-.64-.31s-.2-.44-.19-.73l.54-2.73,4.32,.16,.27-1.13Zm-2.04,2.51l-.18,.86,1.44,.05,.18-.86-1.44-.05Z"/>
      <path class="cls-23" d="M120.15,95.06l-1.1,6.29-2.88-.11,1.08-5.87-.42-.44,3.31,.12Zm.02-.43l-2.74-.1,.21-1.72,2.88,.11-.35,1.71Z"/>
      <path class="cls-23" d="M125.47,100.15l.17-1-4.32-.16,.73-3.86,6.9,.25-.35,1.85-2.49-.09,.06-.42-1.72-.06-.19,1,4.18,.15-.41,2.87c-.08,.29-.25,.52-.51,.7s-.53,.26-.82,.25l-5.76-.21,.36-2,.41,.58,3.75,.14Z"/>
      <path class="cls-23" d="M143.17,97.34l-1.53-.06-.16,.56-2.88-.11,.51-1.99,7.04,.26-1.07,5.57,.56,.74-6.76-.25c-.29-.01-.5-.11-.64-.31-.14-.2-.2-.44-.19-.73l.54-2.73,4.32,.16,.27-1.13Zm-2.04,2.51l-.18,.86,1.44,.05,.18-.86-1.44-.05Z"/>
      <path class="cls-23" d="M159.65,93.47l-.53,3.01,4.6,.17-1.1,6.29-2.88-.11,.9-4.86-1.72-.06-.9,4.86-2.88-.11,1.61-8.87-.27-.44,3.16,.12Z"/>
      <path class="cls-23" d="M164.74,97.13l-.4-.45,3.16,.12,.66,3.21,1.48-2.84-.27-.3,3.3,.12-5.15,8.73c-.08,.14-.22,.26-.41,.38-.19,.11-.39,.17-.61,.16l-2.67-.1,1.2-1.11,1.2-2.09-1.48-5.82Z"/>
      <path class="cls-23" d="M181.95,97.32l-.91,5.29c-.03,.15-.08,.28-.16,.4-.09,.12-.19,.22-.3,.3-.12,.08-.24,.15-.37,.2-.13,.04-.24,.06-.35,.06l-3.58-.13-.61,3.13-2.88-.11,1.66-8.99-.4-.45,7.92,.29Zm-4.8,1.27l-.67,3.56,1.74,.06,.66-3.56-1.72-.06Z"/>
      <path class="cls-23" d="M189.9,97.61c.29,.01,.5,.14,.64,.38,.14,.24,.2,.51,.19,.8l-.91,5.16-6.48-.24c-.29-.01-.5-.11-.64-.31-.14-.2-.2-.44-.19-.73l.91-5.29,6.48,.24Zm-3.8,1.3l-.69,3.43,1.72,.06,.71-3.43-1.74-.06Z"/>
      <path class="cls-23" d="M199.66,99.41l-4.6-.17-.7,3.43,4.02,.15,.74-.54-.36,2-7.48-.27,1.24-6.29,7.34,.27-.2,1.43Z"/>
      <path class="cls-23" d="M204.06,98.12l-.36,2,2.1-1.94,2.88,.11-5.06,4.14-.36,2-2.88-.11,1.05-5.87-.29-.43,2.91,.11Z"/>
      <path class="cls-23" d="M212.35,98.43l-1.1,6.29-2.88-.1,1.08-5.87-.42-.44,3.31,.12Zm.02-.43l-2.74-.1,.21-1.72,2.88,.11-.35,1.71Z"/>
      <path class="cls-23" d="M214.86,97.65l-.27-.44,3.16,.12-.24,1.3,1.78,.06-.35,1.43-1.66-.06-.62,3.43,1.44,.05-.34,1.43-3.16-.12c-.29,0-.52-.11-.7-.31-.17-.2-.22-.44-.14-.73l.73-3.86-1.15-.04,.2-1.43,1.17,.04,.15-.87Z"/>
      <path class="cls-23" d="M227.24,102.71l-4.6-.17-.19,1.15,4.03,.15,.74-.54-.51,1.99-6.33-.23c-.29,0-.5-.11-.64-.31-.14-.2-.2-.44-.19-.73l.91-5.29,7.48,.27-.71,3.71Zm-4.1-2.45l-.17,.85,1.72,.06,.18-.85-1.74-.06Z"/>
      <path class="cls-23" d="M230.82,105.43l-2.28-.08,.25-1.42,2.28,.08-.25,1.42Zm.35-2.09l-2.28-.08,1.16-6.35,2.28,.08-1.16,6.35Z"/>
    </g>
    <g>
      <g>
        <path class="cls-23" d="M82.36,107.46l-1.29,7.44c-.01,.29-.14,.52-.38,.71-.24,.18-.51,.27-.8,.25l-8.07-.29,1.29-7.88-.41-.58,9.65,.35Zm-6.39,1.21l-1.06,5.58,3.45,.13,1.07-5.58-3.46-.13Z"/>
        <path class="cls-23" d="M90.3,109.91c.29,0,.5,.14,.64,.38,.14,.24,.2,.51,.19,.8l-.91,5.16-6.48-.24c-.29-.01-.5-.11-.64-.31-.14-.2-.2-.44-.19-.73l.91-5.3,6.48,.24Zm-3.8,1.3l-.69,3.43,1.72,.06,.71-3.43-1.74-.06Z"/>
        <path class="cls-23" d="M100.27,110.27l-1.1,6.29-2.88-.1,.9-4.86-1.72-.06-.9,4.86-2.88-.11,1.08-5.87-.42-.44,7.92,.29Z"/>
        <path class="cls-23" d="M103.83,107.36l1.98,.07-1.44,3.37-1.71-.06,1.17-3.38Z"/>
      </g>
      <g>
        <path class="cls-23" d="M125.87,108.5l-.53,3.01,4.6,.17-.91,5.3c-.09,.29-.24,.52-.45,.7-.21,.18-.46,.27-.75,.26l-6.48-.24,1.61-8.87-.27-.45,3.16,.12Zm-.73,4.45l-.62,3.43,1.71,.06,.64-3.43-1.72-.06Z"/>
        <path class="cls-23" d="M138.18,115.72l-4.6-.17-.19,1.15,4.03,.15,.74-.54-.51,1.99-6.33-.23c-.29-.01-.5-.11-.64-.31-.14-.2-.2-.44-.19-.73l.92-5.3,7.48,.27-.71,3.71Zm-4.1-2.45l-.17,.85,1.72,.06,.18-.85-1.74-.06Z"/>
        <path class="cls-23" d="M143.78,109.16l-1.44,7.87,.95,1.47-3.01-.11c-.29-.01-.5-.11-.64-.31s-.2-.44-.19-.73l1.44-7.87-.42-.45,3.31,.12Z"/>
        <path class="cls-23" d="M148.17,112.35l-1.1,6.29-2.88-.1,1.08-5.87-.42-.44,3.31,.12Zm.02-.43l-2.74-.1,.21-1.72,2.88,.1-.35,1.71Z"/>
        <path class="cls-23" d="M156.7,116.4l-4.6-.17-.19,1.15,4.03,.15,.74-.54-.51,1.99-6.33-.23c-.29-.01-.5-.11-.64-.31-.14-.2-.2-.44-.19-.73l.91-5.3,7.48,.27-.71,3.71Zm-4.1-2.45l-.17,.85,1.72,.06,.18-.85-1.74-.06Z"/>
        <path class="cls-23" d="M163.46,112.91l2.74,.1-3.69,6.2-2.88-.1-1.36-5.81-.42-.59,3.03,.11,.72,3.63,1.86-3.54Z"/>
        <path class="cls-23" d="M174.15,117.03l-4.6-.17-.19,1.15,4.03,.15,.74-.54-.51,1.99-6.33-.23c-.29-.01-.5-.11-.64-.31s-.2-.44-.19-.73l.92-5.3,7.48,.27-.71,3.71Zm-4.1-2.45l-.17,.85,1.72,.06,.18-.85-1.74-.06Z"/>
        <path class="cls-23" d="M188.42,110.79l-.53,3.01,4.6,.17-1.1,6.29-2.88-.1,.9-4.86-1.72-.06-.9,4.86-2.88-.1,1.61-8.87-.27-.45,3.16,.12Z"/>
        <path class="cls-23" d="M196.99,114.13l-1.1,6.29-2.88-.1,1.08-5.87-.42-.44,3.31,.12Zm.02-.43l-2.74-.1,.21-1.72,2.88,.1-.35,1.71Z"/>
        <path class="cls-23" d="M208.67,114.56l-1.09,6.29-2.59-.09,.9-4.86-1.15-.04-.9,4.86-2.29-.08,.91-4.86-1.14-.04-.93,4.86-2.59-.09,1.08-5.87-.28-.43,10.07,.37Z"/>
        <path class="cls-23" d="M211.54,120.99l-2.28-.08,.25-1.42,2.28,.08-.25,1.42Zm.34-2.09l-2.28-.08,1.16-6.35,2.28,.08-1.16,6.35Z"/>
      </g>
      <path class="cls-23" d="M107.51,109.86l-.29-.44h3.17l-.2,1.3h1.79l-.3,1.44h-1.67l-.5,3.45h1.44l-.29,1.44h-3.17c-.29,0-.53-.09-.71-.28-.18-.19-.24-.43-.17-.72l.58-3.88h-1.16l.15-1.44h1.17l.12-.87Z"/>
    </g>
  </g>
  <polygon class="cls-26" points="183.3 167.96 175.35 305.37 394.9 301.58 402.87 178.44 183.3 167.96"/>
  <polygon class="cls-16" points="197.76 184.63 195.5 267.09 379.73 270.22 384.31 191.09 197.76 184.63"/>
  <polygon class="cls-15" points="351.06 182.15 360.81 187.07 364.31 169.68 377.77 159.68 385.23 163.02 382.77 171.39 398.15 166.83 389.15 151.32 385.92 159.28 378.37 154.9 357.45 162.1 351.06 182.15"/>
  <path class="cls-26" d="M321.65,327.25c-2.65,1.99-7.14,4.7-12.2,4.01-9.34-1.27-18.27-15.19-17.01-12.01,2.99,7.59,1.59,16.13-3.64,21.95-6.19,6.89-16.71,8.78-25.51,4.36,8.02,4.44,12.86,12.6,12.35,20.96-.48,7.8-5.45,12.87-6.88,14.23,1.04-.13,10-1.06,16.09,5.53,3.25,3.52,4.14,7.51,4.43,9.37,38.9-28.49,47.93-39.66,45.85-43.48-1.27-2.32-6.24-1.16-10.29-5.27-4.65-4.72-4.46-12.71-3.18-19.65Z"/>
  <g class="cls-18">
    <g>
      <polygon class="cls-21" points="201.09 261.79 259.41 223.83 277.16 228.94 275.69 208.13 248.92 208.13 201.09 261.79"/>
      <g>
        <path class="cls-6" d="M296.92,187.81l-40.71,27.3s24.02,30.15,31.23,36.37c7.21,6.22,60.71,9.28,60.71,9.28l13.98-28.31s-15.98-3.18-32.36-14.1c-10.57-7.04-23.74-31.43-23.74-31.43l-9.11,.89Z"/>
        <path class="cls-25" d="M267.53,213.83l-11.32,1.28s22.79,29.5,32.5,37.2c9.71,7.71,53.02,10.52,53.02,10.52l1.01-9.49s-33.58-.95-45.82-8.75c-12.24-7.8-29.39-30.75-29.39-30.75Z"/>
        <polygon class="cls-23" points="296.92 187.81 306.04 186.92 267.53 213.83 256.21 215.11 296.92 187.81"/>
        <path class="cls-13" d="M323.72,225.84c-8.4-4.4-15.7-8.23-18.01-5.91-2.52,2.54,.86,12.47,7.92,17.11,9.06,5.95,22.78,2.3,23.45-1.43,.45-2.54-5.08-5.43-13.36-9.78Z"/>
        <path class="cls-25" d="M339.4,251.03l-.26-.04c-.25-.04-24.79-4.16-34.99-8.22-10.26-4.09-28.71-26.4-29.5-27.34l-.34-.42,30.17-21.01,.28,.44c.14,.22,14.26,22.09,21.5,26.34,7.31,4.29,28.29,13.31,28.5,13.4l.67,.29-16.03,16.58Zm-63.62-35.83c2.63,3.14,19.48,22.94,28.75,26.63,9.53,3.8,31.86,7.67,34.52,8.12l14.66-15.16c-3.65-1.58-21.32-9.28-27.95-13.17-6.95-4.08-19.46-23.01-21.56-26.23l-28.42,19.79Z"/>
      </g>
      <polygon class="cls-10" points="188.05 222.6 219.24 205.81 261.72 196.99 295.12 204.78 292.43 213.83 253.3 213.83 229.35 236.65 270.95 237.01 259.05 255.86 217.16 248.45 190.93 270.22 188.05 222.6"/>
      <g>
        <polygon class="cls-8" points="330 249.92 344.62 240.16 322.47 239.51 317.86 228.06 362.76 228.06 381.6 255.86 351.18 277.64 282.29 264.72 271.78 246.47 280.66 238.68 298.81 251.48 330 249.92"/>
        <path class="cls-2" d="M354.56,219.36l8.2,8.7,18.84,27.8,1.06-18.3c.66-11.33,1.31-22.66,1.97-33.99-10.02,5.27-20.04,10.53-30.06,15.8Z"/>
      </g>
      <circle class="cls-16" cx="289.11" cy="230.77" r="14.65"/>
      <polygon class="cls-13" points="284.73 224.53 284.55 237.01 297.15 231.4 284.73 224.53"/>
    </g>
  </g>
  <g>
    <polygon class="cls-7" points="287.05 118.41 287.05 95.95 296.43 97.63 296.43 117.82 325.92 116.73 322.57 151.92 272.76 148.9 272.76 119.41 287.05 118.41"/>
    <polygon class="cls-16" points="268.61 113.5 280.34 113.5 280.34 122.05 280.34 154.55 268.61 154.55 268.61 113.5"/>
  </g>
  <polygon class="cls-15" points="38.47 188.8 48.71 237.5 102.44 234.37 110.34 251.19 112.71 234.37 126.97 231.87 126.97 198.58 38.47 188.8"/>
  <g>
    <polygon class="cls-11" points="317.88 435.89 352.54 427.47 364.96 458.75 320.03 457.26 317.88 435.89"/>
    <polygon class="cls-5" points="293.93 355.88 327.75 331.85 383.01 353.4 380.5 417.9 346.2 433.56 347.46 399.19 313.02 369.94 293.47 379.65 293.93 355.88"/>
    <g>
      <polygon class="cls-11" points="346.45 400.23 357.13 396.46 358.25 414 346.45 416.35 346.45 400.23"/>
      <path class="cls-14" d="M346.71,409.64l-.66-.52,5.11-6.46c.04-.06,.1-.1,.17-.13l3.11-1.3,.32,.77-3.01,1.26-5.04,6.37Z"/>
    </g>
    <path class="cls-9" d="M313.84,455.46c-9.58,20.81-26.07,73.73-26.07,73.73l107.15-1.37-15.29-60.79-8.94-8.28-56.85-3.29Z"/>
    <path class="cls-22" d="M355.32,497.22c.3,8.13,.69,18.72,1.2,32.21l-57.07-.42c4.94-25.09,6.36-30.6,10.07-49.41,1.02-5.17,10.36-20.32,25.16-16.52,14.8,3.8,20.12,19.95,20.64,34.13Z"/>
    <path class="cls-4" d="M348.36,386.71l-2.15,46.85-52.55,13.73c-3.36,.88-6.57-1.85-6.23-5.31,1.5-15.33,5-50.99,6.04-62.34,11.19-5.55,22.38-11.1,33.57-16.66l21.32,23.72Z"/>
    <path class="cls-14" d="M309.27,443.15l.4-.04h-.41c-.41-4-.76-17.5,11.86-23.25,5.96-2.71,15.17-4.45,25.28,2.7l.28,.2c.18,.13,.23,.38,.1,.56-.13,.19-.38,.23-.56,.1l-.29-.2c-9.79-6.93-18.71-5.25-24.47-2.63-12.13,5.53-11.78,18.56-11.39,22.43l-.8,.12Z"/>
    <g>
      <path class="cls-9" d="M292.97,385.17c-.72,9.03-2.15,27.09-2.15,27.09l-8.24-.73s.04-19.71,10.38-26.37Z"/>
      <path class="cls-14" d="M290.82,412.69s-.03,0-.04,0l-8.24-.73c-.22-.02-.39-.21-.39-.43,0-.81,.16-20.02,10.58-26.73,.14-.09,.31-.09,.46,0,.14,.08,.22,.24,.21,.4l-2.15,27.09c0,.11-.06,.22-.15,.29-.08,.07-.18,.1-.28,.1Zm-7.8-1.55l7.4,.65,2.04-25.75c-8.54,6.34-9.36,22.38-9.44,25.1Z"/>
    </g>
    <polygon class="cls-3" points="295.99 379.28 314.23 389.43 317.88 383.3 297.63 375.32 295.99 379.28"/>
    <polygon class="cls-22" points="293.58 431.53 295.63 415.6 305.33 430.44 293.58 431.53"/>
    <g>
      <polygon class="cls-5" points="388.76 412.97 403.29 417.2 397.3 440.08 376.69 435.34 375.62 414.79 388.76 412.97"/>
      <path class="cls-3" d="M393.42,439.12l-.83-.06,.82-10.83-17.76-6.25,.28-.79,18.07,6.36c.18,.06,.29,.24,.28,.43l-.85,11.15Z"/>
      <path class="cls-3" d="M395.77,439.79l-.83-.14,2.22-13.58-15.76-11.7,.5-.67,15.97,11.85c.13,.09,.19,.25,.16,.4l-2.26,13.83Z"/>
    </g>
    <g>
      <path class="cls-20" d="M304.66,393.16c1.25,1.96-.06,4.37-.4,4.99-.38,.69-1.43,2.63-3.23,2.67-1.27,.03-2.13-.88-2.18-.94-1.39-1.53-.45-4.1-.12-4.98,.42-1.15,1.16-3.16,2.84-3.41,1.28-.19,2.51,.74,3.1,1.67Z"/>
      <g>
        <path class="cls-5" d="M311.04,399.34c-.92-1.34-.96-2.78-4.96-5.67-4-2.89-10.55-1.01-10.55-1.01l-.3-1.22s5.91-1.92,10.41,.34,5.87,5.33,6.7,6.61l-1.31,.95Z"/>
        <polygon class="cls-5" points="313.86 396.18 312.35 398.39 310.83 396.56 313.86 396.18"/>
      </g>
    </g>
    <g>
      <path class="cls-3" d="M293.49,355.19s39.33,31.34,59.01,48.05c-.47-11.88-.86-23.88-1.17-35.98-.11-4.39-.21-8.76-.3-13.12-19.18,.35-38.36,.7-57.55,1.05Z"/>
      <rect class="cls-3" x="293.51" y="354.48" width="89.94" height=".86" transform="translate(-7.94 7.75) rotate(-1.3)"/>
      <rect class="cls-5" x="342.16" y="349.14" width=".86" height="54.13" transform="translate(-105.59 135.3) rotate(-19.42)"/>
      <polygon class="cls-5" points="351.1 401.12 350.82 400.78 311.74 353.2 312.4 352.65 312.68 352.98 351.77 400.57 351.1 401.12"/>
    </g>
  </g>
  <g>
    <polygon class="cls-15" points="199.39 334.48 234.73 335.56 214.1 511.32 72.72 516.08 77.15 326.8 199.39 334.48"/>
    <polygon class="cls-12" points="35.21 243.56 178.7 247.46 175.35 305.37 199.9 304.95 198.34 462.47 45.91 465.19 35.21 243.56"/>
    <circle class="cls-1" cx="65.72" cy="275.42" r="14.73"/>
    <polygon class="cls-1" points="87.71 266.77 87.71 272.32 145.97 274.74 151.27 264.21 87.71 266.77"/>
    <polygon class="cls-1" points="87.71 277.02 91.88 284.79 130.69 284.79 130.69 279.25 87.71 277.02"/>
    <polygon class="cls-13" points="54.07 365.19 57.52 420.39 106.41 417.92 99.67 365.19 54.07 365.19"/>
    <polygon class="cls-13" points="109.2 363.05 112.52 412.77 138.68 412.77 147.48 363.05 109.2 363.05"/>
    <polygon class="cls-13" points="155.71 364.5 147.48 415.6 186.28 415.6 181.37 363.05 155.71 364.5"/>
    <g>
      <polygon class="cls-1" points="64.9 441.24 64.9 434.81 67.59 435.29 67.59 441.08 76.04 440.76 75.08 450.85 60.8 449.98 60.8 441.53 64.9 441.24"/>
      <polygon class="cls-16" points="59.61 439.84 62.98 439.84 62.98 442.29 62.98 451.61 59.61 451.61 59.61 439.84"/>
    </g>
    <polygon class="cls-1" points="87.71 435.35 90.16 447.03 103.04 446.27 104.94 450.31 105.51 446.27 108.92 445.68 108.92 437.7 87.71 435.35"/>
    <polygon class="cls-1" points="120.11 444.84 122.55 448.01 126.46 442.83 132.5 441.66 134.43 443.95 132.29 446.32 138.08 447.26 137.58 440.71 135.25 442.83 133.45 440.18 125.41 439.23 120.11 444.84"/>
  </g>
  <g>
    <polygon class="cls-26" points="144.87 464.31 158.99 446.31 235.62 439.98 231.93 475.49 161.47 472.88 124.77 490.41 154.97 468.96 144.87 464.31"/>
    <circle class="cls-13" cx="171.38" cy="458.91" r="4.51"/>
    <circle class="cls-13" cx="193.4" cy="458.91" r="4.51"/>
    <circle class="cls-13" cx="216.9" cy="458.91" r="4.51"/>
  </g>
  <path class="cls-24" d="M354.3,309.18c.27-10.46,9.06-18.58,18.86-18.19,8.99,.36,16.7,7.8,17.35,17.35,4.29-2.04,9.24-1.15,12.13,2.02,2.66,2.93,2.43,6.73,2.36,7.74-.4,5.68-5.1,10.91-10.9,12.43-5.97,1.57-12.55-.93-16.44-6.31-.2,.38-2.66,5.01-7.61,5.57-4.45,.5-9.01-2.51-10.66-7.39-2.91,3.11-7.23,4.24-10.93,2.89-4.1-1.5-5.61-5.38-5.84-5.99-.87-3.43,.37-7.02,3.11-9.09,3.85-2.91,8.4-1.09,8.59-1.01Z"/>
  <g>
    <g>
      <polygon class="cls-17" points="212.67 15.16 217.85 71.47 344.42 82.53 357.88 111.83 365.02 82.05 391.8 85.92 398.94 18.78 212.67 15.16"/>
      <circle class="cls-1" cx="242.47" cy="44.22" r="15.91"/>
    </g>
    <g>
      <path class="cls-1" d="M303.46,32.58l-3.7,21.33c-.03,.83-.39,1.51-1.08,2.02-.69,.52-1.46,.76-2.29,.73l-23.12-.84,3.71-22.58-1.19-1.68,27.67,1.01Zm-18.32,3.46l-3.04,15.98,9.88,.36,3.08-15.98-9.92-.36Z"/>
      <path class="cls-1" d="M316.34,39.25l-3.15,18.04-8.25-.3,3.11-16.84-1.2-1.25,9.5,.35Zm.04-1.25l-7.86-.29,.61-4.93,8.25,.3-1,4.91Z"/>
      <path class="cls-1" d="M329.19,39.72l-1.03,5.73,6.01-5.55,8.25,.3-14.5,11.86-1.03,5.73-8.25-.3,3.03-16.84-.82-1.23,8.34,.3Z"/>
      <path class="cls-1" d="M346.42,37.85l-.77-1.28,9.07,.33-.7,3.72,5.11,.19-1.01,4.09-4.77-.17-1.78,9.83,4.12,.15-.97,4.09-9.07-.33c-.83-.03-1.49-.33-1.99-.89-.5-.56-.63-1.26-.4-2.08l2.08-11.07-3.31-.12,.58-4.11,3.35,.12,.44-2.48Z"/>
      <path class="cls-1" d="M366.51,59.24l-6.53-.24,.71-4.06,6.53,.24-.71,4.06Zm.99-5.99l-6.53-.24,3.33-18.21,6.53,.24-3.33,18.21Z"/>
    </g>
  </g>
  <g>
    <path class="cls-1" d="M58.32,311.44l-.59,4.51h4.57l.55-3.73-.59-.78h4.53l-1.58,11.59h-3.93l.78-5.12h-4.59l-.72,5.12h-3.93l1.58-11.02-.8-.57h4.73Z"/>
    <path class="cls-1" d="M78.33,319.49h-6.29l-.21,1.58h5.51l.98-.78-.59,2.75h-8.65c-.4,0-.69-.13-.89-.39s-.3-.59-.3-.98l.98-7.27h10.22l-.78,5.1Zm-5.72-3.13l-.18,1.17h2.36l.21-1.17h-2.38Z"/>
    <path class="cls-1" d="M93.78,313.2l-.39-.59h4.32l-.27,1.78h2.44l-.41,1.97h-2.27l-.68,4.71h1.97l-.39,1.97h-4.32c-.4,0-.72-.13-.96-.39s-.32-.59-.23-.98l.8-5.31h-1.58l.21-1.97h1.6l.16-1.19Z"/>
    <path class="cls-1" d="M110.33,314.39c.4,0,.69,.16,.89,.48,.2,.32,.3,.68,.3,1.08l-.98,7.09h-8.85c-.4,0-.69-.13-.89-.39s-.3-.59-.3-.98l.98-7.27h8.85Zm-5.12,1.97l-.78,4.71h2.36l.8-4.71h-2.38Z"/>
    <path class="cls-1" d="M122.38,314.39c.4,0,.69,.16,.89,.48,.2,.32,.3,.68,.3,1.08l-.98,7.09h-8.85c-.4,0-.69-.13-.89-.39s-.3-.59-.3-.98l.98-7.27h8.85Zm-5.12,1.97l-.78,4.71h2.36l.8-4.71h-2.38Z"/>
    <path class="cls-1" d="M130.29,310.25l-.78,5.7,2.56-1.76h4.32l-5.51,3.73,4.32,5.12h-4.32l-1.97-2.56-.39,2.56h-3.93l1.76-12.19-.57-.59h4.51Z"/>
    <path class="cls-1" d="M157.9,314.39c.4,0,.69,.16,.89,.48,.2,.32,.3,.68,.3,1.08l-.98,7.09h-8.85c-.4,0-.69-.13-.89-.39s-.3-.59-.3-.98l.98-7.27h8.85Zm-5.12,1.97l-.78,4.71h2.36l.8-4.71h-2.38Z"/>
    <path class="cls-1" d="M165.24,314.39l-.9,6.15,2.46-.25,.8-5.33-.59-.57h4.53l-1.19,8.65h-3.93l.12-.78-6.41,.78,1.19-8.07-.59-.57h4.53Z"/>
    <path class="cls-1" d="M177.26,314.39l-.39,2.75,2.77-2.75h3.93l-6.7,5.9-.39,2.75h-3.93l1.15-8.07-.41-.57h3.97Z"/>
    <path class="cls-1" d="M67.25,333.51l-1.17,8.65h-3.54l.98-6.68h-1.58l-.98,6.68h-3.13l1-6.68h-1.56l-1.02,6.68h-3.54l1.19-8.07-.41-.57h13.77Z"/>
    <path class="cls-1" d="M78.11,333.51c.4,0,.69,.16,.89,.48,.2,.32,.3,.68,.3,1.08l-.98,7.09h-8.85c-.4,0-.69-.13-.89-.39s-.3-.59-.3-.98l.98-7.27h8.85Zm-5.12,1.97l-.78,4.71h2.36l.8-4.71h-2.38Z"/>
    <path class="cls-1" d="M91.73,333.51l-1.19,8.65h-3.93l.98-6.68h-2.36l-.98,6.68h-3.93l1.19-8.07-.59-.57h10.82Z"/>
    <path class="cls-1" d="M103.18,338.61h-6.29l-.21,1.58h5.51l.98-.78-.59,2.75h-8.65c-.4,0-.69-.13-.89-.39s-.3-.59-.3-.98l.98-7.27h10.22l-.78,5.1Zm-5.72-3.13l-.18,1.17h2.36l.21-1.17h-2.38Z"/>
    <path class="cls-1" d="M105.37,334.1l-.57-.59h4.32l1.07,4.34,1.88-3.95-.39-.39h4.51l-6.6,12.17c-.11,.19-.29,.37-.54,.53s-.53,.25-.83,.25h-3.65l1.58-1.58,1.54-2.91-2.31-7.87Z"/>
    <path class="cls-1" d="M120.02,342.15h-3.11l.27-1.95h3.11l-.27,1.95Zm.37-2.87h-3.11l1.27-8.73h3.11l-1.27,8.73Z"/>
  </g>
</svg>