<?xml version="1.0" encoding="UTF-8"?>
<svg id="Layer_2" data-name="Layer 2" xmlns="http://www.w3.org/2000/svg" xmlns:xlink="http://www.w3.org/1999/xlink" viewBox="0 0 173.34 247.66">
  <defs>
    <style>
      .cls-1 {
        fill: #fff;
      }

      .cls-2 {
        fill: #363636;
      }

      .cls-3 {
        stroke-linecap: round;
      }

      .cls-3, .cls-4, .cls-5, .cls-6 {
        fill: none;
      }

      .cls-3, .cls-5 {
        stroke: #fff;
        stroke-width: .54px;
      }

      .cls-3, .cls-5, .cls-6 {
        stroke-linejoin: round;
      }

      .cls-7 {
        fill: #ab7a5a;
      }

      .cls-8 {
        fill: #307f46;
      }

      .cls-9 {
        clip-path: url(#clippath);
      }

      .cls-10 {
        fill: #e8e8e8;
      }

      .cls-11 {
        fill: #9e6647;
      }

      .cls-12 {
        fill: #aadef7;
      }

      .cls-5, .cls-6 {
        stroke-linecap: square;
      }

      .cls-13 {
        fill: #b72c2c;
      }

      .cls-6 {
        stroke: #363636;
        stroke-width: 1.09px;
      }

      .cls-14 {
        fill: #3864ab;
      }
    </style>
    <clipPath id="clippath">
      <rect class="cls-4" x="5.86" y="7.81" width="160.53" height="198.84" rx="14.3" ry="14.3"/>
    </clipPath>
  </defs>
  <rect class="cls-8" x=".1" y=".58" width="173.34" height="246.49" rx="13.2" ry="13.2"/>
  <rect class="cls-12" x="5.86" y="7.81" width="160.53" height="198.84" rx="14.3" ry="14.3"/>
  <g>
    <path class="cls-1" d="M69.87,218.01v10.17c0,1.57-.42,2.79-1.27,3.64-.85,.85-1.99,1.28-3.43,1.28s-2.71-.45-3.62-1.34c-.91-.89-1.36-2.16-1.36-3.81h3.46c0,.62,.12,1.1,.37,1.42s.6,.48,1.06,.48c.42,0,.75-.14,.98-.43,.23-.28,.35-.69,.35-1.23v-10.17h3.48Z"/>
    <path class="cls-1" d="M84.33,227.89h-7.87c.05,.74,.28,1.3,.68,1.69,.4,.39,.89,.58,1.48,.58,.87,0,1.47-.38,1.81-1.15h3.7c-.19,.78-.53,1.48-1.03,2.11-.5,.62-1.12,1.11-1.86,1.47-.75,.35-1.58,.53-2.5,.53-1.11,0-2.1-.25-2.97-.74s-1.55-1.21-2.03-2.13-.73-2-.73-3.23,.24-2.31,.72-3.23,1.16-1.63,2.02-2.13c.87-.5,1.87-.74,2.99-.74s2.07,.24,2.93,.72,1.52,1.17,2,2.06,.72,1.94,.72,3.13c0,.34-.02,.69-.06,1.06Zm-3.5-2.02c0-.62-.2-1.12-.61-1.49-.41-.37-.92-.55-1.53-.55s-1.08,.18-1.47,.53c-.4,.35-.65,.86-.74,1.51h4.35Z"/>
    <path class="cls-1" d="M93.66,221.42c.6,.34,1.07,.79,1.39,1.34v-1.68h3.48v11.85c0,1.09-.21,2.08-.62,2.97-.41,.89-1.04,1.59-1.89,2.12s-1.9,.79-3.16,.79c-1.68,0-3.04-.42-4.09-1.24-1.04-.83-1.64-1.95-1.79-3.37h3.44c.11,.45,.37,.81,.77,1.07,.41,.26,.91,.39,1.5,.39,.72,0,1.29-.22,1.72-.65,.43-.43,.64-1.12,.64-2.07v-1.68c-.34,.55-.81,1-1.4,1.35s-1.29,.52-2.09,.52c-.94,0-1.78-.25-2.54-.75-.76-.5-1.36-1.22-1.8-2.15-.44-.93-.66-2-.66-3.22s.22-2.29,.66-3.21,1.04-1.63,1.8-2.13c.76-.5,1.61-.74,2.54-.74,.8,0,1.5,.17,2.11,.51Zm.67,3.45c-.48-.52-1.07-.79-1.76-.79s-1.28,.26-1.76,.78c-.48,.52-.72,1.23-.72,2.14s.24,1.63,.72,2.16,1.07,.8,1.76,.8,1.28-.26,1.76-.79c.48-.52,.72-1.24,.72-2.15s-.24-1.62-.72-2.15Z"/>
    <path class="cls-1" d="M102.04,223.78c.44-.92,1.04-1.63,1.8-2.13,.76-.5,1.61-.74,2.54-.74,.8,0,1.5,.17,2.11,.51,.6,.34,1.07,.79,1.39,1.34v-1.68h3.48v11.87h-3.48v-1.68c-.34,.55-.81,1-1.41,1.34-.6,.34-1.31,.51-2.11,.51-.92,0-1.76-.25-2.52-.75-.76-.5-1.36-1.22-1.8-2.15-.44-.93-.66-2-.66-3.22s.22-2.29,.66-3.21Zm7.12,1.08c-.48-.52-1.07-.79-1.76-.79s-1.28,.26-1.76,.78c-.48,.52-.72,1.23-.72,2.14s.24,1.63,.72,2.16,1.07,.8,1.76,.8,1.28-.26,1.76-.79c.48-.52,.72-1.24,.72-2.15s-.24-1.62-.72-2.15Z"/>
  </g>
  <g class="cls-9">
    <g>
      <polygon class="cls-11" points="69.8 129.18 100.96 128.7 111.27 153.67 67.68 153.67 69.8 129.18"/>
      <polygon class="cls-1" points="68.34 141.71 85.24 141.71 89.48 153.79 67.29 153.79 68.34 141.71"/>
      <polygon class="cls-1" points="106.12 140.37 94.16 140.37 89.48 153.79 111.66 153.79 106.12 140.37"/>
      <polygon class="cls-1" points="67.29 153.79 40.97 153.79 57.67 257.82 124.39 257.82 137.08 154.67 111.66 153.79 67.29 153.79"/>
      <polygon class="cls-14" points="81.18 153.79 98.83 153.79 94.4 169.45 85.32 167.03 81.18 153.79"/>
      <polygon class="cls-14" points="78.38 227.33 85.32 167.03 94.4 169.45 102.72 227.33 90.55 242.99 78.38 227.33"/>
      <polygon class="cls-10" points="137.08 154.67 146.91 167.03 154.53 257.82 124.39 257.82 137.08 154.67"/>
      <polygon class="cls-10" points="40.97 153.79 29.71 161.62 16.81 257.82 57.67 257.82 40.97 153.79"/>
      <polygon class="cls-7" points="48.94 60.96 123.83 59.85 131.51 132.9 43.07 134 48.94 60.96"/>
      <g>
        <polygon class="cls-11" points="126.93 89.45 140.07 86.58 140.54 107.27 128.81 107.27 126.93 89.45"/>
        <path class="cls-5" d="M128.1,100.57s1.77-3.84,3.82-5.85c2.04-2,4.96-3.17,4.96-3.17"/>
      </g>
      <g>
        <polygon class="cls-11" points="46.61 90.29 33.47 87.42 33.01 108.11 45.15 108.11 46.61 90.29"/>
        <path class="cls-5" d="M45.44,101.41s-1.77-3.84-3.82-5.85c-2.04-2-4.96-3.17-4.96-3.17"/>
      </g>
      <path class="cls-2" d="M126.93,89.45l9.32-2.04,2.82-42.5s-70.26-12.98-73.06-13.89c-2.8-.92-5.32-2.19-7.24-3.02-1.92-.83-6.13-3.23-6.13-3.23l5.38,9.91-22.52,19.4,4.3,34.73,6.8,1.49,2.32-29.33,74.89-1.11,3.11,29.6Z"/>
      <polygon class="cls-2" points="118.05 82.19 119.35 76.46 104.75 76.46 102.61 79.95 118.05 82.19"/>
      <polygon class="cls-2" points="52.7 80.09 51.76 74.29 66.33 75.21 68.25 78.82 52.7 80.09"/>
      <polygon class="cls-3" points="76.7 81.05 87.45 81.05 87.45 106.6 69.16 107.37 71.28 97.95 76.58 96.96 76.7 81.05"/>
      <path class="cls-6" d="M53.37,96.06s2-4.06,6.82-3.68c4.82,.38,6.46,3.68,6.46,3.68"/>
      <path class="cls-6" d="M103.64,96.06s2-4.06,6.82-3.68c4.82,.38,6.46,3.68,6.46,3.68"/>
      <polygon class="cls-2" points="43.71 117.24 51.78 127.53 119.49 127.14 129.78 113.12 132.49 133.63 96.37 134.74 96.37 138.94 80.69 138.94 78.87 134.98 42.36 134.5 43.71 117.24"/>
      <path class="cls-13" d="M79.63,117.25l10.25-1.02s-.27,4.74-4.6,4.95-5.65-3.93-5.65-3.93Z"/>
      <path class="cls-3" d="M128.1,103.05s-9.3-4.26-17.83,4.32c-8.53,8.58-3.9,19.84-3.9,19.84"/>
      <path class="cls-3" d="M45.44,104.46s7.77,1.96,12.97,7.64c5.2,5.68,4.9,15.36,4.9,15.36"/>
      <polygon class="cls-2" points="58.79 112.69 73.22 103.56 83.17 105.3 94.02 102.76 107.54 112.72 86.46 114.23 83.17 110.64 79.74 114.61 58.79 112.69"/>
    </g>
  </g>
</svg>