<?xml version="1.0" encoding="UTF-8"?>
<svg id="Layer_2" data-name="Layer 2" xmlns="http://www.w3.org/2000/svg" xmlns:xlink="http://www.w3.org/1999/xlink" viewBox="0 0 173.34 247.66">
  <defs>
    <style>
      .cls-1 {
        fill: #fff;
      }

      .cls-2 {
        fill: #363636;
      }

      .cls-3 {
        stroke-linecap: round;
      }

      .cls-3, .cls-4, .cls-5, .cls-6 {
        fill: none;
      }

      .cls-3, .cls-5 {
        stroke: #fff;
        stroke-width: .54px;
      }

      .cls-3, .cls-5, .cls-6 {
        stroke-linejoin: round;
      }

      .cls-7 {
        fill: #ab7a5a;
      }

      .cls-8 {
        fill: #307f46;
      }

      .cls-9 {
        clip-path: url(#clippath);
      }

      .cls-10 {
        fill: #e8e8e8;
      }

      .cls-11 {
        fill: #9e6647;
      }

      .cls-12 {
        fill: #aadef7;
      }

      .cls-5, .cls-6 {
        stroke-linecap: square;
      }

      .cls-13 {
        fill: #b72c2c;
      }

      .cls-6 {
        stroke: #363636;
        stroke-width: 1.09px;
      }

      .cls-14 {
        fill: #3864ab;
      }
    </style>
    <clipPath id="clippath">
      <rect class="cls-4" x="5.86" y="7.81" width="160.53" height="198.84" rx="14.3" ry="14.3"/>
    </clipPath>
  </defs>
  <rect class="cls-8" x=".1" y=".58" width="173.34" height="246.49" rx="13.2" ry="13.2"/>
  <rect class="cls-12" x="5.86" y="7.81" width="160.53" height="198.84" rx="14.3" ry="14.3"/>
  <g class="cls-9">
    <g>
      <polygon class="cls-11" points="69.8 129.18 100.96 128.7 111.27 153.67 67.68 153.67 69.8 129.18"/>
      <polygon class="cls-1" points="68.34 141.71 85.24 141.71 89.48 153.79 67.29 153.79 68.34 141.71"/>
      <polygon class="cls-1" points="106.12 140.37 94.16 140.37 89.48 153.79 111.66 153.79 106.12 140.37"/>
      <polygon class="cls-1" points="67.29 153.79 40.97 153.79 57.67 257.82 124.39 257.82 137.08 154.67 111.66 153.79 67.29 153.79"/>
      <polygon class="cls-14" points="81.18 153.79 98.83 153.79 94.4 169.45 85.32 167.03 81.18 153.79"/>
      <polygon class="cls-14" points="78.38 227.33 85.32 167.03 94.4 169.45 102.72 227.33 90.55 242.99 78.38 227.33"/>
      <polygon class="cls-10" points="137.08 154.67 146.91 167.03 154.53 257.82 124.39 257.82 137.08 154.67"/>
      <polygon class="cls-10" points="40.97 153.79 29.71 161.62 16.81 257.82 57.67 257.82 40.97 153.79"/>
      <polygon class="cls-7" points="48.94 60.96 123.83 59.85 131.51 132.9 43.07 134 48.94 60.96"/>
      <g>
        <polygon class="cls-11" points="126.93 89.45 140.07 86.58 140.54 107.27 128.81 107.27 126.93 89.45"/>
        <path class="cls-5" d="M128.1,100.57s1.77-3.84,3.82-5.85c2.04-2,4.96-3.17,4.96-3.17"/>
      </g>
      <g>
        <polygon class="cls-11" points="46.61 90.29 33.47 87.42 33.01 108.11 45.15 108.11 46.61 90.29"/>
        <path class="cls-5" d="M45.44,101.41s-1.77-3.84-3.82-5.85c-2.04-2-4.96-3.17-4.96-3.17"/>
      </g>
      <path class="cls-2" d="M126.93,89.45l9.32-2.04,2.82-42.5s-70.26-12.98-73.06-13.89c-2.8-.92-5.32-2.19-7.24-3.02s-6.13-3.23-6.13-3.23l5.38,9.91-22.52,19.4,4.3,34.73,6.8,1.49,2.32-29.33,74.89-1.11,3.11,29.6Z"/>
      <polygon class="cls-2" points="118.05 82.19 119.35 76.46 104.75 76.46 102.61 79.95 118.05 82.19"/>
      <polygon class="cls-2" points="52.7 80.09 51.76 74.29 66.33 75.21 68.25 78.82 52.7 80.09"/>
      <polygon class="cls-3" points="76.7 81.05 87.45 81.05 87.45 106.6 69.16 107.37 71.28 97.95 76.58 96.96 76.7 81.05"/>
      <path class="cls-6" d="M53.37,96.06s2-4.06,6.82-3.68c4.82,.38,6.46,3.68,6.46,3.68"/>
      <path class="cls-6" d="M103.64,96.06s2-4.06,6.82-3.68c4.82,.38,6.46,3.68,6.46,3.68"/>
      <polygon class="cls-2" points="43.71 117.24 51.78 127.53 119.49 127.14 129.78 113.12 132.49 133.63 96.37 134.74 96.37 138.94 80.69 138.94 78.87 134.98 42.36 134.5 43.71 117.24"/>
      <path class="cls-13" d="M79.63,117.25l10.25-1.02s-.27,4.74-4.6,4.95-5.65-3.93-5.65-3.93Z"/>
      <path class="cls-3" d="M128.1,103.05s-9.3-4.26-17.83,4.32c-8.53,8.58-3.9,19.84-3.9,19.84"/>
      <path class="cls-3" d="M45.44,104.46s7.77,1.96,12.97,7.64c5.2,5.68,4.9,15.36,4.9,15.36"/>
      <polygon class="cls-2" points="58.79 112.69 73.22 103.56 83.17 105.3 94.02 102.76 107.54 112.72 86.46 114.23 83.17 110.64 79.74 114.61 58.79 112.69"/>
    </g>
  </g>
  <g>
    <path class="cls-1" d="M59.08,224.86c1.52,0,2.85,.53,3.99,1.6,1.17,1.07,1.75,2.34,1.75,3.81v1.86c0,1.49-.53,2.76-1.6,3.81-1.05,1.07-2.32,1.6-3.81,1.6h-9.86l-.94-.53,.56-3.2,.76,.43h6.68c.79,0,1.47-.28,2.03-.84,.56-.58,.84-1.25,.84-2.03v-.33c0-.8-.28-1.47-.84-2.03s-1.24-.84-2.03-.84h-2.77c-1.51,0-2.86-.53-4.04-1.6-1.2-1.08-1.8-2.36-1.8-3.84v-1.7c0-1.51,.52-2.79,1.57-3.84,1.07-1.05,2.35-1.58,3.84-1.58h9.66l.74-.43,.56,3.18-.91,.53h-7.24c-.78,0-1.46,.28-2.03,.84-.56,.56-.84,1.24-.84,2.03v.23c0,.78,.28,1.46,.84,2.03,.58,.56,1.25,.84,2.03,.84h2.87Z"/>
    <path class="cls-1" d="M69.07,231.72h5.08v4.83h-5.08v-4.83Z"/>
    <path class="cls-1" d="M101.97,235.4l-3.02,3.02-3.02-3.02-3,3.02-3.02-3.02-3.02,3.02-3.02-3.02-3.02,3.02-3.02-3.02,3.02-3.02,3.02,3,3.02-3,3.02,3,3.02-3,3,3,3.02-3,3.02,3.02Zm-14.74-14.38h-8.13l-.94-.53,.56-3.2,.74,.43h7.78v-2.87h5.34v2.87h7.77l.74-.43,.56,3.2-.94,.53h-8.13v10.67h-5.34v-10.67Zm-4.07,11.28l-4.75-1.25,2.49-9.55,4.75,1.25-2.49,9.55Zm10.95-9.55l4.75-1.25,2.49,9.55-4.75,1.25-2.49-9.55Z"/>
    <path class="cls-1" d="M116.98,216.73v21.09h-5.67l-.91-.53,.56-3.18,.74,.43h.2v-14.51h-.97c-.32,6.2-.68,12.2-1.07,17.99l-4.8-.31c.44-6.77,.78-12.67,1.02-17.68h-.71l-.91-.53,.56-3.2,.74,.43h.51l.08-1.88,4.83,.23-.08,1.65h5.89Zm10.85-.99v21.85h-9.73v-17.79h4.27v14.48h1.19v-15.27h-5.08l-.92-.53,.56-3.18,.74,.43h8.97Z"/>
  </g>
</svg>