<?xml version="1.0" encoding="UTF-8"?>
<svg id="Layer_2" data-name="Layer 2" xmlns="http://www.w3.org/2000/svg" xmlns:xlink="http://www.w3.org/1999/xlink" viewBox="0 0 189.52 268.55">
  <defs>
    <style>
      .cls-1 {
        fill: #fff;
      }

      .cls-2 {
        fill: #363636;
      }

      .cls-3 {
        fill: #ab7a5a;
      }

      .cls-4 {
        fill: #307f46;
      }

      .cls-5 {
        clip-path: url(#clippath);
      }

      .cls-6 {
        fill: none;
      }

      .cls-7 {
        fill: #e8e8e8;
      }

      .cls-8 {
        fill: #9e6647;
      }

      .cls-9 {
        fill: #aadef7;
      }

      .cls-10 {
        fill: #b72c2c;
      }

      .cls-11 {
        fill: #3864ab;
      }
    </style>
    <clipPath id="clippath">
      <rect class="cls-6" x="13.84" y="16.65" width="160.53" height="198.84" rx="14.3" ry="14.3"/>
    </clipPath>
  </defs>
  <rect class="cls-4" x="8.09" y="9.42" width="173.34" height="246.49" rx="13.2" ry="13.2"/>
  <rect class="cls-9" x="13.84" y="16.65" width="160.53" height="198.84" rx="14.3" ry="14.3"/>
  <g>
    <path class="cls-1" d="M77.86,226.85v10.17c0,1.57-.42,2.79-1.27,3.64-.85,.85-1.99,1.28-3.43,1.28s-2.71-.45-3.62-1.34c-.91-.89-1.36-2.16-1.36-3.81h3.46c0,.62,.12,1.1,.37,1.42s.6,.48,1.06,.48c.42,0,.75-.14,.98-.43,.23-.28,.35-.69,.35-1.23v-10.17h3.48Z"/>
    <path class="cls-1" d="M92.32,236.72h-7.87c.05,.74,.28,1.3,.68,1.69,.4,.39,.89,.58,1.48,.58,.87,0,1.47-.38,1.81-1.15h3.7c-.19,.78-.53,1.48-1.03,2.11-.5,.62-1.12,1.11-1.86,1.47-.75,.35-1.58,.53-2.5,.53-1.11,0-2.1-.25-2.97-.74s-1.55-1.21-2.03-2.13-.73-2-.73-3.23,.24-2.31,.72-3.23,1.16-1.63,2.02-2.13c.87-.5,1.87-.74,2.99-.74s2.07,.24,2.93,.72,1.52,1.17,2,2.06,.72,1.94,.72,3.13c0,.34-.02,.69-.06,1.06Zm-3.5-2.02c0-.62-.2-1.12-.61-1.49-.41-.37-.92-.55-1.53-.55s-1.08,.18-1.47,.53c-.4,.35-.65,.86-.74,1.51h4.35Z"/>
    <path class="cls-1" d="M101.65,230.25c.6,.34,1.07,.79,1.39,1.34v-1.68h3.48v11.85c0,1.09-.21,2.08-.62,2.97-.41,.89-1.04,1.59-1.89,2.12s-1.9,.79-3.16,.79c-1.68,0-3.04-.42-4.09-1.24-1.04-.83-1.64-1.95-1.79-3.37h3.44c.11,.45,.37,.81,.77,1.07,.41,.26,.91,.39,1.5,.39,.72,0,1.29-.22,1.72-.65,.43-.43,.64-1.12,.64-2.07v-1.68c-.34,.55-.81,1-1.4,1.35s-1.29,.52-2.09,.52c-.94,0-1.78-.25-2.54-.75-.76-.5-1.36-1.22-1.8-2.15-.44-.93-.66-2-.66-3.22s.22-2.29,.66-3.21,1.04-1.63,1.8-2.13c.76-.5,1.61-.74,2.54-.74,.8,0,1.5,.17,2.11,.51Zm.67,3.45c-.48-.52-1.07-.79-1.76-.79s-1.28,.26-1.76,.78c-.48,.52-.72,1.23-.72,2.14s.24,1.63,.72,2.16,1.07,.8,1.76,.8,1.28-.26,1.76-.79c.48-.52,.72-1.24,.72-2.15s-.24-1.62-.72-2.15Z"/>
    <path class="cls-1" d="M110.03,232.61c.44-.92,1.04-1.63,1.8-2.13,.76-.5,1.61-.74,2.54-.74,.8,0,1.5,.17,2.11,.51,.6,.34,1.07,.79,1.39,1.34v-1.68h3.48v11.87h-3.48v-1.68c-.34,.55-.81,1-1.41,1.34-.6,.34-1.31,.51-2.11,.51-.92,0-1.76-.25-2.52-.75-.76-.5-1.36-1.22-1.8-2.15-.44-.93-.66-2-.66-3.22s.22-2.29,.66-3.21Zm7.12,1.08c-.48-.52-1.07-.79-1.76-.79s-1.28,.26-1.76,.78c-.48,.52-.72,1.23-.72,2.14s.24,1.63,.72,2.16,1.07,.8,1.76,.8,1.28-.26,1.76-.79c.48-.52,.72-1.24,.72-2.15s-.24-1.62-.72-2.15Z"/>
  </g>
  <g class="cls-5">
    <g>
      <polygon class="cls-8" points="77.79 138.02 108.95 137.54 119.26 162.5 75.67 162.5 77.79 138.02"/>
      <polygon class="cls-1" points="76.33 150.55 93.23 150.55 97.46 162.62 75.28 162.62 76.33 150.55"/>
      <polygon class="cls-1" points="114.11 149.21 102.15 149.21 97.46 162.62 119.65 162.62 114.11 149.21"/>
      <polygon class="cls-1" points="75.28 162.62 48.96 162.62 65.66 266.66 132.38 266.66 145.07 163.51 119.65 162.62 75.28 162.62"/>
      <polygon class="cls-11" points="89.17 162.62 106.82 162.62 102.39 178.29 93.31 175.86 89.17 162.62"/>
      <polygon class="cls-11" points="86.37 236.16 93.31 175.86 102.39 178.29 110.71 236.16 98.54 251.83 86.37 236.16"/>
      <polygon class="cls-7" points="145.07 163.51 154.9 175.86 162.52 266.66 132.38 266.66 145.07 163.51"/>
      <polygon class="cls-7" points="48.96 162.62 37.7 170.45 24.8 266.66 65.66 266.66 48.96 162.62"/>
      <polygon class="cls-3" points="56.92 69.79 131.82 68.69 139.5 141.73 51.06 142.84 56.92 69.79"/>
      <g>
        <polygon class="cls-8" points="134.92 98.29 148.06 95.42 148.53 116.11 136.8 116.11 134.92 98.29"/>
        <path class="cls-1" d="M136.22,109.77l-.49-.23,.11-.25c.07-.16,1.82-3.91,3.87-5.93,2.06-2.02,4.93-3.18,5.05-3.23l.25-.1,.2,.5-.25,.1s-2.89,1.17-4.87,3.11c-1.98,1.95-3.74,5.73-3.76,5.77l-.11,.25Z"/>
      </g>
      <g>
        <polygon class="cls-8" points="54.6 99.12 41.46 96.25 41 116.94 53.14 116.94 54.6 99.12"/>
        <path class="cls-1" d="M53.3,110.6l-.11-.25s-1.78-3.82-3.76-5.77c-1.98-1.94-4.84-3.1-4.87-3.11l-.25-.1,.2-.5,.25,.1c.12,.05,2.99,1.21,5.05,3.23,2.06,2.02,3.8,5.77,3.87,5.93l.11,.25-.49,.23Z"/>
      </g>
      <path class="cls-2" d="M134.92,98.29l9.32-2.04,2.82-42.5s-70.26-12.98-73.06-13.89c-2.8-.92-5.32-2.19-7.24-3.02s-6.13-3.23-6.13-3.23l5.38,9.91-22.52,19.4,4.3,34.73,6.8,1.49,2.32-29.33,74.89-1.11,3.11,29.6Z"/>
      <polygon class="cls-2" points="126.04 91.03 127.34 85.3 112.74 85.3 110.6 88.78 126.04 91.03"/>
      <polygon class="cls-2" points="60.69 88.92 59.75 83.13 74.32 84.04 76.23 87.65 60.69 88.92"/>
      <path class="cls-1" d="M77.15,116.48c-.08,0-.16-.04-.21-.1-.05-.07-.08-.15-.06-.23l2.12-9.42c.02-.11,.11-.19,.22-.21l5.08-.96,.11-15.68c0-.15,.12-.27,.27-.27h10.75c.15,0,.27,.12,.27,.27v25.54c0,.15-.11,.27-.26,.27l-18.29,.78h-.01Zm2.35-9.46l-2,8.9,17.67-.75v-25.01h-10.21l-.11,15.63c0,.13-.09,.24-.22,.27l-5.13,.96Zm5.08-1.23h0Z"/>
      <path class="cls-2" d="M74.38,105.63l-.24-.49c-.06-.12-1.58-3.02-6.01-3.38-4.4-.35-6.27,3.34-6.29,3.37l-.24,.49-.98-.48,.24-.49s2.21-4.4,7.35-3.98c5.07,.4,6.83,3.83,6.9,3.98l.24,.49-.97,.48Z"/>
      <path class="cls-2" d="M124.65,105.63l-.24-.49c-.06-.12-1.58-3.02-6.01-3.38-4.4-.35-6.27,3.34-6.29,3.37l-.24,.49-.98-.48,.24-.49s2.22-4.4,7.35-3.98c5.07,.4,6.83,3.83,6.9,3.98l.24,.49-.97,.48Z"/>
      <polygon class="cls-2" points="51.7 126.08 59.77 136.37 127.48 135.97 137.77 121.96 140.48 142.47 104.35 143.58 104.35 147.77 88.68 147.77 86.85 143.81 50.35 143.34 51.7 126.08"/>
      <path class="cls-10" d="M87.62,126.09l10.25-1.02s-.27,4.74-4.6,4.95-5.65-3.93-5.65-3.93Z"/>
      <path class="cls-1" d="M114.36,136.32c-.11,0-.21-.06-.25-.17-.05-.11-4.6-11.53,3.96-20.14,8.56-8.61,18.04-4.42,18.13-4.38,.14,.06,.2,.22,.13,.36s-.22,.2-.36,.13c-.09-.04-9.23-4.07-17.52,4.27-8.31,8.35-3.89,19.44-3.84,19.55,.06,.14,0,.3-.15,.36-.03,.01-.07,.02-.1,.02Z"/>
      <path class="cls-1" d="M71.3,136.57h0c-.15,0-.27-.13-.26-.28,0-.1,.23-9.64-4.83-15.17-5.08-5.56-12.76-7.54-12.84-7.56-.15-.04-.23-.18-.2-.33,.04-.14,.18-.23,.33-.2,.08,.02,7.91,2.04,13.1,7.72,5.22,5.7,4.98,15.46,4.97,15.56,0,.15-.12,.26-.27,.26Z"/>
      <polygon class="cls-2" points="66.77 121.52 81.21 112.4 91.16 114.14 102.01 111.59 115.53 121.56 94.45 123.07 91.16 119.47 87.73 123.44 66.77 121.52"/>
    </g>
  </g>
</svg>