<?xml version="1.0" encoding="UTF-8"?>
<svg id="Layer_2" data-name="Layer 2" xmlns="http://www.w3.org/2000/svg" xmlns:xlink="http://www.w3.org/1999/xlink" viewBox="0 0 173.34 247.45">
  <defs>
    <style>
      .cls-1 {
        fill: #fff;
      }

      .cls-2, .cls-3, .cls-4, .cls-5, .cls-6, .cls-7, .cls-8, .cls-9, .cls-10, .cls-11, .cls-12, .cls-13, .cls-14 {
        stroke-linejoin: round;
      }

      .cls-2, .cls-3, .cls-4, .cls-5, .cls-6, .cls-8, .cls-9, .cls-12, .cls-15, .cls-13, .cls-16, .cls-14 {
        fill: none;
      }

      .cls-2, .cls-3, .cls-4, .cls-7, .cls-8, .cls-13, .cls-14 {
        stroke-linecap: square;
      }

      .cls-2, .cls-4 {
        stroke-width: .81px;
      }

      .cls-2, .cls-8 {
        stroke: #181216;
      }

      .cls-3, .cls-6 {
        stroke-width: .8px;
      }

      .cls-3, .cls-6, .cls-7, .cls-9, .cls-10, .cls-11, .cls-12 {
        stroke: #f80500;
      }

      .cls-17 {
        fill: #181216;
      }

      .cls-4, .cls-14 {
        stroke: #363636;
      }

      .cls-18 {
        fill: #ef9d7f;
      }

      .cls-19 {
        fill: #363636;
      }

      .cls-5, .cls-6, .cls-9, .cls-10, .cls-11, .cls-12 {
        stroke-linecap: round;
      }

      .cls-5, .cls-13 {
        stroke: #fff;
        stroke-width: .16px;
      }

      .cls-20 {
        fill: #ed8869;
      }

      .cls-21 {
        fill: #eeb2ff;
      }

      .cls-7 {
        stroke-width: .91px;
      }

      .cls-7, .cls-22 {
        fill: #e08bfc;
      }

      .cls-8 {
        stroke-width: .79px;
      }

      .cls-9, .cls-10 {
        stroke-width: .91px;
      }

      .cls-23, .cls-11 {
        fill: #f55;
      }

      .cls-24 {
        fill: #e58e73;
      }

      .cls-10 {
        fill: #fac300;
      }

      .cls-11 {
        stroke-width: .86px;
      }

      .cls-25 {
        fill: #f7f2dc;
      }

      .cls-26 {
        fill: #ab7a5a;
      }

      .cls-27 {
        fill: #307f46;
      }

      .cls-12 {
        stroke-width: .77px;
      }

      .cls-28 {
        clip-path: url(#clippath);
      }

      .cls-29 {
        fill: #ff8cb7;
      }

      .cls-30 {
        fill: #353535;
      }

      .cls-31 {
        fill: #9e6647;
      }

      .cls-32 {
        fill: #b72c2c;
      }

      .cls-16 {
        stroke: #d46cff;
        stroke-miterlimit: 10;
        stroke-width: .42px;
      }

      .cls-14 {
        stroke-width: .33px;
      }

      .cls-33 {
        fill: #d46cff;
      }
    </style>
    <clipPath id="clippath">
      <rect class="cls-15" x="6.21" y="7.39" width="160.53" height="198.84" rx="14.3" ry="14.3"/>
    </clipPath>
  </defs>
  <rect class="cls-22" x="-.19" y=".22" width="173.34" height="246.49" rx="13.2" ry="13.2"/>
  <rect class="cls-27" x="6.21" y="7.39" width="160.53" height="198.84" rx="14.3" ry="14.3"/>
  <g class="cls-28">
    <g>
      <g>
        <g>
          <polygon class="cls-19" points="-1.84 135.95 -14.86 141.78 -6.31 162.36 12.33 155.28 10.67 135.95 -1.84 135.95"/>
          <polyline class="cls-8" points="-2.51 160.5 -4.65 150.58 10.1 142.98"/>
          <polyline class="cls-8" points=".73 140.91 -8.43 149.15 -4.65 161.39"/>
        </g>
        <polygon class="cls-19" points="81.39 86.33 48.79 63.44 -4.47 84.21 1.39 128.52 15.63 136.87 81.39 86.33"/>
        <g>
          <polygon class="cls-24" points="9.36 127.75 -.93 124.11 -2.01 141.02 9.36 143.28 9.36 127.75"/>
          <path class="cls-3" d="M9.18,136.25c-1.56-1.97-3.12-3.94-4.68-5.91-.87-.37-1.75-.73-2.62-1.1"/>
        </g>
        <polygon class="cls-24" points="25.57 162.61 16.4 189.15 30.36 208.43 50.41 189.15 54.78 174.04 25.57 162.61"/>
        <path class="cls-23" d="M86.8,183.49c11.01,23.91,32.64,69.78,32.64,69.78l-152.15-1.72L-14.47,184.53l32.52-.14,12.44,9.07-.13,13.7,3.96-13.17,17.73-10.5"/>
        <path class="cls-18" d="M9.29,108.41l-.11,42.45c0,2.94,1.55,5.67,4.08,7.16l35.87,21.07c2.22,1.3,5.01,1.12,7.03-.47l22.86-17.88c2.58-2.02,4.06-5.14,4-8.42l-.66-43.64-31.77-19.19L9.29,108.41Z"/>
        <path class="cls-19" d="M37.42,94.66c15.48,8.91,44.97,26.7,44.97,26.7l-.08-35.04s-23.71,.23-33.87-.13c-3.66,3.17-7.36,5.31-11.02,8.47Z"/>
        <path class="cls-11" d="M56.85,119.45c-.26,8.99-.77,26.98-.77,26.98l8.21,.16s2.07-19.46-7.44-27.14Z"/>
        <path class="cls-6" d="M9.59,147.16c2.03-.37,6.18-.83,10.95,.79,1.87,.64,7.66,2.72,11.22,8.87,3.4,5.89,2.55,11.71,2.24,13.38"/>
        <path class="cls-6" d="M67.47,169.78c-.17-1.44-1.18-11.03,4.04-17.52,4.13-5.14,9.52-6.65,11.28-7.07"/>
        <path class="cls-17" d="M63.29,85.95s-36.72,29.15-55.1,44.7c.5-14.34,1.55-45.11,1.55-45.11l53.56,.41Z"/>
        <polygon class="cls-17" points="41.19 120.75 21.46 119.59 22.49 112.75 41.73 117.15 41.19 120.75"/>
        <polygon class="cls-17" points="63.93 122.08 83.65 120.92 82.63 114.08 63.39 118.48 63.93 122.08"/>
        <path class="cls-32" d="M59.07,155.13c-4.55-3.11-11.74,2.05-12.64,8.19-.9,6.14,8.93,6.36,8.64,5.36-.46-1.57,8.55-10.44,4-13.55Z"/>
        <g>
          <g>
            <path class="cls-20" d="M44.47,189.26c-.52-2.09-.68-9.49-.68-9.49l-.15-19.69,20.1,2.64,.26,13.1,4.81-3.76,2.18,3.42-6.73,6.64,.37,6.47s-.33,.45-.44,.57c-6.57,.03-13.15,.07-19.72,.1Z"/>
            <path class="cls-12" d="M47.34,173.41c.11-4.14,.23-8.29,.34-12.43"/>
            <path class="cls-12" d="M59.59,174.92c-.19-4.15-.38-8.3-.57-12.46"/>
            <path class="cls-12" d="M53.54,175.29c.11-4.4,.22-8.79,.33-13.19"/>
          </g>
          <path class="cls-32" d="M41.98,187.77s7.01,59.33,10.52,88.99l39.39-23.21c-8.31-22.76-24.93-68.29-24.93-68.29l-24.99,2.51Z"/>
        </g>
        <g>
          <path class="cls-30" d="M33.08,127.48c-1.69,1.65-.94,4.33-.75,5.02,.21,.77,.81,2.92,2.58,3.39,1.25,.32,2.31-.39,2.37-.43,1.73-1.19,1.38-3.95,1.26-4.9-.15-1.23-.42-3.39-2.02-4.02-1.22-.48-2.65,.16-3.45,.94Z"/>
          <path class="cls-19" d="M26.9,130.77c1.12-.87,1.53-2.05,5.62-3.4,4.08-1.34,9.02,1.96,9.02,1.96l.57-.93s-4.4-3.15-8.73-2.48c-4.33,.68-6.28,2.87-7.31,3.71l.83,1.13Z"/>
          <polygon class="cls-19" points="25.4 127.4 26.06 129.63 27.81 128.52 25.4 127.4"/>
        </g>
        <g>
          <path class="cls-30" d="M75.7,128.53c1.69,1.65,.94,4.33,.75,5.02-.21,.77-.81,2.92-2.58,3.39-1.25,.32-2.31-.39-2.37-.43-1.73-1.19-1.38-3.95-1.26-4.9,.15-1.23,.42-3.39,2.02-4.02,1.22-.48,2.65,.16,3.45,.94Z"/>
          <path class="cls-19" d="M81.89,131.81c-1.12-.87-1.53-2.05-5.62-3.4-4.08-1.34-9.02,1.96-9.02,1.96l-.57-.93s4.4-3.15,8.73-2.48c4.33,.68,6.28,2.87,7.31,3.71l-.83,1.13Z"/>
          <polygon class="cls-19" points="83.39 128.44 82.72 130.68 80.98 129.56 83.39 128.44"/>
        </g>
        <g>
          <path class="cls-17" d="M63.32,86.04s-36.75,29.17-55.14,44.73c.46-11.09,.84-22.27,1.15-33.56,.11-4.09,.21-8.17,.3-12.24,17.89,.36,35.79,.72,53.68,1.08Z"/>
          <line class="cls-2" x1="-3.9" y1="84.64" x2="81.93" y2="86.69"/>
          <line class="cls-4" x1="25.77" y1="82.14" x2="9.17" y2="128.98"/>
          <line class="cls-4" x1="45.73" y1="84.2" x2="9.44" y2="128.22"/>
        </g>
      </g>
      <polygon class="cls-25" points="5 -2.22 101.9 5.12 97.42 43.23 73.72 55.86 75.57 73.84 58.65 57.83 -.19 50.67 5 -2.22"/>
      <g>
        <path class="cls-22" d="M108.82,150.88s20.5,23.2,21.65,33.89-.16,8.9-.16,8.9l32.51-28.81-14.54-20.44-39.45,6.45Z"/>
        <polygon class="cls-21" points="86.58 79.87 91.05 154.89 164.73 153.87 161.84 91.77 104.13 75.96 86.58 79.87"/>
        <polygon class="cls-33" points="103.82 51 82.57 66.82 71.9 93.52 91.74 104.47 101.17 92.21 100.18 104.12 148.91 111.58 103.82 51"/>
        <polygon class="cls-29" points="103.83 51 121.59 44.77 151.15 110.33 144.95 112.51 103.83 51"/>
        <polygon class="cls-22" points="140.19 113.59 154.45 107.57 157.72 129.53 144.89 134.42 140.19 113.59"/>
        <polygon class="cls-10" points="87.61 106.22 76.59 128.88 89.12 131.68 87.61 106.22"/>
        <path class="cls-21" d="M130.31,193.67s-11.4,22.6-13.32,36.26c-1.93,13.66-2.71,59.44-2.71,59.44l101.27-22.92-40.84-115.59-44.4,42.81Z"/>
        <path class="cls-9" d="M144.06,125.79s.11-4.99,2.47-8c2.35-3.01,5.01-2.85,5.01-2.85"/>
        <polygon class="cls-33" points="121.59 44.77 150.63 109.18 154.45 107.57 157.72 129.53 144.89 134.42 126.37 176.25 142.5 179.76 145.21 172.8 145.4 180.64 170.36 177.97 170.65 168.62 176.94 176.49 203.81 163.67 178.5 101.57 169.32 44.77 121.59 44.77"/>
        <path class="cls-32" d="M93.91,131.93l19.75-8.86-3.25,20.25c-.09,.58-.77,.87-1.25,.52l-15.35-10.88c-.38-.27-.32-.85,.1-1.04Z"/>
        <path class="cls-9" d="M141.61,119.89s-12.38-.99-19.75,10.91c-7.37,11.9-1.28,23.68-1.28,23.68"/>
        <path class="cls-22" d="M144.55,193.97s11.08-1.54,15.69-.18c4.61,1.36,10.06,10.06,10.06,10.06l-31.53,71.12-30.84-15.06,36.62-65.95Z"/>
        <g>
          <path class="cls-22" d="M137.12,230.23s-4.74,10.13-8.39,13.25c-3.65,3.13-13.92,2.95-13.92,2.95l-30.17-64.77-22.86-26.29,19.7-17.92,12.25,21.1,2.6-8.95,5.23,2.72-4.7,12.62,2.65,5.43,37.6,59.84Z"/>
          <line class="cls-7" x1="78.05" y1="141.98" x2="85.82" y2="153.86"/>
          <line class="cls-7" x1="71.94" y1="147.33" x2="81.54" y2="159.74"/>
          <line class="cls-7" x1="66.29" y1="152.58" x2="76.99" y2="163.08"/>
        </g>
      </g>
      <g>
        <polygon class="cls-26" points="23.09 22.26 45.71 23.91 46.09 46.15 19.38 44.13 23.09 22.26"/>
        <g>
          <polygon class="cls-31" points="45.86 32.92 49.9 32.4 49.49 38.66 45.95 38.34 45.86 32.92"/>
          <path class="cls-13" d="M45.92,36.31s.64-1.11,1.31-1.66,1.58-.82,1.58-.82"/>
        </g>
        <g>
          <polygon class="cls-31" points="21.61 31.04 17.72 29.83 17.03 36.05 20.7 36.38 21.61 31.04"/>
          <path class="cls-13" d="M20.96,34.36s-.43-1.21-1-1.87-1.41-1.09-1.41-1.09"/>
        </g>
        <path class="cls-19" d="M45.86,32.92l2.87-.37,1.98-12.74s-20.85-5.78-21.67-6.13c-.82-.35-1.55-.8-2.1-1.1-.56-.3-1.76-1.14-1.76-1.14l1.36,3.13-7.31,5.25,.37,10.59,2.01,.63,1.48-8.79,22.62,1.65,.15,9.01Z"/>
        <polygon class="cls-19" points="43.37 30.49 43.92 28.8 39.51 28.41 38.78 29.41 43.37 30.49"/>
        <polygon class="cls-19" points="23.72 28.13 23.59 26.35 27.96 27.01 28.44 28.15 23.72 28.13"/>
        <polygon class="cls-5" points="30.93 29.05 34.17 29.34 33.49 37.04 27.96 36.79 28.85 34.01 30.47 33.85 30.93 29.05"/>
        <path class="cls-14" d="M23.49,32.96s.71-1.17,2.15-.93c1.44,.24,1.85,1.28,1.85,1.28"/>
        <path class="cls-14" d="M38.66,34.3s.71-1.17,2.15-.93c1.44,.24,1.85,1.28,1.85,1.28"/>
        <polygon class="cls-19" points="20.02 39.09 22.18 42.41 42.61 44.09 46.09 40.14 46.36 46.39 35.44 45.77 35.33 47.03 30.6 46.62 30.15 45.38 19.15 44.26 20.02 39.09"/>
        <path class="cls-32" d="M30.85,40.05l3.12-.03s-.21,1.42-1.52,1.37c-1.31-.05-1.6-1.34-1.6-1.34Z"/>
        <path class="cls-5" d="M45.85,37.05s-2.69-1.53-5.49,.83c-2.8,2.36-1.7,5.88-1.7,5.88"/>
        <path class="cls-5" d="M20.88,35.28s2.29,.8,3.71,2.65c1.42,1.85,1.07,4.76,1.07,4.76"/>
        <polygon class="cls-19" points="24.69 38.12 29.28 35.75 32.24 36.54 35.58 36.06 39.39 39.42 32.99 39.32 32.1 38.15 30.96 39.25 24.69 38.12"/>
      </g>
      <g>
        <path class="cls-21" d="M93.56,24.47s-4.73,9.47-12.06,15.1c-7.33,5.63-19.95,8.98-19.95,8.98l-7.38-11.04s6.49-2.2,12.72-7.65c4.02-3.52,8.18-14.41,8.18-14.41l18.49,9.02Z"/>
        <path class="cls-25" d="M70.78,32.47c3.26-2.3,6.1-4.29,7.18-3.45,1.19,.92,.33,5.25-2.36,7.57-3.45,2.98-9.37,2.21-9.86,.69-.33-1.03,1.82-2.54,5.04-4.81Z"/>
        <path class="cls-16" d="M89.53,25.51l-13.33-6.9s-4.73,10.01-7.58,12.24c-2.86,2.22-12.3,7.45-12.3,7.45l6.16,8.06s8.94-3.19,15.37-7.3c6.43-4.11,11.69-13.55,11.69-13.55Z"/>
      </g>
    </g>
  </g>
  <g>
    <path class="cls-1" d="M69.12,234.76l.71-.41,.51,3-.86,.48h-5.23v-12.17h-.3l-.91-.53,.56-3.18,.74,.43h4.75v12.37h.05Zm.63-16.34l-3.2,3.2-3.18-3.2,3.18-3.18,3.2,3.18Zm16.69,18.98l-.94,.53h-14.89v-5.28h4.6v1.98h.76v-3.07h-5.26l-.92-.53,.56-3.18,.74,.43h4.88v-1.37h-4.67l-.94-.53v-3.33h4.83v.56h10.16l.74-.43,.56,3.2-.92,.53h-4.67v1.37h4.88l.74-.43,.56,3.18-.94,.53h-5.23v3.07h.79v-1.98h4.6v4.75Zm.41-19l-.94,.53h-15.58v-3.3h15.19l.76-.43,.56,3.2Zm-15.93,4.32l-.23-2.95,4.6-.36,.23,2.95-4.6,.36Zm5.33,0l-.23-2.95,4.6-.36,.23,2.95-4.6,.36Zm5.18-.28l.15-2.97,4.6,.23-.15,2.97-4.6-.23Z"/>
    <path class="cls-1" d="M112.75,219.64h-21.9l-.91-.53,.56-3.1,.71,.43h7.8v-1.42h5.59v1.42h7.8l.71-.43,.56,3.1-.91,.53Zm-1.14,1.07l.74-.41,.53,3.1-.89,.51h-20.38l-.89-.51,.53-3.1,.74,.41h19.61Zm0,4.27l.74-.41,.53,3.1-.89,.51h-20.38l-.89-.51,.53-3.1,.74,.41h19.61Zm.61,4.29v8.13l-.92,.53h-19.95v-4.73h5.16v1.42h10.62v-2.06h-15.19l-.92-.53,.56-3.2,.74,.43h19.89Z"/>
  </g>
</svg>