<?xml version="1.0" encoding="UTF-8"?>
<svg id="Layer_2" data-name="Layer 2" xmlns="http://www.w3.org/2000/svg" xmlns:xlink="http://www.w3.org/1999/xlink" viewBox="0 0 173.34 247.45">
  <defs>
    <style>
      .cls-1 {
        fill: #fff;
      }

      .cls-2, .cls-3, .cls-4, .cls-5, .cls-6, .cls-7, .cls-8, .cls-9, .cls-10, .cls-11, .cls-12, .cls-13, .cls-14 {
        stroke-linejoin: round;
      }

      .cls-2, .cls-3, .cls-4, .cls-5, .cls-6, .cls-8, .cls-9, .cls-12, .cls-15, .cls-13, .cls-16, .cls-14 {
        fill: none;
      }

      .cls-2, .cls-3, .cls-4, .cls-7, .cls-8, .cls-13, .cls-14 {
        stroke-linecap: square;
      }

      .cls-2, .cls-4 {
        stroke-width: .81px;
      }

      .cls-2, .cls-8 {
        stroke: #181216;
      }

      .cls-3, .cls-6 {
        stroke-width: .8px;
      }

      .cls-3, .cls-6, .cls-7, .cls-9, .cls-10, .cls-11, .cls-12 {
        stroke: #f80500;
      }

      .cls-17 {
        fill: #181216;
      }

      .cls-4, .cls-14 {
        stroke: #363636;
      }

      .cls-18 {
        fill: #ef9d7f;
      }

      .cls-19 {
        fill: #363636;
      }

      .cls-5, .cls-6, .cls-9, .cls-10, .cls-11, .cls-12 {
        stroke-linecap: round;
      }

      .cls-5, .cls-13 {
        stroke: #fff;
        stroke-width: .16px;
      }

      .cls-20 {
        fill: #ed8869;
      }

      .cls-21 {
        fill: #eeb2ff;
      }

      .cls-7 {
        stroke-width: .91px;
      }

      .cls-7, .cls-22 {
        fill: #e08bfc;
      }

      .cls-8 {
        stroke-width: .79px;
      }

      .cls-9, .cls-10 {
        stroke-width: .91px;
      }

      .cls-23, .cls-11 {
        fill: #f55;
      }

      .cls-24 {
        fill: #e58e73;
      }

      .cls-10 {
        fill: #fac300;
      }

      .cls-11 {
        stroke-width: .86px;
      }

      .cls-25 {
        fill: #f7f2dc;
      }

      .cls-26 {
        fill: #ab7a5a;
      }

      .cls-27 {
        fill: #307f46;
      }

      .cls-12 {
        stroke-width: .77px;
      }

      .cls-28 {
        clip-path: url(#clippath);
      }

      .cls-29 {
        fill: #ff8cb7;
      }

      .cls-30 {
        fill: #353535;
      }

      .cls-31 {
        fill: #9e6647;
      }

      .cls-32 {
        fill: #b72c2c;
      }

      .cls-16 {
        stroke: #d46cff;
        stroke-miterlimit: 10;
        stroke-width: .42px;
      }

      .cls-14 {
        stroke-width: .33px;
      }

      .cls-33 {
        fill: #d46cff;
      }
    </style>
    <clipPath id="clippath">
      <rect class="cls-15" x="6.28" y="7.65" width="160.53" height="198.84" rx="14.3" ry="14.3"/>
    </clipPath>
  </defs>
  <rect class="cls-22" x="-.12" y=".48" width="173.34" height="246.49" rx="13.2" ry="13.2"/>
  <rect class="cls-27" x="6.28" y="7.65" width="160.53" height="198.84" rx="14.3" ry="14.3"/>
  <g class="cls-28">
    <g>
      <g>
        <g>
          <polygon class="cls-19" points="-1.77 136.21 -14.78 142.03 -6.23 162.62 12.4 155.53 10.74 136.21 -1.77 136.21"/>
          <polyline class="cls-8" points="-2.44 160.75 -4.58 150.84 10.18 143.23"/>
          <polyline class="cls-8" points=".8 141.17 -8.36 149.41 -4.58 161.65"/>
        </g>
        <polygon class="cls-19" points="81.46 86.58 48.86 63.7 -4.4 84.47 1.46 128.77 15.7 137.13 81.46 86.58"/>
        <g>
          <polygon class="cls-24" points="9.43 128.01 -.86 124.37 -1.94 141.27 9.43 143.54 9.43 128.01"/>
          <path class="cls-3" d="M9.25,136.51c-1.56-1.97-3.12-3.94-4.68-5.91-.87-.37-1.75-.73-2.62-1.1"/>
        </g>
        <polygon class="cls-24" points="25.65 162.87 16.48 189.41 30.43 208.69 50.48 189.41 54.85 174.29 25.65 162.87"/>
        <path class="cls-23" d="M86.87,183.74c11.01,23.91,32.64,69.78,32.64,69.78l-152.15-1.72L-14.4,184.78l32.52-.14,12.44,9.07-.13,13.7,3.96-13.17,17.73-10.5"/>
        <path class="cls-18" d="M9.36,108.67l-.11,42.45c0,2.94,1.55,5.67,4.08,7.16l35.87,21.07c2.22,1.3,5.01,1.12,7.03-.47l22.86-17.88c2.58-2.02,4.06-5.14,4-8.42l-.66-43.64-31.77-19.19L9.36,108.67Z"/>
        <path class="cls-19" d="M37.49,94.92c15.48,8.91,44.97,26.7,44.97,26.7l-.08-35.04s-23.71,.23-33.87-.13c-3.66,3.17-7.36,5.31-11.02,8.47Z"/>
        <path class="cls-11" d="M56.92,119.71l-.77,26.98,8.21,.16s2.07-19.46-7.44-27.14Z"/>
        <path class="cls-6" d="M9.66,147.42c2.03-.37,6.18-.83,10.95,.79,1.87,.64,7.66,2.72,11.22,8.87,3.4,5.89,2.55,11.71,2.24,13.38"/>
        <path class="cls-6" d="M67.54,170.04c-.17-1.44-1.18-11.03,4.04-17.52,4.13-5.14,9.52-6.65,11.28-7.07"/>
        <path class="cls-17" d="M63.36,86.2s-36.72,29.15-55.1,44.7c.5-14.34,1.55-45.11,1.55-45.11l53.56,.41Z"/>
        <polygon class="cls-17" points="41.26 121 21.53 119.85 22.56 113.01 41.8 117.4 41.26 121"/>
        <polygon class="cls-17" points="64 122.34 83.72 121.18 82.7 114.34 63.46 118.73 64 122.34"/>
        <path class="cls-32" d="M59.14,155.39c-4.55-3.11-11.74,2.05-12.64,8.19-.9,6.14,8.93,6.36,8.64,5.36-.46-1.57,8.55-10.44,4-13.55Z"/>
        <g>
          <g>
            <path class="cls-20" d="M44.54,189.52c-.52-2.09-.68-9.49-.68-9.49l-.15-19.69,20.1,2.64,.26,13.1,4.81-3.76,2.18,3.42-6.73,6.64,.37,6.47s-.33,.45-.44,.57c-6.57,.03-13.15,.07-19.72,.1Z"/>
            <path class="cls-12" d="M47.41,173.67c.11-4.14,.23-8.29,.34-12.43"/>
            <path class="cls-12" d="M59.67,175.18c-.19-4.15-.38-8.3-.57-12.46"/>
            <path class="cls-12" d="M53.61,175.55c.11-4.4,.22-8.79,.33-13.19"/>
          </g>
          <path class="cls-32" d="M42.05,188.03s7.01,59.33,10.52,88.99l39.39-23.21c-8.31-22.76-24.93-68.29-24.93-68.29l-24.99,2.51Z"/>
        </g>
        <g>
          <path class="cls-30" d="M33.15,127.74c-1.69,1.65-.94,4.33-.75,5.02,.21,.77,.81,2.92,2.58,3.39,1.25,.32,2.31-.39,2.37-.43,1.73-1.19,1.38-3.95,1.26-4.9-.15-1.23-.42-3.39-2.02-4.02-1.22-.48-2.65,.16-3.45,.94Z"/>
          <path class="cls-19" d="M26.97,131.02c1.12-.87,1.53-2.05,5.62-3.4s9.02,1.96,9.02,1.96l.57-.93s-4.4-3.15-8.73-2.48c-4.33,.68-6.28,2.87-7.31,3.71l.83,1.13Z"/>
          <polygon class="cls-19" points="25.47 127.65 26.13 129.89 27.88 128.77 25.47 127.65"/>
        </g>
        <g>
          <path class="cls-30" d="M75.77,128.78c1.69,1.65,.94,4.33,.75,5.02-.21,.77-.81,2.92-2.58,3.39-1.25,.32-2.31-.39-2.37-.43-1.73-1.19-1.38-3.95-1.26-4.9,.15-1.23,.42-3.39,2.02-4.02,1.22-.48,2.65,.16,3.45,.94Z"/>
          <path class="cls-19" d="M81.96,132.07c-1.12-.87-1.53-2.05-5.62-3.4s-9.02,1.96-9.02,1.96l-.57-.93s4.4-3.15,8.73-2.48c4.33,.68,6.28,2.87,7.31,3.71l-.83,1.13Z"/>
          <polygon class="cls-19" points="83.46 128.7 82.79 130.93 81.05 129.82 83.46 128.7"/>
        </g>
        <g>
          <path class="cls-17" d="M63.39,86.29s-36.75,29.17-55.14,44.73c.46-11.09,.84-22.27,1.15-33.56,.11-4.09,.21-8.17,.3-12.24,17.89,.36,35.79,.72,53.68,1.08Z"/>
          <line class="cls-2" x1="-3.83" y1="84.89" x2="82" y2="86.95"/>
          <line class="cls-4" x1="25.84" y1="82.4" x2="9.24" y2="129.23"/>
          <line class="cls-4" x1="45.8" y1="84.46" x2="9.51" y2="128.48"/>
        </g>
      </g>
      <polygon class="cls-25" points="5.07 -1.96 101.97 5.37 97.49 43.49 73.79 56.11 75.64 74.09 58.72 58.08 -.12 50.92 5.07 -1.96"/>
      <g>
        <path class="cls-22" d="M108.89,151.13s20.5,23.2,21.65,33.89c1.15,10.69-.16,8.9-.16,8.9l32.51-28.81-14.54-20.44-39.45,6.45Z"/>
        <polygon class="cls-21" points="86.65 80.13 91.12 155.15 164.8 154.13 161.91 92.03 104.2 76.22 86.65 80.13"/>
        <polygon class="cls-33" points="103.89 51.25 82.64 67.07 71.97 93.78 91.81 104.72 101.24 92.47 100.26 104.38 148.98 111.83 103.89 51.25"/>
        <polygon class="cls-29" points="103.9 51.25 121.66 45.03 151.22 110.58 145.03 112.77 103.9 51.25"/>
        <polygon class="cls-22" points="140.26 113.85 154.53 107.82 157.79 129.78 144.97 134.67 140.26 113.85"/>
        <polygon class="cls-10" points="87.68 106.47 76.66 129.14 89.19 131.94 87.68 106.47"/>
        <path class="cls-21" d="M130.38,193.93s-11.4,22.6-13.32,36.26c-1.93,13.66-2.71,59.44-2.71,59.44l101.27-22.92-40.84-115.59-44.4,42.81Z"/>
        <path class="cls-9" d="M144.13,126.04s.11-4.99,2.47-8c2.35-3.01,5.01-2.85,5.01-2.85"/>
        <polygon class="cls-33" points="121.66 45.03 150.7 109.44 154.53 107.82 157.79 129.78 144.97 134.67 126.44 176.5 142.57 180.01 145.28 173.05 145.47 180.89 170.43 178.23 170.72 168.87 177.01 176.74 203.88 163.93 178.57 101.83 169.39 45.03 121.66 45.03"/>
        <path class="cls-32" d="M93.98,132.19l19.75-8.86-3.25,20.25c-.09,.58-.77,.87-1.25,.52l-15.35-10.88c-.38-.27-.32-.85,.1-1.04Z"/>
        <path class="cls-9" d="M141.68,120.15s-12.38-.99-19.75,10.91c-7.37,11.9-1.28,23.68-1.28,23.68"/>
        <path class="cls-22" d="M144.62,194.23s11.08-1.54,15.69-.18,10.06,10.06,10.06,10.06l-31.53,71.12-30.84-15.06,36.62-65.95Z"/>
        <g>
          <path class="cls-22" d="M137.19,230.48s-4.74,10.13-8.39,13.25c-3.65,3.13-13.92,2.95-13.92,2.95l-30.17-64.77-22.86-26.29,19.7-17.92,12.25,21.1,2.6-8.95,5.23,2.72-4.7,12.62,2.65,5.43,37.6,59.84Z"/>
          <line class="cls-7" x1="78.12" y1="142.23" x2="85.89" y2="154.11"/>
          <line class="cls-7" x1="72.01" y1="147.59" x2="81.61" y2="160"/>
          <line class="cls-7" x1="66.36" y1="152.84" x2="77.06" y2="163.33"/>
        </g>
      </g>
      <g>
        <polygon class="cls-26" points="23.16 22.51 45.78 24.17 46.16 46.4 19.45 44.39 23.16 22.51"/>
        <g>
          <polygon class="cls-31" points="45.93 33.18 49.97 32.66 49.56 38.91 46.02 38.6 45.93 33.18"/>
          <path class="cls-13" d="M45.99,36.56s.64-1.11,1.31-1.66,1.58-.82,1.58-.82"/>
        </g>
        <g>
          <polygon class="cls-31" points="21.68 31.3 17.79 30.08 17.11 36.31 20.77 36.63 21.68 31.3"/>
          <path class="cls-13" d="M21.03,34.62s-.43-1.21-1-1.87-1.41-1.09-1.41-1.09"/>
        </g>
        <path class="cls-19" d="M45.93,33.18l2.87-.37,1.98-12.74s-20.85-5.78-21.67-6.13-1.55-.8-2.1-1.1c-.56-.3-1.76-1.14-1.76-1.14l1.36,3.13-7.31,5.25,.37,10.59,2.01,.63,1.48-8.79,22.62,1.65,.15,9.01Z"/>
        <polygon class="cls-19" points="43.44 30.75 43.99 29.06 39.58 28.67 38.85 29.66 43.44 30.75"/>
        <polygon class="cls-19" points="23.79 28.38 23.66 26.61 28.03 27.27 28.51 28.41 23.79 28.38"/>
        <polygon class="cls-5" points="31 29.31 34.24 29.6 33.56 37.3 28.03 37.05 28.92 34.26 30.54 34.1 31 29.31"/>
        <path class="cls-14" d="M23.57,33.22s.71-1.17,2.15-.93,1.85,1.28,1.85,1.28"/>
        <path class="cls-14" d="M38.73,34.55s.71-1.17,2.15-.93,1.85,1.28,1.85,1.28"/>
        <polygon class="cls-19" points="20.09 39.35 22.25 42.67 42.68 44.35 46.16 40.39 46.43 46.65 35.51 46.02 35.4 47.29 30.67 46.87 30.22 45.63 19.23 44.52 20.09 39.35"/>
        <path class="cls-32" d="M30.93,40.31l3.12-.03s-.21,1.42-1.52,1.37-1.6-1.34-1.6-1.34Z"/>
        <path class="cls-5" d="M45.92,37.31s-2.69-1.53-5.49,.83-1.7,5.88-1.7,5.88"/>
        <path class="cls-5" d="M20.95,35.54s2.29,.8,3.71,2.65c1.42,1.85,1.07,4.76,1.07,4.76"/>
        <polygon class="cls-19" points="24.76 38.38 29.36 36.01 32.31 36.8 35.65 36.32 39.46 39.68 33.07 39.58 32.17 38.4 31.03 39.51 24.76 38.38"/>
      </g>
      <g>
        <path class="cls-21" d="M93.63,24.73s-4.73,9.47-12.06,15.1c-7.33,5.63-19.95,8.98-19.95,8.98l-7.38-11.04s6.49-2.2,12.72-7.65c4.02-3.52,8.18-14.41,8.18-14.41l18.49,9.02Z"/>
        <path class="cls-25" d="M70.85,32.72c3.26-2.3,6.1-4.29,7.18-3.45,1.19,.92,.33,5.25-2.36,7.57-3.45,2.98-9.37,2.21-9.86,.69-.33-1.03,1.82-2.54,5.04-4.81Z"/>
        <path class="cls-16" d="M89.6,25.76l-13.33-6.9s-4.73,10.01-7.58,12.24c-2.86,2.22-12.3,7.45-12.3,7.45l6.16,8.06s8.94-3.19,15.37-7.3c6.43-4.11,11.69-13.55,11.69-13.55Z"/>
      </g>
    </g>
  </g>
  <g>
    <path class="cls-1" d="M16.12,231.78l-4.24-6.31v6.31H7.31v-14.56h4.57v6.13l4.17-6.13h5.16l-5.02,6.97,5.35,7.59h-5.43Z"/>
    <path class="cls-1" d="M35.11,221.44c.75,.89,1.12,2.1,1.12,3.62v6.73h-4.55v-6.15c0-.55-.15-.98-.44-1.31-.29-.32-.69-.48-1.18-.48s-.9,.16-1.19,.48c-.29,.32-.43,.76-.43,1.31v6.15h-4.57v-15.22h4.57v5.39c.36-.55,.83-.99,1.43-1.34,.6-.34,1.31-.52,2.13-.52,1.33,0,2.37,.45,3.12,1.34Z"/>
    <path class="cls-1" d="M39.24,222.81c.42-.9,.99-1.58,1.72-2.06s1.54-.71,2.45-.71c.75,0,1.41,.15,1.95,.46,.55,.31,.97,.73,1.25,1.26v-1.58h4.55v11.6h-4.55v-1.58c-.29,.54-.71,.96-1.25,1.27-.55,.31-1.2,.46-1.95,.46-.9,0-1.72-.24-2.45-.71s-1.3-1.16-1.72-2.06c-.42-.9-.63-1.96-.63-3.18s.21-2.28,.63-3.18Zm6.9,1.74c-.32-.34-.72-.51-1.21-.51s-.9,.17-1.21,.51c-.32,.34-.47,.82-.47,1.44s.16,1.1,.47,1.44c.32,.34,.72,.52,1.21,.52s.9-.17,1.21-.52c.31-.34,.47-.82,.47-1.44s-.16-1.1-.47-1.44Z"/>
    <path class="cls-1" d="M60.06,220.5c.54-.31,1.19-.46,1.94-.46,.91,0,1.72,.24,2.45,.71s1.3,1.16,1.72,2.06,.63,1.96,.63,3.18-.21,2.28-.63,3.18-.99,1.58-1.72,2.06-1.54,.71-2.45,.71c-.75,0-1.4-.15-1.94-.46-.54-.31-.96-.73-1.24-1.27v1.58h-4.57v-15.22h4.57v5.2c.29-.53,.7-.96,1.24-1.26Zm1.63,4.04c-.32-.34-.72-.51-1.21-.51s-.9,.17-1.21,.51c-.32,.34-.47,.82-.47,1.44s.16,1.1,.47,1.44c.32,.34,.72,.52,1.21,.52s.9-.17,1.21-.52c.32-.34,.47-.82,.47-1.44s-.16-1.1-.47-1.44Z"/>
    <path class="cls-1" d="M69.27,222.81c.42-.9,.99-1.58,1.72-2.06s1.54-.71,2.45-.71c.75,0,1.41,.15,1.95,.46,.55,.31,.97,.73,1.25,1.26v-1.58h4.55v11.6h-4.55v-1.58c-.29,.54-.71,.96-1.25,1.27-.55,.31-1.2,.46-1.95,.46-.9,0-1.72-.24-2.45-.71s-1.3-1.16-1.72-2.06c-.42-.9-.63-1.96-.63-3.18s.21-2.28,.63-3.18Zm6.9,1.74c-.32-.34-.72-.51-1.21-.51s-.9,.17-1.21,.51c-.32,.34-.47,.82-.47,1.44s.16,1.1,.47,1.44c.32,.34,.72,.52,1.21,.52s.9-.17,1.21-.52c.31-.34,.47-.82,.47-1.44s-.16-1.1-.47-1.44Z"/>
    <path class="cls-1" d="M90.55,220.71c.67-.4,1.37-.61,2.1-.61v4.88h-1.3c-.86,0-1.5,.15-1.9,.45-.4,.3-.61,.84-.61,1.6v4.75h-4.57v-11.6h4.57v2.14c.47-.67,1.04-1.21,1.71-1.62Z"/>
    <path class="cls-1" d="M99.44,222.81c.42-.9,.99-1.58,1.72-2.06s1.54-.71,2.45-.71c.75,0,1.41,.15,1.95,.46,.55,.31,.97,.73,1.25,1.26v-1.58h4.55v11.6h-4.55v-1.58c-.29,.54-.71,.96-1.25,1.27-.55,.31-1.2,.46-1.95,.46-.9,0-1.72-.24-2.45-.71s-1.3-1.16-1.72-2.06c-.42-.9-.63-1.96-.63-3.18s.21-2.28,.63-3.18Zm6.9,1.74c-.32-.34-.72-.51-1.21-.51s-.9,.17-1.21,.51c-.32,.34-.47,.82-.47,1.44s.16,1.1,.47,1.44c.32,.34,.72,.52,1.21,.52s.9-.17,1.21-.52c.31-.34,.47-.82,.47-1.44s-.16-1.1-.47-1.44Z"/>
    <path class="cls-1" d="M125.69,221.44c.75,.89,1.12,2.1,1.12,3.62v6.73h-4.55v-6.15c0-.55-.15-.98-.44-1.31-.29-.32-.69-.48-1.18-.48s-.9,.16-1.19,.48c-.29,.32-.43,.76-.43,1.31v6.15h-4.57v-11.6h4.57v1.77c.36-.55,.83-.99,1.43-1.34,.6-.34,1.31-.52,2.13-.52,1.33,0,2.37,.45,3.12,1.34Z"/>
    <path class="cls-1" d="M135.94,220.5c.55,.31,.97,.73,1.25,1.26v-1.58h4.55v11.39c0,1.08-.2,2.07-.6,2.96-.4,.89-1.04,1.6-1.92,2.14-.88,.54-2.02,.8-3.4,.8-1.87,0-3.34-.44-4.43-1.31s-1.71-2.05-1.86-3.55h4.48c.12,.6,.62,.9,1.48,.9,.54,0,.95-.14,1.25-.41,.3-.27,.45-.79,.45-1.54v-1.38c-.29,.54-.71,.96-1.25,1.27-.55,.31-1.2,.46-1.95,.46-.9,0-1.72-.24-2.45-.71s-1.3-1.16-1.72-2.06c-.42-.9-.63-1.96-.63-3.18s.21-2.28,.63-3.18c.42-.9,.99-1.58,1.72-2.06s1.54-.71,2.45-.71c.75,0,1.41,.15,1.95,.46Zm.78,4.04c-.32-.34-.72-.51-1.21-.51s-.9,.17-1.21,.51c-.32,.34-.47,.82-.47,1.44s.16,1.1,.47,1.44c.32,.34,.72,.52,1.21,.52s.9-.17,1.21-.52c.31-.34,.47-.82,.47-1.44s-.16-1.1-.47-1.44Z"/>
    <path class="cls-1" d="M145.22,218.62c-.48-.42-.72-.96-.72-1.6s.24-1.2,.72-1.63c.48-.43,1.12-.65,1.91-.65s1.41,.21,1.89,.65c.48,.43,.72,.98,.72,1.63s-.24,1.18-.72,1.6c-.48,.43-1.11,.64-1.89,.64s-1.43-.21-1.91-.64Zm4.18,1.56v11.6h-4.57v-11.6h4.57Z"/>
    <path class="cls-1" d="M163.72,221.44c.75,.89,1.12,2.1,1.12,3.62v6.73h-4.55v-6.15c0-.55-.15-.98-.44-1.31-.29-.32-.69-.48-1.18-.48s-.9,.16-1.19,.48c-.29,.32-.43,.76-.43,1.31v6.15h-4.57v-11.6h4.57v1.77c.36-.55,.83-.99,1.43-1.34,.6-.34,1.31-.52,2.13-.52,1.33,0,2.37,.45,3.12,1.34Z"/>
  </g>
</svg>