<?xml version="1.0" encoding="UTF-8"?>
<svg id="Layer_2" data-name="Layer 2" xmlns="http://www.w3.org/2000/svg" xmlns:xlink="http://www.w3.org/1999/xlink" viewBox="0 0 173.34 247.45">
  <defs>
    <style>
      .cls-1 {
        fill: #fff;
      }

      .cls-2 {
        fill: #181216;
      }

      .cls-3 {
        fill: #ef9d7f;
      }

      .cls-4 {
        fill: #363636;
      }

      .cls-5 {
        fill: #ed8869;
      }

      .cls-6 {
        fill: #eeb2ff;
      }

      .cls-7 {
        fill: #fac300;
      }

      .cls-8 {
        fill: #f55;
      }

      .cls-9 {
        fill: #e58e73;
      }

      .cls-10 {
        fill: #f7f2dc;
      }

      .cls-11 {
        fill: #f80500;
      }

      .cls-12 {
        fill: #ab7a5a;
      }

      .cls-13 {
        fill: #307f46;
      }

      .cls-14 {
        clip-path: url(#clippath);
      }

      .cls-15 {
        fill: #ff8cb7;
      }

      .cls-16 {
        fill: none;
      }

      .cls-17 {
        fill: #353535;
      }

      .cls-18 {
        fill: #9e6647;
      }

      .cls-19 {
        fill: #b72c2c;
      }

      .cls-20 {
        fill: #e08bfc;
      }

      .cls-21 {
        fill: #d46cff;
      }
    </style>
    <clipPath id="clippath">
      <rect class="cls-16" x="6.41" y="8.13" width="160.53" height="198.84" rx="14.3" ry="14.3"/>
    </clipPath>
  </defs>
  <rect class="cls-20" y=".96" width="173.34" height="246.49" rx="13.2" ry="13.2"/>
  <g>
    <path class="cls-1" d="M18.78,218.75v3.13h-4.06v12.9h-3.73v-12.9H6.93v-3.13h11.85Z"/>
    <path class="cls-1" d="M32.6,223.35c.84,.97,1.27,2.29,1.27,3.98v7.44h-3.71v-6.92c0-.85-.21-1.51-.63-1.99s-.99-.71-1.7-.71-1.28,.24-1.7,.71c-.42,.47-.63,1.13-.63,1.99v6.92h-3.73v-16.89h3.73v5.87c.38-.56,.9-1.01,1.55-1.35,.66-.33,1.39-.5,2.21-.5,1.4,0,2.52,.48,3.36,1.45Z"/>
    <path class="cls-1" d="M48.97,229.35h-8.45c.06,.79,.3,1.4,.73,1.81,.43,.42,.96,.63,1.58,.63,.93,0,1.58-.41,1.94-1.23h3.97c-.2,.84-.57,1.59-1.1,2.26s-1.2,1.19-2,1.58c-.8,.38-1.69,.57-2.68,.57-1.19,0-2.25-.27-3.19-.8-.93-.53-1.66-1.29-2.18-2.28-.52-.99-.79-2.15-.79-3.47s.26-2.48,.77-3.47c.52-.99,1.24-1.75,2.17-2.28,.93-.53,2-.8,3.21-.8s2.23,.26,3.14,.78c.92,.52,1.63,1.25,2.15,2.21s.78,2.08,.78,3.36c0,.37-.02,.75-.07,1.14Zm-3.75-2.17c0-.67-.22-1.2-.65-1.6s-.98-.59-1.64-.59-1.15,.19-1.58,.57c-.43,.38-.69,.92-.8,1.62h4.67Z"/>
    <path class="cls-1" d="M65.62,234.78l-3.19-6.05h-.9v6.05h-3.73v-16.02h6.26c1.21,0,2.24,.22,3.09,.66,.85,.44,1.49,1.05,1.91,1.81s.63,1.62,.63,2.57c0,1.07-.29,2.02-.86,2.85-.58,.84-1.42,1.43-2.54,1.78l3.54,6.35h-4.21Zm-4.08-8.81h2.31c.68,0,1.2-.17,1.54-.52,.34-.35,.51-.84,.51-1.48s-.17-1.09-.51-1.44c-.34-.35-.85-.53-1.54-.53h-2.31v3.97Z"/>
    <path class="cls-1" d="M85.15,222.04v12.74h-3.73v-1.73c-.38,.56-.89,1.02-1.54,1.36-.65,.34-1.36,.51-2.15,.51-.93,0-1.75-.22-2.47-.65s-1.27-1.06-1.66-1.88c-.39-.82-.59-1.79-.59-2.9v-7.44h3.71v6.92c0,.85,.21,1.51,.63,1.99,.42,.47,.99,.71,1.7,.71s1.3-.24,1.72-.71,.63-1.13,.63-1.99v-6.92h3.73Z"/>
    <path class="cls-1" d="M108.08,223.34c.89,.96,1.34,2.29,1.34,4v7.44h-3.71v-6.92c0-.82-.21-1.46-.62-1.91-.42-.45-.99-.67-1.71-.67s-1.3,.22-1.71,.67c-.42,.45-.62,1.08-.62,1.91v6.92h-3.71v-6.92c0-.82-.21-1.46-.62-1.91-.41-.45-.99-.67-1.71-.67s-1.3,.22-1.71,.67c-.41,.45-.62,1.08-.62,1.91v6.92h-3.73v-12.74h3.73v1.6c.38-.53,.87-.96,1.48-1.27s1.3-.47,2.07-.47c.92,0,1.73,.21,2.46,.62,.72,.41,1.28,1,1.69,1.76,.42-.7,1-1.27,1.72-1.71,.73-.44,1.52-.66,2.38-.66,1.51,0,2.72,.48,3.61,1.44Z"/>
    <path class="cls-1" d="M115.46,234.16c-.95-.53-1.7-1.29-2.25-2.28-.55-.99-.82-2.15-.82-3.47s.28-2.46,.83-3.46c.55-1,1.31-1.76,2.27-2.29,.96-.53,2.04-.8,3.23-.8s2.27,.27,3.23,.8c.96,.53,1.72,1.3,2.27,2.29,.55,1,.83,2.15,.83,3.46s-.28,2.46-.84,3.46-1.32,1.76-2.29,2.29c-.97,.53-2.05,.8-3.24,.8s-2.27-.27-3.22-.8Zm5.04-3.4c.5-.55,.75-1.33,.75-2.35s-.24-1.8-.73-2.35-1.09-.82-1.8-.82-1.33,.27-1.81,.81c-.48,.54-.72,1.33-.72,2.36s.24,1.8,.71,2.35,1.07,.82,1.78,.82,1.32-.27,1.82-.82Z"/>
    <path class="cls-1" d="M140.15,222.04v12.74h-3.73v-1.73c-.38,.56-.89,1.02-1.54,1.36-.65,.34-1.36,.51-2.15,.51-.93,0-1.75-.22-2.47-.65s-1.27-1.06-1.66-1.88c-.39-.82-.59-1.79-.59-2.9v-7.44h3.71v6.92c0,.85,.21,1.51,.63,1.99,.42,.47,.99,.71,1.7,.71s1.3-.24,1.72-.71,.63-1.13,.63-1.99v-6.92h3.73Z"/>
    <path class="cls-1" d="M149.3,222.51c.65-.4,1.38-.6,2.18-.6v4.13h-1.03c-.93,0-1.63,.21-2.09,.63-.47,.42-.7,1.15-.7,2.2v5.91h-3.73v-12.74h3.73v2.12c.44-.7,.98-1.25,1.64-1.66Z"/>
    <path class="cls-1" d="M156.48,234.39c-.83-.38-1.48-.9-1.96-1.56-.48-.66-.75-1.4-.81-2.23h3.69c.04,.44,.24,.8,.59,1.07,.35,.27,.78,.41,1.29,.41,.47,0,.83-.09,1.08-.29,.25-.19,.38-.44,.38-.74,0-.37-.18-.64-.55-.81-.36-.17-.95-.37-1.77-.58-.87-.21-1.6-.44-2.18-.67-.58-.24-1.08-.61-1.51-1.12-.42-.51-.63-1.2-.63-2.07,0-.73,.19-1.4,.58-2,.38-.6,.95-1.08,1.7-1.43,.75-.35,1.64-.53,2.67-.53,1.53,0,2.73,.4,3.61,1.19,.88,.79,1.39,1.84,1.52,3.15h-3.45c-.06-.44-.24-.79-.56-1.05-.31-.26-.72-.39-1.23-.39-.44,0-.77,.09-1,.26-.23,.18-.35,.42-.35,.72,0,.37,.19,.64,.56,.82s.95,.37,1.74,.55c.9,.24,1.64,.48,2.21,.72,.57,.24,1.07,.62,1.49,1.14,.43,.53,.65,1.23,.67,2.11,0,.75-.2,1.41-.6,2-.4,.59-.98,1.05-1.72,1.38-.75,.33-1.62,.5-2.61,.5-1.06,0-2.01-.19-2.84-.57Z"/>
  </g>
  <rect class="cls-13" x="6.41" y="8.13" width="160.53" height="198.84" rx="14.3" ry="14.3"/>
  <g class="cls-14">
    <g>
      <g>
        <g>
          <polygon class="cls-4" points="-1.65 136.69 -14.66 142.51 -6.11 163.1 12.52 156.01 10.86 136.69 -1.65 136.69"/>
          <path class="cls-2" d="M-2.62,161.7l-2.23-10.3c-.04-.17,.05-.35,.21-.44l15.11-7.79,.36,.7-14.84,7.65,2.17,10.01-.77,.17Z"/>
          <path class="cls-2" d="M-4.72,162.62l-3.9-12.62c-.05-.15,0-.31,.11-.41L.95,141.09l.53,.59-9.27,8.34,3.82,12.38-.75,.23Z"/>
        </g>
        <polygon class="cls-4" points="81.58 87.06 48.98 64.18 -4.28 84.95 1.58 129.25 15.82 137.61 81.58 87.06"/>
        <g>
          <polygon class="cls-9" points="9.55 128.49 -.74 124.85 -1.82 141.75 9.55 144.02 9.55 128.49"/>
          <path class="cls-11" d="M9.3,137.55l-4.86-6.14-2.9-1.21,.31-.74,3,1.25c.06,.03,.12,.07,.16,.12l4.92,6.22-.63,.5Z"/>
        </g>
        <polygon class="cls-9" points="25.77 163.35 16.6 189.89 30.55 209.17 50.6 189.89 54.98 174.77 25.77 163.35"/>
        <path class="cls-8" d="M86.99,184.22c11.01,23.91,32.64,69.78,32.64,69.78l-152.15-1.72L-14.28,185.26l32.52-.14,12.44,9.07-.13,13.7,3.96-13.17,17.73-10.5"/>
        <path class="cls-3" d="M9.48,109.15l-.11,42.45c0,2.94,1.55,5.67,4.08,7.16l35.87,21.07c2.22,1.3,5.01,1.12,7.03-.47l22.86-17.88c2.58-2.02,4.06-5.14,4-8.42l-.66-43.64-31.77-19.19L9.48,109.15Z"/>
        <path class="cls-4" d="M37.61,95.4c15.48,8.91,44.97,26.7,44.97,26.7l-.08-35.04s-23.71,.23-33.87-.13c-3.66,3.17-7.36,5.31-11.02,8.47Z"/>
        <g>
          <path class="cls-8" d="M57.04,120.19c-.26,8.99-.77,26.98-.77,26.98l8.21,.16s2.07-19.46-7.44-27.14Z"/>
          <path class="cls-11" d="M64.48,147.76h0l-8.21-.16c-.11,0-.22-.05-.3-.13-.08-.08-.12-.19-.12-.31l.77-26.98c0-.16,.1-.31,.25-.38,.15-.07,.32-.05,.45,.06,9.57,7.74,7.68,26.72,7.59,27.52-.02,.22-.21,.38-.43,.38Zm-7.77-1.01l7.38,.14c.21-2.7,1.11-18.62-6.64-25.79l-.74,25.65Z"/>
        </g>
        <path class="cls-11" d="M34.19,171.34s-.05,0-.07,0c-.22-.04-.36-.25-.32-.47,.39-2.12,.96-7.64-2.2-13.1-2.35-4.08-6.05-7-11-8.69-4.31-1.47-8.22-1.24-10.75-.78-.22,.04-.43-.11-.47-.33s.11-.43,.33-.47c2.62-.47,6.68-.72,11.15,.81,5.13,1.75,8.98,4.8,11.43,9.05,3.17,5.49,2.79,10.91,2.29,13.65-.04,.19-.21,.33-.4,.33Z"/>
        <path class="cls-11" d="M67.66,170.92c-.2,0-.38-.15-.4-.36-.3-2.6-.89-11.58,4.12-17.82,3.88-4.82,8.87-6.58,11.5-7.21,.22-.06,.43,.08,.48,.3,.05,.22-.08,.43-.3,.48-2.53,.6-7.34,2.29-11.06,6.93-4.82,5.99-4.24,14.7-3.95,17.22,.03,.22-.13,.42-.35,.45-.02,0-.03,0-.05,0Z"/>
        <path class="cls-2" d="M63.48,86.68s-36.72,29.15-55.1,44.7c.5-14.34,1.55-45.11,1.55-45.11l53.56,.41Z"/>
        <polygon class="cls-2" points="41.38 121.48 21.65 120.33 22.68 113.49 41.92 117.88 41.38 121.48"/>
        <polygon class="cls-2" points="64.12 122.82 83.85 121.66 82.82 114.82 63.58 119.21 64.12 122.82"/>
        <path class="cls-19" d="M59.26,155.87c-4.55-3.11-11.74,2.05-12.64,8.19-.9,6.14,8.93,6.36,8.64,5.36-.46-1.57,8.55-10.44,4-13.55Z"/>
        <g>
          <g>
            <path class="cls-5" d="M44.66,190c-.52-2.09-.68-9.49-.68-9.49l-.15-19.69,20.1,2.64,.26,13.1,4.81-3.76,2.18,3.42-6.73,6.64,.37,6.47s-.33,.45-.44,.57c-6.57,.03-13.15,.07-19.72,.1Z"/>
            <path class="cls-11" d="M47.53,174.53h-.01c-.21,0-.38-.18-.38-.4l.34-12.43c0-.21,.15-.36,.4-.38,.21,0,.38,.18,.38,.4l-.34,12.43c0,.21-.18,.38-.39,.38Z"/>
            <path class="cls-11" d="M59.79,176.05c-.21,0-.38-.16-.39-.37l-.57-12.46c0-.21,.16-.39,.37-.4,.2,0,.39,.16,.4,.37l.57,12.46c0,.21-.16,.39-.37,.4h-.02Z"/>
            <path class="cls-11" d="M53.73,176.41h0c-.21,0-.38-.18-.38-.4l.33-13.19c0-.21,.2-.42,.4-.38,.21,0,.38,.18,.38,.4l-.33,13.19c0,.21-.18,.38-.39,.38Z"/>
          </g>
          <path class="cls-19" d="M42.17,188.51s7.01,59.33,10.52,88.99l39.39-23.21c-8.31-22.76-24.93-68.29-24.93-68.29l-24.99,2.51Z"/>
        </g>
        <g>
          <path class="cls-17" d="M33.27,128.22c-1.69,1.65-.94,4.33-.75,5.02,.21,.77,.81,2.92,2.58,3.39,1.25,.32,2.31-.39,2.37-.43,1.73-1.19,1.38-3.95,1.26-4.9-.15-1.23-.42-3.39-2.02-4.02-1.22-.48-2.65,.16-3.45,.94Z"/>
          <path class="cls-4" d="M27.09,131.5c1.12-.87,1.53-2.05,5.62-3.4s9.02,1.96,9.02,1.96l.57-.93s-4.4-3.15-8.73-2.48c-4.33,.68-6.28,2.87-7.31,3.71l.83,1.13Z"/>
          <polygon class="cls-4" points="25.59 128.13 26.25 130.37 28 129.25 25.59 128.13"/>
        </g>
        <g>
          <path class="cls-17" d="M75.89,129.26c1.69,1.65,.94,4.33,.75,5.02-.21,.77-.81,2.92-2.58,3.39-1.25,.32-2.31-.39-2.37-.43-1.73-1.19-1.38-3.95-1.26-4.9,.15-1.23,.42-3.39,2.02-4.02,1.22-.48,2.65,.16,3.45,.94Z"/>
          <path class="cls-4" d="M82.08,132.55c-1.12-.87-1.53-2.05-5.62-3.4-4.08-1.34-9.02,1.96-9.02,1.96l-.57-.93s4.4-3.15,8.73-2.48c4.33,.68,6.28,2.87,7.31,3.71l-.83,1.13Z"/>
          <polygon class="cls-4" points="83.58 129.18 82.91 131.41 81.17 130.3 83.58 129.18"/>
        </g>
        <g>
          <path class="cls-2" d="M63.51,86.77s-36.75,29.17-55.14,44.73c.46-11.09,.84-22.27,1.15-33.56,.11-4.09,.21-8.17,.3-12.24,17.89,.36,35.79,.72,53.68,1.08Z"/>
          <rect class="cls-2" x="38.8" y="43.07" width=".8" height="86.66" transform="translate(-48.11 123.53) rotate(-88.63)"/>
          <rect class="cls-4" x="-7.59" y="105.89" width="50.5" height=".81" transform="translate(-88.42 87.4) rotate(-70.47)"/>
          <polygon class="cls-4" points="9.68 129.52 9.06 129.01 9.32 128.7 45.86 84.37 46.49 84.88 46.23 85.19 9.68 129.52"/>
        </g>
      </g>
      <polygon class="cls-10" points="5.2 -1.48 102.09 5.85 97.61 43.97 73.92 56.59 75.76 74.57 58.84 58.56 0 51.4 5.2 -1.48"/>
      <g>
        <path class="cls-20" d="M109.01,151.61s20.5,23.2,21.65,33.89c1.15,10.69-.16,8.9-.16,8.9l32.51-28.81-14.54-20.44-39.45,6.45Z"/>
        <polygon class="cls-6" points="86.77 80.61 91.24 155.63 164.93 154.61 162.04 92.51 104.32 76.7 86.77 80.61"/>
        <polygon class="cls-21" points="104.01 51.73 82.76 67.55 72.09 94.26 91.93 105.2 101.36 92.95 100.38 104.86 149.11 112.31 104.01 51.73"/>
        <polygon class="cls-15" points="104.02 51.73 121.79 45.51 151.34 111.06 145.15 113.25 104.02 51.73"/>
        <polygon class="cls-20" points="140.38 114.33 154.65 108.3 157.91 130.26 145.09 135.15 140.38 114.33"/>
        <g>
          <polygon class="cls-7" points="87.8 106.95 76.78 129.62 89.32 132.42 87.8 106.95"/>
          <path class="cls-11" d="M89.32,132.88s-.07,0-.1-.01l-12.53-2.81c-.14-.03-.25-.12-.31-.25-.06-.12-.06-.27,0-.4l11.02-22.66c.09-.19,.29-.29,.5-.25,.2,.04,.35,.21,.36,.42l1.52,25.47c0,.14-.05,.28-.16,.37-.08,.07-.19,.11-.29,.11Zm-11.88-3.58l11.39,2.55-1.38-23.14-10.01,20.59Z"/>
        </g>
        <path class="cls-6" d="M130.5,194.41s-11.4,22.6-13.32,36.26c-1.93,13.66-2.71,59.44-2.71,59.44l101.27-22.92-40.84-115.59-44.4,42.81Z"/>
        <path class="cls-11" d="M144.25,126.98h-.01c-.25,0-.45-.21-.44-.46,0-.21,.14-5.17,2.56-8.27,2.47-3.16,5.27-3.03,5.39-3.03,.25,.02,.44,.23,.43,.48-.02,.25-.21,.42-.48,.43-.1-.02-2.46-.09-4.62,2.68-2.23,2.86-2.37,7.68-2.37,7.73,0,.25-.21,.44-.45,.44Z"/>
        <polygon class="cls-21" points="121.79 45.51 150.82 109.92 154.65 108.3 157.91 130.26 145.09 135.15 126.56 176.98 142.69 180.49 145.4 173.53 145.59 181.37 170.56 178.71 170.84 169.35 177.13 177.22 204 164.41 178.69 102.31 169.51 45.51 121.79 45.51"/>
        <path class="cls-19" d="M94.1,132.67l19.75-8.86-3.25,20.25c-.09,.58-.77,.87-1.25,.52l-15.35-10.88c-.38-.27-.32-.85,.1-1.04Z"/>
        <path class="cls-11" d="M120.77,155.68c-.16,0-.32-.09-.4-.25-.06-.12-6.12-12.14,1.3-24.13,7.43-12,20.05-11.13,20.17-11.12,.25,.02,.44,.24,.42,.49-.02,.25-.23,.43-.49,.42-.12,0-12.19-.82-19.33,10.7-7.15,11.55-1.32,23.12-1.26,23.23,.12,.22,.03,.5-.2,.61-.07,.03-.14,.05-.21,.05Z"/>
        <path class="cls-20" d="M144.74,194.71s11.08-1.54,15.69-.18c4.61,1.36,10.06,10.06,10.06,10.06l-31.53,71.12-30.84-15.06,36.62-65.95Z"/>
        <g>
          <path class="cls-20" d="M137.31,230.96s-4.74,10.13-8.39,13.25c-3.65,3.13-13.92,2.95-13.92,2.95l-30.17-64.77-22.86-26.29,19.7-17.92,12.25,21.1,2.6-8.95,5.23,2.72-4.7,12.62,2.65,5.43,37.6,59.84Z"/>
          <g>
            <line class="cls-20" x1="78.24" y1="142.71" x2="86.01" y2="154.59"/>
            <rect class="cls-11" x="81.67" y="141.1" width=".91" height="15.1" transform="translate(-67.98 69.21) rotate(-33.19)"/>
          </g>
          <g>
            <line class="cls-20" x1="72.13" y1="148.07" x2="81.73" y2="160.48"/>
            <rect class="cls-11" x="76.48" y="145.97" width=".91" height="16.6" transform="translate(-78.34 79.37) rotate(-37.74)"/>
          </g>
          <g>
            <line class="cls-20" x1="66.48" y1="153.32" x2="77.18" y2="163.81"/>
            <rect class="cls-11" x="71.38" y="150.62" width=".91" height="15.9" transform="translate(-91.68 98.84) rotate(-45.56)"/>
          </g>
        </g>
      </g>
      <g>
        <polygon class="cls-12" points="23.28 22.99 45.9 24.65 46.28 46.88 19.57 44.87 23.28 22.99"/>
        <g>
          <polygon class="cls-18" points="46.05 33.66 50.09 33.14 49.68 39.39 46.14 39.08 46.05 33.66"/>
          <path class="cls-1" d="M46.14,37.15l-.14-.08,.04-.07s.65-1.13,1.33-1.69c.67-.55,1.57-.83,1.61-.84l.08-.02,.05,.16-.08,.02s-.9,.28-1.55,.81c-.65,.54-1.28,1.63-1.29,1.64l-.04,.07Z"/>
        </g>
        <g>
          <polygon class="cls-18" points="21.8 31.78 17.92 30.56 17.23 36.79 20.89 37.11 21.8 31.78"/>
          <path class="cls-1" d="M21.1,35.21l-.03-.08s-.43-1.2-.98-1.84c-.54-.64-1.38-1.06-1.39-1.07l-.07-.04,.07-.15,.07,.04s.87,.44,1.44,1.11c.57,.66,.99,1.84,1.01,1.89l.03,.08-.16,.06Z"/>
        </g>
        <path class="cls-4" d="M46.05,33.66l2.87-.37,1.98-12.74s-20.85-5.78-21.67-6.13-1.55-.8-2.1-1.1c-.56-.3-1.76-1.14-1.76-1.14l1.36,3.13-7.31,5.25,.37,10.59,2.01,.63,1.48-8.79,22.62,1.65,.15,9.01Z"/>
        <polygon class="cls-4" points="43.56 31.23 44.11 29.54 39.7 29.15 38.97 30.14 43.56 31.23"/>
        <polygon class="cls-4" points="23.91 28.86 23.78 27.09 28.15 27.75 28.63 28.89 23.91 28.86"/>
        <path class="cls-1" d="M33.69,37.86h0l-5.54-.25s-.05-.01-.06-.04c-.01-.02-.02-.05-.01-.07l.89-2.79s.04-.05,.07-.06l1.56-.15,.45-4.73s.04-.07,.09-.07l3.24,.29s.04,.01,.06,.03c.01,.02,.02,.04,.02,.06l-.68,7.7s-.04,.08-.08,.08Zm-5.42-.41l5.35,.24,.66-7.54-3.08-.27-.45,4.71s-.04,.07-.07,.07l-1.57,.15-.84,2.63Zm2.4-2.87h0Z"/>
        <path class="cls-4" d="M27.6,34.26l-.06-.15s-.4-.95-1.72-1.18c-1.32-.22-1.98,.84-1.99,.85l-.08,.14-.28-.17,.09-.14s.8-1.26,2.32-1c1.52,.26,1.96,1.33,1.98,1.38l.06,.15-.3,.12Z"/>
        <path class="cls-4" d="M42.76,35.6l-.06-.15s-.4-.96-1.72-1.18c-1.31-.21-1.98,.84-1.99,.85l-.08,.14-.28-.17,.09-.14s.8-1.27,2.32-1c1.52,.26,1.96,1.34,1.97,1.38l.06,.15-.3,.12Z"/>
        <polygon class="cls-4" points="20.21 39.83 22.37 43.15 42.8 44.83 46.28 40.87 46.55 47.13 35.63 46.5 35.52 47.77 30.79 47.35 30.34 46.11 19.35 45 20.21 39.83"/>
        <path class="cls-19" d="M31.05,40.79l3.12-.03s-.21,1.42-1.52,1.37-1.6-1.34-1.6-1.34Z"/>
        <path class="cls-1" d="M38.85,44.58s-.07-.02-.08-.06c-.01-.04-1.08-3.6,1.73-5.97,2.81-2.37,5.56-.85,5.59-.84,.04,.02,.05,.07,.03,.11-.02,.04-.07,.05-.11,.03-.03-.01-2.68-1.47-5.4,.82-2.73,2.3-1.69,5.76-1.68,5.79,.01,.04,0,.09-.05,.1,0,0-.02,0-.02,0Z"/>
        <path class="cls-1" d="M25.85,43.52h0s-.08-.05-.07-.09c0-.03,.33-2.9-1.05-4.71-1.39-1.81-3.65-2.61-3.67-2.62-.04-.02-.07-.06-.05-.11,.02-.04,.06-.07,.11-.05,.02,0,2.33,.83,3.75,2.68,1.42,1.86,1.09,4.79,1.09,4.82,0,.04-.04,.07-.08,.07Z"/>
        <polygon class="cls-4" points="24.88 38.86 29.48 36.49 32.43 37.28 35.77 36.8 39.58 40.16 33.19 40.06 32.29 38.88 31.15 39.99 24.88 38.86"/>
      </g>
      <g>
        <path class="cls-6" d="M93.75,25.21s-4.73,9.47-12.06,15.1c-7.33,5.63-19.95,8.98-19.95,8.98l-7.38-11.04s6.49-2.2,12.72-7.65c4.02-3.52,8.18-14.41,8.18-14.41l18.49,9.02Z"/>
        <path class="cls-10" d="M70.97,33.2c3.26-2.3,6.1-4.29,7.18-3.45,1.19,.92,.33,5.25-2.36,7.57-3.45,2.98-9.37,2.21-9.86,.69-.33-1.03,1.82-2.54,5.04-4.81Z"/>
        <path class="cls-21" d="M62.59,47.34l-.09-.12-6.31-8.25,.21-.12c.09-.05,9.46-5.25,12.27-7.44,2.79-2.17,7.47-12.06,7.52-12.16l.09-.2,.19,.1,13.53,7-.11,.19c-.05,.09-5.36,9.53-11.76,13.62-6.38,4.08-15.32,7.29-15.41,7.32l-.14,.05Zm-5.77-8.24l5.92,7.74c1.18-.43,9.29-3.46,15.18-7.23,5.81-3.71,10.73-11.94,11.51-13.29l-12.95-6.7c-.7,1.46-4.88,10.03-7.55,12.12-2.6,2.02-10.7,6.56-12.12,7.35Z"/>
      </g>
    </g>
  </g>
</svg>