<?xml version="1.0" encoding="UTF-8"?>
<svg id="Layer_2" data-name="Layer 2" xmlns="http://www.w3.org/2000/svg" xmlns:xlink="http://www.w3.org/1999/xlink" viewBox="0 0 189.52 268.55">
  <defs>
    <style>
      .cls-1 {
        fill: #fff;
      }

      .cls-2 {
        fill: #181216;
      }

      .cls-3 {
        fill: #ef9d7f;
      }

      .cls-4 {
        fill: #363636;
      }

      .cls-5 {
        fill: #ed8869;
      }

      .cls-6 {
        fill: #eeb2ff;
      }

      .cls-7 {
        fill: #fac300;
      }

      .cls-8 {
        fill: #f55;
      }

      .cls-9 {
        fill: #e58e73;
      }

      .cls-10 {
        fill: #f7f2dc;
      }

      .cls-11 {
        fill: #f80500;
      }

      .cls-12 {
        fill: #ab7a5a;
      }

      .cls-13 {
        fill: #307f46;
      }

      .cls-14 {
        clip-path: url(#clippath);
      }

      .cls-15 {
        fill: #ff8cb7;
      }

      .cls-16 {
        fill: none;
      }

      .cls-17 {
        fill: #353535;
      }

      .cls-18 {
        fill: #9e6647;
      }

      .cls-19 {
        fill: #b72c2c;
      }

      .cls-20 {
        fill: #e08bfc;
      }

      .cls-21 {
        fill: #d46cff;
      }
    </style>
    <clipPath id="clippath">
      <rect class="cls-16" x="14.5" y="22.44" width="160.53" height="198.84" rx="14.3" ry="14.3"/>
    </clipPath>
  </defs>
  <rect class="cls-20" x="8.09" y="15.27" width="173.34" height="246.49" rx="13.2" ry="13.2"/>
  <g>
    <path class="cls-1" d="M26.87,233.07v3.13h-4.06v12.9h-3.73v-12.9h-4.06v-3.13h11.85Z"/>
    <path class="cls-1" d="M40.69,237.67c.84,.97,1.27,2.29,1.27,3.98v7.44h-3.71v-6.92c0-.85-.21-1.51-.63-1.99s-.99-.71-1.7-.71-1.28,.24-1.7,.71c-.42,.47-.63,1.13-.63,1.99v6.92h-3.73v-16.89h3.73v5.87c.38-.56,.9-1.01,1.55-1.35,.66-.33,1.39-.5,2.21-.5,1.4,0,2.52,.48,3.36,1.45Z"/>
    <path class="cls-1" d="M57.06,243.66h-8.45c.06,.79,.3,1.4,.73,1.81,.43,.42,.96,.63,1.58,.63,.93,0,1.58-.41,1.94-1.23h3.97c-.2,.84-.57,1.59-1.1,2.26s-1.2,1.19-2,1.58c-.8,.38-1.69,.57-2.68,.57-1.19,0-2.25-.27-3.19-.8-.93-.53-1.66-1.29-2.18-2.28-.52-.99-.79-2.15-.79-3.47s.26-2.48,.77-3.47c.52-.99,1.24-1.75,2.17-2.28,.93-.53,2-.8,3.21-.8s2.23,.26,3.14,.78c.92,.52,1.63,1.25,2.15,2.21s.78,2.08,.78,3.36c0,.37-.02,.75-.07,1.14Zm-3.75-2.17c0-.67-.22-1.2-.65-1.6s-.98-.59-1.64-.59-1.15,.19-1.58,.57c-.43,.38-.69,.92-.8,1.62h4.67Z"/>
    <path class="cls-1" d="M73.71,249.09l-3.19-6.05h-.9v6.05h-3.73v-16.02h6.26c1.21,0,2.24,.22,3.09,.66,.85,.44,1.49,1.05,1.91,1.81s.63,1.62,.63,2.57c0,1.07-.29,2.02-.86,2.85-.58,.84-1.42,1.43-2.54,1.78l3.54,6.35h-4.21Zm-4.08-8.81h2.31c.68,0,1.2-.17,1.54-.52,.34-.35,.51-.84,.51-1.48s-.17-1.09-.51-1.44c-.34-.35-.85-.53-1.54-.53h-2.31v3.97Z"/>
    <path class="cls-1" d="M93.24,236.36v12.74h-3.73v-1.73c-.38,.56-.89,1.02-1.54,1.36-.65,.34-1.36,.51-2.15,.51-.93,0-1.75-.22-2.47-.65s-1.27-1.06-1.66-1.88c-.39-.82-.59-1.79-.59-2.9v-7.44h3.71v6.92c0,.85,.21,1.51,.63,1.99,.42,.47,.99,.71,1.7,.71s1.3-.24,1.72-.71,.63-1.13,.63-1.99v-6.92h3.73Z"/>
    <path class="cls-1" d="M116.17,237.66c.89,.96,1.34,2.29,1.34,4v7.44h-3.71v-6.92c0-.82-.21-1.46-.62-1.91-.42-.45-.99-.67-1.71-.67s-1.3,.22-1.71,.67c-.42,.45-.62,1.08-.62,1.91v6.92h-3.71v-6.92c0-.82-.21-1.46-.62-1.91-.41-.45-.99-.67-1.71-.67s-1.3,.22-1.71,.67c-.41,.45-.62,1.08-.62,1.91v6.92h-3.73v-12.74h3.73v1.6c.38-.53,.87-.96,1.48-1.27s1.3-.47,2.07-.47c.92,0,1.73,.21,2.46,.62,.72,.41,1.28,1,1.69,1.76,.42-.7,1-1.27,1.72-1.71,.73-.44,1.52-.66,2.38-.66,1.51,0,2.72,.48,3.61,1.44Z"/>
    <path class="cls-1" d="M123.55,248.48c-.95-.53-1.7-1.29-2.25-2.28-.55-.99-.82-2.15-.82-3.47s.28-2.46,.83-3.46c.55-1,1.31-1.76,2.27-2.29,.96-.53,2.04-.8,3.23-.8s2.27,.27,3.23,.8c.96,.53,1.72,1.3,2.27,2.29,.55,1,.83,2.15,.83,3.46s-.28,2.46-.84,3.46-1.32,1.76-2.29,2.29c-.97,.53-2.05,.8-3.24,.8s-2.27-.27-3.22-.8Zm5.04-3.4c.5-.55,.75-1.33,.75-2.35s-.24-1.8-.73-2.35-1.09-.82-1.8-.82-1.33,.27-1.81,.81c-.48,.54-.72,1.33-.72,2.36s.24,1.8,.71,2.35,1.07,.82,1.78,.82,1.32-.27,1.82-.82Z"/>
    <path class="cls-1" d="M148.25,236.36v12.74h-3.73v-1.73c-.38,.56-.89,1.02-1.54,1.36-.65,.34-1.36,.51-2.15,.51-.93,0-1.75-.22-2.47-.65s-1.27-1.06-1.66-1.88c-.39-.82-.59-1.79-.59-2.9v-7.44h3.71v6.92c0,.85,.21,1.51,.63,1.99,.42,.47,.99,.71,1.7,.71s1.3-.24,1.72-.71,.63-1.13,.63-1.99v-6.92h3.73Z"/>
    <path class="cls-1" d="M157.39,236.82c.65-.4,1.38-.6,2.18-.6v4.13h-1.03c-.93,0-1.63,.21-2.09,.63-.47,.42-.7,1.15-.7,2.2v5.91h-3.73v-12.74h3.73v2.12c.44-.7,.98-1.25,1.64-1.66Z"/>
    <path class="cls-1" d="M164.57,248.7c-.83-.38-1.48-.9-1.96-1.56-.48-.66-.75-1.4-.81-2.23h3.69c.04,.44,.24,.8,.59,1.07,.35,.27,.78,.41,1.29,.41,.47,0,.83-.09,1.08-.29,.25-.19,.38-.44,.38-.74,0-.37-.18-.64-.55-.81-.36-.17-.95-.37-1.77-.58-.87-.21-1.6-.44-2.18-.67-.58-.24-1.08-.61-1.51-1.12-.42-.51-.63-1.2-.63-2.07,0-.73,.19-1.4,.58-2,.38-.6,.95-1.08,1.7-1.43,.75-.35,1.64-.53,2.67-.53,1.53,0,2.73,.4,3.61,1.19,.88,.79,1.39,1.84,1.52,3.15h-3.45c-.06-.44-.24-.79-.56-1.05-.31-.26-.72-.39-1.23-.39-.44,0-.77,.09-1,.26-.23,.18-.35,.42-.35,.72,0,.37,.19,.64,.56,.82s.95,.37,1.74,.55c.9,.24,1.64,.48,2.21,.72,.57,.24,1.07,.62,1.49,1.14,.43,.53,.65,1.23,.67,2.11,0,.75-.2,1.41-.6,2-.4,.59-.98,1.05-1.72,1.38-.75,.33-1.62,.5-2.61,.5-1.06,0-2.01-.19-2.84-.57Z"/>
  </g>
  <rect class="cls-13" x="14.5" y="22.44" width="160.53" height="198.84" rx="14.3" ry="14.3"/>
  <g class="cls-14">
    <g>
      <g>
        <g>
          <polygon class="cls-4" points="6.45 151 -6.57 156.83 1.98 177.41 20.61 170.33 18.95 151 6.45 151"/>
          <path class="cls-2" d="M5.47,176.02l-2.23-10.3c-.04-.17,.05-.35,.21-.44l15.11-7.79,.36,.7-14.84,7.65,2.17,10.01-.77,.17Z"/>
          <path class="cls-2" d="M3.37,176.94l-3.9-12.62c-.05-.15,0-.31,.11-.41l9.46-8.51,.53,.59L.3,164.33l3.82,12.38-.75,.23Z"/>
        </g>
        <polygon class="cls-4" points="89.68 101.38 57.08 78.49 3.82 99.26 9.68 143.57 23.91 151.92 89.68 101.38"/>
        <g>
          <polygon class="cls-9" points="17.65 142.8 7.36 139.16 6.27 156.07 17.65 158.34 17.65 142.8"/>
          <path class="cls-11" d="M17.4,151.87l-4.86-6.14-2.9-1.21,.31-.74,3,1.25c.06,.03,.12,.07,.16,.12l4.92,6.22-.63,.5Z"/>
        </g>
        <polygon class="cls-9" points="33.86 177.66 24.69 204.2 38.64 223.49 58.69 204.2 63.07 189.09 33.86 177.66"/>
        <path class="cls-8" d="M95.08,198.54c11.01,23.91,32.64,69.78,32.64,69.78l-152.15-1.72L-6.19,199.58l32.52-.14,12.44,9.07-.13,13.7,3.96-13.17,17.73-10.5"/>
        <path class="cls-3" d="M17.57,123.46l-.11,42.45c0,2.94,1.55,5.67,4.08,7.16l35.87,21.07c2.22,1.3,5.01,1.12,7.03-.47l22.86-17.88c2.58-2.02,4.06-5.14,4-8.42l-.66-43.64-31.77-19.19-41.3,18.91Z"/>
        <path class="cls-4" d="M45.7,109.72c15.48,8.91,44.97,26.7,44.97,26.7l-.08-35.04s-23.71,.23-33.87-.13c-3.66,3.17-7.36,5.31-11.02,8.47Z"/>
        <g>
          <path class="cls-8" d="M65.13,134.51c-.26,8.99-.77,26.98-.77,26.98l8.21,.16s2.07-19.46-7.44-27.14Z"/>
          <path class="cls-11" d="M72.57,162.08h0l-8.21-.16c-.11,0-.22-.05-.3-.13-.08-.08-.12-.19-.12-.31l.77-26.98c0-.16,.1-.31,.25-.38,.15-.07,.32-.05,.45,.06,9.57,7.74,7.68,26.72,7.59,27.52-.02,.22-.21,.38-.43,.38Zm-7.77-1.01l7.38,.14c.21-2.7,1.11-18.62-6.64-25.79l-.74,25.65Z"/>
        </g>
        <path class="cls-11" d="M42.28,185.65s-.05,0-.07,0c-.22-.04-.36-.25-.32-.47,.39-2.12,.96-7.64-2.2-13.1-2.35-4.08-6.05-7-11-8.69-4.31-1.47-8.22-1.24-10.75-.78-.22,.04-.43-.11-.47-.33s.11-.43,.33-.47c2.62-.47,6.68-.72,11.15,.81,5.13,1.75,8.98,4.8,11.43,9.05,3.17,5.49,2.79,10.91,2.29,13.65-.04,.19-.21,.33-.4,.33Z"/>
        <path class="cls-11" d="M75.75,185.23c-.2,0-.38-.15-.4-.36-.3-2.6-.89-11.58,4.12-17.82,3.88-4.82,8.87-6.58,11.5-7.21,.22-.06,.43,.08,.48,.3,.05,.22-.08,.43-.3,.48-2.53,.6-7.34,2.29-11.06,6.93-4.82,5.99-4.24,14.7-3.95,17.22,.03,.22-.13,.42-.35,.45-.02,0-.03,0-.05,0Z"/>
        <path class="cls-2" d="M71.58,101s-36.72,29.15-55.1,44.7c.5-14.34,1.55-45.11,1.55-45.11l53.56,.41Z"/>
        <polygon class="cls-2" points="49.47 135.8 29.75 134.64 30.77 127.8 50.01 132.2 49.47 135.8"/>
        <polygon class="cls-2" points="72.21 137.13 91.94 135.98 90.91 129.14 71.67 133.53 72.21 137.13"/>
        <path class="cls-19" d="M67.35,170.18c-4.55-3.11-11.74,2.05-12.64,8.19-.9,6.14,8.93,6.36,8.64,5.36-.46-1.57,8.55-10.44,4-13.55Z"/>
        <g>
          <g>
            <path class="cls-5" d="M52.76,204.31c-.52-2.09-.68-9.49-.68-9.49l-.15-19.69,20.1,2.64,.26,13.1,4.81-3.76,2.18,3.42-6.73,6.64,.37,6.47s-.33,.45-.44,.57c-6.57,.03-13.15,.07-19.72,.1Z"/>
            <path class="cls-11" d="M55.62,188.85h-.01c-.21,0-.38-.18-.38-.4l.34-12.43c0-.21,.15-.36,.4-.38,.21,0,.38,.18,.38,.4l-.34,12.43c0,.21-.18,.38-.39,.38Z"/>
            <path class="cls-11" d="M67.88,190.36c-.21,0-.38-.16-.39-.37l-.57-12.46c0-.21,.16-.39,.37-.4,.2,0,.39,.16,.4,.37l.57,12.46c0,.21-.16,.39-.37,.4h-.02Z"/>
            <path class="cls-11" d="M61.82,190.73h0c-.21,0-.38-.18-.38-.4l.33-13.19c0-.21,.2-.42,.4-.38,.21,0,.38,.18,.38,.4l-.33,13.19c0,.21-.18,.38-.39,.38Z"/>
          </g>
          <path class="cls-19" d="M50.26,202.82s7.01,59.33,10.52,88.99l39.39-23.21c-8.31-22.76-24.93-68.29-24.93-68.29l-24.99,2.51Z"/>
        </g>
        <g>
          <path class="cls-17" d="M41.37,142.54c-1.69,1.65-.94,4.33-.75,5.02,.21,.77,.81,2.92,2.58,3.39,1.25,.32,2.31-.39,2.37-.43,1.73-1.19,1.38-3.95,1.26-4.9-.15-1.23-.42-3.39-2.02-4.02-1.22-.48-2.65,.16-3.45,.94Z"/>
          <path class="cls-4" d="M35.18,145.82c1.12-.87,1.53-2.05,5.62-3.4s9.02,1.96,9.02,1.96l.57-.93s-4.4-3.15-8.73-2.48c-4.33,.68-6.28,2.87-7.31,3.71l.83,1.13Z"/>
          <polygon class="cls-4" points="33.68 142.45 34.35 144.69 36.09 143.57 33.68 142.45"/>
        </g>
        <g>
          <path class="cls-17" d="M83.98,143.58c1.69,1.65,.94,4.33,.75,5.02-.21,.77-.81,2.92-2.58,3.39-1.25,.32-2.31-.39-2.37-.43-1.73-1.19-1.38-3.95-1.26-4.9,.15-1.23,.42-3.39,2.02-4.02,1.22-.48,2.65,.16,3.45,.94Z"/>
          <path class="cls-4" d="M90.17,146.86c-1.12-.87-1.53-2.05-5.62-3.4-4.08-1.34-9.02,1.96-9.02,1.96l-.57-.93s4.4-3.15,8.73-2.48c4.33,.68,6.28,2.87,7.31,3.71l-.83,1.13Z"/>
          <polygon class="cls-4" points="91.67 143.49 91 145.73 89.26 144.61 91.67 143.49"/>
        </g>
        <g>
          <path class="cls-2" d="M71.6,101.09s-36.75,29.17-55.14,44.73c.46-11.09,.84-22.27,1.15-33.56,.11-4.09,.21-8.17,.3-12.24,17.89,.36,35.79,.72,53.68,1.08Z"/>
          <rect class="cls-2" x="46.9" y="57.38" width=".8" height="86.66" transform="translate(-54.52 145.59) rotate(-88.63)"/>
          <rect class="cls-4" x=".51" y="120.21" width="50.5" height=".81" transform="translate(-96.53 104.56) rotate(-70.47)"/>
          <polygon class="cls-4" points="17.78 143.84 17.15 143.33 17.41 143.01 53.96 98.69 54.58 99.2 54.32 99.51 17.78 143.84"/>
        </g>
      </g>
      <polygon class="cls-10" points="13.29 12.83 110.18 20.17 105.7 58.28 82.01 70.91 83.85 88.89 66.93 72.88 8.09 65.72 13.29 12.83"/>
      <g>
        <path class="cls-20" d="M117.11,165.93s20.5,23.2,21.65,33.89c1.15,10.69-.16,8.9-.16,8.9l32.51-28.81-14.54-20.44-39.45,6.45Z"/>
        <polygon class="cls-6" points="94.86 94.93 99.33 169.95 173.02 168.92 170.13 106.82 112.41 91.01 94.86 94.93"/>
        <polygon class="cls-21" points="112.11 66.05 90.86 81.87 80.18 108.57 100.02 119.52 109.46 107.26 108.47 119.17 157.2 126.63 112.11 66.05"/>
        <polygon class="cls-15" points="112.11 66.05 129.88 59.82 159.43 125.38 153.24 127.56 112.11 66.05"/>
        <polygon class="cls-20" points="148.47 128.64 162.74 122.62 166 144.58 153.18 149.47 148.47 128.64"/>
        <g>
          <polygon class="cls-7" points="95.89 121.27 84.87 143.93 97.41 146.74 95.89 121.27"/>
          <path class="cls-11" d="M97.41,147.19s-.07,0-.1-.01l-12.53-2.81c-.14-.03-.25-.12-.31-.25-.06-.12-.06-.27,0-.4l11.02-22.66c.09-.19,.29-.29,.5-.25,.2,.04,.35,.21,.36,.42l1.52,25.47c0,.14-.05,.28-.16,.37-.08,.07-.19,.11-.29,.11Zm-11.88-3.58l11.39,2.55-1.38-23.14-10.01,20.59Z"/>
        </g>
        <path class="cls-6" d="M138.59,208.72s-11.4,22.6-13.32,36.26c-1.93,13.66-2.71,59.44-2.71,59.44l101.27-22.92-40.84-115.59-44.4,42.81Z"/>
        <path class="cls-11" d="M152.35,141.29h-.01c-.25,0-.45-.21-.44-.46,0-.21,.14-5.17,2.56-8.27,2.47-3.16,5.27-3.03,5.39-3.03,.25,.02,.44,.23,.43,.48-.02,.25-.21,.42-.48,.43-.1-.02-2.46-.09-4.62,2.68-2.23,2.86-2.37,7.68-2.37,7.73,0,.25-.21,.44-.45,.44Z"/>
        <polygon class="cls-21" points="129.88 59.82 158.92 124.23 162.74 122.62 166 144.58 153.18 149.47 134.66 191.3 150.78 194.81 153.49 187.85 153.69 195.69 178.65 193.02 178.93 183.67 185.22 191.54 212.09 178.72 186.78 116.62 177.6 59.82 129.88 59.82"/>
        <path class="cls-19" d="M102.2,146.98l19.75-8.86-3.25,20.25c-.09,.58-.77,.87-1.25,.52l-15.35-10.88c-.38-.27-.32-.85,.1-1.04Z"/>
        <path class="cls-11" d="M128.86,169.99c-.16,0-.32-.09-.4-.25-.06-.12-6.12-12.14,1.3-24.13,7.43-12,20.05-11.13,20.17-11.12,.25,.02,.44,.24,.42,.49-.02,.25-.23,.43-.49,.42-.12,0-12.19-.82-19.33,10.7-7.15,11.55-1.32,23.12-1.26,23.23,.12,.22,.03,.5-.2,.61-.07,.03-.14,.05-.21,.05Z"/>
        <path class="cls-20" d="M152.84,209.02s11.08-1.54,15.69-.18c4.61,1.36,10.06,10.06,10.06,10.06l-31.53,71.12-30.84-15.06,36.62-65.95Z"/>
        <g>
          <path class="cls-20" d="M145.41,245.28s-4.74,10.13-8.39,13.25c-3.65,3.13-13.92,2.95-13.92,2.95l-30.17-64.77-22.86-26.29,19.7-17.92,12.25,21.1,2.6-8.95,5.23,2.72-4.7,12.62,2.65,5.43,37.6,59.84Z"/>
          <g>
            <line class="cls-20" x1="86.33" y1="157.03" x2="94.1" y2="168.91"/>
            <rect class="cls-11" x="89.76" y="155.42" width=".91" height="15.1" transform="translate(-74.5 75.98) rotate(-33.19)"/>
          </g>
          <g>
            <line class="cls-20" x1="80.22" y1="162.39" x2="89.83" y2="174.79"/>
            <rect class="cls-11" x="84.57" y="160.29" width=".91" height="16.6" transform="translate(-85.41 87.32) rotate(-37.74)"/>
          </g>
          <g>
            <line class="cls-20" x1="74.57" y1="167.64" x2="85.28" y2="178.13"/>
            <rect class="cls-11" x="79.47" y="164.93" width=".91" height="15.9" transform="translate(-99.47 108.91) rotate(-45.56)"/>
          </g>
        </g>
      </g>
      <g>
        <polygon class="cls-12" points="31.37 37.31 53.99 38.96 54.37 61.2 27.67 59.18 31.37 37.31"/>
        <g>
          <polygon class="cls-18" points="54.14 47.97 58.18 47.45 57.77 53.71 54.23 53.4 54.14 47.97"/>
          <path class="cls-1" d="M54.23,51.47l-.14-.08,.04-.07s.65-1.13,1.33-1.69c.67-.55,1.57-.83,1.61-.84l.08-.02,.05,.16-.08,.02s-.9,.28-1.55,.81c-.65,.54-1.28,1.63-1.29,1.64l-.04,.07Z"/>
        </g>
        <g>
          <polygon class="cls-18" points="29.9 46.09 26.01 44.88 25.32 51.1 28.98 51.43 29.9 46.09"/>
          <path class="cls-1" d="M29.2,49.52l-.03-.08s-.43-1.2-.98-1.84c-.54-.64-1.38-1.06-1.39-1.07l-.07-.04,.07-.15,.07,.04s.87,.44,1.44,1.11c.57,.66,.99,1.84,1.01,1.89l.03,.08-.16,.06Z"/>
        </g>
        <path class="cls-4" d="M54.14,47.97l2.87-.37,1.98-12.74s-20.85-5.78-21.67-6.13-1.55-.8-2.1-1.1c-.56-.3-1.76-1.14-1.76-1.14l1.36,3.13-7.31,5.25,.37,10.59,2.01,.63,1.48-8.79,22.62,1.65,.15,9.01Z"/>
        <polygon class="cls-4" points="51.66 45.55 52.2 43.85 47.8 43.47 47.06 44.46 51.66 45.55"/>
        <polygon class="cls-4" points="32 43.18 31.87 41.4 36.24 42.07 36.72 43.21 32 43.18"/>
        <path class="cls-1" d="M41.78,52.18h0l-5.54-.25s-.05-.01-.06-.04c-.01-.02-.02-.05-.01-.07l.89-2.79s.04-.05,.07-.06l1.56-.15,.45-4.73s.04-.07,.09-.07l3.24,.29s.04,.01,.06,.03c.01,.02,.02,.04,.02,.06l-.68,7.7s-.04,.08-.08,.08Zm-5.42-.41l5.35,.24,.66-7.54-3.08-.27-.45,4.71s-.04,.07-.07,.07l-1.57,.15-.84,2.63Zm2.4-2.87h0Z"/>
        <path class="cls-4" d="M35.69,48.58l-.06-.15s-.4-.95-1.72-1.18c-1.32-.22-1.98,.84-1.99,.85l-.08,.14-.28-.17,.09-.14s.8-1.26,2.32-1c1.52,.26,1.96,1.33,1.98,1.38l.06,.15-.3,.12Z"/>
        <path class="cls-4" d="M50.85,49.91l-.06-.15s-.4-.96-1.72-1.18c-1.31-.21-1.98,.84-1.99,.85l-.08,.14-.28-.17,.09-.14s.8-1.27,2.32-1c1.52,.26,1.96,1.34,1.97,1.38l.06,.15-.3,.12Z"/>
        <polygon class="cls-4" points="28.3 54.14 30.47 57.46 50.9 59.14 54.37 55.19 54.65 61.44 43.72 60.82 43.61 62.09 38.88 61.67 38.44 60.43 27.44 59.31 28.3 54.14"/>
        <path class="cls-19" d="M39.14,55.1l3.12-.03s-.21,1.42-1.52,1.37-1.6-1.34-1.6-1.34Z"/>
        <path class="cls-1" d="M46.94,58.9s-.07-.02-.08-.06c-.01-.04-1.08-3.6,1.73-5.97,2.81-2.37,5.56-.85,5.59-.84,.04,.02,.05,.07,.03,.11-.02,.04-.07,.05-.11,.03-.03-.01-2.68-1.47-5.4,.82-2.73,2.3-1.69,5.76-1.68,5.79,.01,.04,0,.09-.05,.1,0,0-.02,0-.02,0Z"/>
        <path class="cls-1" d="M33.95,57.83h0s-.08-.05-.07-.09c0-.03,.33-2.9-1.05-4.71-1.39-1.81-3.65-2.61-3.67-2.62-.04-.02-.07-.06-.05-.11,.02-.04,.06-.07,.11-.05,.02,0,2.33,.83,3.75,2.68,1.42,1.86,1.09,4.79,1.09,4.82,0,.04-.04,.07-.08,.07Z"/>
        <polygon class="cls-4" points="32.97 53.17 37.57 50.8 40.52 51.59 43.86 51.11 47.68 54.48 41.28 54.37 40.38 53.2 39.24 54.31 32.97 53.17"/>
      </g>
      <g>
        <path class="cls-6" d="M101.84,39.52s-4.73,9.47-12.06,15.1c-7.33,5.63-19.95,8.98-19.95,8.98l-7.38-11.04s6.49-2.2,12.72-7.65c4.02-3.52,8.18-14.41,8.18-14.41l18.49,9.02Z"/>
        <path class="cls-10" d="M79.07,47.52c3.26-2.3,6.1-4.29,7.18-3.45,1.19,.92,.33,5.25-2.36,7.57-3.45,2.98-9.37,2.21-9.86,.69-.33-1.03,1.82-2.54,5.04-4.81Z"/>
        <path class="cls-21" d="M70.68,61.66l-.09-.12-6.31-8.25,.21-.12c.09-.05,9.46-5.25,12.27-7.44,2.79-2.17,7.47-12.06,7.52-12.16l.09-.2,.19,.1,13.53,7-.11,.19c-.05,.09-5.36,9.53-11.76,13.62-6.38,4.08-15.32,7.29-15.41,7.32l-.14,.05Zm-5.77-8.24l5.92,7.74c1.18-.43,9.29-3.46,15.18-7.23,5.81-3.71,10.73-11.94,11.51-13.29l-12.95-6.7c-.7,1.46-4.88,10.03-7.55,12.12-2.6,2.02-10.7,6.56-12.12,7.35Z"/>
      </g>
    </g>
  </g>
</svg>