<?xml version="1.0" encoding="UTF-8"?>
<svg id="Layer_2" data-name="Layer 2" xmlns="http://www.w3.org/2000/svg" xmlns:xlink="http://www.w3.org/1999/xlink" viewBox="0 0 428 531.96">
  <defs>
    <style>
      .cls-1 {
        fill: #fff;
      }

      .cls-2 {
        fill: #edeeea;
      }

      .cls-3 {
        fill: #181216;
      }

      .cls-4 {
        fill: #ef9d7f;
      }

      .cls-5 {
        fill: #363636;
      }

      .cls-6 {
        fill: #eeb2ff;
      }

      .cls-7 {
        fill: #fac300;
      }

      .cls-8 {
        fill: #f55;
      }

      .cls-9 {
        fill: #e58e73;
      }

      .cls-10 {
        fill: #fca322;
      }

      .cls-11 {
        clip-path: url(#clippath-1);
      }

      .cls-12 {
        fill: #f80500;
      }

      .cls-13 {
        fill: #ff5b00;
      }

      .cls-14 {
        fill: #e64c00;
      }

      .cls-15 {
        clip-path: url(#clippath);
      }

      .cls-16 {
        fill: none;
      }

      .cls-17 {
        fill: #353535;
      }

      .cls-18 {
        fill: #515151;
      }

      .cls-19 {
        fill: #b72c2c;
      }

      .cls-20 {
        fill: #4ea978;
      }

      .cls-21 {
        fill: #d46cff;
      }

      .cls-22 {
        fill: #f7a22d;
      }
    </style>
    <clipPath id="clippath">
      <path class="cls-16" d="M239.05,160.64v109.86c0,8.4-4.85,15.21-10.84,15.21H65.64c-5.99,0-10.84-6.81-10.84-15.21v-109.86"/>
    </clipPath>
    <clipPath id="clippath-1">
      <circle class="cls-16" cx="362.76" cy="355.57" r="45.78"/>
    </clipPath>
  </defs>
  <g>
    <path class="cls-6" d="M233.55,160.64v109.86c0,8.4-4.71,15.21-10.52,15.21H65.31c-5.81,0-10.52-6.81-10.52-15.21v-109.86"/>
    <path class="cls-1" d="M54.8,172.79v-17.31c0-3.81,3.09-6.9,6.9-6.9H227.63c3.27,0,5.92,2.65,5.92,5.92v18.3H54.8"/>
    <path class="cls-21" d="M196.67,167.5c-3.76,0-6.81-3.06-6.81-6.81s3.06-6.81,6.81-6.81,6.81,3.06,6.81,6.81-3.06,6.81-6.81,6.81Zm0-12.61c-3.2,0-5.8,2.6-5.8,5.8s2.6,5.8,5.8,5.8,5.8-2.6,5.8-5.8-2.6-5.8-5.8-5.8Z"/>
    <g>
      <rect class="cls-21" x="211.59" y="160.18" width="15.4" height="1.01" transform="translate(-49.11 203.96) rotate(-45.39)"/>
      <rect class="cls-21" x="218.78" y="152.99" width="1.01" height="15.4" transform="translate(-49.67 200.3) rotate(-44.61)"/>
    </g>
    <g class="cls-15">
      <g>
        <g>
          <rect class="cls-1" x="208.88" y="159.07" width=".84" height="112.71"/>
          <rect class="cls-1" x="176.6" y="160.64" width=".84" height="138"/>
          <rect class="cls-1" x="144.32" y="160.64" width=".84" height="138"/>
          <rect class="cls-1" x="112.04" y="160.64" width=".84" height="138"/>
          <rect class="cls-1" x="79.76" y="160.64" width=".84" height="138"/>
        </g>
        <g>
          <rect class="cls-1" x="55.51" y="260.43" width="183.65" height="1.11"/>
          <rect class="cls-1" x="56.49" y="228.07" width="183.65" height="1.11"/>
          <rect class="cls-1" x="56" y="195.71" width="177.55" height="1.11"/>
        </g>
      </g>
    </g>
  </g>
  <g>
    <polygon class="cls-22" points="278.21 95.37 396.91 94.77 364.96 263 235.38 263.3 278.21 95.37"/>
    <polygon class="cls-14" points="282.95 102.35 274.75 134.55 383.07 134.32 389.74 101.41 282.95 102.35"/>
    <g>
      <path class="cls-1" d="M304.79,113.07l-.59,2.43h-2.63l-1.8,7.36h-3.11l1.81-7.36h-2.6l.6-2.43h8.32Z"/>
      <path class="cls-1" d="M313.28,115.91c.36,.6,.43,1.41,.18,2.43l-1.08,4.52h-3.1l.99-4.14c.09-.37,.06-.66-.09-.88-.15-.22-.39-.33-.73-.33s-.64,.11-.89,.33c-.25,.22-.42,.51-.5,.88l-1,4.14h-3.11l2.48-10.24h3.1l-.87,3.62c.33-.37,.73-.67,1.19-.9,.46-.23,.97-.35,1.53-.35,.9,0,1.54,.3,1.9,.9Z"/>
      <path class="cls-1" d="M322.83,119.5h-5c-.11,.67,.09,1.01,.62,1.01,.34,0,.61-.15,.84-.46h3.29c-.24,.55-.59,1.05-1.05,1.49-.46,.44-1,.78-1.6,1.04-.61,.25-1.24,.38-1.89,.38-.79,0-1.45-.16-1.98-.48-.54-.32-.9-.79-1.1-1.39-.2-.6-.2-1.31,0-2.12s.53-1.52,1.01-2.12c.48-.6,1.07-1.07,1.75-1.39,.69-.32,1.42-.48,2.2-.48s1.44,.16,1.98,.48c.54,.32,.9,.77,1.11,1.36,.2,.59,.21,1.29,.02,2.09-.05,.21-.11,.41-.18,.61Zm-2.79-1.34c.06-.26,.02-.45-.11-.59-.14-.13-.33-.2-.58-.2-.55,0-.93,.26-1.15,.79h1.85Z"/>
      <path class="cls-1" d="M341,113.07l-2.21,9.79h-3.1l1.11-4.88-2.64,4.88h-2.66l-.41-4.88-1.12,4.88h-3.11l2.26-9.79h3.8l.84,5.88,3.46-5.88h3.78Z"/>
      <path class="cls-1" d="M342.59,122.48c-.56-.32-.96-.79-1.18-1.39-.22-.6-.24-1.31-.06-2.12s.52-1.52,1.01-2.12c.49-.6,1.09-1.07,1.8-1.39,.71-.32,1.45-.48,2.25-.48s1.47,.16,2.03,.48c.56,.32,.96,.79,1.18,1.39,.23,.6,.25,1.31,.07,2.12s-.51,1.52-1.01,2.12c-.49,.6-1.09,1.07-1.8,1.39-.71,.32-1.46,.48-2.25,.48s-1.47-.16-2.04-.48Zm3.43-2.51c.25-.23,.42-.56,.52-1s.07-.78-.07-1c-.15-.23-.36-.34-.65-.34s-.56,.11-.8,.34c-.25,.23-.42,.56-.52,1s-.08,.78,.06,1c.14,.23,.36,.34,.66,.34s.56-.11,.8-.34Z"/>
      <path class="cls-1" d="M352.21,122.48c-.57-.32-.96-.79-1.19-1.39-.23-.6-.25-1.31-.07-2.12s.51-1.52,1-2.12c.49-.6,1.09-1.07,1.79-1.39,.7-.32,1.45-.48,2.24-.48s1.47,.16,2.03,.48c.56,.32,.96,.79,1.19,1.39,.23,.6,.25,1.31,.08,2.12s-.51,1.52-1,2.12c-.49,.6-1.09,1.07-1.79,1.39-.71,.32-1.46,.48-2.25,.48s-1.47-.16-2.04-.48Zm3.42-2.51c.25-.23,.42-.56,.51-1s.07-.78-.08-1c-.15-.23-.37-.34-.65-.34s-.56,.11-.8,.34c-.25,.23-.42,.56-.51,1s-.07,.78,.07,1c.14,.23,.36,.34,.66,.34s.56-.11,.8-.34Z"/>
      <path class="cls-1" d="M369.27,115.91c.38,.6,.46,1.41,.25,2.43l-.95,4.52h-3.1l.88-4.14c.08-.37,.04-.66-.11-.88-.15-.22-.4-.33-.73-.33s-.64,.11-.88,.33c-.24,.22-.4,.51-.48,.88l-.88,4.14h-3.11l1.68-7.8h3.1l-.25,1.19c.32-.37,.71-.67,1.16-.9,.45-.23,.96-.35,1.52-.35,.9,0,1.55,.3,1.93,.9Z"/>
    </g>
    <g>
      <path class="cls-1" d="M286.39,145.83c-.31,.37-.7,.67-1.18,.88-.48,.22-1.01,.33-1.62,.33h-.92l-.57,2.3h-2.33l1.81-7.23h3.24c.91,0,1.54,.22,1.92,.67,.37,.45,.47,1.05,.28,1.81-.11,.46-.32,.87-.63,1.24Zm-1.72-1.24c.11-.44-.08-.66-.56-.66h-.66l-.33,1.33h.66c.48,0,.78-.22,.89-.66Z"/>
      <path class="cls-1" d="M288.38,149.05c-.42-.24-.7-.58-.86-1.03-.16-.45-.16-.97-.02-1.57s.41-1.12,.79-1.57c.38-.45,.83-.79,1.37-1.03,.53-.24,1.09-.36,1.69-.36s1.1,.12,1.51,.36c.41,.24,.7,.58,.86,1.03,.16,.45,.17,.97,.02,1.57s-.41,1.12-.79,1.57c-.38,.45-.83,.79-1.37,1.03-.53,.24-1.1,.36-1.69,.36s-1.1-.12-1.52-.36Zm2.6-1.85c.19-.17,.32-.41,.4-.74s.07-.57-.04-.74c-.11-.17-.27-.25-.48-.25s-.42,.08-.6,.25c-.19,.17-.32,.41-.4,.74s-.07,.57,.03,.74c.1,.17,.27,.25,.49,.25s.42-.08,.61-.25Z"/>
      <path class="cls-1" d="M298.45,141.78l-1.83,7.55h-2.33l1.84-7.55h2.32Z"/>
      <path class="cls-1" d="M299.97,142.8c-.19-.21-.25-.48-.17-.8s.27-.6,.56-.81c.3-.21,.64-.32,1.05-.32s.69,.11,.88,.32c.19,.21,.25,.49,.17,.81s-.26,.59-.56,.8c-.29,.21-.64,.32-1.04,.32s-.7-.11-.9-.32Zm1.93,.78l-1.39,5.76h-2.33l1.39-5.76h2.32Z"/>
      <path class="cls-1" d="M306.23,147.41l-.46,1.93h-.88c-1.62,0-2.24-.79-1.87-2.36l.36-1.51h-.73l.45-1.89h.73l.33-1.39h2.32l-.33,1.39h.96l-.45,1.89h-.96l-.37,1.55c-.03,.14-.02,.23,.03,.3,.05,.06,.15,.09,.31,.09h.55Z"/>
      <path class="cls-1" d="M308.93,142.8c-.19-.21-.25-.48-.18-.8s.26-.6,.56-.81c.29-.21,.64-.32,1.05-.32s.69,.11,.88,.32c.19,.21,.25,.49,.17,.81s-.26,.59-.55,.8c-.29,.21-.64,.32-1.04,.32s-.7-.11-.9-.32Zm1.94,.78l-1.36,5.76h-2.33l1.37-5.76h2.32Z"/>
      <path class="cls-1" d="M312.2,144.89c.36-.45,.79-.79,1.31-1.03,.51-.24,1.06-.36,1.65-.36,.77,0,1.36,.21,1.79,.63,.43,.42,.62,1.01,.59,1.76h-2.46c-.02-.3-.16-.45-.43-.45-.19,0-.36,.08-.5,.26-.15,.17-.26,.42-.34,.75s-.08,.59-.02,.76c.07,.17,.2,.25,.38,.25,.27,0,.48-.15,.64-.45h2.46c-.31,.75-.78,1.33-1.41,1.76-.63,.42-1.32,.63-2.09,.63-.59,0-1.08-.12-1.48-.36-.4-.24-.68-.58-.83-1.03-.15-.45-.15-.97-.01-1.57s.39-1.12,.75-1.57Z"/>
      <path class="cls-1" d="M319.7,142.8c-.19-.21-.26-.48-.18-.8s.26-.6,.55-.81c.29-.21,.64-.32,1.05-.32s.69,.11,.89,.32c.19,.21,.25,.49,.18,.81s-.26,.59-.55,.8c-.29,.21-.64,.32-1.03,.32s-.7-.11-.9-.32Zm1.94,.78l-1.33,5.76h-2.33l1.34-5.76h2.32Z"/>
      <path class="cls-1" d="M322.92,144.88c.31-.45,.68-.79,1.11-1.02,.42-.24,.87-.35,1.32-.35,.38,0,.7,.08,.94,.23,.24,.15,.41,.36,.49,.63l.18-.79h2.31l-1.31,5.76h-2.32l.18-.79c-.21,.27-.47,.47-.78,.63-.31,.15-.66,.23-1.05,.23-.46,0-.85-.12-1.17-.35-.32-.24-.53-.58-.64-1.02-.11-.45-.1-.97,.04-1.58s.37-1.13,.68-1.58Zm3.31,.86c-.12-.17-.31-.25-.56-.25s-.48,.08-.67,.25c-.2,.17-.33,.41-.41,.71s-.04,.54,.08,.71c.12,.17,.31,.25,.56,.25s.48-.08,.68-.25c.2-.17,.33-.41,.4-.71s.04-.54-.08-.71Z"/>
      <path class="cls-1" d="M336.42,144.2c.28,.44,.34,1.04,.17,1.8l-.75,3.34h-2.32l.69-3.05c.06-.27,.03-.49-.08-.65-.11-.16-.3-.24-.55-.24s-.48,.08-.66,.24c-.18,.16-.31,.38-.37,.65l-.69,3.05h-2.33l1.31-5.76h2.32l-.2,.88c.24-.27,.54-.49,.88-.66,.34-.17,.72-.26,1.14-.26,.68,0,1.15,.22,1.43,.66Z"/>
      <path class="cls-1" d="M343.87,143.74c.31-.15,.65-.23,1.04-.23,.46,0,.85,.12,1.17,.35,.32,.23,.53,.58,.65,1.02,.11,.45,.11,.97-.03,1.58s-.35,1.13-.66,1.58c-.31,.45-.68,.79-1.1,1.02-.42,.23-.86,.35-1.32,.35-.39,0-.7-.08-.94-.23-.24-.15-.41-.36-.5-.63l-.17,.79h-2.33l1.68-7.55h2.32l-.57,2.58c.21-.27,.46-.47,.77-.63Zm.39,2.01c-.12-.17-.31-.25-.56-.25s-.48,.08-.67,.25c-.2,.17-.33,.41-.4,.71s-.04,.54,.08,.71c.12,.17,.31,.25,.56,.25s.48-.08,.67-.25c.2-.17,.33-.41,.4-.71s.04-.54-.08-.71Z"/>
      <path class="cls-1" d="M353.55,146.86h-3.74c-.07,.5,.09,.75,.48,.75,.25,0,.46-.11,.62-.34h2.46c-.17,.41-.43,.77-.77,1.1-.34,.32-.73,.58-1.18,.77-.45,.19-.92,.28-1.41,.28-.59,0-1.08-.12-1.49-.36-.41-.24-.69-.58-.84-1.03-.16-.45-.17-.97-.04-1.57s.37-1.12,.72-1.57c.35-.45,.78-.79,1.29-1.03,.51-.24,1.05-.36,1.64-.36s1.08,.12,1.49,.35c.41,.23,.69,.57,.85,1,.16,.44,.18,.95,.05,1.54-.03,.16-.08,.31-.13,.45Zm-2.11-.99c.04-.19,.01-.33-.09-.43-.1-.1-.25-.15-.44-.15-.41,0-.69,.19-.85,.58h1.38Z"/>
      <path class="cls-1" d="M355.91,142.8c-.2-.21-.26-.48-.19-.8s.25-.6,.54-.81c.29-.21,.64-.32,1.04-.32s.69,.11,.89,.32c.2,.21,.26,.49,.19,.81s-.25,.59-.54,.8c-.29,.21-.63,.32-1.03,.32s-.71-.11-.9-.32Zm1.96,.78l-1.23,5.76h-2.33l1.24-5.76h2.32Z"/>
      <path class="cls-1" d="M365.01,144.2c.29,.44,.35,1.04,.19,1.8l-.7,3.34h-2.32l.64-3.05c.06-.27,.03-.49-.09-.65-.12-.16-.3-.24-.55-.24s-.48,.08-.66,.24c-.18,.16-.3,.38-.36,.65l-.65,3.05h-2.33l1.23-5.76h2.32l-.19,.88c.24-.27,.53-.49,.87-.66,.34-.17,.72-.26,1.14-.26,.68,0,1.16,.22,1.44,.66Z"/>
      <path class="cls-1" d="M370.32,143.74c.25,.15,.42,.36,.51,.63l.16-.79h2.31l-1.17,5.66c-.11,.54-.31,1.03-.61,1.47-.3,.44-.69,.8-1.2,1.06-.51,.27-1.11,.4-1.82,.4-.95,0-1.66-.22-2.13-.65-.47-.43-.66-1.02-.58-1.76h2.29c0,.3,.22,.45,.66,.45,.27,0,.5-.07,.68-.21,.18-.14,.31-.39,.39-.77l.14-.68c-.2,.27-.46,.47-.77,.63-.31,.15-.66,.23-1.04,.23-.46,0-.85-.12-1.17-.35-.32-.24-.54-.58-.66-1.02-.12-.45-.12-.97,.01-1.58s.34-1.13,.65-1.58c.31-.45,.67-.79,1.09-1.02,.42-.24,.86-.35,1.32-.35,.38,0,.7,.08,.95,.23Zm-.02,2.01c-.12-.17-.31-.25-.56-.25s-.47,.08-.67,.25c-.2,.17-.33,.41-.39,.71s-.03,.54,.09,.71c.12,.17,.31,.25,.56,.25s.48-.08,.67-.25c.2-.17,.33-.41,.39-.71s.03-.54-.09-.71Z"/>
      <path class="cls-1" d="M289.38,154.36l-1.77,7.23h-2.34l1.78-7.23h2.33Z"/>
      <path class="cls-1" d="M296.19,156.45c.27,.44,.32,1.04,.14,1.8l-.81,3.34h-2.33l.74-3.05c.07-.27,.04-.49-.07-.65-.11-.16-.29-.24-.55-.24s-.48,.08-.67,.24c-.19,.16-.31,.38-.38,.65l-.74,3.05h-2.34l1.41-5.76h2.33l-.21,.88c.25-.27,.55-.49,.89-.66,.35-.17,.73-.26,1.15-.26,.68,0,1.16,.22,1.43,.66Z"/>
      <path class="cls-1" d="M300.6,159.43l1.81-3.6h2.48l-3.35,5.76h-2.92l-.59-5.76h2.48l.09,3.6Z"/>
      <path class="cls-1" d="M310.97,159.11h-3.76c-.08,.5,.07,.75,.47,.75,.25,0,.46-.11,.63-.34h2.48c-.18,.41-.44,.77-.79,1.1-.35,.32-.75,.58-1.2,.77-.46,.19-.93,.28-1.42,.28-.59,0-1.09-.12-1.49-.36-.4-.24-.68-.58-.83-1.03-.15-.45-.15-.97-.01-1.57s.39-1.12,.76-1.57c.36-.45,.8-.79,1.32-1.03,.52-.24,1.07-.36,1.66-.36s1.08,.12,1.49,.35c.4,.23,.68,.57,.84,1,.15,.44,.16,.95,.02,1.54-.04,.16-.08,.31-.14,.45Zm-2.1-.99c.04-.19,.02-.33-.09-.43-.1-.1-.25-.15-.44-.15-.41,0-.7,.19-.86,.58h1.39Z"/>
      <path class="cls-1" d="M312.89,161.39c-.39-.18-.68-.42-.86-.73-.18-.31-.24-.67-.18-1.06h2.24c-.01,.17,.03,.3,.14,.38,.1,.08,.25,.12,.44,.12,.12,0,.22-.03,.3-.08,.08-.05,.13-.11,.15-.19,.03-.13-.02-.22-.16-.28-.13-.05-.37-.12-.7-.18-.41-.08-.74-.17-1-.27-.26-.1-.46-.26-.61-.49-.15-.23-.18-.55-.09-.96,.08-.35,.25-.67,.51-.96,.26-.29,.6-.52,1.02-.68,.42-.17,.9-.25,1.44-.25,.8,0,1.38,.19,1.74,.57,.36,.38,.52,.88,.47,1.49h-2.07c0-.16-.04-.28-.14-.36-.09-.09-.23-.13-.42-.13-.12,0-.22,.02-.29,.07-.07,.04-.12,.11-.14,.2-.03,.12,.03,.2,.16,.26,.13,.06,.36,.12,.66,.18,.41,.08,.75,.17,1.02,.28,.27,.1,.49,.28,.65,.53,.16,.25,.19,.59,.09,1.03-.08,.34-.25,.65-.52,.92-.27,.27-.61,.49-1.03,.64-.42,.16-.89,.23-1.4,.23-.56,0-1.04-.09-1.43-.27Z"/>
      <path class="cls-1" d="M322.46,159.66l-.44,1.93h-.89c-1.63,0-2.26-.79-1.9-2.36l.35-1.51h-.74l.44-1.89h.74l.32-1.39h2.33l-.32,1.39h.97l-.43,1.89h-.97l-.36,1.55c-.03,.14-.02,.23,.03,.3,.05,.06,.16,.09,.31,.09h.56Z"/>
      <path class="cls-1" d="M325.13,155.05c-.2-.21-.26-.48-.19-.8s.26-.6,.55-.81c.29-.21,.64-.32,1.05-.32s.7,.11,.89,.32c.2,.21,.26,.49,.18,.81s-.26,.59-.55,.8c-.29,.21-.64,.32-1.04,.32s-.71-.11-.91-.32Zm1.96,.78l-1.31,5.76h-2.34l1.32-5.76h2.33Z"/>
      <path class="cls-1" d="M331.77,155.99c.25,.15,.41,.36,.5,.63l.18-.79h2.32l-1.26,5.66c-.12,.54-.33,1.03-.63,1.47-.3,.44-.71,.8-1.23,1.06-.51,.27-1.13,.4-1.84,.4-.96,0-1.67-.22-2.13-.65-.46-.43-.65-1.02-.56-1.76h2.3c0,.3,.22,.45,.66,.45,.27,0,.5-.07,.69-.21,.18-.14,.32-.39,.4-.77l.15-.68c-.21,.27-.47,.47-.78,.63-.32,.15-.67,.23-1.05,.23-.46,0-.86-.12-1.18-.35-.32-.24-.54-.58-.65-1.02-.11-.45-.1-.97,.04-1.58s.36-1.13,.68-1.58c.31-.45,.68-.79,1.11-1.02,.42-.24,.87-.35,1.33-.35,.39,0,.7,.08,.95,.23Zm-.05,2.01c-.12-.17-.31-.25-.56-.25s-.48,.08-.68,.25c-.2,.17-.33,.41-.4,.71s-.04,.54,.08,.71c.12,.17,.31,.25,.56,.25s.48-.08,.68-.25c.2-.17,.33-.41,.4-.71s.04-.54-.08-.71Z"/>
      <path class="cls-1" d="M336.06,157.13c.31-.45,.68-.79,1.11-1.02,.42-.24,.87-.35,1.33-.35,.39,0,.7,.08,.95,.23,.25,.15,.41,.36,.5,.63l.17-.79h2.32l-1.27,5.76h-2.33l.17-.79c-.21,.27-.47,.47-.78,.63-.32,.15-.67,.23-1.05,.23-.46,0-.86-.12-1.18-.35-.32-.24-.54-.58-.65-1.02-.12-.45-.1-.97,.03-1.58s.36-1.13,.67-1.58Zm3.34,.86c-.12-.17-.31-.25-.56-.25s-.48,.08-.68,.25c-.2,.17-.33,.41-.4,.71s-.04,.54,.08,.71c.12,.17,.31,.25,.56,.25s.48-.08,.68-.25c.2-.17,.33-.41,.4-.71s.04-.54-.08-.71Z"/>
      <path class="cls-1" d="M346.88,159.66l-.42,1.93h-.89c-1.63,0-2.27-.79-1.93-2.36l.33-1.51h-.74l.41-1.89h.74l.3-1.39h2.33l-.3,1.39h.97l-.41,1.89h-.97l-.34,1.55c-.03,.14-.02,.23,.04,.3,.05,.06,.16,.09,.31,.09h.56Z"/>
      <path class="cls-1" d="M354.14,159.11h-3.76c-.07,.5,.09,.75,.48,.75,.25,0,.46-.11,.62-.34h2.48c-.17,.41-.43,.77-.77,1.1-.34,.32-.74,.58-1.19,.77-.45,.19-.92,.28-1.41,.28-.59,0-1.09-.12-1.5-.36-.41-.24-.69-.58-.85-1.03-.16-.45-.17-.97-.04-1.57s.37-1.12,.72-1.57c.35-.45,.78-.79,1.29-1.03,.51-.24,1.06-.36,1.65-.36s1.09,.12,1.5,.35c.41,.23,.69,.57,.86,1,.16,.44,.18,.95,.05,1.54-.03,.16-.08,.31-.13,.45Zm-2.12-.99c.04-.19,0-.33-.1-.43-.1-.1-.25-.15-.44-.15-.41,0-.7,.19-.85,.58h1.39Z"/>
      <path class="cls-1" d="M355.86,157.13c.31-.45,.67-.79,1.1-1.02,.42-.24,.86-.35,1.33-.35,.39,0,.7,.08,.95,.23,.24,.15,.41,.36,.5,.63l.55-2.58h2.33l-1.59,7.55h-2.34l.17-.79c-.2,.27-.46,.47-.77,.63-.31,.15-.66,.23-1.05,.23-.46,0-.86-.12-1.18-.35-.32-.24-.54-.58-.66-1.02-.12-.45-.11-.97,.02-1.58s.35-1.13,.66-1.58Zm3.35,.86c-.13-.17-.31-.25-.57-.25s-.48,.08-.67,.25c-.2,.17-.33,.41-.39,.71s-.04,.54,.09,.71c.13,.17,.31,.25,.57,.25s.48-.08,.68-.25c.2-.17,.33-.41,.39-.71s.03-.54-.09-.71Z"/>
    </g>
    <polygon class="cls-7" points="269.21 169.76 365.02 169.47 366.65 174.88 267.96 174.68 269.21 169.76"/>
    <polygon class="cls-7" points="266.63 179.94 336.78 179.94 333.55 184.51 265.47 184.51 266.63 179.94"/>
    <polygon class="cls-7" points="267.08 188.65 361.49 190.34 358.16 195.87 262.21 195.87 267.08 188.65"/>
    <polygon class="cls-5" points="264.21 201.13 309.14 207.59 306.93 213.37 256.9 211.48 264.21 201.13"/>
    <polygon class="cls-7" points="319.71 201.7 367.5 201.7 358.59 255.05 314.57 255.82 319.71 201.7"/>
    <polygon class="cls-5" points="304.53 218.31 260.22 217.14 256.13 222.98 300.42 225.49 304.53 218.31"/>
    <polygon class="cls-5" points="256.43 230.93 310.79 229.27 309.69 234.11 252.24 235.25 256.43 230.93"/>
    <polygon class="cls-5" points="254.13 240.07 308.91 238.13 310.4 242.95 249.7 245.28 254.13 240.07"/>
    <polygon class="cls-5" points="309.04 248.94 307.82 254.37 247.22 255.05 248.77 248.94 309.04 248.94"/>
  </g>
  <g>
    <polygon class="cls-1" points="30.86 329.59 123.24 307.86 154.61 438.83 61.33 460.52 30.86 329.59"/>
    <polygon class="cls-14" points="37.2 333.87 42.97 358.99 125.79 339.76 119.89 314.08 37.2 333.87"/>
    <g>
      <path class="cls-1" d="M75.01,340.81l-2.55,.59-.11,1.24-2.51,.58,1.04-8.28,2.76-.63,4.54,7-2.53,.58-.64-1.07Zm-1-1.67l-1.18-1.97-.2,2.28,1.38-.32Z"/>
      <path class="cls-1" d="M84.7,336.37c.33,.28,.55,.63,.65,1.07,.15,.67,.05,1.24-.31,1.7-.36,.46-.95,.79-1.78,.98l-4,.92-1.76-7.64,3.9-.9c.78-.18,1.43-.15,1.95,.09,.52,.24,.86,.68,1.01,1.32,.1,.45,.07,.85-.09,1.21-.16,.36-.43,.63-.79,.82,.49,0,.89,.14,1.23,.42Zm-4.12-.54l.93-.21c.22-.05,.37-.13,.45-.24,.08-.11,.11-.25,.06-.43s-.13-.31-.25-.38c-.13-.07-.3-.07-.51-.02l-.93,.21,.25,1.08Zm2.17,2.26c.09-.11,.11-.25,.06-.44-.08-.37-.34-.5-.76-.4l-1.09,.25,.25,1.08,1.09-.25c.22-.05,.37-.13,.45-.23Z"/>
      <path class="cls-1" d="M86.08,333.32c.17-.66,.5-1.22,1-1.68,.49-.46,1.12-.78,1.89-.95,.66-.15,1.28-.16,1.86-.04,.58,.13,1.08,.38,1.52,.76,.43,.38,.77,.86,1.02,1.44l-2.53,.58c-.17-.23-.38-.38-.63-.48-.24-.09-.5-.11-.78-.04-.4,.09-.69,.32-.85,.67-.16,.36-.19,.79-.07,1.3s.33,.89,.63,1.14c.3,.25,.66,.33,1.06,.23,.27-.06,.5-.19,.68-.38,.18-.19,.3-.42,.36-.7l2.53-.58c.03,.63-.06,1.21-.29,1.74s-.57,.98-1.03,1.34c-.46,.37-1.03,.63-1.69,.78-.77,.18-1.48,.17-2.12-.03-.64-.2-1.19-.55-1.63-1.07s-.75-1.16-.92-1.91-.18-1.46,0-2.12Z"/>
    </g>
    <g>
      <polygon class="cls-14" points="45.79 363.52 83.04 356.03 85.42 360.72 46.35 368.95 45.79 363.52"/>
      <polygon class="cls-14" points="47.07 371.61 87.75 363.41 89.86 368.33 48.57 377.33 47.07 371.61"/>
      <polygon class="cls-14" points="89 353.88 89.86 360 126.42 350.22 125.24 345.08 89 353.88"/>
      <polygon class="cls-14" points="90.78 361.97 127.07 353.33 128.46 359.38 94.27 366.68 90.78 361.97"/>
    </g>
    <polygon class="cls-14" points="58.33 399.35 134.91 383.39 135.83 387.39 57.17 404.17 58.33 399.35"/>
    <polygon class="cls-14" points="59.9 408.13 113.55 396.32 115.61 399.27 60.79 412.02 59.9 408.13"/>
    <polygon class="cls-10" points="58.7 418.85 85.96 412.02 97.52 448 66.5 453.66 58.7 418.85"/>
    <polygon class="cls-10" points="91.92 411.19 125.99 403.36 127.32 410.97 95.18 418.58 91.92 411.19"/>
    <polygon class="cls-14" points="106.72 421.3 139.2 413.84 139.84 416.62 97.02 426.96 95.48 424.41 106.72 421.3"/>
    <polygon class="cls-14" points="99.79 431.1 144.61 419.66 145.47 423.42 97.96 435.69 99.79 431.1"/>
    <polygon class="cls-14" points="99.44 439.44 143.18 427.94 143.99 431.48 100.96 441.84 99.44 439.44"/>
    <g>
      <path class="cls-19" d="M53.05,383.27l1,4.65c.08,.38,.23,.66,.44,.85,.21,.19,.51,.24,.88,.16s.62-.25,.75-.51c.13-.26,.16-.58,.08-.96l-1-4.65,2.57-.55,1,4.65c.17,.78,.15,1.49-.06,2.11-.21,.62-.56,1.14-1.07,1.54-.51,.4-1.11,.68-1.81,.83-.7,.15-1.35,.14-1.95-.02-.6-.16-1.11-.49-1.53-.97-.42-.49-.72-1.13-.89-1.92l-1-4.65,2.57-.55Z"/>
      <path class="cls-19" d="M66.35,382.91c.53,.41,.89,1.05,1.07,1.91l.82,3.81-2.57,.55-.75-3.48c-.07-.31-.2-.54-.41-.68-.21-.15-.45-.19-.73-.13-.29,.06-.49,.2-.62,.42s-.15,.48-.08,.79l.75,3.48-2.58,.56-1.41-6.57,2.58-.56,.21,1c.13-.35,.35-.66,.65-.93,.3-.27,.68-.45,1.14-.55,.75-.16,1.39-.04,1.93,.38Z"/>
      <path class="cls-19" d="M68.86,383.18c.13-.56,.37-1.02,.72-1.37,.35-.36,.79-.59,1.3-.7,.43-.09,.81-.08,1.16,.03,.34,.11,.63,.3,.86,.56l-.63-2.95,2.58-.55,1.85,8.62-2.58,.55-.19-.9c-.1,.34-.28,.63-.55,.87-.27,.24-.62,.41-1.04,.5-.51,.11-1,.08-1.47-.1-.47-.18-.88-.5-1.22-.96-.35-.46-.59-1.03-.74-1.72-.15-.69-.16-1.32-.03-1.88Zm4.12,.14c-.22-.16-.47-.2-.75-.14-.28,.06-.49,.21-.62,.44-.14,.23-.17,.52-.09,.87,.08,.35,.22,.6,.44,.76,.22,.15,.47,.2,.75,.14,.28-.06,.49-.21,.62-.44,.14-.23,.17-.52,.09-.87s-.22-.6-.44-.76Z"/>
      <path class="cls-19" d="M84.16,382.25l-4.16,.89c.16,.56,.46,.79,.89,.7,.28-.06,.45-.23,.52-.51l2.74-.59c0,.48-.1,.95-.32,1.38-.22,.43-.53,.81-.94,1.12s-.88,.52-1.43,.64c-.65,.14-1.26,.13-1.83-.03-.57-.16-1.05-.47-1.44-.92s-.66-1.01-.81-1.7c-.15-.68-.13-1.31,.04-1.88,.17-.57,.49-1.04,.94-1.42,.45-.38,1-.64,1.65-.78,.65-.14,1.26-.13,1.83,.03s1.04,.46,1.43,.89c.39,.43,.66,.99,.8,1.67,.04,.18,.06,.35,.08,.52Zm-2.83-.58c-.05-.22-.15-.37-.32-.45-.16-.08-.35-.1-.56-.06-.46,.1-.68,.38-.66,.84l1.54-.33Z"/>
      <path class="cls-19" d="M88.4,377.74c.33-.31,.7-.51,1.11-.6l.59,2.76-.73,.16c-.49,.1-.83,.27-1.02,.49-.19,.22-.24,.55-.15,.98l.58,2.69-2.58,.56-1.41-6.57,2.58-.56,.26,1.21c.18-.44,.44-.81,.77-1.12Z"/>
      <path class="cls-19" d="M96.69,375.84c.27-.24,.62-.41,1.04-.5,.51-.11,1-.07,1.47,.1,.47,.18,.88,.5,1.22,.96,.35,.46,.59,1.03,.74,1.72,.15,.69,.16,1.32,.03,1.88-.13,.56-.37,1.02-.72,1.37-.35,.36-.79,.59-1.3,.7-.43,.09-.81,.08-1.16-.03-.34-.11-.63-.3-.86-.56l.87,4.04-2.58,.56-2.09-9.71,2.58-.55,.19,.9c.1-.34,.28-.63,.55-.87Zm1.42,2.09c-.22-.16-.47-.21-.75-.14-.28,.06-.49,.21-.62,.44-.14,.23-.17,.52-.09,.87,.08,.35,.22,.6,.44,.76,.22,.16,.47,.2,.75,.14,.28-.06,.49-.21,.62-.44s.17-.52,.09-.87c-.07-.35-.22-.6-.44-.76Z"/>
      <path class="cls-19" d="M105.48,374.07c.33-.31,.7-.51,1.11-.6l.59,2.76-.73,.16c-.49,.11-.83,.27-1.02,.49-.19,.22-.24,.55-.15,.98l.58,2.69-2.58,.56-1.41-6.57,2.58-.56,.26,1.21c.18-.44,.44-.81,.77-1.12Z"/>
      <path class="cls-19" d="M110.56,379.2c-.59-.16-1.08-.46-1.49-.91-.41-.44-.69-1.01-.83-1.69-.15-.68-.12-1.31,.06-1.88,.19-.57,.52-1.05,.99-1.44,.47-.38,1.03-.65,1.69-.79s1.28-.13,1.87,.03c.59,.16,1.08,.46,1.49,.9s.68,1.01,.83,1.69c.15,.68,.13,1.31-.06,1.88-.19,.57-.52,1.05-.99,1.44-.47,.38-1.04,.65-1.69,.79s-1.28,.13-1.87-.02Zm1.93-2.63c.12-.23,.14-.52,.06-.9s-.22-.64-.42-.79c-.2-.15-.43-.21-.67-.15s-.42,.19-.54,.41c-.12,.23-.14,.52-.06,.9s.22,.64,.42,.79c.2,.16,.42,.21,.67,.15,.24-.05,.42-.19,.54-.42Z"/>
      <path class="cls-19" d="M119.2,371c.27-.24,.62-.41,1.04-.5,.51-.11,1-.07,1.47,.1,.47,.18,.88,.5,1.22,.96,.35,.46,.59,1.03,.74,1.72,.15,.69,.16,1.32,.03,1.88-.13,.56-.37,1.02-.72,1.37-.35,.36-.79,.59-1.3,.7-.43,.09-.81,.08-1.16-.03-.34-.11-.63-.3-.86-.56l.19,.9-2.58,.55-1.85-8.62,2.59-.55,.63,2.95c.1-.34,.28-.63,.55-.87Zm1.42,2.09c-.22-.16-.47-.2-.75-.14-.28,.06-.49,.21-.62,.44-.14,.23-.17,.52-.09,.87,.08,.35,.22,.6,.44,.76,.22,.15,.47,.2,.75,.14,.28-.06,.49-.21,.62-.44,.14-.23,.17-.52,.09-.87-.08-.35-.22-.6-.44-.76Z"/>
      <path class="cls-19" d="M131.49,372.08l-4.16,.89c.16,.56,.46,.79,.89,.7,.28-.06,.45-.23,.52-.51l2.74-.59c0,.49-.1,.95-.32,1.38-.22,.43-.53,.81-.94,1.12-.41,.31-.88,.52-1.43,.64-.65,.14-1.26,.13-1.83-.03-.57-.16-1.05-.47-1.44-.92-.39-.45-.66-1.01-.81-1.7-.15-.68-.13-1.31,.04-1.88,.17-.57,.49-1.04,.94-1.42s1-.64,1.65-.78c.65-.14,1.26-.13,1.83,.03,.56,.16,1.04,.46,1.43,.89,.39,.44,.66,.99,.8,1.67,.04,.18,.06,.35,.07,.52Zm-2.83-.57c-.05-.22-.15-.37-.32-.45s-.35-.1-.56-.06c-.46,.1-.68,.38-.66,.84l1.54-.33Z"/>
    </g>
  </g>
  <g>
    <path class="cls-14" d="M73.26,73.27S108.78,29.8,166.5,29.8s98.75,43.47,98.75,43.47c0,0-41.66,43.01-98.75,43.01s-93.24-43.01-93.24-43.01Z"/>
    <circle class="cls-2" cx="169.26" cy="73.04" r="37.96"/>
    <circle class="cls-14" cx="168.75" cy="73.04" r="17.98"/>
    <circle class="cls-7" cx="182.67" cy="63.2" r="6.96"/>
  </g>
  <g>
    <circle class="cls-20" cx="362.76" cy="355.57" r="44.81"/>
    <g class="cls-11">
      <g>
        <polygon class="cls-7" points="348.28 310.96 351.29 324.03 363.88 326.98 368.25 335.44 377.31 330.13 388.23 316.16 369.14 307.2 348.28 310.96"/>
        <polygon class="cls-7" points="363.94 338.83 357.73 344.29 358.41 360.37 367.33 364.31 375.35 370.4 388.23 371 388.9 367.59 379.42 363.04 373.32 353.33 372.29 343.17 363.94 338.83"/>
        <polygon class="cls-7" points="402.8 328.69 384.84 342.41 387.21 352.03 395.12 356.79 395.23 360.52 414.77 367.68 402.8 328.69"/>
        <polygon class="cls-7" points="316.97 371.57 323.88 371.57 337.59 375.37 353.05 382.06 363.69 396.17 366.57 406.26 328.61 393.76 316.97 371.57"/>
        <polygon class="cls-7" points="381.69 382.68 378.81 385.36 385.49 398.83 392.49 393.07 381.69 382.68"/>
        <polygon class="cls-7" points="349.28 335.44 349.28 339.86 353.05 342.78 357.73 340.27 349.28 335.44"/>
        <polygon class="cls-7" points="334.68 324.46 329.74 343.97 331.8 349.18 333.08 357.46 327.96 365.7 315.75 360.37 317.6 336.7 327 323.94 334.68 324.46"/>
      </g>
    </g>
  </g>
  <g>
    <g>
      <polygon class="cls-5" points="292.81 321.01 313.18 330.13 299.8 362.34 270.64 351.25 273.24 321.01 292.81 321.01"/>
      <path class="cls-3" d="M294.33,360.16l-1.21-.26,3.39-15.66-23.22-11.97,.57-1.1,23.65,12.18c.25,.13,.38,.41,.32,.68l-3.49,16.12Z"/>
      <path class="cls-3" d="M297.62,361.6l-1.18-.37,5.99-19.37-14.51-13.05,.83-.92,14.8,13.31c.18,.16,.25,.41,.18,.64l-6.1,19.75Z"/>
    </g>
    <polygon class="cls-5" points="164.98 245.2 215.04 210.05 296.83 241.95 287.83 309.98 265.97 322.81 164.98 245.2"/>
    <g>
      <polygon class="cls-9" points="275.59 308.81 291.39 303.22 293.05 329.18 275.59 332.66 275.59 308.81"/>
      <path class="cls-12" d="M275.98,322.73l-.97-.77,7.56-9.56c.06-.08,.15-.15,.25-.19l4.6-1.93,.48,1.14-4.45,1.87-7.46,9.43Z"/>
    </g>
    <polygon class="cls-9" points="250.69 362.34 264.78 403.09 243.35 432.71 212.56 403.09 205.84 379.88 250.69 362.34"/>
    <path class="cls-8" d="M156.68,394.39c-16.9,36.72-50.13,107.16-50.13,107.16l233.65-2.64-28.01-102.92-49.94-.22-19.1,13.93,.2,21.03-6.08-20.22-27.22-16.13"/>
    <path class="cls-4" d="M275.71,279.11l.17,65.18c.01,4.52-2.38,8.7-6.27,10.99l-55.08,32.36c-3.41,2-7.69,1.72-10.8-.72l-35.1-27.45c-3.97-3.1-6.24-7.89-6.14-12.93l1.01-67.01,48.78-29.48,63.43,29.05Z"/>
    <path class="cls-5" d="M232.51,258c-23.77,13.68-69.05,40.99-69.05,40.99l.12-53.81s36.41,.36,52.01-.2c5.62,4.86,11.3,8.15,16.92,13.01Z"/>
    <g>
      <path class="cls-8" d="M202.67,296.07c.4,13.81,1.19,41.43,1.19,41.43l-12.61,.25s-3.17-29.88,11.42-41.68Z"/>
      <path class="cls-12" d="M191.25,338.4c-.34,0-.62-.25-.65-.59-.13-1.23-3.04-30.38,11.66-42.26,.2-.16,.46-.19,.69-.09,.23,.1,.38,.33,.38,.58l1.19,41.43c0,.17-.06,.35-.18,.47s-.29,.2-.46,.2l-12.61,.25h-.01Zm10.8-40.93c-11.91,11.01-10.53,35.46-10.2,39.61l11.33-.22-1.13-39.38Z"/>
    </g>
    <path class="cls-12" d="M237.76,374.61c-.29,0-.55-.21-.61-.51-.77-4.21-1.35-12.54,3.52-20.96,3.77-6.53,9.68-11.21,17.56-13.9,6.87-2.34,13.1-1.97,17.13-1.24,.33,.06,.56,.38,.5,.72-.06,.34-.38,.56-.72,.5-3.88-.7-9.89-1.06-16.51,1.2-7.59,2.59-13.27,7.08-16.89,13.34-4.66,8.08-4.11,16.07-3.37,20.12,.06,.33-.16,.66-.5,.72-.04,0-.08,.01-.11,.01Z"/>
    <path class="cls-12" d="M186.36,373.96s-.05,0-.07,0c-.34-.04-.58-.35-.54-.69,.45-3.88,1.34-17.24-6.07-26.45-5.72-7.11-13.1-9.72-16.99-10.64-.33-.08-.54-.41-.46-.74,.08-.33,.42-.53,.74-.46,4.04,.96,11.71,3.67,17.66,11.07,7.71,9.59,6.8,23.37,6.33,27.36-.04,.31-.3,.55-.61,.55Z"/>
    <path class="cls-3" d="M192.78,244.61s56.39,44.77,84.62,68.64c-.77-22.02-2.37-69.28-2.37-69.28l-82.24,.64Z"/>
    <path class="cls-19" d="M209.05,365.58l-1.25-.12,.06-.63c.02-.22,.6-5.42,7.96-9.97,7.4-4.57,14.06-1.31,14.34-1.17l.56,.28-.57,1.12-.56-.28c-.06-.03-6.33-3.08-13.1,1.11-6.79,4.2-7.37,8.97-7.37,9.02l-.07,.62Z"/>
    <polygon class="cls-19" points="344.22 505.26 336.63 472.35 236.25 457.53 229.42 502.62 344.22 505.26"/>
    <g>
      <path class="cls-5" d="M177.77,423.6l39.99-2.94c3.95-.29,7.34,2.78,7.45,6.74l1.68,66.39c.1,3.9-3.04,7.11-6.94,7.11h-33.23c-3.48,0-6.42-2.58-6.88-6.02l-8.43-63.45c-.53-3.96,2.39-7.54,6.37-7.83Z"/>
      <path class="cls-18" d="M179.2,428.95l37.3-2.74c3.69-.27,6.85,2.6,6.95,6.29l1.57,61.94c.09,3.64-2.83,6.64-6.47,6.64h-31c-3.25,0-5.99-2.4-6.42-5.62l-7.86-59.19c-.49-3.69,2.23-7.03,5.94-7.31Z"/>
      <circle class="cls-5" cx="180.63" cy="436.91" r="3.45"/>
      <circle class="cls-5" cx="180.42" cy="445.35" r="1.92"/>
    </g>
    <g>
      <path class="cls-4" d="M164.18,461.34v-14.5h7.95l-.8,13,16.27-3.41v41.27c0,.09-.07,.17-.17,.17h-17.7l-5.56-36.53Z"/>
      <path class="cls-12" d="M172.43,469.45c-.31,0-.58-.22-.62-.54-.05-.34,.19-.67,.53-.72l14.37-2.14c.34-.06,.66,.19,.72,.53,.05,.34-.19,.67-.53,.72l-14.37,2.14s-.06,0-.09,0Z"/>
      <path class="cls-12" d="M174.19,478.06c-.32,0-.59-.24-.63-.57-.04-.35,.22-.66,.56-.69l12.53-1.29c.35-.03,.66,.22,.69,.56,.04,.35-.22,.66-.56,.69l-12.53,1.29s-.04,0-.07,0Z"/>
      <path class="cls-12" d="M174.29,487c-.34,0-.62-.28-.63-.62,0-.35,.27-.63,.62-.64l12.63-.2c.36,.03,.63,.27,.64,.62,0,.35-.27,.63-.62,.64l-12.63,.2h0Z"/>
    </g>
    <g>
      <path class="cls-4" d="M235.4,462.32v-14.5h-7.95l.8,13-16.27-3.41v41.27c0,.09,.07,.17,.17,.17h17.7l5.56-36.53Z"/>
      <path class="cls-12" d="M227.16,470.43s-.06,0-.09,0l-14.37-2.14c-.34-.05-.58-.37-.53-.72s.38-.58,.72-.53l14.37,2.14c.34,.05,.58,.37,.53,.72-.05,.31-.32,.54-.62,.54Z"/>
      <path class="cls-12" d="M225.4,479.04s-.04,0-.07,0l-12.53-1.29c-.35-.04-.6-.35-.56-.69,.04-.35,.33-.59,.69-.56l12.53,1.29c.35,.04,.6,.35,.56,.69-.03,.33-.31,.57-.63,.57Z"/>
      <path class="cls-12" d="M225.3,487.98h0l-12.63-.2c-.35,0-.63-.29-.62-.64,0-.35,.33-.63,.64-.62l12.63,.2c.35,0,.63,.29,.62,.64,0,.35-.29,.62-.63,.62Z"/>
    </g>
    <polygon class="cls-19" points="102.52 502.35 113.81 469.45 164.18 460.77 171.34 502.08 102.52 502.35"/>
    <g>
      <path class="cls-17" d="M173.12,320.13c-2.83,2.33-2.04,6.57-1.84,7.66,.23,1.22,.86,4.63,3.54,5.59,1.88,.67,3.63-.28,3.72-.34,2.83-1.6,2.68-5.92,2.62-7.4-.07-1.92-.2-5.31-2.58-6.49-1.82-.91-4.12-.12-5.46,.99Z"/>
      <path class="cls-5" d="M163.11,324.37c1.85-1.19,2.65-2.97,9.15-4.49s13.68,4.25,13.68,4.25l1.01-1.36s-6.37-5.47-13.16-5.01-10.1,3.58-11.81,4.75l1.13,1.87Z"/>
      <polygon class="cls-5" points="161.25 318.95 161.97 322.5 164.82 321.01 161.25 318.95"/>
    </g>
    <g>
      <path class="cls-17" d="M237.87,321.64c2.83,2.33,2.04,6.57,1.84,7.66-.23,1.22-.86,4.63-3.54,5.59-1.88,.67-3.63-.28-3.72-.34-2.83-1.6-2.68-5.92-2.62-7.4,.07-1.92,.2-5.31,2.58-6.49,1.82-.91,4.12-.12,5.46,.99Z"/>
      <path class="cls-5" d="M247.88,325.87c-1.85-1.19-2.65-2.97-9.15-4.49s-13.68,4.25-13.68,4.25l-1.01-1.36s6.37-5.47,13.16-5.01c6.79,.46,10.1,3.58,11.81,4.75l-1.13,1.87Z"/>
      <polygon class="cls-5" points="249.74 320.46 249.02 324.01 246.17 322.52 249.74 320.46"/>
    </g>
    <g>
      <path class="cls-3" d="M193.04,244.7s56.74,45.04,85.14,69.06c-.71-17.12-1.3-34.39-1.77-51.82-.17-6.32-.33-12.62-.47-18.9-27.63,.55-55.26,1.11-82.89,1.66Z"/>
      <polygon class="cls-3" points="163.69 246.35 163.66 245.11 164.28 245.09 297.43 241.9 297.46 243.15 296.84 243.16 163.69 246.35"/>
      <rect class="cls-5" x="263.2" y="235.86" width="1.24" height="77.97" transform="translate(-76.67 103.96) rotate(-19.52)"/>
      <rect class="cls-5" x="247.59" y="231.19" width="1.24" height="89.33" transform="translate(-118.78 220.91) rotate(-39.5)"/>
    </g>
    <polygon class="cls-3" points="225.09 299.3 256.05 289.98 253.9 278.55 222.19 292.49 225.09 299.3"/>
    <polygon class="cls-3" points="184.85 299.3 153.89 289.98 156.04 278.55 187.75 292.49 184.85 299.3"/>
  </g>
  <path class="cls-14" d="M398.65,243.33c-5.83,0-10.75-3.94-15.52-7.76-5.35-4.28-10.4-8.32-16.68-7.58-4.36,.52-8.54,3.29-12.42,8.25l-2.3-1.8c4.38-5.59,9.22-8.74,14.38-9.35,7.5-.89,13.27,3.73,18.85,8.2,4.97,3.97,9.66,7.73,15.01,7.03,5.16-.68,10.01-5.45,14.43-14.18l2.61,1.32c-4.88,9.64-10.48,14.95-16.66,15.76-.57,.07-1.14,.11-1.69,.11Z"/>
  <path class="cls-14" d="M399.83,259.07c-5.83,0-10.75-3.94-15.52-7.76-5.35-4.28-10.4-8.33-16.68-7.58-4.36,.52-8.54,3.29-12.42,8.25l-2.3-1.8c4.38-5.59,9.22-8.74,14.38-9.35,7.5-.89,13.27,3.73,18.85,8.2,4.97,3.98,9.65,7.74,15.01,7.03,5.16-.68,10.01-5.45,14.43-14.18l2.61,1.32c-4.88,9.64-10.48,14.95-16.66,15.76-.57,.07-1.14,.11-1.69,.11Z"/>
  <polygon class="cls-6" points="285.51 78.25 328.75 68.88 316.22 56.63 343.66 35.33 331.33 19.22 307.46 45.39 295.53 33.68 285.51 78.25"/>
  <g>
    <polygon class="cls-7" points="22.48 97.19 123.66 99.75 116.82 155.93 62.92 156.83 40.05 177.91 43.98 155.93 18.96 151.77 22.48 97.19"/>
    <g>
      <circle class="cls-1" cx="50.27" cy="126.08" r="18.44"/>
      <path class="cls-14" d="M40.46,114.67c2.45,1.66,4.9,3.32,7.35,4.97-1.66,1.93-4.53,2.16-6.33,.68-1.59-1.31-2.06-3.69-1.02-5.65Z"/>
      <path class="cls-14" d="M60,114.67c-2.45,1.66-4.9,3.32-7.35,4.97,1.66,1.93,4.53,2.16,6.33,.68,1.59-1.31,2.06-3.69,1.02-5.65Z"/>
      <path class="cls-14" d="M58.36,126.97c-1.36-1.01-4.24-2.7-8.19-2.73h-.09c-3.81,0-6.63,1.57-7.98,2.51l-.57-.82c1.46-1.02,4.52-2.71,8.66-2.69,4.23,.03,7.31,1.85,8.77,2.92l-.59,.8Z"/>
    </g>
    <g>
      <polygon class="cls-13" points="98.39 105.95 84.56 118.96 83.83 113.4 76.01 127.33 76.79 135.93 79.52 144.19 88.48 149.15 103.85 144.45 107.49 137.32 102.33 120.24 102.17 113.21 97.55 116.32 98.39 105.95"/>
      <polygon class="cls-22" points="91.31 121.46 85.17 130.08 82.76 128.15 81.65 132.61 82.59 141.31 89.7 145.39 101.46 140.78 97.68 130.93 97.68 123.92 91.31 128.99 91.31 121.46"/>
    </g>
  </g>
  <g>
    <rect class="cls-21" x=".03" y="296.62" width="61.96" height="5"/>
    <rect class="cls-21" x=".06" y="283.18" width="32.52" height="5"/>
    <rect class="cls-21" x=".03" y="271.49" width="26.04" height="5"/>
    <rect class="cls-21" x="27.58" y="271.49" width="12.62" height="5"/>
    <rect class="cls-21" x="35.2" y="283.18" width="8.45" height="5"/>
    <rect class="cls-21" x="66.11" y="296.62" width="18.11" height="5"/>
  </g>
</svg>