<?xml version="1.0" encoding="UTF-8"?>
<svg id="Layer_2" data-name="Layer 2" xmlns="http://www.w3.org/2000/svg" viewBox="0 0 428 515.21">
  <defs>
    <style>
      .cls-1 {
        fill: #fff;
      }

      .cls-2 {
        fill: #181216;
      }

      .cls-3 {
        fill: #ef9d7f;
      }

      .cls-4 {
        fill: #363636;
      }

      .cls-5 {
        fill: #fac300;
      }

      .cls-6 {
        fill: #d6d6d6;
      }

      .cls-7 {
        fill: #f55;
      }

      .cls-8 {
        fill: #623628;
      }

      .cls-9 {
        fill: #e58e73;
      }

      .cls-10 {
        fill: #f80500;
      }

      .cls-11 {
        fill: #ab7a5a;
      }

      .cls-12 {
        fill: #e5e5e5;
      }

      .cls-13 {
        fill: #353535;
      }

      .cls-14 {
        fill: #515151;
      }

      .cls-15 {
        fill: #9e6647;
      }

      .cls-16 {
        fill: #b72c2c;
      }

      .cls-17 {
        fill: #ffbba6;
      }

      .cls-18 {
        fill: #e08bfc;
      }

      .cls-19 {
        fill: #4ea978;
      }

      .cls-20 {
        fill: #d46cff;
      }

      .cls-21 {
        fill: #e27c5d;
      }

      .cls-22 {
        fill: #3864ab;
      }

      .cls-23 {
        fill: #f7a22d;
      }
    </style>
  </defs>
  <polygon class="cls-20" points="116.59 33.75 233.24 29.8 233.24 175.71 212.83 175.71 203.27 188.29 184.51 178.75 166.65 190.08 164.5 184.86 128.57 197.27 109.83 186.46 116.59 33.75"/>
  <g>
    <rect class="cls-4" x="73.73" y="210.31" width="98.57" height="2.58"/>
    <rect class="cls-4" x="85.97" y="224.41" width="52.91" height="2.58"/>
    <rect class="cls-4" x="47.35" y="237.88" width="43.43" height="2.58"/>
  </g>
  <g>
    <polygon class="cls-12" points="325.29 155.39 344.42 159.74 330.46 203.12 250.8 219.54 232.67 165.43 254.46 158.9 265.37 182.63 325.29 155.39"/>
    <polygon class="cls-15" points="254 140.46 258.93 145.28 254.46 158.9 247.73 156.06 254 140.46"/>
    <g>
      <polygon class="cls-11" points="254.88 159.26 250.41 135.79 224.92 142.88 232.67 165.43 254.88 159.26"/>
      <path class="cls-1" d="M246.84,151.58c-.19,0-.36-.14-.39-.33l-2.08-12.43c-.04-.22,.11-.42,.33-.46,.22-.04,.42,.11,.46,.33l2.08,12.43c.04,.22-.11,.42-.33,.46-.02,0-.04,0-.07,0Z"/>
      <path class="cls-1" d="M241.12,155.22c-.18,0-.34-.12-.39-.29l-3.94-14.19c-.06-.21,.07-.43,.28-.49,.22-.06,.43,.07,.49,.28l3.94,14.19c.06,.21-.07,.43-.28,.49-.04,0-.07,.01-.11,.01Z"/>
      <path class="cls-1" d="M234.92,160.82c-.17,0-.32-.11-.38-.28l-5.79-17.56c-.07-.21,.04-.44,.25-.5,.21-.07,.44,.04,.5,.25l5.79,17.56c.07,.21-.04,.44-.25,.5-.04,.01-.08,.02-.12,.02Z"/>
    </g>
  </g>
  <g>
    <polygon class="cls-1" points="55.88 160.6 55.88 16.05 217.85 16.05 217.85 165.83 210.02 159.61 201.7 170.08 195.59 153.73 177.2 172.67 162.97 157.49 143.46 182.97 123.41 166.63 111.14 175.67 105.26 163.48 94.44 181.99 89.64 160.6 85.77 176.85 78.89 160.6 74.47 172.08 72.41 160.6 65.66 172.08 62.59 160.6 59.3 174.58 55.88 160.6"/>
    <polygon class="cls-19" points="67.89 27.6 67.89 47.7 206.52 47.7 206.52 25.65 67.89 27.6"/>
    <path class="cls-4" d="M124.76,97.25h-2.52l1.35-3.37h1.67l-.5,3.37Zm3.09,0h-2.52l1.35-3.37h1.67l-.5,3.37Z"/>
    <path class="cls-4" d="M197.47,120.2h2.52l-1.35,3.37h-1.67l.5-3.37Zm3.09,0h2.52l-1.35,3.37h-1.67l.5-3.37Z"/>
    <polygon class="cls-19" points="68.04 93.18 116.56 94.22 119.44 150.17 69.08 148.86 68.04 93.18"/>
    <polygon class="cls-4" points="134.46 93.88 204.72 93.88 204.72 99.51 132.41 99.51 134.46 93.88"/>
    <polygon class="cls-4" points="123.67 103.41 204.72 103.04 204.72 106.47 124.85 107.99 123.67 103.41"/>
    <polygon class="cls-4" points="122.26 111.65 204.72 110.89 204.72 114.42 123.67 115.33 122.26 111.65"/>
    <polygon class="cls-4" points="124.85 119.69 192.95 120.17 194 124.04 124.85 124.41 124.85 119.69"/>
    <g>
      <path class="cls-4" d="M83.2,61.81c-.25,.45-.63,.8-1.12,1.06-.5,.26-1.1,.39-1.8,.39h-1.08v2.76h-2.73v-8.7h3.81c1.06,0,1.88,.27,2.45,.81,.57,.54,.85,1.27,.85,2.17,0,.55-.13,1.05-.38,1.49Zm-2.38-1.49c0-.53-.28-.8-.85-.8h-.77v1.6h.77c.57,0,.85-.27,.85-.8Z"/>
      <path class="cls-4" d="M86.47,65.68c-.56-.29-.99-.7-1.31-1.24-.32-.54-.47-1.17-.47-1.89s.16-1.35,.47-1.89c.32-.54,.75-.95,1.31-1.23,.56-.29,1.18-.43,1.88-.43s1.32,.14,1.88,.43c.56,.29,.99,.7,1.31,1.23,.31,.54,.47,1.17,.47,1.89s-.16,1.35-.47,1.89c-.32,.54-.75,.95-1.31,1.24-.56,.29-1.18,.43-1.88,.43s-1.32-.14-1.88-.43Zm2.52-2.23c.17-.2,.26-.5,.26-.89s-.09-.69-.26-.89c-.17-.2-.39-.3-.64-.3s-.47,.1-.64,.3c-.17,.2-.26,.5-.26,.89s.08,.69,.25,.89,.38,.3,.64,.3,.47-.1,.64-.3Z"/>
      <path class="cls-4" d="M96.21,56.93v9.09h-2.73v-9.09h2.73Z"/>
      <path class="cls-4" d="M98.29,58.16c-.29-.25-.43-.57-.43-.96s.14-.72,.43-.98,.67-.39,1.14-.39,.84,.13,1.13,.39,.43,.58,.43,.98-.14,.71-.43,.96-.66,.38-1.13,.38-.86-.13-1.14-.38Zm2.5,.93v6.93h-2.73v-6.93h2.73Z"/>
      <path class="cls-4" d="M106.94,63.7v2.32h-1.03c-1.9,0-2.85-.95-2.85-2.84v-1.82h-.86v-2.27h.86v-1.67h2.73v1.67h1.13v2.27h-1.13v1.87c0,.16,.04,.28,.12,.36,.08,.07,.21,.11,.39,.11h.65Z"/>
      <path class="cls-4" d="M108.83,58.16c-.29-.25-.43-.57-.43-.96s.14-.72,.43-.98,.67-.39,1.14-.39,.84,.13,1.13,.39,.43,.58,.43,.98-.14,.71-.43,.96-.66,.38-1.13,.38-.86-.13-1.14-.38Zm2.5,.93v6.93h-2.73v-6.93h2.73Z"/>
      <path class="cls-4" d="M113.25,60.68c.3-.54,.72-.95,1.25-1.23,.54-.29,1.15-.43,1.84-.43,.9,0,1.66,.25,2.28,.76,.62,.51,1.01,1.21,1.17,2.11h-2.89c-.11-.36-.32-.54-.63-.54-.22,0-.4,.1-.52,.31-.13,.21-.19,.51-.19,.91s.06,.7,.19,.91,.3,.31,.52,.31c.31,0,.52-.18,.63-.54h2.89c-.16,.9-.55,1.61-1.17,2.11-.62,.51-1.38,.76-2.28,.76-.69,0-1.3-.14-1.84-.43-.54-.29-.95-.7-1.25-1.24-.3-.54-.45-1.17-.45-1.89s.15-1.35,.45-1.89Z"/>
      <path class="cls-4" d="M121.5,58.16c-.29-.25-.43-.57-.43-.96s.14-.72,.43-.98,.67-.39,1.14-.39,.84,.13,1.13,.39,.43,.58,.43,.98-.14,.71-.43,.96-.66,.38-1.13,.38-.86-.13-1.14-.38Zm2.5,.93v6.93h-2.73v-6.93h2.73Z"/>
      <path class="cls-4" d="M125.84,60.66c.25-.54,.59-.95,1.03-1.23,.43-.28,.92-.42,1.46-.42,.45,0,.84,.09,1.17,.28,.33,.18,.58,.44,.75,.76v-.95h2.72v6.93h-2.72v-.95c-.17,.32-.42,.57-.75,.76-.33,.18-.72,.28-1.17,.28-.54,0-1.03-.14-1.46-.42s-.78-.69-1.03-1.23c-.25-.54-.37-1.17-.37-1.9s.12-1.36,.37-1.9Zm4.12,1.04c-.19-.21-.43-.31-.72-.31s-.54,.1-.73,.31-.28,.49-.28,.86,.09,.66,.28,.86c.19,.21,.43,.31,.73,.31s.54-.1,.72-.31c.19-.2,.28-.49,.28-.86s-.09-.66-.28-.86Z"/>
      <path class="cls-4" d="M141.52,59.85c.45,.53,.67,1.25,.67,2.16v4.02h-2.71v-3.67c0-.33-.09-.59-.26-.78s-.41-.29-.71-.29-.54,.1-.71,.29-.26,.45-.26,.78v3.67h-2.73v-6.93h2.73v1.06c.21-.33,.5-.59,.85-.8,.36-.2,.78-.31,1.27-.31,.79,0,1.42,.27,1.86,.8Z"/>
      <path class="cls-4" d="M146.77,60.68c.3-.54,.72-.95,1.25-1.23,.54-.29,1.15-.43,1.84-.43,.9,0,1.66,.25,2.28,.76,.62,.51,1.01,1.21,1.17,2.11h-2.89c-.11-.36-.32-.54-.63-.54-.22,0-.4,.1-.52,.31-.13,.21-.19,.51-.19,.91s.06,.7,.19,.91,.3,.31,.52,.31c.31,0,.52-.18,.63-.54h2.89c-.16,.9-.55,1.61-1.17,2.11-.62,.51-1.38,.76-2.28,.76-.69,0-1.3-.14-1.84-.43-.54-.29-.95-.7-1.25-1.24-.3-.54-.45-1.17-.45-1.89s.15-1.35,.45-1.89Z"/>
      <path class="cls-4" d="M157.52,56.93v9.09h-2.73v-9.09h2.73Z"/>
      <path class="cls-4" d="M166.03,63.04h-4.39c.04,.6,.29,.9,.75,.9,.29,0,.51-.14,.64-.41h2.89c-.1,.49-.3,.93-.62,1.32-.32,.39-.71,.7-1.19,.92-.48,.23-1,.34-1.58,.34-.69,0-1.3-.14-1.84-.43-.54-.29-.95-.7-1.25-1.24-.3-.54-.45-1.17-.45-1.89s.15-1.35,.45-1.89c.3-.54,.72-.95,1.25-1.23,.54-.29,1.15-.43,1.84-.43s1.3,.14,1.84,.42c.54,.28,.95,.69,1.25,1.21s.45,1.14,.45,1.86c0,.19-.01,.37-.04,.54Zm-2.73-1.19c0-.23-.07-.4-.22-.52-.15-.12-.33-.18-.55-.18-.48,0-.77,.23-.85,.7h1.62Z"/>
      <path class="cls-4" d="M167.55,60.66c.25-.54,.59-.95,1.03-1.23,.43-.28,.92-.42,1.46-.42,.45,0,.84,.09,1.17,.28,.33,.18,.58,.44,.75,.76v-.95h2.72v6.93h-2.72v-.95c-.17,.32-.42,.57-.75,.76-.33,.18-.72,.28-1.17,.28-.54,0-1.03-.14-1.46-.42s-.78-.69-1.03-1.23c-.25-.54-.37-1.17-.37-1.9s.12-1.36,.37-1.9Zm4.12,1.04c-.19-.21-.43-.31-.72-.31s-.54,.1-.73,.31-.28,.49-.28,.86,.09,.66,.28,.86c.19,.21,.43,.31,.73,.31s.54-.1,.72-.31c.19-.2,.28-.49,.28-.86s-.09-.66-.28-.86Z"/>
      <path class="cls-4" d="M180.26,59.41c.4-.24,.82-.36,1.25-.36v2.91h-.77c-.52,0-.9,.09-1.14,.27-.24,.18-.36,.5-.36,.96v2.84h-2.73v-6.93h2.73v1.28c.28-.4,.62-.72,1.02-.96Z"/>
      <path class="cls-4" d="M189.54,63.04h-4.39c.04,.6,.29,.9,.75,.9,.29,0,.51-.14,.64-.41h2.89c-.1,.49-.3,.93-.62,1.32-.32,.39-.71,.7-1.19,.92-.48,.23-1,.34-1.58,.34-.69,0-1.3-.14-1.84-.43-.54-.29-.95-.7-1.25-1.24-.3-.54-.45-1.17-.45-1.89s.15-1.35,.45-1.89c.3-.54,.72-.95,1.25-1.23,.54-.29,1.15-.43,1.84-.43s1.3,.14,1.84,.42c.54,.28,.95,.69,1.25,1.21s.45,1.14,.45,1.86c0,.19-.01,.37-.04,.54Zm-2.73-1.19c0-.23-.07-.4-.22-.52-.15-.12-.33-.18-.55-.18-.48,0-.77,.23-.85,.7h1.62Z"/>
      <path class="cls-4" d="M191.05,60.66c.25-.54,.59-.95,1.03-1.23,.43-.28,.92-.42,1.46-.42,.45,0,.84,.09,1.16,.28,.32,.18,.57,.44,.74,.76v-3.11h2.73v9.09h-2.73v-.95c-.17,.32-.42,.57-.74,.76-.32,.18-.71,.28-1.16,.28-.54,0-1.03-.14-1.46-.42s-.78-.69-1.03-1.23c-.25-.54-.37-1.17-.37-1.9s.12-1.36,.37-1.9Zm4.12,1.04c-.19-.21-.43-.31-.72-.31s-.54,.1-.73,.31-.28,.49-.28,.86,.09,.66,.28,.86c.19,.21,.43,.31,.73,.31s.54-.1,.72-.31c.19-.2,.28-.49,.28-.86s-.09-.66-.28-.86Z"/>
      <path class="cls-4" d="M114.96,80.43c-.56-.29-.99-.7-1.31-1.24-.32-.54-.47-1.17-.47-1.89s.16-1.35,.47-1.89c.32-.54,.75-.95,1.31-1.23,.56-.29,1.18-.43,1.88-.43s1.32,.14,1.88,.43c.56,.29,.99,.7,1.31,1.23,.31,.54,.47,1.17,.47,1.89s-.16,1.35-.47,1.89c-.32,.54-.75,.95-1.31,1.24-.56,.29-1.18,.43-1.88,.43s-1.32-.14-1.88-.43Zm2.52-2.23c.17-.2,.26-.5,.26-.89s-.09-.69-.26-.89c-.17-.2-.39-.3-.64-.3s-.47,.1-.64,.3c-.17,.2-.26,.5-.26,.89s.08,.69,.25,.89,.38,.3,.64,.3,.47-.1,.64-.3Z"/>
      <path class="cls-4" d="M125.66,73.33c-.21,0-.36,.04-.47,.12-.11,.08-.18,.21-.22,.4h1v2.27h-1.02v4.66h-2.73v-4.66h-.74v-2.27h.74c.02-.9,.3-1.6,.85-2.09,.55-.5,1.33-.74,2.33-.74,.11,0,.3,0,.57,.02v2.32c-.15-.02-.25-.02-.31-.02Z"/>
      <path class="cls-4" d="M133.69,74.03c.33,.18,.58,.44,.75,.76v-.95h2.72v6.81c0,.65-.12,1.24-.36,1.77-.24,.53-.62,.96-1.15,1.28s-1.21,.48-2.03,.48c-1.11,0-2-.26-2.65-.78-.65-.52-1.02-1.23-1.11-2.12h2.68c.07,.36,.37,.54,.88,.54,.32,0,.57-.08,.75-.25,.18-.16,.27-.47,.27-.92v-.82c-.17,.32-.42,.57-.75,.76-.33,.18-.72,.28-1.17,.28-.54,0-1.03-.14-1.46-.42s-.78-.69-1.03-1.23c-.25-.54-.37-1.17-.37-1.9s.12-1.36,.37-1.9c.25-.54,.59-.95,1.03-1.23,.43-.28,.92-.42,1.46-.42,.45,0,.84,.09,1.17,.28Zm.47,2.42c-.19-.21-.43-.31-.72-.31s-.54,.1-.73,.31-.28,.49-.28,.86,.09,.66,.28,.86c.19,.21,.43,.31,.73,.31s.54-.1,.72-.31c.19-.2,.28-.49,.28-.86s-.09-.66-.28-.86Z"/>
      <path class="cls-4" d="M142.75,74.15c.4-.24,.82-.36,1.25-.36v2.91h-.77c-.52,0-.9,.09-1.14,.27-.24,.18-.36,.5-.36,.96v2.84h-2.73v-6.93h2.73v1.28c.28-.4,.62-.72,1.02-.96Z"/>
      <path class="cls-4" d="M145.36,75.41c.25-.54,.59-.95,1.03-1.23,.43-.28,.92-.42,1.46-.42,.45,0,.84,.09,1.17,.28,.33,.18,.58,.44,.75,.76v-.95h2.72v6.93h-2.72v-.95c-.17,.32-.42,.57-.75,.76-.33,.18-.72,.28-1.17,.28-.54,0-1.03-.14-1.46-.42s-.78-.69-1.03-1.23c-.25-.54-.37-1.17-.37-1.9s.12-1.36,.37-1.9Zm4.12,1.04c-.19-.21-.43-.31-.72-.31s-.54,.1-.73,.31-.28,.49-.28,.86,.09,.66,.28,.86c.19,.21,.43,.31,.73,.31s.54-.1,.72-.31c.19-.2,.28-.49,.28-.86s-.09-.66-.28-.86Z"/>
      <path class="cls-4" d="M158.01,73.33c-.21,0-.36,.04-.47,.12-.11,.08-.18,.21-.22,.4h1v2.27h-1.02v4.66h-2.73v-4.66h-.74v-2.27h.74c.02-.9,.3-1.6,.85-2.09,.55-.5,1.33-.74,2.33-.74,.11,0,.3,0,.57,.02v2.32c-.15-.02-.25-.02-.31-.02Z"/>
      <path class="cls-4" d="M163.98,78.45v2.32h-1.03c-1.9,0-2.85-.95-2.85-2.84v-1.82h-.86v-2.27h.86v-1.67h2.73v1.67h1.13v2.27h-1.13v1.87c0,.16,.04,.28,.12,.36,.08,.07,.21,.11,.39,.11h.65Z"/>
    </g>
  </g>
  <polygon class="cls-1" points="317.85 144.86 322.63 146.33 322.52 159.13 313.22 156.28 317.85 144.86"/>
  <polygon class="cls-22" points="289.36 227.14 314.12 170.62 322.22 175.69 313.01 234.41 296.5 246 289.36 227.14"/>
  <polygon class="cls-15" points="292.99 148.95 297.36 154.28 291.43 167.34 285.06 163.78 292.99 148.95"/>
  <g>
    <polygon class="cls-11" points="291.81 167.74 289.93 143.92 263.82 148.18 269.07 171.44 291.81 167.74"/>
    <path class="cls-1" d="M284.7,159.23c-.21,0-.39-.17-.4-.38l-.71-12.58c-.01-.22,.16-.41,.38-.42,.24-.02,.41,.16,.42,.38l.71,12.58c.01,.22-.16,.41-.38,.42,0,0-.02,0-.02,0Z"/>
    <path class="cls-1" d="M278.62,162.22c-.19,0-.36-.14-.4-.34l-2.37-14.54c-.04-.22,.11-.42,.33-.46,.22-.03,.42,.11,.46,.33l2.37,14.54c.04,.22-.11,.42-.33,.46-.02,0-.04,0-.06,0Z"/>
    <path class="cls-1" d="M271.84,167.11c-.19,0-.35-.13-.39-.32l-3.84-18.08c-.05-.22,.09-.43,.31-.47,.22-.04,.43,.09,.47,.31l3.84,18.08c.05,.22-.09,.43-.31,.47-.03,0-.06,0-.08,0Z"/>
  </g>
  <g>
    <polygon class="cls-15" points="323.01 133.13 353.43 141.97 355.99 169.31 313.63 156.28 323.01 133.13"/>
    <polygon class="cls-1" points="354.96 154.85 332.51 148.95 322.52 159.13 356.33 169.54 354.96 154.85"/>
    <polygon class="cls-1" points="313.22 156.28 303.88 153.4 272.78 254.49 337.61 274.43 380.76 178 356.33 169.54 313.22 156.28"/>
    <polygon class="cls-22" points="314.05 156.52 331.2 161.79 322.22 175.69 314.12 170.62 314.05 156.52"/>
    <polygon class="cls-6" points="362.23 171.58 380.76 178 362.15 219.59 281.18 227.21 269.07 171.44 291.43 167.34 299.69 192.12 362.23 171.58"/>
    <polygon class="cls-11" points="312.54 53.54 385.85 74.91 371.44 148.4 284.93 122.97 312.54 53.54"/>
    <g>
      <polygon class="cls-15" points="380 104.69 393.67 105.83 387.92 126.13 376.49 122.62 380 104.69"/>
      <path class="cls-1" d="M377.83,116.27l-.41-.37,.19-.21c.12-.13,2.94-3.27,5.55-4.62,2.61-1.35,5.76-1.62,5.89-1.63l.28-.02,.04,.55-.28,.02s-3.17,.27-5.68,1.57c-2.52,1.3-5.36,4.46-5.39,4.49l-.18,.21Z"/>
    </g>
    <path class="cls-4" d="M380,104.69l9.7,.81,15.49-40.57s-64.58-33.71-67.03-35.44c-2.45-1.73-4.53-3.73-6.15-5.11-1.62-1.38-5-4.99-5-4.99l2.27,11.27-27.76,12.15-4.61,26.05-.81,26.03,16.44-41.35,73.31,21.37-5.85,29.78Z"/>
    <polygon class="cls-4" points="361.95 83.91 362.4 77.93 347.68 80.15 346.05 83.98 361.95 83.91"/>
    <polygon class="cls-4" points="313.11 68.01 316.61 63.14 326.46 74.3 325.24 78.28 313.11 68.01"/>
    <path class="cls-1" d="M332.11,108.89s-.05,0-.07,0l-18.05-4.73c-.08-.02-.15-.08-.19-.16-.03-.08-.03-.17,.02-.25l4.89-8.54c.05-.1,.16-.15,.27-.14l5.24,.59,4.81-15.25c.05-.15,.21-.23,.35-.18l10.48,3.22c.07,.02,.13,.07,.16,.13,.03,.07,.04,.14,.02,.21l-7.66,24.89c-.04,.12-.15,.2-.26,.2Zm-17.63-5.18l17.45,4.57,7.5-24.37-9.95-3.06-4.79,15.2c-.04,.13-.16,.21-.3,.19l-5.29-.6-4.62,8.07Z"/>
    <path class="cls-4" d="M319.25,88.92l-.09-.55c-.02-.14-.64-3.42-4.85-5.09-4.16-1.65-7.02,1.28-7.14,1.41l-.38,.4-.8-.76,.38-.4s3.48-3.61,8.35-1.67c4.82,1.91,5.5,5.78,5.53,5.94l.09,.55-1.09,.18Z"/>
    <polygon class="cls-4" points="290.57 106.82 295.36 119.28 361.45 139.18 375.68 128.61 372.18 149.41 336.64 139.66 335.38 143.75 320.1 139.05 319.52 134.65 284.08 123.24 290.57 106.82"/>
    <path class="cls-16" d="M315.85,116.69l19.69,3.32s-7.69,5.09-11.98,3.99-7.71-7.31-7.71-7.31Z"/>
    <path class="cls-1" d="M348.65,135.6c-.14,0-.26-.11-.28-.25-.01-.13-1.02-12.61,9.9-18.44,10.93-5.82,18.91,1.1,18.98,1.17,.11,.1,.12,.28,.02,.39s-.28,.12-.39,.02c-.08-.07-7.78-6.74-18.35-1.09-10.59,5.64-9.62,17.77-9.6,17.89,.01,.15-.1,.29-.25,.3,0,0-.02,0-.03,0Z"/>
    <path class="cls-1" d="M306.61,122.94s-.06,0-.09-.01c-.14-.05-.22-.21-.17-.35,.03-.09,3.12-9.32-.16-16.23-3.29-6.94-10.17-11.17-10.24-11.21-.13-.08-.17-.25-.09-.38,.08-.13,.25-.17,.38-.09,.07,.04,7.09,4.36,10.46,11.45,3.37,7.12,.22,16.56,.18,16.65-.04,.12-.15,.19-.26,.19Z"/>
    <polygon class="cls-4" points="298.77 105.45 315.58 100.89 324.74 105.56 336.08 106.33 346.28 120.1 325.28 115.25 323.15 110.76 318.62 113.6 298.77 105.45"/>
    <circle class="cls-4" cx="313.14" cy="85.96" r="2"/>
    <g>
      <path class="cls-4" d="M355.54,100.15l-.09-.55c-.02-.14-.64-3.42-4.85-5.09-4.16-1.65-7.02,1.28-7.14,1.41l-.38,.4-.8-.76,.38-.4s3.48-3.61,8.35-1.67c4.82,1.91,5.51,5.78,5.53,5.94l.09,.55-1.09,.18Z"/>
      <circle class="cls-4" cx="349.75" cy="96.82" r="2"/>
    </g>
    <polyline class="cls-22" points="272.78 254.49 193.57 406.22 246.89 407.34 282.54 324.34 311.14 428.19 351.75 422.96 385.85 397.45 355.99 347.96 335.29 291.63 337.61 274.43"/>
    <polygon class="cls-4" points="376.53 404.42 385.85 419.32 369.07 447.21 331.2 451.12 339.43 438.3 354.74 431.82 356.1 419.71 376.53 404.42"/>
  </g>
  <g>
    <g>
      <polygon class="cls-4" points="273.85 313.18 294.22 322.29 280.84 354.51 251.68 343.42 254.28 313.18 273.85 313.18"/>
      <path class="cls-2" d="M275.37,352.33l-1.21-.26,3.39-15.66-23.22-11.97,.57-1.1,23.65,12.18c.25,.13,.38,.41,.32,.68l-3.49,16.12Z"/>
      <path class="cls-2" d="M278.66,353.76l-1.18-.37,5.99-19.37-14.51-13.05,.83-.92,14.8,13.31c.18,.16,.25,.41,.18,.64l-6.1,19.75Z"/>
    </g>
    <polygon class="cls-4" points="146.3 237.3 196.36 202.16 278.15 234.05 269.15 302.09 247.29 314.92 146.3 237.3"/>
    <g>
      <polygon class="cls-9" points="256.91 300.91 272.71 295.32 274.37 321.28 256.91 324.76 256.91 300.91"/>
      <path class="cls-10" d="M257.29,314.83l-.97-.77,7.56-9.56c.06-.08,.15-.15,.25-.19l4.6-1.93,.48,1.14-4.45,1.87-7.46,9.43Z"/>
    </g>
    <polygon class="cls-9" points="232.01 354.44 246.1 395.2 224.67 424.81 193.88 395.2 187.16 371.99 232.01 354.44"/>
    <path class="cls-7" d="M137.99,386.5c-16.9,36.72-50.13,107.16-50.13,107.16l233.65-2.64-28.01-102.92-49.94-.22-19.1,13.93,.2,21.03-6.08-20.22-27.22-16.13"/>
    <path class="cls-3" d="M257.03,271.21l.17,65.18c.01,4.52-2.38,8.7-6.27,10.99l-55.08,32.36c-3.41,2-7.69,1.72-10.8-.72l-35.1-27.45c-3.97-3.1-6.24-7.89-6.14-12.93l1.01-67.01,48.78-29.48,63.43,29.05Z"/>
    <path class="cls-4" d="M213.83,250.1c-23.77,13.68-69.05,40.99-69.05,40.99l.12-53.81s36.41,.36,52.01-.2c5.62,4.86,11.3,8.15,16.92,13.01Z"/>
    <g>
      <path class="cls-7" d="M183.99,288.17c.4,13.81,1.19,41.43,1.19,41.43l-12.61,.25s-3.17-29.88,11.42-41.68Z"/>
      <path class="cls-10" d="M172.57,330.51c-.34,0-.62-.25-.65-.59-.13-1.23-3.04-30.38,11.66-42.26,.2-.16,.46-.19,.69-.09,.23,.1,.38,.33,.38,.58l1.19,41.43c0,.17-.06,.35-.18,.47s-.29,.2-.46,.2l-12.61,.25h-.01Zm10.8-40.93c-11.91,11.01-10.53,35.46-10.2,39.61l11.33-.22-1.13-39.38Z"/>
    </g>
    <path class="cls-10" d="M219.08,366.71c-.29,0-.55-.21-.61-.51-.77-4.22-1.34-12.55,3.52-20.96,3.77-6.53,9.68-11.2,17.56-13.9,6.87-2.34,13.1-1.97,17.13-1.24,.33,.06,.56,.38,.5,.72s-.38,.56-.72,.5c-3.88-.7-9.89-1.06-16.51,1.2-7.59,2.59-13.27,7.08-16.89,13.34-4.66,8.07-4.11,16.07-3.37,20.12,.06,.34-.16,.66-.5,.72-.04,0-.08,0-.11,0Z"/>
    <path class="cls-10" d="M167.68,366.07s-.05,0-.07,0c-.34-.04-.58-.35-.54-.69,.45-3.88,1.33-17.24-6.07-26.45-5.72-7.11-13.1-9.72-16.99-10.64-.33-.08-.54-.41-.46-.74,.08-.33,.42-.53,.74-.46,4.04,.96,11.71,3.66,17.66,11.07,7.7,9.58,6.8,23.37,6.33,27.36-.04,.31-.3,.55-.61,.55Z"/>
    <path class="cls-2" d="M174.09,236.71s56.39,44.77,84.62,68.64c-.77-22.02-2.37-69.28-2.37-69.28l-82.24,.64Z"/>
    <polygon class="cls-16" points="325.54 497.36 317.95 464.46 217.57 449.64 210.74 494.72 325.54 497.36"/>
    <g>
      <path class="cls-4" d="M159.09,415.7l39.99-2.94c3.95-.29,7.34,2.78,7.45,6.74l1.68,66.39c.1,3.9-3.04,7.11-6.94,7.11h-33.23c-3.48,0-6.42-2.58-6.88-6.02l-8.43-63.45c-.53-3.96,2.39-7.54,6.37-7.83Z"/>
      <path class="cls-14" d="M160.52,421.05l37.3-2.74c3.69-.27,6.85,2.6,6.95,6.29l1.57,61.94c.09,3.64-2.83,6.64-6.47,6.64h-31c-3.25,0-5.99-2.4-6.42-5.62l-7.86-59.19c-.49-3.69,2.23-7.03,5.94-7.31Z"/>
      <circle class="cls-4" cx="161.95" cy="429.01" r="3.45"/>
      <circle class="cls-4" cx="161.74" cy="437.45" r="1.92"/>
    </g>
    <g>
      <path class="cls-3" d="M145.5,453.44v-14.5h7.95l-.8,13,16.27-3.41v41.27c0,.09-.07,.17-.17,.17h-17.7l-5.56-36.53Z"/>
      <path class="cls-10" d="M153.75,461.56c-.31,0-.58-.22-.62-.54-.05-.34,.19-.67,.53-.72l14.37-2.14c.34-.06,.67,.19,.72,.53,.05,.34-.19,.67-.53,.72l-14.37,2.14s-.06,0-.09,0Z"/>
      <path class="cls-10" d="M155.5,470.17c-.32,0-.59-.24-.63-.57-.04-.35,.22-.66,.56-.69l12.53-1.29c.35-.02,.66,.22,.69,.56s-.22,.66-.56,.69l-12.53,1.29s-.04,0-.07,0Z"/>
      <path class="cls-10" d="M155.61,479.1c-.34,0-.62-.28-.63-.62,0-.35,.27-.63,.62-.64l12.63-.2h0c.34,0,.62,.28,.63,.62,0,.35-.27,.63-.62,.64l-12.63,.2h0Z"/>
    </g>
    <g>
      <path class="cls-3" d="M216.72,454.42v-14.5h-7.95l.8,13-16.27-3.41v41.27c0,.09,.07,.17,.17,.17h17.7l5.56-36.53Z"/>
      <path class="cls-10" d="M208.48,462.54s-.06,0-.09,0l-14.37-2.14c-.34-.05-.58-.37-.53-.72,.05-.35,.38-.58,.72-.53l14.37,2.14c.34,.05,.58,.37,.53,.72-.05,.31-.32,.54-.62,.54Z"/>
      <path class="cls-10" d="M206.72,471.15s-.04,0-.07,0l-12.53-1.29c-.35-.04-.6-.35-.56-.69s.33-.59,.69-.56l12.53,1.29c.35,.04,.6,.35,.56,.69-.03,.33-.31,.57-.63,.57Z"/>
      <path class="cls-10" d="M206.62,480.08h0l-12.63-.2c-.35,0-.63-.29-.62-.64,0-.35,.26-.59,.64-.62l12.63,.2c.35,0,.63,.29,.62,.64,0,.35-.29,.62-.63,.62Z"/>
    </g>
    <polygon class="cls-16" points="83.84 494.45 95.13 461.55 145.5 452.88 152.66 494.19 83.84 494.45"/>
    <path class="cls-16" d="M184.26,355.62l19.99-6.63s1.42,8.65-6.46,11.87c-7.88,3.22-13.53-5.24-13.53-5.24Z"/>
    <polygon class="cls-2" points="204.03 289.61 235.77 295.73 239.17 284.61 204.62 282.24 204.03 289.61"/>
    <polygon class="cls-2" points="170.02 292.19 138.07 297.12 135.09 285.87 169.71 284.8 170.02 292.19"/>
    <g>
      <path class="cls-13" d="M154.16,312.3c-2.83,2.33-2.04,6.57-1.84,7.66,.23,1.22,.86,4.63,3.54,5.59,1.88,.67,3.63-.28,3.72-.34,2.83-1.6,2.68-5.92,2.62-7.4-.07-1.92-.2-5.31-2.58-6.49-1.82-.91-4.12-.12-5.46,.99Z"/>
      <path class="cls-4" d="M144.15,316.53c1.85-1.19,2.65-2.97,9.15-4.49,6.49-1.52,13.68,4.25,13.68,4.25l1.01-1.36s-6.37-5.47-13.16-5.01c-6.79,.46-10.1,3.58-11.81,4.75l1.13,1.87Z"/>
      <polygon class="cls-4" points="142.29 311.12 143.01 314.67 145.86 313.17 142.29 311.12"/>
    </g>
    <g>
      <path class="cls-13" d="M218.91,313.8c2.83,2.33,2.04,6.57,1.84,7.66-.23,1.22-.86,4.63-3.54,5.59-1.88,.67-3.63-.28-3.72-.34-2.83-1.6-2.68-5.92-2.62-7.4,.07-1.92,.2-5.31,2.58-6.49,1.82-.91,4.12-.12,5.46,.99Z"/>
      <path class="cls-4" d="M228.92,318.04c-1.85-1.19-2.65-2.97-9.15-4.49-6.49-1.52-13.68,4.25-13.68,4.25l-1.01-1.36s6.37-5.47,13.16-5.01c6.79,.46,10.1,3.58,11.81,4.75l-1.13,1.87Z"/>
      <polygon class="cls-4" points="230.78 312.62 230.06 316.17 227.21 314.68 230.78 312.62"/>
    </g>
    <g>
      <path class="cls-2" d="M174.08,236.87s56.74,45.04,85.14,69.06c-.71-17.12-1.3-34.39-1.77-51.82-.17-6.32-.33-12.62-.47-18.9-27.63,.55-55.26,1.11-82.89,1.66Z"/>
      <polygon class="cls-2" points="144.73 238.52 144.7 237.27 145.32 237.26 278.48 234.07 278.51 235.31 277.89 235.33 144.73 238.52"/>
      <rect class="cls-4" x="244.25" y="228.02" width="1.24" height="77.97" transform="translate(-75.15 97.17) rotate(-19.52)"/>
      <rect class="cls-4" x="228.64" y="223.35" width="1.24" height="89.33" transform="translate(-118.13 207.06) rotate(-39.5)"/>
    </g>
  </g>
  <g>
    <polygon class="cls-8" points="56.49 253.51 62.15 256.19 60.94 258.82 65.48 261.2 66.55 258.39 68.07 259.13 66.91 261.73 104.76 280.55 106.01 278.08 107.49 278.89 106.33 281.44 111.64 283.86 112.6 282.04 119.67 284.61 100.13 324.34 94.4 321.17 95.53 318.42 89.52 315.7 87.82 319.13 86.16 318.55 87.76 314.6 51.08 297.93 49.67 300.97 48.14 300.19 49.5 297.27 44.1 294.69 42.35 297.46 36.3 294.22 56.49 253.51"/>
    <polygon class="cls-23" points="66.91 261.73 51.08 297.93 87.76 314.6 104.76 280.55 66.91 261.73"/>
    <polygon class="cls-11" points="63.48 304.82 28.43 368.95 39.01 373.99 70.76 308.13 63.48 304.82"/>
    <polygon class="cls-11" points="89.52 315.7 106.33 281.44 111.64 283.86 95.53 318.42 89.52 315.7"/>
    <polygon class="cls-11" points="44.1 294.69 60.94 258.82 65.48 261.2 49.5 297.27 44.1 294.69"/>
    <polygon class="cls-11" points="56.31 300.3 54.36 304.71 78.43 315.56 80.22 311.17 56.31 300.3"/>
    <polygon class="cls-11" points="56.05 309.09 71.59 316.26 73.52 313.35 57.42 306.09 56.05 309.09"/>
  </g>
  <g>
    <polygon class="cls-8" points="28.83 427.15 82.86 373.85 95.61 381.34 35.29 440.84 28.83 427.15"/>
    <rect class="cls-11" x="22.15" y="410.35" width="89.96" height="4.54" transform="translate(-270.44 166.03) rotate(-44.61)"/>
    <polygon class="cls-23" points="30.48 430.64 86.44 375.95 91.82 379.11 33.24 436.49 30.48 430.64"/>
  </g>
  <g>
    <path class="cls-6" d="M392.34,238.1l6.47,1.83c6.38,1.81,11.22,7.04,12.47,13.55,.96,5,1.11,11.35-1.27,18.44-1.28,3.82-2.8,6.86-4.38,9.29-4.13,6.34-11.83,9.36-19.22,7.74l-5.87-1.28,11.8-49.57Z"/>
    <ellipse class="cls-1" cx="386.9" cy="262.99" rx="25.5" ry="16.3" transform="translate(35.72 572.06) rotate(-75.56)"/>
    <polygon class="cls-6" points="392.78 248.49 398.11 247.79 399.7 261.64 396.76 270.82 394.16 269.61 392.78 248.49"/>
    <polygon class="cls-6" points="392.18 273.03 394.95 274.05 392.18 278.72 389.59 276.22 392.18 273.03"/>
    <polygon class="cls-18" points="384.81 288.61 390.99 288.94 389.59 296.75 383.93 295.38 384.81 288.61"/>
    <polygon class="cls-20" points="384.81 295.6 388.41 296.47 387.46 302.61 383.93 301.62 384.81 295.6"/>
    <polygon class="cls-18" points="383.93 301.62 381.63 300.83 375.2 345.94 384.81 347.99 390.99 303.77 387.46 302.61 383.93 301.62"/>
  </g>
  <g>
    <g>
      <polygon class="cls-21" points="110.5 195.61 116.1 174.33 103.69 142.61 95.53 145.41 100.92 168.91 90.94 177.29 110.5 195.61"/>
      <polygon class="cls-21" points="123.5 211.41 100.55 168.71 69.24 135.37 46.73 153.79 69.97 193.64 85.86 220.46 123.5 211.41"/>
      <g>
        <path class="cls-10" d="M80.21,158.98c-.21,0-.41-.09-.55-.25l-15.54-17.85c-.27-.31-.23-.77,.07-1.04,.31-.27,.77-.23,1.04,.07l15.54,17.85c.27,.31,.23,.77-.07,1.04-.14,.12-.31,.18-.48,.18Z"/>
        <path class="cls-10" d="M65.18,171.12c-.24,0-.47-.12-.61-.33l-13.06-19.8c-.22-.34-.13-.79,.21-1.02,.34-.23,.79-.13,1.02,.21l13.06,19.8c.22,.34,.13,.79-.21,1.02-.12,.08-.26,.12-.4,.12Z"/>
        <path class="cls-10" d="M74.25,165.67c-.21,0-.43-.09-.57-.27l-15.76-19.53c-.25-.32-.21-.78,.11-1.03,.32-.25,.78-.21,1.03,.11l15.76,19.53c.25,.32,.21,.78-.11,1.03-.14,.11-.3,.16-.46,.16Z"/>
      </g>
    </g>
    <polygon class="cls-5" points="58.22 197.13 29.36 200.59 34.48 188.72 22.16 183.67 33.07 173.25 20.92 158.32 40.64 160.99 36.93 148.32 50.22 155.77 54.19 140.47 63.96 155.02 79.2 147.15 76.39 162.29 93.25 161.29 84.74 188.3 58.22 197.13"/>
    <g>
      <g>
        <polygon class="cls-3" points="112.65 207.46 106.73 186.27 79.98 165.09 74.35 171.61 90.88 189.21 86.49 201.45 112.65 207.46"/>
        <polygon class="cls-17" points="79.27 165.92 82.9 169.32 78.82 173.49 75.25 170.56 79.27 165.92"/>
      </g>
      <g>
        <polygon class="cls-3" points="131.87 214.59 90.46 189.22 46.56 176.14 36.42 203.35 76.64 226.1 103.92 241.29 131.87 214.59"/>
        <g>
          <path class="cls-10" d="M68.62,191.07c-.09,0-.17-.02-.26-.05l-22.16-8.42c-.38-.14-.57-.57-.43-.95,.14-.38,.57-.57,.95-.43l22.16,8.42c.38,.14,.57,.57,.43,.95-.11,.29-.39,.47-.69,.47Z"/>
          <path class="cls-10" d="M61.12,208.85c-.12,0-.24-.03-.35-.09l-20.89-11.31c-.36-.19-.49-.64-.3-1,.19-.36,.63-.49,1-.3l20.89,11.31c.36,.19,.49,.64,.3,1-.13,.25-.39,.38-.65,.38Z"/>
          <path class="cls-10" d="M66.54,199.78c-.1,0-.19-.02-.29-.06l-23.15-9.8c-.37-.16-.55-.59-.39-.96,.16-.38,.59-.55,.96-.39l23.15,9.8c.37,.16,.55,.59,.39,.96-.12,.28-.39,.45-.68,.45Z"/>
        </g>
      </g>
    </g>
  </g>
</svg>