<?xml version="1.0" encoding="UTF-8"?>
<svg id="Layer_2" data-name="Layer 2" xmlns="http://www.w3.org/2000/svg" viewBox="0 0 428 418.86">
  <defs>
    <style>
      .cls-1 {
        fill: #fff;
      }

      .cls-2 {
        fill: #181216;
      }

      .cls-3 {
        fill: #ef9d7f;
      }

      .cls-4 {
        fill: #363636;
      }

      .cls-5 {
        fill: #ed8869;
      }

      .cls-6 {
        fill: #eeb2ff;
      }

      .cls-7 {
        fill: #f55;
      }

      .cls-8 {
        fill: #e58e73;
      }

      .cls-9 {
        fill: #3ba45b;
      }

      .cls-10 {
        fill: #f7f2dc;
      }

      .cls-11 {
        fill: #f80500;
      }

      .cls-12 {
        fill: #ab7a5a;
      }

      .cls-13 {
        fill: #e64c00;
      }

      .cls-14 {
        fill: #f4ae32;
      }

      .cls-15 {
        fill: #353535;
      }

      .cls-16 {
        fill: #9e6647;
      }

      .cls-17 {
        fill: #aadef7;
      }

      .cls-18 {
        fill: #b72c2c;
      }

      .cls-19 {
        fill: #d46cff;
      }
    </style>
  </defs>
  <g>
    <polygon class="cls-17" points="80.92 269.12 95.04 251.13 171.67 244.79 167.97 280.31 97.52 277.7 60.82 295.22 91.01 273.78 80.92 269.12"/>
    <circle class="cls-10" cx="107.43" cy="263.73" r="4.51"/>
    <circle class="cls-10" cx="129.45" cy="263.73" r="4.51"/>
    <circle class="cls-10" cx="152.94" cy="263.73" r="4.51"/>
  </g>
  <polygon class="cls-14" points="210.57 159.81 215.36 211.93 332.54 222.18 345 249.3 351.61 221.73 376.41 225.31 383.02 163.15 210.57 159.81"/>
  <path class="cls-4" d="M345.31,137.62c-.2,0-.39-.09-.51-.26-3.1-4.34-4.1-7.98-2.99-10.81,1.39-3.54,5.62-4.91,9.03-6.01,1.89-.61,4.03-1.3,4.06-2.06,.06-1.2-4.02-2.6-6.99-3.63-4.07-1.41-7.59-2.62-7.6-4.61,0-2.35,4.59-3.35,12.71-4.91,7.26-1.4,16.3-3.13,16.47-6.31,.09-1.64-1.5-3.36-4.01-4.99-5.2,3.84-12.98,7.23-19.51,9.04-6.17,1.7-20.85,5.04-24.06-.79-.84-1.53-.86-3.59-.05-5.98,.25-.73,.58-1.51,1-2.29-4.34-1.64-7.74-3.87-8.3-6.49-1.02-4.72,7.2-10.51,13.53-12.88,7.34-2.75,13.5-1.17,23.72,1.44,3.42,.88,6.49,1.66,9.13,2.45-1.02-5.62-4.4-11.48-9.25-14.87-4.44-3.11-10.62-4.05-16.97-2.6-8.24,1.89-15.52,7.53-19.95,15.46-.17,.3-.55,.42-.86,.24-.3-.17-.41-.55-.24-.86,4.61-8.24,12.18-14.1,20.77-16.07,6.68-1.53,13.24-.52,17.97,2.79,5.39,3.77,9.02,10.21,9.91,16.34,5.21,1.69,8.43,3.5,8.91,6.38,.43,2.56-1.5,5.3-4.69,7.88,2.62,1.78,4.33,3.77,4.21,5.88-.23,4.16-9,5.85-17.49,7.48-4.93,.95-11.69,2.25-11.69,3.67,0,1.09,3.9,2.43,6.75,3.42,4.26,1.47,7.94,2.74,7.84,4.88-.08,1.63-2.22,2.33-4.93,3.2-3.15,1.02-7.07,2.29-8.24,5.27-.95,2.41,.01,5.65,2.84,9.62,.2,.28,.14,.68-.15,.88-.11,.08-.24,.12-.37,.12Zm-21.27-43.18c-.41,.75-.74,1.51-1,2.27-.68,2.01-.69,3.77-.04,4.96,2.27,4.12,13.17,2.79,22.62,.18,6.23-1.72,13.67-4.99,18.69-8.53-1.45-.84-3.13-1.65-4.92-2.41-5.54,6.24-17.61,6.98-26.91,5.56-2.82-.43-5.77-1.12-8.44-2.03Zm.64-1.09c2.36,.78,5.08,1.43,7.99,1.87,8.81,1.34,20.16,.74,25.48-4.82-4.09-1.64-8.65-3-12.5-3.86-8.85-1.96-12.14-.52-13.23-.04-3,1.32-5.87,3.91-7.75,6.85Zm11.31-18.89c-2.53,0-4.94,.4-7.48,1.35-5.74,2.15-13.55,7.67-12.74,11.44,.43,2.01,3.35,4.07,7.69,5.67,1.82-2.96,4.74-5.94,8.46-7.58,1.17-.52,4.75-2.09,14.01-.04,3.06,.68,8.25,2.11,13.09,4.07,.26-.35,.5-.72,.72-1.1,1.32-2.33,1.73-5.28,1.38-8.37-2.75-.85-6.02-1.69-9.64-2.61-6.34-1.62-11.08-2.83-15.48-2.83Zm24.22,15.41c1.87,.8,3.66,1.68,5.21,2.62,3.05-2.36,4.91-4.8,4.55-6.96-.37-2.18-3.15-3.74-7.51-5.2,.25,3.13-.25,6.12-1.63,8.56-.19,.34-.4,.66-.62,.98Z"/>
  <path class="cls-4" d="M92.29,229.64h0c-.35,0-.63-.29-.63-.64,.05-6.52,1.61-12.19,4.65-16.86,3.53-5.44,8.34-8.49,11.52-10.5,1.26-.8,2.82-1.79,2.87-2.18-.28-.55-2.34-.53-5.11-.23-1.52,1.34-3.18,2.54-4.7,3.47-9.67,5.85-21.56,4.51-24.44,3.02-.21-.11-.85-.44-.89-1.04-.09-1.29,1.7-1.7,15.8-4.38,5.96-1.13,10.45-1.92,13.69-2.27,3.03-2.75,5.13-5.8,4.43-7.62-.35-.92-1.4-1.64-2.89-2.14-.67,.76-1.34,1.43-1.86,1.94-7.67,7.62-20.26,8.66-26.75,6.96-1.62-.42-3.63-1.23-4.04-2.69-.35-1.23,.51-2.79,2.49-4.54,4.6-4.06,14.63-8.53,19.87-6.31,.6,.26,2.4,1.02,2.79,2.53,2.61-.1,5.08,.1,7.08,.64,1.17-1.44,2.15-3.1,1.67-4.23-.84-1.96-6.92-4.09-38.25,3.66-.33,.09-.68-.12-.76-.46-.08-.34,.12-.68,.46-.76,33.21-8.23,38.57-5.61,39.71-2.93,.68,1.59-.28,3.49-1.55,5.14,1.6,.62,2.75,1.53,3.21,2.73,.86,2.25-.95,5.22-3.6,7.9,2.97-.18,4.48,.19,4.84,1.2,.44,1.23-1,2.14-3.39,3.65-3.09,1.96-7.75,4.92-11.14,10.13-2.9,4.47-4.4,9.91-4.44,16.19,0,.35-.28,.63-.63,.63Zm-15.19-24.99c2.24,1.05,13.49,2.79,23.12-3.04,1.03-.62,2.06-1.34,3.03-2.1-3.98,.55-8.65,1.44-11.68,2.02-7.38,1.4-12.92,2.46-14.48,3.12Zm15.82-20.36c-5.04,0-12.17,3.5-15.68,6.6-1.52,1.34-2.31,2.55-2.11,3.25,.15,.52,1.05,1.26,3.15,1.81,6.02,1.58,18.31,.56,25.54-6.63,.35-.35,.85-.84,1.38-1.42-1.74-.38-3.87-.53-6.16-.45-.51,1.85-2.94,3.48-4.52,4.37-4.35,2.45-9.86,2.67-11.9,1.75-.52-.24-.83-.56-.92-.96-.4-1.84,5.11-3.89,7.49-4.69,2.67-.89,5.67-1.47,8.56-1.69-.26-.51-.92-1-1.97-1.44-.82-.35-1.79-.51-2.86-.51Zm-9.94,8.06c.86,.63,6.25,1,10.92-1.63,1.93-1.09,3.26-2.23,3.76-3.19-2.67,.21-5.48,.73-8.07,1.6-3.06,1.02-6.15,2.54-6.61,3.22Z"/>
  <g>
    <polygon class="cls-17" points="211.76 15.33 25.82 29.41 34.42 102.55 79.89 126.78 76.35 161.28 108.82 130.56 221.73 116.81 211.76 15.33"/>
    <g>
      <polygon class="cls-12" points="67.78 55.36 111.19 58.53 111.91 101.2 60.67 97.34 67.78 55.36"/>
      <g>
        <polygon class="cls-16" points="111.48 75.83 119.23 74.83 118.44 86.83 111.65 86.23 111.48 75.83"/>
        <path class="cls-1" d="M111.65,82.54l-.27-.16,.08-.14c.05-.09,1.25-2.17,2.54-3.23,1.29-1.06,3.02-1.59,3.09-1.61l.15-.05,.09,.3-.15,.05s-1.74,.53-2.98,1.55c-1.25,1.02-2.46,3.12-2.47,3.15l-.08,.14Z"/>
      </g>
      <g>
        <polygon class="cls-16" points="64.95 72.22 57.49 69.89 56.17 81.84 63.19 82.46 64.95 72.22"/>
        <path class="cls-1" d="M63.61,78.8l-.05-.15s-.83-2.3-1.88-3.53c-1.05-1.22-2.65-2.04-2.66-2.05l-.14-.07,.14-.28,.14,.07c.07,.03,1.67,.85,2.76,2.13,1.09,1.27,1.91,3.53,1.94,3.63l.05,.15-.3,.11Z"/>
      </g>
      <path class="cls-4" d="M111.48,75.83l5.5-.7,3.8-24.46s-40-11.09-41.58-11.76c-1.57-.67-2.97-1.54-4.04-2.12-1.07-.58-3.38-2.18-3.38-2.18l2.61,6.01-14.02,10.08,.72,20.32,3.86,1.21,2.84-16.86,43.4,3.17,.29,17.29Z"/>
      <polygon class="cls-4" points="106.7 71.17 107.75 67.92 99.3 67.18 97.89 69.09 106.7 71.17"/>
      <polygon class="cls-4" points="68.99 66.62 68.74 63.22 77.13 64.49 78.05 66.68 68.99 66.62"/>
      <path class="cls-1" d="M87.75,83.9h0l-10.62-.48s-.09-.03-.12-.07c-.03-.04-.04-.09-.02-.14l1.71-5.34c.02-.06,.07-.1,.13-.11l2.99-.29,.86-9.07c0-.09,.08-.15,.17-.14l6.22,.55c.09,0,.15,.08,.14,.17l-1.3,14.78c0,.08-.08,.14-.16,.14Zm-10.41-.79l10.27,.47,1.27-14.48-5.91-.52-.86,9.04c0,.08-.07,.13-.14,.14l-3.02,.3-1.61,5.05Zm4.62-5.5h0Z"/>
      <path class="cls-4" d="M76.07,76.99l-.12-.29c-.03-.07-.76-1.83-3.31-2.26-2.52-.42-3.76,1.55-3.81,1.63l-.17,.27-.54-.33,.16-.27s1.5-2.43,4.46-1.93c2.91,.49,3.76,2.56,3.79,2.65l.12,.29-.59,.23Z"/>
      <path class="cls-4" d="M105.16,79.55l-.12-.29c-.03-.07-.76-1.83-3.31-2.26-2.51-.42-3.76,1.55-3.81,1.63l-.17,.27-.54-.33,.16-.27s1.5-2.43,4.46-1.93c2.91,.49,3.76,2.56,3.79,2.65l.12,.29-.59,.23Z"/>
      <polygon class="cls-4" points="61.89 87.67 66.04 94.04 105.25 97.26 111.92 89.67 112.44 101.68 91.48 100.48 91.27 102.91 82.19 102.11 81.34 99.73 60.23 97.59 61.89 87.67"/>
      <path class="cls-18" d="M82.69,89.51l5.99-.07s-.4,2.73-2.92,2.63c-2.52-.1-3.07-2.56-3.07-2.56Z"/>
      <path class="cls-1" d="M97.65,96.79c-.07,0-.13-.04-.15-.11-.02-.07-2.08-6.91,3.32-11.45,5.39-4.55,10.67-1.64,10.72-1.61,.08,.04,.1,.14,.06,.22s-.14,.1-.22,.06c-.05-.03-5.13-2.83-10.36,1.58-5.23,4.41-3.24,11.05-3.22,11.12,.03,.08-.02,.17-.1,.2-.02,0-.03,0-.05,0Z"/>
      <path class="cls-1" d="M72.72,94.75s-.01,0-.02,0c-.09-.01-.15-.09-.14-.18,0-.06,.63-5.57-2.02-9.03-2.66-3.48-7-5.01-7.04-5.03-.08-.03-.13-.12-.1-.2,.03-.08,.12-.13,.2-.1,.04,.02,4.47,1.58,7.19,5.14,2.73,3.56,2.09,9.2,2.09,9.26,0,.08-.08,.14-.16,.14Z"/>
      <polygon class="cls-4" points="70.85 85.8 79.67 81.26 85.34 82.77 91.75 81.85 99.07 88.31 86.79 88.11 85.07 85.86 82.88 87.98 70.85 85.8"/>
    </g>
    <g>
      <path class="cls-6" d="M203.01,59.61s-9.09,18.17-23.14,28.97c-14.06,10.8-38.28,17.24-38.28,17.24l-14.16-21.18s12.45-4.23,24.41-14.69c7.71-6.75,15.69-27.64,15.69-27.64l35.49,17.3Z"/>
      <path class="cls-10" d="M159.31,74.95c6.26-4.41,11.7-8.24,13.79-6.62,2.28,1.76,.62,10.07-4.54,14.53-6.62,5.72-17.99,4.23-18.91,1.32-.63-1.98,3.49-4.88,9.66-9.23Z"/>
      <path class="cls-19" d="M143.21,102.09l-12.28-16.07,.41-.23c.18-.1,18.16-10.07,23.55-14.27,5.34-4.16,14.34-23.15,14.43-23.34l.18-.38,26.33,13.62-.2,.36c-.1,.18-10.29,18.29-22.57,26.14-12.23,7.82-29.4,13.99-29.57,14.05l-.28,.1Zm-11.07-15.81l11.35,14.85c2.26-.83,17.83-6.64,29.13-13.87,11.16-7.13,20.6-22.91,22.1-25.5l-24.84-12.85c-1.34,2.79-9.36,19.26-14.49,23.25-4.99,3.88-20.53,12.59-23.25,14.11Z"/>
    </g>
  </g>
  <g>
    <polygon class="cls-13" points="303.17 266.76 305.19 345.54 359.51 349.59 391.26 383.4 381.12 349.36 396.98 349.36 406.27 270.57 303.17 266.76"/>
    <g>
      <rect class="cls-1" x="349.3" y="280.29" width="8.34" height="54.2" transform="translate(-113.83 339.98) rotate(-45)"/>
      <rect class="cls-1" x="326.37" y="303.22" width="54.2" height="8.34" transform="translate(-113.83 339.98) rotate(-45)"/>
    </g>
  </g>
  <g>
    <g>
      <polygon class="cls-4" points="296.3 205.77 317.75 215.37 303.66 249.3 272.95 237.62 275.69 205.77 296.3 205.77"/>
      <path class="cls-2" d="M297.9,247l-1.27-.28,3.57-16.49-24.46-12.6,.6-1.16,24.9,12.83c.26,.14,.4,.43,.34,.72l-3.68,16.98Z"/>
      <path class="cls-2" d="M301.36,248.52l-1.24-.38,6.3-20.4-15.28-13.74,.87-.97,15.59,14.02c.19,.17,.26,.43,.19,.68l-6.43,20.8Z"/>
    </g>
    <polygon class="cls-4" points="161.53 125.65 214.72 88.31 301.63 122.19 292.06 194.49 268.83 208.12 161.53 125.65"/>
    <g>
      <polygon class="cls-8" points="279.06 193.24 295.85 187.3 297.61 214.89 279.06 218.58 279.06 193.24"/>
      <path class="cls-11" d="M279.47,208.03l-1.03-.82,8.04-10.15c.07-.09,.16-.16,.26-.2l4.89-2.05,.51,1.21-4.73,1.98-7.93,10.02Z"/>
    </g>
    <polygon class="cls-8" points="252.6 250.12 267.57 293.42 244.8 324.89 212.09 293.42 204.94 268.76 252.6 250.12"/>
    <path class="cls-7" d="M152.7,284.18c-17.96,39.02-53.26,113.87-53.26,113.87l248.28-2.81-29.77-109.36-53.07-.23-20.29,14.81,.21,22.35-6.46-21.49-28.93-17.14"/>
    <path class="cls-3" d="M279.18,161.68l.18,69.26c.01,4.8-2.52,9.25-6.66,11.68l-58.52,34.39c-3.62,2.13-8.17,1.82-11.47-.76l-37.3-29.17c-4.21-3.3-6.63-8.39-6.52-13.73l1.07-71.2,51.83-31.32,67.4,30.86Z"/>
    <path class="cls-4" d="M233.28,139.25c-25.26,14.54-73.37,43.56-73.37,43.56l.12-57.17s38.68,.38,55.27-.21c5.97,5.17,12.01,8.66,17.98,13.83Z"/>
    <g>
      <path class="cls-7" d="M201.57,179.7c.42,14.68,1.26,44.03,1.26,44.03l-13.4,.26s-3.37-31.76,12.13-44.29Z"/>
      <path class="cls-11" d="M189.44,224.69c-.36,0-.66-.27-.7-.62-.14-1.31-3.23-32.28,12.39-44.91,.21-.17,.49-.2,.73-.09,.24,.11,.4,.35,.41,.61l1.26,44.03c0,.19-.06,.37-.19,.5-.13,.13-.31,.21-.49,.22l-13.4,.26h-.01Zm11.48-43.5c-12.65,11.7-11.19,37.68-10.84,42.08l12.04-.24-1.2-41.85Z"/>
    </g>
    <path class="cls-11" d="M238.86,263.16c-.31,0-.59-.22-.64-.54-.82-4.48-1.43-13.33,3.74-22.27,4-6.94,10.28-11.91,18.66-14.77,7.3-2.49,13.92-2.09,18.2-1.32,.36,.06,.59,.41,.53,.76s-.4,.59-.76,.53c-4.12-.74-10.51-1.13-17.54,1.27-8.07,2.76-14.1,7.53-17.95,14.18-4.95,8.58-4.37,17.08-3.58,21.38,.07,.36-.17,.7-.53,.76-.04,0-.08,.01-.12,.01Z"/>
    <path class="cls-11" d="M184.25,262.47s-.05,0-.08,0c-.36-.04-.62-.37-.58-.73,.48-4.12,1.42-18.32-6.45-28.1-6.08-7.56-13.92-10.33-18.05-11.3-.35-.08-.57-.44-.49-.79,.08-.35,.45-.57,.79-.49,4.3,1.02,12.45,3.9,18.77,11.76,8.19,10.18,7.22,24.83,6.73,29.08-.04,.33-.32,.58-.65,.58Z"/>
    <path class="cls-2" d="M191.06,125.02s59.92,47.57,89.91,72.94c-.82-23.4-2.52-73.61-2.52-73.61l-87.39,.68Z"/>
    <polygon class="cls-2" points="218.53 181.12 252.44 175.62 251.77 163.28 216.43 173.54 218.53 181.12"/>
    <polygon class="cls-2" points="184.76 179.44 150.47 177.43 149.88 165.08 186.08 171.69 184.76 179.44"/>
    <path class="cls-18" d="M208.35,253.57l-1.33-.13,.06-.66c.02-.23,.63-5.76,8.46-10.6,7.86-4.86,14.94-1.39,15.23-1.24l.6,.3-.6,1.2-.6-.3c-.07-.03-6.72-3.27-13.92,1.18-7.21,4.46-7.83,9.54-7.83,9.58l-.07,.66Z"/>
    <g>
      <path class="cls-5" d="M117.95,275.19c2.55-2.43,29.07-14.34,29.07-14.34l35.09,6.01-10.19,26.2-29.61-3.52-8.34,6.28s-10.65-11.32-16.01-20.64Z"/>
      <path class="cls-11" d="M179.2,275.48c-.06,0-.12,0-.19-.03l-19.43-6.04c-.33-.1-.52-.46-.42-.79,.1-.33,.45-.52,.79-.42l19.43,6.04c.33,.1,.52,.46,.42,.79-.08,.27-.33,.44-.6,.44Z"/>
      <path class="cls-11" d="M173.5,289.22s-.07,0-.11,0l-20.11-3.41c-.34-.06-.58-.38-.52-.73s.39-.58,.73-.52l20.11,3.41c.34,.06,.58,.38,.52,.73-.05,.31-.32,.53-.62,.53Z"/>
      <path class="cls-11" d="M176.19,282.4c-.05,0-.11,0-.16-.02l-20.84-5.62c-.34-.09-.54-.44-.45-.77s.44-.53,.77-.45l20.84,5.62c.34,.09,.54,.44,.45,.77-.08,.28-.33,.47-.61,.47Z"/>
    </g>
    <path class="cls-18" d="M140.4,291.95l7.42,107.64H80.29s2.38-20.52,14.54-66.85c12.16-46.34,23.75-60.16,23.75-60.16l21.82,19.38Z"/>
    <g>
      <path class="cls-15" d="M170.84,200.76c-2.98,2.45-2.15,6.92-1.94,8.07,.24,1.28,.91,4.88,3.72,5.88,1.98,.71,3.82-.3,3.92-.35,2.99-1.69,2.82-6.24,2.76-7.8-.07-2.03-.21-5.59-2.72-6.84-1.92-.96-4.34-.12-5.75,1.04Z"/>
      <path class="cls-4" d="M160.3,205.22c1.95-1.25,2.79-3.13,9.63-4.73,6.84-1.6,14.41,4.48,14.41,4.48l1.06-1.43s-6.71-5.76-13.86-5.28c-7.15,.48-10.64,3.77-12.44,5l1.19,1.96Z"/>
      <polygon class="cls-4" points="158.34 199.52 159.1 203.26 162.1 201.69 158.34 199.52"/>
    </g>
    <g>
      <path class="cls-15" d="M233.73,200.98c2.98,2.45,2.15,6.92,1.94,8.07-.24,1.28-.91,4.88-3.72,5.88-1.98,.71-3.82-.3-3.92-.35-2.99-1.69-2.82-6.24-2.76-7.8,.07-2.03,.21-5.59,2.72-6.84,1.92-.96,4.34-.12,5.75,1.04Z"/>
      <path class="cls-4" d="M244.27,205.44c-1.95-1.25-2.79-3.13-9.63-4.73s-14.41,4.48-14.41,4.48l-1.06-1.43s6.71-5.76,13.86-5.28c7.15,.48,10.64,3.77,12.44,5l-1.19,1.96Z"/>
      <polygon class="cls-4" points="246.23 199.74 245.47 203.47 242.47 201.9 246.23 199.74"/>
    </g>
    <g>
      <path class="cls-2" d="M191.21,125.39s59.76,47.44,89.67,72.74c-.74-18.03-1.37-36.23-1.87-54.58-.18-6.66-.35-13.29-.49-19.91-29.1,.58-58.21,1.17-87.31,1.75Z"/>
      <polygon class="cls-2" points="160.3 127.13 160.26 125.82 160.92 125.8 301.17 122.44 301.21 123.75 300.55 123.77 160.3 127.13"/>
      <rect class="cls-4" x="265.12" y="116.08" width="1.31" height="82.12" transform="translate(-37.23 97.84) rotate(-19.52)"/>
      <polygon class="cls-4" points="278.75 194.92 278.33 194.41 218.9 122.32 219.91 121.49 220.32 121.99 279.76 194.09 278.75 194.92"/>
    </g>
  </g>
  <g>
    <path class="cls-9" d="M22.62,373.6c4.95-3.71,9.9-7.42,14.84-11.13,.62-7.92,1.24-15.83,1.86-23.75,29.07,.37,58.13,.74,87.2,1.11,1.11,22.26,2.23,44.53,3.34,66.79-32.04-2.47-64.07-4.95-96.11-7.42,.37-7.92,.74-15.83,1.11-23.75-4.08-.62-8.16-1.24-12.25-1.86Z"/>
    <path class="cls-1" d="M115.07,354.75H50.06l-.62,28.19,66.6,5.81-.96-34Zm-2.61,31.5l-34.35-3.23v-25.1h34.35v28.33Z"/>
    <polygon class="cls-1" points="104.06 363.76 106.37 366.97 85.16 379.83 83.61 377.26 104.06 363.76"/>
    <polygon class="cls-1" points="83.96 366.46 86.12 363.14 105.76 378.3 103.92 380.67 83.96 366.46"/>
  </g>
</svg>