<?xml version="1.0" encoding="UTF-8"?>
<svg id="Layer_2" data-name="Layer 2" xmlns="http://www.w3.org/2000/svg" xmlns:xlink="http://www.w3.org/1999/xlink" viewBox="0 0 428 443.33">
  <defs>
    <style>
      .cls-1 {
        fill: #fff;
      }

      .cls-2 {
        fill: #3d3d3d;
      }

      .cls-3 {
        fill: #181216;
      }

      .cls-4 {
        fill: #ef9d7f;
      }

      .cls-5 {
        fill: #363636;
      }

      .cls-6 {
        fill: #62aa7a;
      }

      .cls-7 {
        fill: #bf692e;
      }

      .cls-8 {
        fill: #f3b53f;
      }

      .cls-9 {
        fill: #f55;
      }

      .cls-10 {
        fill: #e58e73;
      }

      .cls-11 {
        fill: #d17d69;
      }

      .cls-12 {
        fill: #333;
      }

      .cls-13 {
        fill: #f7f2dc;
      }

      .cls-14 {
        clip-path: url(#clippath-1);
      }

      .cls-15 {
        fill: #b2dff9;
      }

      .cls-16 {
        fill: #d3806a;
      }

      .cls-17 {
        fill: #a17f60;
      }

      .cls-18 {
        fill: #f80500;
      }

      .cls-19 {
        fill: #a92216;
      }

      .cls-20 {
        fill: #afa784;
      }

      .cls-21 {
        fill: #ee8632;
      }

      .cls-22 {
        fill: #f4ae32;
      }

      .cls-23 {
        clip-path: url(#clippath);
      }

      .cls-24 {
        fill: none;
      }

      .cls-25 {
        fill: #946c4e;
      }

      .cls-26 {
        fill: #353535;
      }

      .cls-27 {
        fill: #474747;
      }

      .cls-28 {
        fill: #515151;
      }

      .cls-29 {
        fill: #b72c2c;
      }

      .cls-30 {
        fill: #6d6d6d;
      }

      .cls-31 {
        fill: #666;
      }

      .cls-32 {
        fill: #ff7373;
      }
    </style>
    <clipPath id="clippath">
      <path class="cls-24" d="M326.46,60.51v77.87c0,8.43-6.83,15.27-15.27,15.27h-.44v18.47l-20.77-18.47h-53.6c-8.43,0-15.27-6.84-15.27-15.27V60.51c0-8.43,6.84-15.27,15.27-15.27h74.81c8.44,0,15.27,6.84,15.27,15.27Z"/>
    </clipPath>
    <clipPath id="clippath-1">
      <path class="cls-24" d="M232.24,280.22l9.54-25.08-21.93,19.54c-3.24-.78-6.64-1.14-10.14-.99-20.4,.83-36.26,18.04-35.43,38.44,.83,20.4,18.04,36.26,38.44,35.43,20.4-.83,36.26-18.04,35.43-38.44-.49-12.05-6.7-22.52-15.91-28.9Z"/>
    </clipPath>
  </defs>
  <path class="cls-20" d="M400.24,387.11H27.76c-.55,0-1-.45-1-1s.45-1,1-1H400.24c.55,0,1,.45,1,1s-.45,1-1,1Z"/>
  <g>
    <path class="cls-20" d="M267.31,230.8h-106.79c-8.12,0-14.73-6.61-14.73-14.73v-23.93c0-8.12,6.61-14.73,14.73-14.73h106.79c8.12,0,14.73,6.61,14.73,14.73v23.93c0,8.12-6.61,14.73-14.73,14.73Zm-106.79-51.39c-7.02,0-12.73,5.71-12.73,12.73v23.93c0,7.02,5.71,12.73,12.73,12.73h106.79c7.02,0,12.73-5.71,12.73-12.73v-23.93c0-7.02-5.71-12.73-12.73-12.73h-106.79Z"/>
    <path class="cls-20" d="M213.92,230.8c-.55,0-1-.45-1-1v-51.39c0-.55,.45-1,1-1s1,.45,1,1v51.39c0,.55-.45,1-1,1Z"/>
  </g>
  <rect class="cls-6" x="132.39" y="129.07" width="75.51" height="28.62" rx="14.31" ry="14.31"/>
  <rect class="cls-1" x="221.11" y="45.24" width="105.13" height="108.41" rx="20.74" ry="20.74"/>
  <g class="cls-23">
    <g>
      <g>
        <polygon class="cls-30" points="304.83 124.9 286.14 173.52 318.12 169.45 319.02 126.28 304.83 124.9"/>
        <path class="cls-4" d="M307.17,111.3l-.18,6.23-1-1.11c-.66-.73-1.59-1.19-2.58-1.21-.53,0-1.09,.06-1.5,.3-.77,.46-.18,1.85,.24,2.64,.19,.36,.45,.67,.76,.92l3.94,3.22-.08,2.8,12.26,1.19,1.37-13.23s.09-4.4-4.85-7.97c-2.49-1.79-4.57-.79-6.04,.65-1.48,1.46-2.28,3.48-2.34,5.56Z"/>
        <path class="cls-18" d="M310.34,115.35c-.34,0-.62-.25-.66-.6l-.85-8.34c-.04-.36,.23-.69,.59-.73,.37-.03,.69,.23,.73,.59l.85,8.34c.04,.36-.23,.69-.59,.73-.02,0-.05,0-.07,0Z"/>
        <path class="cls-18" d="M313.1,115.16s-.02,0-.03,0c-.37-.02-.65-.33-.63-.69l.44-9.39c.02-.37,.34-.63,.69-.63,.37,.02,.65,.33,.63,.69l-.44,9.39c-.02,.36-.31,.63-.66,.63Z"/>
        <path class="cls-18" d="M316.4,114.77s-.08,0-.13-.01c-.36-.07-.6-.42-.53-.78l1.25-6.52c.07-.36,.42-.6,.78-.53,.36,.07,.6,.42,.53,.78l-1.25,6.52c-.06,.32-.34,.54-.65,.54Z"/>
      </g>
      <path class="cls-27" d="M308.78,147.16l12.2,27.36-115.31,4.01s2.67-11.07,7.55-18.74c4.87-7.67,19.18-23.87,19.18-23.87l76.38,11.24Z"/>
      <path class="cls-28" d="M300.89,73.99l-30.15-16.55-31.48,20.56,.18,48.28-17.62,20.64s20.36,20.44,46.91,19.52c26.54-.92,47.89-12.26,47.89-12.26l-11.85-30.46-3.87-49.73Z"/>
      <path class="cls-1" d="M275.62,166.57c-.37,0-.66-.3-.66-.66l-.12-35.68c0-.37,.29-.66,.66-.67h0c.37,0,.66,.3,.66,.66l.12,35.68c0,.37-.29,.66-.66,.67h0Z"/>
      <g>
        <g>
          <path class="cls-22" d="M279.69,127.42c.26-.03,1.51-.17,2.96,.6,.45,.24,1.18,.7,1.86,1.54-1.1,.57-2.06,.7-2.62,.73-.81,.04-2.17,.12-2.94-.77-.36-.42-.67-1.16-.39-1.62,.21-.35,.67-.42,1.12-.47Z"/>
          <path class="cls-22" d="M279.6,130.05c.25,.09,1.41,.54,2.35,1.9,.29,.42,.72,1.16,.94,2.22-1.24,0-2.15-.33-2.66-.56-.74-.34-1.98-.9-2.25-2.03-.13-.54-.07-1.34,.4-1.62,.35-.21,.79-.06,1.21,.1Z"/>
          <path class="cls-22" d="M278.22,132.31c.09,.25,.48,1.44,.03,3.02-.14,.49-.44,1.3-1.12,2.14-.78-.96-1.11-1.87-1.25-2.41-.21-.79-.57-2.1,.14-3.03,.34-.44,.99-.9,1.51-.72,.39,.13,.55,.57,.7,1Z"/>
          <path class="cls-22" d="M275.55,132.75c-.01,.26-.09,1.51-1.1,2.82-.31,.4-.89,1.04-1.84,1.57-.37-1.18-.33-2.15-.26-2.7,.1-.81,.26-2.16,1.26-2.76,.48-.28,1.25-.46,1.67-.1,.31,.27,.29,.73,.27,1.19Z"/>
          <path class="cls-22" d="M273.36,131.78c-.16,.21-.93,1.2-2.5,1.7-.48,.15-1.32,.35-2.4,.25,.36-1.18,.94-1.96,1.31-2.38,.54-.61,1.44-1.64,2.6-1.56,.55,.03,1.3,.33,1.43,.86,.1,.4-.17,.77-.44,1.13Z"/>
          <path class="cls-22" d="M271.79,129.74c-.26,.06-1.49,.3-3-.35-.47-.2-1.23-.59-1.98-1.38,1.05-.66,1.99-.87,2.55-.94,.81-.11,2.16-.3,2.99,.52,.4,.39,.77,1.09,.53,1.59-.18,.37-.63,.47-1.08,.57Z"/>
        </g>
        <path class="cls-1" d="M280.12,127.2c-.63-2.56-8.19-1.69-8.83,.58-.65,2.27,2.04,5.32,4.97,4.94,2.93-.38,4.49-2.96,3.86-5.52Z"/>
      </g>
      <polygon class="cls-4" points="300.74 86.25 249.96 88.01 250.41 115.69 276.06 130.23 301.32 114.42 300.74 86.25"/>
      <path class="cls-27" d="M249.14,76.54l.44,12.55,51.78-1.8-.46-13.31s-12.94-1.07-25.2-.65c-12.26,.43-26.55,3.21-26.55,3.21Z"/>
      <path class="cls-12" d="M269.45,92.28l.13,3.86s-3.96-.05-7.94-.83-8.75-3.01-8.75-3.01l-.17-4.96s6.16,2.45,8.39,3.11,8.34,1.83,8.34,1.83Z"/>
      <path class="cls-12" d="M283.67,92.54l.14,4.06,14.98-3.56-.63-4.12s-4.9,.79-7.47,1.43-7.03,2.18-7.03,2.18Z"/>
      <path class="cls-18" d="M264.9,124.57h0c-.37,0-.66-.3-.66-.67,0-.06-.01-5.62-4.22-9.14-4.22-3.54-9.55-2.97-9.61-2.96-.36,.05-.69-.22-.74-.58-.04-.36,.22-.69,.58-.74,.24-.03,5.94-.65,10.61,3.26,4.69,3.93,4.69,9.91,4.69,10.17,0,.36-.3,.66-.66,.66Z"/>
      <path class="cls-18" d="M288.7,122.98s-.04,0-.06,0c-.37-.03-.64-.35-.61-.72,.02-.26,.58-6.45,5.16-9.96,4.57-3.5,7.98-3.05,8.13-3.03,.36,.05,.61,.39,.56,.75-.05,.36-.39,.6-.75,.56-.03,0-3.04-.36-7.13,2.77-4.1,3.14-4.64,8.95-4.65,9.01-.03,.35-.32,.61-.66,.61Z"/>
      <path class="cls-29" d="M274.68,123.47c-.08,0-.16-.01-.24-.05-.11-.04-2.63-1.06-4.6-3.87-1.93-2.75-2.51-5.15-2.53-5.25-.08-.36,.14-.71,.49-.8,.35-.08,.71,.14,.8,.49,0,.02,.56,2.27,2.33,4.79,1.74,2.49,3.98,3.39,4,3.39,.34,.13,.51,.52,.38,.86-.1,.26-.35,.42-.62,.42Z"/>
      <g>
        <path class="cls-26" d="M286.9,106.45s-.1,0-.15-.03c-.19-.08-.28-.3-.2-.49,.43-1,1.46-2.85,3.57-4.05,3.46-1.96,7.02-.59,7.7-.3,.19,.08,.28,.3,.2,.49-.08,.19-.3,.28-.49,.19-.62-.27-3.88-1.52-7.03,.27-1.92,1.09-2.86,2.78-3.25,3.69-.06,.14-.2,.23-.34,.23Z"/>
        <path class="cls-26" d="M296.9,101.7s-.1,0-.14-.03c-.19-.08-.28-.3-.2-.49l.78-1.88c.08-.19,.3-.28,.49-.2,.19,.08,.28,.3,.2,.49l-.78,1.88c-.06,.14-.2,.23-.35,.23Z"/>
        <path class="cls-26" d="M295.43,101.48c-.21,0-.37-.17-.38-.37l-.02-1.95c0-.21,.16-.38,.37-.38,.2-.03,.38,.16,.38,.37l.02,1.95c0,.21-.16,.38-.37,.38h0Z"/>
        <path class="cls-26" d="M292.28,101.68c1.5,.34,1.99,2.08,2.12,2.53,.14,.5,.54,1.9-.28,2.75-.58,.6-1.41,.57-1.46,.57-1.36-.07-2.11-1.72-2.37-2.28-.33-.73-.92-2.02-.25-2.92,.51-.68,1.52-.81,2.23-.65Z"/>
      </g>
      <g>
        <path class="cls-26" d="M268.71,105.82c-.14,0-.27-.08-.34-.21-.43-.89-1.45-2.54-3.42-3.53-3.23-1.63-6.43-.23-7.04,.07-.19,.09-.41,.01-.5-.17-.09-.19-.01-.41,.17-.5,.67-.32,4.16-1.85,7.71-.06,2.17,1.09,3.28,2.9,3.76,3.88,.09,.19,.01,.41-.17,.5-.05,.03-.11,.04-.16,.04Z"/>
        <path class="cls-26" d="M258.5,101.55c-.14,0-.28-.08-.34-.21l-.87-1.84c-.09-.19,0-.41,.18-.5,.19-.09,.41,0,.5,.18l.87,1.84c.09,.19,0,.41-.18,.5-.05,.02-.11,.04-.16,.04Z"/>
        <path class="cls-26" d="M259.95,101.26c-.2,0-.37-.16-.37-.36l-.07-1.95c0-.21,.15-.38,.36-.39,.18,.03,.38,.15,.39,.36l.07,1.95c0,.21-.15,.38-.36,.39h-.01Z"/>
        <path class="cls-26" d="M263.13,101.31c-1.48,.41-1.89,2.17-2,2.62-.12,.5-.45,1.92,.41,2.74,.61,.58,1.44,.51,1.48,.5,1.36-.14,2.03-1.82,2.26-2.39,.3-.75,.82-2.07,.11-2.92-.54-.66-1.56-.74-2.26-.55Z"/>
      </g>
      <path class="cls-18" d="M287.09,113.25h-.02l-10.03-.39c-.14,0-.27-.07-.36-.17-.09-.1-.13-.24-.12-.38l1.73-16.94c.02-.22,.19-.4,.41-.44,.21-.05,.44,.07,.54,.28l8.29,17.34c.08,.16,.06,.34-.03,.49-.09,.14-.25,.23-.42,.23Zm-9.47-1.37l8.67,.34-7.17-14.98-1.5,14.65Z"/>
    </g>
  </g>
  <g>
    <path class="cls-20" d="M236.61,185.17l-6.06,11.72v5.79h-4.27v-5.79l-6.06-11.72h4.84l3.39,7.33,3.37-7.33h4.79Z"/>
    <path class="cls-20" d="M249.24,199.59h-6.54l-1.05,3.09h-4.46l6.34-17.51h4.94l6.34,17.51h-4.51l-1.05-3.09Zm-1.1-3.29l-2.17-6.41-2.15,6.41h4.32Z"/>
    <path class="cls-20" d="M259.61,202.23c-1.01-.41-1.83-1.03-2.43-1.85-.61-.81-.93-1.79-.96-2.94h4.54c.07,.65,.29,1.14,.67,1.48,.38,.34,.88,.51,1.5,.51s1.13-.15,1.5-.44c.37-.29,.55-.69,.55-1.21,0-.43-.15-.79-.44-1.07s-.65-.52-1.07-.7c-.42-.18-1.03-.39-1.81-.62-1.13-.35-2.05-.7-2.77-1.05s-1.33-.86-1.85-1.55c-.52-.68-.77-1.57-.77-2.67,0-1.63,.59-2.91,1.77-3.83,1.18-.92,2.72-1.38,4.62-1.38s3.48,.46,4.67,1.38c1.18,.92,1.81,2.21,1.9,3.85h-4.62c-.03-.57-.24-1.01-.62-1.33-.38-.32-.87-.49-1.47-.49-.52,0-.93,.14-1.25,.41-.32,.28-.47,.67-.47,1.19,0,.57,.27,1.01,.8,1.32,.53,.32,1.36,.66,2.49,1.02,1.13,.38,2.05,.75,2.76,1.1s1.32,.86,1.83,1.52,.77,1.52,.77,2.57-.25,1.9-.76,2.72c-.51,.81-1.24,1.46-2.21,1.95-.96,.48-2.1,.72-3.42,.72s-2.43-.21-3.44-.62Z"/>
    <path class="cls-20" d="M242.15,205.73v17.51h-4.27v-10.5l-3.92,10.5h-3.44l-3.94-10.53v10.53h-4.27v-17.51h5.04l4.91,12.12,4.86-12.12h5.01Z"/>
    <path class="cls-20" d="M249.49,205.73v17.51h-4.27v-17.51h4.27Z"/>
    <path class="cls-20" d="M268.24,223.24h-4.27l-7.13-10.8v10.8h-4.27v-17.51h4.27l7.13,10.85v-10.85h4.27v17.51Z"/>
  </g>
  <path class="cls-15" d="M179.78,118.97c.08,.21,1.9,5.2-1.25,9.25-2.47,3.18-7.01,4.39-11.03,2.94-.24-.09-.53,.02-.64,.25-1.53,3.01-4.57,4.9-7.93,4.93h-.06c-3.35,0-6.48-1.93-8-4.93-.01-.01-.02-.02-.03-.04-.02-.03-.04-.05-.07-.08-.02-.02-.05-.04-.07-.06-.02-.01-.03-.03-.05-.04-.01,0-.02,0-.04-.01-.03-.01-.06-.02-.09-.02-.03-.01-.06-.02-.11-.02-.03,0-.06,.01-.09,.02-.03,0-.06,.01-.11,.02-.01,.01-.02,.01-.03,.01-.02,.01-.03,.03-.05,.04-.02,.02-.05,.04-.07,.06-.03,.02-.05,.05-.07,.08-.01,.01-.02,.02-.03,.04-1.58,3.08-4.82,5.01-8.24,4.93-3.28-.08-6.25-1.97-7.76-4.93-.01-.02-.03-.03-.04-.04-.01-.03-.03-.06-.06-.08-.02-.03-.05-.05-.08-.07-.02,0-.03-.02-.04-.03-.01,0-.02,0-.04-.01-.03-.01-.07-.02-.11-.03-.03,0-.06-.01-.09-.01s-.06,.01-.11,.02c-.03,0-.06,.01-.09,.02-.01,.01-.02,.01-.04,.01-.01,.01-.02,.03-.04,.04-.03,.02-.05,.04-.08,.06-.02,.03-.04,.05-.06,.08-.01,.02-.02,.03-.03,.04-1.54,3.04-4.6,4.93-8,4.93h-.01c-3.39-.01-6.45-1.89-7.98-4.93-.13-.25-.44-.36-.7-.23-3.94,1.9-8.68,.91-11.26-2.35-2.14-2.71-2.46-6.57-.8-9.81,.06-.13,.07-.27,.03-.4-.04-.14-.14-.25-.26-.32-3.01-1.52-4.9-4.56-4.92-7.93-.03-3.37,1.9-6.53,4.92-8.07,.13-.06,.23-.18,.26-.33,.04-.14,.02-.28-.05-.41-2.08-3.39-1.67-7.76,.98-10.64,2.8-3.04,7.46-3.68,11.07-1.51,.12,.07,.27,.09,.41,.05,.14-.04,.26-.14,.33-.26,1.52-3.01,4.57-4.9,7.93-4.93h.06c3.34,0,6.48,1.93,8,4.93,.01,.01,.02,.02,.03,.04,.02,.03,.04,.05,.06,.08,.03,.02,.05,.04,.08,.06,.02,.01,.03,.03,.04,.03,.02,.01,.03,.01,.04,.02,.03,.01,.06,.01,.09,.02,.04,.01,.07,.01,.12,.01,.02,0,.05,0,.07-.01,.04,0,.08-.01,.13-.03h.03s.02-.03,.04-.04c.03-.02,.06-.04,.08-.06,.03-.03,.05-.05,.06-.08,.01-.01,.03-.02,.04-.04,1.58-3.08,4.82-5,8.23-4.93,3.29,.08,6.26,1.97,7.77,4.93,0,.01,.02,.01,.02,.02,.04,.06,.08,.12,.15,.16,.02,.01,.03,.02,.04,.03s.01,.01,.02,.02c.07,.03,.15,.04,.22,.05h.01s.03-.01,.04-.01c.06,0,.12-.02,.17-.04,.01,0,.02,0,.03-.01,.02,0,.03-.02,.04-.03,.03-.02,.06-.04,.09-.06,.02-.03,.04-.05,.05-.08l.04-.04c1.53-3.04,4.6-4.93,7.99-4.93h.02c3.39,.01,6.45,1.89,7.98,4.93,.06,.13,.18,.22,.32,.26,.14,.04,.28,.02,.41-.05,3.83-2.2,8.78-1.4,11.5,1.85,2.36,2.83,2.66,6.98,.74,10.32-.07,.13-.09,.27-.05,.41,.04,.14,.14,.25,.26,.32,3.01,1.53,4.9,4.57,4.93,7.94,.02,3.36-1.91,6.53-4.93,8.06-.23,.13-.35,.41-.25,.66Z"/>
  <path class="cls-15" d="M91.5,130.84c-1.58-2.19-4.58-2.74-6.7-1.39-2.31,1.47-2.99,4.79-1.26,7.18-1.99,1.07-3.1,3.19-2.78,5.21,.39,2.51,2.92,4.47,5.83,4.16,.55,2.5,2.82,4.21,5.25,4.06,2.21-.14,4.11-1.8,4.6-4.06,3.18,.61,6.03-1.53,6.36-4.16,.26-2.07-1.07-4.27-3.32-5.21,1.44-2.18,.94-5.12-1.09-6.67-2.1-1.61-5.19-1.24-6.88,.88Z"/>
  <path class="cls-15" d="M105.51,154.85c-1.07-1.48-3.1-1.86-4.54-.94-1.57,.99-2.02,3.25-.86,4.86-1.35,.72-2.1,2.16-1.89,3.53,.26,1.7,1.98,3.03,3.95,2.82,.37,1.69,1.91,2.85,3.56,2.75,1.5-.1,2.79-1.22,3.11-2.75,2.15,.42,4.09-1.04,4.31-2.82,.17-1.4-.73-2.89-2.25-3.53,.97-1.48,.63-3.47-.74-4.52-1.42-1.09-3.52-.84-4.66,.59Z"/>
  <g>
    <circle class="cls-2" cx="125.43" cy="110.93" r="4.6"/>
    <circle class="cls-2" cx="142.33" cy="110.93" r="4.6"/>
    <circle class="cls-2" cx="159.23" cy="110.93" r="4.6"/>
  </g>
  <g>
    <circle class="cls-13" cx="155.42" cy="143.38" r="4"/>
    <circle class="cls-13" cx="170.15" cy="143.38" r="4"/>
    <circle class="cls-13" cx="184.87" cy="143.38" r="4"/>
  </g>
  <g>
    <rect class="cls-8" x="80.78" y="25.99" width="122.49" height="66.7" rx="33.17" ry="33.17"/>
    <g>
      <path class="cls-28" d="M128.12,77.13h-8.15l-13.63-20.63v20.63h-8.15V43.68h8.15l13.63,20.73v-20.73h8.15v33.45Z"/>
      <path class="cls-28" d="M143.58,75.27c-2.62-1.46-4.7-3.5-6.24-6.12-1.54-2.62-2.31-5.57-2.31-8.84s.77-6.21,2.31-8.82c1.54-2.6,3.62-4.64,6.24-6.1,2.62-1.46,5.5-2.19,8.65-2.19s6.03,.73,8.65,2.19,4.69,3.49,6.19,6.1c1.51,2.61,2.26,5.54,2.26,8.82s-.76,6.22-2.29,8.84c-1.52,2.62-3.59,4.66-6.19,6.12-2.6,1.46-5.48,2.19-8.62,2.19s-6.03-.73-8.65-2.19Zm15.06-7.91c1.6-1.78,2.41-4.13,2.41-7.05s-.8-5.31-2.41-7.08c-1.6-1.76-3.74-2.64-6.41-2.64s-4.85,.87-6.46,2.62c-1.6,1.75-2.41,4.11-2.41,7.1s.8,5.31,2.41,7.08c1.6,1.76,3.76,2.64,6.46,2.64s4.8-.89,6.41-2.67Z"/>
      <path class="cls-28" d="M179.17,76.25c-.91-.84-1.36-1.88-1.36-3.12s.45-2.33,1.36-3.19c.91-.86,2.07-1.29,3.5-1.29s2.55,.43,3.45,1.29c.91,.86,1.36,1.92,1.36,3.19s-.45,2.28-1.36,3.12-2.06,1.26-3.45,1.26-2.6-.42-3.5-1.26Zm7.79-33.76l-.95,22.82h-6.91l-.95-22.82h8.81Z"/>
    </g>
  </g>
  <g>
    <polygon class="cls-5" points="72.62 253.44 56.14 260.81 66.96 286.87 90.55 277.9 88.45 253.44 72.62 253.44"/>
    <path class="cls-3" d="M71.39,285.11l-2.82-13.04c-.05-.22,.06-.45,.26-.55l19.13-9.86,.46,.89-18.79,9.68,2.74,12.67-.98,.21Z"/>
    <path class="cls-3" d="M68.73,286.27l-4.94-15.97c-.06-.19,0-.39,.14-.52l11.97-10.77,.67,.74-11.73,10.55,4.84,15.67-.96,.29Z"/>
  </g>
  <polygon class="cls-5" points="167.13 197.04 129.5 170.63 68.03 194.6 74.79 245.74 91.23 255.38 167.13 197.04"/>
  <g>
    <polygon class="cls-10" points="83.99 244.85 72.11 240.65 70.87 260.16 83.99 262.78 83.99 244.85"/>
    <path class="cls-18" d="M83.7,255.31l-5.61-7.09-3.35-1.4,.36-.86,3.46,1.45c.07,.03,.14,.08,.19,.14l5.68,7.18-.73,.58Z"/>
  </g>
  <polygon class="cls-10" points="102.7 285.09 92.12 315.72 108.23 337.98 131.36 315.72 136.42 298.27 102.7 285.09"/>
  <path class="cls-9" d="M173.37,309.18c12.7,27.6,37.68,80.54,37.68,80.54l-175.62-1.99,21.06-77.36,37.54-.16,14.35,10.47-.15,15.81,4.57-15.2,20.46-12.12"/>
  <path class="cls-4" d="M83.9,222.53l-.13,48.99c0,3.4,1.79,6.54,4.71,8.26l41.4,24.32c2.56,1.5,5.78,1.29,8.12-.54l26.38-20.63c2.98-2.33,4.69-5.93,4.61-9.72l-.76-50.36-36.66-22.15-47.67,21.83Z"/>
  <path class="cls-5" d="M116.37,206.66c17.87,10.28,52.63,32.33,52.63,32.33l-.82-41.97s-27.36,.27-39.09-.15c-4.22,3.65-8.5,6.13-12.72,9.78Z"/>
  <polygon class="cls-3" points="150.2 224.09 171.73 232.1 170.51 239 147.85 227.03 150.2 224.09"/>
  <polygon class="cls-3" points="120.19 223.64 97.71 228.31 97.87 235.32 122.08 226.9 120.19 223.64"/>
  <g>
    <path class="cls-9" d="M138.8,235.28l-.89,31.14,9.48,.19s2.38-22.46-8.58-31.33Z"/>
    <path class="cls-18" d="M147.38,267.1h0l-9.48-.19c-.13,0-.26-.06-.35-.15-.09-.09-.14-.22-.14-.35l.89-31.14c0-.19,.12-.36,.29-.43,.17-.08,.37-.05,.52,.06,11.05,8.93,8.86,30.84,8.76,31.76-.03,.25-.24,.44-.49,.44Zm-8.97-1.16l8.51,.17c.25-3.11,1.28-21.49-7.67-29.77l-.85,29.6Z"/>
  </g>
  <path class="cls-18" d="M112.42,294.31s-.06,0-.08,0c-.25-.05-.42-.29-.37-.54,.56-3.04,.97-9.06-2.53-15.12-2.72-4.71-6.99-8.08-12.69-10.03-4.97-1.7-9.49-1.43-12.41-.9-.25,.04-.49-.12-.54-.37-.05-.25,.12-.49,.37-.54,3.02-.55,7.71-.83,12.87,.93,5.92,2.02,10.36,5.54,13.2,10.44,3.65,6.33,3.22,12.59,2.64,15.76-.04,.22-.24,.38-.46,.38Z"/>
  <path class="cls-18" d="M151.05,293.82c-.23,0-.43-.17-.46-.41-.35-3-1.03-13.37,4.76-20.57,4.47-5.56,10.24-7.6,13.28-8.32,.25-.06,.5,.1,.56,.35,.06,.25-.1,.5-.35,.56-2.92,.69-8.47,2.65-12.77,7.99-5.57,6.92-4.9,16.96-4.56,19.88,.03,.25-.15,.49-.41,.52-.02,0-.04,0-.05,0Z"/>
  <g>
    <path class="cls-16" d="M107.61,313.95c.44-2.55-.03-11.46-.03-11.46l-1.64-13.66-33.46-21.57-10.45,15.14s9.53,9.02,12.64,11.57c5.85,4.79,8.45,8.65,8.45,8.65l.22,12.31s16.38-.44,24.27-.99Z"/>
    <path class="cls-18" d="M83.78,279.88c-.09,0-.19-.03-.27-.08l-12.26-8.61c-.21-.15-.26-.44-.11-.65,.15-.21,.44-.26,.65-.11l12.26,8.61c.21,.15,.26,.44,.11,.65-.09,.13-.23,.2-.38,.2Z"/>
    <path class="cls-18" d="M76.42,289.64c-.11,0-.23-.04-.31-.12l-11.03-10.19c-.19-.17-.2-.47-.03-.66,.18-.19,.47-.2,.66-.03l11.03,10.19c.19,.17,.2,.47,.03,.66-.09,.1-.22,.15-.34,.15Z"/>
    <path class="cls-18" d="M81.14,284.91c-.1,0-.2-.03-.28-.09l-12.65-9.62c-.2-.16-.24-.45-.09-.65,.15-.2,.45-.24,.65-.09l12.65,9.62c.2,.16,.24,.45,.09,.65-.09,.12-.23,.18-.37,.18Z"/>
    <path class="cls-29" d="M79.64,309.57l30.84,2.36s1.57,42.53,0,78.48l-55.85-.69"/>
  </g>
  <path class="cls-3" d="M146.24,196.6s-42.38,33.65-63.6,51.59c.58-16.55,1.78-52.07,1.78-52.07l61.81,.48Z"/>
  <path class="cls-19" d="M121.22,280.81l-.8-1.68c1.24-.59,12.24-5.66,17.09-2.91,1.31,.74,2.09,2.01,2.24,3.66l-1.85,.18c-.1-1.07-.52-1.77-1.31-2.22-3.4-1.94-12.25,1.49-15.38,2.97Z"/>
  <path class="cls-4" d="M163.03,377.71c-1.68-1.97-8.83-7.3-8.83-7.3l-11.55-7.47-37.98,11.95,4.97,17.71s13.03-1.56,16.97-2.32c7.43-1.44,31.79-6.15,36.42-12.57Z"/>
  <path class="cls-18" d="M106.78,378.36c-.2,0-.39-.14-.45-.34-.07-.25,.08-.5,.33-.57l14.46-3.92c.24-.07,.5,.08,.57,.33,.07,.25-.08,.5-.33,.57l-14.46,3.92s-.08,.02-.12,.02Z"/>
  <path class="cls-18" d="M109.15,388.31c-.23,0-.43-.17-.46-.4-.03-.25,.15-.49,.4-.52l14.89-1.97c.26-.02,.49,.15,.52,.4,.03,.25-.15,.49-.4,.52l-14.89,1.97s-.04,0-.06,0Z"/>
  <path class="cls-18" d="M107.94,383.25c-.21,0-.4-.15-.45-.36-.06-.25,.1-.5,.35-.56l15.48-3.58c.25-.06,.5,.1,.56,.35s-.1,.5-.35,.56l-15.48,3.58s-.07,.01-.1,.01Z"/>
  <polygon class="cls-29" points="192.61 350.5 137.91 363.16 136.42 389.72 213.76 390.41 192.61 350.5"/>
  <g>
    <path class="cls-26" d="M111.13,244.5c-2.03,1.99-1.13,5.21-.9,6.03,.26,.92,.98,3.51,3.11,4.07,1.5,.39,2.78-.46,2.85-.51,2.08-1.43,1.66-4.75,1.52-5.89-.19-1.48-.51-4.08-2.43-4.83-1.47-.58-3.18,.19-4.14,1.13Z"/>
    <path class="cls-5" d="M103.69,248.45c1.35-1.04,1.84-2.47,6.75-4.08s10.84,2.35,10.84,2.35l.68-1.12s-5.28-3.79-10.49-2.98c-5.21,.81-7.55,3.45-8.79,4.46l1,1.36Z"/>
    <polygon class="cls-5" points="101.89 244.4 102.69 247.09 104.79 245.74 101.89 244.4"/>
  </g>
  <g>
    <path class="cls-26" d="M161.07,245.91c2.03,1.99,1.13,5.21,.9,6.03-.26,.92-.98,3.51-3.11,4.07-1.5,.39-2.78-.46-2.85-.51-2.08-1.43-1.66-4.75-1.52-5.89,.19-1.48,.51-4.08,2.43-4.83,1.47-.58,3.18,.19,4.14,1.13Z"/>
    <path class="cls-5" d="M168.51,249.86c-1.35-1.04-1.84-2.47-6.75-4.08s-10.84,2.35-10.84,2.35l-.68-1.12s5.28-3.79,10.49-2.98c5.21,.81,7.55,3.45,8.79,4.46l-1,1.36Z"/>
    <polygon class="cls-5" points="170.31 245.81 169.51 248.5 167.41 247.15 170.31 245.81"/>
  </g>
  <g>
    <path class="cls-3" d="M146.2,196.72s-42.68,33.88-64.04,51.95c.53-12.88,.98-25.87,1.34-38.98,.13-4.75,.25-9.49,.35-14.22,20.78,.42,41.57,.83,62.35,1.25Z"/>
    <polygon class="cls-3" points="168.28 197.95 167.81 197.94 67.64 195.55 67.67 194.61 68.13 194.62 168.3 197.02 168.28 197.95"/>
    <rect class="cls-5" x="63.62" y="218.92" width="58.65" height=".94" transform="translate(-144.9 233.48) rotate(-70.43)"/>
    <rect class="cls-5" x="71.09" y="219.68" width="67.2" height=".94" transform="translate(-131.8 161.01) rotate(-50.53)"/>
  </g>
  <g>
    <rect class="cls-20" x="340.33" y="153.91" width="22.71" height="20.17" transform="translate(703.36 327.99) rotate(180)"/>
    <polygon class="cls-20" points="363.03 41.69 355.59 25.05 351.68 16.32 347.77 25.05 340.33 41.69 363.03 41.69"/>
    <rect class="cls-8" x="340.33" y="45.29" width="5.61" height="105.02"/>
    <rect class="cls-8" x="357.43" y="45.29" width="5.61" height="105.02"/>
    <rect class="cls-8" x="349.02" y="45.29" width="5.61" height="105.02"/>
    <rect class="cls-32" x="340.33" y="159.63" width="22.71" height="14.45"/>
  </g>
  <polygon class="cls-32" points="336.09 46.49 321.99 32.39 304.23 50.15 286.47 32.39 272.37 46.49 290.13 64.25 272.37 82.02 286.47 96.11 304.23 78.35 321.99 96.11 336.09 82.02 318.33 64.25 336.09 46.49"/>
  <g>
    <polygon class="cls-8" points="263.03 380.26 261.72 386.07 368.66 386.07 354.16 284.75 284.49 284.75 278.73 310.42 275.11 326.47 263.03 380.26"/>
    <polygon class="cls-21" points="284.49 284.75 283.08 310.42 281.82 333 280.67 333.88 271.96 340.5 275.11 326.47 278.73 310.42 284.49 284.75"/>
    <polygon class="cls-25" points="292.69 284.75 303.89 305.97 333.99 284.75 330.53 277.71 295.64 277.71 292.69 284.75"/>
    <path class="cls-7" d="M340.37,333.02c16-20.73,14.28-43.39,13.79-48.27,2.32,2.68,21.1,25.19,14.91,55.25-4.44,21.57-20.15,39.35-41.2,47.3-3.33,1.26-7.1,.09-9.23-2.76l-17.97-23.97h0s-18.97-25.33-18.97-25.33l-1.03-1.36,1.15-.87,25.41-21.99,33.13,22.01Z"/>
    <path class="cls-17" d="M356.47,267.51c-1.43,1.87-3.11,3.53-4.99,4.95-4.37,3.29-9.8,5.24-15.68,5.24h-61.61c-4.06,0-7.21-3.53-6.75-7.55l8.72-77.16c3.13,7.32,8.29,16.54,16.92,25.09,17.01,16.88,38.22,21.95,52.85,23.3l10.54,26.13Z"/>
    <path class="cls-2" d="M355.43,182.09c3.61,.19,6.44,3.17,6.44,6.79v62.76c0,5.89-1.95,11.33-5.26,15.69-.06,.08-.19,.06-.23-.03l-10.42-25.84s-.06-.08-.11-.08c-14.63-1.37-35.79-6.45-52.77-23.29-8.62-8.53-13.77-17.74-16.91-25.05,0-.02-.01-.04,0-.07l.98-8.61c.4-3.57,3.52-6.2,7.1-6.01h0s71.18,3.76,71.18,3.76h0Z"/>
    <path class="cls-25" d="M345.63,248.75l-14.04,4.66c-2.13,.71-4.33-.88-4.33-3.12v-18.13c0-1.42,.91-2.68,2.25-3.12l14.04-4.66c2.13-.71,4.33,.88,4.33,3.12v18.13c0,1.42-.91,2.68-2.25,3.12Z"/>
    <path class="cls-2" d="M291.19,220.58l-14-6.62c-4.32-2.04-6.17-7.21-4.13-11.53l1.51-3.19c2.91,2.6,7,5.71,12.34,8.42,6.73,3.42,12.92,4.91,17.32,5.6-.5,1.06-1.01,2.13-1.51,3.19-2.04,4.32-7.21,6.17-11.53,4.13Z"/>
    <path class="cls-31" d="M296.6,221.74c-.23,0-.44-.16-.49-.4-.05-.27,.12-.53,.39-.59,2.55-.52,4.66-2.16,5.77-4.51l1.23-2.59c-5.87-.99-11.52-2.85-16.81-5.54-1.44-.73-2.86-1.53-4.24-2.38-.23-.15-.31-.45-.16-.69,.14-.24,.45-.31,.69-.16,1.36,.84,2.76,1.63,4.17,2.34,5.39,2.74,11.17,4.61,17.17,5.55l.66,.1-1.8,3.8c-1.23,2.6-3.65,4.5-6.48,5.07-.03,0-.07,0-.1,0Z"/>
    <g>
      <path class="cls-17" d="M256.15,250.65l13.63,1.91,3.12-27.57c-2.58,1.46-7.44,4.67-11.37,10.6-4.07,6.15-5.08,12.1-5.38,15.06Z"/>
      <path class="cls-1" d="M269.78,253.06s-.05,0-.07,0l-13.63-1.91c-.27-.04-.46-.28-.43-.55,.39-3.8,1.65-9.53,5.46-15.29,2.93-4.42,6.92-8.14,11.54-10.76,.16-.09,.37-.09,.52,.02,.16,.1,.24,.29,.22,.47l-3.12,27.57c-.02,.13-.08,.26-.19,.34-.09,.07-.2,.1-.31,.1Zm-13.08-2.84l12.64,1.77,2.95-26.07c-4.12,2.51-7.68,5.92-10.34,9.94-3.54,5.35-4.82,10.68-5.25,14.36Z"/>
    </g>
    <path class="cls-2" d="M325.55,290.25l7.39-35.6c.42-2.02,2.93-2.73,4.35-1.23l24.94,26.46c1.31,1.39,.68,3.68-1.16,4.2l-32.33,9.14c-1.84,.52-3.57-1.1-3.19-2.97Z"/>
    <path class="cls-2" d="M328.02,310.83l19.95-31.88c1.13-1.81,3.82-1.59,4.66,.37l14.69,34.62c.77,1.82-.66,3.81-2.63,3.65l-34.64-2.74c-1.97-.16-3.07-2.35-2.02-4.02Z"/>
    <path class="cls-2" d="M314.98,334.15l31.64-22.94c1.79-1.3,4.3-.04,4.34,2.17l.67,39.08c.04,2.05-2.12,3.41-3.96,2.5l-32.31-16.14c-1.84-.92-2.05-3.46-.38-4.66Z"/>
    <g>
      <path class="cls-25" d="M320.77,289.36h0c9.29,0,16.84,7.54,16.84,16.84v2.36c0,3.88-3.15,7.03-7.03,7.03h-9.81v-26.22h0Z" transform="translate(466.62 727.88) rotate(-150.48)"/>
      <path class="cls-17" d="M320.49,311.91l12.66,6.92c4.87,2.76,11.06,1.05,13.82-3.83l10.4-18.36c2.98-5.27,1.13-11.95-4.14-14.93l-6.81-3.86c-2.77-1.57-6.28-.59-7.85,2.17l-18.08,31.88Z"/>
      <path class="cls-1" d="M337.03,296.88c-.08,0-.17-.02-.25-.06-.24-.14-.32-.44-.19-.68l10.01-17.68c.14-.24,.44-.33,.68-.19,.24,.14,.32,.44,.19,.68l-10.01,17.68c-.09,.16-.26,.25-.44,.25Z"/>
      <path class="cls-1" d="M341.91,299.54c-.08,0-.17-.02-.25-.06-.24-.14-.32-.44-.19-.68l10.01-17.68c.14-.24,.44-.33,.68-.19,.24,.14,.32,.44,.19,.68l-10.01,17.68c-.09,.16-.26,.25-.44,.25Z"/>
      <path class="cls-1" d="M346.78,302.2c-.08,0-.17-.02-.25-.06-.24-.14-.32-.44-.19-.68l9.72-17.16c.14-.24,.44-.33,.68-.19,.24,.14,.32,.44,.19,.68l-9.72,17.16c-.09,.16-.26,.25-.44,.25Z"/>
    </g>
    <circle class="cls-8" cx="334.52" cy="252.5" r="5.13"/>
    <path class="cls-1" d="M290.65,278.21s-.06,0-.1,0c-.27-.05-.45-.31-.4-.59,.96-4.98,5.38-21.99,21.77-31.69,4.66-2.76,9.79-4.62,15.24-5.55,.27-.04,.53,.14,.58,.41s-.14,.53-.41,.58c-5.34,.91-10.35,2.74-14.9,5.43-16.04,9.49-20.36,26.14-21.3,31.02-.05,.24-.26,.41-.49,.41Z"/>
    <path class="cls-2" d="M299.49,237.86c-.22,0-.43-.15-.48-.38-1.1-4.36-4.44-7.72-8.71-8.78-5.98-1.48-10.46,2.39-10.95,2.84-.2,.19-.52,.17-.71-.03-.19-.21-.17-.52,.03-.71,.53-.48,5.38-4.68,11.87-3.07,4.63,1.15,8.25,4.79,9.44,9.5,.07,.27-.09,.54-.36,.61-.04,.01-.08,.02-.12,.02Z"/>
    <path class="cls-1" d="M332.54,226.85c-.06,0-.12-.01-.18-.04-8.82-3.47-17.05-8.24-24.44-14.17-7.73-6.21-14.41-13.57-19.85-21.88-.15-.23-.09-.54,.14-.69,.23-.15,.54-.09,.69,.14,5.38,8.22,11.98,15.5,19.64,21.64,7.31,5.87,15.45,10.58,24.18,14.02,.26,.1,.38,.39,.28,.65-.08,.2-.27,.32-.47,.32Z"/>
    <path class="cls-1" d="M341.87,210.95s-.07,0-.1,0c-8.51-1.7-16.84-4.36-24.75-7.89-8.85-3.95-17.2-9.01-24.82-15.02-.22-.17-.25-.49-.08-.7,.17-.22,.49-.25,.7-.08,7.56,5.97,15.83,10.98,24.6,14.9,7.84,3.5,16.1,6.13,24.54,7.82,.27,.05,.45,.32,.39,.59-.05,.24-.26,.4-.49,.4Z"/>
    <path class="cls-1" d="M329.75,190.7c-2.66,0-5.32-.12-7.98-.35-8.9-.78-17.63-2.85-25.94-6.16-.26-.1-.38-.39-.28-.65,.1-.26,.39-.38,.65-.28,8.22,3.28,16.85,5.33,25.66,6.1,8.24,.72,16.54,.31,24.67-1.22,.27-.05,.53,.13,.58,.4,.05,.27-.13,.53-.4,.58-5.6,1.05-11.28,1.58-16.97,1.58Z"/>
    <ellipse class="cls-2" cx="286.88" cy="233.35" rx="4.83" ry="6"/>
    <path class="cls-2" d="M285.97,227.96c-.24,0-.46-.18-.49-.43l-.66-4.54c-.04-.27,.15-.53,.42-.57,.27-.04,.53,.15,.57,.42l.66,4.54c.04,.27-.15,.53-.42,.57-.02,0-.05,0-.07,0Z"/>
    <path class="cls-2" d="M290.32,228.31s-.07,0-.1-.01c-.27-.06-.44-.32-.39-.59l.93-4.5c.06-.27,.32-.45,.59-.39,.27,.06,.44,.32,.39,.59l-.93,4.5c-.05,.24-.26,.4-.49,.4Z"/>
    <path class="cls-2" d="M294.03,229.85c-.1,0-.2-.03-.28-.09-.23-.16-.29-.47-.13-.7l2.59-3.79c.16-.23,.47-.29,.69-.13,.23,.16,.29,.47,.13,.7l-2.59,3.79c-.1,.14-.25,.22-.41,.22Z"/>
    <path class="cls-19" d="M277.41,259.3l-1.62,5.91c-.3,1.11,.55,2.18,1.69,2.16,1.27-.02,2.86-.22,4.56-.87,1.45-.55,2.61-1.29,3.5-1.99s.83-2.15-.16-2.78c-1.8-1.14-3.61-2.29-5.41-3.43-.97-.61-2.26-.12-2.56,.99Z"/>
    <path class="cls-21" d="M339.06,321.65c2.43,2.21,2.48,6.01,.12,8.28l-57.01,55.06c-2.09,2.75-5.85,3.6-8.91,1.99-3.15-1.66-6.73-3.86-10.23-6.72-4.92-4.04-9.67-9.4-12.73-16.4-10.47-23.84,2.11-58.18,34.2-79.12l-12.53,55.75,40.59-33.94c2.18-1.82,5.34-1.86,7.56-.08l18.94,15.16Z"/>
    <g>
      <path class="cls-25" d="M274.52,285.59h8.44c3.88,0,7.03,3.15,7.03,7.03v7.99c0,5.01-4.07,9.08-9.08,9.08h-6.39v-24.09h0Z" transform="translate(-123.8 239.52) rotate(-38.37)"/>
      <path class="cls-17" d="M291.49,304.97l-10.51,8.08c-4.03,3.19-9.89,2.51-13.09-1.52l-12.03-15.2c-3.45-4.36-2.72-10.69,1.64-14.14l5.64-4.46c2.29-1.81,5.62-1.43,7.44,.86l20.92,26.38Z"/>
      <path class="cls-1" d="M274.27,293.72c-.15,0-.29-.07-.39-.19l-11.58-14.63c-.17-.22-.13-.53,.08-.7,.22-.17,.53-.13,.7,.08l11.58,14.63c.17,.22,.13,.53-.08,.7-.09,.07-.2,.11-.31,.11Z"/>
      <path class="cls-1" d="M270.22,296.82c-.15,0-.29-.07-.39-.19l-11.58-14.63c-.17-.22-.13-.53,.08-.7,.22-.17,.53-.13,.7,.08l11.58,14.63c.17,.22,.13,.53-.08,.7-.09,.07-.2,.11-.31,.11Z"/>
      <path class="cls-1" d="M266.17,299.93c-.15,0-.29-.07-.39-.19l-11.25-14.21c-.17-.22-.13-.53,.08-.7,.22-.17,.53-.13,.7,.08l11.25,14.21c.17,.22,.13,.53-.08,.7-.09,.07-.2,.11-.31,.11Z"/>
    </g>
    <path class="cls-7" d="M272.41,315.55l18.28-12.28c2.49-1.67,6.07-2,8.19,.12,.16,.16,8.37,7.62,8.37,7.62l-26.57,22.87-9.3-12.42c-1.42-1.9-.95-4.61,1.04-5.91Z"/>
    <path class="cls-1" d="M330.03,248.09s-.02,0-.03,0c-.28-.02-.48-.26-.47-.53,.16-2.36,.98-6.91,4.64-10.83,2.63-2.81,5.65-4.15,7.72-4.77,.27-.08,.54,.07,.62,.33,.08,.26-.07,.54-.33,.62-1.95,.59-4.8,1.84-7.27,4.49-3.46,3.7-4.22,7.99-4.38,10.22-.02,.26-.24,.47-.5,.47Z"/>
  </g>
  <polygon class="cls-8" points="194.99 72.86 204.51 102.92 177.69 87.89 194.99 72.86"/>
  <polygon class="cls-6" points="202.73 140.07 211.65 158.58 192.96 151.37 202.73 140.07"/>
  <path class="cls-1" d="M241.06,288.71l17.13-20.66-27.07,11.42c-2.82-1.78-5.92-3.22-9.28-4.21-19.58-5.8-40.14,5.37-45.94,24.95-5.8,19.58,5.37,40.14,24.95,45.94,19.58,5.8,40.14-5.37,45.94-24.95,3.43-11.57,.92-23.48-5.73-32.49Z"/>
  <g>
    <path class="cls-4" d="M236.18,325.5h0c1.18,0,2.14,.96,2.14,2.14v15.22h-4.28v-15.22c0-1.18,.96-2.14,2.14-2.14Z" transform="translate(611.38 170.83) rotate(101.72)"/>
    <path class="cls-4" d="M230.64,331.41h0c3.77,0,6.84,3.06,6.84,6.84v.22c0,3.32-2.7,6.02-6.02,6.02h-7.06v-6.84c0-3.45,2.8-6.24,6.24-6.24Z" transform="translate(600.01 160.95) rotate(98.72)"/>
    <path class="cls-18" d="M237.43,336.88s-.03,0-.05,0l-4.09-.85c-.14-.03-.22-.16-.19-.3,.03-.13,.16-.22,.3-.19l4.09,.85c.14,.03,.22,.16,.19,.3-.02,.12-.13,.2-.24,.2Z"/>
    <path class="cls-18" d="M237.29,339.87s-.03,0-.05,0l-4.41-.92c-.14-.03-.22-.16-.19-.3,.03-.14,.16-.21,.3-.19l4.41,.92c.14,.03,.22,.16,.19,.3-.02,.12-.13,.2-.24,.2Z"/>
    <path class="cls-18" d="M235.6,342.62s-.04,0-.06,0l-3.17-.74c-.13-.03-.22-.17-.19-.3,.03-.13,.16-.22,.3-.19l3.17,.74c.13,.03,.22,.17,.19,.3-.03,.12-.13,.19-.24,.19Z"/>
  </g>
  <g class="cls-14">
    <polygon class="cls-27" points="172.89 329.51 171.09 338.77 180.23 365.4 214.57 354.25 205.46 335.05 172.89 329.51"/>
    <g>
      <polygon class="cls-28" points="172.81 329.93 206.5 319.43 208.24 294.33 180.2 292.38 172.81 329.93"/>
      <path class="cls-30" d="M214.43,315.97h20.31v14.53h-31.34v-3.5c0-6.09,4.94-11.04,11.04-11.04Z" transform="translate(571.49 491.37) rotate(149.63)"/>
      <path class="cls-30" d="M226.04,294.21l6,18.41c1.97,6.04-1.33,12.54-7.37,14.5l-2.88,.94-6.86-30.22,11.12-3.62Z"/>
      <polygon class="cls-28" points="172.81 329.93 212.47 342.58 206.5 319.43 172.81 329.93"/>
      <g>
        <path class="cls-4" d="M219.06,284.53h7.35v6.08c0,2.96-2.41,5.37-5.37,5.37h-2.68c-2.96,0-5.37-2.41-5.37-5.37h0c0-3.35,2.72-6.08,6.08-6.08Z" transform="translate(518.3 498.46) rotate(162.01)"/>
        <path class="cls-4" d="M215.41,284.02h11.24v2.87c0,2.13-1.73,3.86-3.86,3.86h-7.37c-1.86,0-3.37-1.51-3.37-3.37h0c0-1.86,1.51-3.37,3.37-3.37Z" transform="translate(516.73 492.97) rotate(162.01)"/>
        <path class="cls-11" d="M213.44,293.1c-.11,0-.2-.07-.24-.17-.04-.13,.03-.27,.16-.31l11.15-3.62c.55-.18,1.02-.52,1.35-1,.08-.11,.24-.14,.35-.06,.11,.08,.14,.23,.06,.35-.39,.56-.95,.97-1.6,1.19l-11.15,3.62s-.05,.01-.08,.01Z"/>
        <path class="cls-18" d="M216.4,291.82c-.11,0-.2-.07-.24-.17l-1.05-3.23c-.04-.13,.03-.27,.16-.31,.13-.04,.27,.03,.31,.16l1.05,3.23c.04,.13-.03,.27-.16,.31-.03,0-.05,.01-.08,.01Z"/>
        <path class="cls-18" d="M224.43,289.21c-.11,0-.2-.07-.24-.17l-1.05-3.23c-.04-.13,.03-.27,.16-.31,.13-.04,.27,.03,.31,.16l1.05,3.23c.04,.13-.03,.27-.16,.31-.03,0-.05,.01-.08,.01Z"/>
        <path class="cls-18" d="M221.68,290.1c-.11,0-.2-.07-.24-.17l-1.05-3.23c-.04-.13,.03-.27,.16-.31,.13-.04,.27,.03,.31,.16l1.05,3.23c.04,.13-.03,.27-.16,.31-.03,0-.05,.01-.08,.01Z"/>
        <path class="cls-18" d="M218.93,291c-.11,0-.2-.07-.24-.17l-1.05-3.23c-.04-.13,.03-.27,.16-.31,.13-.04,.27,.03,.31,.16l1.05,3.23c.04,.13-.03,.27-.16,.31-.03,0-.05,.01-.08,.01Z"/>
        <path class="cls-11" d="M215.16,289.36h0c1.55,0,2.81,1.26,2.81,2.81v1.73c0,.8-.65,1.44-1.44,1.44h-4.61v-2.74c0-1.79,1.45-3.24,3.24-3.24Z" transform="translate(509.69 504.02) rotate(162.01)"/>
        <path class="cls-11" d="M218.48,288.16h1.91v2.84h-3.21c-.43,0-.77-.35-.77-.77h0c0-1.14,.93-2.07,2.07-2.07Z" transform="translate(515.57 497.54) rotate(162.01)"/>
      </g>
      <path class="cls-1" d="M203.18,333.36c-.13,0-.24-.11-.25-.24l-.57-14.36c0-.14,.1-.25,.24-.26h0c.13,0,.24,.11,.25,.24l.57,14.36c0,.14-.1,.25-.24,.26h0Z"/>
      <g>
        <g>
          <path class="cls-22" d="M200.34,317.24c-.14-.02-.81-.08-1.6,.35-.24,.13-.63,.39-.99,.85,.6,.3,1.12,.36,1.42,.37,.44,.02,1.17,.05,1.58-.44,.19-.23,.36-.63,.2-.88-.12-.19-.37-.22-.61-.25Z"/>
          <path class="cls-22" d="M200.41,318.66c-.13,.05-.76,.3-1.26,1.04-.15,.23-.38,.63-.49,1.21,.67-.01,1.16-.19,1.43-.32,.4-.19,1.06-.5,1.2-1.12,.06-.29,.03-.72-.23-.87-.19-.11-.43-.03-.65,.06Z"/>
          <path class="cls-22" d="M201.17,319.86c-.04,.13-.25,.78,0,1.63,.08,.26,.25,.7,.62,1.15,.42-.52,.58-1.02,.66-1.31,.11-.43,.29-1.14-.1-1.64-.19-.24-.54-.48-.82-.38-.21,.08-.29,.31-.37,.54Z"/>
          <path class="cls-22" d="M202.61,320.08c0,.14,.06,.82,.62,1.51,.17,.21,.49,.55,1,.83,.19-.64,.16-1.16,.12-1.46-.06-.44-.16-1.17-.7-1.48-.26-.15-.68-.24-.9-.04-.16,.15-.15,.4-.14,.64Z"/>
          <path class="cls-22" d="M203.79,319.54c.09,.11,.51,.64,1.36,.9,.26,.08,.72,.18,1.3,.12-.21-.64-.52-1.05-.73-1.27-.29-.33-.79-.87-1.42-.82-.3,.02-.7,.19-.77,.47-.05,.21,.1,.42,.25,.61Z"/>
          <path class="cls-22" d="M204.62,318.43c.14,.03,.8,.15,1.62-.21,.25-.11,.66-.33,1.06-.76-.57-.35-1.08-.45-1.38-.49-.44-.05-1.17-.15-1.61,.3-.21,.21-.41,.6-.27,.86,.1,.2,.35,.25,.59,.3Z"/>
        </g>
        <path class="cls-1" d="M200.1,317.12c.32-1.39,4.41-.98,4.78,.24s-1.06,2.89-2.65,2.71-2.45-1.56-2.13-2.95Z"/>
      </g>
      <polygon class="cls-28" points="213.26 294.67 199.66 279.62 180.2 292.38 213.26 294.67"/>
      <polygon class="cls-4" points="212.07 311.62 213.25 294.65 188.95 292.96 187.69 311.06 202.61 318.75 212.07 311.62"/>
      <rect class="cls-27" x="188.7" y="293.8" width="24.36" height="6.37" transform="translate(380.71 607.16) rotate(-176.03)"/>
      <rect class="cls-12" x="195.07" y="300.07" width="7.38" height="2.37" transform="translate(203.23 662.13) rotate(-147.29)"/>
      <rect class="cls-12" x="206.53" y="301.06" width="7.38" height="2.37" transform="translate(520.54 500.36) rotate(157.37)"/>
      <path class="cls-18" d="M207.25,310.97h-.02l-3.91-.24c-.07,0-.13-.04-.17-.08s-.07-.12-.06-.18l.54-7.73c0-.12,.09-.21,.21-.23,.12-.02,.23,.04,.27,.15l3.38,7.96c.03,.08,.02,.17-.03,.24-.05,.07-.12,.11-.2,.11Zm-3.64-.72l3.26,.2-2.81-6.63-.45,6.43Z"/>
      <path class="cls-12" d="M200.46,307.39c-.2,0-.39-.12-.47-.32-.29-.75-.73-1.37-1.31-1.84-1.92-1.6-4.53-.87-4.82-.78-.27,.08-.54-.07-.62-.33-.08-.26,.07-.54,.33-.62,.34-.1,3.43-.97,5.75,.97,.71,.59,1.25,1.34,1.6,2.25,.1,.26-.03,.55-.28,.65-.06,.02-.12,.03-.18,.03Z"/>
      <path class="cls-12" d="M207.77,307.72c-.06,0-.12,0-.17-.03-.26-.1-.39-.38-.29-.64,.15-.42,.79-1.83,2.39-2.47,1.32-.53,2.52-.21,2.97-.05,.26,.09,.4,.38,.31,.64s-.38,.4-.64,.31c-.35-.12-1.26-.36-2.27,.04-1.23,.49-1.71,1.57-1.83,1.89-.07,.2-.27,.33-.47,.33Z"/>
      <ellipse class="cls-26" cx="210.5" cy="306.34" rx="1.57" ry="1.05" transform="translate(-109.68 495.13) rotate(-86.03)"/>
      <ellipse class="cls-26" cx="198.49" cy="306.06" rx="1.57" ry="1.05" transform="translate(-120.57 482.89) rotate(-86.03)"/>
      <path class="cls-18" d="M197.74,316.42c-.13,0-.24-.1-.25-.23-.13-1.37-.58-3.4-2.01-5.33-2.62-3.5-6.51-4.08-7.64-4.17-.14-.01-.24-.13-.23-.27s.14-.24,.27-.23c1.18,.1,5.26,.7,8,4.37,1.5,2.02,1.98,4.15,2.11,5.58,.01,.14-.09,.26-.23,.27,0,0-.02,0-.02,0Z"/>
      <path class="cls-18" d="M207.29,315.14s-.05,0-.08-.01c-.13-.04-.2-.18-.16-.32,.39-1.19,1.2-2.89,2.86-4.27,.67-.55,1.41-1,2.21-1.35,.13-.05,.27,0,.33,.13,.05,.13,0,.27-.13,.33-.76,.32-1.46,.75-2.09,1.27-1.57,1.3-2.34,2.92-2.71,4.04-.03,.11-.13,.17-.24,.17Z"/>
      <path class="cls-29" d="M198.96,314.58c-.26,.38-.07,.91,.38,1.03l4.03,1.06c.36,.13,.73-.13,.74-.51l.08-3.77c0-.37-.34-.64-.7-.55l-2.59,.31c-.19,.02-.36,.13-.47,.29l-1.48,2.15Z"/>
    </g>
    <polygon class="cls-30" points="220.98 346.83 229.96 329.62 180.99 320.09 178.64 335.99 220.98 346.83"/>
    <circle class="cls-30" cx="179.82" cy="328.03" r="8.04"/>
  </g>
  <g>
    <polygon class="cls-20" points="237.61 307.53 234.57 307.53 233.39 289.74 238.79 289.74 237.61 307.53"/>
    <circle class="cls-20" cx="236.09" cy="310.8" r="2.19"/>
  </g>
  <g>
    <polygon class="cls-20" points="243.28 306.06 241.14 305.15 245.62 292.25 249.42 293.86 243.28 306.06"/>
    <circle class="cls-20" cx="241.24" cy="307.91" r="1.68"/>
  </g>
  <path class="cls-2" d="M216.06,209.53c2.67,2.32,4,5.58,4,9.8,0,3.89-1.27,6.92-3.81,9.09s-5.9,3.28-10.08,3.32l-.31,4.65h-9.3l-.31-11.54h3.72c3.18,0,5.61-.39,7.29-1.18,1.67-.78,2.51-2.21,2.51-4.28,0-1.45-.39-2.58-1.18-3.41-.79-.83-1.88-1.24-3.29-1.24-1.49,0-2.65,.42-3.47,1.27-.83,.85-1.24,2-1.24,3.44h-9.99c-.08-2.52,.44-4.8,1.58-6.82,1.14-2.03,2.83-3.63,5.09-4.81,2.25-1.18,4.97-1.77,8.16-1.77,4.42,0,7.97,1.16,10.64,3.47Zm-19.29,41.34c-1.18-1.1-1.77-2.45-1.77-4.06s.59-3.04,1.77-4.16c1.18-1.12,2.7-1.67,4.56-1.67s3.32,.56,4.5,1.67c1.18,1.12,1.77,2.5,1.77,4.16s-.59,2.97-1.77,4.06c-1.18,1.1-2.68,1.64-4.5,1.64s-3.38-.55-4.56-1.64Z"/>
</svg>