<?xml version="1.0" encoding="UTF-8"?>
<svg id="Layer_2" data-name="Layer 2" xmlns="http://www.w3.org/2000/svg" viewBox="0 0 428 526.17">
  <defs>
    <style>
      .cls-1 {
        fill: #fff;
      }

      .cls-2 {
        fill: #3d3d3d;
      }

      .cls-3 {
        fill: #ef9d7f;
      }

      .cls-4 {
        fill: #62aa7a;
      }

      .cls-5 {
        fill: #a87d5b;
      }

      .cls-6 {
        fill: #d990ff;
      }

      .cls-7 {
        fill: #d17d69;
      }

      .cls-8 {
        fill: #333;
      }

      .cls-9 {
        fill: #f7f2dc;
      }

      .cls-10 {
        fill: #f80500;
      }

      .cls-11 {
        fill: #ed6f6a;
      }

      .cls-12 {
        fill: #ffbc2d;
      }

      .cls-13 {
        fill: #4569af;
      }

      .cls-14 {
        fill: #f4ae32;
      }

      .cls-15 {
        fill: #353535;
      }

      .cls-16 {
        fill: #474747;
      }

      .cls-17 {
        fill: #db4545;
      }

      .cls-18 {
        fill: #e8e8e8;
      }

      .cls-19 {
        fill: #515151;
      }

      .cls-20 {
        fill: #b72c2c;
      }

      .cls-21 {
        fill: #9b6a49;
      }

      .cls-22 {
        fill: #6d6d6d;
      }

      .cls-23 {
        fill: #b0352b;
      }
    </style>
  </defs>
  <path class="cls-17" d="M205.38,362.75h158.76v88.04c0,10.25-8.32,18.57-18.57,18.57H205.38c-10.25,0-18.57-8.32-18.57-18.57v-69.48c0-10.25,8.32-18.57,18.57-18.57Z"/>
  <path class="cls-11" d="M186.78,276.27h158.76v193.08H186.78c-10.25,0-18.57-8.32-18.57-18.57v-155.95c0-10.25,8.32-18.57,18.57-18.57Z"/>
  <g>
    <g>
      <path class="cls-2" d="M242.21,416.73c.27,.35,.41,.75,.41,1.2,0,.65-.23,1.16-.68,1.54-.45,.38-1.09,.57-1.9,.57h-3.62v-7.77h3.5c.79,0,1.41,.18,1.85,.54s.67,.85,.67,1.47c0,.46-.12,.84-.36,1.14-.24,.3-.56,.51-.96,.63,.45,.1,.81,.32,1.08,.67Zm-3.89-1.31h1.24c.31,0,.55-.07,.71-.21s.25-.34,.25-.6-.08-.47-.25-.61c-.17-.14-.4-.21-.71-.21h-1.24v1.63Zm2.13,2.88c.17-.14,.26-.35,.26-.62s-.09-.49-.27-.64c-.18-.16-.43-.23-.75-.23h-1.37v1.71h1.39c.32,0,.56-.07,.74-.22Z"/>
      <path class="cls-2" d="M247.73,420.05l-1.62-2.93h-.45v2.93h-1.89v-7.77h3.18c.61,0,1.13,.11,1.57,.32,.43,.21,.75,.51,.97,.88,.21,.37,.32,.79,.32,1.24,0,.52-.15,.98-.44,1.38-.29,.41-.72,.69-1.29,.86l1.79,3.08h-2.13Zm-2.07-4.27h1.17c.35,0,.61-.08,.78-.25,.17-.17,.26-.41,.26-.72s-.09-.53-.26-.7c-.17-.17-.43-.25-.78-.25h-1.17v1.92Z"/>
      <path class="cls-2" d="M252.93,413.8v1.57h2.53v1.46h-2.53v1.7h2.87v1.52h-4.76v-7.77h4.76v1.52h-2.87Z"/>
      <path class="cls-2" d="M261.92,418.68h-2.9l-.46,1.37h-1.98l2.81-7.77h2.19l2.81,7.77h-2l-.46-1.37Zm-.49-1.46l-.96-2.84-.95,2.84h1.91Z"/>
      <path class="cls-2" d="M269.79,420.05l-2.61-3.43v3.43h-1.89v-7.77h1.89v3.41l2.59-3.41h2.22l-3.01,3.81,3.12,3.96h-2.31Z"/>
      <path class="cls-2" d="M274.95,412.28v7.77h-1.89v-7.77h1.89Z"/>
      <path class="cls-2" d="M283.32,420.05h-1.89l-3.16-4.79v4.79h-1.89v-7.77h1.89l3.16,4.81v-4.81h1.89v7.77Z"/>
      <path class="cls-2" d="M289.9,414.74c-.14-.26-.34-.46-.6-.59-.26-.14-.57-.2-.92-.2-.61,0-1.1,.2-1.47,.6-.37,.4-.55,.94-.55,1.61,0,.72,.19,1.27,.58,1.68,.39,.4,.92,.6,1.6,.6,.46,0,.86-.12,1.18-.35,.32-.24,.55-.58,.7-1.02h-2.4v-1.39h4.12v1.76c-.14,.47-.38,.91-.71,1.32-.34,.41-.76,.73-1.28,.98-.52,.25-1.1,.38-1.75,.38-.77,0-1.45-.17-2.05-.5-.6-.33-1.07-.8-1.41-1.4-.33-.6-.5-1.28-.5-2.05s.17-1.45,.5-2.05c.34-.6,.8-1.07,1.4-1.41,.6-.33,1.28-.5,2.05-.5,.93,0,1.71,.22,2.35,.67,.64,.45,1.06,1.07,1.27,1.87h-2.09Z"/>
    </g>
    <g>
      <path class="cls-2" d="M248.64,435.11h-3.39l-5.67-8.58v8.58h-3.39v-13.91h3.39l5.67,8.62v-8.62h3.39v13.91Z"/>
      <path class="cls-2" d="M254.59,423.92v2.81h4.54v2.62h-4.54v3.05h5.13v2.71h-8.52v-13.91h8.52v2.71h-5.13Z"/>
      <path class="cls-2" d="M281.16,421.2l-3.63,13.91h-4.1l-2.22-9.16-2.3,9.16h-4.1l-3.53-13.91h3.63l2,10.13,2.48-10.13h3.73l2.38,10.13,2.02-10.13h3.65Z"/>
      <path class="cls-2" d="M285.27,434.76c-.81-.33-1.45-.82-1.93-1.47-.48-.65-.74-1.43-.76-2.34h3.61c.05,.52,.23,.91,.54,1.18,.3,.27,.7,.41,1.19,.41s.9-.12,1.19-.35c.29-.23,.44-.55,.44-.96,0-.34-.12-.63-.35-.85-.23-.22-.52-.41-.85-.55s-.82-.31-1.44-.5c-.9-.28-1.63-.55-2.2-.83-.57-.28-1.06-.69-1.47-1.23-.41-.54-.61-1.25-.61-2.12,0-1.29,.47-2.31,1.41-3.04,.94-.73,2.16-1.1,3.67-1.1s2.77,.37,3.71,1.1c.94,.73,1.44,1.75,1.51,3.06h-3.67c-.03-.45-.19-.8-.5-1.06s-.69-.39-1.17-.39c-.41,0-.74,.11-.99,.33s-.38,.53-.38,.94c0,.45,.21,.8,.63,1.05s1.08,.52,1.98,.81c.9,.3,1.63,.59,2.19,.87s1.05,.68,1.46,1.21c.41,.53,.61,1.21,.61,2.04s-.2,1.51-.6,2.16c-.4,.65-.99,1.16-1.75,1.55-.77,.38-1.67,.57-2.72,.57s-1.93-.17-2.73-.5Z"/>
    </g>
    <g>
      <path class="cls-16" d="M336.19,407.57l-4.85-19.2-5.88,3.13-7.87-14.45-6.8,14.45-4.91-3.13-6.84,19.2s-2.08,6.92-.83,13.64c.13,.76,.32,1.5,.55,2.22,.24,.78,.54,1.55,.91,2.29,0,0,0,0,0,0,.02,.04,.04,.08,.06,.12h0c3.1,6.31,9.91,10.7,17.8,10.7s14.83-4.47,17.89-10.88h0c3.81-7.93,.75-18.08,.75-18.08Z"/>
      <path class="cls-6" d="M312.18,436.33c-.21-.97-.97-3.38-3.37-4.86-1.4-.86-2.81-1.05-3.75-1.06-2.92-.25-5.35-2.38-5.97-5.18-.64-2.92,.78-5.92,3.46-7.31l.46,.89c-2.27,1.18-3.48,3.73-2.94,6.2,.52,2.38,2.59,4.18,5.04,4.39,1.03,0,2.63,.23,4.22,1.21,2.73,1.67,3.59,4.4,3.83,5.49l-.98,.21Z"/>
      <rect class="cls-6" x="302.1" y="419.63" width="1.32" height="18.22"/>
      <polygon class="cls-6" points="335.04 437.85 314.81 437.85 317.71 418.25 331.4 418.25 335.04 437.85"/>
      <path class="cls-6" d="M323.87,417.16h-.48c-4.63,0-8.2-4.08-7.59-8.67l.3-2.22c.51-3.8,3.75-6.64,7.59-6.64h0c3.99,0,7.31,3.06,7.63,7.04l.18,2.22c.36,4.46-3.16,8.28-7.63,8.28Z"/>
      <polygon class="cls-6" points="314.95 405.59 315.25 409.54 312.23 409.54 314.95 405.59"/>
      <g>
        <polygon class="cls-6" points="303.96 415.23 299.44 420.49 300.38 422.14 306.84 418.76 303.96 415.23"/>
        <circle class="cls-6" cx="308.13" cy="415.23" r="4.17"/>
        <rect class="cls-16" x="303.24" y="413.25" width="9.66" height="1"/>
        <rect class="cls-16" x="304.26" y="416.3" width="8.64" height="1"/>
        <rect class="cls-16" x="309.15" y="410.4" width="1" height="9.66"/>
        <rect class="cls-16" x="306.1" y="410.4" width="1" height="8.71"/>
      </g>
      <path class="cls-16" d="M323.67,409.76s-.03,0-.05,0c-.99,0-1.98-.23-2.94-.69-.81-.41-1.86-1.06-2.92-2.48-.13-.18-.13-.42,0-.6,1.06-1.43,2.11-2.07,2.91-2.48,.97-.46,1.96-.7,2.95-.7,.02,0,.04,0,.05,0,.98,0,1.96,.23,2.9,.68,.81,.41,1.86,1.05,2.92,2.49,.13,.18,.13,.42,0,.59-1.06,1.44-2.11,2.09-2.91,2.49-.96,.46-1.93,.69-2.92,.69Zm-.04-1c.86,.03,1.69-.19,2.52-.59,.67-.34,1.48-.83,2.32-1.89-.86-1.06-1.69-1.57-2.33-1.89-.82-.39-1.65-.59-2.51-.58h0c-.85,0-1.69,.2-2.52,.59-.67,.34-1.48,.83-2.32,1.88,.84,1.04,1.65,1.54,2.33,1.88,.81,.39,1.66,.59,2.5,.59h0Z"/>
      <circle class="cls-16" cx="323.63" cy="406.29" r="2.57"/>
      <polygon class="cls-16" points="318.81 419.4 318.4 422.2 320.45 422.2 321.88 419.4 318.81 419.4"/>
      <polygon class="cls-16" points="316.76 433.75 318.31 423.17 319.75 423.17 321.48 433.92 318.25 437.05 316.76 433.75"/>
    </g>
    <path class="cls-16" d="M337.31,441.47h-101.12c-.28,0-.5-.22-.5-.5s.22-.5,.5-.5h101.12c.28,0,.5,.22,.5,.5s-.22,.5-.5,.5Z"/>
    <path class="cls-16" d="M337.31,447.92h-101.12c-.28,0-.5-.22-.5-.5s.22-.5,.5-.5h101.12c.28,0,.5,.22,.5,.5s-.22,.5-.5,.5Z"/>
    <path class="cls-16" d="M337.31,454.36h-45.95c-.28,0-.5-.22-.5-.5s.22-.5,.5-.5h45.95c.28,0,.5,.22,.5,.5s-.22,.5-.5,.5Z"/>
  </g>
  <path class="cls-11" d="M250.77,165.49l-4.86-10.88c-60.13-13.64-80.14-91.91-92.19-113.23-3.02-5.34-9.72-2.97-9.92,3.51-.54,17.65-1.29,42.32-2.08,68.38-10.16-15.44-16.17-30.49-21.41-38-2.99-4.29-9.71-2.34-9.94,2.88-.56,12.56-1.31,29.54-2.11,47.81-9.83-7.43-16.54-14.95-21.06-21.42-2.99-4.29-9.71-2.34-9.94,2.88-2.2,49.77-7.45,168.96-6.86,162.15h0c-.16,3.11-.2,6.24-.12,9.41,1.72,65.8,56.46,117.74,122.26,116.02,65.8-1.72,117.74-56.46,116.02-122.26-1.29-49.46-14.4-90.35-57.78-107.24Z"/>
  <path class="cls-12" d="M243.59,210.76c-47.46-10.77-63.25-72.55-72.77-89.37-2.38-4.22-7.68-2.34-7.83,2.77-.43,13.93-1.02,33.41-1.64,53.97-8.02-12.18-12.76-24.07-16.9-29.99-2.36-3.38-7.66-1.85-7.84,2.27-.44,9.91-1.03,23.32-1.66,37.73-7.76-5.86-13.05-11.8-16.62-16.91-2.36-3.38-7.66-1.85-7.84,2.27-1.74,39.28-5.88,133.36-5.41,127.98h0c-.13,2.45-.16,4.93-.1,7.43,1.36,51.94,44.56,92.94,96.5,91.58,51.94-1.36,108.49-64.05,107.13-115.98-1.02-39.04-65.01-73.75-65.01-73.75Z"/>
  <g>
    <path class="cls-12" d="M368.62,95.37l-3.19,181.3h-57.93s-12.92-95.9-12.92-95.9l63.76-89.17c3.48-4.26,10.38-1.73,10.28,3.77Z"/>
    <polygon class="cls-16" points="356.77 202.3 366.42 219.71 365.44 279.1 289.27 279.1 295.04 234.65 356.77 202.3"/>
    <polygon class="cls-19" points="360.42 208.85 285.99 209.74 266.14 160.51 321.13 138.33 360.42 208.85"/>
    <path class="cls-22" d="M230.21,210.24h66.12v30.66h-47.39c-10.34,0-18.73-8.39-18.73-18.73v-11.93h0Z" transform="translate(54.47 -51.19) rotate(12.38)"/>
    <path class="cls-22" d="M230.35,171.88l-.05,49.93c0,8.39,6.78,15.19,15.17,15.2h15.48s-5.92-65.1-5.92-65.1l-24.68-.02Z"/>
    <polygon class="cls-19" points="360.42 208.85 289.1 260.08 285.99 209.74 360.42 208.85"/>
    <circle class="cls-22" cx="333.18" cy="214.47" r="16.97"/>
    <g>
      <path class="cls-3" d="M236.87,147.73h7.27c5.81,0,10.52,4.72,10.52,10.52v13.62h-16.41c-6.57,0-11.91-5.34-11.91-11.91v-1.72c0-5.81,4.72-10.52,10.52-10.52Z"/>
      <path class="cls-3" d="M230.13,146.72h17.5c3.92,0,7.11,3.19,7.11,7.11v7.1h-24.61c-3.42,0-6.19-2.78-6.19-6.19v-1.82c0-3.42,2.78-6.19,6.19-6.19Z"/>
      <path class="cls-7" d="M254.74,161.43h-24.73c-1.45,0-2.82-.46-3.97-1.33-.22-.17-.26-.48-.1-.7,.17-.22,.48-.26,.7-.1,.97,.74,2.14,1.13,3.37,1.13h24.73c.28,0,.5,.22,.5,.5s-.22,.5-.5,.5Z"/>
      <path class="cls-10" d="M247.97,160.95c-.37,0-.66-.3-.66-.66v-7.17c0-.37,.3-.66,.66-.66s.66,.3,.66,.66v7.17c0,.37-.3,.66-.66,.66Z"/>
      <path class="cls-10" d="M230.17,160.95c-.37,0-.66-.3-.66-.66v-7.17c0-.37,.3-.66,.66-.66s.66,.3,.66,.66v7.17c0,.37-.3,.66-.66,.66Z"/>
      <path class="cls-10" d="M236.27,160.95c-.37,0-.66-.3-.66-.66v-7.17c0-.37,.3-.66,.66-.66s.66,.3,.66,.66v7.17c0,.37-.3,.66-.66,.66Z"/>
      <path class="cls-10" d="M242.37,160.95c-.37,0-.66-.3-.66-.66v-7.17c0-.37,.3-.66,.66-.66s.66,.3,.66,.66v7.17c0,.37-.3,.66-.66,.66Z"/>
      <path class="cls-7" d="M245.02,154.62h9.84c1.62,0,2.93,1.31,2.93,2.93v3.98c0,3.15-2.56,5.71-5.71,5.71h-.47c-3.63,0-6.58-2.95-6.58-6.58v-6.04h0Z"/>
      <path class="cls-7" d="M240.1,154.62h6.77v5.99h-4.03c-2.41,0-4.36-1.95-4.36-4.36h0c0-.9,.73-1.62,1.62-1.62Z"/>
    </g>
    <path class="cls-3" d="M245.73,279.54h9.03v32.11c0,2.49-2.02,4.52-4.52,4.52h0c-2.49,0-4.52-2.02-4.52-4.52v-32.11h0Z" transform="translate(249.96 -91.17) rotate(39.99)"/>
    <path class="cls-3" d="M250.07,283.45h16.09c6.35,0,11.5,5.15,11.5,11.5v3.02c0,7.21-5.86,13.07-13.07,13.07h-2.59c-6.59,0-11.93-5.35-11.93-11.93v-15.66h0Z" transform="translate(273.56 -100.1) rotate(42.99)"/>
    <path class="cls-1" d="M301.56,235.69c-.29,0-.56-.19-.64-.48l-8.22-29.18c-.1-.35,.11-.72,.46-.82,.35-.1,.72,.11,.82,.46l8.22,29.18c.1,.35-.11,.72-.46,.82-.06,.02-.12,.03-.18,.03Z"/>
    <polygon class="cls-22" points="289.59 299.4 252.24 282.63 320.87 202.85 345.54 226.1 289.59 299.4"/>
    <g>
      <g>
        <path class="cls-14" d="M296.93,201.33c.27-.12,1.58-.69,3.43-.35,.57,.11,1.52,.36,2.54,1.05-1.01,.99-2.01,1.45-2.6,1.67-.87,.32-2.33,.86-3.45,.15-.54-.34-1.12-1.03-.97-1.64,.11-.45,.59-.68,1.06-.89Z"/>
        <path class="cls-14" d="M297.71,204.22c.3,.01,1.72,.11,3.2,1.27,.45,.36,1.18,1.02,1.77,2.1-1.35,.41-2.45,.36-3.08,.28-.92-.12-2.46-.31-3.14-1.46-.32-.55-.52-1.43-.11-1.9,.31-.35,.84-.33,1.35-.3Z"/>
        <path class="cls-14" d="M296.98,207.14c.18,.24,1.01,1.4,1.05,3.28,.01,.58-.04,1.56-.5,2.71-1.18-.78-1.83-1.66-2.18-2.2-.5-.79-1.32-2.1-.87-3.35,.22-.59,.78-1.31,1.4-1.29,.46,.02,.79,.44,1.09,.85Z"/>
        <path class="cls-14" d="M294.21,208.51c.08,.29,.41,1.68-.25,3.44-.2,.54-.62,1.43-1.47,2.32-.8-1.16-1.08-2.23-1.2-2.85-.17-.91-.44-2.44,.45-3.43,.42-.47,1.21-.93,1.78-.68,.43,.19,.57,.7,.7,1.2Z"/>
        <path class="cls-14" d="M291.5,208.2c-.1,.28-.61,1.62-2.15,2.69-.47,.33-1.32,.83-2.53,1.08,0-1.41,.36-2.45,.63-3.03,.38-.85,1.01-2.26,2.31-2.58,.62-.15,1.52-.08,1.85,.45,.24,.4,.07,.9-.1,1.38Z"/>
        <path class="cls-14" d="M289.11,206.51c-.26,.15-1.52,.82-3.39,.63-.57-.06-1.54-.23-2.62-.83,.92-1.07,1.88-1.61,2.45-1.89,.84-.39,2.25-1.05,3.43-.44,.56,.29,1.21,.93,1.11,1.55-.07,.46-.53,.73-.98,.98Z"/>
      </g>
      <path class="cls-1" d="M297.32,200.94c-1.55-2.58-9.49,.91-9.43,3.6,.06,2.69,4.02,5.1,7.08,3.71,3.06-1.39,3.9-4.73,2.35-7.31Z"/>
    </g>
    <polygon class="cls-19" points="256.3 164.47 273.77 125.42 321.13 138.33 256.3 164.47"/>
    <polygon class="cls-3" points="269.72 197.69 256.3 164.42 303.97 145.2 318.28 180.69 293.34 205.84 269.72 197.69"/>
    <rect class="cls-16" x="256.95" y="154.32" width="51.39" height="13.44" transform="translate(-39.72 117.39) rotate(-21.96)"/>
    <rect class="cls-8" x="281.89" y="165.72" width="15.57" height="5" transform="translate(-23.98 285.83) rotate(-50.7)"/>
    <rect class="cls-8" x="259.55" y="175.19" width="15.57" height="5" transform="translate(15.23 -21.02) rotate(4.63)"/>
    <path class="cls-10" d="M278.8,193.25c-.11,0-.21-.03-.3-.1-.14-.1-.21-.27-.2-.44l1.58-18.18c.02-.23,.2-.42,.42-.45,.23-.04,.45,.09,.54,.31l6.11,15.15c.05,.12,.05,.26,0,.38-.05,.12-.15,.22-.28,.27l-7.69,3.02c-.06,.02-.12,.03-.18,.03Zm1.9-16.55l-1.33,15.29,6.47-2.54-5.14-12.75Z"/>
    <path class="cls-8" d="M289.94,181.15s-.02,0-.03,0c-.28-.02-.49-.25-.47-.53,.12-1.95,.68-3.73,1.66-5.29,3.24-5.13,9.73-5.41,10.46-5.43,.27-.02,.5,.21,.51,.49,0,.28-.21,.5-.49,.51-.67,.01-6.67,.27-9.63,4.96-.89,1.41-1.4,3.04-1.51,4.82-.02,.27-.24,.47-.5,.47Z"/>
    <path class="cls-8" d="M275.48,186.58c-.15,0-.29-.07-.39-.19-.48-.61-2.29-2.61-5.3-2.81-2.47-.16-4.28,1-4.95,1.52-.22,.17-.53,.13-.7-.09-.17-.22-.13-.53,.09-.7,.76-.58,2.82-1.9,5.62-1.72,3.42,.23,5.47,2.5,6.02,3.19,.17,.22,.13,.53-.08,.7-.09,.07-.2,.11-.31,.11Z"/>
    <ellipse class="cls-15" cx="269.44" cy="186.08" rx="2.23" ry="3.31" transform="translate(-50.04 114.27) rotate(-21.96)"/>
    <ellipse class="cls-15" cx="293.34" cy="177.69" rx="2.23" ry="3.31" transform="translate(-45.17 122.6) rotate(-21.96)"/>
    <path class="cls-10" d="M301.44,198c-.23,0-.43-.16-.49-.39-.67-2.96-1.11-7.53,.6-12.55,3.1-9.13,10.88-13,13.19-13.97,.25-.11,.55,.01,.65,.27,.11,.25-.01,.55-.27,.65-2.21,.93-9.67,4.64-12.63,13.37-1.63,4.8-1.21,9.18-.57,12.01,.06,.27-.11,.54-.38,.6-.04,0-.07,.01-.11,.01Z"/>
    <path class="cls-10" d="M281.45,201.65c-.15,0-.31-.07-.4-.21-1.47-2.02-4.07-4.75-8.08-6.35-1.59-.64-3.28-1.04-5.02-1.19-.27-.02-.48-.27-.45-.54,.02-.27,.27-.46,.54-.45,1.84,.17,3.62,.59,5.3,1.26,4.23,1.69,6.97,4.57,8.52,6.69,.16,.22,.11,.54-.11,.7-.09,.07-.19,.1-.29,.1Z"/>
    <path class="cls-20" d="M297.97,195.09c.77,.6,.72,1.78-.1,2.31l-7.39,4.74c-.64,.49-1.56,.21-1.82-.55l-2.63-7.51c-.26-.74,.26-1.51,1.04-1.56l5.4-1.06c.4-.08,.81,.02,1.13,.27l4.37,3.36Z"/>
    <path class="cls-10" d="M250.94,304.72c-.15,0-.3-.05-.43-.16-.28-.24-.32-.65-.08-.94l6.11-7.28c.24-.28,.65-.32,.94-.08,.28,.24,.32,.65,.08,.94l-6.11,7.28c-.13,.16-.32,.24-.51,.24Z"/>
    <path class="cls-10" d="M255.52,308.98c-.15,0-.3-.05-.43-.16-.28-.24-.32-.65-.08-.94l6.11-7.28c.24-.28,.65-.32,.93-.08,.28,.24,.32,.65,.08,.94l-6.11,7.28c-.13,.16-.32,.24-.51,.24Z"/>
    <path class="cls-10" d="M260.6,312.63c-.15,0-.3-.05-.43-.16-.28-.24-.32-.65-.08-.94l5.61-6.68c.24-.28,.65-.32,.93-.08,.28,.24,.32,.65,.08,.94l-5.61,6.68c-.13,.16-.32,.24-.51,.24Z"/>
  </g>
  <g>
    <g>
      <path class="cls-5" d="M232.59,238.83h0c2.33,0,4.22,1.89,4.22,4.22v27.22h-8.44v-27.22c0-2.33,1.89-4.22,4.22-4.22Z" transform="translate(187.4 -87.28) rotate(34.89)"/>
      <path class="cls-21" d="M217.99,279.05c-5.27-3.67-6.56-10.93-2.89-16.19l3.77-5.08c1.53-2.2,4.56-2.74,6.76-1.21l5.56,3.87-13.2,18.6Z"/>
      <path class="cls-5" d="M224.17,288.51l-5.23-3.35c-4.77-3.33-5.94-9.9-2.62-14.67l11.92-17.1,12.93,8.72c5.92,4.13,7.37,12.27,3.24,18.19l-3.66,5.24c-3.77,5.4-11.19,6.72-16.59,2.96Z"/>
      <path class="cls-1" d="M227.78,269.33c-.1,0-.2-.03-.29-.09-.23-.16-.28-.47-.12-.7l7.57-10.86c.16-.23,.47-.28,.7-.12,.23,.16,.28,.47,.12,.7l-7.57,10.86c-.1,.14-.25,.21-.41,.21Z"/>
      <path class="cls-1" d="M232.75,273.05c-.1,0-.2-.03-.29-.09-.23-.16-.28-.47-.12-.7l7.57-10.86c.16-.23,.47-.28,.7-.12,.23,.16,.28,.47,.12,.7l-7.57,10.86c-.1,.14-.25,.21-.41,.21Z"/>
      <path class="cls-1" d="M237.7,276.77c-.1,0-.2-.03-.29-.09-.23-.16-.28-.47-.12-.7l7.23-10.37c.16-.23,.47-.28,.7-.12,.23,.16,.28,.47,.12,.7l-7.23,10.37c-.1,.14-.25,.21-.41,.21Z"/>
    </g>
    <path class="cls-4" d="M70.6,283.69v199.26H233.56c4.84,0,7.42-5.71,4.22-9.34L70.6,283.69Z"/>
    <polygon class="cls-18" points="172.86 389.75 134.9 360.94 208.76 277.21 237.47 292.85 172.86 389.75"/>
    <polygon class="cls-18" points="72.06 482.95 166.9 482.95 173.57 387.58 169.5 375.35 132.09 377.38 108.76 396.21 72.06 482.95"/>
    <polygon class="cls-18" points="132.09 370.77 132.09 377.38 160.4 386.87 169.5 375.35 132.09 370.77"/>
    <polygon class="cls-13" points="176.34 388.26 182.06 466.63 173.57 478.39 158.81 466.65 168.82 391.28 176.34 388.26"/>
    <circle class="cls-1" cx="135.68" cy="417.69" r="25.27"/>
    <path class="cls-1" d="M175.56,455.62l-47.68-13.89,18.71-46.83,56.13,33.45-5.08,17.43c-2.75,9.45-12.64,12.59-22.09,9.84Z"/>
    <polygon class="cls-21" points="171.65 359.13 173.61 373.33 169.5 375.35 132.09 370.77 132.09 365.72 171.65 359.13"/>
    <polygon class="cls-13" points="166.03 390.71 160.41 375.49 176.81 372.59 173.57 387.58 166.03 390.71"/>
    <polygon class="cls-2" points="171.48 322.28 80.72 308.81 117.95 268.65 167.45 271.53 171.48 322.28"/>
    <path class="cls-5" d="M139.89,368.78l46.56-13.62c2-.78,2.99-3.02,2.22-5.02l-3.51-9.08-1.02-2.63-1.22-3.17-1.68-4.34-15.33-39.64-62.48,24.15,18.65,50.03,17.81,3.32Z"/>
    <polygon class="cls-2" points="96.06 300.97 148.1 283.69 127.43 305.34 108.55 308.81 96.06 300.97"/>
    <polygon class="cls-21" points="189.65 325.85 183.01 316.81 180.71 318.04 174.98 307.41 168.01 311.16 173.74 321.8 173.73 321.8 179 331.58 179 331.58 179.03 331.63 186 327.87 185.98 327.82 189.65 325.85"/>
    <polygon class="cls-2" points="138.08 297.09 151.94 331.7 144.01 336.38 139.89 368.78 112.06 363.59 80.72 308.81 149.23 279.85 138.08 297.09"/>
    <path class="cls-23" d="M184.14,338.43c-.73,1.16-1.94,2-3.4,2.24-2.72,.44-5.28-1.4-5.73-4.12-.44-2.72,1.4-5.28,4.12-5.73,.72-.12,1.44-.07,2.09,.1l1.68,4.34,1.22,3.17Z"/>
    <path class="cls-23" d="M185.16,341.05c-.63-.09-1.17-.07-1.62-.02-2.36,.29-4.08,1.9-5.2,3.41-.62,.84-1.95,.51-2.12-.52l-1.21-7.39,7.9-1.29,1.22,3.17,1.02,2.63Z"/>
    <path class="cls-2" d="M167.08,305.66c-4.77,4.34-14.65,.78-16.52-5.3,5.06-3.85,15.17-1,16.52,5.3h0Z"/>
    <path class="cls-2" d="M156.74,320.02c-.27,0-.5-.22-.5-.5-.02-4.04,2.1-7.67,5.4-9.24,1.13-.53,2.36-.82,3.66-.84,.29,.04,.5,.21,.51,.49s-.21,.5-.49,.51c-1.16,.02-2.25,.27-3.25,.75-2.96,1.4-4.85,4.67-4.83,8.33,0,.28-.22,.5-.5,.5h0Z"/>
    <circle class="cls-2" cx="164.96" cy="312.65" r="2.08"/>
    <path class="cls-2" d="M180.42,328.01c1.28,2.57,2.11,4.9,.61,7.31-.78,1.43-2.36,2.06-3.81,2.82-1.46,.74-3.02,1.39-4.69,1.92-1.69,.52-3.44,.96-5.49,1.11,.18-2.04,.66-3.79,1.2-5.47,.56-1.66,1.23-3.21,2-4.66,.78-1.44,1.43-3,2.88-3.76,2.44-1.46,4.75-.59,7.3,.73h0Z"/>
    <polygon class="cls-2" points="186.93 345.62 191.02 355.73 182.97 359.9 177.89 358.47 157.72 366.27 145.68 345.22 153.88 342.04 165.79 354.15 186.93 345.62"/>
    <polygon class="cls-2" points="117.95 268.65 125.19 257.12 126.1 270.28 117.95 268.65"/>
    <polygon class="cls-21" points="153.88 342.04 136.51 351.59 127.67 328.73 146.42 326.69 153.88 342.04"/>
    <path class="cls-1" d="M149.74,341.67c-.14,0-.27-.06-.37-.17-2.23-2.48-5.04-4.41-8.13-5.6-2.6-1-5.34-1.47-8.14-1.41h-.01c-.27,0-.49-.22-.5-.49,0-.28,.21-.5,.49-.51,2.94-.06,5.8,.42,8.52,1.47,3.23,1.25,6.17,3.27,8.51,5.87,.19,.21,.17,.52-.04,.71-.1,.09-.22,.13-.33,.13Z"/>
    <g>
      <rect class="cls-21" x="204.65" y="355.32" width="11.3" height="18.1" rx="5.65" ry="5.65" transform="translate(136.68 -49.84) rotate(19.91)"/>
      <path class="cls-5" d="M216.98,355.61h15.76c5.1,0,9.24,4.14,9.24,9.24v4.67c0,9.52-7.73,17.25-17.25,17.25h-7.75c-5.1,0-9.24-4.14-9.24-9.24v-12.68c0-5.1,4.14-9.24,9.24-9.24Z" transform="translate(174.54 -59.87) rotate(24.55)"/>
      <rect class="cls-21" x="203.48" y="360.2" width="11.3" height="14.83" rx="5.65" ry="5.65" transform="translate(137.72 -49.25) rotate(19.91)"/>
      <path class="cls-1" d="M221.21,365.03c-.06,0-.11,0-.17-.03-.26-.09-.39-.38-.3-.64l3.73-10.31c.09-.26,.38-.4,.64-.3,.26,.09,.39,.38,.3,.64l-3.73,10.31c-.07,.2-.27,.33-.47,.33Z"/>
      <path class="cls-1" d="M228.94,367.83c-.06,0-.11,0-.17-.03-.26-.09-.39-.38-.3-.64l3.51-9.68c.09-.26,.38-.39,.64-.3,.26,.09,.39,.38,.3,.64l-3.51,9.68c-.07,.2-.27,.33-.47,.33Z"/>
      <path class="cls-1" d="M236.67,370.63c-.06,0-.11,0-.17-.03-.26-.09-.39-.38-.3-.64l3.27-9.03c.09-.26,.38-.39,.64-.3,.26,.09,.39,.38,.3,.64l-3.27,9.03c-.07,.2-.27,.33-.47,.33Z"/>
    </g>
    <path class="cls-1" d="M150.79,443.56l51.01-69.42,29.87,15.42-32.85,56.74c-4.52,9.28-15.71,13.14-24.99,8.62l-23.04-11.35Z"/>
  </g>
  <path class="cls-2" d="M334.45,161.49c-.1,0-.21-.03-.3-.1-.22-.17-.26-.48-.1-.7l44.51-59.18c.17-.22,.48-.27,.7-.1,.22,.17,.26,.48,.1,.7l-44.51,59.18c-.1,.13-.25,.2-.4,.2Z"/>
  <path class="cls-2" d="M339.87,170.71c-.1,0-.21-.03-.3-.1-.22-.17-.26-.48-.1-.7l20.13-26.76c.17-.22,.48-.27,.7-.1,.22,.17,.26,.48,.1,.7l-20.13,26.76c-.1,.13-.25,.2-.4,.2Z"/>
  <path class="cls-11" d="M120.67,39.6c0,10.6,6.41,19.2,6.41,19.2,0,0,6.41-8.6,6.41-19.2s-6.41-19.2-6.41-19.2c0,0-6.41,8.6-6.41,19.2Z"/>
  <path class="cls-11" d="M88.8,77.63c0,10.6,6.41,19.2,6.41,19.2,0,0,6.41-8.6,6.41-19.2s-6.41-19.2-6.41-19.2c0,0-6.41,8.6-6.41,19.2Z"/>
  <path class="cls-2" d="M156.02,267.22c-.1,0-.21-.03-.3-.1-.22-.17-.26-.48-.1-.7l69.93-92.97c.17-.22,.48-.27,.7-.1,.22,.17,.26,.48,.1,.7l-69.93,92.97c-.1,.13-.25,.2-.4,.2Z"/>
  <path class="cls-2" d="M117.4,299.8c-.1,0-.21-.03-.3-.1-.22-.17-.26-.48-.1-.7l69.93-92.97c.17-.22,.48-.27,.7-.1,.22,.17,.26,.48,.1,.7l-69.93,92.97c-.1,.13-.25,.2-.4,.2Z"/>
  <path class="cls-2" d="M53.4,427.53c-.1,0-.21-.03-.3-.1-.22-.17-.26-.48-.1-.7l54.63-72.63c.17-.22,.48-.27,.7-.1,.22,.17,.26,.48,.1,.7l-54.63,72.63c-.1,.13-.25,.2-.4,.2Z"/>
  <polygon class="cls-2" points="109.27 183.15 134.21 173.4 142.19 192.88 169.5 198.57 155.83 216.37 169.5 234.16 142.19 239.85 134.21 259.33 109.27 249.58 84.32 259.33 76.34 239.85 49.04 234.16 62.7 216.37 49.04 198.57 76.34 192.88 84.32 173.4 109.27 183.15"/>
  <polygon class="cls-4" points="303.09 65.38 325.85 56.93 333.13 73.8 358.03 78.73 345.57 94.14 358.03 109.56 333.13 114.49 325.85 131.35 303.09 122.91 280.34 131.35 273.06 114.49 248.16 109.56 260.62 94.14 248.16 78.73 273.06 73.8 280.34 56.93 303.09 65.38"/>
  <g>
    <path class="cls-2" d="M216.65,425.27c-.1,0-.21-.03-.3-.1-.22-.17-.26-.48-.1-.7l69.93-92.97c.17-.22,.48-.27,.7-.1,.22,.17,.26,.48,.1,.7l-69.93,92.97c-.1,.13-.25,.2-.4,.2Z"/>
    <path class="cls-2" d="M251.35,395.78c-.1,0-.21-.03-.3-.1-.22-.17-.26-.48-.1-.7l54.63-72.63c.17-.22,.48-.27,.7-.1,.22,.17,.26,.48,.1,.7l-54.63,72.63c-.1,.13-.25,.2-.4,.2Z"/>
    <path class="cls-2" d="M120.03,498.12c-.1,0-.21-.03-.3-.1-.22-.17-.26-.48-.1-.7l54.63-72.63c.17-.22,.48-.27,.7-.1,.22,.17,.26,.48,.1,.7l-54.63,72.63c-.1,.13-.25,.2-.4,.2Z"/>
    <path class="cls-2" d="M136.09,498.12c-.1,0-.21-.03-.3-.1-.22-.17-.26-.48-.1-.7l37.85-50.32c.17-.22,.48-.27,.7-.1,.22,.17,.26,.48,.1,.7l-37.85,50.32c-.1,.13-.25,.2-.4,.2Z"/>
  </g>
  <g>
    <polygon class="cls-4" points="263.77 372.57 323.34 372.57 325.39 337.75 267.1 345.07 263.77 372.57"/>
    <path class="cls-4" d="M282.41,363.54s-2.47,17.09,2.27,20.38c0,0-13.79,6.13-13.79-23.23l11.52,2.85Z"/>
    <polygon class="cls-9" points="274.32 356.17 313.78 351.8 313.78 346.65 274.32 351.89 274.32 356.17"/>
    <polygon class="cls-9" points="274.32 364.65 313.78 364.65 313.78 360.38 274.32 361.25 274.32 364.65"/>
  </g>
  <g>
    <path class="cls-2" d="M266.23,102.95c.09-1.34,.7-2.54,1.84-3.6,1.14-1.06,2.38-1.57,3.71-1.55,1.34,.02,2.58,.66,3.74,1.9,1.16,1.25,1.69,2.54,1.61,3.87-.08,1.33-.69,2.53-1.83,3.59-1.14,1.06-2.38,1.58-3.73,1.56s-2.59-.64-3.75-1.89c-1.16-1.25-1.69-2.54-1.6-3.88Zm4.33,1.36c.97,1.05,1.83,1.23,2.56,.54,.35-.33,.51-.72,.47-1.16-.04-.45-.31-.93-.79-1.46-.98-1.06-1.85-1.24-2.61-.54-.74,.69-.62,1.56,.37,2.62Zm9.58-15.66l6.18,24.51-3.81,3.53-6.18-24.51,3.81-3.53Zm5.39,13.09c.08-1.33,.69-2.53,1.83-3.59,1.14-1.06,2.38-1.57,3.71-1.55,1.34,.02,2.58,.66,3.74,1.9,1.16,1.25,1.69,2.54,1.61,3.87-.08,1.33-.69,2.53-1.83,3.58-1.14,1.06-2.38,1.57-3.71,1.55-1.34-.02-2.58-.66-3.74-1.9-1.16-1.25-1.69-2.54-1.61-3.87Zm3.49-.1c.05,.44,.33,.93,.82,1.47,.97,1.05,1.83,1.23,2.57,.54,.35-.33,.51-.72,.47-1.16s-.31-.93-.79-1.46c-.48-.52-.95-.83-1.4-.91-.45-.08-.85,.04-1.21,.37s-.51,.71-.46,1.15Z"/>
    <path class="cls-2" d="M313.68,117.12c-.3-1.1-.15-2.13,.44-3.1,.61-1,1.48-1.61,2.6-1.84,1.12-.23,2.25,0,3.36,.68,1.09,.67,1.79,1.57,2.08,2.67,.29,1.11,.14,2.16-.48,3.16-.6,.97-1.46,1.57-2.57,1.79-1.12,.22-2.22,0-3.31-.68-1.12-.69-1.83-1.58-2.13-2.68Zm22.4-22.67l-11.77,17.41-5.41-3.34,10.27-18.33,6.9,4.26Z"/>
    <path class="cls-2" d="M330.35,83.32l-5.32-1.92c-2.42,4.47-6.19,7.86-11.32,10.17-3.08,1.39-5.98,2.09-8.71,2.11-2.73,.02-5.13-.61-7.19-1.9-2.06-1.29-3.65-3.16-4.76-5.63-1.13-2.51-1.48-5.08-1.04-7.72,.43-2.64,1.71-5.21,3.82-7.72-1.54-.77-2.76-1.62-3.69-2.55-.92-.93-1.68-2.06-2.28-3.39-.86-1.9-1.14-3.85-.85-5.85,.29-2,1.17-3.87,2.65-5.61,1.48-1.74,3.51-3.19,6.09-4.35,2.62-1.18,5.06-1.71,7.31-1.58,2.25,.13,4.19,.79,5.82,1.97s2.83,2.75,3.61,4.68l-9.17,4.13c-.42-1.04-1.04-1.72-1.83-2.02-.8-.3-1.65-.25-2.57,.16-.91,.41-1.55,1.02-1.92,1.82-.37,.81-.36,1.63,.01,2.46,.36,.8,.99,1.52,1.9,2.16,.91,.64,2.17,1.29,3.78,1.93l14.03,5.13c0-.22,0-.5,0-.83,.01-.32,.02-.69,.02-1.1l.49-4.54,9.74-4.39-.5,6.19c-.02,2.7-.24,5.36-.66,7.97l13.89,5.12-11.34,5.11Zm-13.92-5.04l-12.76-4.6c-2.1,2.64-2.62,5.15-1.54,7.55,.65,1.44,1.75,2.4,3.31,2.86,1.56,.47,3.29,.27,5.18-.58,2.54-1.15,4.48-2.88,5.81-5.22Z"/>
  </g>
  <g>
    <path class="cls-9" d="M96.07,208.42c3.04,1.54,5.38,3.69,7.02,6.47,1.64,2.78,2.46,5.98,2.46,9.6,0,2.93-.51,5.66-1.53,8.18-1.02,2.52-2.52,4.53-4.5,6.03-1.99,1.5-4.34,2.25-7.07,2.25-1.83,0-3.34-.36-4.53-1.09-1.19-.72-1.99-1.74-2.41-3.05-.97,1.35-2.21,2.39-3.73,3.13-1.52,.74-3.18,1.11-4.97,1.11-2.56,0-4.57-.77-6.03-2.3-1.47-1.54-2.2-3.63-2.2-6.29,0-2.52,.52-4.89,1.55-7.12,1.04-2.23,2.47-4.01,4.3-5.36,1.83-1.35,3.88-2.02,6.16-2.02,2.9,0,4.87,1.04,5.9,3.11l.47-2.74h7.15l-2.28,13c-.1,.62-.16,1.17-.16,1.66,0,1.52,.67,2.28,2.02,2.28,1.66,0,2.93-1.06,3.81-3.18,.88-2.12,1.32-4.56,1.32-7.33,0-3.97-1.25-7.08-3.75-9.32-2.5-2.24-6.02-3.37-10.54-3.37-3.87,0-7.38,.93-10.54,2.8-3.16,1.86-5.64,4.41-7.43,7.64-1.8,3.23-2.69,6.78-2.69,10.64,0,4.18,1.22,7.42,3.65,9.74s5.84,3.47,10.23,3.47c3.42,0,6.47-.62,9.17-1.86l1.4,5.64c-3.38,1.48-7.18,2.23-11.39,2.23-3.94,0-7.4-.76-10.38-2.28-2.99-1.52-5.29-3.68-6.91-6.47-1.62-2.8-2.43-6.06-2.43-9.79,0-5.21,1.22-9.93,3.68-14.16s5.83-7.54,10.12-9.94c4.3-2.4,9.1-3.6,14.42-3.6,4.07,0,7.63,.77,10.67,2.3Zm-13.64,25.4c.84-.59,1.52-1.37,2.02-2.36,.5-.98,.75-2.04,.75-3.18s-.33-2.13-.98-2.87c-.66-.74-1.55-1.11-2.69-1.11-1.52,0-2.78,.66-3.78,1.97-1,1.31-1.5,2.87-1.5,4.66,0,1.14,.29,2.05,.88,2.75,.59,.69,1.45,1.04,2.59,1.04,.97,0,1.87-.29,2.72-.88Z"/>
    <path class="cls-9" d="M93.28,142.46l11.2,37.29-11.13,3.86-14.27-36.22,14.2-4.92Zm6.29,58.71c-1.93-.85-3.24-2.27-3.93-4.27-.71-2.05-.57-4.01,.41-5.9s2.62-3.23,4.92-4.03c2.25-.78,4.34-.73,6.28,.14,1.94,.88,3.26,2.34,3.97,4.38,.69,1.99,.54,3.92-.45,5.78s-2.61,3.18-4.86,3.96c-2.3,.8-4.42,.77-6.34-.08Z"/>
    <path class="cls-9" d="M154.38,190.06l-2.58,4.68,4.58,1.39-1.78,5.88-5.84-1.77-3.03,5.46-6.11-1.85,3.03-5.46-6.34-1.92-3.03,5.46-6.11-1.85,3.03-5.46-5.65-1.71,1.78-5.88,6.91,2.09,2.58-4.68-5.54-1.67,1.78-5.88,6.76,2.04,2.93-5.28,6.11,1.85-2.93,5.28,6.34,1.92,2.93-5.28,6.11,1.85-2.93,5.28,4.73,1.43-1.78,5.88-5.96-1.8Zm-6.11-1.85l-6.34-1.92-2.58,4.68,6.34,1.92,2.58-4.68Z"/>
    <path class="cls-9" d="M111.07,249.95c-.61-1.48-.59-2.95,.08-4.41,.68-1.5,1.79-2.51,3.32-3.03,1.53-.52,3.14-.4,4.82,.37,1.65,.75,2.77,1.88,3.38,3.38s.57,3-.12,4.49c-.67,1.46-1.76,2.44-3.28,2.95-1.52,.51-3.1,.38-4.75-.37-1.68-.77-2.83-1.89-3.45-3.37Zm34.55-29.45c1.46,3.2,1.31,6.71-.43,10.53-1.61,3.52-4.01,5.74-7.21,6.65-3.2,.91-6.7,.53-10.5-1.16l-2.21,4.08-8.42-3.85,4.49-10.57,3.37,1.54c2.88,1.32,5.24,1.96,7.09,1.95,1.84-.02,3.19-.96,4.04-2.84,.6-1.31,.71-2.5,.34-3.58-.37-1.07-1.19-1.9-2.46-2.48-1.35-.62-2.57-.71-3.67-.29-1.1,.43-1.95,1.29-2.54,2.6l-9.04-4.13c.97-2.32,2.38-4.16,4.25-5.52,1.87-1.36,4.06-2.11,6.59-2.25,2.53-.14,5.23,.46,8.12,1.77,4.01,1.83,6.74,4.34,8.19,7.54Z"/>
  </g>
  <path class="cls-2" d="M356.36,199.02c-.1,0-.21-.03-.3-.1-.22-.17-.26-.48-.1-.7l20.13-26.76c.17-.22,.48-.27,.7-.1,.22,.17,.26,.48,.1,.7l-20.13,26.76c-.1,.13-.25,.2-.4,.2Z"/>
  <g>
    <polygon class="cls-2" points="222.32 91.04 238.6 80.05 241.12 97.78 261.63 99.95 248.91 114.03 261.63 128.11 241.12 130.28 238.6 148.01 222.32 137.02 206.03 148.01 203.51 130.28 183 128.11 195.72 114.03 183 99.95 203.51 97.78 206.03 80.05 222.32 91.04"/>
    <polygon class="cls-2" points="213.29 138.33 223.72 157.7 235.26 157.08 241.24 165.42 238.16 151.86 226.35 150.53 222.83 133.64 213.29 138.33"/>
    <polygon class="cls-9" points="241.32 88.92 252.83 96.71 244.23 119.87 239.85 118.9 242.28 107.03 235.42 120.65 230.83 118.14 235.86 104.89 227.5 115.86 223.02 111.54 231.06 102.08 220.45 106.64 218.94 101.75 232.06 96.4 225.05 93.57 227.1 88.52 241.32 88.92"/>
    <g>
      <path class="cls-9" d="M240.48,133.27l-42.22-9.14,10.96-20.88,29.5,12.51,1.76,17.51Zm-39.23-10.53l36.96,8-1.36-13.59-26.72-11.33-8.88,16.93Z"/>
      <circle class="cls-9" cx="223.53" cy="118.49" r="4.45"/>
      <path class="cls-9" d="M215.48,106.99c-.41,.56-1.39,1.74-3.09,2.43-2.5,1.01-4.74,.24-5.3,.03,.86-1.64,1.72-3.28,2.58-4.92l5.8,2.46Z"/>
      <path class="cls-9" d="M199.76,123.44l4.13-7.87c1.11,.31,3.36,1.11,5.41,3.16,2.57,2.57,3.12,6.38,3.32,7.5l-12.87-2.78Z"/>
      <path class="cls-9" d="M238.61,124.7l.73,7.31-8.27-1.79c.47-.82,1.61-2.43,3.17-3.61,1.61-1.22,3.45-1.69,4.37-1.91Z"/>
      <path class="cls-9" d="M238.16,120.2l-.38-3.75-4.2-1.78c0,.4,0,2.35,1.52,3.92,1.17,1.22,2.56,1.52,3.05,1.6Z"/>
    </g>
    <g>
      <rect class="cls-2" x="179.87" y="79.98" width="2" height="22.59" transform="translate(43.69 240.36) rotate(-74.16)"/>
      <rect class="cls-2" x="183.6" y="72.29" width="2" height="22.59" transform="translate(8.76 184.3) rotate(-54.16)"/>
      <rect class="cls-2" x="189.73" y="66.33" width="2" height="22.58" transform="translate(-10.67 120.53) rotate(-34.17)"/>
      <rect class="cls-2" x="197.51" y="62.84" width="2" height="22.59" transform="translate(-12.11 50.88) rotate(-14.18)"/>
    </g>
  </g>
</svg>