<?xml version="1.0" encoding="UTF-8"?>
<svg id="Layer_2" data-name="Layer 2" xmlns="http://www.w3.org/2000/svg" xmlns:xlink="http://www.w3.org/1999/xlink" viewBox="0 0 173.8 246.74">
  <defs>
    <style>
      .cls-1, .cls-2, .cls-3, .cls-4, .cls-5, .cls-6, .cls-7 {
        fill: none;
      }

      .cls-1, .cls-2, .cls-3, .cls-4, .cls-5, .cls-6, .cls-8 {
        stroke-linejoin: round;
      }

      .cls-1, .cls-2, .cls-4, .cls-5 {
        stroke-linecap: square;
      }

      .cls-1, .cls-3 {
        stroke-width: .72px;
      }

      .cls-1, .cls-3, .cls-6, .cls-8 {
        stroke: #f80500;
      }

      .cls-9 {
        fill: #fff;
      }

      .cls-2 {
        stroke-width: .72px;
      }

      .cls-2, .cls-4 {
        stroke: #181216;
      }

      .cls-10 {
        fill: #181216;
      }

      .cls-11 {
        fill: #ef9d7f;
      }

      .cls-12 {
        fill: #363636;
      }

      .cls-3, .cls-6, .cls-8 {
        stroke-linecap: round;
      }

      .cls-13, .cls-8 {
        fill: #f55;
      }

      .cls-4, .cls-5 {
        stroke-width: .72px;
      }

      .cls-14 {
        fill: #e58e73;
      }

      .cls-15 {
        fill: #3ba45b;
      }

      .cls-5 {
        stroke: #363636;
      }

      .cls-16 {
        fill: #fce9ca;
      }

      .cls-17 {
        fill: #307f46;
      }

      .cls-6 {
        stroke-width: .7px;
      }

      .cls-18 {
        fill: #e64c00;
      }

      .cls-19 {
        clip-path: url(#clippath);
      }

      .cls-20 {
        fill: #b72c2c;
      }

      .cls-21 {
        fill: #e27c5d;
      }

      .cls-8 {
        stroke-width: .76px;
      }
    </style>
    <clipPath id="clippath">
      <rect class="cls-7" x="5.98" y="7.35" width="160.53" height="198.84" rx="14.3" ry="14.3"/>
    </clipPath>
  </defs>
  <rect class="cls-17" x=".23" y=".13" width="173.34" height="246.49" rx="13.2" ry="13.2"/>
  <rect class="cls-16" x="5.98" y="7.35" width="160.53" height="198.84" rx="14.3" ry="14.3"/>
  <g class="cls-19">
    <g>
      <rect class="cls-18" x="9.16" y="135.95" width="30.27" height="6.12" transform="translate(-88.77 54.57) rotate(-43.33)"/>
      <rect class="cls-18" x="21.24" y="123.88" width="6.12" height="30.27" transform="translate(-86.24 51.28) rotate(-41.65)"/>
    </g>
    <g>
      <polygon class="cls-15" points="-3.72 31.85 87.06 27.32 87.06 66.7 34.02 69.76 22.89 84.08 22.89 71.61 2.16 69.15 -3.72 31.85"/>
      <g>
        <path class="cls-18" d="M83.7,43.45c-7.34,0-13.3-5.97-13.3-13.3s5.97-13.3,13.3-13.3,13.3,5.97,13.3,13.3-5.97,13.3-13.3,13.3Zm0-22.34c-4.98,0-9.04,4.05-9.04,9.04s4.05,9.04,9.04,9.04,9.04-4.05,9.04-9.04-4.05-9.04-9.04-9.04Z"/>
        <rect class="cls-18" x="73.25" y="27.99" width="21.73" height="4.26" transform="translate(6.31 74.04) rotate(-49.15)"/>
      </g>
      <g>
        <path class="cls-9" d="M19.86,48.9l.22-3.26-.45-.57,2.92-.15-.26,3.85,3.9-.2-.46,7.11-10.21,.52,.09-1.48,7.78-.39,.09-1.33-7.29,.37,.09-1.48,7.29-.37,.09-1.34-7.78,.39,.11-1.48,3.88-.2Zm-3.24-2.68l-.3-.39,2.42-.12,.44,2.64-2.19,.11-.37-2.24Zm6.45,1.93l.64-2.22-.34-.45,2.66-.13-.78,2.7-2.19,.11Z"/>
        <path class="cls-9" d="M29.58,47.73l-.78,5.88-1.95,.1,.78-5.88,1.95-.1Zm2.21,5.81l2.92-.15,.54-.74-.17,2.5-5.58,.28,.62-9.53-.45-.55,2.66-.13-.54,8.33Zm2.86-9.19l.31,3.58-1.95,.1-.31-3.58,1.94-.1Zm2.84,2.61l.09,7.07-1.97,.1-.09-7.07,1.97-.1Z"/>
        <path class="cls-9" d="M43.13,52.23l-.1,1.98c-.01,.24-.09,.44-.24,.61-.15,.17-.32,.26-.51,.27l-2.35,.12,.16-2.84,3.04-.15v.02Zm-2.01,.83l-.06,1.34,.87-.04,.05-1.34-.86,.04Z"/>
        <path class="cls-9" d="M55.55,51.6l-.11,1.98c-.01,.24-.09,.44-.24,.61-.15,.17-.32,.26-.51,.27l-2.35,.12,.16-2.84,3.04-.15v.02Zm-2.01,.83l-.06,1.34,.87-.04,.05-1.34-.86,.04Z"/>
        <path class="cls-9" d="M67.96,50.97l-.1,1.98c-.01,.24-.09,.44-.24,.61-.15,.17-.32,.26-.51,.27l-2.35,.12,.16-2.84,3.04-.15v.02Zm-2.01,.83l-.06,1.34,.87-.04,.05-1.34-.86,.04Z"/>
      </g>
    </g>
    <g>
      <g>
        <polygon class="cls-12" points="128.64 117.18 140.48 122.48 132.7 141.2 115.76 134.76 117.27 117.18 128.64 117.18"/>
        <polyline class="cls-2" points="129.25 139.51 131.2 130.48 117.78 123.57"/>
        <polyline class="cls-2" points="126.3 121.69 134.64 129.18 131.2 140.32"/>
      </g>
      <polygon class="cls-12" points="54.35 73.18 83.45 52.76 130.98 71.29 125.75 110.84 113.04 118.29 54.35 73.18"/>
      <polygon class="cls-14" points="104.17 141.26 112.35 164.95 99.9 182.16 82.01 164.95 78.1 151.46 104.17 141.26"/>
      <path class="cls-13" d="M49.53,159.89c-9.82,21.34-29.13,62.28-29.13,62.28l135.79-1.54-16.28-59.81-29.02-.13-11.1,8.1,.12,12.22-3.53-11.75-15.82-9.37"/>
      <path class="cls-11" d="M118.71,92.89l.1,37.88c0,2.63-1.38,5.06-3.64,6.39l-32.01,18.81c-1.98,1.16-4.47,1-6.28-.42l-20.4-15.95c-2.31-1.8-3.63-4.59-3.57-7.51l.59-38.94,28.35-17.13,36.86,16.88Z"/>
      <path class="cls-12" d="M93.6,80.62c-13.82,7.95-40.13,23.82-40.13,23.82l.07-31.27s21.16,.21,30.23-.11c3.26,2.82,6.57,4.74,9.83,7.56Z"/>
      <path class="cls-8" d="M76.26,102.75c.23,8.03,.69,24.08,.69,24.08l-7.33,.14s-1.84-17.37,6.64-24.22Z"/>
      <path class="cls-3" d="M118.44,127.47c-1.81-.33-5.52-.74-9.77,.71-1.67,.57-6.84,2.42-10.01,7.92-3.04,5.26-2.27,10.45-2,11.94"/>
      <g>
        <polygon class="cls-14" points="118.64 110.15 127.82 106.9 128.79 121.99 118.64 124.01 118.64 110.15"/>
        <path class="cls-1" d="M118.8,117.74c1.39-1.76,2.78-3.51,4.17-5.27,.78-.33,1.56-.65,2.34-.98"/>
      </g>
      <path class="cls-3" d="M66.78,147.66c.15-1.28,1.05-9.85-3.6-15.64-3.69-4.58-8.49-5.93-10.07-6.31"/>
      <path class="cls-10" d="M70.51,72.84s32.77,26.02,49.18,39.89c-.45-12.8-1.38-40.26-1.38-40.26l-47.8,.37Z"/>
      <path class="cls-12" d="M87.77,116.56c3.87,3,8.75,1.65,12.41-1.01,.95-.74,2.84-.78,3.48,.44-1.64,.02-2.27,.49-3.61,1.39-1.23,.84-2.63,1.59-4.15,1.96-1.51,.38-3.13,.45-4.66,.06-1.52-.41-2.91-1.17-3.97-2.36-.13-.14-.12-.37,.03-.49,.14-.13,.35-.11,.48,0h0Z"/>
      <path class="cls-17" d="M126.44,106.74c1.55,.6,3.37,1.49,5.22,2.82,4.95,3.55,7.3,8.21,8.32,10.71-1.95,1.23-3.91,2.47-5.86,3.7-.22-2.52-.89-6.46-3.08-10.71-1.47-2.86-3.19-5.01-4.61-6.52Z"/>
      <path class="cls-17" d="M126.28,106.47c1.07-.34,2.39-.63,3.92-.71,4.09-.21,7.27,1.26,8.86,2.14-.51,1.47-1.02,2.93-1.53,4.4-1.17-1.23-3.17-3.02-6.11-4.34-1.97-.89-3.77-1.3-5.15-1.49Z"/>
      <path class="cls-20" d="M81.83,140.36c.64,.69,.36,1.79-.52,2.12-.6,.22-1.29,.41-2.07,.52-2.04,.28-3.8-.13-5.06-.62-.89-.34-1.1-1.51-.4-2.16,1.1-1.02,7.08-.9,8.05,.14Z"/>
      <polygon class="cls-10" points="86.58 101.71 109.62 103.27 109.69 100.23 91.69 96.7 86.58 101.71"/>
      <polygon class="cls-10" points="69.6 101.45 46.51 101.52 46.63 98.48 64.83 96.12 69.6 101.45"/>
      <g>
        <polygon class="cls-11" points="103.29 215.22 103.93 199.52 103.17 161.71 133.21 163.04 124.44 201.41 126.68 215.49 103.29 215.22"/>
        <polygon class="cls-21" points="105.91 199.02 98.05 191.6 93.68 174.47 98.98 173.59 101.86 184.15 106.11 188.93 105.91 199.02"/>
        <line class="cls-6" x1="108.31" y1="165.31" x2="108.82" y2="180.8"/>
        <line class="cls-6" x1="115.34" y1="182.15" x2="117.01" y2="163.96"/>
        <line class="cls-6" x1="122.15" y1="184.96" x2="126" y2="167.09"/>
        <path class="cls-6" d="M105.4,181.66s4.65-.57,10.78,.99c6.13,1.56,9.82,4.24,9.82,4.24"/>
      </g>
      <g>
        <polygon class="cls-11" points="74.47 216.88 73.83 201.18 74.59 163.37 44.55 164.7 53.32 203.07 51.08 217.14 74.47 216.88"/>
        <polygon class="cls-21" points="71.85 200.68 79.71 193.26 84.08 176.13 78.78 175.25 75.9 185.81 71.65 190.59 71.85 200.68"/>
        <line class="cls-6" x1="69.45" y1="166.97" x2="68.94" y2="182.46"/>
        <line class="cls-6" x1="62.42" y1="183.81" x2="60.75" y2="165.61"/>
        <line class="cls-6" x1="55.61" y1="186.61" x2="51.76" y2="168.75"/>
        <path class="cls-6" d="M72.37,183.32s-4.65-.57-10.78,.99c-6.13,1.56-9.82,4.24-9.82,4.24"/>
      </g>
      <g>
        <path class="cls-10" d="M70.33,72.73s32.85,26.08,49.29,39.98c-.41-9.91-.75-19.91-1.03-30-.1-3.66-.19-7.31-.27-10.94-16,.32-31.99,.64-47.99,.96Z"/>
        <line class="cls-4" x1="130.41" y1="71.47" x2="53.69" y2="73.31"/>
        <line class="cls-5" x1="103.89" y1="69.24" x2="118.73" y2="111.11"/>
        <line class="cls-5" x1="86.05" y1="71.08" x2="118.49" y2="110.43"/>
      </g>
      <path class="cls-17" d="M48.5,105.94c21.98-.23,65.93-.68,65.93-.68,0,0,10.25-.41,11.86,1.53-7.4,1.23-7.51,13.57-7.51,13.57,0,0-51.28,4.47-70.97,2.85,.23-5.76,.46-11.52,.69-17.28Z"/>
    </g>
    <g>
      <rect class="cls-18" x="115.9" y="50.7" width="66.83" height="13.52" transform="translate(1.27 118.12) rotate(-43.33)"/>
      <rect class="cls-18" x="142.56" y="24.05" width="13.52" height="66.83" transform="translate(-.45 113.75) rotate(-41.65)"/>
    </g>
  </g>
  <g>
    <path class="cls-9" d="M30.53,233.36l.6-.33,.45,2.58-.74,.43H13.28l-.74-.43,.45-2.58,.6,.33h6.21v-1.15h-5.88l-.76-.43,.45-2.58,.6,.35h5.59v-1.11h4.54v1.11h5.59l.6-.35,.45,2.58-.76,.43h-5.88v1.15h6.21Zm-14-15.2v9.4h-3.36v-9.4h3.36Zm4.7-.66v10.52h-3.77v-10.52h3.77Zm.29,9.24c1.14-.74,2.08-1.44,2.83-2.08-.8-.8-1.59-1.67-2.39-2.62l3.24-1.28c.34,.43,.79,.93,1.34,1.51,.37-.56,.65-1.13,.82-1.71h-4.66l-.76-.43,.45-2.6,.6,.35h8.31c-.03,2.46-.8,4.65-2.33,6.58,.71,.59,1.59,1.24,2.64,1.96l-2.8,1.98c-.92-.7-1.62-1.24-2.08-1.63-.52,.45-1.23,1.01-2.12,1.67l-3.07-1.69Z"/>
    <path class="cls-9" d="M40.22,222.97h-.6v4.33h.31l.6-.35,.45,2.6-.76,.43h-.6v6h-4.52l-.76-.43,.45-2.6,.6,.35h.21v-3.32h-1.17v-2.68h1.17v-4.33h-.7l-.76-.43,.45-2.6,.6,.35h.41v-2.68h4.02v2.68h.31l.6-.35,.45,2.6-.76,.43Zm1.96,.35h2.91v-1.83h-2.99l-.76-.43,.45-2.58,.6,.35h2.7v-1.32h4.54v1.32h2.7l.6-.35,.45,2.58-.76,.43h-2.99v1.83h2.91l.62-.33,.45,2.58-.76,.43h-10.97l-.76-.43,.45-2.58,.62,.33Zm10.14,4.52l.6-.35,.45,2.6-.76,.43h-.66v5.57h-4.99l-.74-.43,.45-2.6,.6,.35h.35v-2.89h-5.53l-.76-.43,.45-2.6,.6,.35h5.24v-1.24h4.33v1.24h.37Zm-10.95,5.69l2.39-2.37,2.37,2.37-2.37,2.37-2.39-2.37Z"/>
    <path class="cls-9" d="M73.95,219.24v16.41l-.76,.43h-16.43v-13.61h4.33v10.93h8.54v-2.04h-7.92v-2.68h7.92v-2.04h-7.92v-2.68h7.92v-2.06h-12.37l-.74-.43,.45-2.58,.6,.35h5.53v-1.83h4.54v1.83h6.33Z"/>
    <path class="cls-9" d="M96.35,232.99l.45,2.58-.74,.43h-17.73v-10.66h12.91v-4.78h-12.62l-.76-.43,.45-2.6,.6,.35h16.87v9.71l-.74,.43h-12.16v5.3h12.89l.6-.33Z"/>
    <path class="cls-9" d="M105.6,217.63v1.63h2.43v16.19l-.76,.43h-7.63v-13.3h3.69v10.62h1.01v-4.21h-.66v-2.68h.66v-4.37h-4.31l-.76-.43,.45-2.6,.62,.35h1.24v-1.63h4.02Zm7.2,1.48h4.87v16.97h-7.53l-.74-.43,.45-2.6,.6,.35h2.89v-11.61h-4.1l-.76-.43v-3.81h4.33v1.57Zm-.78,3.96l.68,8.49-3.36,.29-.68-8.49,3.36-.29Z"/>
    <path class="cls-9" d="M139.71,233.36l.39,2.27-.66,.37h-18.27l-.66-.37,.39-2.27,.54,.31h.47v-9.24h4.33v9.24h8.12v-.74h-7.59v-2.23h7.59v-.74h-7.59v-2.25h7.59v-.72h-7.59v-2.25h7.59v-.74h-12.02l-.64-.37,.39-2.25,.51,.31h5.42v-.93h-6.7l-.64-.39,.39-2.25,.52,.31h6.43v-.85h4.54v.85h6.43l.52-.31,.39,2.25-.66,.39h-6.68v.93h6.12v11.98h.47l.54-.31Z"/>
    <path class="cls-9" d="M160.8,233.08l.47,2.6-.76,.43h-9.07v-2.47c-1.8,1.61-4.21,2.55-7.24,2.82l-1.53-2.78c2.49-.3,4.28-.83,5.38-1.57,1.26-.85,1.9-2.14,1.9-3.86v-1.05l3.92,.1v1.36c0,.65-.11,1.27-.33,1.88h1.81v2.89h4.85l.6-.35Zm-17.07-7.01l.29-1.65h-1.26v-4.33h1.61l-.45-1.96,4.04-.52,.56,2.47h1.57l-.5-2.23,3.98-.51,.62,2.74h1.26l.62-2.7,3.92,.62-.47,2.08h1.65v3.83l-.76,.43h-.52v7.34h-3.92v-5.2h-11.46l-.76-.43Zm.45,5.63v-4.6h3.92v4.6h-3.92Zm12.64-7.86v-1.24h-9.73v1.24h9.73Z"/>
  </g>
</svg>