<?xml version="1.0" encoding="UTF-8"?>
<svg id="Layer_2" data-name="Layer 2" xmlns="http://www.w3.org/2000/svg" xmlns:xlink="http://www.w3.org/1999/xlink" viewBox="0 0 173.8 246.74">
  <defs>
    <style>
      .cls-1, .cls-2, .cls-3, .cls-4, .cls-5, .cls-6, .cls-7 {
        fill: none;
      }

      .cls-1, .cls-2, .cls-3, .cls-4, .cls-5, .cls-6, .cls-8 {
        stroke-linejoin: round;
      }

      .cls-1, .cls-2, .cls-4, .cls-5 {
        stroke-linecap: square;
      }

      .cls-1, .cls-3 {
        stroke-width: .72px;
      }

      .cls-1, .cls-3, .cls-6, .cls-8 {
        stroke: #f80500;
      }

      .cls-9 {
        fill: #fff;
      }

      .cls-2 {
        stroke-width: .72px;
      }

      .cls-2, .cls-4 {
        stroke: #181216;
      }

      .cls-10 {
        fill: #181216;
      }

      .cls-11 {
        fill: #ef9d7f;
      }

      .cls-12 {
        fill: #363636;
      }

      .cls-3, .cls-6, .cls-8 {
        stroke-linecap: round;
      }

      .cls-13, .cls-8 {
        fill: #f55;
      }

      .cls-4, .cls-5 {
        stroke-width: .72px;
      }

      .cls-14 {
        fill: #e58e73;
      }

      .cls-15 {
        fill: #3ba45b;
      }

      .cls-5 {
        stroke: #363636;
      }

      .cls-16 {
        fill: #fce9ca;
      }

      .cls-17 {
        fill: #307f46;
      }

      .cls-6 {
        stroke-width: .7px;
      }

      .cls-18 {
        fill: #e64c00;
      }

      .cls-19 {
        clip-path: url(#clippath);
      }

      .cls-20 {
        fill: #b72c2c;
      }

      .cls-21 {
        fill: #e27c5d;
      }

      .cls-8 {
        stroke-width: .76px;
      }
    </style>
    <clipPath id="clippath">
      <rect class="cls-7" x="5.98" y="7.35" width="160.53" height="198.84" rx="14.3" ry="14.3"/>
    </clipPath>
  </defs>
  <rect class="cls-17" x=".23" y=".13" width="173.34" height="246.49" rx="13.2" ry="13.2"/>
  <rect class="cls-16" x="5.98" y="7.35" width="160.53" height="198.84" rx="14.3" ry="14.3"/>
  <g class="cls-19">
    <g>
      <rect class="cls-18" x="9.16" y="135.95" width="30.27" height="6.12" transform="translate(-88.77 54.57) rotate(-43.33)"/>
      <rect class="cls-18" x="21.24" y="123.88" width="6.12" height="30.27" transform="translate(-86.24 51.28) rotate(-41.65)"/>
    </g>
    <g>
      <polygon class="cls-15" points="-3.72 31.85 87.06 27.32 87.06 66.7 34.02 69.76 22.89 84.08 22.89 71.61 2.16 69.15 -3.72 31.85"/>
      <g>
        <path class="cls-18" d="M83.7,43.45c-7.34,0-13.3-5.97-13.3-13.3s5.97-13.3,13.3-13.3,13.3,5.97,13.3,13.3-5.97,13.3-13.3,13.3Zm0-22.34c-4.98,0-9.04,4.05-9.04,9.04s4.05,9.04,9.04,9.04,9.04-4.05,9.04-9.04-4.05-9.04-9.04-9.04Z"/>
        <rect class="cls-18" x="73.25" y="27.99" width="21.73" height="4.26" transform="translate(6.31 74.04) rotate(-49.15)"/>
      </g>
      <g>
        <path class="cls-9" d="M17.59,46.49l-.19,3.25,2.71-.14,.19-2.7-.38-.54,2.68-.14-.51,8.38-2.33,.12,.28-3.7-2.72,.14-.24,3.7-2.33,.12,.54-7.96-.49-.39,2.8-.14Z"/>
        <path class="cls-9" d="M27.48,49.53l-1.24,.06-.08,.56-2.33,.12,.25-1.99,5.71-.29-.43,5.54,.51,.68-5.47,.28c-.24,.01-.42-.07-.54-.25s-.2-.41-.21-.7l.21-2.71,3.5-.18,.12-1.13Zm-1.45,2.61l-.08,.86,1.16-.06,.08-.86-1.17,.06Z"/>
        <path class="cls-9" d="M31.46,47.06l-.25-.42,2.56-.13-.09,1.29,1.45-.07-.17,1.42-1.35,.07-.23,3.4,1.17-.06-.16,1.42-2.56,.13c-.23,.01-.43-.07-.58-.25-.16-.18-.21-.41-.17-.7l.28-3.83-.94,.05,.05-1.42,.95-.05,.05-.86Z"/>
        <path class="cls-9" d="M38.52,47.55l-.39,6.25-2.33,.12,.41-5.83-.37-.39,2.68-.14Zm-.02-.43l-2.22,.11,.04-1.7,2.33-.12-.14,1.7Z"/>
        <path class="cls-9" d="M43.7,50.83l-4.14,.21,.12-1.51,4.15-.21-.13,1.51Z"/>
        <path class="cls-9" d="M47.62,44.11l-.19,2.99,3.73-.19-.39,6.25-2.33,.12,.34-4.83-1.4,.07-.34,4.83-2.33,.12,.6-8.81-.25-.42,2.56-.13Z"/>
        <path class="cls-9" d="M55.86,48.09l-1.24,.06-.08,.56-2.33,.12,.25-1.99,5.71-.29-.42,5.54,.51,.68-5.47,.28c-.23,.01-.42-.07-.54-.25-.13-.18-.2-.41-.21-.7l.21-2.71,3.5-.18,.12-1.13Zm-1.45,2.61l-.08,.86,1.17-.06,.08-.86-1.17,.06Z"/>
        <path class="cls-9" d="M59.84,45.62l-.25-.42,2.56-.13-.09,1.29,1.45-.07-.17,1.42-1.35,.07-.23,3.4,1.16-.06-.16,1.42-2.56,.13c-.24,.01-.43-.07-.59-.25-.15-.18-.21-.41-.17-.7l.28-3.83-.93,.05,.05-1.42,.95-.05,.05-.86Z"/>
        <path class="cls-9" d="M66.9,46.12l-.39,6.24-2.33,.12,.41-5.83-.37-.39,2.68-.14Zm-.02-.43l-2.22,.11,.04-1.7,2.33-.12-.14,1.7Z"/>
        <path class="cls-9" d="M68.16,50.58l1.84-.09-.11,1.69-1.84,.09,.11-1.69Z"/>
        <path class="cls-9" d="M70.81,50.45l1.85-.09-.11,1.69-1.85,.09,.11-1.69Z"/>
        <path class="cls-9" d="M73.45,50.31l1.85-.09-.11,1.69-1.85,.09,.11-1.69Z"/>
      </g>
    </g>
    <g>
      <g>
        <polygon class="cls-12" points="128.64 117.18 140.48 122.48 132.7 141.2 115.76 134.76 117.27 117.18 128.64 117.18"/>
        <polyline class="cls-2" points="129.25 139.51 131.2 130.48 117.78 123.57"/>
        <polyline class="cls-2" points="126.3 121.69 134.64 129.18 131.2 140.32"/>
      </g>
      <polygon class="cls-12" points="54.35 73.18 83.45 52.76 130.98 71.29 125.75 110.84 113.04 118.29 54.35 73.18"/>
      <polygon class="cls-14" points="104.17 141.26 112.35 164.95 99.9 182.16 82.01 164.95 78.1 151.46 104.17 141.26"/>
      <path class="cls-13" d="M49.53,159.89c-9.82,21.34-29.13,62.28-29.13,62.28l135.79-1.54-16.28-59.81-29.02-.13-11.1,8.1,.12,12.22-3.53-11.75-15.82-9.37"/>
      <path class="cls-11" d="M118.71,92.89l.1,37.88c0,2.63-1.38,5.06-3.64,6.39l-32.01,18.81c-1.98,1.16-4.47,1-6.28-.42l-20.4-15.95c-2.31-1.8-3.63-4.59-3.57-7.51l.59-38.94,28.35-17.13,36.86,16.88Z"/>
      <path class="cls-12" d="M93.6,80.62c-13.82,7.95-40.13,23.82-40.13,23.82l.07-31.27s21.16,.21,30.23-.11c3.26,2.82,6.57,4.74,9.83,7.56Z"/>
      <path class="cls-8" d="M76.26,102.75c.23,8.03,.69,24.08,.69,24.08l-7.33,.14s-1.84-17.37,6.64-24.22Z"/>
      <path class="cls-3" d="M118.44,127.47c-1.81-.33-5.52-.74-9.77,.71-1.67,.57-6.84,2.42-10.01,7.92-3.04,5.26-2.27,10.45-2,11.94"/>
      <g>
        <polygon class="cls-14" points="118.64 110.15 127.82 106.9 128.79 121.99 118.64 124.01 118.64 110.15"/>
        <path class="cls-1" d="M118.8,117.74c1.39-1.76,2.78-3.51,4.17-5.27,.78-.33,1.56-.65,2.34-.98"/>
      </g>
      <path class="cls-3" d="M66.78,147.66c.15-1.28,1.05-9.85-3.6-15.64-3.69-4.58-8.49-5.93-10.07-6.31"/>
      <path class="cls-10" d="M70.51,72.84s32.77,26.02,49.18,39.89c-.45-12.8-1.38-40.26-1.38-40.26l-47.8,.37Z"/>
      <path class="cls-12" d="M87.77,116.56c3.87,3,8.75,1.65,12.41-1.01,.95-.74,2.84-.78,3.48,.44-1.64,.02-2.27,.49-3.61,1.39-1.23,.84-2.63,1.59-4.15,1.96-1.51,.38-3.13,.45-4.66,.06-1.52-.41-2.91-1.17-3.97-2.36-.13-.14-.12-.37,.03-.49,.14-.13,.35-.11,.48,0h0Z"/>
      <path class="cls-17" d="M126.44,106.74c1.55,.6,3.37,1.49,5.22,2.82,4.95,3.55,7.3,8.21,8.32,10.71-1.95,1.23-3.91,2.47-5.86,3.7-.22-2.52-.89-6.46-3.08-10.71-1.47-2.86-3.19-5.01-4.61-6.52Z"/>
      <path class="cls-17" d="M126.28,106.47c1.07-.34,2.39-.63,3.92-.71,4.09-.21,7.27,1.26,8.86,2.14-.51,1.47-1.02,2.93-1.53,4.4-1.17-1.23-3.17-3.02-6.11-4.34-1.97-.89-3.77-1.3-5.15-1.49Z"/>
      <path class="cls-20" d="M81.83,140.36c.64,.69,.36,1.79-.52,2.12-.6,.22-1.29,.41-2.07,.52-2.04,.28-3.8-.13-5.06-.62-.89-.34-1.1-1.51-.4-2.16,1.1-1.02,7.08-.9,8.05,.14Z"/>
      <polygon class="cls-10" points="86.58 101.71 109.62 103.27 109.69 100.23 91.69 96.7 86.58 101.71"/>
      <polygon class="cls-10" points="69.6 101.45 46.51 101.52 46.63 98.48 64.83 96.12 69.6 101.45"/>
      <g>
        <polygon class="cls-11" points="103.29 215.22 103.93 199.52 103.17 161.71 133.21 163.04 124.44 201.41 126.68 215.49 103.29 215.22"/>
        <polygon class="cls-21" points="105.91 199.02 98.05 191.6 93.68 174.47 98.98 173.59 101.86 184.15 106.11 188.93 105.91 199.02"/>
        <line class="cls-6" x1="108.31" y1="165.31" x2="108.82" y2="180.8"/>
        <line class="cls-6" x1="115.34" y1="182.15" x2="117.01" y2="163.96"/>
        <line class="cls-6" x1="122.15" y1="184.96" x2="126" y2="167.09"/>
        <path class="cls-6" d="M105.4,181.66s4.65-.57,10.78,.99c6.13,1.56,9.82,4.24,9.82,4.24"/>
      </g>
      <g>
        <polygon class="cls-11" points="74.47 216.88 73.83 201.18 74.59 163.37 44.55 164.7 53.32 203.07 51.08 217.14 74.47 216.88"/>
        <polygon class="cls-21" points="71.85 200.68 79.71 193.26 84.08 176.13 78.78 175.25 75.9 185.81 71.65 190.59 71.85 200.68"/>
        <line class="cls-6" x1="69.45" y1="166.97" x2="68.94" y2="182.46"/>
        <line class="cls-6" x1="62.42" y1="183.81" x2="60.75" y2="165.61"/>
        <line class="cls-6" x1="55.61" y1="186.61" x2="51.76" y2="168.75"/>
        <path class="cls-6" d="M72.37,183.32s-4.65-.57-10.78,.99c-6.13,1.56-9.82,4.24-9.82,4.24"/>
      </g>
      <g>
        <path class="cls-10" d="M70.33,72.73s32.85,26.08,49.29,39.98c-.41-9.91-.75-19.91-1.03-30-.1-3.66-.19-7.31-.27-10.94-16,.32-31.99,.64-47.99,.96Z"/>
        <line class="cls-4" x1="130.41" y1="71.47" x2="53.69" y2="73.31"/>
        <line class="cls-5" x1="103.89" y1="69.24" x2="118.73" y2="111.11"/>
        <line class="cls-5" x1="86.05" y1="71.08" x2="118.49" y2="110.43"/>
      </g>
      <path class="cls-17" d="M48.5,105.94c21.98-.23,65.93-.68,65.93-.68,0,0,10.25-.41,11.86,1.53-7.4,1.23-7.51,13.57-7.51,13.57,0,0-51.28,4.47-70.97,2.85,.23-5.76,.46-11.52,.69-17.28Z"/>
    </g>
    <g>
      <rect class="cls-18" x="115.9" y="50.7" width="66.83" height="13.52" transform="translate(1.27 118.12) rotate(-43.33)"/>
      <rect class="cls-18" x="142.56" y="24.05" width="13.52" height="66.83" transform="translate(-.45 113.75) rotate(-41.65)"/>
    </g>
  </g>
  <g>
    <path class="cls-9" d="M25.59,219.25v12.06h-3.78v-12.06h3.78Z"/>
    <path class="cls-9" d="M34.29,231.31l-2.37-3.83v3.83h-3.78v-12.6h3.78v6.59l2.4-3.59h4.39l-3.59,4.84,3.68,4.77h-4.51Z"/>
    <path class="cls-9" d="M50.67,221.7v9.61h-3.78v-1.46c-.29,.45-.69,.82-1.18,1.11-.49,.28-1.08,.43-1.76,.43-1.1,0-1.96-.37-2.58-1.11-.62-.74-.93-1.74-.93-3v-5.57h3.76v5.09c0,.45,.12,.81,.37,1.08s.57,.4,.98,.4,.75-.13,.99-.4,.36-.63,.36-1.08v-5.09h3.78Z"/>
    <path class="cls-9" d="M59.2,228.09v3.22h-1.43c-2.63,0-3.95-1.31-3.95-3.93v-2.52h-1.19v-3.15h1.19v-2.32h3.78v2.32h1.57v3.15h-1.57v2.59c0,.23,.05,.39,.16,.49,.11,.1,.29,.15,.54,.15h.9Z"/>
    <path class="cls-9" d="M71.4,231.31l-2.37-3.83v3.83h-3.78v-12.6h3.78v6.59l2.4-3.59h4.39l-3.59,4.84,3.68,4.77h-4.51Z"/>
    <path class="cls-9" d="M77.62,223.87c.35-.74,.82-1.31,1.42-1.7,.6-.39,1.28-.59,2.03-.59,.62,0,1.16,.13,1.62,.38,.45,.25,.8,.6,1.04,1.05v-1.31h3.76v9.61h-3.76v-1.31c-.24,.44-.58,.79-1.04,1.05-.46,.25-.99,.38-1.62,.38-.75,0-1.42-.2-2.03-.59-.6-.39-1.08-.96-1.42-1.7-.35-.74-.52-1.62-.52-2.63s.17-1.89,.52-2.63Zm5.71,1.44c-.26-.28-.6-.43-1-.43s-.74,.14-1,.43c-.26,.28-.39,.68-.39,1.19s.13,.91,.39,1.19,.6,.43,1,.43,.74-.14,1-.43,.39-.68,.39-1.19-.13-.91-.39-1.19Z"/>
    <path class="cls-9" d="M96.02,228.09v3.22h-1.43c-2.63,0-3.95-1.31-3.95-3.93v-2.52h-1.19v-3.15h1.19v-2.32h3.78v2.32h1.57v3.15h-1.57v2.59c0,.23,.05,.39,.16,.49s.29,.15,.54,.15h.9Z"/>
    <path class="cls-9" d="M98.33,223.87c.35-.74,.82-1.31,1.42-1.7,.6-.39,1.28-.59,2.03-.59,.62,0,1.16,.13,1.62,.38,.45,.25,.8,.6,1.04,1.05v-1.31h3.76v9.61h-3.76v-1.31c-.24,.44-.58,.79-1.04,1.05-.45,.25-.99,.38-1.62,.38-.75,0-1.42-.2-2.03-.59-.6-.39-1.08-.96-1.42-1.7-.35-.74-.52-1.62-.52-2.63s.17-1.89,.52-2.63Zm5.71,1.44c-.26-.28-.6-.43-1.01-.43s-.74,.14-1,.43c-.26,.28-.39,.68-.39,1.19s.13,.91,.39,1.19c.26,.28,.6,.43,1,.43s.74-.14,1.01-.43c.26-.28,.39-.68,.39-1.19s-.13-.91-.39-1.19Z"/>
    <path class="cls-9" d="M123.81,222.74c.62,.74,.93,1.74,.93,3v5.57h-3.76v-5.09c0-.45-.12-.81-.37-1.08-.25-.27-.57-.4-.98-.4s-.75,.13-.99,.4c-.24,.27-.36,.63-.36,1.08v5.09h-3.78v-12.6h3.78v4.46c.29-.45,.69-.82,1.18-1.11,.49-.28,1.08-.43,1.76-.43,1.1,0,1.96,.37,2.58,1.11Z"/>
    <path class="cls-9" d="M127.23,223.87c.35-.74,.82-1.31,1.42-1.7,.6-.39,1.28-.59,2.03-.59,.62,0,1.16,.13,1.62,.38,.45,.25,.8,.6,1.04,1.05v-1.31h3.76v9.61h-3.76v-1.31c-.24,.44-.58,.79-1.04,1.05-.45,.25-.99,.38-1.62,.38-.75,0-1.42-.2-2.03-.59-.6-.39-1.08-.96-1.42-1.7-.35-.74-.52-1.62-.52-2.63s.17-1.89,.52-2.63Zm5.71,1.44c-.26-.28-.6-.43-1.01-.43s-.74,.14-1,.43c-.26,.28-.39,.68-.39,1.19s.13,.91,.39,1.19c.26,.28,.6,.43,1,.43s.74-.14,1.01-.43c.26-.28,.39-.68,.39-1.19s-.13-.91-.39-1.19Z"/>
    <path class="cls-9" d="M145.63,228.09v3.22h-1.43c-2.63,0-3.95-1.31-3.95-3.93v-2.52h-1.19v-3.15h1.19v-2.32h3.78v2.32h1.57v3.15h-1.57v2.59c0,.23,.05,.39,.16,.49,.11,.1,.29,.15,.54,.15h.9Z"/>
    <path class="cls-9" d="M148.25,220.41c-.4-.35-.6-.79-.6-1.33s.2-1,.6-1.35c.4-.36,.92-.54,1.58-.54s1.17,.18,1.57,.54c.4,.36,.6,.81,.6,1.35s-.2,.98-.6,1.33-.92,.53-1.57,.53-1.19-.18-1.58-.53Zm3.46,1.29v9.61h-3.78v-9.61h3.78Z"/>
  </g>
</svg>