<?xml version="1.0" encoding="UTF-8"?>
<svg id="Layer_2" data-name="Layer 2" xmlns="http://www.w3.org/2000/svg" xmlns:xlink="http://www.w3.org/1999/xlink" viewBox="0 0 198.66 270.01">
  <defs>
    <style>
      .cls-1 {
        fill: #fff;
      }

      .cls-2 {
        fill: #181216;
      }

      .cls-3 {
        fill: #ef9d7f;
      }

      .cls-4 {
        fill: #363636;
      }

      .cls-5 {
        fill: #f55;
      }

      .cls-6 {
        fill: #e58e73;
      }

      .cls-7 {
        fill: #3ba45b;
      }

      .cls-8 {
        fill: #fce9ca;
      }

      .cls-9 {
        fill: #f80500;
      }

      .cls-10 {
        fill: #307f46;
      }

      .cls-11 {
        fill: #e64c00;
      }

      .cls-12 {
        clip-path: url(#clippath);
      }

      .cls-13 {
        fill: none;
      }

      .cls-14 {
        fill: #b72c2c;
      }

      .cls-15 {
        fill: #e27c5d;
      }
    </style>
    <clipPath id="clippath">
      <rect class="cls-13" x="19.67" y="18.99" width="160.53" height="198.84" rx="14.3" ry="14.3"/>
    </clipPath>
  </defs>
  <rect class="cls-10" x="13.92" y="11.76" width="173.34" height="246.49" rx="13.2" ry="13.2"/>
  <rect class="cls-8" x="19.67" y="18.99" width="160.53" height="198.84" rx="14.3" ry="14.3"/>
  <g class="cls-12">
    <g>
      <rect class="cls-11" x="22.85" y="147.59" width="30.27" height="6.12" transform="translate(-93.02 67.13) rotate(-43.33)"/>
      <rect class="cls-11" x="34.93" y="135.52" width="6.12" height="30.27" transform="translate(-90.51 63.32) rotate(-41.65)"/>
    </g>
    <g>
      <polygon class="cls-7" points="9.97 43.49 100.75 38.95 100.75 78.33 47.7 81.4 36.58 95.72 36.58 83.24 15.85 80.79 9.97 43.49"/>
      <g>
        <path class="cls-11" d="M97.39,55.08c-7.34,0-13.3-5.97-13.3-13.3s5.97-13.3,13.3-13.3,13.3,5.97,13.3,13.3-5.97,13.3-13.3,13.3Zm0-22.34c-4.98,0-9.04,4.05-9.04,9.04s4.05,9.04,9.04,9.04,9.04-4.05,9.04-9.04-4.05-9.04-9.04-9.04Z"/>
        <rect class="cls-11" x="86.93" y="39.63" width="21.73" height="4.26" transform="translate(2.24 88.42) rotate(-49.15)"/>
      </g>
      <g>
        <path class="cls-1" d="M37.2,56.72l-.22,4.13-.82,.72,.74,.66-.25,3.45c-.05,.35-.17,.64-.35,.88-.19,.23-.42,.36-.71,.38l-7.93,.4,.51-9.48-.46-.66,9.49-.48Zm-6.51,5.99l-.14,2.76,3.39-.17,.14-2.77-3.39,.17Zm.23-3.95l-.04,2.22,3.26-.17,.17-2.23-3.39,.17Z"/>
        <path class="cls-1" d="M45.87,63.32l-4.53,.23-.08,1.38,3.97-.2,.67-.72-.31,2.42-6.22,.32c-.29,.01-.5-.09-.66-.31-.15-.22-.24-.5-.26-.85l.39-6.38,7.36-.37-.33,4.48Zm-4.25-2.52l-.08,1.02,1.7-.09,.09-1.03-1.71,.09Z"/>
        <path class="cls-1" d="M50.47,58.63l1.7-.09,.49,3.76,.93-3.83,2.27-.12-1.89,7.65-2.26,.11-.62-3.75-1.08,3.83-2.27,.12-.78-7.02-.31-.49,2.4-.12,.47,3.76,.94-3.83Z"/>
        <path class="cls-1" d="M61.27,59.8l-1.5,.08-.1,.69-2.83,.14,.31-2.42,6.93-.35-.52,6.72,.62,.83-6.65,.34c-.28,.02-.5-.09-.66-.31-.15-.22-.24-.5-.26-.85l.26-3.29,4.25-.21,.15-1.37Zm-1.76,3.17l-.1,1.04,1.42-.07,.1-1.04-1.42,.07Z"/>
        <path class="cls-1" d="M68.13,57.74l-.16,2.41,1.87-2.5,2.83-.14-4.56,5.39-.16,2.41-2.83,.14,.47-7.08-.32-.48,2.86-.14Z"/>
        <path class="cls-1" d="M80.32,61.58l-4.53,.23-.08,1.38,3.97-.2,.67-.72-.31,2.42-6.22,.32c-.29,.01-.5-.09-.66-.31-.15-.22-.24-.5-.26-.85l.39-6.38,7.36-.37-.33,4.48Zm-4.25-2.53l-.08,1.03,1.69-.09,.1-1.03-1.71,.09Z"/>
        <path class="cls-1" d="M81.9,62.54l2.24-.11-.13,2.05-2.24,.12,.13-2.05Z"/>
        <path class="cls-1" d="M85.12,62.38l2.24-.11-.13,2.05-2.24,.11,.13-2.05Z"/>
        <path class="cls-1" d="M88.33,62.21l2.24-.11-.13,2.05-2.24,.11,.13-2.05Z"/>
      </g>
    </g>
    <g>
      <g>
        <polygon class="cls-4" points="142.33 128.81 154.17 134.11 146.39 152.84 129.45 146.39 130.95 128.81 142.33 128.81"/>
        <path class="cls-2" d="M143.21,151.57l-.7-.15,1.97-9.1-13.5-6.96,.33-.64,13.74,7.08c.14,.07,.22,.24,.19,.4l-2.03,9.37Z"/>
        <path class="cls-2" d="M145.12,152.4l-.69-.21,3.48-11.26-8.43-7.58,.48-.54,8.6,7.74c.1,.09,.14,.24,.1,.37l-3.55,11.48Z"/>
      </g>
      <polygon class="cls-4" points="68.04 84.82 97.14 64.4 144.67 82.93 139.44 122.47 126.73 129.93 68.04 84.82"/>
      <polygon class="cls-6" points="117.86 152.9 126.04 176.58 113.59 193.79 95.7 176.58 91.79 163.09 117.86 152.9"/>
      <path class="cls-5" d="M63.22,171.53c-9.82,21.34-29.13,62.28-29.13,62.28l135.79-1.54-16.28-59.81-29.02-.13-11.1,8.1,.12,12.22-3.53-11.75-15.82-9.37"/>
      <path class="cls-3" d="M132.39,104.53l.1,37.88c0,2.63-1.38,5.06-3.64,6.39l-32.01,18.81c-1.98,1.16-4.47,1-6.28-.42l-20.4-15.95c-2.31-1.8-3.63-4.59-3.57-7.51l.59-38.94,28.35-17.13,36.86,16.88Z"/>
      <path class="cls-4" d="M107.29,92.26c-13.82,7.95-40.13,23.82-40.13,23.82l.07-31.27s21.16,.21,30.23-.11c3.26,2.82,6.57,4.74,9.83,7.56Z"/>
      <g>
        <path class="cls-5" d="M89.95,114.38l.69,24.08-7.33,.14s-1.84-17.37,6.64-24.22Z"/>
        <path class="cls-9" d="M83.31,138.99c-.2,0-.36-.15-.38-.34-.08-.72-1.77-17.65,6.78-24.56,.11-.09,.27-.11,.4-.05,.13,.06,.22,.19,.22,.34l.69,24.08c0,.1-.03,.2-.11,.27-.07,.07-.17,.12-.27,.12l-7.33,.14s0,0,0,0Zm6.28-23.79c-6.92,6.4-6.12,20.61-5.93,23.02l6.58-.13-.66-22.89Z"/>
      </g>
      <path class="cls-9" d="M110.34,160.03c-.17,0-.32-.12-.35-.29-.45-2.45-.78-7.29,2.04-12.18,2.19-3.79,5.62-6.51,10.21-8.08,3.99-1.37,7.62-1.15,9.95-.72,.2,.04,.33,.22,.29,.42s-.21,.33-.42,.29c-2.26-.41-5.75-.62-9.59,.7-4.41,1.51-7.71,4.12-9.81,7.75-2.71,4.69-2.39,9.34-1.96,11.69,.04,.2-.09,.38-.29,.42-.02,0-.04,0-.06,0Z"/>
      <g>
        <polygon class="cls-6" points="132.32 121.79 141.51 118.54 142.47 133.63 132.32 135.65 132.32 121.79"/>
        <path class="cls-9" d="M132.55,129.88l-.56-.45,4.4-5.55s.09-.08,.14-.11l2.67-1.12,.28,.66-2.59,1.08-4.34,5.48Z"/>
      </g>
      <path class="cls-9" d="M80.47,159.65s-.03,0-.04,0c-.2-.02-.34-.2-.32-.4,.26-2.25,.78-10.02-3.53-15.37-3.33-4.13-7.61-5.65-9.87-6.18-.19-.05-.31-.24-.27-.43,.05-.19,.24-.31,.43-.27,2.35,.55,6.81,2.13,10.27,6.43,4.48,5.57,3.95,13.58,3.68,15.9-.02,.18-.18,.32-.36,.32Z"/>
      <path class="cls-2" d="M84.2,84.48s32.77,26.02,49.18,39.89c-.45-12.8-1.38-40.26-1.38-40.26l-47.8,.37Z"/>
      <path class="cls-4" d="M101.45,128.19c3.87,3,8.75,1.65,12.41-1.01,.95-.74,2.84-.78,3.48,.44-1.64,.02-2.27,.49-3.61,1.39-1.23,.84-2.63,1.59-4.15,1.96-1.51,.38-3.13,.45-4.66,.06-1.52-.41-2.91-1.17-3.97-2.36-.13-.14-.12-.37,.03-.49,.14-.13,.35-.11,.48,0h0Z"/>
      <path class="cls-10" d="M140.13,118.38c1.55,.6,3.37,1.49,5.22,2.82,4.95,3.55,7.3,8.21,8.32,10.71-1.95,1.23-3.91,2.47-5.86,3.7-.22-2.52-.89-6.46-3.08-10.71-1.47-2.86-3.19-5.01-4.61-6.52Z"/>
      <path class="cls-10" d="M139.97,118.11c1.07-.34,2.39-.63,3.92-.71,4.09-.21,7.27,1.26,8.86,2.14-.51,1.47-1.02,2.93-1.53,4.4-1.17-1.23-3.17-3.02-6.11-4.34-1.97-.89-3.77-1.3-5.15-1.49Z"/>
      <path class="cls-14" d="M95.52,151.99c.64,.69,.36,1.79-.52,2.12-.6,.22-1.29,.41-2.07,.52-2.04,.28-3.8-.13-5.06-.62-.89-.34-1.1-1.51-.4-2.16,1.1-1.02,7.08-.9,8.05,.14Z"/>
      <polygon class="cls-2" points="100.27 113.34 123.31 114.91 123.38 111.86 105.38 108.34 100.27 113.34"/>
      <polygon class="cls-2" points="83.29 113.08 60.2 113.16 60.32 110.11 78.51 107.75 83.29 113.08"/>
      <g>
        <polygon class="cls-3" points="116.98 226.86 117.62 211.15 116.86 173.35 146.9 174.68 138.13 213.05 140.37 227.12 116.98 226.86"/>
        <polygon class="cls-15" points="119.6 210.65 111.74 203.24 107.37 186.1 112.67 185.23 115.55 195.79 119.8 200.57 119.6 210.65"/>
        <path class="cls-9" d="M122.5,192.79c-.19,0-.35-.15-.35-.34l-.51-15.49c0-.19,.15-.36,.34-.36,.2-.04,.36,.15,.36,.34l.51,15.49c0,.19-.15,.36-.34,.36,0,0,0,0-.01,0Z"/>
        <path class="cls-9" d="M129.03,194.14s-.02,0-.03,0c-.19-.02-.34-.19-.32-.38l1.67-18.2c.02-.19,.18-.33,.38-.32,.19,.02,.34,.19,.32,.38l-1.67,18.2c-.02,.18-.17,.32-.35,.32Z"/>
        <path class="cls-9" d="M135.84,196.95s-.05,0-.07,0c-.19-.04-.31-.23-.27-.42l3.85-17.87c.04-.19,.22-.31,.42-.27,.19,.04,.31,.23,.27,.42l-3.85,17.87c-.04,.17-.18,.28-.34,.28Z"/>
        <path class="cls-9" d="M139.69,198.88c-.07,0-.14-.02-.21-.07-.04-.03-3.71-2.66-9.7-4.18-5.99-1.52-10.61-.99-10.65-.98-.2,.03-.37-.11-.39-.31s.11-.37,.31-.39c.19-.02,4.78-.56,10.91,1,6.13,1.56,9.79,4.18,9.94,4.29,.16,.11,.19,.33,.08,.49-.07,.09-.18,.15-.29,.15Z"/>
      </g>
      <g>
        <polygon class="cls-3" points="88.16 228.52 87.52 212.81 88.28 175.01 58.24 176.33 67.01 214.7 64.77 228.78 88.16 228.52"/>
        <polygon class="cls-15" points="85.54 212.31 93.4 204.9 97.77 187.76 92.47 186.89 89.59 197.45 85.34 202.22 85.54 212.31"/>
        <path class="cls-9" d="M82.63,194.45s0,0-.01,0c-.19,0-.35-.17-.34-.36l.51-15.49c0-.19,.19-.39,.36-.34,.19,0,.35,.17,.34,.36l-.51,15.49c0,.19-.16,.34-.35,.34Z"/>
        <path class="cls-9" d="M76.11,195.8c-.18,0-.33-.14-.35-.32l-1.67-18.2c-.02-.19,.12-.37,.32-.38,.18-.02,.37,.12,.38,.32l1.67,18.2c.02,.19-.12,.37-.32,.38-.01,0-.02,0-.03,0Z"/>
        <path class="cls-9" d="M69.3,198.6c-.16,0-.31-.11-.34-.28l-3.85-17.86c-.04-.19,.08-.38,.27-.42,.19-.04,.38,.08,.42,.27l3.85,17.86c.04,.19-.08,.38-.27,.42-.03,0-.05,0-.07,0Z"/>
        <path class="cls-9" d="M65.45,200.54c-.11,0-.22-.05-.29-.15-.11-.16-.08-.38,.08-.49,.15-.11,3.81-2.74,9.94-4.29,6.13-1.56,10.72-1.02,10.91-1,.19,.02,.33,.2,.31,.39-.02,.19-.19,.34-.39,.31-.04,0-4.66-.54-10.65,.98s-9.66,4.16-9.7,4.18c-.06,.04-.13,.07-.21,.07Z"/>
      </g>
      <g>
        <path class="cls-2" d="M84.02,84.36s32.85,26.08,49.29,39.98c-.41-9.91-.75-19.91-1.03-30-.1-3.66-.19-7.31-.27-10.94-16,.32-31.99,.64-47.99,.96Z"/>
        <rect class="cls-2" x="67" y="83.67" width="77.47" height=".72" transform="translate(-1.91 2.46) rotate(-1.32)"/>
        <rect class="cls-4" x="124.64" y="79.24" width=".72" height="45.14" transform="translate(-26.84 47.62) rotate(-19.52)"/>
        <rect class="cls-4" x="115.6" y="76.54" width=".72" height="51.71" transform="translate(-38.65 97.15) rotate(-39.5)"/>
      </g>
      <path class="cls-10" d="M62.19,117.57c21.98-.23,65.93-.68,65.93-.68,0,0,10.25-.41,11.86,1.53-7.4,1.23-7.51,13.57-7.51,13.57,0,0-51.28,4.47-70.97,2.85,.23-5.76,.46-11.52,.69-17.28Z"/>
    </g>
    <g>
      <rect class="cls-11" x="129.59" y="62.34" width="66.83" height="13.52" transform="translate(-2.98 130.69) rotate(-43.33)"/>
      <rect class="cls-11" x="156.24" y="35.68" width="13.52" height="66.83" transform="translate(-4.72 125.79) rotate(-41.65)"/>
    </g>
  </g>
  <g>
    <path class="cls-1" d="M22.48,242.81c-.89-.64-1.37-1.58-1.45-2.82h3.82c.05,.66,.35,.99,.87,.99,.19,0,.36-.05,.49-.14,.13-.09,.2-.23,.2-.43,0-.27-.15-.49-.44-.66-.29-.17-.74-.36-1.36-.57-.73-.26-1.34-.51-1.82-.76-.48-.25-.89-.61-1.24-1.08-.35-.47-.51-1.08-.5-1.83,0-.74,.19-1.38,.57-1.9,.38-.52,.91-.92,1.57-1.19s1.41-.4,2.24-.4c1.4,0,2.52,.32,3.34,.97,.83,.65,1.26,1.56,1.3,2.73h-3.87c-.01-.32-.09-.55-.24-.7-.15-.14-.33-.21-.55-.21-.15,0-.28,.05-.37,.15-.1,.1-.15,.25-.15,.43,0,.26,.14,.47,.43,.64,.29,.17,.74,.37,1.37,.61,.72,.27,1.32,.53,1.79,.78,.47,.25,.88,.59,1.22,1.04,.34,.44,.52,1,.52,1.67s-.17,1.33-.52,1.88c-.35,.56-.85,.99-1.5,1.3-.66,.31-1.44,.47-2.35,.47-1.37,0-2.5-.32-3.39-.96Z"/>
    <path class="cls-1" d="M37.99,240.6v3.06h-1.36c-2.5,0-3.75-1.25-3.75-3.74v-2.39h-1.13v-2.99h1.13v-2.2h3.59v2.2h1.49v2.99h-1.49v2.46c0,.22,.05,.37,.15,.47s.27,.15,.51,.15h.86Z"/>
    <path class="cls-1" d="M40.48,233.3c-.38-.33-.57-.75-.57-1.26s.19-.95,.57-1.29c.38-.34,.88-.51,1.5-.51s1.11,.17,1.49,.51c.38,.34,.57,.77,.57,1.29s-.19,.93-.57,1.26c-.38,.33-.87,.5-1.49,.5s-1.13-.17-1.5-.5Zm3.28,1.23v9.12h-3.59v-9.12h3.59Z"/>
    <path class="cls-1" d="M46.29,236.61c.39-.71,.94-1.25,1.65-1.63,.71-.38,1.51-.57,2.42-.57,1.19,0,2.19,.33,3,1s1.33,1.6,1.54,2.78h-3.8c-.14-.47-.42-.71-.83-.71-.29,0-.52,.14-.69,.41s-.25,.67-.25,1.2,.08,.93,.25,1.2c.17,.27,.4,.4,.69,.4,.41,0,.69-.24,.83-.71h3.8c-.22,1.19-.73,2.11-1.54,2.78s-1.81,1-3,1c-.91,0-1.71-.19-2.42-.57-.71-.38-1.26-.92-1.65-1.63-.39-.71-.59-1.53-.59-2.48s.2-1.78,.59-2.48Z"/>
    <path class="cls-1" d="M62.69,243.66l-2.25-3.64v3.64h-3.59v-11.97h3.59v6.26l2.28-3.41h4.17l-3.41,4.59,3.49,4.53h-4.29Z"/>
    <path class="cls-1" d="M77.83,240.6v3.06h-1.36c-2.5,0-3.75-1.25-3.75-3.74v-2.39h-1.13v-2.99h1.13v-2.2h3.59v2.2h1.49v2.99h-1.49v2.46c0,.22,.05,.37,.15,.47s.27,.15,.51,.15h.86Z"/>
    <path class="cls-1" d="M81.88,243.2c-.73-.38-1.31-.92-1.72-1.63-.42-.71-.62-1.53-.62-2.48s.21-1.78,.62-2.48c.42-.71,.99-1.25,1.72-1.63s1.56-.57,2.48-.57,1.74,.19,2.47,.57,1.31,.92,1.72,1.63c.42,.71,.62,1.53,.62,2.48s-.21,1.78-.62,2.48c-.42,.71-.99,1.25-1.72,1.63-.73,.38-1.56,.57-2.47,.57s-1.74-.19-2.48-.57Zm3.32-2.94c.23-.26,.34-.65,.34-1.17s-.11-.91-.34-1.17c-.23-.26-.51-.4-.84-.4s-.62,.13-.84,.4c-.23,.26-.34,.66-.34,1.17s.11,.91,.33,1.17c.22,.26,.5,.4,.85,.4s.61-.13,.84-.4Z"/>
    <path class="cls-1" d="M104.98,234.53l-5.84,13.49h-3.93l2.3-4.82-3.8-8.67h4l1.71,4.63,1.6-4.63h3.96Z"/>
    <path class="cls-1" d="M108.29,243.2c-.73-.38-1.31-.92-1.72-1.63-.42-.71-.62-1.53-.62-2.48s.21-1.78,.62-2.48c.42-.71,.99-1.25,1.72-1.63s1.56-.57,2.48-.57,1.74,.19,2.47,.57,1.31,.92,1.72,1.63c.42,.71,.62,1.53,.62,2.48s-.21,1.78-.62,2.48c-.42,.71-.99,1.25-1.72,1.63-.73,.38-1.56,.57-2.47,.57s-1.74-.19-2.48-.57Zm3.32-2.94c.23-.26,.34-.65,.34-1.17s-.11-.91-.34-1.17c-.23-.26-.51-.4-.84-.4s-.62,.13-.84,.4c-.23,.26-.34,.66-.34,1.17s.11,.91,.33,1.17c.22,.26,.5,.4,.85,.4s.61-.13,.84-.4Z"/>
    <path class="cls-1" d="M127.19,234.53v9.12h-3.59v-1.39c-.28,.43-.66,.78-1.12,1.05s-1.03,.4-1.67,.4c-1.05,0-1.86-.35-2.45-1.05-.59-.7-.88-1.65-.88-2.85v-5.29h3.58v4.84c0,.43,.12,.77,.35,1.03,.23,.25,.54,.38,.93,.38s.71-.13,.94-.38c.23-.25,.34-.6,.34-1.03v-4.84h3.59Z"/>
    <path class="cls-1" d="M134.55,234.95c.53-.32,1.08-.48,1.65-.48v3.83h-1.02c-.68,0-1.18,.12-1.5,.36-.32,.24-.48,.66-.48,1.26v3.74h-3.59v-9.12h3.59v1.68c.37-.53,.81-.95,1.34-1.27Z"/>
    <path class="cls-1" d="M146.36,234.78c.43,.24,.76,.57,.99,1v-1.25h3.58v8.96c0,.85-.16,1.63-.47,2.33s-.82,1.26-1.51,1.68c-.7,.42-1.59,.63-2.68,.63-1.47,0-2.63-.34-3.49-1.03-.86-.69-1.35-1.62-1.46-2.79h3.53c.1,.47,.49,.71,1.16,.71,.42,0,.75-.11,.99-.32s.36-.62,.36-1.21v-1.08c-.23,.42-.56,.75-.99,1-.43,.24-.94,.36-1.54,.36-.71,0-1.35-.19-1.92-.56-.57-.37-1.02-.91-1.35-1.62-.33-.71-.49-1.54-.49-2.5s.17-1.79,.49-2.5c.33-.71,.78-1.25,1.35-1.62,.57-.37,1.21-.56,1.92-.56,.59,0,1.11,.12,1.54,.36Zm.61,3.18c-.25-.27-.57-.4-.95-.4s-.71,.13-.95,.4c-.25,.27-.37,.65-.37,1.13s.12,.86,.37,1.13c.25,.27,.57,.4,.95,.4s.71-.13,.95-.4,.37-.65,.37-1.13-.12-.86-.37-1.13Z"/>
    <path class="cls-1" d="M163,234.53v9.12h-3.59v-1.39c-.28,.43-.66,.78-1.12,1.05s-1.03,.4-1.67,.4c-1.05,0-1.86-.35-2.45-1.05-.59-.7-.88-1.65-.88-2.85v-5.29h3.58v4.84c0,.43,.12,.77,.35,1.03,.23,.25,.54,.38,.93,.38s.71-.13,.94-.38c.23-.25,.34-.6,.34-1.03v-4.84h3.59Z"/>
    <path class="cls-1" d="M171.11,240.6v3.06h-1.36c-2.5,0-3.75-1.25-3.75-3.74v-2.39h-1.13v-2.99h1.13v-2.2h3.59v2.2h1.49v2.99h-1.49v2.46c0,.22,.05,.37,.15,.47s.27,.15,.51,.15h.86Z"/>
    <path class="cls-1" d="M174.67,243.29c-.38-.33-.57-.75-.57-1.26s.19-.95,.57-1.29c.38-.34,.88-.51,1.5-.51s1.11,.17,1.49,.51c.38,.34,.57,.77,.57,1.29s-.19,.93-.57,1.26c-.38,.33-.87,.5-1.49,.5s-1.13-.17-1.5-.5Zm3.46-11.84l-.42,7.67h-3.07l-.42-7.67h3.91Z"/>
  </g>
</svg>