<?xml version="1.0" encoding="UTF-8"?>
<svg id="Layer_2" data-name="Layer 2" xmlns="http://www.w3.org/2000/svg" xmlns:xlink="http://www.w3.org/1999/xlink" viewBox="0 0 173.34 246.49">
  <defs>
    <style>
      .cls-1, .cls-2, .cls-3, .cls-4, .cls-5, .cls-6 {
        fill: none;
      }

      .cls-1, .cls-3, .cls-6 {
        stroke: #fff;
      }

      .cls-1, .cls-4 {
        stroke-linecap: square;
      }

      .cls-1, .cls-4, .cls-6 {
        stroke-linejoin: round;
      }

      .cls-1, .cls-6 {
        stroke-width: .26px;
      }

      .cls-7 {
        fill: #fff;
      }

      .cls-2 {
        stroke: #d46cff;
        stroke-width: .52px;
      }

      .cls-2, .cls-3 {
        stroke-miterlimit: 10;
      }

      .cls-8 {
        fill: #363636;
      }

      .cls-3 {
        stroke-width: 2.33px;
      }

      .cls-9 {
        fill: #eeb2ff;
      }

      .cls-10 {
        fill: #fac300;
      }

      .cls-11 {
        fill: #f7f2dc;
      }

      .cls-12 {
        fill: #fce9ca;
      }

      .cls-13 {
        fill: #ab7a5a;
      }

      .cls-14 {
        fill: #e64c00;
      }

      .cls-4 {
        stroke: #363636;
        stroke-width: .53px;
      }

      .cls-15 {
        clip-path: url(#clippath);
      }

      .cls-16 {
        fill: #9e6647;
      }

      .cls-17 {
        fill: #b72c2c;
      }

      .cls-6 {
        stroke-linecap: round;
      }

      .cls-18 {
        fill: #f7a22d;
      }
    </style>
    <clipPath id="clippath">
      <rect class="cls-5" x="6.41" y="7.17" width="160.53" height="198.84" rx="14.3" ry="14.3"/>
    </clipPath>
  </defs>
  <rect class="cls-18" width="173.34" height="246.49" rx="13.2" ry="13.2"/>
  <rect class="cls-12" x="6.41" y="7.17" width="160.53" height="198.84" rx="14.3" ry="14.3"/>
  <g class="cls-15">
    <g>
      <path class="cls-18" d="M112.79,157.17c4.29,3.61,8.59,7.22,12.88,10.84-1.16-4.7-2.32-9.39-3.48-14.09,2.57-.38,5.15-.76,7.72-1.15,.37-13.82,.73-27.64,1.1-41.46-32.53-.05-65.06-.11-97.59-.16,1.32,18.07,2.64,36.15,3.96,54.22,25.14-2.73,50.27-5.47,75.41-8.2Z"/>
      <rect class="cls-14" x="22.33" y="17.64" width="135.44" height="25.88" rx="12.94" ry="12.94"/>
      <g>
        <circle class="cls-3" cx="34.73" cy="29.67" r="4.88"/>
        <line class="cls-3" x1="38.31" y1="32.98" x2="42.92" y2="37.85"/>
      </g>
      <path class="cls-18" d="M117.99,71.75c-2.25,2.06-4.51,4.11-6.76,6.17,.07,3.92,.14,7.83,.22,11.75-14.29,1.2-28.57,2.39-42.86,3.59-1.6-10.88-3.21-21.75-4.81-32.63,15.84-.31,31.69-.61,47.53-.92,.19,3.9,.39,7.81,.58,11.71,2.03,.11,4.07,.22,6.1,.33Z"/>
      <path class="cls-7" d="M11.26,171.17c3.31-3.02,6.62-6.04,9.93-9.06-.11-5.75-.21-11.5-.32-17.25,20.98-1.76,41.97-3.52,62.95-5.27,2.35,15.97,4.71,31.95,7.06,47.92-23.27,.45-46.54,.9-69.81,1.35-.28-5.73-.57-11.47-.85-17.2-2.99-.16-5.97-.32-8.96-.48Z"/>
      <path class="cls-7" d="M64,119.87c4.29,3.61,8.59,7.22,12.88,10.84-1.16-4.7-2.32-9.39-3.48-14.09,2.57-.38,5.15-.76,7.72-1.15,.37-13.82,.73-27.64,1.1-41.46-32.53-.05-65.06-.11-97.59-.16,1.32,18.07,2.64,36.15,3.96,54.22,25.14-2.73,50.27-5.47,75.41-8.2Z"/>
      <g>
        <circle class="cls-10" cx="134.05" cy="117.11" r="37.62"/>
        <path class="cls-14" d="M134.14,158.47c-1.69,0-3.39-.1-5.09-.31-10.96-1.34-20.75-6.87-27.56-15.56-6.81-8.7-9.82-19.53-8.48-30.49,2.76-22.64,23.43-38.8,46.06-36.04,10.96,1.34,20.75,6.87,27.56,15.56s9.82,19.53,8.48,30.49c-1.34,10.96-6.87,20.75-15.56,27.56-7.35,5.75-16.22,8.79-25.4,8.79Zm-.11-75.25c-16.87,0-31.52,12.62-33.61,29.79-1.1,8.99,1.37,17.86,6.95,24.99,5.58,7.13,13.6,11.66,22.58,12.75,8.99,1.09,17.86-1.37,24.99-6.95,7.13-5.58,11.66-13.6,12.75-22.58h0c2.26-18.55-10.99-35.48-29.53-37.74-1.39-.17-2.76-.25-4.13-.25Z"/>
        <rect class="cls-14" x="167.75" y="155.77" width="17.97" height="59.17" transform="translate(-70.91 120.06) rotate(-31.59)"/>
        <rect class="cls-14" x="157.12" y="147.11" width="7.73" height="25.46" transform="translate(-59.88 108.02) rotate(-31.59)"/>
        <path class="cls-7" d="M150.67,95.3c13.16,8.57,15.82,25.7,6.3,38.1-2.89,3.83-6.7,6.92-10.98,9,3.83-2.7,7.2-5.97,9.79-9.85,8.41-12.43,6.02-27.34-5.12-37.25h0Z"/>
      </g>
      <g>
        <polygon class="cls-13" points="29.87 70.99 66.2 73.65 66.81 109.37 23.92 106.14 29.87 70.99"/>
        <g>
          <polygon class="cls-16" points="66.45 88.13 72.94 87.3 72.28 97.34 66.6 96.84 66.45 88.13"/>
          <path class="cls-1" d="M66.54,93.57s1.02-1.79,2.1-2.67c1.08-.88,2.54-1.33,2.54-1.33"/>
        </g>
        <g>
          <polygon class="cls-16" points="27.5 85.11 21.25 83.16 20.14 93.16 26.03 93.68 27.5 85.11"/>
          <path class="cls-1" d="M26.45,90.45s-.7-1.94-1.6-3-2.27-1.75-2.27-1.75"/>
        </g>
        <path class="cls-8" d="M66.45,88.13l4.6-.59,3.18-20.47s-33.49-9.28-34.8-9.85-2.49-1.29-3.38-1.77c-.89-.48-2.83-1.83-2.83-1.83l2.18,5.03-11.74,8.44,.6,17.01,3.23,1.01,2.38-14.11,36.33,2.66,.24,14.48Z"/>
        <polygon class="cls-8" points="62.45 84.23 63.33 81.51 56.25 80.89 55.07 82.49 62.45 84.23"/>
        <polygon class="cls-8" points="30.88 80.42 30.67 77.58 37.69 78.64 38.47 80.47 30.88 80.42"/>
        <polygon class="cls-6" points="42.46 81.92 47.67 82.37 46.58 94.75 37.69 94.35 39.12 89.87 41.73 89.62 42.46 81.92"/>
        <path class="cls-4" d="M30.52,88.19s1.14-1.88,3.46-1.49,2.97,2.06,2.97,2.06"/>
        <path class="cls-4" d="M54.88,90.34s1.14-1.88,3.46-1.49,2.97,2.06,2.97,2.06"/>
        <polygon class="cls-8" points="24.94 98.04 28.41 103.37 61.23 106.07 66.82 99.72 67.26 109.77 49.71 108.77 49.53 110.8 41.93 110.13 41.22 108.14 23.55 106.35 24.94 98.04"/>
        <path class="cls-17" d="M42.35,99.58l5.01-.06s-.33,2.28-2.44,2.2c-2.11-.08-2.57-2.14-2.57-2.14Z"/>
        <path class="cls-6" d="M66.43,94.77s-4.32-2.46-8.82,1.33c-4.5,3.79-2.74,9.45-2.74,9.45"/>
        <path class="cls-6" d="M26.32,91.93s3.68,1.28,5.96,4.25,1.72,7.65,1.72,7.65"/>
        <polygon class="cls-8" points="32.44 96.48 39.82 92.67 44.57 93.94 49.93 93.17 56.06 98.57 45.78 98.41 44.34 96.53 42.51 98.3 32.44 96.48"/>
      </g>
      <g>
        <path class="cls-9" d="M81.06,162.78s-8.82,9.65-19.43,13.87c-10.6,4.22-26.74,3.94-26.74,3.94l-5.05-15.61s8.45-.43,17.7-4.8c5.96-2.82,14.58-14.36,14.58-14.36l18.94,16.96Z"/>
        <path class="cls-11" d="M51.3,164.59c4.65-1.63,8.69-3.04,9.7-1.68,1.1,1.49-1.38,6.35-5.37,8.2-5.1,2.38-11.88-.54-11.94-2.51-.04-1.34,3.02-2.41,7.61-4.02Z"/>
        <path class="cls-2" d="M75.93,162.65l-13.52-12.7s-9,10.31-13.14,11.98c-4.15,1.68-17.13,4.7-17.13,4.7l4.6,11.65s11.7-.77,20.73-3.49c9.03-2.71,18.47-12.15,18.47-12.15Z"/>
      </g>
      <g>
        <path class="cls-7" d="M50.59,27.92c.45,.24,.79,.58,1.03,1.01,.24,.43,.36,.92,.36,1.46s-.12,1.03-.36,1.46c-.24,.43-.59,.78-1.03,1.03-.45,.25-.97,.37-1.56,.37h-2.37v-5.69h2.37c.59,0,1.12,.12,1.56,.36Zm-.77,3.41c.24-.22,.35-.53,.35-.94s-.12-.72-.35-.94c-.24-.22-.55-.33-.96-.33h-.43v2.54h.43c.4,0,.72-.11,.96-.33Z"/>
        <path class="cls-7" d="M53.03,29.74c.16-.35,.39-.62,.67-.8s.6-.28,.96-.28c.29,0,.55,.06,.76,.18,.21,.12,.38,.29,.49,.49v-.62h1.78v4.54h-1.78v-.62c-.11,.21-.28,.37-.49,.49-.21,.12-.47,.18-.76,.18-.35,0-.67-.09-.96-.28s-.51-.45-.67-.8c-.16-.35-.25-.77-.25-1.24s.08-.89,.25-1.24Zm2.7,.68c-.12-.13-.28-.2-.47-.2s-.35,.07-.47,.2c-.12,.13-.18,.32-.18,.56s.06,.43,.18,.56c.12,.13,.28,.2,.47,.2s.35-.07,.47-.2c.12-.13,.19-.32,.19-.56s-.06-.43-.19-.56Z"/>
        <path class="cls-7" d="M61.8,33.25l-1.12-1.81v1.81h-1.79v-5.95h1.79v3.11l1.13-1.7h2.08l-1.7,2.28,1.74,2.25h-2.13Z"/>
        <path class="cls-7" d="M71.63,28.71l-1.08,4.54h-2.01l-.55-2.56-.58,2.56h-2.01l-1.07-4.54h1.77l.38,2.76,.59-2.76h1.91l.62,2.79,.39-2.79h1.65Z"/>
        <path class="cls-7" d="M72.41,29.74c.16-.35,.39-.62,.67-.8s.6-.28,.96-.28c.29,0,.55,.06,.76,.18,.21,.12,.38,.29,.49,.49v-.62h1.78v4.54h-1.78v-.62c-.11,.21-.28,.37-.49,.49-.21,.12-.47,.18-.76,.18-.35,0-.67-.09-.96-.28s-.51-.45-.67-.8c-.16-.35-.25-.77-.25-1.24s.08-.89,.25-1.24Zm2.7,.68c-.12-.13-.28-.2-.47-.2s-.35,.07-.47,.2c-.12,.13-.18,.32-.18,.56s.06,.43,.18,.56c.12,.13,.28,.2,.47,.2s.35-.07,.47-.2c.12-.13,.19-.32,.19-.56s-.06-.43-.19-.56Z"/>
        <path class="cls-7" d="M78.28,29.74c.16-.35,.39-.62,.67-.8s.6-.28,.96-.28c.29,0,.55,.06,.76,.18,.21,.12,.38,.29,.49,.49v-.62h1.78v4.54h-1.78v-.62c-.11,.21-.28,.37-.49,.49-.21,.12-.47,.18-.76,.18-.35,0-.67-.09-.96-.28s-.51-.45-.67-.8c-.16-.35-.25-.77-.25-1.24s.08-.89,.25-1.24Zm2.7,.68c-.12-.13-.28-.2-.47-.2s-.35,.07-.47,.2c-.12,.13-.18,.32-.18,.56s.06,.43,.18,.56c.12,.13,.28,.2,.47,.2s.35-.07,.47-.2c.12-.13,.19-.32,.19-.56s-.06-.43-.19-.56Z"/>
        <path class="cls-7" d="M88.55,29.2c.29,.35,.44,.82,.44,1.42v2.63h-1.78v-2.41c0-.21-.06-.38-.17-.51-.12-.13-.27-.19-.46-.19s-.35,.06-.47,.19c-.11,.13-.17,.3-.17,.51v2.41h-1.79v-4.54h1.79v.69c.14-.21,.33-.39,.56-.52,.23-.13,.51-.2,.83-.2,.52,0,.93,.17,1.22,.52Z"/>
        <path class="cls-7" d="M94.79,33.25l-1.07-2.04h0v2.04h-1.79v-5.69h2.65c.46,0,.86,.08,1.18,.25s.57,.39,.74,.67c.16,.28,.25,.6,.25,.95,0,.38-.11,.72-.32,1.01s-.52,.51-.91,.64l1.24,2.18h-1.96Zm-1.08-3.23h.71c.17,0,.3-.04,.39-.12,.08-.08,.13-.2,.13-.37,0-.15-.04-.27-.13-.35-.09-.09-.22-.13-.38-.13h-.71v.97Z"/>
        <path class="cls-7" d="M97.72,29.74c.16-.35,.39-.62,.67-.8s.6-.28,.96-.28c.29,0,.55,.06,.76,.18,.21,.12,.38,.29,.49,.49v-.62h1.78v4.54h-1.78v-.62c-.11,.21-.28,.37-.49,.49-.21,.12-.47,.18-.76,.18-.35,0-.67-.09-.96-.28s-.51-.45-.67-.8c-.16-.35-.25-.77-.25-1.24s.08-.89,.25-1.24Zm2.7,.68c-.12-.13-.28-.2-.47-.2s-.35,.07-.47,.2c-.12,.13-.18,.32-.18,.56s.06,.43,.18,.56c.12,.13,.28,.2,.47,.2s.35-.07,.47-.2c.12-.13,.19-.32,.19-.56s-.06-.43-.19-.56Z"/>
        <path class="cls-7" d="M104.47,33.1c-.33-.14-.59-.33-.78-.58-.19-.25-.3-.53-.33-.84h1.71c.02,.13,.08,.23,.17,.3s.21,.1,.36,.1c.09,0,.16-.02,.22-.06,.05-.04,.08-.09,.08-.15,0-.1-.06-.17-.17-.22-.11-.04-.3-.09-.57-.15-.33-.06-.6-.13-.81-.21s-.4-.2-.55-.39c-.16-.18-.24-.43-.24-.76,0-.28,.07-.53,.22-.76s.37-.41,.66-.54c.29-.13,.64-.2,1.05-.2,.61,0,1.09,.15,1.44,.45s.55,.69,.62,1.17h-1.58c-.03-.12-.08-.22-.17-.29-.09-.07-.2-.1-.35-.1-.09,0-.16,.02-.21,.05-.05,.03-.07,.09-.07,.16,0,.09,.06,.16,.17,.21,.11,.05,.29,.09,.54,.14,.33,.06,.6,.14,.83,.22,.23,.08,.42,.22,.59,.41,.17,.2,.25,.47,.25,.81,0,.27-.08,.51-.23,.72-.16,.21-.38,.38-.67,.51-.29,.12-.63,.19-1.03,.19-.43,0-.81-.07-1.14-.21Z"/>
        <path class="cls-7" d="M113.45,28.71v4.54h-1.79v-.69c-.14,.21-.33,.39-.56,.52-.23,.13-.51,.2-.83,.2-.52,0-.93-.17-1.22-.52-.29-.35-.44-.82-.44-1.42v-2.63h1.78v2.41c0,.21,.06,.38,.17,.51s.27,.19,.46,.19,.35-.06,.47-.19c.11-.13,.17-.3,.17-.51v-2.41h1.79Z"/>
        <path class="cls-7" d="M114.66,29.74c.16-.35,.39-.62,.67-.8s.6-.28,.96-.28c.29,0,.55,.06,.76,.18,.21,.12,.38,.29,.49,.49v-.62h1.78v4.54h-1.78v-.62c-.11,.21-.28,.37-.49,.49-.21,.12-.47,.18-.76,.18-.35,0-.67-.09-.96-.28s-.51-.45-.67-.8c-.16-.35-.25-.77-.25-1.24s.08-.89,.25-1.24Zm2.7,.68c-.12-.13-.28-.2-.47-.2s-.35,.07-.47,.2c-.12,.13-.18,.32-.18,.56s.06,.43,.18,.56c.12,.13,.28,.2,.47,.2s.35-.07,.47-.2c.12-.13,.19-.32,.19-.56s-.06-.43-.19-.56Z"/>
        <path class="cls-7" d="M124.93,29.2c.29,.35,.44,.82,.44,1.42v2.63h-1.78v-2.41c0-.21-.06-.38-.17-.51-.12-.13-.27-.19-.46-.19s-.35,.06-.47,.19c-.11,.13-.17,.3-.17,.51v2.41h-1.79v-5.95h1.79v2.11c.14-.21,.33-.39,.56-.52,.23-.13,.51-.2,.83-.2,.52,0,.93,.17,1.22,.52Z"/>
        <path class="cls-7" d="M132.28,27.55v3.68c0,.68-.18,1.2-.54,1.55-.36,.35-.86,.53-1.5,.53-.69,0-1.24-.19-1.65-.57-.41-.38-.61-.94-.61-1.67h1.76c0,.23,.04,.39,.11,.49,.07,.09,.18,.14,.31,.14,.11,0,.19-.04,.25-.1,.06-.07,.09-.19,.09-.36v-3.68h1.78Z"/>
        <path class="cls-7" d="M137.82,31.29h-2.87c.03,.39,.19,.59,.49,.59,.19,0,.33-.09,.42-.27h1.89c-.06,.32-.2,.61-.41,.86-.21,.25-.47,.46-.78,.6-.31,.15-.66,.22-1.03,.22-.45,0-.85-.09-1.2-.28-.35-.19-.62-.46-.82-.81-.2-.35-.29-.76-.29-1.23s.1-.88,.29-1.23c.2-.35,.47-.62,.82-.81,.35-.19,.75-.28,1.2-.28s.85,.09,1.2,.28c.35,.19,.62,.45,.82,.79,.2,.34,.29,.75,.29,1.21,0,.12,0,.24-.02,.35Zm-1.79-.78c0-.15-.05-.26-.14-.34-.1-.08-.22-.12-.36-.12-.32,0-.5,.15-.55,.46h1.06Z"/>
        <path class="cls-7" d="M141.21,28.84c.21,.12,.38,.29,.49,.49v-.62h1.78v4.46c0,.42-.08,.81-.23,1.16s-.41,.63-.75,.84c-.35,.21-.79,.31-1.33,.31-.73,0-1.31-.17-1.73-.51-.43-.34-.67-.8-.73-1.39h1.75c.05,.24,.24,.35,.58,.35,.21,0,.37-.05,.49-.16,.12-.11,.18-.31,.18-.6v-.54c-.11,.21-.28,.37-.49,.49-.21,.12-.47,.18-.76,.18-.35,0-.67-.09-.96-.28s-.51-.45-.67-.8c-.16-.35-.25-.77-.25-1.24s.08-.89,.25-1.24c.16-.35,.39-.62,.67-.8s.6-.28,.96-.28c.29,0,.55,.06,.76,.18Zm.31,1.58c-.12-.13-.28-.2-.47-.2s-.35,.07-.47,.2c-.12,.13-.18,.32-.18,.56s.06,.43,.18,.56c.12,.13,.28,.2,.47,.2s.35-.07,.47-.2c.12-.13,.19-.32,.19-.56s-.06-.43-.19-.56Z"/>
        <path class="cls-7" d="M144.69,29.74c.16-.35,.39-.62,.67-.8s.6-.28,.96-.28c.29,0,.55,.06,.76,.18,.21,.12,.38,.29,.49,.49v-.62h1.78v4.54h-1.78v-.62c-.11,.21-.28,.37-.49,.49-.21,.12-.47,.18-.76,.18-.35,0-.67-.09-.96-.28s-.51-.45-.67-.8c-.16-.35-.25-.77-.25-1.24s.08-.89,.25-1.24Zm2.7,.68c-.12-.13-.28-.2-.47-.2s-.35,.07-.47,.2c-.12,.13-.18,.32-.18,.56s.06,.43,.18,.56c.12,.13,.28,.2,.47,.2s.35-.07,.47-.2c.12-.13,.19-.32,.19-.56s-.06-.43-.19-.56Z"/>
      </g>
    </g>
  </g>
  <g>
    <path class="cls-7" d="M13.36,214.77c.36-.69,.87-1.22,1.53-1.6,.66-.38,1.44-.57,2.34-.57,.77,0,1.46,.14,2.07,.43,.61,.29,1.1,.7,1.48,1.22s.63,1.14,.76,1.85h-2.94c-.13-.29-.32-.52-.57-.68-.25-.16-.53-.25-.85-.25-.47,0-.84,.18-1.11,.53s-.41,.83-.41,1.42,.14,1.07,.41,1.42,.64,.53,1.11,.53c.32,0,.6-.08,.85-.25,.25-.16,.44-.39,.57-.68h2.94c-.13,.7-.38,1.32-.76,1.85-.38,.53-.88,.94-1.48,1.22-.61,.29-1.3,.43-2.07,.43-.9,0-1.68-.19-2.34-.57-.66-.38-1.17-.92-1.53-1.6-.36-.69-.53-1.47-.53-2.35s.18-1.66,.53-2.35Z"/>
    <path class="cls-7" d="M23.17,216.09c.26-.55,.61-.97,1.05-1.26,.45-.29,.94-.43,1.5-.43,.46,0,.86,.09,1.19,.28,.33,.19,.59,.45,.77,.77v-.97h2.78v7.08h-2.78v-.97c-.18,.33-.43,.58-.77,.77-.34,.19-.73,.28-1.19,.28-.55,0-1.05-.14-1.5-.43-.44-.29-.79-.71-1.05-1.26-.25-.55-.38-1.2-.38-1.94s.13-1.39,.38-1.94Zm4.21,1.06c-.19-.21-.44-.31-.74-.31s-.55,.11-.74,.31-.29,.5-.29,.88,.1,.67,.29,.88c.19,.21,.44,.31,.74,.31s.55-.1,.74-.31c.19-.21,.29-.5,.29-.88s-.1-.67-.29-.88Z"/>
    <path class="cls-7" d="M36.16,214.81c.41-.25,.84-.37,1.28-.37v2.98h-.79c-.53,0-.92,.09-1.16,.28s-.37,.51-.37,.98v2.9h-2.79v-7.08h2.79v1.31c.29-.41,.63-.74,1.04-.99Z"/>
    <path class="cls-7" d="M39.06,213.54c-.29-.26-.44-.59-.44-.98s.15-.74,.44-1,.68-.4,1.17-.4,.86,.13,1.16,.4,.44,.6,.44,1-.15,.72-.44,.98-.68,.39-1.16,.39-.88-.13-1.17-.39Zm2.55,.95v7.08h-2.79v-7.08h2.79Z"/>
    <path class="cls-7" d="M49.05,212.28v9.29h-2.79v-9.29h2.79Z"/>
    <path class="cls-7" d="M57.75,218.52h-4.48c.04,.61,.3,.92,.77,.92,.3,0,.52-.14,.65-.42h2.95c-.1,.5-.31,.95-.63,1.35s-.73,.71-1.22,.94c-.49,.23-1.03,.35-1.62,.35-.7,0-1.33-.15-1.88-.44s-.97-.71-1.28-1.26c-.3-.55-.46-1.19-.46-1.93s.15-1.38,.46-1.93c.31-.55,.73-.97,1.28-1.26,.55-.29,1.17-.44,1.88-.44s1.33,.14,1.88,.43c.55,.29,.97,.7,1.28,1.24,.3,.54,.46,1.17,.46,1.9,0,.19-.01,.38-.04,.55Zm-2.79-1.22c0-.23-.07-.41-.22-.53-.15-.12-.34-.18-.57-.18-.49,0-.78,.24-.87,.72h1.66Z"/>
    <path class="cls-7" d="M62.84,214.69c.33-.19,.73-.28,1.19-.28,.55,0,1.05,.14,1.49,.43s.79,.71,1.05,1.26c.26,.55,.38,1.2,.38,1.94s-.13,1.39-.38,1.94c-.26,.55-.61,.97-1.05,1.26-.44,.29-.94,.43-1.49,.43-.46,0-.86-.09-1.19-.28-.33-.19-.58-.45-.76-.77v.97h-2.79v-9.29h2.79v3.18c.18-.33,.43-.58,.76-.77Zm1,2.47c-.19-.21-.44-.31-.74-.31s-.55,.11-.74,.31c-.19,.21-.29,.5-.29,.88s.1,.67,.29,.88c.19,.21,.44,.31,.74,.31s.55-.1,.74-.31c.19-.21,.29-.5,.29-.88s-.1-.67-.29-.88Z"/>
    <path class="cls-7" d="M68.7,213.54c-.29-.26-.44-.59-.44-.98s.15-.74,.44-1,.68-.4,1.17-.4,.86,.13,1.16,.4c.29,.26,.44,.6,.44,1s-.15,.72-.44,.98c-.29,.26-.68,.39-1.16,.39s-.88-.13-1.17-.39Zm2.55,.95v7.08h-2.79v-7.08h2.79Z"/>
    <path class="cls-7" d="M80,215.26c.46,.54,.68,1.28,.68,2.21v4.11h-2.78v-3.75c0-.33-.09-.6-.27-.8-.18-.2-.42-.29-.72-.29s-.55,.1-.73,.29-.26,.46-.26,.8v3.75h-2.79v-9.29h2.79v3.29c.22-.33,.51-.61,.87-.82,.36-.21,.8-.31,1.3-.31,.81,0,1.45,.27,1.9,.82Z"/>
    <path class="cls-7" d="M96.84,215.26c.5,.54,.75,1.28,.75,2.21v4.11h-2.78v-3.75c0-.3-.09-.54-.27-.71s-.42-.26-.72-.26-.55,.09-.73,.26-.26,.41-.26,.71v3.75h-2.78v-3.75c0-.3-.09-.54-.27-.71-.18-.17-.42-.26-.72-.26s-.55,.09-.73,.26-.26,.41-.26,.71v3.75h-2.79v-7.08h2.79v.96c.2-.3,.47-.54,.82-.73s.76-.28,1.22-.28c.51,0,.96,.11,1.36,.33,.39,.22,.71,.53,.94,.94,.26-.37,.59-.67,.99-.91,.4-.24,.85-.36,1.33-.36,.9,0,1.61,.27,2.11,.82Z"/>
    <path class="cls-7" d="M99.43,216.09c.26-.55,.61-.97,1.05-1.26s.94-.43,1.49-.43c.46,0,.86,.09,1.19,.28s.59,.45,.77,.77v-.97h2.78v7.08h-2.78v-.97c-.18,.33-.43,.58-.77,.77s-.73,.28-1.19,.28c-.55,0-1.05-.14-1.49-.43-.44-.29-.79-.71-1.05-1.26-.26-.55-.38-1.2-.38-1.94s.13-1.39,.38-1.94Zm4.21,1.06c-.19-.21-.44-.31-.74-.31s-.55,.11-.74,.31c-.19,.21-.29,.5-.29,.88s.1,.67,.29,.88c.19,.21,.44,.31,.74,.31s.55-.1,.74-.31c.19-.21,.29-.5,.29-.88s-.1-.67-.29-.88Z"/>
    <path class="cls-7" d="M113.13,221.58l-1.75-2.83v2.83h-2.79v-9.29h2.79v4.86l1.77-2.65h3.24l-2.65,3.57,2.71,3.52h-3.33Z"/>
    <path class="cls-7" d="M120.5,212.28v9.29h-2.79v-9.29h2.79Z"/>
    <path class="cls-7" d="M129.88,214.49v7.08h-2.79v-1.08c-.22,.33-.51,.61-.87,.82-.36,.21-.8,.31-1.3,.31-.81,0-1.45-.27-1.9-.82-.46-.54-.69-1.28-.69-2.21v-4.11h2.78v3.76c0,.33,.09,.6,.27,.8,.18,.2,.42,.29,.72,.29s.55-.1,.73-.29c.18-.2,.26-.46,.26-.8v-3.76h2.79Z"/>
    <path class="cls-7" d="M143.33,215.26c.5,.54,.75,1.28,.75,2.21v4.11h-2.78v-3.75c0-.3-.09-.54-.27-.71s-.42-.26-.72-.26-.55,.09-.73,.26-.26,.41-.26,.71v3.75h-2.78v-3.75c0-.3-.09-.54-.27-.71-.18-.17-.42-.26-.72-.26s-.55,.09-.73,.26-.26,.41-.26,.71v3.75h-2.79v-7.08h2.79v.96c.2-.3,.47-.54,.82-.73s.76-.28,1.22-.28c.51,0,.96,.11,1.36,.33,.39,.22,.71,.53,.94,.94,.26-.37,.59-.67,.99-.91,.4-.24,.85-.36,1.33-.36,.9,0,1.61,.27,2.11,.82Z"/>
    <path class="cls-7" d="M145.91,216.09c.26-.55,.61-.97,1.05-1.26,.45-.29,.94-.43,1.5-.43,.46,0,.86,.09,1.19,.28,.33,.19,.59,.45,.77,.77v-.97h2.78v7.08h-2.78v-.97c-.18,.33-.43,.58-.77,.77-.34,.19-.73,.28-1.19,.28-.55,0-1.05-.14-1.5-.43-.44-.29-.79-.71-1.05-1.26-.25-.55-.38-1.2-.38-1.94s.13-1.39,.38-1.94Zm4.21,1.06c-.19-.21-.44-.31-.74-.31s-.55,.11-.74,.31-.29,.5-.29,.88,.1,.67,.29,.88c.19,.21,.44,.31,.74,.31s.55-.1,.74-.31c.19-.21,.29-.5,.29-.88s-.1-.67-.29-.88Z"/>
    <path class="cls-7" d="M159.48,219.2v2.37h-1.05c-1.94,0-2.91-.97-2.91-2.9v-1.86h-.88v-2.32h.88v-1.71h2.79v1.71h1.16v2.32h-1.16v1.91c0,.17,.04,.29,.12,.36,.08,.08,.21,.11,.4,.11h.66Z"/>
    <path class="cls-7" d="M19.08,234.27v2.37h-1.05c-1.94,0-2.91-.97-2.91-2.9v-1.86h-.88v-2.32h.88v-1.71h2.79v1.71h1.16v2.32h-1.16v1.91c0,.17,.04,.29,.12,.36,.08,.08,.21,.11,.4,.11h.66Z"/>
    <path class="cls-7" d="M27.6,233.6h-4.48c.04,.61,.3,.92,.77,.92,.3,0,.52-.14,.65-.42h2.95c-.1,.5-.31,.95-.63,1.35s-.73,.71-1.22,.94c-.49,.23-1.03,.35-1.62,.35-.7,0-1.33-.15-1.88-.44s-.97-.71-1.28-1.26c-.3-.55-.46-1.19-.46-1.93s.15-1.38,.46-1.93c.31-.55,.73-.97,1.28-1.26,.55-.29,1.17-.44,1.88-.44s1.33,.14,1.88,.43c.55,.29,.97,.7,1.28,1.24,.3,.54,.46,1.17,.46,1.9,0,.19-.01,.38-.04,.55Zm-2.79-1.22c0-.23-.07-.41-.22-.53-.15-.12-.34-.18-.57-.18-.49,0-.78,.24-.87,.72h1.66Z"/>
    <path class="cls-7" d="M36.01,230.33c.46,.54,.68,1.28,.68,2.21v4.11h-2.78v-3.75c0-.33-.09-.6-.27-.8-.18-.2-.42-.29-.72-.29s-.55,.1-.73,.29-.26,.46-.26,.8v3.75h-2.79v-7.08h2.79v1.08c.22-.33,.51-.61,.87-.82,.36-.21,.8-.31,1.3-.31,.81,0,1.45,.27,1.9,.82Z"/>
    <path class="cls-7" d="M42.93,234.27v2.37h-1.05c-1.94,0-2.91-.97-2.91-2.9v-1.86h-.88v-2.32h.88v-1.71h2.79v1.71h1.16v2.32h-1.16v1.91c0,.17,.04,.29,.12,.36,.08,.08,.21,.11,.39,.11h.67Z"/>
    <path class="cls-7" d="M44.63,231.17c.26-.55,.61-.97,1.05-1.26s.94-.43,1.49-.43c.46,0,.86,.09,1.19,.28s.59,.45,.77,.77v-.97h2.78v7.08h-2.78v-.97c-.18,.33-.43,.58-.77,.77s-.73,.28-1.19,.28c-.55,0-1.05-.14-1.49-.43-.44-.29-.79-.71-1.05-1.26-.26-.55-.38-1.2-.38-1.94s.13-1.39,.38-1.94Zm4.21,1.06c-.19-.21-.44-.31-.74-.31s-.55,.11-.74,.31c-.19,.21-.29,.5-.29,.88s.1,.67,.29,.88c.19,.21,.44,.31,.74,.31s.55-.1,.74-.31c.19-.21,.29-.5,.29-.88s-.1-.67-.29-.88Z"/>
    <path class="cls-7" d="M60.66,230.33c.46,.54,.68,1.28,.68,2.21v4.11h-2.78v-3.75c0-.33-.09-.6-.27-.8-.18-.2-.42-.29-.72-.29s-.55,.1-.73,.29-.26,.46-.26,.8v3.75h-2.79v-7.08h2.79v1.08c.22-.33,.51-.61,.87-.82,.36-.21,.8-.31,1.3-.31,.81,0,1.45,.27,1.9,.82Z"/>
    <path class="cls-7" d="M66.92,229.76c.33,.19,.59,.45,.77,.77v-.97h2.78v6.96c0,.66-.12,1.26-.36,1.81-.24,.54-.63,.98-1.17,1.31-.54,.33-1.23,.49-2.08,.49-1.14,0-2.04-.27-2.71-.8-.67-.53-1.04-1.25-1.14-2.17h2.74c.07,.37,.38,.55,.9,.55,.33,0,.58-.08,.77-.25,.18-.17,.28-.48,.28-.94v-.84c-.18,.33-.43,.58-.77,.77s-.73,.28-1.19,.28c-.55,0-1.05-.14-1.49-.43-.44-.29-.79-.71-1.05-1.26-.26-.55-.38-1.2-.38-1.94s.13-1.39,.38-1.94c.26-.55,.61-.97,1.05-1.26s.94-.43,1.49-.43c.46,0,.86,.09,1.19,.28Zm.48,2.47c-.19-.21-.44-.31-.74-.31s-.55,.11-.74,.31c-.19,.21-.29,.5-.29,.88s.1,.67,.29,.88c.19,.21,.44,.31,.74,.31s.55-.1,.74-.31c.19-.21,.29-.5,.29-.88s-.1-.67-.29-.88Z"/>
    <path class="cls-7" d="M75.19,231.18c.31-.55,.73-.97,1.28-1.26,.55-.29,1.17-.44,1.88-.44,.92,0,1.7,.26,2.33,.78,.63,.52,1.03,1.24,1.2,2.16h-2.95c-.11-.37-.32-.55-.64-.55-.23,0-.4,.1-.53,.31-.13,.21-.2,.52-.2,.93s.06,.72,.2,.93c.13,.21,.31,.31,.53,.31,.32,0,.53-.18,.64-.55h2.95c-.17,.92-.57,1.64-1.2,2.16-.63,.52-1.41,.78-2.33,.78-.7,0-1.33-.15-1.88-.44s-.97-.71-1.28-1.26c-.3-.55-.46-1.19-.46-1.93s.15-1.38,.46-1.93Z"/>
    <path class="cls-7" d="M83.39,231.17c.26-.55,.61-.97,1.05-1.26,.45-.29,.94-.43,1.5-.43,.46,0,.86,.09,1.19,.28,.33,.19,.59,.45,.77,.77v-.97h2.78v7.08h-2.78v-.97c-.18,.33-.43,.58-.77,.77-.34,.19-.73,.28-1.19,.28-.55,0-1.05-.14-1.5-.43-.44-.29-.79-.71-1.05-1.26-.25-.55-.38-1.2-.38-1.94s.13-1.39,.38-1.94Zm4.21,1.06c-.19-.21-.44-.31-.74-.31s-.55,.11-.74,.31-.29,.5-.29,.88,.1,.67,.29,.88c.19,.21,.44,.31,.74,.31s.55-.1,.74-.31c.19-.21,.29-.5,.29-.88s-.1-.67-.29-.88Z"/>
    <path class="cls-7" d="M95.34,227.35v9.29h-2.79v-9.29h2.79Z"/>
    <path class="cls-7" d="M98.67,236.3c-.57-.29-1.02-.71-1.34-1.26-.32-.55-.48-1.19-.48-1.93s.16-1.38,.48-1.93c.32-.55,.77-.97,1.34-1.26,.57-.29,1.21-.44,1.92-.44s1.35,.15,1.92,.44c.57,.29,1.01,.71,1.34,1.26,.32,.55,.48,1.19,.48,1.93s-.16,1.38-.48,1.93c-.32,.55-.77,.97-1.34,1.26-.57,.29-1.21,.44-1.92,.44s-1.35-.15-1.92-.44Zm2.57-2.28c.18-.21,.26-.51,.26-.91s-.09-.71-.26-.91-.39-.31-.65-.31-.48,.1-.65,.31-.26,.51-.26,.91,.09,.71,.26,.91,.39,.31,.66,.31,.48-.1,.65-.31Z"/>
    <path class="cls-7" d="M112.7,230.33c.46,.54,.69,1.28,.69,2.21v4.11h-2.78v-3.75c0-.33-.09-.6-.27-.8s-.42-.29-.72-.29-.55,.1-.73,.29-.26,.46-.26,.8v3.75h-2.79v-7.08h2.79v1.08c.22-.33,.51-.61,.87-.82,.37-.21,.8-.31,1.3-.31,.81,0,1.45,.27,1.9,.82Z"/>
    <path class="cls-7" d="M120.77,227.35v9.29h-2.79v-9.29h2.79Z"/>
    <path class="cls-7" d="M122.66,231.17c.26-.55,.61-.97,1.05-1.26,.45-.29,.94-.43,1.5-.43,.46,0,.86,.09,1.19,.28,.33,.19,.59,.45,.77,.77v-.97h2.78v7.08h-2.78v-.97c-.18,.33-.43,.58-.77,.77-.34,.19-.73,.28-1.19,.28-.55,0-1.05-.14-1.5-.43-.44-.29-.79-.71-1.05-1.26-.25-.55-.38-1.2-.38-1.94s.13-1.39,.38-1.94Zm4.21,1.06c-.19-.21-.44-.31-.74-.31s-.55,.11-.74,.31-.29,.5-.29,.88,.1,.67,.29,.88c.19,.21,.44,.31,.74,.31s.55-.1,.74-.31c.19-.21,.29-.5,.29-.88s-.1-.67-.29-.88Z"/>
    <path class="cls-7" d="M142.58,229.56l-1.68,7.08h-3.14l-.85-3.99-.9,3.99h-3.14l-1.67-7.08h2.76l.59,4.31,.92-4.31h2.98l.97,4.36,.6-4.36h2.57Z"/>
    <path class="cls-7" d="M143.8,231.17c.26-.55,.61-.97,1.05-1.26s.94-.43,1.49-.43c.46,0,.86,.09,1.19,.28s.59,.45,.77,.77v-.97h2.78v7.08h-2.78v-.97c-.18,.33-.43,.58-.77,.77s-.73,.28-1.19,.28c-.55,0-1.05-.14-1.49-.43-.44-.29-.79-.71-1.05-1.26-.26-.55-.38-1.2-.38-1.94s.13-1.39,.38-1.94Zm4.21,1.06c-.19-.21-.44-.31-.74-.31s-.55,.11-.74,.31c-.19,.21-.29,.5-.29,.88s.1,.67,.29,.88c.19,.21,.44,.31,.74,.31s.55-.1,.74-.31c.19-.21,.29-.5,.29-.88s-.1-.67-.29-.88Z"/>
    <path class="cls-7" d="M159.83,230.33c.46,.54,.69,1.28,.69,2.21v4.11h-2.78v-3.75c0-.33-.09-.6-.27-.8s-.42-.29-.72-.29-.55,.1-.73,.29-.26,.46-.26,.8v3.75h-2.79v-7.08h2.79v1.08c.22-.33,.51-.61,.87-.82,.37-.21,.8-.31,1.3-.31,.81,0,1.45,.27,1.9,.82Z"/>
  </g>
</svg>