<?xml version="1.0" encoding="UTF-8"?>
<svg id="Layer_2" data-name="Layer 2" xmlns="http://www.w3.org/2000/svg" xmlns:xlink="http://www.w3.org/1999/xlink" viewBox="0 0 173.34 246.49">
  <defs>
    <style>
      .cls-1, .cls-2, .cls-3, .cls-4, .cls-5, .cls-6 {
        fill: none;
      }

      .cls-1, .cls-3, .cls-6 {
        stroke: #fff;
      }

      .cls-1, .cls-4 {
        stroke-linecap: square;
      }

      .cls-1, .cls-4, .cls-6 {
        stroke-linejoin: round;
      }

      .cls-1, .cls-6 {
        stroke-width: .26px;
      }

      .cls-7 {
        fill: #fff;
      }

      .cls-2 {
        stroke: #d46cff;
        stroke-width: .52px;
      }

      .cls-2, .cls-3 {
        stroke-miterlimit: 10;
      }

      .cls-8 {
        fill: #363636;
      }

      .cls-3 {
        stroke-width: 2.33px;
      }

      .cls-9 {
        fill: #eeb2ff;
      }

      .cls-10 {
        fill: #fac300;
      }

      .cls-11 {
        fill: #f7f2dc;
      }

      .cls-12 {
        fill: #fce9ca;
      }

      .cls-13 {
        fill: #ab7a5a;
      }

      .cls-14 {
        fill: #e64c00;
      }

      .cls-4 {
        stroke: #363636;
        stroke-width: .53px;
      }

      .cls-15 {
        clip-path: url(#clippath);
      }

      .cls-16 {
        fill: #9e6647;
      }

      .cls-17 {
        fill: #b72c2c;
      }

      .cls-6 {
        stroke-linecap: round;
      }

      .cls-18 {
        fill: #f7a22d;
      }
    </style>
    <clipPath id="clippath">
      <rect class="cls-5" x="6.41" y="7.17" width="160.53" height="198.84" rx="14.3" ry="14.3"/>
    </clipPath>
  </defs>
  <rect class="cls-18" width="173.34" height="246.49" rx="13.2" ry="13.2"/>
  <rect class="cls-12" x="6.41" y="7.17" width="160.53" height="198.84" rx="14.3" ry="14.3"/>
  <g class="cls-15">
    <g>
      <path class="cls-18" d="M112.79,157.17c4.29,3.61,8.59,7.22,12.88,10.84-1.16-4.7-2.32-9.39-3.48-14.09,2.57-.38,5.15-.76,7.72-1.15,.37-13.82,.73-27.64,1.1-41.46-32.53-.05-65.06-.11-97.59-.16,1.32,18.07,2.64,36.15,3.96,54.22,25.14-2.73,50.27-5.47,75.41-8.2Z"/>
      <rect class="cls-14" x="22.33" y="17.64" width="135.44" height="25.88" rx="12.94" ry="12.94"/>
      <g>
        <circle class="cls-3" cx="34.73" cy="29.67" r="4.88"/>
        <line class="cls-3" x1="38.31" y1="32.98" x2="42.92" y2="37.85"/>
      </g>
      <path class="cls-18" d="M117.99,71.75c-2.25,2.06-4.51,4.11-6.76,6.17,.07,3.92,.14,7.83,.22,11.75-14.29,1.2-28.57,2.39-42.86,3.59-1.6-10.88-3.21-21.75-4.81-32.63,15.84-.31,31.69-.61,47.53-.92,.19,3.9,.39,7.81,.58,11.71,2.03,.11,4.07,.22,6.1,.33Z"/>
      <path class="cls-7" d="M11.26,171.17c3.31-3.02,6.62-6.04,9.93-9.06-.11-5.75-.21-11.5-.32-17.25,20.98-1.76,41.97-3.52,62.95-5.27,2.35,15.97,4.71,31.95,7.06,47.92-23.27,.45-46.54,.9-69.81,1.35-.28-5.73-.57-11.47-.85-17.2-2.99-.16-5.97-.32-8.96-.48Z"/>
      <path class="cls-7" d="M64,119.87c4.29,3.61,8.59,7.22,12.88,10.84-1.16-4.7-2.32-9.39-3.48-14.09,2.57-.38,5.15-.76,7.72-1.15,.37-13.82,.73-27.64,1.1-41.46-32.53-.05-65.06-.11-97.59-.16,1.32,18.07,2.64,36.15,3.96,54.22,25.14-2.73,50.27-5.47,75.41-8.2Z"/>
      <g>
        <circle class="cls-10" cx="134.05" cy="117.11" r="37.62"/>
        <path class="cls-14" d="M134.14,158.47c-1.69,0-3.39-.1-5.09-.31-10.96-1.34-20.75-6.87-27.56-15.56-6.81-8.7-9.82-19.53-8.48-30.49,2.76-22.64,23.43-38.8,46.06-36.04,10.96,1.34,20.75,6.87,27.56,15.56s9.82,19.53,8.48,30.49c-1.34,10.96-6.87,20.75-15.56,27.56-7.35,5.75-16.22,8.79-25.4,8.79Zm-.11-75.25c-16.87,0-31.52,12.62-33.61,29.79-1.1,8.99,1.37,17.86,6.95,24.99,5.58,7.13,13.6,11.66,22.58,12.75,8.99,1.09,17.86-1.37,24.99-6.95,7.13-5.58,11.66-13.6,12.75-22.58h0c2.26-18.55-10.99-35.48-29.53-37.74-1.39-.17-2.76-.25-4.13-.25Z"/>
        <rect class="cls-14" x="167.75" y="155.77" width="17.97" height="59.17" transform="translate(-70.91 120.06) rotate(-31.59)"/>
        <rect class="cls-14" x="157.12" y="147.11" width="7.73" height="25.46" transform="translate(-59.88 108.02) rotate(-31.59)"/>
        <path class="cls-7" d="M150.67,95.3c13.16,8.57,15.82,25.7,6.3,38.1-2.89,3.83-6.7,6.92-10.98,9,3.83-2.7,7.2-5.97,9.79-9.85,8.41-12.43,6.02-27.34-5.12-37.25h0Z"/>
      </g>
      <g>
        <polygon class="cls-13" points="29.87 70.99 66.2 73.65 66.81 109.37 23.92 106.14 29.87 70.99"/>
        <g>
          <polygon class="cls-16" points="66.45 88.13 72.94 87.3 72.28 97.34 66.6 96.84 66.45 88.13"/>
          <path class="cls-1" d="M66.54,93.57s1.02-1.79,2.1-2.67c1.08-.88,2.54-1.33,2.54-1.33"/>
        </g>
        <g>
          <polygon class="cls-16" points="27.5 85.11 21.25 83.16 20.14 93.16 26.03 93.68 27.5 85.11"/>
          <path class="cls-1" d="M26.45,90.45s-.7-1.94-1.6-3-2.27-1.75-2.27-1.75"/>
        </g>
        <path class="cls-8" d="M66.45,88.13l4.6-.59,3.18-20.47s-33.49-9.28-34.8-9.85-2.49-1.29-3.38-1.77c-.89-.48-2.83-1.83-2.83-1.83l2.18,5.03-11.74,8.44,.6,17.01,3.23,1.01,2.38-14.11,36.33,2.66,.24,14.48Z"/>
        <polygon class="cls-8" points="62.45 84.23 63.33 81.51 56.25 80.89 55.07 82.49 62.45 84.23"/>
        <polygon class="cls-8" points="30.88 80.42 30.67 77.58 37.69 78.64 38.47 80.47 30.88 80.42"/>
        <polygon class="cls-6" points="42.46 81.92 47.67 82.37 46.58 94.75 37.69 94.35 39.12 89.87 41.73 89.62 42.46 81.92"/>
        <path class="cls-4" d="M30.52,88.19s1.14-1.88,3.46-1.49c2.32,.39,2.97,2.06,2.97,2.06"/>
        <path class="cls-4" d="M54.88,90.34s1.14-1.88,3.46-1.49,2.97,2.06,2.97,2.06"/>
        <polygon class="cls-8" points="24.94 98.04 28.41 103.37 61.23 106.07 66.82 99.72 67.26 109.77 49.71 108.77 49.53 110.8 41.93 110.13 41.22 108.14 23.55 106.35 24.94 98.04"/>
        <path class="cls-17" d="M42.35,99.58l5.01-.06s-.33,2.28-2.44,2.2c-2.11-.08-2.57-2.14-2.57-2.14Z"/>
        <path class="cls-6" d="M66.43,94.77s-4.32-2.46-8.82,1.33c-4.5,3.79-2.74,9.45-2.74,9.45"/>
        <path class="cls-6" d="M26.32,91.93s3.68,1.28,5.96,4.25,1.72,7.65,1.72,7.65"/>
        <polygon class="cls-8" points="32.44 96.48 39.82 92.67 44.57 93.94 49.93 93.17 56.06 98.57 45.78 98.41 44.34 96.53 42.51 98.3 32.44 96.48"/>
      </g>
      <g>
        <path class="cls-9" d="M81.06,162.78s-8.82,9.65-19.43,13.87c-10.6,4.22-26.74,3.94-26.74,3.94l-5.05-15.61s8.45-.43,17.7-4.8c5.96-2.82,14.58-14.36,14.58-14.36l18.94,16.96Z"/>
        <path class="cls-11" d="M51.3,164.59c4.65-1.63,8.69-3.04,9.7-1.68,1.1,1.49-1.38,6.35-5.37,8.2-5.1,2.38-11.88-.54-11.94-2.51-.04-1.34,3.02-2.41,7.61-4.02Z"/>
        <path class="cls-2" d="M75.93,162.65l-13.52-12.7s-9,10.31-13.14,11.98c-4.15,1.68-17.13,4.7-17.13,4.7l4.6,11.65s11.7-.77,20.73-3.49c9.03-2.71,18.47-12.15,18.47-12.15Z"/>
      </g>
      <g>
        <path class="cls-7" d="M65.3,36.45l-1.81,1.81-1.81-1.81-1.79,1.81-1.81-1.81-1.81,1.81-1.81-1.81-1.81,1.81-1.81-1.81,1.81-1.81,1.81,1.79,1.81-1.79,1.81,1.79,1.81-1.79,1.79,1.79,1.81-1.79,1.81,1.81Zm-8.81-8.6h-4.86l-.56-.32,.33-1.92,.44,.26h4.65v-1.72h3.19v1.72h4.65l.44-.26,.33,1.92-.56,.32h-4.86v6.38h-3.19v-6.38Zm-2.43,6.75l-2.84-.74,1.49-5.71,2.84,.74-1.49,5.71Zm6.55-5.71l2.84-.74,1.49,5.71-2.84,.74-1.49-5.71Z"/>
        <path class="cls-7" d="M74.28,25.28v12.61h-3.39l-.55-.32,.33-1.9,.44,.26h.12v-8.68h-.58c-.19,3.71-.41,7.29-.64,10.76l-2.87-.18c.26-4.05,.47-7.58,.61-10.58h-.43l-.55-.32,.33-1.92,.44,.26h.3l.04-1.12,2.89,.14-.04,.99h3.52Zm6.49-.59v13.07h-5.82v-10.64h2.55v8.66h.71v-9.13h-3.04l-.55-.32,.33-1.9,.44,.26h5.36Z"/>
        <path class="cls-7" d="M85.16,28.13l-1.61,.62-.73-1.92c2.41-.91,4.71-1.84,6.91-2.78l.39-.18,.41,.18c2.2,.94,4.5,1.87,6.91,2.78l-.73,1.92-1.2-.46-1.35,2.89-2.86-.42,.41-.82h-6.34l-.5-.29,.27-1.52Zm6.56,5.32v1.76l5.39,1.09-.44,1.85-6.53-1.31-6.53,1.31-.46-1.85,5.38-1.09v-1.76h3.19Zm4.36,1.88h-3.04v-2.26h-8.54l-.5-.29,.3-1.7,.4,.23h11.38v4.03Zm-11.91,.01v-2h3.04v2h-3.04Zm1.2-7.29l.21,.12h3.1v-1.08h2.89v1.08h3.65c-1.85-.72-3.55-1.41-5.09-2.07-1.8,.77-3.39,1.42-4.75,1.94Z"/>
        <path class="cls-7" d="M99,26.19l1.98-1.97,1.97,1.97-1.97,1.98-1.98-1.98Zm0,4.18l1.98-1.98,1.97,1.98-1.97,1.99-1.98-1.99Zm.02,7.38l.65-5.17,2.83,.33-.64,5.17-2.84-.33Zm13.81-7.57h-5.08l-.12,1.55h5.14v6.11h-5.91l-.56-.33,.35-1.9,.44,.26h2.34v-2.16h-5.23l.26-3.53h-.79l-.56-.32,.35-1.92,.44,.26h8.72l.44-.26,.33,1.92-.56,.32Zm-.55-3.72h-8.14l-.55-.32,.33-1.9,.44,.26h7.69l.44-.26,.33,1.9-.55,.32Z"/>
        <path class="cls-7" d="M119.7,28.32h-.59v3.19h.38l.44-.26,.33,1.92-.56,.32h-.59v4.42h-3.4l-.56-.32,.33-1.92,.44,.26h.15v-2.45h-.87v-1.98h.87v-3.19h-.52l-.56-.32,.33-1.92,.44,.26h.3v-1.98h3.04v1.98h.38l.44-.26,.33,1.92-.56,.32Zm9,2.35v6.82l-.53,.32h-7.58v-4.85h3.04v2.95h2.04v-.73h-1.64v-1.88h1.64v-.73h-4.69l-.53-.32,.32-1.82,.43,.24h7.52Zm-8.04-.87v-5.56h3.19v.79h4.21l.44-.26,.33,1.92-.56,.32h-4.42v.83h4.39l.44-.26,.33,1.9-.56,.32h-7.79Z"/>
        <path class="cls-7" d="M135.01,31.43l.44-.26,.33,1.91-.55,.32h-.41v4.47h-3.18l-.56-.33,.33-1.9,.44,.26v-2.49h-.71v-1.98h.71v-3.19h-.36l-.56-.32,.33-1.91,.44,.26h.15v-1.93h2.96v1.93h.18l.44-.26,.33,1.91-.55,.32h-.41v3.19h.18Zm1.46-.41l-.73-1.94,3.86-1.44,.73,1.95-3.86,1.44Zm7.82,4.85l.44-.26,.33,1.91-.55,.32h-8.01l-.56-.32,.33-1.91,.46,.26h1.78v-2.34h-1.75l-.56-.32,.33-1.92,.44,.26h7.05l.44-.26,.33,1.92-.55,.32h-2.4v2.34h2.43Zm-5.03-8.93v.61h-3.19v-2.58h2.74v-.7h3.34v.7h2.75v2.26l-.56,.32h-2.63v-.61h-2.45Zm1.34,2.64l.73-1.95,3.86,1.44-.73,1.94-3.86-1.44Z"/>
      </g>
    </g>
  </g>
  <g>
    <path class="cls-7" d="M39.7,219.2l-.53,.3h-.37v4.14h-3.02l-.53-.3,.31-1.79,.41,.24h.04v-2.29h-.71v-1.85h.71v-2.99h-.38l-.53-.3,.31-1.79,.41,.24h.18v-1.85h2.78v1.85h.17l.41-.24,.31,1.79-.53,.3h-.37v2.99h.17l.41-.24,.31,1.79Zm7.9,4.62c-1.28-.29-2.47-.65-3.57-1.07-.97,.5-2.04,.9-3.21,1.18l-1.14-1.72c.61-.16,1.23-.36,1.86-.58-.6-.3-1.13-.6-1.59-.88l1.25-.94h-.85l-.48-.28,.3-1.65,.38,.23h2.29v-.53h-2.89v-4.34h2.12v.24h.53v1.78h-.53v.47h.77v-4.87h2.29v4.87h.77v-.47h-.51v-1.78h.51v-.46h-.14l-.47-.28,.28-1.64,.38,.21h2.06v5.96l-.54,.3h-2.35v.53h2.97c-.12,1.15-.8,2.25-2.02,3.3,.62,.17,1.45,.36,2.49,.55l-.97,1.86Zm-5.02-10.8h-2.33l-.48-.28,.3-1.64,.37,.21h2.15v1.71Zm-.44,6.79c.46,.27,1,.53,1.61,.8,.43-.27,.77-.53,1.04-.8h-2.65Z"/>
    <path class="cls-7" d="M63.34,220.09l-.53,.3h-.91v3.33h-5.2l-.51-.3,.31-1.79,.41,.24h1.85v-1.48h-8.34l-.53-.3,.31-1.78,.41,.24h8.14v-.47h3.13v.47h.71l.41-.24,.31,1.78Zm-12.24-4.2h8.21v-.57h-8.24l-.51-.31,.31-1.78,.41,.24h8.03v-.58h-8.41l-.53-.3,.31-1.78,.41,.23h11.34v6.7h-11.54l-.53-.3,.31-1.79,.41,.24Zm-.03,6.6l.5-1.89,3.91,1.02-.51,1.91-3.9-1.04Z"/>
    <path class="cls-7" d="M72.89,219.17c-.13,.5-.33,.96-.6,1.38l5.76,1.08-.47,1.94-6.9-1.29c-1.04,.82-2.18,1.38-3.4,1.68l-2.23-1.38c.93-.22,1.75-.52,2.45-.9l-2.04-.38,.47-1.94,3.49,.66c.2-.29,.35-.57,.46-.84h-4.15v-3.97h2.85v.24h1.62v-.57h-4.16l-.46-.27,.27-1.54,.37,.2h3.9v-.53h-4.48l-.47-.27,.28-1.59,.37,.21h11.58l.37-.21,.29,1.59-.47,.27h-4.48v.53h4.38v5.61l-.53,.3h-4.07Zm-4.33-2.19v.58h1.62v-.58h-1.62Zm4.47-2.11v.57h1.61v-.57h-1.61Zm0,2.69h1.61v-.58h-1.61v.58Z"/>
    <path class="cls-7" d="M93.15,217.16c-.23,1.95-1.39,3.55-3.5,4.8-2.14,1.27-4.86,1.92-8.14,1.95l-1.32-1.95c1.94-.08,3.61-.29,5.02-.65l-.46-.61,2.19-1.49,.83,1.11c.61-.34,1.15-.77,1.62-1.3h-3.52c-.64,.6-1.45,1.24-2.4,1.94l-2.25-1.14c.95-.67,1.8-1.41,2.55-2.22-.85,.2-1.66,.33-2.4,.4l-1.35-1.92c1.37-.13,2.61-.36,3.73-.67l-.33-.43,2.19-1.49,.73,.97c.81-.41,1.52-.85,2.11-1.34h-3.53c-.81,.79-1.62,1.43-2.43,1.92l-2.28-1.12c1.28-.94,2.43-2.08,3.45-3.42l2.97,.58-.13,.18h6.09c-.2,1.12-.9,2.19-2.09,3.22-1.11,.94-2.51,1.73-4.21,2.38l1.37,.26-.04,.06h5.55Z"/>
    <path class="cls-7" d="M104.21,218.7c.68,1.33,1.99,2.5,3.93,3.53l-2.43,1.79c-1.67-.77-3.05-2.07-4.14-3.9-1.07,1.83-2.45,3.13-4.13,3.9l-2.45-1.79c1.94-1.03,3.25-2.21,3.93-3.53h-3.47l-.53-.3,.31-1.78,.41,.23h3.94c.14-.6,.24-1.28,.3-2.05h-4.16l-.51-.3,.31-1.78,.41,.23h1.15l-.44-1.59,3.02-.65,.67,2.25h2.49l.67-2.25,3.02,.65-.44,1.59h.97l.41-.23,.31,1.78-.51,.3h-4.14c0,.64-.1,1.32-.26,2.05h4.48l.41-.23,.31,1.78-.53,.3h-3.33Z"/>
    <path class="cls-7" d="M123.24,217.81l-.51,.3h-4.58v5.55h-5.21l-.53-.3,.31-1.79,.41,.24h1.88v-3.7h-4.87l-.51-.3,.31-1.78,.41,.24h4.65v-3.39h-4.51l-.51-.3,.31-1.78,.41,.24h11.44l.41-.24,.31,1.78-.51,.3h-4.23v3.39h4.37l.41-.24,.31,1.78Z"/>
    <path class="cls-7" d="M131.22,211.48c-.12,2.81-.73,5.4-1.81,7.79,.48,.7,1.35,1.75,2.59,3.14l-2.05,1.44c-.58-.63-1.19-1.35-1.84-2.18-.51,.79-1.06,1.52-1.65,2.19l-2.06-1.32c.9-1.07,1.64-2.12,2.22-3.13-.05-.08-.11-.19-.18-.34-.87-1.69-1.47-3.27-1.81-4.75l2.28-.63c.29,1.05,.62,2,.98,2.85,.32-.97,.55-2.04,.68-3.2h-3.37l-.53-.3,.31-1.78,.41,.23h5.82Zm6.99,2.8l-.51,.3h-.36v9.07h-4.33l-.53-.3,.31-1.79,.41,.24h1.28v-7.22h-2.73l-.53-.3,.31-1.78,.43,.24h2.52v-1.79h2.85v1.79h.14l.41-.24,.31,1.78Zm-4.57,1.11l.36,5.37-2.08,.13-.36-5.35,2.08-.14Z"/>
    <path class="cls-7" d="M48.41,236.83l-.53,.3h-4.17v3.63h-5.35l-.53-.3,.31-1.78,.41,.23h1.95v-1.78h-4.95l-.53-.3,.31-1.79,.41,.24h4.75v-1.69h-4.65l-.51-.3,.31-1.79,.41,.24h4.44v-1.69h-4.82v-1.85h11.46l.41-.24,.31,1.78-.53,.31h-3.63v1.69h3.66l.41-.24,.31,1.79-.51,.3h-3.87v1.69h3.97l.41-.24,.31,1.79Z"/>
    <path class="cls-7" d="M53.83,228.33c-.29,1.58-.66,3.09-1.11,4.55h.64v7.93h-2.75v-7.06l-.88-.23c.54-1.7,1.02-3.59,1.42-5.66l2.67,.47Zm-.08,10.79v-9.21h2.05v9.21h-2.05Zm9.05-1.62h-1.42l1.91,1.49-1.49,1.92-2.01-1.57c-.46,.64-1.02,1.18-1.65,1.59l-2.28-1.24c.94-.75,1.61-1.48,2.01-2.21h-1.41l-.48-.27,.3-1.68,.38,.23h1.78c.05-.35,.08-.71,.09-1.07h-1.69l-.48-.29v-1.85h2.7v.41h3.37l.38-.23,.3,1.67-.48,.29h-1.37c-.04,.47-.08,.83-.12,1.07h1.48l.38-.23,.29,1.68-.48,.27Zm-.17-5.25h-6.13l-.48-.27,.29-1.68,.4,.23h2.92v-.63h-2.55l-.5-.27,.3-1.68,.38,.23h5.07v2.35h.11l.38-.23,.3,1.68-.48,.27Z"/>
    <path class="cls-7" d="M77.51,238.75l.43-.24,.31,1.79-.53,.3h-11.7l-.51-.3v-6.18h-.2l-.53-.3,.31-1.78,.41,.24h2.99v6.46h9.01Zm-8.82-8.84l-1.82,1.82-1.82-1.82,1.82-1.82,1.82,1.82Zm3.77,2.69v-1.24h-2.92l-.53-.3v-2.96h2.78v1.41h.67v-1.57h3.13v1.57h1.82l.41-.24,.31,1.79-.53,.3h-2.02v1.24h2.02l.41-.23,.31,1.78-.53,.3h-.95v1.82h.5l.41-.24,.31,1.79-.53,.3h-3.69v-3.67h-.78l-.62,3.83-2.89-.29,.56-3.54h-.84l-.53-.3,.31-1.78,.41,.23h2.97Z"/>
    <path class="cls-7" d="M93.64,239.18l-2.41,2.01-4.1-4.97c-1.11,2.14-2.87,3.77-5.28,4.87l-2.32-1.95c2.18-1.16,3.7-2.48,4.54-3.96,.76-1.32,1.14-3.09,1.14-5.31v-1.99h3.27v1.99c0,.99-.08,1.92-.23,2.8l5.38,6.5Z"/>
    <path class="cls-7" d="M99.38,227.98v1.12h1.68v11.17l-.53,.3h-5.27v-9.18h2.55v7.33h.7v-2.9h-.46v-1.85h.46v-3.02h-2.97l-.53-.3,.31-1.79,.43,.24h.85v-1.12h2.78Zm4.97,1.02h3.36v11.71h-5.2l-.51-.3,.31-1.79,.41,.24h1.99v-8.01h-2.83l-.53-.3v-2.63h2.99v1.08Zm-.54,2.73l.47,5.86-2.32,.2-.47-5.86,2.32-.2Z"/>
    <path class="cls-7" d="M113.82,228.29c-.35,1.65-.76,3.18-1.22,4.6h1.01v7.93h-2.99v-7.02l-1.27-.3c.58-1.62,1.1-3.51,1.56-5.66l2.9,.46Zm8.82,2.16h-8.07l-.51-.3,.31-1.79,.41,.24h2.33v-.7h2.99v.7h2.33l.41-.24,.31,1.79-.53,.3Zm-.53,.54l.41-.23,.31,1.78-.51,.3h-7.43l-.53-.3,.31-1.78,.41,.23h7.02Zm0,2.41l.41-.24,.31,1.78-.51,.3h-7.43l-.53-.3,.31-1.78,.41,.24h7.02Zm.6,2.39v4.55l-.53,.3h-7.6v-2.69h2.85v.84h2.42v-1.15h-4.92l-.53-.3,.31-1.79,.41,.24h7.59Z"/>
    <path class="cls-7" d="M124.45,238.49l1.68-1.67,1.67,1.67-1.67,1.68-1.68-1.68Zm9.66-8.38h-8.14l-.47-.26,.28-1.61,.37,.23h3.73v-.67h2.99v.67h4.23v7.83l-.53,.3h-10.91v-6.18h2.99v4.53h5.46v-.51h-5.07v-1.65h5.07v-.51h-5.07v-1.65h5.07v-.51Zm.77,8.87l.38-.21,.29,1.65-.48,.28h-6.89v-3.74h3.13v2.02h3.57Zm-1.82-.14l-1.04-1.04,1.04-1.02,1.02,1.02-1.02,1.04Zm3.73-2.05l1.52,1.52-1.52,1.54-1.52-1.54,1.52-1.52Z"/>
  </g>
</svg>