<?xml version="1.0" encoding="UTF-8"?>
<svg id="Layer_2" data-name="Layer 2" xmlns="http://www.w3.org/2000/svg" xmlns:xlink="http://www.w3.org/1999/xlink" viewBox="0 0 173.34 246.49">
  <defs>
    <style>
      .cls-1 {
        fill: #fff;
      }

      .cls-2 {
        fill: #363636;
      }

      .cls-3 {
        fill: #eeb2ff;
      }

      .cls-4 {
        fill: #fac300;
      }

      .cls-5 {
        fill: #f7f2dc;
      }

      .cls-6 {
        fill: #fce9ca;
      }

      .cls-7 {
        fill: #ab7a5a;
      }

      .cls-8 {
        fill: #e64c00;
      }

      .cls-9 {
        clip-path: url(#clippath);
      }

      .cls-10 {
        fill: none;
      }

      .cls-11 {
        fill: #9e6647;
      }

      .cls-12 {
        fill: #b72c2c;
      }

      .cls-13 {
        fill: #d46cff;
      }

      .cls-14 {
        fill: #f7a22d;
      }
    </style>
    <clipPath id="clippath">
      <rect class="cls-10" x="6.41" y="7.17" width="160.53" height="198.84" rx="14.3" ry="14.3"/>
    </clipPath>
  </defs>
  <rect class="cls-14" width="173.34" height="246.49" rx="13.2" ry="13.2"/>
  <rect class="cls-6" x="6.41" y="7.17" width="160.53" height="198.84" rx="14.3" ry="14.3"/>
  <g class="cls-9">
    <g>
      <path class="cls-14" d="M112.79,157.17c4.29,3.61,8.59,7.22,12.88,10.84-1.16-4.7-2.32-9.39-3.48-14.09,2.57-.38,5.15-.76,7.72-1.15,.37-13.82,.73-27.64,1.1-41.46-32.53-.05-65.06-.11-97.59-.16,1.32,18.07,2.64,36.15,3.96,54.22,25.14-2.73,50.27-5.47,75.41-8.2Z"/>
      <rect class="cls-8" x="22.33" y="17.64" width="135.44" height="25.88" rx="12.94" ry="12.94"/>
      <g>
        <path class="cls-1" d="M34.73,35.71c-3.33,0-6.04-2.71-6.04-6.04s2.71-6.04,6.04-6.04,6.04,2.71,6.04,6.04-2.71,6.04-6.04,6.04Zm0-9.76c-2.05,0-3.71,1.67-3.71,3.71s1.67,3.71,3.71,3.71,3.71-1.67,3.71-3.71-1.67-3.71-3.71-3.71Z"/>
        <rect class="cls-1" x="39.45" y="32.06" width="2.33" height="6.71" transform="translate(-13.22 37.67) rotate(-43.48)"/>
      </g>
      <path class="cls-14" d="M117.99,71.75c-2.25,2.06-4.51,4.11-6.76,6.17,.07,3.92,.14,7.83,.22,11.75-14.29,1.2-28.57,2.39-42.86,3.59-1.6-10.88-3.21-21.75-4.81-32.63,15.84-.31,31.69-.61,47.53-.92,.19,3.9,.39,7.81,.58,11.71,2.03,.11,4.07,.22,6.1,.33Z"/>
      <path class="cls-1" d="M11.26,171.17c3.31-3.02,6.62-6.04,9.93-9.06-.11-5.75-.21-11.5-.32-17.25,20.98-1.76,41.97-3.52,62.95-5.27,2.35,15.97,4.71,31.95,7.06,47.92-23.27,.45-46.54,.9-69.81,1.35-.28-5.73-.57-11.47-.85-17.2-2.99-.16-5.97-.32-8.96-.48Z"/>
      <path class="cls-1" d="M64,119.87c4.29,3.61,8.59,7.22,12.88,10.84-1.16-4.7-2.32-9.39-3.48-14.09,2.57-.38,5.15-.76,7.72-1.15,.37-13.82,.73-27.64,1.1-41.46-32.53-.05-65.06-.11-97.59-.16,1.32,18.07,2.64,36.15,3.96,54.22,25.14-2.73,50.27-5.47,75.41-8.2Z"/>
      <g>
        <circle class="cls-4" cx="134.05" cy="117.11" r="37.62"/>
        <path class="cls-8" d="M134.14,158.47c-1.69,0-3.39-.1-5.09-.31-10.96-1.34-20.75-6.87-27.56-15.56-6.81-8.7-9.82-19.53-8.48-30.49,2.76-22.64,23.43-38.8,46.06-36.04,10.96,1.34,20.75,6.87,27.56,15.56s9.82,19.53,8.48,30.49c-1.34,10.96-6.87,20.75-15.56,27.56-7.35,5.75-16.22,8.79-25.4,8.79Zm-.11-75.25c-16.87,0-31.52,12.62-33.61,29.79-1.1,8.99,1.37,17.86,6.95,24.99,5.58,7.13,13.6,11.66,22.58,12.75,8.99,1.09,17.86-1.37,24.99-6.95,7.13-5.58,11.66-13.6,12.75-22.58h0c2.26-18.55-10.99-35.48-29.53-37.74-1.39-.17-2.76-.25-4.13-.25Z"/>
        <rect class="cls-8" x="167.75" y="155.77" width="17.97" height="59.17" transform="translate(-70.91 120.06) rotate(-31.59)"/>
        <rect class="cls-8" x="157.12" y="147.11" width="7.73" height="25.46" transform="translate(-59.88 108.02) rotate(-31.59)"/>
        <path class="cls-1" d="M150.67,95.3c13.16,8.57,15.82,25.7,6.31,38.1-2.89,3.83-6.7,6.92-10.98,9,3.83-2.7,7.2-5.97,9.79-9.85,8.41-12.43,6.02-27.34-5.12-37.25h0Z"/>
      </g>
      <g>
        <polygon class="cls-7" points="29.87 70.99 66.2 73.65 66.81 109.37 23.92 106.14 29.87 70.99"/>
        <g>
          <polygon class="cls-11" points="66.45 88.13 72.94 87.3 72.28 97.34 66.6 96.84 66.45 88.13"/>
          <path class="cls-1" d="M66.59,93.75l-.23-.13,.07-.11c.04-.07,1.05-1.82,2.13-2.71,1.08-.89,2.53-1.33,2.59-1.35l.13-.04,.08,.25-.13,.04s-1.45,.44-2.49,1.3c-1.04,.86-2.06,2.62-2.07,2.63l-.07,.12Z"/>
        </g>
        <g>
          <polygon class="cls-11" points="27.5 85.11 21.25 83.16 20.14 93.16 26.03 93.68 27.5 85.11"/>
          <path class="cls-1" d="M26.37,90.61l-.04-.12s-.7-1.93-1.58-2.96c-.88-1.02-2.21-1.71-2.23-1.72l-.12-.06,.12-.24,.12,.06c.06,.03,1.4,.71,2.31,1.78,.91,1.06,1.59,2.96,1.62,3.04l.04,.12-.25,.09Z"/>
        </g>
        <path class="cls-2" d="M66.45,88.13l4.6-.59,3.18-20.47s-33.49-9.28-34.8-9.85-2.49-1.29-3.38-1.77c-.89-.48-2.83-1.83-2.83-1.83l2.18,5.03-11.74,8.44,.6,17.01,3.23,1.01,2.38-14.11,36.33,2.66,.24,14.48Z"/>
        <polygon class="cls-2" points="62.45 84.23 63.33 81.51 56.25 80.89 55.07 82.49 62.45 84.23"/>
        <polygon class="cls-2" points="30.88 80.42 30.67 77.58 37.69 78.64 38.47 80.47 30.88 80.42"/>
        <path class="cls-1" d="M46.58,94.88h0l-8.89-.4s-.08-.02-.1-.06c-.02-.03-.03-.08-.02-.12l1.43-4.47c.02-.05,.06-.09,.11-.09l2.5-.25,.72-7.59c0-.07,.07-.13,.14-.12l5.21,.46s.07,.02,.09,.05,.03,.06,.03,.1l-1.09,12.38c0,.07-.06,.12-.13,.12Zm-8.71-.66l8.59,.39,1.07-12.12-4.95-.43-.72,7.57c0,.06-.06,.11-.12,.12l-2.53,.25-1.35,4.23Zm3.86-4.61h0Z"/>
        <path class="cls-2" d="M36.81,89.1l-.1-.24c-.02-.06-.64-1.53-2.77-1.89-2.12-.36-3.15,1.3-3.19,1.37l-.14,.22-.45-.27,.14-.23s1.27-2.03,3.73-1.61c2.44,.41,3.15,2.15,3.17,2.22l.1,.25-.49,.19Z"/>
        <path class="cls-2" d="M61.16,91.25l-.1-.24c-.02-.06-.64-1.53-2.77-1.89-2.11-.36-3.15,1.3-3.19,1.37l-.14,.22-.45-.27,.14-.23s1.26-2.04,3.73-1.61c2.44,.41,3.14,2.15,3.17,2.22l.1,.25-.49,.19Z"/>
        <polygon class="cls-2" points="24.94 98.04 28.41 103.37 61.23 106.07 66.82 99.72 67.26 109.77 49.71 108.77 49.53 110.8 41.93 110.13 41.22 108.14 23.55 106.35 24.94 98.04"/>
        <path class="cls-12" d="M42.35,99.58l5.01-.06s-.33,2.28-2.44,2.2c-2.11-.08-2.57-2.14-2.57-2.14Z"/>
        <path class="cls-1" d="M54.87,105.68c-.06,0-.11-.04-.13-.09-.02-.06-1.74-5.78,2.78-9.59,4.52-3.81,8.93-1.37,8.97-1.35,.06,.04,.09,.12,.05,.18-.04,.06-.12,.09-.18,.05-.04-.02-4.3-2.37-8.67,1.32-4.38,3.69-2.71,9.25-2.7,9.31,.02,.07-.02,.14-.09,.17-.01,0-.03,0-.04,0Z"/>
        <path class="cls-1" d="M34,103.97s-.01,0-.02,0c-.07,0-.12-.07-.12-.15,0-.05,.52-4.66-1.69-7.56-2.23-2.91-5.86-4.2-5.9-4.21-.07-.02-.11-.1-.08-.17,.02-.07,.1-.11,.17-.08,.04,.01,3.75,1.33,6.02,4.3,2.28,2.98,1.75,7.7,1.75,7.75,0,.07-.06,.12-.13,.12Z"/>
        <polygon class="cls-2" points="32.44 96.48 39.82 92.67 44.57 93.94 49.93 93.17 56.06 98.57 45.78 98.41 44.34 96.53 42.51 98.3 32.44 96.48"/>
      </g>
      <g>
        <path class="cls-3" d="M81.06,162.78s-8.82,9.65-19.43,13.87c-10.6,4.22-26.74,3.94-26.74,3.94l-5.05-15.61s8.45-.43,17.7-4.8c5.96-2.82,14.58-14.36,14.58-14.36l18.94,16.96Z"/>
        <path class="cls-5" d="M51.3,164.59c4.65-1.63,8.69-3.04,9.7-1.68,1.1,1.49-1.38,6.35-5.37,8.2-5.1,2.38-11.88-.54-11.94-2.51-.04-1.34,3.02-2.41,7.61-4.02Z"/>
        <path class="cls-13" d="M36.56,178.56l-4.78-12.11,.29-.07c.13-.03,13.02-3.04,17.1-4.69,4.04-1.64,12.96-11.81,13.04-11.92l.18-.2,13.91,13.07-.19,.19c-.09,.09-9.59,9.52-18.58,12.22-8.95,2.69-20.67,3.49-20.79,3.5h-.19Zm-4.07-11.73l4.42,11.2c1.54-.12,12.21-.98,20.48-3.46,8.16-2.45,16.78-10.56,18.17-11.9l-13.12-12.33c-1.32,1.5-9.18,10.28-13.06,11.85-3.77,1.53-14.93,4.19-16.88,4.65Z"/>
      </g>
      <g>
        <path class="cls-1" d="M51.17,27.74v2.94c0,.54-.14,.96-.43,1.24-.29,.28-.68,.42-1.2,.42-.55,0-.99-.15-1.32-.46-.33-.3-.49-.75-.49-1.33h1.41c0,.18,.03,.31,.09,.39,.06,.08,.14,.11,.24,.11,.09,0,.15-.03,.2-.08s.07-.15,.07-.29v-2.94h1.42Z"/>
        <path class="cls-1" d="M55.6,30.73h-2.29c.02,.31,.15,.47,.39,.47,.15,0,.27-.07,.33-.21h1.51c-.05,.26-.16,.49-.33,.69-.17,.2-.37,.36-.62,.48s-.53,.18-.83,.18c-.36,0-.68-.08-.96-.22-.28-.15-.5-.37-.66-.65-.16-.28-.23-.61-.23-.99s.08-.71,.23-.99c.16-.28,.38-.5,.66-.65,.28-.15,.6-.22,.96-.22s.68,.07,.96,.22c.28,.15,.5,.36,.66,.63,.16,.27,.23,.6,.23,.97,0,.1,0,.19-.02,.28Zm-1.43-.62c0-.12-.04-.21-.12-.27-.08-.06-.17-.09-.29-.09-.25,0-.4,.12-.44,.37h.85Z"/>
        <path class="cls-1" d="M58.31,28.76c.17,.1,.3,.23,.39,.4v-.5h1.42v3.56c0,.34-.06,.65-.19,.93-.12,.28-.33,.5-.6,.67s-.63,.25-1.06,.25c-.58,0-1.04-.14-1.39-.41-.34-.27-.54-.64-.58-1.11h1.4c.04,.19,.19,.28,.46,.28,.17,0,.3-.04,.39-.13,.09-.09,.14-.25,.14-.48v-.43c-.09,.17-.22,.3-.39,.4-.17,.1-.38,.14-.61,.14-.28,0-.54-.07-.77-.22-.23-.15-.41-.36-.54-.64-.13-.28-.2-.61-.2-.99s.07-.71,.2-.99c.13-.28,.31-.5,.54-.64,.23-.15,.48-.22,.77-.22,.24,0,.44,.05,.61,.14Zm.24,1.26c-.1-.11-.22-.16-.38-.16s-.28,.05-.38,.16c-.1,.11-.15,.26-.15,.45s.05,.34,.15,.45c.1,.11,.23,.16,.38,.16s.28-.05,.38-.16c.1-.11,.15-.26,.15-.45s-.05-.34-.15-.45Z"/>
        <path class="cls-1" d="M61.09,29.48c.13-.28,.31-.5,.54-.64,.23-.15,.48-.22,.77-.22,.24,0,.44,.05,.61,.14,.17,.1,.3,.23,.39,.4v-.5h1.42v3.63h-1.42v-.5c-.09,.17-.22,.3-.39,.4-.17,.1-.38,.14-.61,.14-.28,0-.54-.07-.77-.22-.23-.15-.41-.36-.54-.64-.13-.28-.2-.61-.2-.99s.07-.71,.2-.99Zm2.16,.54c-.1-.11-.22-.16-.38-.16s-.28,.05-.38,.16c-.1,.11-.15,.26-.15,.45s.05,.34,.15,.45c.1,.11,.23,.16,.38,.16s.28-.05,.38-.16c.1-.11,.15-.26,.15-.45s-.05-.34-.15-.45Z"/>
        <path class="cls-1" d="M67.23,29.49c.16-.28,.38-.5,.66-.65,.28-.15,.6-.22,.96-.22,.47,0,.87,.13,1.19,.4s.53,.63,.61,1.11h-1.51c-.06-.19-.17-.28-.33-.28-.12,0-.21,.05-.27,.16-.07,.11-.1,.27-.1,.48s.03,.37,.1,.48c.07,.11,.16,.16,.27,.16,.16,0,.27-.09,.33-.28h1.51c-.09,.47-.29,.84-.61,1.11s-.72,.4-1.19,.4c-.36,0-.68-.08-.96-.22-.28-.15-.5-.37-.66-.65-.16-.28-.23-.61-.23-.99s.08-.71,.23-.99Z"/>
        <path class="cls-1" d="M72.17,32.11c-.29-.15-.52-.37-.68-.65-.17-.28-.25-.61-.25-.99s.08-.71,.25-.99c.17-.28,.39-.5,.68-.65,.29-.15,.62-.22,.98-.22s.69,.08,.98,.22c.29,.15,.52,.37,.68,.65,.17,.28,.25,.61,.25,.99s-.08,.71-.25,.99c-.17,.28-.39,.5-.68,.65-.29,.15-.62,.22-.98,.22s-.69-.08-.98-.22Zm1.32-1.17c.09-.11,.13-.26,.13-.47s-.04-.36-.13-.47c-.09-.1-.2-.16-.33-.16s-.25,.05-.33,.16c-.09,.11-.13,.26-.13,.47s.04,.36,.13,.47c.09,.1,.2,.16,.34,.16s.24-.05,.33-.16Z"/>
        <path class="cls-1" d="M77.8,28.83c.21-.13,.43-.19,.66-.19v1.52h-.41c-.27,0-.47,.05-.59,.14-.13,.09-.19,.26-.19,.5v1.49h-1.43v-3.63h1.43v.67c.15-.21,.32-.38,.53-.5Z"/>
        <path class="cls-1" d="M81.12,28.83c.21-.13,.43-.19,.66-.19v1.52h-.41c-.27,0-.47,.05-.59,.14-.13,.09-.19,.26-.19,.5v1.49h-1.43v-3.63h1.43v.67c.15-.21,.32-.38,.53-.5Z"/>
        <path class="cls-1" d="M86.33,28.66v3.63h-1.43v-.55c-.11,.17-.26,.31-.45,.42-.19,.11-.41,.16-.67,.16-.42,0-.74-.14-.97-.42-.23-.28-.35-.66-.35-1.13v-2.1h1.42v1.92c0,.17,.05,.31,.14,.41,.09,.1,.22,.15,.37,.15s.28-.05,.37-.15c.09-.1,.13-.24,.13-.41v-1.92h1.43Z"/>
        <path class="cls-1" d="M89.11,28.76c.17-.1,.37-.14,.61-.14,.28,0,.54,.07,.77,.22,.23,.15,.41,.36,.54,.64,.13,.28,.2,.61,.2,.99s-.07,.71-.2,.99c-.13,.28-.31,.5-.54,.64-.23,.15-.48,.22-.77,.22-.24,0-.44-.05-.61-.14s-.3-.23-.39-.4v2.23h-1.43v-5.36h1.43v.5c.09-.17,.22-.3,.39-.4Zm.51,1.26c-.1-.11-.22-.16-.38-.16s-.28,.05-.38,.16c-.1,.11-.15,.26-.15,.45s.05,.34,.15,.45c.1,.11,.22,.16,.38,.16s.28-.05,.38-.16c.1-.11,.15-.26,.15-.45s-.05-.34-.15-.45Z"/>
        <path class="cls-1" d="M94.24,31.07v1.21h-.54c-.99,0-1.49-.5-1.49-1.49v-.95h-.45v-1.19h.45v-.88h1.43v.88h.59v1.19h-.59v.98c0,.08,.02,.15,.06,.19,.04,.04,.11,.06,.2,.06h.34Z"/>
        <path class="cls-1" d="M95.23,28.17c-.15-.13-.22-.3-.22-.5s.08-.38,.22-.51c.15-.14,.35-.2,.6-.2s.44,.07,.59,.2c.15,.13,.23,.3,.23,.51s-.08,.37-.23,.5c-.15,.13-.35,.2-.59,.2s-.45-.07-.6-.2Zm1.31,.49v3.63h-1.43v-3.63h1.43Z"/>
        <path class="cls-1" d="M98.24,32.11c-.29-.15-.52-.37-.68-.65-.17-.28-.25-.61-.25-.99s.08-.71,.25-.99c.17-.28,.39-.5,.68-.65,.29-.15,.62-.22,.98-.22s.69,.08,.98,.22c.29,.15,.52,.37,.68,.65,.17,.28,.25,.61,.25,.99s-.08,.71-.25,.99c-.17,.28-.39,.5-.68,.65-.29,.15-.62,.22-.98,.22s-.69-.08-.98-.22Zm1.32-1.17c.09-.11,.13-.26,.13-.47s-.04-.36-.13-.47c-.09-.1-.2-.16-.33-.16s-.25,.05-.33,.16c-.09,.11-.13,.26-.13,.47s.04,.36,.13,.47c.09,.1,.2,.16,.34,.16s.24-.05,.33-.16Z"/>
        <path class="cls-1" d="M105.42,29.05c.23,.28,.35,.66,.35,1.13v2.1h-1.42v-1.92c0-.17-.05-.31-.14-.41-.09-.1-.21-.15-.37-.15s-.28,.05-.37,.15c-.09,.1-.13,.24-.13,.41v1.92h-1.43v-3.63h1.43v.55c.11-.17,.26-.31,.45-.42s.41-.16,.67-.16c.42,0,.74,.14,.97,.42Z"/>
        <path class="cls-1" d="M108.13,29.48c.13-.28,.31-.5,.54-.64,.23-.15,.48-.22,.77-.22,.24,0,.44,.05,.61,.14,.17,.1,.3,.23,.39,.4v-.5h1.42v3.63h-1.42v-.5c-.09,.17-.22,.3-.39,.4-.17,.1-.38,.14-.61,.14-.28,0-.54-.07-.77-.22-.23-.15-.41-.36-.54-.64-.13-.28-.2-.61-.2-.99s.07-.71,.2-.99Zm2.16,.54c-.1-.11-.22-.16-.38-.16s-.28,.05-.38,.16c-.1,.11-.15,.26-.15,.45s.05,.34,.15,.45c.1,.11,.23,.16,.38,.16s.28-.05,.38-.16c.1-.11,.15-.26,.15-.45s-.05-.34-.15-.45Z"/>
        <path class="cls-1" d="M114.25,27.53v4.76h-1.43v-4.76h1.43Z"/>
        <path class="cls-1" d="M116.64,27.53v4.76h-1.43v-4.76h1.43Z"/>
        <path class="cls-1" d="M121.1,30.73h-2.29c.02,.31,.15,.47,.39,.47,.15,0,.27-.07,.33-.21h1.51c-.05,.26-.16,.49-.33,.69-.17,.2-.37,.36-.62,.48s-.53,.18-.83,.18c-.36,0-.68-.08-.96-.22-.28-.15-.5-.37-.66-.65-.16-.28-.23-.61-.23-.99s.08-.71,.23-.99c.16-.28,.38-.5,.66-.65,.28-.15,.6-.22,.96-.22s.68,.07,.96,.22c.28,.15,.5,.36,.66,.63,.16,.27,.23,.6,.23,.97,0,.1,0,.19-.02,.28Zm-1.43-.62c0-.12-.04-.21-.12-.27-.08-.06-.17-.09-.29-.09-.25,0-.4,.12-.44,.37h.85Z"/>
        <path class="cls-1" d="M123.8,28.76c.17,.1,.3,.23,.39,.4v-.5h1.42v3.56c0,.34-.06,.65-.19,.93-.12,.28-.33,.5-.6,.67s-.63,.25-1.06,.25c-.58,0-1.04-.14-1.39-.41-.34-.27-.54-.64-.58-1.11h1.4c.04,.19,.19,.28,.46,.28,.17,0,.3-.04,.39-.13,.09-.09,.14-.25,.14-.48v-.43c-.09,.17-.22,.3-.39,.4-.17,.1-.38,.14-.61,.14-.28,0-.54-.07-.77-.22-.23-.15-.41-.36-.54-.64-.13-.28-.2-.61-.2-.99s.07-.71,.2-.99c.13-.28,.31-.5,.54-.64,.23-.15,.48-.22,.77-.22,.24,0,.44,.05,.61,.14Zm.24,1.26c-.1-.11-.22-.16-.38-.16s-.28,.05-.38,.16c-.1,.11-.15,.26-.15,.45s.05,.34,.15,.45c.1,.11,.23,.16,.38,.16s.28-.05,.38-.16c.1-.11,.15-.26,.15-.45s-.05-.34-.15-.45Z"/>
        <path class="cls-1" d="M126.58,29.48c.13-.28,.31-.5,.54-.64,.23-.15,.48-.22,.77-.22,.24,0,.44,.05,.61,.14,.17,.1,.3,.23,.39,.4v-.5h1.42v3.63h-1.42v-.5c-.09,.17-.22,.3-.39,.4-.17,.1-.38,.14-.61,.14-.28,0-.54-.07-.77-.22-.23-.15-.41-.36-.54-.64-.13-.28-.2-.61-.2-.99s.07-.71,.2-.99Zm2.16,.54c-.1-.11-.22-.16-.38-.16s-.28,.05-.38,.16c-.1,.11-.15,.26-.15,.45s.05,.34,.15,.45c.1,.11,.23,.16,.38,.16s.28-.05,.38-.16c.1-.11,.15-.26,.15-.45s-.05-.34-.15-.45Z"/>
        <path class="cls-1" d="M133.53,31.07v1.21h-.54c-.99,0-1.49-.5-1.49-1.49v-.95h-.45v-1.19h.45v-.88h1.43v.88h.59v1.19h-.59v.98c0,.08,.02,.15,.06,.19,.04,.04,.11,.06,.2,.06h.34Z"/>
        <path class="cls-1" d="M134.52,28.17c-.15-.13-.22-.3-.22-.5s.08-.38,.22-.51c.15-.14,.35-.2,.6-.2s.44,.07,.59,.2c.15,.13,.23,.3,.23,.51s-.08,.37-.23,.5c-.15,.13-.35,.2-.59,.2s-.45-.07-.6-.2Zm1.31,.49v3.63h-1.43v-3.63h1.43Z"/>
        <path class="cls-1" d="M137.53,32.11c-.29-.15-.52-.37-.68-.65-.17-.28-.25-.61-.25-.99s.08-.71,.25-.99c.17-.28,.39-.5,.68-.65,.29-.15,.62-.22,.98-.22s.69,.08,.98,.22c.29,.15,.52,.37,.68,.65,.17,.28,.25,.61,.25,.99s-.08,.71-.25,.99c-.17,.28-.39,.5-.68,.65-.29,.15-.62,.22-.98,.22s-.69-.08-.98-.22Zm1.32-1.17c.09-.11,.13-.26,.13-.47s-.04-.36-.13-.47c-.09-.1-.2-.16-.33-.16s-.25,.05-.33,.16c-.09,.11-.13,.26-.13,.47s.04,.36,.13,.47c.09,.1,.2,.16,.34,.16s.24-.05,.33-.16Z"/>
        <path class="cls-1" d="M144.71,29.05c.23,.28,.35,.66,.35,1.13v2.1h-1.42v-1.92c0-.17-.05-.31-.14-.41-.09-.1-.21-.15-.37-.15s-.28,.05-.37,.15c-.09,.1-.13,.24-.13,.41v1.92h-1.43v-3.63h1.43v.55c.11-.17,.26-.31,.45-.42s.41-.16,.67-.16c.42,0,.74,.14,.97,.42Z"/>
        <path class="cls-1" d="M146.71,32.17c-.26-.11-.47-.27-.63-.46s-.24-.42-.26-.67h1.37c.02,.11,.06,.19,.14,.24,.08,.05,.17,.08,.29,.08,.07,0,.13-.02,.17-.05s.06-.07,.06-.12c0-.08-.04-.14-.14-.17-.09-.03-.24-.07-.46-.12-.26-.05-.48-.11-.65-.17-.17-.06-.32-.16-.44-.31s-.19-.35-.19-.6c0-.22,.06-.42,.18-.61,.12-.18,.29-.33,.52-.43,.23-.1,.51-.16,.84-.16,.49,0,.87,.12,1.15,.36,.28,.24,.44,.55,.5,.94h-1.27c-.02-.1-.07-.17-.13-.23s-.16-.08-.28-.08c-.07,0-.13,.01-.17,.04-.04,.03-.06,.07-.06,.13,0,.07,.04,.13,.13,.16,.09,.04,.23,.07,.43,.11,.26,.05,.48,.11,.66,.17,.18,.06,.34,.17,.47,.33s.2,.37,.2,.65c0,.21-.06,.41-.19,.58-.12,.17-.3,.31-.54,.41s-.51,.15-.82,.15c-.34,0-.65-.06-.91-.17Z"/>
      </g>
    </g>
  </g>
  <g>
    <path class="cls-1" d="M22.15,220.57h2.81v2.2h-5.72v-9.28h2.91v7.08Z"/>
    <path class="cls-1" d="M28.03,222.4c-.59-.31-1.06-.75-1.4-1.32-.34-.57-.5-1.24-.5-2.01s.17-1.44,.5-2.01c.34-.57,.8-1.01,1.4-1.32,.59-.31,1.26-.46,2.01-.46s1.41,.15,2.01,.46c.59,.31,1.06,.75,1.4,1.32,.34,.57,.5,1.24,.5,2.01s-.17,1.44-.5,2.01c-.34,.57-.8,1.01-1.4,1.32-.59,.31-1.26,.46-2.01,.46s-1.41-.15-2.01-.46Zm2.69-2.38c.18-.21,.28-.53,.28-.95s-.09-.74-.28-.95c-.18-.21-.41-.32-.68-.32s-.5,.11-.68,.32c-.18,.21-.28,.53-.28,.95s.09,.74,.27,.95c.18,.21,.41,.32,.69,.32s.5-.11,.68-.32Z"/>
    <path class="cls-1" d="M37.03,222.4c-.59-.31-1.06-.75-1.4-1.32-.34-.57-.5-1.24-.5-2.01s.17-1.44,.5-2.01c.34-.57,.8-1.01,1.4-1.32,.59-.31,1.26-.46,2.01-.46s1.41,.15,2.01,.46c.59,.31,1.06,.75,1.4,1.32,.34,.57,.5,1.24,.5,2.01s-.17,1.44-.5,2.01c-.34,.57-.8,1.01-1.4,1.32-.59,.31-1.26,.46-2.01,.46s-1.41-.15-2.01-.46Zm2.69-2.38c.18-.21,.28-.53,.28-.95s-.09-.74-.28-.95c-.18-.21-.41-.32-.68-.32s-.5,.11-.68,.32c-.18,.21-.28,.53-.28,.95s.09,.74,.27,.95c.18,.21,.41,.32,.69,.32s.5-.11,.68-.32Z"/>
    <path class="cls-1" d="M49.25,222.77l-1.82-2.95v2.95h-2.91v-9.7h2.91v5.08l1.85-2.77h3.38l-2.77,3.72,2.83,3.67h-3.47Z"/>
    <path class="cls-1" d="M60.86,214.83c-.22,0-.38,.04-.5,.12-.11,.08-.19,.23-.24,.43h1.06v2.43h-1.09v4.97h-2.91v-4.97h-.79v-2.43h.79c.02-.96,.32-1.71,.91-2.24,.59-.53,1.42-.79,2.49-.79,.12,0,.32,0,.6,.03v2.48c-.16-.02-.27-.03-.33-.03Z"/>
    <path class="cls-1" d="M64.14,222.4c-.59-.31-1.06-.75-1.4-1.32-.34-.57-.5-1.24-.5-2.01s.17-1.44,.5-2.01c.34-.57,.8-1.01,1.4-1.32,.59-.31,1.26-.46,2.01-.46s1.41,.15,2.01,.46c.59,.31,1.06,.75,1.4,1.32,.34,.57,.5,1.24,.5,2.01s-.17,1.44-.5,2.01c-.34,.57-.8,1.01-1.4,1.32-.59,.31-1.26,.46-2.01,.46s-1.41-.15-2.01-.46Zm2.69-2.38c.18-.21,.28-.53,.28-.95s-.09-.74-.28-.95c-.18-.21-.41-.32-.68-.32s-.5,.11-.68,.32c-.18,.21-.28,.53-.28,.95s.09,.74,.27,.95c.18,.21,.41,.32,.69,.32s.5-.11,.68-.32Z"/>
    <path class="cls-1" d="M75.62,215.71c.43-.26,.87-.39,1.34-.39v3.11h-.83c-.55,0-.96,.1-1.21,.29-.26,.19-.39,.53-.39,1.02v3.03h-2.91v-7.4h2.91v1.36c.3-.43,.66-.77,1.09-1.03Z"/>
    <path class="cls-1" d="M93.36,216.18c.52,.57,.78,1.34,.78,2.31v4.29h-2.9v-3.92c0-.31-.09-.56-.28-.74-.19-.18-.44-.27-.75-.27s-.58,.09-.76,.27c-.18,.18-.28,.43-.28,.74v3.92h-2.9v-3.92c0-.31-.09-.56-.28-.74-.19-.18-.44-.27-.75-.27s-.58,.09-.76,.27c-.18,.18-.28,.43-.28,.74v3.92h-2.91v-7.4h2.91v1c.21-.31,.5-.57,.86-.76,.36-.19,.79-.29,1.28-.29,.53,0,1.01,.12,1.42,.35,.41,.23,.74,.56,.98,.98,.27-.38,.62-.7,1.04-.95,.42-.25,.88-.37,1.39-.37,.94,0,1.68,.28,2.2,.85Z"/>
    <path class="cls-1" d="M97.56,222.4c-.59-.31-1.06-.75-1.4-1.32-.34-.57-.5-1.24-.5-2.01s.17-1.44,.5-2.01c.34-.57,.8-1.01,1.4-1.32,.59-.31,1.26-.46,2.01-.46s1.41,.15,2.01,.46c.59,.31,1.06,.75,1.4,1.32,.34,.57,.5,1.24,.5,2.01s-.17,1.44-.5,2.01c-.34,.57-.8,1.01-1.4,1.32-.59,.31-1.26,.46-2.01,.46s-1.41-.15-2.01-.46Zm2.69-2.38c.18-.21,.28-.53,.28-.95s-.09-.74-.28-.95c-.18-.21-.41-.32-.68-.32s-.5,.11-.68,.32c-.18,.21-.28,.53-.28,.95s.09,.74,.27,.95c.18,.21,.41,.32,.69,.32s.5-.11,.68-.32Z"/>
    <path class="cls-1" d="M109.05,215.71c.43-.26,.87-.39,1.34-.39v3.11h-.83c-.55,0-.96,.1-1.21,.29-.26,.19-.39,.53-.39,1.02v3.03h-2.91v-7.4h2.91v1.36c.3-.43,.66-.77,1.09-1.03Z"/>
    <path class="cls-1" d="M118.95,219.59h-4.68c.04,.64,.31,.96,.8,.96,.31,0,.54-.14,.68-.43h3.08c-.1,.52-.33,1-.66,1.41-.34,.42-.76,.74-1.27,.98-.51,.24-1.07,.36-1.68,.36-.73,0-1.39-.15-1.96-.46-.57-.31-1.02-.75-1.34-1.32-.32-.57-.48-1.24-.48-2.01s.16-1.44,.48-2.01c.32-.57,.76-1.01,1.34-1.32,.57-.31,1.23-.46,1.96-.46s1.39,.15,1.96,.45c.57,.3,1.02,.73,1.34,1.29,.32,.56,.48,1.22,.48,1.98,0,.2-.01,.39-.04,.58Zm-2.91-1.27c0-.24-.08-.43-.24-.56s-.35-.19-.59-.19c-.52,0-.82,.25-.91,.75h1.73Z"/>
    <path class="cls-1" d="M123.7,214.38c-.31-.27-.46-.61-.46-1.02s.15-.77,.46-1.04c.31-.28,.71-.41,1.22-.41s.9,.14,1.21,.41c.31,.28,.46,.62,.46,1.04s-.15,.75-.46,1.02c-.31,.27-.71,.41-1.21,.41s-.91-.13-1.22-.41Zm2.66,1v7.4h-2.91v-7.4h2.91Z"/>
    <path class="cls-1" d="M135.49,216.18c.48,.57,.71,1.34,.71,2.31v4.29h-2.9v-3.92c0-.35-.09-.63-.28-.83-.19-.21-.44-.31-.75-.31s-.58,.1-.76,.31c-.18,.21-.28,.48-.28,.83v3.92h-2.91v-7.4h2.91v1.13c.23-.35,.53-.63,.91-.85,.38-.22,.83-.33,1.36-.33,.85,0,1.51,.28,1.99,.85Z"/>
    <path class="cls-1" d="M142.05,214.83c-.22,0-.38,.04-.5,.12-.11,.08-.19,.23-.24,.43h1.06v2.43h-1.09v4.97h-2.91v-4.97h-.79v-2.43h.79c.02-.96,.32-1.71,.91-2.24,.59-.53,1.42-.79,2.49-.79,.12,0,.32,0,.6,.03v2.48c-.16-.02-.27-.03-.33-.03Z"/>
    <path class="cls-1" d="M145.33,222.4c-.59-.31-1.06-.75-1.4-1.32-.34-.57-.5-1.24-.5-2.01s.17-1.44,.5-2.01c.34-.57,.8-1.01,1.4-1.32,.59-.31,1.26-.46,2.01-.46s1.41,.15,2.01,.46c.59,.31,1.06,.75,1.4,1.32,.34,.57,.5,1.24,.5,2.01s-.17,1.44-.5,2.01c-.34,.57-.8,1.01-1.4,1.32-.59,.31-1.26,.46-2.01,.46s-1.41-.15-2.01-.46Zm2.69-2.38c.18-.21,.28-.53,.28-.95s-.09-.74-.28-.95c-.18-.21-.41-.32-.68-.32s-.5,.11-.68,.32c-.18,.21-.28,.53-.28,.95s.09,.74,.27,.95c.18,.21,.41,.32,.69,.32s.5-.11,.68-.32Z"/>
    <path class="cls-1" d="M20.74,238.14c-.59-.31-1.06-.75-1.4-1.32-.34-.57-.5-1.24-.5-2.01s.17-1.44,.5-2.01c.34-.57,.8-1.01,1.4-1.32,.59-.31,1.26-.46,2.01-.46s1.41,.15,2.01,.46c.59,.31,1.06,.75,1.4,1.32,.34,.57,.5,1.24,.5,2.01s-.17,1.44-.5,2.01c-.34,.57-.8,1.01-1.4,1.32-.59,.31-1.26,.46-2.01,.46s-1.41-.15-2.01-.46Zm2.69-2.38c.18-.21,.28-.53,.28-.95s-.09-.74-.28-.95c-.18-.21-.41-.32-.68-.32s-.5,.11-.68,.32c-.18,.21-.28,.53-.28,.95s.09,.74,.27,.95c.18,.21,.41,.32,.69,.32s.5-.11,.68-.32Z"/>
    <path class="cls-1" d="M35.4,231.91c.48,.57,.71,1.34,.71,2.31v4.29h-2.9v-3.92c0-.35-.09-.63-.28-.83-.19-.21-.44-.31-.75-.31s-.58,.1-.76,.31c-.18,.21-.28,.48-.28,.83v3.92h-2.91v-7.4h2.91v1.13c.23-.35,.53-.63,.91-.85,.38-.22,.83-.33,1.36-.33,.85,0,1.51,.28,1.99,.85Z"/>
    <path class="cls-1" d="M44.91,231.45c.43-.26,.87-.39,1.34-.39v3.11h-.83c-.55,0-.96,.1-1.21,.29-.26,.19-.39,.53-.39,1.02v3.03h-2.91v-7.4h2.91v1.36c.3-.43,.66-.77,1.09-1.03Z"/>
    <path class="cls-1" d="M47.94,230.12c-.31-.27-.46-.61-.46-1.02s.15-.77,.46-1.04c.31-.28,.71-.41,1.22-.41s.9,.14,1.21,.41c.31,.28,.46,.62,.46,1.04s-.15,.75-.46,1.02c-.31,.27-.71,.41-1.21,.41s-.91-.13-1.22-.41Zm2.66,1v7.4h-2.91v-7.4h2.91Z"/>
    <path class="cls-1" d="M56.32,235.74l1.18-4.63h3.09l-2.46,7.4h-3.63l-2.46-7.4h3.09l1.19,4.63Z"/>
    <path class="cls-1" d="M62.03,232.78c.27-.57,.63-1.01,1.09-1.31,.46-.3,.98-.45,1.56-.45,.48,0,.9,.1,1.25,.29,.35,.2,.62,.46,.8,.81v-1.01h2.9v7.4h-2.9v-1.01c-.18,.34-.45,.61-.8,.81-.35,.2-.76,.29-1.25,.29-.58,0-1.1-.15-1.56-.45-.46-.3-.83-.74-1.09-1.31s-.4-1.25-.4-2.03,.13-1.45,.4-2.03Zm4.4,1.11c-.2-.22-.46-.33-.77-.33s-.57,.11-.77,.33c-.2,.22-.3,.52-.3,.92s.1,.7,.3,.92c.2,.22,.46,.33,.77,.33s.57-.11,.77-.33c.2-.22,.3-.52,.3-.92s-.1-.7-.3-.92Z"/>
    <path class="cls-1" d="M74.51,228.8v9.7h-2.91v-9.7h2.91Z"/>
    <path class="cls-1" d="M79.44,232.8c.32-.57,.76-1.01,1.34-1.32,.57-.31,1.23-.46,1.96-.46,.96,0,1.77,.27,2.43,.81s1.08,1.29,1.25,2.26h-3.08c-.11-.38-.34-.58-.67-.58-.24,0-.42,.11-.56,.33-.14,.22-.2,.54-.2,.97s.07,.75,.2,.97,.32,.33,.56,.33c.33,0,.55-.19,.67-.58h3.08c-.17,.96-.59,1.71-1.25,2.25-.66,.54-1.47,.81-2.43,.81-.73,0-1.39-.15-1.96-.46-.57-.31-1.02-.75-1.34-1.32-.32-.57-.48-1.24-.48-2.01s.16-1.44,.48-2.01Z"/>
    <path class="cls-1" d="M88.01,232.78c.27-.57,.63-1.01,1.09-1.31,.46-.3,.98-.45,1.56-.45,.48,0,.9,.1,1.25,.29,.35,.2,.62,.46,.8,.81v-1.01h2.9v7.4h-2.9v-1.01c-.18,.34-.45,.61-.8,.81-.35,.2-.76,.29-1.25,.29-.58,0-1.1-.15-1.56-.45-.46-.3-.83-.74-1.09-1.31s-.4-1.25-.4-2.03,.13-1.45,.4-2.03Zm4.4,1.11c-.2-.22-.46-.33-.77-.33s-.57,.11-.77,.33c-.2,.22-.3,.52-.3,.92s.1,.7,.3,.92c.2,.22,.46,.33,.77,.33s.57-.11,.77-.33c.2-.22,.3-.52,.3-.92s-.1-.7-.3-.92Z"/>
    <path class="cls-1" d="M104.74,231.91c.48,.57,.71,1.34,.71,2.31v4.29h-2.9v-3.92c0-.35-.09-.63-.28-.83-.19-.21-.44-.31-.75-.31s-.58,.1-.76,.31c-.18,.21-.28,.48-.28,.83v3.92h-2.91v-7.4h2.91v1.13c.23-.35,.53-.63,.91-.85,.38-.22,.83-.33,1.36-.33,.85,0,1.51,.28,1.99,.85Z"/>
    <path class="cls-1" d="M107.38,232.78c.27-.57,.63-1.01,1.09-1.31,.46-.3,.98-.45,1.56-.45,.48,0,.89,.1,1.24,.29,.35,.2,.61,.46,.79,.81v-3.32h2.91v9.7h-2.91v-1.01c-.18,.34-.45,.61-.79,.81-.34,.2-.76,.29-1.24,.29-.58,0-1.1-.15-1.56-.45-.46-.3-.83-.74-1.09-1.31s-.4-1.25-.4-2.03,.13-1.45,.4-2.03Zm4.4,1.11c-.2-.22-.46-.33-.77-.33s-.57,.11-.77,.33c-.2,.22-.3,.52-.3,.92s.1,.7,.3,.92c.2,.22,.46,.33,.77,.33s.57-.11,.77-.33c.2-.22,.3-.52,.3-.92s-.1-.7-.3-.92Z"/>
    <path class="cls-1" d="M117.19,230.12c-.31-.27-.46-.61-.46-1.02s.15-.77,.46-1.04c.31-.28,.71-.41,1.22-.41s.9,.14,1.21,.41c.31,.28,.46,.62,.46,1.04s-.15,.75-.46,1.02c-.31,.27-.71,.41-1.21,.41s-.91-.13-1.22-.41Zm2.66,1v7.4h-2.91v-7.4h2.91Z"/>
    <path class="cls-1" d="M121.83,232.78c.27-.57,.63-1.01,1.09-1.31,.46-.3,.98-.45,1.56-.45,.48,0,.89,.1,1.24,.29,.35,.2,.61,.46,.79,.81v-3.32h2.91v9.7h-2.91v-1.01c-.18,.34-.45,.61-.79,.81-.34,.2-.76,.29-1.24,.29-.58,0-1.1-.15-1.56-.45-.46-.3-.83-.74-1.09-1.31s-.4-1.25-.4-2.03,.13-1.45,.4-2.03Zm4.4,1.11c-.2-.22-.46-.33-.77-.33s-.57,.11-.77,.33c-.2,.22-.3,.52-.3,.92s.1,.7,.3,.92c.2,.22,.46,.33,.77,.33s.57-.11,.77-.33c.2-.22,.3-.52,.3-.92s-.1-.7-.3-.92Z"/>
    <path class="cls-1" d="M131.4,232.78c.27-.57,.63-1.01,1.09-1.31,.46-.3,.98-.45,1.56-.45,.48,0,.9,.1,1.25,.29,.35,.2,.62,.46,.8,.81v-1.01h2.9v7.4h-2.9v-1.01c-.18,.34-.45,.61-.8,.81-.35,.2-.76,.29-1.25,.29-.58,0-1.1-.15-1.56-.45-.46-.3-.83-.74-1.09-1.31s-.4-1.25-.4-2.03,.13-1.45,.4-2.03Zm4.4,1.11c-.2-.22-.46-.33-.77-.33s-.57,.11-.77,.33c-.2,.22-.3,.52-.3,.92s.1,.7,.3,.92c.2,.22,.46,.33,.77,.33s.57-.11,.77-.33c.2-.22,.3-.52,.3-.92s-.1-.7-.3-.92Z"/>
    <path class="cls-1" d="M145.57,236.03v2.48h-1.1c-2.03,0-3.04-1.01-3.04-3.03v-1.94h-.92v-2.43h.92v-1.78h2.91v1.78h1.21v2.43h-1.21v1.99c0,.17,.04,.3,.12,.38,.08,.08,.22,.12,.41,.12h.7Z"/>
    <path class="cls-1" d="M154.46,235.32h-4.68c.04,.64,.31,.96,.8,.96,.31,0,.54-.14,.68-.43h3.08c-.1,.52-.33,1-.66,1.41-.34,.42-.76,.74-1.27,.98-.51,.24-1.07,.36-1.68,.36-.73,0-1.39-.15-1.96-.46-.57-.31-1.02-.75-1.34-1.32-.32-.57-.48-1.24-.48-2.01s.16-1.44,.48-2.01c.32-.57,.76-1.01,1.34-1.32,.57-.31,1.23-.46,1.96-.46s1.39,.15,1.96,.45c.57,.3,1.02,.73,1.34,1.29,.32,.56,.48,1.22,.48,1.98,0,.2-.01,.39-.04,.58Zm-2.91-1.27c0-.24-.08-.43-.24-.56s-.35-.19-.59-.19c-.52,0-.82,.25-.91,.75h1.73Z"/>
  </g>
</svg>