<?xml version="1.0" encoding="UTF-8"?>
<svg id="Layer_2" data-name="Layer 2" xmlns="http://www.w3.org/2000/svg" xmlns:xlink="http://www.w3.org/1999/xlink" viewBox="0 0 428 546.1">
  <defs>
    <style>
      .cls-1 {
        fill: #fff;
      }

      .cls-2 {
        fill: #edeeea;
      }

      .cls-3 {
        fill: #181216;
      }

      .cls-4 {
        opacity: .32;
      }

      .cls-4, .cls-5 {
        fill: #3ba45b;
      }

      .cls-6 {
        fill: #ef9d7f;
      }

      .cls-7 {
        fill: #eeb2ff;
      }

      .cls-8 {
        fill: #fac300;
      }

      .cls-9 {
        fill: #333;
      }

      .cls-10 {
        fill: #fce9ca;
      }

      .cls-11 {
        fill: #f80500;
      }

      .cls-12 {
        fill: #307f46;
      }

      .cls-13 {
        fill: #e64c00;
      }

      .cls-14 {
        fill: #f4ae32;
      }

      .cls-15 {
        clip-path: url(#clippath);
      }

      .cls-16 {
        fill: none;
      }

      .cls-17 {
        fill: #353535;
      }

      .cls-18 {
        fill: #474747;
      }

      .cls-19 {
        fill: #515151;
      }

      .cls-20 {
        fill: #b72c2c;
      }

      .cls-21 {
        fill: #ffbba6;
      }

      .cls-22 {
        fill: #e08bfc;
      }

      .cls-23 {
        fill: #6d6d6d;
      }

      .cls-24 {
        fill: #4ea978;
      }

      .cls-25 {
        fill: #e27c5d;
      }

      .cls-26 {
        fill: #f7a22d;
      }
    </style>
    <clipPath id="clippath">
      <rect class="cls-16" x="108.66" y="100.91" width="193.59" height="351.31" rx="14.78" ry="14.78" transform="translate(-33.54 28.4) rotate(-7.31)"/>
    </clipPath>
  </defs>
  <polygon class="cls-5" points="214.26 36.85 404.59 24.47 382.13 275.91 216.98 295.38 214.26 36.85"/>
  <path class="cls-8" d="M49.96,176.82c-2.4,3.84-6.55,9.45-13.17,14.59-5.75,4.46-11.32,6.98-15.3,8.42,3.45,2.2,9.12,6.45,13.83,13.64,3.92,5.98,5.66,11.66,6.48,15.39,1.77-3.41,4.84-8.3,9.94-12.94,7.06-6.42,14.46-9.14,18.62-10.33-3.09-1.69-7.77-4.78-12-10.02-5.93-7.35-7.76-14.96-8.4-18.76Z"/>
  <polygon class="cls-13" points="125.95 33.19 112.23 24.93 103.82 36.29 108.07 52.53 134.38 68.1 149.92 42.36 147.07 26.41 133.87 19.67 125.95 33.19"/>
  <polygon class="cls-1" points="104.19 255.98 16.25 287.59 30.12 320.67 58.74 316.7 62.99 333.53 75.24 314.85 111.19 303.97 104.19 255.98"/>
  <path class="cls-6" d="M62.97,520.41l-14.68-87.67,60.5-126.65s18.74-11.3,38.23-3.2c18.96,7.88,37.21,19.11,41.46,40.1s-3.18,45.89-7.54,59.98c-8.22,26.55-4.97,53.7-4.97,53.7l9.37,63.74H62.97Z"/>
  <rect class="cls-12" x="102.89" y="84.87" width="203.48" height="370.48" rx="8.9" ry="8.9" transform="translate(-32.72 28.25) rotate(-7.31)"/>
  <rect class="cls-7" x="108.66" y="100.91" width="193.59" height="351.31" rx="14.78" ry="14.78" transform="translate(-33.54 28.4) rotate(-7.31)"/>
  <g class="cls-15">
    <path class="cls-10" d="M222.18,266.26c4.34,6.08,8.69,12.16,13.03,18.24,4.99-9.69,15.2-15.61,26.06-15.12,10.78,.49,20.36,7.21,24.5,17.2,6.6-4.86,13.2-9.73,19.81-14.59-13.56-20.54-36.35-30.6-56.29-25.54-15.29,3.87-24.09,15.41-27.1,19.81Z"/>
    <path class="cls-22" d="M238.02,77.05c-6.94,2.78-13.88,5.55-20.82,8.33,8.23,7.14,11.56,18.47,8.5,28.91-3.04,10.36-11.84,18.06-22.53,19.71,3.16,7.57,6.32,15.14,9.48,22.71,23.17-8.3,38.35-28.05,38.17-48.62-.13-15.77-9.25-27.06-12.81-31.03Z"/>
    <path class="cls-22" d="M149.46,295.41c-7.25-1.82-14.49-3.65-21.74-5.47,2.47,10.61-1.48,21.73-10.08,28.39-8.54,6.61-20.19,7.68-29.81,2.75-1.88,7.98-3.77,15.96-5.65,23.95,23.63,6.88,47.51-.21,59.44-16.97,9.14-12.85,8.39-27.34,7.84-32.64Z"/>
    <g>
      <g>
        <g>
          <polygon class="cls-23" points="253.53 330.42 227.45 423.16 285.65 410.16 279.9 330.52 253.53 330.42"/>
          <polygon class="cls-6" points="253.99 291.48 256.23 316.48 249.24 312.82 247.42 318.45 256.79 325.26 257.12 330.43 279.9 330.52 280.3 290.56 253.99 291.48"/>
          <path class="cls-11" d="M261.21,308.61c-.34,0-.63-.26-.66-.6l-1.42-15.63c-.03-.37,.24-.69,.6-.72,.36-.03,.69,.24,.72,.6l1.42,15.63c.03,.37-.24,.69-.6,.72-.02,0-.04,0-.06,0Z"/>
          <path class="cls-11" d="M268.32,308.61c-.35,0-.64-.27-.66-.63l-.85-16.32c-.02-.37,.26-.68,.63-.7,.35-.03,.68,.26,.7,.63l.85,16.32c.02,.37-.26,.68-.63,.7-.01,0-.02,0-.04,0Z"/>
          <path class="cls-11" d="M275.18,308.61s-.02,0-.02,0c-.37-.01-.65-.32-.64-.69l.59-16.32c.01-.37,.28-.66,.69-.64,.37,.01,.65,.32,.64,.69l-.59,16.32c-.01,.36-.31,.64-.66,.64Z"/>
        </g>
        <path class="cls-18" d="M264.63,370.73l27.17,48.29-211.63,27.16s3.02-20.84,10.68-35.8c7.66-14.96,31.21-47.24,31.21-47.24l142.57,7.59Z"/>
        <path class="cls-19" d="M237.54,237.35l-58.35-25.29-54.43,43.26,8.62,88.87-28.91,41.03s41,34.15,89.72,27.89,86.07-30.8,86.07-30.8l-27.05-54.05-15.66-90.91Z"/>
        <path class="cls-1" d="M206.78,411.6c-.34,0-.63-.26-.66-.6l-6.35-65.67c-.04-.36,.23-.69,.6-.72,.37-.03,.69,.23,.72,.6l6.35,65.67c.04,.36-.23,.69-.6,.72-.02,0-.04,0-.06,0Z"/>
        <g>
          <path class="cls-1" d="M208.42,338.9c-1.6-4.61-15.36-1.71-16.17,2.58-.8,4.29,4.68,9.44,10,8.25s7.76-6.22,6.17-10.82Z"/>
          <polygon class="cls-14" points="192.35 341.19 193.55 345.55 180.54 347.45 192.35 341.19"/>
          <polygon class="cls-14" points="193.44 345.42 196.57 348.68 186.03 356.55 193.44 345.42"/>
          <polygon class="cls-14" points="196.19 348.5 200.54 349.72 195.45 361.85 196.19 348.5"/>
          <polygon class="cls-14" points="200.54 349.76 204.9 348.56 206.79 361.57 200.54 349.76"/>
          <polygon class="cls-14" points="204.94 348.53 207.99 345.19 216.54 355.17 204.94 348.53"/>
          <polygon class="cls-14" points="208.01 345.19 208.84 340.75 221.36 344.74 208.01 345.19"/>
          <polygon class="cls-14" points="208.77 340.75 208.4 336.24 221.53 336.78 208.77 340.75"/>
        </g>
        <polygon class="cls-6" points="239.37 259.94 146.17 271.91 154.38 346.52 247.91 335.44 239.37 259.94"/>
        <path class="cls-18" d="M142.68,250.94l2.96,23.03,95.03-12.2-3.13-24.42s-24.02,.24-46.51,3.13c-22.49,2.89-48.34,10.46-48.34,10.46Z"/>
        <path class="cls-9" d="M182.78,276.42l.91,7.08s-7.29,.59-14.76-.16-16.63-4.04-16.63-4.04l-1.17-9.1s11.76,3.46,15.97,4.29,15.67,1.93,15.67,1.93Z"/>
        <path class="cls-9" d="M209.01,274.47l.96,7.46,26.98-9.12-1.86-7.47s-8.9,2.3-13.51,3.92-12.57,5.21-12.57,5.21Z"/>
        <path class="cls-11" d="M181.28,343.89c-.34,0-.63-.26-.66-.61,0-.1-1-10.6-9.57-16.52-8.6-5.94-18.54-3.91-18.63-3.89-.36,.07-.71-.15-.79-.51-.08-.36,.15-.71,.51-.79,.43-.09,10.58-2.17,19.66,4.09,9.1,6.28,10.1,17.04,10.14,17.5,.03,.36-.24,.69-.61,.72-.02,0-.04,0-.06,0Z"/>
        <path class="cls-11" d="M223.38,337.89c-.36,0-.66-.29-.66-.66,0-.48-.03-11.72,7.62-18.79,7.63-7.06,13.77-6.84,14.03-6.82,.37,.02,.65,.33,.63,.7-.02,.37-.35,.65-.7,.63-.05,0-5.87-.18-13.07,6.47-7.21,6.67-7.19,17.7-7.19,17.81,0,.37-.29,.67-.66,.67h0Z"/>
        <path class="cls-20" d="M198.11,332.56l-.64-.18c-.2-.06-4.87-1.45-8.86-6.15-3.95-4.65-5.4-8.87-5.46-9.05l-.21-.63,1.26-.42,.21,.63s1.44,4.17,5.21,8.61c3.74,4.4,8.18,5.73,8.22,5.74l.64,.18-.37,1.27Z"/>
        <g>
          <path class="cls-17" d="M217.53,299.3l-.71-.23,.11-.36c.6-1.87,2.15-5.39,5.76-7.9,5.92-4.12,12.57-2.25,13.84-1.83l.36,.12-.23,.71-.36-.12c-1.21-.4-7.55-2.18-13.18,1.74-3.43,2.38-4.9,5.73-5.47,7.51l-.12,.36Z"/>
          <rect class="cls-17" x="233.19" y="286.19" width="4.51" height=".75" transform="translate(-108.21 426.06) rotate(-72.69)"/>
          <rect class="cls-17" x="231.59" y="284.24" width=".75" height="4.36" transform="translate(-28.39 25.54) rotate(-5.94)"/>
          <path class="cls-17" d="M226.43,289.82c2.81,.37,4.03,3.49,4.34,4.29,.35,.89,1.33,3.4-.04,5.12-.96,1.21-2.5,1.3-2.59,1.3-2.52,.1-4.18-2.8-4.75-3.8-.74-1.29-2.04-3.57-.96-5.33,.83-1.34,2.66-1.76,3.99-1.58Z"/>
        </g>
        <g>
          <path class="cls-17" d="M183.56,301.31l-.19-.32c-.97-1.6-3.17-4.52-7.06-6.05-6.39-2.51-12.14,.69-13.23,1.35l-.32,.2-.39-.64,.32-.2c1.14-.7,7.18-4.05,13.9-1.41,4.09,1.61,6.41,4.68,7.42,6.36l.19,.32-.64,.39Z"/>
          <rect class="cls-17" x="162.81" y="290.81" width=".75" height="4.51" transform="translate(-126.5 123.96) rotate(-30.62)"/>
          <rect class="cls-17" x="166.17" y="289.93" width=".75" height="4.36" transform="translate(-36.29 23.93) rotate(-7.41)"/>
          <path class="cls-17" d="M172.71,294.14c-2.65,1.01-3.11,4.32-3.23,5.17-.13,.95-.51,3.61,1.22,4.97,1.22,.96,2.73,.68,2.82,.67,2.48-.48,3.42-3.69,3.74-4.79,.42-1.43,1.16-3.94-.3-5.4-1.12-1.11-2.99-1.1-4.25-.62Z"/>
        </g>
        <g>
          <path class="cls-8" d="M200.54,280.58c-.1,10.5-.19,21-.29,31.5,6.18-.33,12.35-.67,18.53-1-6.08-10.17-12.16-20.33-18.24-30.5Z"/>
          <path class="cls-11" d="M200.25,312.58c-.13,0-.25-.05-.35-.14-.1-.1-.16-.23-.15-.37l.29-31.5c0-.22,.15-.42,.37-.48,.22-.06,.45,.03,.56,.23l18.24,30.5c.09,.15,.09,.34,.01,.49s-.24,.25-.41,.26l-18.53,1s-.02,0-.03,0Zm.77-30.22l-.26,29.19,17.17-.92-16.91-28.26Z"/>
        </g>
      </g>
      <rect class="cls-24" x="115.82" y="427.89" width="211.92" height="24.72" transform="translate(-54.24 31.81) rotate(-7.31)"/>
      <rect class="cls-4" x="114.1" y="381.23" width="211.92" height="46.87" transform="translate(-49.72 31.31) rotate(-7.31)"/>
      <circle class="cls-26" cx="147.63" cy="407.72" r="8.69"/>
      <g>
        <path class="cls-1" d="M164.19,407.08c-.54-.29-.88-.78-1.01-1.47l2.13-.27c.08,.36,.26,.53,.56,.49,.11-.01,.2-.05,.27-.11,.07-.06,.1-.15,.08-.25-.02-.15-.12-.26-.29-.33-.17-.07-.44-.15-.8-.22-.43-.09-.78-.19-1.07-.29-.29-.1-.54-.28-.77-.52s-.36-.57-.41-.98c-.05-.42,0-.78,.18-1.1,.18-.32,.44-.58,.79-.78,.35-.2,.76-.33,1.22-.39,.78-.1,1.43,0,1.93,.3,.51,.3,.81,.78,.92,1.43l-2.16,.28c-.03-.18-.09-.3-.19-.37-.09-.07-.2-.09-.32-.08-.08,.01-.15,.05-.2,.11-.05,.06-.06,.15-.05,.25,.02,.14,.11,.25,.29,.33,.17,.07,.44,.15,.81,.24,.42,.1,.77,.2,1.05,.31,.28,.1,.53,.27,.75,.49,.22,.22,.36,.52,.41,.89,.05,.39,0,.75-.16,1.09-.15,.34-.4,.61-.75,.83-.34,.22-.77,.36-1.27,.43-.76,.1-1.42,0-1.96-.29Z"/>
        <path class="cls-1" d="M170.92,400.21l.82,6.39-2,.26-.82-6.39,2-.26Z"/>
        <path class="cls-1" d="M177.29,399.39l.2,1.59-1.7,.22,.62,4.8-2,.26-.62-4.8-1.68,.22-.2-1.59,5.38-.69Z"/>
        <path class="cls-1" d="M180.28,399.01l.82,6.39-2,.26-.82-6.39,2-.26Z"/>
        <path class="cls-1" d="M189.76,397.79l-1.72,4.74,.25,1.94-2,.26-.25-1.94-2.86-4.15,2.29-.29,1.31,2.13,.73-2.4,2.25-.29Z"/>
        <path class="cls-1" d="M195.45,402.57l-2.13,.27-.19,1.01-2.1,.27,1.52-6.69,2.31-.3,3.15,6.09-2.11,.27-.44-.92Zm-.68-1.44l-.8-1.7-.35,1.85,1.15-.15Z"/>
        <path class="cls-1" d="M199.45,402.56c-.54-.29-.88-.78-1.01-1.47l2.13-.27c.08,.36,.26,.53,.56,.49,.11-.01,.2-.05,.27-.11,.07-.06,.1-.15,.08-.25-.02-.15-.12-.26-.29-.33-.17-.07-.44-.15-.8-.22-.43-.09-.78-.19-1.07-.29-.29-.1-.54-.28-.77-.52s-.36-.57-.41-.98c-.05-.42,0-.78,.18-1.1,.18-.32,.44-.58,.79-.78s.76-.33,1.22-.39c.78-.1,1.43,0,1.93,.3s.81,.78,.92,1.43l-2.16,.28c-.03-.18-.09-.3-.19-.37-.09-.07-.2-.09-.32-.08-.08,.01-.15,.05-.2,.11-.05,.06-.06,.15-.05,.25,.02,.14,.11,.25,.29,.33,.17,.07,.44,.15,.81,.24,.42,.1,.77,.2,1.05,.31,.28,.1,.53,.27,.75,.49,.22,.22,.36,.52,.41,.89,.05,.39,0,.75-.15,1.09-.15,.33-.4,.61-.75,.83-.35,.22-.77,.36-1.28,.43-.76,.1-1.42,0-1.96-.29Z"/>
        <path class="cls-1" d="M211.85,394.96l.82,6.39-1.99,.26-.41-3.18-.57,3.31-1.71,.22-1.39-3.06,.41,3.18-2,.26-.82-6.39,2.45-.32,1.9,3.65,.88-4.01,2.45-.31Z"/>
        <path class="cls-1" d="M215.21,394.53l.82,6.39-2,.26-.82-6.39,2-.26Z"/>
        <path class="cls-1" d="M223.51,399.95l-2,.26-2.53-2.94,.41,3.21-2,.26-.82-6.39,2-.26,2.54,2.99-.42-3.27,2-.26,.82,6.39Z"/>
      </g>
    </g>
    <path class="cls-2" d="M74.73,190.12c4.34,6.08,8.69,12.16,13.03,18.24,4.99-9.69,15.2-15.61,26.06-15.12,10.78,.49,20.36,7.21,24.5,17.2,6.6-4.86,13.2-9.73,19.81-14.59-13.56-20.54-36.35-30.6-56.29-25.54-15.29,3.87-24.09,15.41-27.1,19.81Z"/>
  </g>
  <path class="cls-3" d="M308.84,212.86l-43.1,50.59,12.95-55.12s-129.89-18.28-136.09-19.2c-.88-33.31-1.77-66.62-2.65-99.94,78.4-.13,156.81-.26,235.21-.39-3.18,43.56-9.55,130.69-9.55,130.69l-56.77-6.64Z"/>
  <polygon class="cls-25" points="57.92 433.84 78.07 390.81 145.7 354.2 157.04 374.63 118.2 415.6 163.24 513.48 70.2 513.48 57.92 433.84"/>
  <g>
    <path class="cls-1" d="M300.68,203.5l-43.1,50.59,12.95-55.12s-129.89-18.28-136.09-19.2c-.88-33.31-1.77-66.62-2.65-99.94,78.4-.13,156.81-.26,235.21-.39-3.18,43.56-9.55,130.69-9.55,130.69l-56.77-6.64Z"/>
    <g>
      <path d="M193.36,98.17l-.87,6.18c-.11,.39-.33,.71-.65,.96s-.63,.37-.92,.37l-6.77-.11-.65,3.86-3.67-.06,1.52-10.82-.58-.57,12.58,.2Zm-8.34,1.8l-.46,3.66,4.07,.06,.64-3.66-4.25-.07Z"/>
      <path d="M198.95,101.16l-.42,2.7,2.76-2.66,3.87,.06-6.68,5.7-.43,2.69-3.87-.06,1.25-7.92-.39-.57,3.91,.06Z"/>
      <path d="M214.73,101.41c.39,0,.68,.17,.87,.49,.19,.32,.28,.67,.27,1.06l-1.08,6.96-8.71-.14c-.39,0-.68-.14-.87-.4-.19-.26-.28-.58-.28-.97l1.08-7.14,8.71,.14Zm-5.07,1.86l-.84,4.62,2.32,.04,.86-4.62-2.34-.04Z"/>
      <path d="M218.86,100.31l-.37-.59,4.25,.07-.29,1.75,2.4,.04-.43,1.93-2.24-.04-.74,4.63,1.94,.03-.41,1.93-4.25-.07c-.39,0-.7-.14-.94-.4-.24-.26-.31-.58-.21-.97l.87-5.21-1.55-.02,.23-1.93,1.57,.02,.18-1.17Z"/>
      <path d="M235.63,106.76l-6.19-.1-.23,1.55,5.42,.09,.98-.75-.63,2.69-8.51-.13c-.39,0-.68-.14-.87-.4-.19-.26-.28-.58-.28-.97l1.08-7.14,10.06,.16-.85,5.01Zm-5.57-3.17l-.2,1.15,2.32,.04,.22-1.15-2.34-.04Z"/>
      <path d="M248.48,103.88l-6.19-.1-.84,4.62,5.4,.09,.98-.75-.43,2.69-10.06-.16,1.49-8.48,9.88,.16-.23,1.93Z"/>
      <path d="M251.67,100.83l-.37-.59,4.25,.07-.29,1.75,2.4,.04-.43,1.93-2.24-.04-.74,4.62,1.93,.03-.41,1.93-4.25-.07c-.39,0-.7-.14-.94-.4-.24-.26-.31-.58-.21-.97l.87-5.21-1.55-.02,.23-1.93,1.57,.02,.18-1.17Z"/>
      <path d="M270.13,102.88l-.55-.59,4.25,.07,.98,4.29,1.92-3.86-.38-.39,4.43,.07-6.68,11.87c-.11,.19-.29,.36-.54,.52-.25,.16-.52,.23-.82,.23l-3.59-.06,1.58-1.53,1.56-2.84-2.15-7.78Z"/>
      <path d="M291.06,102.62c.39,0,.68,.17,.87,.49,.19,.32,.28,.67,.28,1.06l-1.08,6.96-8.71-.14c-.39,0-.68-.14-.87-.4-.19-.26-.28-.58-.28-.97l1.08-7.14,8.71,.14Zm-5.07,1.86l-.84,4.62,2.32,.04,.86-4.62-2.34-.04Z"/>
      <path d="M298.28,102.74l-.98,6.03,2.42-.2,.87-5.23-.58-.57,4.46,.07-1.3,8.49-3.87-.06,.13-.76-6.32,.67,1.29-7.92-.58-.57,4.46,.07Z"/>
      <path d="M310.11,102.93l-.42,2.69,2.76-2.66,3.87,.06-6.68,5.7-.43,2.69-3.87-.06,1.25-7.92-.39-.57,3.91,.06Z"/>
    </g>
    <g>
      <path d="M168.51,167.92l-2.84-20.86-.67-1.12,7.74,.46,2.02,15.24,8.25-14.63,7.36,.44-11.56,21.08-10.31-.61Z"/>
      <path d="M210.37,154.17c.74,.04,1.28,.38,1.61,1,.33,.62,.48,1.3,.44,2.04l-2.63,13.15-16.56-.98c-.74-.04-1.28-.32-1.62-.83-.34-.51-.49-1.13-.45-1.87l2.65-13.5,16.56,.98Zm-9.8,3.11l-1.98,8.73,4.41,.26,2.02-8.73-4.45-.26Z"/>
      <path d="M218.32,152.42l-.66-1.16,8.09,.48-.7,3.3,4.56,.27-.99,3.63-4.25-.25-1.79,8.74,3.68,.22-.95,3.64-8.09-.48c-.74-.04-1.33-.32-1.76-.84s-.54-1.13-.31-1.87l2.08-9.84-2.95-.17,.6-3.66,2.99,.18,.44-2.2Z"/>
      <path d="M249.71,166.09l-11.77-.7-.56,2.93,10.31,.61,1.93-1.35-1.42,5.07-16.18-.96c-.74-.04-1.28-.32-1.62-.83-.34-.51-.49-1.13-.45-1.87l2.65-13.5,19.13,1.14-2.02,9.46Zm-10.35-6.5l-.47,2.16,4.41,.26,.51-2.16-4.45-.26Z"/>
    </g>
    <g>
      <path d="M148.37,126.02l-.46,2.69,2.8-2.62,3.87,.12-6.76,5.6-.46,2.69-3.87-.12,1.37-7.9-.39-.58,3.91,.12Z"/>
      <path d="M159.51,126.36l-1.43,8.47-3.87-.12,1.41-7.9-.57-.58,4.45,.13Zm.02-.58l-3.69-.11,.27-2.31,3.87,.12-.45,2.31Z"/>
      <path d="M166.96,137.39l.45-2.28-6.19-.19,1.41-8.47,10.08,.31-1.9,11.34c-.07,.39-.25,.7-.55,.95-.3,.25-.65,.36-1.04,.35l-8.7-.26,.46-2.69,.76,.79,5.22,.16Zm-.7-8.89l-.87,4.59,2.28,.07,.91-4.59-2.32-.07Z"/>
      <path d="M179.44,122.89l-.69,4.05,6.19,.19-1.43,8.47-3.87-.12,1.17-6.54-2.32-.07-1.17,6.54-3.87-.12,2.1-11.94-.36-.6,4.25,.13Z"/>
      <path d="M187.92,126.05l-.37-.6,4.25,.13-.32,1.75,2.4,.07-.46,1.92-2.24-.07-.81,4.61,1.93,.06-.44,1.92-4.25-.13c-.39-.01-.7-.15-.94-.41s-.3-.59-.19-.97l.94-5.19-1.55-.05,.26-1.93,1.57,.05,.2-1.16Z"/>
      <path d="M200.3,134.17l.22-1.34-5.8-.18,.94-5.19,9.27,.28-.46,2.49-3.35-.1,.08-.56-2.32-.07-.24,1.34,5.62,.17-.52,3.86c-.11,.39-.33,.7-.67,.95-.34,.25-.71,.36-1.1,.35l-7.74-.23,.46-2.69,.56,.78,5.04,.15Z"/>
    </g>
    <path d="M214.53,128.94l.8-3.67c.12-.61,.38-1.04,.75-1.28,.38-.24,.85-.36,1.41-.34l7.88,.24-1.14,5.35-2.9,1.86,1.57,1.39,1.56-1.93,2.63,.34-2.42,3.2,2.31,2.13-2.43,2.01-1.74-1.66-1.59,2.11-6.9-.21c-.65-.02-1.08-.19-1.29-.5-.21-.31-.26-.73-.16-1.26l.8-3.64,3.15-2.04-2.26-2.1Zm4.18,3.85l-2.21,1.44-.4,1.89,3.77,.11,1.1-1.36-2.26-2.07Zm3.07-6.58l-3.53-.11-.4,1.89,1.54,1.39,1.99-1.28,.4-1.89Z"/>
    <g>
      <path d="M237.02,122.85l6.84,.21-.55,2.63-1.32-.04-.64,2.91,2.12,.06-.6,2.63-1.85-.06-1.6,8.95-5.29-.16,1.59-8.95-2.12-.06,.36-2.64,2.1,.06,.97-5.54Z"/>
      <path d="M250.31,128.82l-.63,3.68,3.83-3.58,5.29,.16-9.25,7.67-.64,3.68-5.29-.16,1.87-10.82-.53-.79,5.35,.16Z"/>
      <path d="M272.48,136.37l-8.46-.26-.34,2.11,7.42,.23,1.36-1.01-.91,3.67-11.63-.35c-.53-.02-.93-.2-1.18-.56-.26-.36-.38-.8-.36-1.34l1.62-9.75,13.76,.42-1.25,6.83Zm-7.56-4.45l-.29,1.56,3.17,.1,.32-1.56-3.2-.1Z"/>
      <path d="M288.94,136.87l-8.46-.26-.34,2.11,7.42,.23,1.36-1.01-.91,3.67-11.63-.35c-.53-.02-.93-.2-1.18-.56-.25-.36-.37-.8-.36-1.34l1.62-9.75,13.76,.42-1.26,6.83Zm-7.56-4.45l-.3,1.56,3.17,.1,.32-1.56-3.2-.1Z"/>
      <path d="M302.33,124.83l5.29,.16-2.89,17.13-11.91-.36c-.53-.02-.93-.2-1.18-.56s-.38-.8-.36-1.34l1.62-9.75,8.46,.26,.97-5.54Zm-4.63,8.08l-1.21,6.31,3.36,.1,1.18-6.31-3.33-.1Z"/>
      <path d="M321.9,130.99c.53,.02,.93,.24,1.18,.69,.25,.44,.37,.93,.36,1.46l-1.61,9.5-11.91-.36c-.53-.02-.93-.2-1.18-.56-.26-.36-.38-.8-.36-1.34l1.62-9.75,11.91,.36Zm-6.97,2.44l-1.24,6.31,3.17,.1,1.27-6.31-3.2-.1Z"/>
      <path d="M344.45,131.68l-1.92,11.59-4.77-.14,1.59-8.95-2.12-.06-1.6,8.95-4.22-.13,1.62-8.95-2.1-.06-1.65,8.95-4.77-.14,1.93-10.81-.53-.79,18.53,.56Z"/>
      <path d="M349.81,143.49l-4.19-.13,.44-2.61,4.19,.13-.44,2.61Zm.61-3.85l-4.19-.13,2.07-11.69,4.19,.13-2.07,11.69Z"/>
    </g>
    <g>
      <path d="M272.87,153.84l3.25,13.85,8.51-13.15,7.74,.46-4.24,21.52-6.63-.39,2.52-11.31-6.46,9.62-5.9-.35-2.38-9.76-2.11,10.95-6.63-.39,4.15-20.06-1.41-1.54,9.58,.57Z"/>
      <path d="M313.11,171.35l-11.77-.7-.56,2.93,10.31,.61,1.93-1.35-1.42,5.07-16.17-.96c-.74-.04-1.28-.32-1.62-.83s-.49-1.13-.45-1.87l2.65-13.5,19.13,1.14-2.02,9.46Zm-10.34-6.5l-.48,2.16,4.41,.26,.51-2.16-4.45-.26Z"/>
      <path d="M322.1,178.54l-5.83-.35,.72-3.61,5.83,.35-.71,3.61Zm1.01-5.33l-5.83-.35,3.35-16.19,5.83,.35-3.35,16.19Z"/>
    </g>
  </g>
  <path class="cls-22" d="M0,128.4c29.58,.12,55.87-14.32,67.13-37.2,9.67-19.65,5.41-39.34,3.47-46.49-10.34-.88-20.68-1.77-31.02-2.65,5.75,14,2.82,30.12-7.49,41.16-8.37,8.97-20.16,13.34-32.09,12.1v33.07Z"/>
  <g>
    <polygon class="cls-13" points="327.29 349.33 304.37 335.85 290.61 354.83 297.91 381.72 341.84 407.15 367.22 364.16 362.24 337.75 340.21 326.77 327.29 349.33"/>
    <g>
      <path class="cls-1" d="M309.83,369.49c.53-.85,.74-1.58,.61-2.2-.04-.21-.12-.36-.24-.46-.11-.09-.25-.13-.39-.1-.17,.04-.29,.15-.36,.35-.06,.2-.04,.48,.06,.84l-2.81,.58c-.14-.82-.1-1.52,.12-2.11,.22-.59,.57-1.06,1.04-1.41,.47-.35,1.02-.59,1.65-.72,1.12-.23,1.99-.13,2.62,.3s1.03,1.06,1.2,1.9c.18,.88,.07,1.76-.33,2.65-.4,.89-.97,1.68-1.71,2.39l2.99-.62,.48,2.34-6.76,1.39-.45-2.18c.99-1.11,1.75-2.09,2.28-2.94Z"/>
      <path class="cls-1" d="M315.35,364.41c.46-.99,1.36-1.63,2.69-1.9,1.32-.27,2.4-.04,3.22,.69,.82,.73,1.39,1.85,1.7,3.35,.31,1.51,.23,2.76-.23,3.76-.46,1-1.36,1.64-2.68,1.91-1.33,.28-2.41,.04-3.23-.69-.82-.74-1.39-1.86-1.7-3.36-.31-1.51-.23-2.76,.23-3.75Zm4.22,1.2c-.21-.32-.53-.44-.96-.35-.44,.09-.69,.33-.75,.71-.07,.38-.03,.92,.11,1.62,.15,.71,.33,1.22,.54,1.54,.21,.32,.53,.44,.97,.35,.43-.09,.67-.32,.74-.7,.07-.38,.03-.93-.12-1.63-.14-.7-.32-1.21-.53-1.53Z"/>
      <path class="cls-1" d="M324.65,362.49c.46-.99,1.36-1.63,2.69-1.9,1.33-.27,2.4-.04,3.22,.69,.82,.73,1.39,1.85,1.7,3.35,.31,1.51,.23,2.76-.23,3.76-.46,1-1.36,1.64-2.69,1.91-1.33,.28-2.41,.04-3.23-.69-.82-.73-1.38-1.86-1.7-3.36-.31-1.51-.23-2.76,.23-3.75Zm4.22,1.2c-.21-.32-.53-.44-.96-.35-.44,.09-.69,.33-.75,.71-.07,.38-.03,.92,.12,1.62,.15,.71,.32,1.22,.54,1.54,.21,.33,.54,.44,.97,.35,.43-.09,.67-.32,.74-.7,.07-.38,.03-.93-.12-1.63-.14-.7-.32-1.21-.53-1.53Z"/>
      <path class="cls-1" d="M335.14,368.85c-.36-.21-.58-.51-.67-.92-.09-.42,0-.8,.24-1.13,.25-.34,.62-.56,1.13-.66,.5-.1,.93-.05,1.29,.16,.36,.21,.58,.53,.67,.94,.08,.41,0,.78-.25,1.11-.25,.33-.62,.55-1.12,.65-.51,.1-.94,.05-1.3-.16Z"/>
      <path class="cls-1" d="M338.8,359.08c.47-.67,1.23-1.11,2.29-1.33,.69-.14,1.3-.15,1.84-.01,.54,.13,.97,.38,1.3,.73,.33,.35,.55,.78,.65,1.28,.13,.61,.08,1.12-.14,1.52-.22,.4-.49,.7-.82,.9v.05c1.14,.18,1.81,.8,2.03,1.86,.12,.56,.09,1.08-.09,1.56-.17,.48-.48,.89-.91,1.22-.43,.34-.98,.57-1.65,.71-1.13,.23-2.08,.15-2.83-.26s-1.26-1.18-1.52-2.33l2.82-.58c.05,.32,.14,.54,.28,.68,.14,.14,.35,.18,.62,.12,.16-.03,.28-.12,.36-.26,.08-.14,.1-.31,.06-.5-.05-.24-.17-.41-.36-.5-.19-.09-.47-.1-.86-.02l-.48,.1-.48-2.34,.47-.1c.6-.09,.85-.38,.74-.89-.04-.22-.12-.37-.24-.46-.11-.09-.24-.11-.38-.08-.32,.07-.43,.37-.32,.91l-2.82,.58c-.19-1.04-.05-1.9,.42-2.57Z"/>
      <path class="cls-1" d="M353.21,365.43l-2.42-2.57,.61,2.94-2.9,.6-1.99-9.67,2.9-.6,1.04,5.06,1.27-3.14,3.37-.7-1.99,4.28,3.58,3.08-3.46,.71Z"/>
    </g>
  </g>
  <g>
    <polygon class="cls-26" points="240.79 419.34 363.33 434 355.26 480.68 317.24 484.04 316.76 506.96 295.46 486.54 245.98 483.17 240.79 419.34"/>
    <g>
      <path class="cls-1" d="M261.84,448.35l.3-5.98,9.75,.5-1.07,21.03-6.7-.34,.77-15.05-3.05-.16Z"/>
      <path class="cls-1" d="M277.69,445.55c1.51-1.83,3.73-2.67,6.66-2.52,2.92,.15,5.03,1.21,6.36,3.19,1.32,1.98,1.9,4.62,1.73,7.92-.17,3.32-1.01,5.9-2.53,7.73-1.52,1.84-3.73,2.68-6.65,2.53-2.94-.15-5.06-1.21-6.37-3.2-1.31-1.98-1.88-4.63-1.71-7.95s1.01-5.89,2.51-7.72Zm8.17,4.79c-.27-.79-.87-1.21-1.81-1.26-.96-.05-1.61,.31-1.96,1.07-.35,.76-.56,1.91-.64,3.44-.08,1.55,.02,2.73,.28,3.52,.27,.79,.88,1.21,1.84,1.26,.94,.05,1.58-.31,1.93-1.07,.35-.76,.56-1.92,.64-3.47,.08-1.54-.02-2.7-.28-3.49Z"/>
      <path class="cls-1" d="M296.15,464.52c-.64-.63-.94-1.39-.89-2.29,.05-.92,.42-1.67,1.12-2.24s1.61-.83,2.72-.77c1.09,.06,1.96,.4,2.6,1.04,.64,.64,.94,1.42,.89,2.34-.05,.9-.42,1.63-1.12,2.19-.7,.56-1.6,.81-2.69,.76-1.11-.06-1.99-.4-2.63-1.03Z"/>
      <path class="cls-1" d="M307.97,452.45c-.4-.74-.57-1.61-.52-2.61,.05-1.04,.38-1.96,.98-2.78,.6-.81,1.48-1.45,2.65-1.9,1.17-.45,2.58-.63,4.25-.55,1.67,.08,3.06,.41,4.17,.98,1.12,.57,1.93,1.29,2.44,2.16,.51,.87,.74,1.83,.69,2.86-.05,1-.31,1.85-.78,2.54-.47,.7-1.1,1.25-1.89,1.65,1.88,1.23,2.76,2.98,2.65,5.24-.07,1.46-.5,2.68-1.28,3.66-.78,.98-1.8,1.7-3.05,2.15-1.25,.46-2.61,.65-4.07,.57-1.46-.07-2.79-.4-3.99-.98s-2.14-1.4-2.82-2.45c-.68-1.05-.98-2.31-.9-3.77,.12-2.26,1.17-3.91,3.17-4.95-.75-.48-1.32-1.09-1.71-1.83Zm5.33,5.32c-.36,.36-.55,.82-.58,1.4-.03,.58,.11,1.05,.42,1.43s.76,.59,1.35,.62c.59,.03,1.06-.13,1.41-.48,.34-.35,.53-.81,.56-1.38,.03-.58-.11-1.06-.43-1.45-.32-.39-.76-.6-1.34-.63-.58-.03-1.04,.13-1.4,.49Zm2.71-7.71c-.23-.33-.54-.5-.92-.52-.38-.02-.71,.12-.97,.43-.27,.3-.41,.72-.44,1.26-.03,.56,.08,.98,.31,1.29s.54,.46,.93,.48c.38,.02,.71-.11,.97-.38,.26-.28,.41-.69,.44-1.25,.03-.54-.08-.97-.31-1.3Z"/>
      <path class="cls-1" d="M336.97,467.27l-3.67-6.68-.33,6.47-6.39-.33,1.09-21.29,6.39,.33-.57,11.13,4.37-5.86,7.42,.38-6.49,7.86,5.8,8.37-7.62-.39Z"/>
    </g>
  </g>
  <polygon class="cls-6" points="147.16 356.83 136.31 363.63 145.84 377.09 155.08 371.1 147.16 356.83"/>
  <g>
    <g>
      <polygon class="cls-25" points="339.45 272.44 324.71 256.8 320.46 223.8 328.75 222.4 335.15 245.06 347.6 247.59 339.45 272.44"/>
      <polygon class="cls-25" points="335.74 292.06 335.37 244.72 346.53 201.52 374.39 206.81 373.17 251.83 372.15 282.25 335.74 292.06"/>
      <g>
        <path class="cls-11" d="M347.85,226.97c-.05,0-.1,0-.15-.02-.39-.08-.63-.47-.55-.85l4.93-22.56c.08-.39,.47-.63,.85-.55,.39,.08,.63,.47,.55,.85l-4.93,22.56c-.07,.33-.37,.56-.7,.56Z"/>
        <path class="cls-11" d="M366.39,230.38s-.04,0-.06,0c-.39-.03-.69-.38-.66-.77l1.9-23.08c.03-.39,.38-.69,.77-.66,.39,.03,.69,.38,.66,.77l-1.9,23.08c-.03,.37-.34,.66-.71,.66Z"/>
        <path class="cls-11" d="M356.08,229.93s-.08,0-.13-.01c-.39-.07-.65-.44-.58-.83l4.33-24.11c.07-.39,.44-.65,.83-.58,.39,.07,.65,.44,.58,.83l-4.33,24.11c-.06,.35-.36,.59-.7,.59Z"/>
      </g>
    </g>
    <polygon class="cls-8" points="384.85 249.35 411.15 238.85 401.22 231.06 409.38 220.98 395.18 217.13 398.57 198.66 382.97 210.15 380.21 197.55 372.34 210.14 361.78 198.87 360.23 215.91 343.52 216.27 353.01 227.94 338.14 234.95 358.05 254.15 384.85 249.35"/>
    <g>
      <g>
        <polygon class="cls-6" points="343.16 283.6 338.3 262.66 351.25 232.02 359.12 234.98 353.23 257.79 362.71 266.24 343.16 283.6"/>
        <polygon class="cls-21" points="352.25 232.4 350.74 237.01 356.18 238.69 357.86 234.51 352.25 232.4"/>
      </g>
      <g>
        <polygon class="cls-6" points="330.07 298.68 353.59 257.6 385 225.9 406.4 244.51 382.67 282.79 366.46 308.55 330.07 298.68"/>
        <g>
          <path class="cls-11" d="M372.78,249.1c-.17,0-.33-.06-.46-.17-.3-.26-.34-.71-.08-1.01l15-17.56c.26-.3,.71-.34,1.01-.08,.3,.26,.34,.71,.08,1.01l-15,17.56c-.14,.17-.34,.25-.54,.25Z"/>
          <path class="cls-11" d="M387.51,260.84c-.13,0-.27-.04-.39-.11-.33-.21-.43-.66-.21-.99l12.57-19.45c.21-.33,.66-.43,.99-.21,.33,.21,.43,.66,.21,.99l-12.57,19.45c-.14,.21-.37,.33-.6,.33Z"/>
          <path class="cls-11" d="M378.64,255.59c-.16,0-.31-.05-.44-.15-.31-.25-.36-.7-.12-1.01l15.2-19.21c.25-.31,.7-.36,1.01-.12,.31,.25,.36,.7,.12,1.01l-15.2,19.21c-.14,.18-.35,.27-.56,.27Z"/>
        </g>
      </g>
    </g>
  </g>
</svg>