<?xml version="1.0" encoding="UTF-8"?>
<svg id="Layer_2" data-name="Layer 2" xmlns="http://www.w3.org/2000/svg" viewBox="0 0 428 519.83">
  <defs>
    <style>
      .cls-1 {
        fill: #fff;
      }

      .cls-2 {
        fill: #ef9d7f;
      }

      .cls-3 {
        fill: #0265af;
      }

      .cls-4 {
        fill: #1b89cc;
      }

      .cls-5 {
        fill: #333;
      }

      .cls-6 {
        fill: #f80500;
      }

      .cls-7 {
        fill: #f4ae32;
      }

      .cls-8 {
        fill: #353535;
      }

      .cls-9 {
        fill: #474747;
      }

      .cls-10 {
        fill: #515151;
      }

      .cls-11 {
        fill: #b72c2c;
      }

      .cls-12 {
        fill: #4cb0ed;
      }

      .cls-13 {
        fill: #6d6d6d;
      }

      .cls-14 {
        fill: #ffbc00;
      }

      .cls-15 {
        fill: #84b6ce;
      }
    </style>
  </defs>
  <path class="cls-14" d="M213.48,376.8h-.05c-9.12,0-18.29-.71-27.26-2.12l23.19-148.2c1.32,.21,2.7,.31,4.08,.31l.05,150Zm27.4-2.15l-23.36-148.17c1.3-.21,2.58-.51,3.82-.91l46.39,142.64c-8.73,2.84-17.77,5.01-26.86,6.44Zm-81.58-6.38c-8.74-2.83-17.33-6.38-25.52-10.56l68.11-133.64c1.17,.6,2.4,1.1,3.64,1.51l-46.22,142.7Zm133.92-10.64l-68.23-133.58c1.18-.6,2.32-1.31,3.4-2.09l88.3,121.26c-7.42,5.4-15.31,10.25-23.47,14.42Zm-182.94-14.32c-7.39-5.37-14.42-11.37-20.89-17.84l105.98-106.15c.96,.96,2.01,1.85,3.1,2.65l-88.19,121.34Zm227.29-17.96l-106.09-106.04c.96-.96,1.85-2,2.65-3.1l121.29,88.25c-5.38,7.39-11.38,14.42-17.85,20.88Zm-266.06-20.76c-5.4-7.41-10.25-15.3-14.42-23.45l133.54-68.32c.6,1.18,1.31,2.33,2.1,3.41l-121.22,88.36Zm298.31-23.59l-133.59-68.21c.59-1.16,1.1-2.38,1.5-3.63l142.67,46.31c-2.84,8.75-6.4,17.34-10.58,25.53ZM46.5,255.66c-2.84-8.73-5.01-17.76-6.45-26.83l148.15-23.46c.21,1.3,.52,2.59,.92,3.83L46.5,255.66Zm340.34-27.05l-148.19-23.25c.2-1.29,.31-2.62,.32-3.95,0-.12,0-.24,0-.36h150s0,0,0,0h0c0-.26,0-.52,0-.78v1c0,9.15-.71,18.35-2.12,27.35Zm-198.95-27.24H37.88v-.11c0-9.09,.71-18.23,2.1-27.17l148.21,23.11c-.21,1.32-.31,2.69-.31,4.06v.11Zm50.75-4.25c-.21-1.3-.52-2.59-.92-3.83l142.57-46.62c2.85,8.73,5.03,17.76,6.48,26.84l-148.13,23.61Zm-49.54-3.75L46.38,147.23c2.83-8.74,6.38-17.33,10.55-25.53l133.68,68.04c-.6,1.17-1.1,2.4-1.5,3.64Zm47.09-3.72c-.6-1.18-1.31-2.32-2.1-3.4l121.12-88.49c5.41,7.4,10.27,15.29,14.45,23.44l-133.47,68.45Zm-43.5-3.34L71.31,98.21c5.37-7.4,11.37-14.44,17.83-20.92l106.19,105.94c-.96,.96-1.84,2-2.64,3.09Zm38.75-3.15c-.96-.96-2.01-1.85-3.1-2.64l88.06-121.43c7.4,5.37,14.44,11.36,20.92,17.81l-105.87,106.26Zm-33.02-2.6L110,59.42c7.41-5.41,15.3-10.27,23.45-14.44l68.38,133.51c-1.18,.6-2.32,1.31-3.4,2.09Zm26.5-2.13c-1.17-.6-2.4-1.1-3.65-1.5l46.08-142.75c8.74,2.82,17.33,6.37,25.53,10.53l-67.96,133.72Zm-19.47-1.48L158.94,34.37c8.73-2.85,17.76-5.02,26.84-6.47l23.53,148.14c-1.3,.21-2.59,.52-3.83,.92Zm12.01-.93c-1.32-.21-2.69-.31-4.06-.31h-.16V25.73h.16c9.05,0,18.16,.7,27.06,2.08l-23,148.23Z"/>
  <polygon class="cls-10" points="148.14 281.18 146.21 333.21 154.65 281.97 148.14 281.18"/>
  <polygon class="cls-10" points="62.16 184.45 121.02 270.08 73.53 177.97 62.16 184.45"/>
  <polygon class="cls-10" points="45.55 213.62 120.29 285.81 55.4 205.01 45.55 213.62"/>
  <g>
    <path class="cls-9" d="M316.68,292.68c-10.97-13.6-22.96-27.17-22.96-27.17l-149.79,22.04-31.49,85.41,8.91,76.14,205.27-2.25-10.13-92.21,.2-61.96Z"/>
    <g>
      <path class="cls-2" d="M120.42,95.22l3.49,14.79,1.85-3.15c1.22-2.08,3.22-3.63,5.57-4.15,1.27-.28,2.63-.39,3.73,0,2.07,.71,1.34,4.32,.72,6.42-.28,.94-.75,1.81-1.37,2.57l-7.83,9.61,1.57,6.65-28.71,8.85-9.75-30.94s-2.38-10.47,7.67-21.4c5.06-5.5,10.54-4.12,14.74-1.39s7.15,7.2,8.32,12.14Z"/>
      <path class="cls-6" d="M114.5,105.54c-.34,0-.62-.26-.66-.6l-2.05-20.34c-.04-.36,.23-.69,.59-.73,.37-.03,.69,.23,.73,.59l2.05,20.34c.04,.36-.23,.69-.59,.73-.02,0-.05,0-.07,0Z"/>
      <path class="cls-6" d="M107.81,106.43c-.3,0-.57-.2-.64-.5l-5.65-22.21c-.09-.35,.12-.72,.48-.81,.35-.09,.72,.12,.81,.48l5.65,22.21c.09,.35-.12,.72-.48,.81-.05,.01-.11,.02-.16,.02Z"/>
      <path class="cls-6" d="M99.74,107.11c-.26,0-.51-.15-.61-.41l-6.19-14.96c-.14-.34,.02-.73,.36-.87,.34-.14,.73,.02,.87,.36l6.19,14.96c.14,.34-.02,.73-.36,.87-.08,.03-.17,.05-.25,.05Z"/>
    </g>
    <polygon class="cls-13" points="128.59 123.58 170.21 215.72 136.97 284.6 91.98 135.33 128.59 123.58"/>
    <polygon class="cls-13" points="316.68 292.68 335.91 412.18 302.67 445.42 254.69 430.77 271.54 290.72 313.15 288.34 316.68 292.68"/>
    <path class="cls-10" d="M159.43,144.04l59.12-32.45,61.73,40.32-.35,94.68,34.56,40.47s-39.93,40.09-91.99,38.28c-52.06-1.81-93.91-24.05-93.91-24.05l23.25-59.73,7.59-97.53Z"/>
    <path class="cls-1" d="M208.98,324.97h0c-.37,0-.66-.3-.66-.67l.24-69.96c0-.37,.3-.66,.66-.66h0c.37,0,.66,.3,.66,.67l-.24,69.96c0,.37-.3,.66-.66,.66Z"/>
    <g>
      <g>
        <path class="cls-7" d="M201,248.84c-.51-.07-2.95-.33-5.81,1.17-.88,.46-2.31,1.37-3.65,3.02,2.16,1.11,4.03,1.36,5.13,1.42,1.59,.09,4.26,.23,5.76-1.5,.71-.82,1.32-2.27,.77-3.19-.41-.68-1.32-.81-2.2-.93Z"/>
        <path class="cls-7" d="M201.18,253.99c-.48,.18-2.77,1.06-4.62,3.72-.57,.82-1.42,2.28-1.84,4.36,2.43,0,4.21-.65,5.21-1.1,1.45-.66,3.89-1.76,4.42-3.99,.25-1.06,.13-2.62-.79-3.18-.68-.42-1.54-.12-2.38,.19Z"/>
        <path class="cls-7" d="M203.87,258.41c-.17,.48-.94,2.82-.06,5.93,.27,.96,.86,2.54,2.2,4.19,1.54-1.88,2.17-3.66,2.46-4.72,.41-1.54,1.11-4.12-.28-5.94-.66-.87-1.94-1.76-2.96-1.41-.76,.26-1.07,1.12-1.36,1.96Z"/>
        <path class="cls-7" d="M209.11,259.27c.02,.51,.18,2.97,2.16,5.52,.61,.79,1.74,2.04,3.6,3.07,.72-2.32,.65-4.21,.52-5.3-.19-1.59-.51-4.24-2.48-5.41-.93-.56-2.46-.91-3.27-.21-.6,.53-.58,1.44-.54,2.32Z"/>
        <path class="cls-7" d="M213.4,257.38c.31,.41,1.82,2.34,4.9,3.33,.95,.3,2.59,.69,4.71,.5-.71-2.32-1.84-3.84-2.57-4.66-1.05-1.2-2.81-3.21-5.1-3.06-1.09,.07-2.55,.64-2.81,1.68-.2,.78,.34,1.51,.87,2.22Z"/>
        <path class="cls-7" d="M216.48,253.38c.5,.11,2.91,.58,5.89-.68,.91-.39,2.41-1.17,3.89-2.7-2.05-1.29-3.9-1.7-4.99-1.85-1.58-.22-4.23-.59-5.86,1.01-.78,.76-1.51,2.15-1.03,3.11,.36,.72,1.24,.92,2.11,1.11Z"/>
      </g>
      <path class="cls-1" d="M200.16,248.41c1.23-5.02,16.05-3.32,17.32,1.13,1.27,4.45-4.01,10.43-9.75,9.69-5.74-.74-8.81-5.8-7.57-10.82Z"/>
    </g>
    <polygon class="cls-2" points="161.15 165.9 260.47 173.88 257.12 228.07 205.59 254.27 157.5 221.04 161.15 165.9"/>
    <path class="cls-9" d="M263.11,151.49l-1.97,24.54-101.27-8.14,2.09-26.03s25.45-.95,49.43,.98c23.97,1.93,51.73,8.65,51.73,8.65Z"/>
    <path class="cls-5" d="M217,174.24l-.26,7.57s7.76-.09,15.57-1.62c7.81-1.53,17.16-5.9,17.16-5.9l.34-9.73s-12.07,4.81-16.44,6.1c-4.37,1.29-16.36,3.58-16.36,3.58Z"/>
    <path class="cls-5" d="M189.16,172.25l-1.6,7.81-27.82-11.76,2.55-7.76s9.23,3.13,13.98,5.2c4.75,2.07,12.88,6.5,12.88,6.5Z"/>
    <path class="cls-11" d="M201.74,231.71c-.36,0-.65-.28-.66-.64-.01-.37,.28-.67,.64-.68,.05,0,4.98-.2,9.98-3.73,5.06-3.57,7.62-7.44,7.64-7.48,.2-.31,.61-.39,.92-.19,.31,.2,.39,.61,.19,.92-.11,.17-2.71,4.11-7.99,7.83-5.34,3.77-10.49,3.96-10.71,3.97,0,0-.01,0-.02,0Z"/>
    <g>
      <path class="cls-8" d="M183.33,197.32c-.15,0-.28-.08-.34-.23-.78-1.83-2.67-5.22-6.53-7.41-6.35-3.59-12.87-1.08-14.11-.54-.19,.08-.41,0-.49-.19-.08-.19,0-.41,.19-.49,1.3-.57,8.12-3.19,14.78,.57,4.05,2.29,6.03,5.85,6.85,7.76,.08,.19,0,.41-.2,.49-.05,.02-.1,.03-.15,.03Z"/>
      <path class="cls-8" d="M163.71,188c-.15,0-.29-.09-.35-.23l-1.53-3.68c-.08-.19,.01-.41,.2-.49,.19-.08,.41,.01,.49,.2l1.53,3.68c.08,.19-.01,.41-.2,.49-.05,.02-.1,.03-.14,.03Z"/>
      <path class="cls-8" d="M166.59,187.57h0c-.21,0-.37-.17-.37-.38l.04-3.83c0-.21,.17-.37,.38-.37h0c.21,0,.37,.17,.37,.38l-.04,3.83c0,.21-.17,.37-.38,.37Z"/>
      <path class="cls-8" d="M172.79,188.33c-2.93,.67-3.91,4.08-4.16,4.95-.28,.98-1.07,3.72,.55,5.4,1.14,1.18,2.77,1.12,2.86,1.12,2.67-.14,4.14-3.37,4.64-4.48,.65-1.44,1.8-3.97,.48-5.72-1.01-1.33-2.98-1.59-4.37-1.28Z"/>
    </g>
    <g>
      <path class="cls-8" d="M239.82,200.49c-.12,0-.24-.06-.31-.16-.77-1.12-4.97-6.7-12.25-7.02-4.44-.21-7.83,1.69-9.46,2.83-.17,.12-.4,.08-.52-.09-.12-.17-.08-.4,.09-.52,1.71-1.19,5.26-3.17,9.92-2.96,7.64,.33,12.04,6.18,12.84,7.34,.12,.17,.07,.4-.1,.52-.07,.04-.14,.07-.21,.07Z"/>
      <path class="cls-8" d="M239.16,198.69c-.12,0-.23-.05-.31-.16-.12-.17-.08-.4,.09-.52l3.25-2.31c.17-.12,.4-.08,.52,.09,.12,.17,.08,.4-.09,.52l-3.25,2.31c-.07,.05-.14,.07-.22,.07Z"/>
      <path class="cls-8" d="M236.95,196.8c-.07,0-.13-.02-.2-.05-.18-.11-.23-.34-.12-.52l1.99-3.27c.11-.18,.34-.23,.52-.12,.18,.11,.23,.34,.12,.52l-1.99,3.27c-.07,.12-.19,.18-.32,.18Z"/>
      <path class="cls-8" d="M231.09,194.11c2.13,2.12,1.16,5.53,.91,6.41-.28,.98-1.06,3.72-3.33,4.29-1.59,.4-2.94-.51-3.02-.57-2.19-1.53-1.72-5.05-1.56-6.26,.21-1.57,.57-4.32,2.62-5.11,1.56-.6,3.37,.23,4.38,1.23Z"/>
    </g>
    <path class="cls-6" d="M199.4,217.31s-.04,0-.05,0l-18.23-1.92c-.17-.02-.33-.13-.4-.29-.07-.16-.06-.34,.04-.49l19.54-29.17c.12-.19,.36-.27,.57-.2,.21,.07,.35,.27,.34,.5l-1.31,31.09c0,.14-.07,.27-.17,.36-.09,.08-.21,.12-.33,.12Zm-17.35-2.83l16.88,1.78,1.21-28.78-18.09,27.01Z"/>
    <path class="cls-6" d="M223.01,246.07c-.32,0-.6-.23-.65-.56-.28-1.7-2.4-16.9,9.33-27.99,10.7-10.11,24.07-8.52,26.65-8.1,.36,.06,.61,.4,.55,.76-.06,.36-.41,.6-.76,.55-2.46-.41-15.28-1.93-25.52,7.75-11.24,10.62-9.2,25.18-8.94,26.81,.06,.36-.18,.7-.55,.76-.04,0-.07,0-.11,0Z"/>
    <path class="cls-6" d="M177.76,235.7c-.05,0-.11,0-.17-.02-.35-.09-.57-.45-.48-.81,2.59-10.03-.35-19.81-7.3-24.33-3.88-2.52-8.18-2.79-11.09-2.57-.36,.03-.68-.25-.71-.61s.25-.68,.61-.71c3.12-.23,7.72,.05,11.92,2.78,7.44,4.83,10.6,15.18,7.87,25.77-.08,.3-.35,.5-.64,.5Z"/>
  </g>
  <g>
    <polygon class="cls-3" points="287.45 487.73 188.49 487.73 188.49 381.31 287.45 372.99 287.45 487.73"/>
    <polygon class="cls-4" points="209.7 487.73 242.88 487.73 254.07 423.42 209.7 487.73"/>
    <polygon class="cls-12" points="345.13 487.73 242.6 487.73 253.47 423.42 329.3 423.42 345.13 487.73"/>
    <path class="cls-9" d="M224.75,327.04c5.65,3.59,11.2,5.63,15.9,6.79l-36.16-6.5v-23.75c2.03,4.52,7.71,15.47,20.27,23.46Z"/>
    <path class="cls-9" d="M250.46,335.35v.24l-2.68-.48c1.01,.11,1.91,.19,2.68,.24Z"/>
    <path class="cls-4" d="M319.03,379.35h30.88v61.92c0,8.52-6.92,15.44-15.44,15.44h0c-8.52,0-15.44-6.92-15.44-15.44v-61.92h0Z" transform="translate(230.41 -107.13) rotate(27.46)"/>
    <polygon class="cls-4" points="303.48 423.42 285.47 436.14 271.42 423.42 271.42 394.53 303.48 394.53 303.48 423.42"/>
    <rect class="cls-12" x="224.57" y="345.03" width="24.57" height="44.23"/>
    <path class="cls-12" d="M250.46,335.35v6.47c0,12.33-10,22.33-22.33,22.33h-18.11c-3.05,0-5.53-2.48-5.53-5.54v-55.02c2.03,4.52,7.71,15.47,20.27,23.46,5.65,3.59,11.2,5.63,15.9,6.79l7.12,1.28h0c1.01,.11,1.91,.19,2.68,.24Z"/>
    <path class="cls-3" d="M274.21,293.26l-5.34,45.64-18.41-3.31v-.24c-.77-.05-1.68-.12-2.68-.24h0l-7.12-1.28c-4.7-1.16-10.25-3.21-15.9-6.79-12.55-7.98-18.23-18.94-20.27-23.46v23.75l-5.03-35.25,26.07-11.84,48.69,13.02Z"/>
    <circle class="cls-3" cx="285.39" cy="358.46" r="42.72"/>
    <rect class="cls-3" x="242.67" y="357.9" width="21.17" height="51.22"/>
    <polygon class="cls-12" points="303.48 399.1 268.57 415.08 249.14 399.1 249.14 341.39 303.48 341.39 303.48 399.1"/>
    <polygon class="cls-3" points="294.12 409.11 328.11 409.11 328.11 356.67 294.12 332.28 294.12 409.11"/>
    <path class="cls-3" d="M248.96,364.18c1.92-.29,8.67-4.7,13.94-10.72,4.18-4.77,5.18-9.95,5.46-12.07,.06,2.34,.52,8.45,4.94,14.01,7.48,9.43,19.6,8.83,20.82,8.74v-26.82h-44.98s-.18,26.86-.18,26.86Z"/>
    <rect class="cls-4" x="141.75" y="300.89" width="16.8" height="112.84"/>
    <rect class="cls-3" x="93.79" y="403.89" width="63.5" height="83.84"/>
    <polygon class="cls-4" points="141.75 403.89 131.42 425.23 105.9 403.89 141.75 403.89"/>
    <path class="cls-12" d="M141.75,356.86c-3.1-1.06-8.81-2.56-15.97-1.84-6.78,.69-11.85,3.06-14.67,4.65-2.63,3.94-5.25,7.87-7.88,11.81l-4.03,12.42h0c0,15.01,12.17,27.17,27.17,27.17h15.37v-54.2Z"/>
    <polygon class="cls-12" points="123.03 487.73 209.7 487.73 209.7 432.52 157.02 417.74 139.65 441.87 123.03 487.73"/>
    <polygon class="cls-3" points="157.02 417.74 186.49 446.03 195.71 427.49 157.02 417.74"/>
    <path class="cls-3" d="M141.75,356.86c-1.86-3.23-6.99-11.14-17.13-16.02-13.53-6.53-26.24-2.98-29.25-2.05,0,14.83,7.87,31.78,7.87,46.61l7.88-25.73c2.81-1.58,7.88-3.96,14.67-4.65,7.16-.72,12.87,.78,15.97,1.84Z"/>
    <polygon class="cls-3" points="137.86 369.61 145.64 386.29 137.86 390.05 137.86 369.61"/>
    <path class="cls-12" d="M209.69,383.29c0,17.56-14.24,31.79-31.79,31.79-7.98,0-15.29-2.95-20.88-7.82,2.35-1.5,9.76-6.61,13.27-16.63,4.16-11.88-.16-22.03-1.16-24.21,4.18,2.59,12.18,6.75,22.98,7.53,6.45,.46,11.87-.42,15.72-1.39,1.2,3.35,1.86,6.97,1.86,10.74Z"/>
    <path class="cls-12" d="M165.53,421.73l22.96,10.79,21.2-14.79v-34.44h-52.67v25.05c0,5.74,3.31,10.96,8.51,13.4Z"/>
    <polygon class="cls-3" points="195.71 386.39 195.71 407.91 205.31 407.91 195.71 386.39"/>
    <polygon class="cls-3" points="263.89 366.42 263.89 387.95 254.3 387.95 263.89 366.42"/>
    <path class="cls-3" d="M207.84,372.56c-3.85,.97-9.27,1.86-15.72,1.39-10.81-.78-18.81-4.93-22.98-7.53,1,2.19,5.32,12.34,1.16,24.21-3.51,10.02-10.92,15.12-13.27,16.63-6.7-5.81-10.93-14.4-10.93-23.97,0-17.57,14.24-31.8,31.8-31.8,13.79,0,25.53,8.78,29.94,21.07Z"/>
    <path class="cls-4" d="M234.9,372.45h6.05c4.52,0,8.19,3.67,8.19,8.19v22.45c0,4.32-3.51,7.83-7.83,7.83h-7.33c-7.62,0-13.81-6.19-13.81-13.81v-9.94c0-8.13,6.6-14.73,14.73-14.73Z"/>
    <path class="cls-12" d="M250.95,410.57l-12.75,43.05c-2.01,6.8-9.16,10.68-15.96,8.66l-16.8-4.98,19.57-54.42,25.94,7.69Z"/>
    <path class="cls-15" d="M160.21,436.91c-1.31-.27-2.67-.41-4.06-.44,.15,0,.3,0,.45,0,1.08,0,2.17,.11,3.27,.37l.34,.08Z"/>
    <path class="cls-12" d="M229.25,382.49h5.24c4.52,0,8.19,3.67,8.19,8.19v22.45c0,4.32-3.51,7.83-7.83,7.83h-1.98c-10.57,0-19.16-8.58-19.16-19.16v-3.78c0-8.58,6.96-15.54,15.54-15.54Z"/>
    <path class="cls-4" d="M240.86,420.39l-13.95,47.08c-1.48,5-5.85,8.61-11.04,9.13l-55.64,5.52-4.51,.45c-12.72,0-23.05-10.32-23.05-23.06s10.32-23.05,23.05-23.05c.15,0,.28,0,.43,0,1.39,.02,2.75,.17,4.06,.44l1.46,.33,32.02,7.31,18.66-29.47,28.51,5.3Z"/>
    <rect class="cls-4" x="335.12" y="333.86" width="30.88" height="56.95"/>
    <polygon class="cls-3" points="204.48 327.33 193.84 347.25 204.48 347.25 204.48 327.33"/>
    <path class="cls-3" d="M178.44,415.18c-.69-.81,.04-2.02,1.08-1.81,1.85,.38,4.03,.66,6.47,.67,2.27,0,4.31-.22,6.08-.55,1.09-.2,1.77,1.13,.97,1.9-2.37,2.26-4.74,4.52-7.11,6.78-.46,.44-1.2,.4-1.62-.08l-5.88-6.91Z"/>
    <path class="cls-3" d="M258.67,396.37c-.69-.81,.04-2.02,1.08-1.81,1.85,.38,4.03,.66,6.47,.67,2.27,0,4.31-.22,6.08-.55,1.09-.2,1.77,1.13,.97,1.9-2.37,2.26-4.74,4.52-7.11,6.78-.46,.44-1.2,.4-1.62-.08l-5.88-6.91Z"/>
    <path class="cls-3" d="M125.17,396.37c-.69-.81,.04-2.02,1.08-1.81,1.85,.38,4.03,.66,6.47,.67,2.27,0,4.31-.22,6.08-.55,1.09-.2,1.77,1.13,.97,1.9-2.37,2.26-4.74,4.52-7.11,6.78-.46,.44-1.2,.4-1.62-.08l-5.88-6.91Z"/>
    <path class="cls-3" d="M211.04,349.4h9.67c1.15,0,1.77,1.34,1.02,2.21-1.15,1.34-2.79,2.88-5.05,4.12-2,1.1-3.9,1.65-5.4,1.94-.83,.16-1.59-.48-1.59-1.32,0-1.87,0-3.74,0-5.61,0-.74,.6-1.34,1.34-1.34Z"/>
    <rect class="cls-12" x="84.34" y="300.89" width="18.89" height="112.84"/>
    <path class="cls-4" d="M77.78,403.89h25.46v34.46h0c-14.05,0-25.46-11.41-25.46-25.46v-9h0Z"/>
    <rect class="cls-3" x="232.3" y="382.49" width="2" height="18.69"/>
    <rect class="cls-3" x="225.18" y="382.49" width="2" height="18.69"/>
    <rect class="cls-3" x="218.07" y="384.79" width="2" height="16.39"/>
    <path class="cls-4" d="M236.35,420.99c-.55,0-1-.45-1-1s.45-1,1-1c3.39,0,6.14-2.76,6.14-6.14v-5.72c0-.55,.45-1,1-1s1,.45,1,1v5.72c0,4.49-3.65,8.14-8.14,8.14Z"/>
    <g>
      <path class="cls-12" d="M80.78,284.08h18.71c4.12,0,7.46,3.34,7.46,7.46v11.73c0,4.12-3.34,7.46-7.46,7.46h-10.03c-8.91,0-16.15-7.24-16.15-16.15v-3.05c0-4.12,3.34-7.46,7.46-7.46Z"/>
      <path class="cls-4" d="M96.63,290.91h0s-7.38,4.26-7.38,4.26c-1.14,.66-1.54,2.13-.89,3.27,1.32,2.29,4.24,3.08,6.53,1.76l1.75-1.01v1.58c0,3.75,2.89,7.03,6.64,7.14,3.88,.12,7.07-3,7.07-6.85h0c0-1.83-1.02-3.52-2.65-4.37l-11.07-5.79Z"/>
      <path class="cls-4" d="M95.35,302.48h-17.15c-2.97,0-5.38-2.42-5.38-5.38,0-.28,.22-.5,.5-.5s.5,.22,.5,.5c0,2.42,1.97,4.38,4.38,4.38h17.15c2.14,0,3.89-1.74,3.89-3.89v-8.1c0-1.42,1.15-2.57,2.57-2.57,.28,0,.5,.22,.5,.5s-.22,.5-.5,.5c-.87,0-1.57,.7-1.57,1.57v8.1c0,2.69-2.19,4.89-4.89,4.89Z"/>
      <path class="cls-4" d="M79.45,302.48c-.28,0-.5-.22-.5-.5v-11.07c0-.28,.22-.5,.5-.5s.5,.22,.5,.5v11.07c0,.28-.22,.5-.5,.5Z"/>
      <path class="cls-4" d="M86.17,302.48c-.28,0-.5-.22-.5-.5v-11.07c0-.28,.22-.5,.5-.5s.5,.22,.5,.5v11.07c0,.28-.22,.5-.5,.5Z"/>
      <path class="cls-4" d="M92.77,302.48c-.28,0-.5-.22-.5-.5v-11.07c0-.28,.22-.5,.5-.5s.5,.22,.5,.5v11.07c0,.28-.22,.5-.5,.5Z"/>
    </g>
    <g>
      <path class="cls-4" d="M155.1,278.29h6.54c4.12,0,7.46,3.34,7.46,7.46v8.97c0,4.12-3.34,7.46-7.46,7.46h-15.23c-4.12,0-7.46-3.34-7.46-7.46v-.28c0-8.91,7.24-16.15,16.15-16.15Z" transform="translate(308.06 580.48) rotate(-180)"/>
      <path class="cls-3" d="M148.21,284.42h0s6.62,3.82,6.62,3.82c1.03,.59,1.38,1.91,.79,2.93-1.18,2.06-3.8,2.76-5.86,1.58l-1.57-.91v1.42c0,3.36-2.59,6.3-5.96,6.4-3.48,.1-6.33-2.69-6.33-6.14h0c0-1.64,.91-3.15,2.37-3.91l9.93-5.19Z"/>
      <g>
        <path class="cls-3" d="M164.73,294.84h-15.37c-2.44,0-4.43-1.99-4.43-4.43v-7.26c0-.75-.61-1.36-1.36-1.36-.28,0-.5-.22-.5-.5s.22-.5,.5-.5c1.3,0,2.36,1.06,2.36,2.36v7.26c0,1.89,1.54,3.43,3.43,3.43h15.37c2.14,0,3.88-1.74,3.88-3.88,0-.28,.22-.5,.5-.5s.5,.22,.5,.5c0,2.69-2.19,4.88-4.88,4.88Z"/>
        <path class="cls-3" d="M163.61,294.84c-.28,0-.5-.22-.5-.5v-9.92c0-.28,.22-.5,.5-.5s.5,.22,.5,.5v9.92c0,.28-.22,.5-.5,.5Z"/>
        <path class="cls-3" d="M157.59,294.84c-.28,0-.5-.22-.5-.5v-9.92c0-.28,.22-.5,.5-.5s.5,.22,.5,.5v9.92c0,.28-.22,.5-.5,.5Z"/>
        <path class="cls-3" d="M151.67,294.84c-.28,0-.5-.22-.5-.5v-9.92c0-.28,.22-.5,.5-.5s.5,.22,.5,.5v9.92c0,.28-.22,.5-.5,.5Z"/>
      </g>
    </g>
    <g>
      <path class="cls-12" d="M347.12,300.64h18.36c4.12,0,7.46,3.34,7.46,7.46v16.25c0,5.27-4.28,9.55-9.55,9.55h-22.88c-5.27,0-9.55-4.28-9.55-9.55v-7.56c0-8.91,7.24-16.15,16.15-16.15Z" transform="translate(703.91 634.54) rotate(-180)"/>
      <g>
        <path class="cls-4" d="M366.85,323.98h-21.39c-3.57,0-6.47-2.9-6.47-6.47v-10.11c0-.87-.71-1.58-1.58-1.58-.55,0-1-.45-1-1s.45-1,1-1c1.98,0,3.58,1.61,3.58,3.58v10.11c0,2.47,2.01,4.47,4.47,4.47h21.39c2.81,0,5.09-2.29,5.09-5.09,0-.55,.45-1,1-1s1,.45,1,1c0,3.91-3.18,7.09-7.09,7.09Z"/>
        <path class="cls-4" d="M365.29,323.98c-.55,0-1-.45-1-1v-13.81c0-.55,.45-1,1-1s1,.45,1,1v13.81c0,.55-.45,1-1,1Z"/>
        <path class="cls-4" d="M356.9,323.98c-.55,0-1-.45-1-1v-13.81c0-.55,.45-1,1-1s1,.45,1,1v13.81c0,.55-.45,1-1,1Z"/>
        <path class="cls-4" d="M348.67,323.98c-.55,0-1-.45-1-1v-13.81c0-.55,.45-1,1-1s1,.45,1,1v13.81c0,.55-.45,1-1,1Z"/>
      </g>
      <path class="cls-4" d="M343.86,309.17h0s9.21,5.32,9.21,5.32c1.43,.82,1.93,2.65,1.1,4.08-1.64,2.86-5.29,3.84-8.15,2.2l-2.18-1.26v1.98c0,4.68-3.61,8.77-8.29,8.91-4.84,.15-8.82-3.74-8.82-8.55h0c0-2.29,1.27-4.39,3.3-5.45l13.82-7.22Z"/>
    </g>
  </g>
  <polygon class="cls-10" points="314.37 139 283.02 292.84 333.35 144.57 314.37 139"/>
  <polygon class="cls-10" points="362.28 139.23 297.08 282.04 379.52 148.93 362.28 139.23"/>
</svg>