<?xml version="1.0" encoding="UTF-8"?>
<svg id="Layer_2" data-name="Layer 2" xmlns="http://www.w3.org/2000/svg" xmlns:xlink="http://www.w3.org/1999/xlink" viewBox="0 0 173.34 247.33">
  <defs>
    <style>
      .cls-1 {
        fill: #fff;
      }

      .cls-2 {
        fill: #181216;
      }

      .cls-3 {
        fill: #ff8080;
      }

      .cls-4 {
        fill: #ef9d7f;
      }

      .cls-5 {
        fill: #363636;
      }

      .cls-6, .cls-7, .cls-8, .cls-9, .cls-10, .cls-11, .cls-12 {
        stroke-linejoin: round;
      }

      .cls-6, .cls-7, .cls-8, .cls-9, .cls-10, .cls-13, .cls-12 {
        fill: none;
      }

      .cls-6, .cls-8 {
        stroke-width: .79px;
      }

      .cls-6, .cls-8, .cls-10, .cls-11 {
        stroke: #f80500;
      }

      .cls-6, .cls-11 {
        stroke-linecap: round;
      }

      .cls-7 {
        stroke: #b72c2c;
      }

      .cls-7, .cls-8, .cls-9, .cls-10, .cls-12 {
        stroke-linecap: square;
      }

      .cls-7, .cls-10 {
        stroke-width: .78px;
      }

      .cls-14 {
        fill: #eeb2ff;
      }

      .cls-15, .cls-11 {
        fill: #f55;
      }

      .cls-16 {
        fill: #e58e73;
      }

      .cls-17 {
        fill: #307f46;
      }

      .cls-9 {
        stroke: #363636;
      }

      .cls-9, .cls-12 {
        stroke-width: .79px;
      }

      .cls-11 {
        stroke-width: .84px;
      }

      .cls-18 {
        clip-path: url(#clippath);
      }

      .cls-19 {
        fill: #b72c2c;
      }

      .cls-12 {
        stroke: #181216;
      }

      .cls-20 {
        fill: #4ea978;
      }
    </style>
    <clipPath id="clippath">
      <rect class="cls-13" x="6.13" y="7.65" width="160.53" height="198.84" rx="14.3" ry="14.3"/>
    </clipPath>
  </defs>
  <rect class="cls-14" y=".42" width="173.34" height="246.49" rx="13.2" ry="13.2"/>
  <rect class="cls-17" x="6.13" y="7.65" width="160.53" height="198.84" rx="14.3" ry="14.3"/>
  <g class="cls-18">
    <path class="cls-20" d="M-10.68,.05C52.92-.23,116.53-.51,180.14-.78c6.1,97.32-9.43,165.77-94.78,164.52C0,162.48-15.98,97.35-10.68,.05Z"/>
    <g>
      <polygon class="cls-5" points="48.63 49.66 80.77 27.1 133.26 47.57 127.49 91.24 113.45 99.48 48.63 49.66"/>
      <g>
        <polygon class="cls-5" points="130.96 98.24 144.03 104.09 135.45 124.77 116.73 117.65 118.4 98.24 130.96 98.24"/>
        <polyline class="cls-12" points="131.63 122.89 133.79 112.93 118.96 105.29"/>
        <polyline class="cls-12" points="128.38 103.22 137.58 111.5 133.78 123.79"/>
      </g>
      <g>
        <polygon class="cls-16" points="119.91 90.49 130.05 86.9 131.12 103.56 119.91 105.8 119.91 90.49"/>
        <path class="cls-8" d="M120.09,98.86c1.54-1.94,3.07-3.88,4.61-5.82,.86-.36,1.72-.72,2.59-1.08"/>
      </g>
      <polygon class="cls-16" points="103.93 124.85 112.97 151 99.21 170.01 79.45 151 75.14 136.11 103.93 124.85"/>
      <path class="cls-15" d="M43.58,145.42c-10.85,23.57-32.18,68.78-32.18,68.78l149.98-1.7-17.98-66.06-32.06-.14-12.26,8.94,.13,13.5-3.9-12.98-17.47-10.35"/>
      <path class="cls-4" d="M119.98,71.42l.11,41.84c0,2.9-1.53,5.59-4.03,7.05l-35.35,20.77c-2.19,1.28-4.93,1.1-6.93-.46l-22.53-17.62c-2.55-1.99-4.01-5.07-3.94-8.3l.65-43.01,31.31-18.92,40.71,18.64Z"/>
      <path class="cls-11" d="M73.1,82.31c.25,8.86,.76,26.59,.76,26.59l-8.09,.16s-2.04-19.18,7.33-26.75Z"/>
      <path class="cls-6" d="M119.69,109.62c-2-.36-6.09-.82-10.79,.78-1.84,.63-7.55,2.68-11.06,8.74-3.35,5.81-2.51,11.55-2.21,13.19"/>
      <path class="cls-6" d="M62.64,131.91c.16-1.42,1.16-10.88-3.98-17.27-4.07-5.06-9.38-6.55-11.12-6.97"/>
      <g>
        <g>
          <path class="cls-4" d="M94.01,155.22c3.56-6.04,27.45-19.83,27.45-19.83l8.08,13.08s-17.88,13.58-18.46,15.99"/>
          <path class="cls-10" d="M111.36,145.78c3.53-2.22,7.06-4.45,10.6-6.67"/>
          <path class="cls-10" d="M116.99,153.78c3.21-2.68,6.43-5.36,9.64-8.04"/>
          <path class="cls-10" d="M114.04,149.27c3.66-2.5,7.31-5,10.97-7.49"/>
        </g>
        <path class="cls-19" d="M98.41,145.86s-56.5,49.74-79.08,69.61h56.8c12.91-18.21,32.49-40,38.47-50.55l-16.2-19.06Z"/>
      </g>
      <g>
        <g>
          <path class="cls-4" d="M80.45,153.64c-3.6-6.02-27.56-19.67-27.56-19.67l-8.01,13.13,11.09,9.06s6.87,4.42,7.46,6.83"/>
          <path class="cls-10" d="M62.66,143.28c-3.54-2.2-7.09-4.41-10.63-6.61"/>
          <path class="cls-10" d="M57.35,152.44c-3.23-2.66-6.46-5.32-9.69-7.99"/>
          <path class="cls-10" d="M60.69,147.9c-3.67-2.48-7.34-4.95-11.01-7.43"/>
        </g>
        <path class="cls-3" d="M76,144.3s52.47,50.11,75.16,69.85l-51.04,1.32c-13.12-18.29-35.09-42.56-40.17-52.06l16.05-19.11Z"/>
      </g>
      <polyline class="cls-7" points="75.79 122.96 84.06 116.63 86.57 117.61"/>
      <g>
        <path class="cls-5" d="M47.59,95.96c1.07,.83,1.46,1.96,5.36,3.24s8.6-1.87,8.6-1.87l.54,.89s-4.19,3.01-8.32,2.36-5.99-2.74-6.97-3.54l.79-1.08Z"/>
        <polygon class="cls-5" points="46.16 99.18 46.8 97.04 48.46 98.11 46.16 99.18"/>
      </g>
      <g>
        <path class="cls-5" d="M99.52,95.76c-1.07,.83-1.46,1.96-5.36,3.24s-8.6-1.87-8.6-1.87l-.54,.89s4.19,3.01,8.32,2.36c4.13-.65,5.99-2.74,6.97-3.54l-.79-1.08Z"/>
        <polygon class="cls-5" points="100.95 98.97 100.32 96.84 98.65 97.9 100.95 98.97"/>
      </g>
      <path class="cls-5" d="M91.98,57.87c-15.26,8.78-44.32,26.31-44.32,26.31l.07-34.54s23.37,.23,33.39-.13c3.6,3.12,7.26,5.23,10.86,8.35Z"/>
      <path class="cls-2" d="M66.48,49.28s36.2,28.74,54.31,44.06c-.45-10.92-.83-21.94-1.13-33.06-.11-4.03-.21-8.05-.3-12.06-17.63,.35-35.25,.71-52.88,1.06Z"/>
      <line class="cls-12" x1="132.69" y1="47.9" x2="48.14" y2="49.92"/>
      <line class="cls-9" x1="103.46" y1="45.44" x2="119.81" y2="91.58"/>
      <line class="cls-9" x1="83.8" y1="47.47" x2="119.55" y2="90.83"/>
      <polygon class="cls-2" points="61.5 81.19 42 77.27 42.62 70.39 62.71 78.67 61.5 81.19"/>
      <polygon class="cls-2" points="86.23 81.84 105.73 77.91 105.11 71.04 85.02 79.32 86.23 81.84"/>
    </g>
  </g>
  <g>
    <path class="cls-1" d="M25.81,218.84v2.82h-3.01v8.51h-3.55v-8.51h-2.98v-2.82h9.54Z"/>
    <path class="cls-1" d="M27.88,219.92c-.37-.33-.56-.75-.56-1.25s.19-.94,.56-1.27c.38-.34,.87-.5,1.49-.5s1.1,.17,1.47,.5,.56,.76,.56,1.27-.19,.92-.56,1.25c-.37,.33-.86,.5-1.47,.5s-1.11-.17-1.49-.5Zm3.25,1.22v9.02h-3.55v-9.02h3.55Z"/>
    <path class="cls-1" d="M33.53,223.18c.32-.7,.77-1.23,1.34-1.6,.56-.37,1.2-.55,1.9-.55,.59,0,1.09,.12,1.52,.36,.43,.24,.75,.57,.98,.98v-1.23h3.54v9.02h-3.54v-1.23c-.22,.42-.55,.74-.98,.98s-.93,.36-1.52,.36c-.71,0-1.34-.18-1.9-.55-.57-.37-1.01-.9-1.34-1.6-.33-.7-.49-1.52-.49-2.47s.16-1.77,.49-2.47Zm5.37,1.35c-.24-.27-.56-.4-.94-.4s-.7,.13-.94,.4c-.25,.27-.37,.64-.37,1.12s.12,.85,.37,1.12c.24,.27,.56,.4,.94,.4s.7-.13,.94-.4c.25-.27,.37-.64,.37-1.12s-.12-.85-.37-1.12Z"/>
    <path class="cls-1" d="M45.21,223.18c.33-.7,.77-1.23,1.34-1.6,.57-.37,1.2-.55,1.9-.55,.59,0,1.09,.12,1.51,.36,.42,.24,.74,.57,.97,.98v-4.05h3.55v11.84h-3.55v-1.23c-.22,.42-.55,.74-.97,.98-.42,.24-.92,.36-1.51,.36-.7,0-1.34-.18-1.9-.55-.56-.37-1.01-.9-1.34-1.6-.32-.7-.49-1.52-.49-2.47s.16-1.77,.49-2.47Zm5.37,1.35c-.25-.27-.56-.4-.94-.4s-.7,.13-.95,.4c-.24,.27-.37,.64-.37,1.12s.12,.85,.37,1.12c.25,.27,.56,.4,.95,.4s.7-.13,.94-.4c.24-.27,.37-.64,.37-1.12s-.12-.85-.37-1.12Z"/>
    <path class="cls-1" d="M56.89,223.18c.33-.7,.77-1.23,1.34-1.6,.57-.37,1.2-.55,1.9-.55,.59,0,1.09,.12,1.52,.36,.43,.24,.75,.57,.97,.98v-1.23h3.54v9.02h-3.54v-1.23c-.22,.42-.55,.74-.97,.98-.43,.24-.93,.36-1.52,.36-.7,0-1.34-.18-1.9-.55-.56-.37-1.01-.9-1.34-1.6-.32-.7-.49-1.52-.49-2.47s.16-1.77,.49-2.47Zm5.37,1.35c-.25-.27-.56-.4-.94-.4s-.7,.13-.95,.4c-.24,.27-.37,.64-.37,1.12s.12,.85,.37,1.12c.25,.27,.56,.4,.95,.4s.7-.13,.94-.4c.24-.27,.37-.64,.37-1.12s-.12-.85-.37-1.12Z"/>
    <path class="cls-1" d="M72.09,223.18c.33-.7,.77-1.23,1.34-1.6,.57-.37,1.2-.55,1.9-.55,.59,0,1.09,.12,1.52,.36,.43,.24,.75,.57,.97,.98v-1.23h3.54v9.02h-3.54v-1.23c-.22,.42-.55,.74-.97,.98-.43,.24-.93,.36-1.52,.36-.7,0-1.34-.18-1.9-.55-.56-.37-1.01-.9-1.34-1.6-.32-.7-.49-1.52-.49-2.47s.16-1.77,.49-2.47Zm5.37,1.35c-.25-.27-.56-.4-.94-.4s-.7,.13-.95,.4c-.24,.27-.37,.64-.37,1.12s.12,.85,.37,1.12c.25,.27,.56,.4,.95,.4s.7-.13,.94-.4c.24-.27,.37-.64,.37-1.12s-.12-.85-.37-1.12Z"/>
    <path class="cls-1" d="M88.28,221.39c.42-.24,.93-.36,1.51-.36,.71,0,1.34,.18,1.9,.55s1.01,.9,1.34,1.6c.33,.7,.49,1.52,.49,2.47s-.16,1.77-.49,2.47c-.33,.7-.77,1.23-1.34,1.6-.56,.37-1.2,.55-1.9,.55-.59,0-1.09-.12-1.51-.36s-.74-.57-.97-.98v5.55h-3.55v-13.34h3.55v1.23c.22-.42,.55-.74,.97-.98Zm1.27,3.14c-.24-.27-.56-.4-.94-.4s-.7,.13-.94,.4c-.25,.27-.37,.64-.37,1.12s.12,.85,.37,1.12c.24,.27,.56,.4,.94,.4s.7-.13,.94-.4c.25-.27,.37-.64,.37-1.12s-.12-.85-.37-1.12Z"/>
    <path class="cls-1" d="M95.45,223.18c.32-.7,.77-1.23,1.34-1.6,.56-.37,1.2-.55,1.9-.55,.59,0,1.09,.12,1.52,.36,.43,.24,.75,.57,.98,.98v-1.23h3.54v9.02h-3.54v-1.23c-.22,.42-.55,.74-.98,.98s-.93,.36-1.52,.36c-.71,0-1.34-.18-1.9-.55-.57-.37-1.01-.9-1.34-1.6-.33-.7-.49-1.52-.49-2.47s.16-1.77,.49-2.47Zm5.37,1.35c-.24-.27-.56-.4-.94-.4s-.7,.13-.94,.4c-.25,.27-.37,.64-.37,1.12s.12,.85,.37,1.12c.24,.27,.56,.4,.94,.4s.7-.13,.94-.4c.25-.27,.37-.64,.37-1.12s-.12-.85-.37-1.12Z"/>
    <path class="cls-1" d="M114.1,223.24v2.93h-7.46v-2.93h7.46Z"/>
    <path class="cls-1" d="M117.15,223.18c.32-.7,.77-1.23,1.34-1.6,.56-.37,1.2-.55,1.9-.55,.59,0,1.09,.12,1.52,.36,.43,.24,.75,.57,.98,.98v-1.23h3.54v9.02h-3.54v-1.23c-.22,.42-.55,.74-.98,.98s-.93,.36-1.52,.36c-.71,0-1.34-.18-1.9-.55-.57-.37-1.01-.9-1.34-1.6-.33-.7-.49-1.52-.49-2.47s.16-1.77,.49-2.47Zm5.37,1.35c-.24-.27-.56-.4-.94-.4s-.7,.13-.94,.4c-.25,.27-.37,.64-.37,1.12s.12,.85,.37,1.12c.24,.27,.56,.4,.94,.4s.7-.13,.94-.4c.25-.27,.37-.64,.37-1.12s-.12-.85-.37-1.12Z"/>
    <path class="cls-1" d="M133.34,221.39c.42-.24,.93-.36,1.51-.36,.71,0,1.34,.18,1.9,.55s1.01,.9,1.34,1.6c.33,.7,.49,1.52,.49,2.47s-.16,1.77-.49,2.47c-.33,.7-.77,1.23-1.34,1.6-.56,.37-1.2,.55-1.9,.55-.59,0-1.09-.12-1.51-.36s-.74-.57-.97-.98v5.55h-3.55v-13.34h3.55v1.23c.22-.42,.55-.74,.97-.98Zm1.27,3.14c-.24-.27-.56-.4-.94-.4s-.7,.13-.94,.4c-.25,.27-.37,.64-.37,1.12s.12,.85,.37,1.12c.24,.27,.56,.4,.94,.4s.7-.13,.94-.4c.25-.27,.37-.64,.37-1.12s-.12-.85-.37-1.12Z"/>
    <path class="cls-1" d="M140.51,223.18c.33-.7,.77-1.23,1.34-1.6,.57-.37,1.2-.55,1.9-.55,.59,0,1.09,.12,1.52,.36,.43,.24,.75,.57,.97,.98v-1.23h3.54v9.02h-3.54v-1.23c-.22,.42-.55,.74-.97,.98-.43,.24-.93,.36-1.52,.36-.7,0-1.34-.18-1.9-.55-.56-.37-1.01-.9-1.34-1.6-.32-.7-.49-1.52-.49-2.47s.16-1.77,.49-2.47Zm5.37,1.35c-.25-.27-.56-.4-.94-.4s-.7,.13-.95,.4c-.24,.27-.37,.64-.37,1.12s.12,.85,.37,1.12c.25,.27,.56,.4,.95,.4s.7-.13,.94-.4c.24-.27,.37-.64,.37-1.12s-.12-.85-.37-1.12Z"/>
    <path class="cls-1" d="M153.54,229.8c-.38-.33-.56-.75-.56-1.25s.19-.94,.56-1.27c.37-.34,.87-.5,1.49-.5s1.1,.17,1.47,.5,.56,.76,.56,1.27-.19,.92-.56,1.25c-.37,.33-.86,.5-1.47,.5s-1.12-.17-1.49-.5Zm3.42-11.71l-.42,7.58h-3.04l-.42-7.58h3.87Z"/>
  </g>
</svg>