<?xml version="1.0" encoding="UTF-8"?>
<svg id="Layer_2" data-name="Layer 2" xmlns="http://www.w3.org/2000/svg" xmlns:xlink="http://www.w3.org/1999/xlink" viewBox="0 0 248.63 306.02">
  <defs>
    <style>
      .cls-1 {
        fill: #fff;
      }

      .cls-2 {
        fill: #181216;
      }

      .cls-3 {
        fill: #ff8080;
      }

      .cls-4 {
        fill: #ef9d7f;
      }

      .cls-5 {
        fill: #363636;
      }

      .cls-6 {
        fill: #eeb2ff;
      }

      .cls-7 {
        fill: #f55;
      }

      .cls-8 {
        fill: #e58e73;
      }

      .cls-9 {
        fill: #f80500;
      }

      .cls-10 {
        fill: #307f46;
      }

      .cls-11 {
        clip-path: url(#clippath);
      }

      .cls-12 {
        fill: none;
      }

      .cls-13 {
        fill: #b72c2c;
      }

      .cls-14 {
        fill: #4ea978;
      }
    </style>
    <clipPath id="clippath">
      <rect class="cls-12" x="42.77" y="41.2" width="160.53" height="198.84" rx="14.3" ry="14.3"/>
    </clipPath>
  </defs>
  <rect class="cls-6" x="36.64" y="33.97" width="173.34" height="246.49" rx="13.2" ry="13.2"/>
  <rect class="cls-10" x="42.77" y="41.2" width="160.53" height="198.84" rx="14.3" ry="14.3"/>
  <g>
    <path class="cls-1" d="M88.25,268.11h-3.48l-5.82-9.21v9.21h-3.48v-14.94h3.48l5.82,9.25v-9.25h3.48v14.94Z"/>
    <path class="cls-1" d="M93.96,267.54c-.89-.5-1.59-1.21-2.1-2.13-.51-.92-.76-2-.76-3.23s.26-2.29,.77-3.22c.51-.93,1.22-1.64,2.12-2.14,.9-.5,1.9-.74,3.01-.74s2.12,.25,3.01,.74c.9,.5,1.6,1.21,2.12,2.14,.51,.93,.77,2,.77,3.22s-.26,2.29-.78,3.22c-.52,.93-1.23,1.64-2.14,2.14-.9,.5-1.91,.74-3.02,.74s-2.11-.25-3-.74Zm4.7-3.17c.47-.51,.7-1.24,.7-2.19s-.23-1.68-.68-2.19c-.46-.51-1.01-.77-1.68-.77s-1.24,.25-1.69,.76c-.45,.5-.67,1.24-.67,2.2s.22,1.68,.66,2.19c.44,.51,.99,.77,1.66,.77s1.23-.26,1.7-.77Z"/>
    <path class="cls-1" d="M112.09,265.03v3.08h-1.77c-1.26,0-2.25-.32-2.95-.97s-1.06-1.7-1.06-3.16v-4.72h-1.38v-3.02h1.38v-2.89h3.48v2.89h2.28v3.02h-2.28v4.77c0,.35,.08,.61,.24,.77,.16,.16,.43,.23,.81,.23h1.24Z"/>
    <path class="cls-1" d="M125.15,257.46c.79,.9,1.18,2.14,1.18,3.71v6.94h-3.46v-6.45c0-.79-.2-1.41-.59-1.85-.39-.44-.92-.66-1.59-.66s-1.19,.22-1.59,.66c-.39,.44-.59,1.06-.59,1.85v6.45h-3.48v-15.74h3.48v5.47c.35-.52,.83-.94,1.44-1.25,.61-.31,1.29-.47,2.05-.47,1.3,0,2.35,.45,3.13,1.35Z"/>
    <path class="cls-1" d="M130.02,254.44c-.39-.38-.58-.84-.58-1.39s.19-1.04,.58-1.42c.39-.38,.88-.56,1.5-.56s1.09,.19,1.47,.56c.39,.38,.58,.85,.58,1.42s-.19,1.02-.58,1.39c-.39,.38-.88,.56-1.47,.56s-1.11-.19-1.5-.56Zm3.22,1.8v11.87h-3.48v-11.87h3.48Z"/>
    <path class="cls-1" d="M146.89,257.46c.79,.9,1.19,2.14,1.19,3.71v6.94h-3.46v-6.45c0-.79-.2-1.41-.59-1.85-.39-.44-.92-.66-1.59-.66s-1.19,.22-1.59,.66c-.39,.44-.59,1.06-.59,1.85v6.45h-3.48v-11.87h3.48v1.57c.35-.52,.83-.94,1.42-1.24s1.27-.46,2.01-.46c1.33,0,2.39,.45,3.18,1.35Z"/>
    <path class="cls-1" d="M157.93,256.58c.6,.34,1.07,.79,1.39,1.34v-1.68h3.48v11.85c0,1.09-.21,2.08-.62,2.97-.41,.89-1.04,1.59-1.89,2.12s-1.9,.79-3.16,.79c-1.68,0-3.04-.42-4.09-1.24-1.04-.83-1.64-1.95-1.79-3.37h3.44c.11,.45,.37,.81,.77,1.07,.41,.26,.91,.39,1.5,.39,.72,0,1.29-.22,1.72-.65,.43-.43,.64-1.12,.64-2.07v-1.68c-.34,.55-.81,1-1.4,1.35s-1.29,.52-2.09,.52c-.94,0-1.78-.25-2.54-.75-.76-.5-1.36-1.22-1.8-2.15-.44-.93-.66-2-.66-3.22s.22-2.29,.66-3.21,1.04-1.63,1.8-2.13c.76-.5,1.61-.74,2.54-.74,.8,0,1.5,.17,2.11,.51Zm.67,3.45c-.48-.52-1.07-.79-1.76-.79s-1.28,.26-1.76,.78c-.48,.52-.72,1.23-.72,2.14s.24,1.63,.72,2.16,1.07,.8,1.76,.8,1.28-.26,1.76-.79c.48-.52,.72-1.24,.72-2.15s-.24-1.62-.72-2.15Z"/>
    <path class="cls-1" d="M167.6,267.72c-.39-.38-.58-.84-.58-1.39s.19-1.04,.58-1.43c.39-.38,.88-.57,1.5-.57s1.09,.19,1.47,.57,.58,.86,.58,1.43-.19,1.02-.58,1.39-.88,.56-1.47,.56-1.11-.19-1.5-.56Zm3.33-15.07l-.41,10.19h-2.95l-.41-10.19h3.76Z"/>
  </g>
  <g class="cls-11">
    <path class="cls-14" d="M25.96,33.6c63.61-.28,127.22-.56,190.82-.84,6.1,97.32-9.43,165.77-94.78,164.52S20.66,130.89,25.96,33.6Z"/>
    <g>
      <polygon class="cls-5" points="85.28 83.2 117.41 60.65 169.91 81.12 164.13 124.79 150.1 133.02 85.28 83.2"/>
      <g>
        <polygon class="cls-5" points="167.6 131.79 180.68 137.63 172.09 158.31 153.37 151.2 155.04 131.79 167.6 131.79"/>
        <path class="cls-2" d="M168.58,156.91l-.78-.17,2.18-10.05-14.91-7.68,.36-.71,15.18,7.82c.16,.08,.24,.26,.21,.44l-2.24,10.35Z"/>
        <path class="cls-2" d="M170.69,157.84l-.76-.23,3.84-12.43-9.31-8.37,.53-.59,9.5,8.54c.11,.1,.16,.26,.11,.41l-3.92,12.67Z"/>
      </g>
      <g>
        <polygon class="cls-8" points="156.55 124.03 166.69 120.44 167.76 137.11 156.55 139.34 156.55 124.03"/>
        <path class="cls-9" d="M156.8,132.97l-.62-.49,4.85-6.13c.04-.05,.1-.09,.16-.12l2.95-1.24,.31,.73-2.86,1.2-4.79,6.05Z"/>
      </g>
      <polygon class="cls-8" points="140.57 158.39 149.61 184.55 135.85 203.56 116.09 184.55 111.78 169.65 140.57 158.39"/>
      <path class="cls-7" d="M80.22,178.97c-10.85,23.57-32.18,68.78-32.18,68.78l149.98-1.7-17.98-66.06-32.06-.14-12.26,8.94,.13,13.5-3.9-12.98-17.47-10.35"/>
      <path class="cls-4" d="M156.63,104.97l.11,41.84c0,2.9-1.53,5.59-4.03,7.05l-35.35,20.77c-2.19,1.28-4.93,1.1-6.93-.46l-22.53-17.62c-2.55-1.99-4.01-5.07-3.94-8.3l.65-43.01,31.31-18.92,40.71,18.64Z"/>
      <g>
        <path class="cls-7" d="M109.74,115.85c.25,8.86,.76,26.59,.76,26.59l-8.09,.16s-2.04-19.18,7.33-26.75Z"/>
        <path class="cls-9" d="M102.41,143.03c-.22,0-.4-.16-.42-.38-.08-.79-1.95-19.5,7.48-27.13,.13-.1,.3-.12,.44-.06,.15,.07,.24,.21,.25,.37l.76,26.59c0,.11-.04,.22-.12,.3s-.18,.13-.3,.13l-8.09,.16h0Zm6.93-26.27c-7.64,7.07-6.76,22.76-6.55,25.42l7.27-.14-.72-25.28Z"/>
      </g>
      <path class="cls-9" d="M132.27,166.27c-.19,0-.36-.13-.39-.33-.5-2.71-.86-8.05,2.26-13.46,2.42-4.19,6.21-7.19,11.27-8.92,4.41-1.5,8.41-1.26,10.99-.8,.22,.04,.36,.25,.32,.46-.04,.22-.25,.36-.46,.32-2.49-.45-6.35-.68-10.6,.77-4.87,1.66-8.52,4.55-10.84,8.56-2.99,5.18-2.64,10.32-2.16,12.92,.04,.22-.1,.42-.32,.46-.02,0-.05,0-.07,0Z"/>
      <path class="cls-9" d="M99.28,165.85s-.03,0-.05,0c-.22-.03-.37-.22-.35-.44,.29-2.49,.86-11.06-3.9-16.98-3.67-4.56-8.41-6.24-10.9-6.83-.21-.05-.34-.26-.29-.48,.05-.21,.26-.35,.48-.29,2.59,.61,7.52,2.35,11.34,7.1,4.95,6.15,4.36,15,4.07,17.56-.02,.2-.2,.35-.39,.35Z"/>
      <g>
        <g>
          <path class="cls-4" d="M130.65,188.77c3.56-6.04,27.45-19.83,27.45-19.83l8.08,13.08s-17.88,13.58-18.46,15.99"/>
          <rect class="cls-9" x="146.65" y="175.6" width="13.3" height=".78" transform="translate(-70.15 108.56) rotate(-32.15)"/>
          <rect class="cls-9" x="151.79" y="182.92" width="13.33" height=".78" transform="translate(-80.62 143.89) rotate(-39.8)"/>
          <rect class="cls-9" x="149.13" y="178.68" width="14.06" height=".78" transform="translate(-73.82 119.42) rotate(-34.37)"/>
        </g>
        <path class="cls-13" d="M135.05,179.41s-56.5,49.74-79.08,69.61h56.8c12.91-18.21,32.49-40,38.47-50.55l-16.2-19.06Z"/>
      </g>
      <g>
        <g>
          <path class="cls-4" d="M117.09,187.18c-3.6-6.02-27.56-19.67-27.56-19.67l-8.01,13.13,11.09,9.06s6.87,4.42,7.46,6.83"/>
          <rect class="cls-9" x="93.6" y="166.87" width=".78" height="13.3" transform="translate(-103 161.72) rotate(-58.13)"/>
          <rect class="cls-9" x="88.75" y="175.32" width=".78" height="13.33" transform="translate(-107.99 135.02) rotate(-50.5)"/>
          <rect class="cls-9" x="91.44" y="170.7" width=".78" height="14.06" transform="translate(-106.86 154.38) rotate(-55.97)"/>
        </g>
        <path class="cls-3" d="M112.64,177.84s52.47,50.11,75.16,69.85l-51.04,1.32c-13.12-18.29-35.09-42.56-40.17-52.06l16.05-19.11Z"/>
      </g>
      <path class="cls-13" d="M112.36,157.05l-.47-.62,8.57-6.57c.11-.08,.25-.1,.38-.05l2.88,1.12-.28,.72-2.68-1.04-8.4,6.44Z"/>
      <g>
        <path class="cls-5" d="M84.23,129.51c1.07,.83,1.46,1.96,5.36,3.24s8.6-1.87,8.6-1.87l.54,.89s-4.19,3.01-8.32,2.36-5.99-2.74-6.97-3.54l.79-1.08Z"/>
        <polygon class="cls-5" points="82.8 132.72 83.44 130.59 85.1 131.66 82.8 132.72"/>
      </g>
      <g>
        <path class="cls-5" d="M136.16,129.3c-1.07,.83-1.46,1.96-5.36,3.24s-8.6-1.87-8.6-1.87l-.54,.89s4.19,3.01,8.32,2.36,5.99-2.74,6.97-3.54l-.79-1.08Z"/>
        <polygon class="cls-5" points="137.59 132.52 136.96 130.38 135.29 131.45 137.59 132.52"/>
      </g>
      <path class="cls-5" d="M128.62,91.42c-15.26,8.78-44.32,26.31-44.32,26.31l.07-34.54s23.37,.23,33.39-.13c3.6,3.12,7.26,5.23,10.86,8.35Z"/>
      <path class="cls-2" d="M103.12,82.83s36.2,28.74,54.31,44.06c-.45-10.92-.83-21.94-1.13-33.06-.11-4.03-.21-8.05-.3-12.06-17.63,.35-35.25,.71-52.88,1.06Z"/>
      <rect class="cls-2" x="84.37" y="82.06" width="85.37" height=".79" transform="translate(-1.99 3.15) rotate(-1.41)"/>
      <rect class="cls-5" x="147.88" y="77.19" width=".79" height="49.74" transform="translate(-25.58 55.41) rotate(-19.52)"/>
      <polygon class="cls-5" points="156.14 124.94 155.89 124.63 119.89 80.96 120.5 80.46 120.75 80.77 156.75 124.43 156.14 124.94"/>
      <polygon class="cls-2" points="98.14 114.74 78.64 110.81 79.26 103.94 99.35 112.22 98.14 114.74"/>
      <polygon class="cls-2" points="122.87 115.38 142.38 111.46 141.76 104.58 121.66 112.86 122.87 115.38"/>
    </g>
  </g>
</svg>