<?xml version="1.0" encoding="UTF-8"?>
<svg id="Layer_2" data-name="Layer 2" xmlns="http://www.w3.org/2000/svg" xmlns:xlink="http://www.w3.org/1999/xlink" viewBox="0 0 173.34 246.49">
  <defs>
    <style>
      .cls-1 {
        fill: #fff;
      }

      .cls-2, .cls-3, .cls-4 {
        stroke: #fff;
      }

      .cls-2, .cls-3, .cls-4, .cls-5, .cls-6, .cls-7, .cls-8, .cls-9, .cls-10 {
        fill: none;
      }

      .cls-2, .cls-3, .cls-4, .cls-7, .cls-8, .cls-9, .cls-11 {
        stroke-linejoin: round;
      }

      .cls-2, .cls-3, .cls-7, .cls-11 {
        stroke-linecap: round;
      }

      .cls-2, .cls-7 {
        stroke-width: .68px;
      }

      .cls-12 {
        fill: #ef9d7f;
      }

      .cls-13 {
        fill: #363636;
      }

      .cls-3, .cls-4 {
        stroke-width: .25px;
      }

      .cls-14 {
        fill: #eeb2ff;
      }

      .cls-15 {
        fill: #333;
      }

      .cls-4, .cls-8, .cls-9, .cls-10 {
        stroke-linecap: square;
      }

      .cls-16 {
        fill: #ab7a5a;
      }

      .cls-5 {
        stroke-width: 2.33px;
      }

      .cls-5, .cls-17, .cls-10 {
        stroke-miterlimit: 10;
      }

      .cls-5, .cls-8 {
        stroke: #363636;
      }

      .cls-18 {
        fill: #f4ae32;
      }

      .cls-19 {
        clip-path: url(#clippath);
      }

      .cls-17 {
        stroke: #fce9ca;
        stroke-width: 5.93px;
      }

      .cls-17, .cls-20 {
        fill: #e08bfc;
      }

      .cls-21 {
        fill: #353535;
      }

      .cls-22 {
        fill: #474747;
      }

      .cls-23 {
        fill: #515151;
      }

      .cls-24 {
        fill: #9e6647;
      }

      .cls-25 {
        fill: #b72c2c;
      }

      .cls-7, .cls-11 {
        stroke: #f80500;
      }

      .cls-8 {
        stroke-width: .5px;
      }

      .cls-9 {
        stroke: #b72c2c;
        stroke-width: .68px;
      }

      .cls-11 {
        fill: #fac300;
        stroke-width: .51px;
      }

      .cls-26 {
        fill: #d46cff;
      }

      .cls-10 {
        stroke: #353535;
        stroke-width: .38px;
      }

      .cls-27 {
        fill: #f7a22d;
      }
    </style>
    <clipPath id="clippath">
      <rect class="cls-6" x="6.41" y="7.17" width="160.53" height="198.84" rx="14.3" ry="14.3"/>
    </clipPath>
  </defs>
  <rect class="cls-27" width="173.34" height="246.49" rx="13.2" ry="13.2"/>
  <rect class="cls-26" x="6.41" y="7.17" width="160.53" height="198.84" rx="14.3" ry="14.3"/>
  <g class="cls-19">
    <g>
      <path class="cls-14" d="M144.32,140c3.77,3.17,7.54,6.34,11.31,9.52-1.02-4.12-2.04-8.25-3.06-12.37,2.26-.34,4.52-.67,6.78-1.01,.32-12.14,.64-24.27,.97-36.41-28.56-.05-57.13-.09-85.69-.14,1.16,15.87,2.32,31.74,3.48,47.61,22.07-2.4,44.14-4.8,66.21-7.2Z"/>
      <rect class="cls-14" x="22.33" y="17.64" width="135.44" height="25.88" rx="12.94" ry="12.94"/>
      <g>
        <circle class="cls-5" cx="34.73" cy="29.67" r="4.88"/>
        <line class="cls-5" x1="38.31" y1="32.98" x2="42.92" y2="37.85"/>
      </g>
      <rect class="cls-14" x="22.33" y="47.65" width="135.44" height="25.88" rx="12.94" ry="12.94"/>
      <g>
        <circle class="cls-5" cx="34.73" cy="59.68" r="4.88"/>
        <line class="cls-5" x1="38.31" y1="62.99" x2="42.92" y2="67.86"/>
      </g>
      <path class="cls-14" d="M82.29,166.12c-1.98,1.81-3.96,3.61-5.93,5.42,.06,3.44,.13,6.88,.19,10.31-12.54,1.05-25.09,2.1-37.63,3.15-1.41-9.55-2.81-19.1-4.22-28.65,13.91-.27,27.82-.54,41.73-.81,.17,3.43,.34,6.86,.51,10.28,1.79,.1,3.57,.19,5.36,.29Z"/>
      <path class="cls-1" d="M79.66,181.32c2.91-2.65,5.81-5.3,8.72-7.96-.09-5.05-.19-10.1-.28-15.15,18.42-1.54,36.85-3.09,55.27-4.63,2.07,14.03,4.13,28.05,6.2,42.08-20.43,.39-40.86,.79-61.3,1.18-.25-5.03-.5-10.07-.75-15.1-2.62-.14-5.24-.28-7.87-.43Z"/>
      <path class="cls-1" d="M69.62,125.72c3.77,3.17,7.54,6.34,11.31,9.52-1.02-4.12-2.04-8.25-3.06-12.37,2.26-.34,4.52-.67,6.78-1.01,.32-12.14,.64-24.27,.97-36.41-28.56-.05-57.13-.09-85.69-.14,1.16,15.87,2.32,31.74,3.48,47.61,22.07-2.4,44.14-4.8,66.21-7.2Z"/>
      <g>
        <polygon class="cls-16" points="109.05 147.96 143.48 147.45 147.02 181.04 106.36 181.54 109.05 147.96"/>
        <g>
          <polygon class="cls-24" points="144.91 161.06 150.95 159.74 151.17 169.25 145.77 169.25 144.91 161.06"/>
          <path class="cls-4" d="M145.45,166.18s.82-1.77,1.75-2.69,2.28-1.46,2.28-1.46"/>
        </g>
        <g>
          <polygon class="cls-24" points="107.99 161.45 101.94 160.13 101.73 169.64 107.31 169.64 107.99 161.45"/>
          <path class="cls-4" d="M107.45,166.56s-.82-1.77-1.75-2.69-2.28-1.46-2.28-1.46"/>
        </g>
        <path class="cls-13" d="M144.91,161.06l4.29-.94,1.3-19.54s-32.3-5.97-33.59-6.39-2.45-1.01-3.33-1.39-2.82-1.49-2.82-1.49l2.47,4.56-10.36,8.92,1.98,15.97,3.13,.68,1.07-13.48,34.43-.51,1.43,13.61Z"/>
        <polygon class="cls-13" points="140.83 157.72 141.43 155.09 134.71 155.09 133.73 156.69 140.83 157.72"/>
        <polygon class="cls-13" points="110.79 156.76 110.35 154.09 117.05 154.51 117.93 156.17 110.79 156.76"/>
        <polygon class="cls-3" points="121.82 157.2 126.76 157.2 126.76 168.94 118.35 169.3 119.33 164.97 121.76 164.51 121.82 157.2"/>
        <path class="cls-8" d="M111.09,164.1s.92-1.87,3.13-1.69,2.97,1.69,2.97,1.69"/>
        <path class="cls-8" d="M134.2,164.1s.92-1.87,3.13-1.69,2.97,1.69,2.97,1.69"/>
        <polygon class="cls-13" points="106.65 173.84 110.36 178.57 141.49 178.39 146.22 171.94 147.47 181.37 130.86 181.88 130.86 183.81 123.65 183.81 122.81 181.99 106.03 181.77 106.65 173.84"/>
        <path class="cls-25" d="M123.17,173.84l4.71-.47s-.13,2.18-2.12,2.27-2.6-1.81-2.6-1.81Z"/>
        <path class="cls-3" d="M145.45,167.31s-4.28-1.96-8.2,1.99c-3.92,3.94-1.79,9.12-1.79,9.12"/>
        <path class="cls-3" d="M107.45,167.96s3.57,.9,5.96,3.51,2.25,7.06,2.25,7.06"/>
        <polygon class="cls-13" points="113.58 171.74 120.22 167.55 124.79 168.35 129.78 167.18 136 171.76 126.31 172.45 124.79 170.8 123.22 172.63 113.58 171.74"/>
      </g>
      <g>
        <path class="cls-20" d="M75.84,91.51l-53.76,2.83,.72,23.34,55.32,1.9-2.28-28.07Zm-.79,26.16l-28.55-1.18-1.09-20.75,28.41-1.5,1.23,23.43Z"/>
        <polygon class="cls-20" points="67.13 99.44 69.18 101.99 52.2 113.55 50.81 111.49 67.13 99.44"/>
        <polygon class="cls-20" points="50.63 102.55 52.27 99.71 69.17 111.39 67.75 113.43 50.63 102.55"/>
      </g>
      <g>
        <path class="cls-23" d="M67.36,135.75l-29.84-12.94-27.84,22.12,4.41,45.46L-.71,211.38s20.97,17.47,45.89,14.27c24.92-3.2,44.02-15.75,44.02-15.75l-13.84-27.64-8.01-46.5Z"/>
        <line class="cls-2" x1="48.38" y1="190.95" x2="51.63" y2="224.54"/>
        <g>
          <path class="cls-1" d="M52.47,187.7c-.82-2.36-7.86-.88-8.27,1.32-.41,2.19,2.39,4.83,5.12,4.22,2.72-.61,3.97-3.18,3.15-5.54Z"/>
          <polygon class="cls-18" points="44.25 188.87 44.86 191.1 38.2 192.07 44.25 188.87"/>
          <polygon class="cls-18" points="44.8 191.03 46.41 192.7 41.02 196.72 44.8 191.03"/>
          <polygon class="cls-18" points="46.21 192.61 48.44 193.23 45.83 199.43 46.21 192.61"/>
          <polygon class="cls-18" points="48.44 193.25 50.67 192.64 51.63 199.29 48.44 193.25"/>
          <polygon class="cls-18" points="50.69 192.62 52.24 190.91 56.62 196.02 50.69 192.62"/>
          <polygon class="cls-18" points="52.26 190.91 52.68 188.64 59.09 190.68 52.26 190.91"/>
          <polygon class="cls-18" points="52.65 188.64 52.45 186.34 59.17 186.61 52.65 188.64"/>
        </g>
        <polygon class="cls-12" points="68.3 147.31 20.62 153.43 24.83 191.59 72.66 185.92 68.3 147.31"/>
        <path class="cls-22" d="M18.84,142.7l1.51,11.78,48.61-6.24-1.6-12.49s-12.28,.12-23.79,1.6c-11.51,1.48-24.73,5.35-24.73,5.35Z"/>
        <path class="cls-15" d="M39.35,155.74l.46,3.62s-3.73,.3-7.55-.08c-3.82-.39-8.5-2.06-8.5-2.06l-.6-4.66s6.01,1.77,8.17,2.19c2.16,.42,8.02,.99,8.02,.99Z"/>
        <path class="cls-15" d="M52.77,154.74l.49,3.82,13.8-4.66-.95-3.82s-4.55,1.18-6.91,2c-2.36,.83-6.43,2.67-6.43,2.67Z"/>
        <path class="cls-7" d="M38.58,189.91s-.46-5.54-5.04-8.7c-4.58-3.16-9.79-2.04-9.79-2.04"/>
        <path class="cls-7" d="M60.12,186.84s-.06-5.8,3.79-9.36c3.85-3.56,6.93-3.4,6.93-3.4"/>
        <path class="cls-9" d="M46.96,184.03s-2.37-.69-4.37-3.04c-2-2.36-2.73-4.52-2.73-4.52"/>
        <g>
          <path class="cls-10" d="M66.78,162.35c-.42-.14-3.87-1.2-6.91,.91-1.93,1.35-2.65,3.24-2.87,3.94"/>
          <path class="cls-10" d="M66.57,160.01c-.19,.61-.38,1.22-.57,1.84"/>
          <path class="cls-10" d="M64.41,159.93c.06,.61,.13,1.22,.19,1.84"/>
          <path class="cls-21" d="M61.68,162.59c1.44,.19,2.06,1.78,2.22,2.19,.18,.46,.68,1.74-.02,2.62-.49,.62-1.28,.66-1.32,.67-1.29,.05-2.14-1.43-2.43-1.94-.38-.66-1.04-1.83-.49-2.72,.42-.69,1.36-.9,2.04-.81Z"/>
        </g>
        <g>
          <path class="cls-10" d="M29.18,165.74c.38-.23,3.49-2.06,6.94-.71,2.19,.86,3.32,2.54,3.7,3.17"/>
          <path class="cls-10" d="M28.84,163.42c.33,.55,.65,1.1,.98,1.66"/>
          <path class="cls-10" d="M30.93,162.85c.08,.61,.16,1.22,.24,1.83"/>
          <path class="cls-21" d="M34.2,164.8c-1.36,.52-1.59,2.21-1.65,2.65-.07,.49-.26,1.85,.63,2.54,.62,.49,1.4,.35,1.44,.34,1.27-.25,1.75-1.89,1.92-2.45,.22-.73,.59-2.02-.15-2.76-.57-.57-1.53-.56-2.17-.32Z"/>
        </g>
        <path class="cls-11" d="M48.43,157.87c-.05,5.37-.1,10.74-.15,16.11,3.16-.17,6.32-.34,9.48-.51-3.11-5.2-6.22-10.4-9.33-15.6Z"/>
      </g>
      <g>
        <path class="cls-13" d="M54.42,33.84l-1.84-2.74v2.74h-1.98v-6.32h1.98v2.66l1.81-2.66h2.24l-2.18,3.03,2.32,3.29h-2.36Z"/>
        <path class="cls-13" d="M62.66,29.35c.32,.39,.49,.91,.49,1.57v2.92h-1.97v-2.67c0-.24-.06-.43-.19-.57s-.3-.21-.51-.21-.39,.07-.52,.21-.19,.33-.19,.57v2.67h-1.98v-6.6h1.98v2.34c.15-.24,.36-.43,.62-.58s.57-.22,.92-.22c.58,0,1.03,.19,1.35,.58Z"/>
        <path class="cls-13" d="M64.45,29.94c.18-.39,.43-.69,.75-.89,.32-.21,.67-.31,1.06-.31,.33,0,.61,.07,.85,.2,.24,.13,.42,.32,.54,.55v-.69h1.97v5.03h-1.97v-.69c-.12,.23-.31,.42-.54,.55-.24,.13-.52,.2-.85,.2-.39,0-.75-.1-1.06-.31-.32-.21-.56-.5-.75-.89-.18-.39-.27-.85-.27-1.38s.09-.99,.27-1.38Zm2.99,.75c-.14-.15-.31-.22-.53-.22s-.39,.07-.53,.22c-.14,.15-.21,.36-.21,.62s.07,.48,.21,.62c.14,.15,.31,.22,.53,.22s.39-.07,.53-.22c.14-.15,.21-.36,.21-.62s-.07-.48-.21-.62Z"/>
        <path class="cls-13" d="M73.49,28.94c.23-.13,.52-.2,.84-.2,.39,0,.75,.1,1.06,.31,.32,.21,.56,.5,.75,.89,.18,.39,.27,.85,.27,1.38s-.09,.99-.27,1.38c-.18,.39-.43,.69-.75,.89-.32,.21-.67,.31-1.06,.31-.33,0-.61-.07-.84-.2-.24-.13-.42-.32-.54-.55v.69h-1.98v-6.6h1.98v2.26c.12-.23,.3-.42,.54-.55Zm.71,1.75c-.14-.15-.31-.22-.53-.22s-.39,.07-.53,.22c-.14,.15-.21,.36-.21,.62s.07,.48,.21,.62c.14,.15,.31,.22,.53,.22s.39-.07,.53-.22c.14-.15,.21-.36,.21-.62s-.07-.48-.21-.62Z"/>
        <path class="cls-13" d="M77.48,29.94c.18-.39,.43-.69,.75-.89,.32-.21,.67-.31,1.06-.31,.33,0,.61,.07,.85,.2,.24,.13,.42,.32,.54,.55v-.69h1.97v5.03h-1.97v-.69c-.12,.23-.31,.42-.54,.55-.24,.13-.52,.2-.85,.2-.39,0-.75-.1-1.06-.31-.32-.21-.56-.5-.75-.89-.18-.39-.27-.85-.27-1.38s.09-.99,.27-1.38Zm2.99,.75c-.14-.15-.31-.22-.53-.22s-.39,.07-.53,.22c-.14,.15-.21,.36-.21,.62s.07,.48,.21,.62c.14,.15,.31,.22,.53,.22s.39-.07,.53-.22c.14-.15,.21-.36,.21-.62s-.07-.48-.21-.62Z"/>
        <path class="cls-13" d="M86.72,29.03c.29-.17,.6-.26,.91-.26v2.12h-.56c-.38,0-.65,.07-.83,.2-.18,.13-.26,.36-.26,.7v2.06h-1.98v-5.03h1.98v.93c.2-.29,.45-.53,.74-.7Z"/>
        <path class="cls-13" d="M91.17,33.37c-.49-.35-.76-.87-.8-1.56h2.11c.03,.36,.19,.54,.48,.54,.11,0,.2-.03,.27-.08s.11-.13,.11-.24c0-.15-.08-.27-.24-.36-.16-.09-.41-.2-.75-.32-.41-.14-.74-.28-1-.42-.27-.14-.49-.34-.68-.6-.19-.26-.28-.6-.28-1.01,0-.41,.11-.76,.32-1.05,.21-.29,.5-.51,.87-.66s.78-.22,1.24-.22c.77,0,1.39,.18,1.84,.54,.46,.36,.7,.86,.72,1.51h-2.13c0-.18-.05-.31-.13-.38-.08-.08-.18-.12-.3-.12-.08,0-.15,.03-.21,.08-.05,.06-.08,.14-.08,.24,0,.14,.08,.26,.24,.35,.16,.09,.41,.2,.75,.33,.4,.15,.73,.29,.99,.43s.48,.33,.67,.57,.29,.55,.29,.92-.09,.73-.29,1.04-.47,.55-.83,.72c-.36,.17-.79,.26-1.29,.26-.76,0-1.38-.18-1.87-.53Z"/>
        <path class="cls-13" d="M96.77,28.13c-.21-.18-.31-.42-.31-.7s.1-.52,.31-.71c.21-.19,.48-.28,.83-.28s.61,.09,.82,.28c.21,.19,.31,.42,.31,.71s-.1,.51-.31,.7c-.21,.18-.48,.28-.82,.28s-.62-.09-.83-.28Zm1.81,.68v5.03h-1.98v-5.03h1.98Z"/>
        <path class="cls-13" d="M103.05,32.15v1.69h-.75c-1.38,0-2.07-.69-2.07-2.06v-1.32h-.62v-1.65h.62v-1.21h1.98v1.21h.82v1.65h-.82v1.36c0,.12,.03,.21,.08,.26,.06,.05,.15,.08,.28,.08h.47Z"/>
        <path class="cls-13" d="M104.42,28.13c-.21-.18-.31-.42-.31-.7s.1-.52,.31-.71c.21-.19,.48-.28,.83-.28s.61,.09,.82,.28c.21,.19,.31,.42,.31,.71s-.1,.51-.31,.7c-.21,.18-.48,.28-.82,.28s-.62-.09-.83-.28Zm1.81,.68v5.03h-1.98v-5.03h1.98Z"/>
        <path class="cls-13" d="M115.61,27.52l-2.27,4.4v1.92h-1.98v-1.92l-2.27-4.4h2.27l1.01,2.24,1.01-2.24h2.23Z"/>
        <path class="cls-13" d="M116.5,29.94c.18-.39,.43-.69,.75-.89,.32-.21,.67-.31,1.06-.31,.33,0,.61,.07,.85,.2,.24,.13,.42,.32,.54,.55v-.69h1.97v5.03h-1.97v-.69c-.12,.23-.31,.42-.54,.55-.24,.13-.52,.2-.85,.2-.39,0-.75-.1-1.06-.31-.32-.21-.56-.5-.75-.89-.18-.39-.27-.85-.27-1.38s.09-.99,.27-1.38Zm2.99,.75c-.14-.15-.31-.22-.53-.22s-.39,.07-.53,.22c-.14,.15-.21,.36-.21,.62s.07,.48,.21,.62c.14,.15,.31,.22,.53,.22s.39-.07,.53-.22c.14-.15,.21-.36,.21-.62s-.07-.48-.21-.62Z"/>
        <path class="cls-13" d="M123.99,33.67c-.37-.15-.66-.37-.87-.64-.21-.27-.34-.58-.37-.93h1.9c.02,.15,.09,.26,.19,.33s.24,.11,.4,.11c.1,0,.18-.02,.24-.07,.06-.04,.09-.1,.09-.17,0-.11-.06-.19-.19-.24-.12-.05-.34-.1-.63-.16-.36-.07-.66-.15-.9-.23-.24-.08-.44-.23-.62-.43s-.26-.48-.26-.84c0-.31,.08-.59,.25-.84,.16-.25,.41-.45,.73-.6s.71-.22,1.17-.22c.68,0,1.21,.17,1.59,.5s.61,.77,.69,1.3h-1.76c-.03-.14-.09-.24-.19-.32-.09-.07-.22-.11-.38-.11-.1,0-.18,.02-.23,.06-.05,.04-.08,.1-.08,.17,0,.1,.06,.18,.19,.23,.12,.05,.32,.1,.6,.16,.36,.07,.67,.15,.92,.24,.25,.09,.47,.24,.65,.46,.18,.22,.28,.52,.28,.9,0,.3-.09,.57-.26,.8-.17,.24-.42,.42-.75,.56-.32,.14-.7,.21-1.14,.21-.48,0-.9-.08-1.26-.23Z"/>
        <path class="cls-13" d="M136.84,29.35c.35,.39,.53,.91,.53,1.57v2.92h-1.97v-2.67c0-.21-.06-.38-.19-.5s-.3-.18-.51-.18-.39,.06-.52,.18-.19,.29-.19,.5v2.67h-1.97v-2.67c0-.21-.06-.38-.19-.5s-.3-.18-.51-.18-.39,.06-.52,.18-.19,.29-.19,.5v2.67h-1.98v-5.03h1.98v.68c.14-.21,.34-.39,.58-.52,.25-.13,.54-.2,.87-.2,.36,0,.68,.08,.96,.24,.28,.16,.5,.38,.67,.67,.18-.26,.42-.48,.71-.65,.29-.17,.6-.25,.95-.25,.64,0,1.14,.19,1.5,.58Z"/>
        <path class="cls-13" d="M138.85,28.13c-.21-.18-.31-.42-.31-.7s.1-.52,.31-.71c.21-.19,.48-.28,.83-.28s.61,.09,.82,.28c.21,.19,.31,.42,.31,.71s-.1,.51-.31,.7c-.21,.18-.48,.28-.82,.28s-.62-.09-.83-.28Zm1.81,.68v5.03h-1.98v-5.03h1.98Z"/>
        <path class="cls-13" d="M146.88,29.35c.32,.39,.49,.91,.49,1.57v2.92h-1.97v-2.67c0-.24-.06-.43-.19-.57s-.3-.21-.51-.21-.39,.07-.52,.21-.19,.33-.19,.57v2.67h-1.98v-5.03h1.98v.77c.15-.24,.36-.43,.62-.58s.57-.22,.92-.22c.58,0,1.03,.19,1.35,.58Z"/>
      </g>
      <g>
        <path class="cls-13" d="M54.42,63.65l-1.84-2.74v2.74h-1.98v-6.32h1.98v2.66l1.81-2.66h2.24l-2.18,3.03,2.32,3.29h-2.36Z"/>
        <path class="cls-13" d="M62.66,59.17c.32,.39,.49,.91,.49,1.57v2.92h-1.97v-2.67c0-.24-.06-.43-.19-.57s-.3-.21-.51-.21-.39,.07-.52,.21-.19,.33-.19,.57v2.67h-1.98v-6.6h1.98v2.34c.15-.24,.36-.43,.62-.58s.57-.22,.92-.22c.58,0,1.03,.19,1.35,.58Z"/>
        <path class="cls-13" d="M64.45,59.76c.18-.39,.43-.69,.75-.89,.32-.21,.67-.31,1.06-.31,.33,0,.61,.07,.85,.2,.24,.13,.42,.32,.54,.55v-.69h1.97v5.03h-1.97v-.69c-.12,.23-.31,.42-.54,.55-.24,.13-.52,.2-.85,.2-.39,0-.75-.1-1.06-.31-.32-.21-.56-.5-.75-.89-.18-.39-.27-.85-.27-1.38s.09-.99,.27-1.38Zm2.99,.75c-.14-.15-.31-.22-.53-.22s-.39,.07-.53,.22c-.14,.15-.21,.36-.21,.62s.07,.48,.21,.62c.14,.15,.31,.22,.53,.22s.39-.07,.53-.22c.14-.15,.21-.36,.21-.62s-.07-.48-.21-.62Z"/>
        <path class="cls-13" d="M73.49,58.76c.23-.13,.52-.2,.84-.2,.39,0,.75,.1,1.06,.31,.32,.21,.56,.5,.75,.89,.18,.39,.27,.85,.27,1.38s-.09,.99-.27,1.38c-.18,.39-.43,.69-.75,.89-.32,.21-.67,.31-1.06,.31-.33,0-.61-.07-.84-.2-.24-.13-.42-.32-.54-.55v.69h-1.98v-6.6h1.98v2.26c.12-.23,.3-.42,.54-.55Zm.71,1.75c-.14-.15-.31-.22-.53-.22s-.39,.07-.53,.22c-.14,.15-.21,.36-.21,.62s.07,.48,.21,.62c.14,.15,.31,.22,.53,.22s.39-.07,.53-.22c.14-.15,.21-.36,.21-.62s-.07-.48-.21-.62Z"/>
        <path class="cls-13" d="M77.48,59.76c.18-.39,.43-.69,.75-.89,.32-.21,.67-.31,1.06-.31,.33,0,.61,.07,.85,.2,.24,.13,.42,.32,.54,.55v-.69h1.97v5.03h-1.97v-.69c-.12,.23-.31,.42-.54,.55-.24,.13-.52,.2-.85,.2-.39,0-.75-.1-1.06-.31-.32-.21-.56-.5-.75-.89-.18-.39-.27-.85-.27-1.38s.09-.99,.27-1.38Zm2.99,.75c-.14-.15-.31-.22-.53-.22s-.39,.07-.53,.22c-.14,.15-.21,.36-.21,.62s.07,.48,.21,.62c.14,.15,.31,.22,.53,.22s.39-.07,.53-.22c.14-.15,.21-.36,.21-.62s-.07-.48-.21-.62Z"/>
        <path class="cls-13" d="M86.72,58.85c.29-.17,.6-.26,.91-.26v2.12h-.56c-.38,0-.65,.07-.83,.2-.18,.13-.26,.36-.26,.7v2.06h-1.98v-5.03h1.98v.93c.2-.29,.45-.53,.74-.7Z"/>
        <path class="cls-13" d="M91.17,63.19c-.49-.35-.76-.87-.8-1.56h2.11c.03,.36,.19,.54,.48,.54,.11,0,.2-.03,.27-.08s.11-.13,.11-.24c0-.15-.08-.27-.24-.36-.16-.09-.41-.2-.75-.32-.41-.14-.74-.28-1-.42-.27-.14-.49-.34-.68-.6-.19-.26-.28-.6-.28-1.01,0-.41,.11-.76,.32-1.05,.21-.29,.5-.51,.87-.66s.78-.22,1.24-.22c.77,0,1.39,.18,1.84,.54,.46,.36,.7,.86,.72,1.51h-2.13c0-.18-.05-.31-.13-.38-.08-.08-.18-.12-.3-.12-.08,0-.15,.03-.21,.08-.05,.06-.08,.14-.08,.24,0,.14,.08,.26,.24,.35,.16,.09,.41,.2,.75,.33,.4,.15,.73,.29,.99,.43s.48,.33,.67,.57,.29,.55,.29,.92-.09,.73-.29,1.04-.47,.55-.83,.72c-.36,.17-.79,.26-1.29,.26-.76,0-1.38-.18-1.87-.53Z"/>
        <path class="cls-13" d="M96.75,63.45c-.21-.18-.31-.42-.31-.7s.1-.52,.31-.71c.21-.19,.49-.28,.83-.28s.61,.09,.82,.28,.31,.42,.31,.71-.1,.51-.31,.7c-.21,.18-.48,.28-.82,.28s-.62-.09-.83-.28Z"/>
        <path class="cls-13" d="M106.26,57.34v4.08c0,.76-.2,1.33-.59,1.72s-.95,.58-1.66,.58c-.77,0-1.38-.21-1.83-.63s-.68-1.04-.68-1.85h1.96c0,.26,.04,.44,.12,.54,.08,.1,.2,.16,.34,.16,.12,0,.21-.04,.28-.12,.06-.08,.1-.21,.1-.4v-4.08h1.97Z"/>
        <path class="cls-13" d="M112.41,61.49h-3.19c.03,.43,.21,.65,.54,.65,.21,0,.37-.1,.46-.29h2.1c-.07,.36-.22,.68-.45,.96-.23,.28-.52,.51-.87,.67-.35,.16-.73,.25-1.15,.25-.5,0-.94-.1-1.33-.31-.39-.21-.69-.51-.91-.9-.22-.39-.33-.85-.33-1.37s.11-.98,.33-1.37c.22-.39,.52-.69,.91-.9,.39-.21,.83-.31,1.33-.31s.94,.1,1.33,.31c.39,.21,.69,.5,.91,.88,.22,.38,.33,.83,.33,1.35,0,.14,0,.27-.03,.39Zm-1.98-.87c0-.17-.05-.29-.16-.38-.11-.09-.24-.13-.4-.13-.35,0-.56,.17-.62,.51h1.18Z"/>
        <path class="cls-13" d="M116.17,58.76c.24,.13,.42,.32,.54,.55v-.69h1.97v4.94c0,.47-.09,.9-.26,1.29-.17,.39-.45,.7-.83,.93s-.88,.35-1.48,.35c-.81,0-1.45-.19-1.92-.57-.47-.38-.74-.89-.81-1.54h1.95c.05,.26,.27,.39,.64,.39,.23,0,.41-.06,.54-.18s.2-.34,.2-.67v-.6c-.12,.23-.31,.42-.54,.55-.24,.13-.52,.2-.85,.2-.39,0-.75-.1-1.06-.31-.32-.21-.56-.5-.75-.89-.18-.39-.27-.85-.27-1.38s.09-.99,.27-1.38c.18-.39,.43-.69,.75-.89,.32-.21,.67-.31,1.06-.31,.33,0,.61,.07,.85,.2Zm.34,1.75c-.14-.15-.31-.22-.53-.22s-.39,.07-.53,.22c-.14,.15-.21,.36-.21,.62s.07,.48,.21,.62c.14,.15,.31,.22,.53,.22s.39-.07,.53-.22c.14-.15,.21-.36,.21-.62s-.07-.48-.21-.62Z"/>
        <path class="cls-13" d="M120.03,59.76c.18-.39,.43-.69,.75-.89,.32-.21,.67-.31,1.06-.31,.33,0,.61,.07,.85,.2,.24,.13,.42,.32,.54,.55v-.69h1.97v5.03h-1.97v-.69c-.12,.23-.31,.42-.54,.55-.24,.13-.52,.2-.85,.2-.39,0-.75-.1-1.06-.31-.32-.21-.56-.5-.75-.89-.18-.39-.27-.85-.27-1.38s.09-.99,.27-1.38Zm2.99,.75c-.14-.15-.31-.22-.53-.22s-.39,.07-.53,.22c-.14,.15-.21,.36-.21,.62s.07,.48,.21,.62c.14,.15,.31,.22,.53,.22s.39-.07,.53-.22c.14-.15,.21-.36,.21-.62s-.07-.48-.21-.62Z"/>
      </g>
      <g>
        <rect class="cls-1" x="163.84" y="117.27" width="14.27" height="46.99" transform="translate(-50.46 144.57) rotate(-40.45)"/>
        <rect class="cls-1" x="152.42" y="112.56" width="6.14" height="20.22" transform="translate(-42.42 130.2) rotate(-40.45)"/>
        <circle class="cls-17" cx="129.13" cy="92.43" r="29.88"/>
        <path class="cls-1" d="M139.5,73.28c11.33,5.03,15.57,18.32,9.61,29.13-1.8,3.35-4.41,6.25-7.52,8.41,2.68-2.58,4.92-5.57,6.48-8.93,5.09-10.7,1.34-22.27-8.57-28.61h0Z"/>
      </g>
    </g>
  </g>
  <g>
    <path class="cls-1" d="M10.86,217.33c.46,.25,.81,.59,1.06,1.03s.37,.94,.37,1.5-.12,1.06-.37,1.5-.6,.8-1.06,1.05c-.46,.26-1,.38-1.61,.38h-2.44v-5.85h2.44c.61,0,1.15,.12,1.61,.37Zm-.79,3.5c.24-.23,.36-.55,.36-.97s-.12-.74-.36-.97-.57-.34-.98-.34h-.44v2.61h.44c.41,0,.74-.11,.98-.34Z"/>
    <path class="cls-1" d="M13.37,219.21c.17-.36,.4-.64,.69-.83,.29-.19,.62-.29,.98-.29,.3,0,.56,.06,.79,.19,.22,.12,.39,.29,.5,.51v-.64h1.83v4.66h-1.83v-.64c-.12,.21-.28,.38-.5,.51-.22,.12-.48,.19-.79,.19-.36,0-.69-.09-.98-.29-.29-.19-.52-.46-.69-.83-.17-.36-.25-.79-.25-1.28s.08-.92,.25-1.28Zm2.77,.7c-.13-.14-.29-.21-.49-.21s-.36,.07-.49,.21-.19,.33-.19,.58,.06,.44,.19,.58,.29,.21,.49,.21,.36-.07,.49-.21c.13-.14,.19-.33,.19-.58s-.06-.44-.19-.58Z"/>
    <path class="cls-1" d="M21.74,218.28c.22-.12,.48-.19,.78-.19,.36,0,.69,.09,.98,.29,.29,.19,.52,.46,.69,.83,.17,.36,.25,.79,.25,1.28s-.08,.92-.25,1.28c-.17,.36-.4,.64-.69,.83-.29,.19-.62,.29-.98,.29-.3,0-.56-.06-.78-.19-.22-.12-.38-.29-.5-.51v2.87h-1.83v-6.89h1.83v.64c.12-.21,.28-.38,.5-.51Zm.66,1.62c-.13-.14-.29-.21-.49-.21s-.36,.07-.49,.21-.19,.33-.19,.58,.06,.44,.19,.58,.29,.21,.49,.21,.36-.07,.49-.21,.19-.33,.19-.58-.06-.44-.19-.58Z"/>
    <path class="cls-1" d="M25.44,219.21c.17-.36,.4-.64,.69-.83,.29-.19,.62-.29,.98-.29,.3,0,.56,.06,.79,.19,.22,.12,.39,.29,.5,.51v-.64h1.83v4.66h-1.83v-.64c-.12,.21-.28,.38-.5,.51-.22,.12-.48,.19-.79,.19-.36,0-.69-.09-.98-.29-.29-.19-.52-.46-.69-.83-.17-.36-.25-.79-.25-1.28s.08-.92,.25-1.28Zm2.77,.7c-.13-.14-.29-.21-.49-.21s-.36,.07-.49,.21-.19,.33-.19,.58,.06,.44,.19,.58,.29,.21,.49,.21,.36-.07,.49-.21c.13-.14,.19-.33,.19-.58s-.06-.44-.19-.58Z"/>
    <path class="cls-1" d="M34.36,221.25v1.56h-.69c-1.28,0-1.92-.64-1.92-1.91v-1.22h-.58v-1.53h.58v-1.12h1.83v1.12h.76v1.53h-.76v1.26c0,.11,.03,.19,.08,.24,.05,.05,.14,.07,.26,.07h.44Z"/>
    <path class="cls-1" d="M38.46,222.81l-1.15-1.86v1.86h-1.83v-6.11h1.83v3.2l1.17-1.74h2.13l-1.74,2.35,1.79,2.31h-2.19Z"/>
    <path class="cls-1" d="M41.48,219.21c.17-.36,.4-.64,.69-.83,.29-.19,.62-.29,.98-.29,.3,0,.56,.06,.79,.19,.22,.12,.39,.29,.5,.51v-.64h1.83v4.66h-1.83v-.64c-.12,.21-.28,.38-.5,.51-.22,.12-.48,.19-.79,.19-.36,0-.69-.09-.98-.29-.29-.19-.52-.46-.69-.83-.17-.36-.25-.79-.25-1.28s.08-.92,.25-1.28Zm2.77,.7c-.13-.14-.29-.21-.49-.21s-.36,.07-.49,.21-.19,.33-.19,.58,.06,.44,.19,.58,.29,.21,.49,.21,.36-.07,.49-.21c.13-.14,.19-.33,.19-.58s-.06-.44-.19-.58Z"/>
    <path class="cls-1" d="M52.02,218.66c.3,.36,.45,.84,.45,1.45v2.7h-1.83v-2.47c0-.22-.06-.4-.18-.53-.12-.13-.28-.19-.48-.19s-.36,.06-.48,.19c-.12,.13-.17,.3-.17,.53v2.47h-1.83v-4.66h1.83v.71c.14-.22,.33-.4,.57-.54s.52-.21,.85-.21c.53,0,.95,.18,1.25,.54Z"/>
    <path class="cls-1" d="M57.33,216.7v6.11h-1.83v-6.11h1.83Z"/>
    <path class="cls-1" d="M63.05,220.8h-2.95c.03,.4,.2,.6,.5,.6,.2,0,.34-.09,.43-.27h1.94c-.07,.33-.21,.63-.42,.89s-.48,.47-.8,.62c-.32,.15-.68,.23-1.06,.23-.46,0-.87-.1-1.23-.29-.36-.19-.64-.47-.84-.83s-.3-.78-.3-1.27,.1-.91,.3-1.27,.48-.64,.84-.83c.36-.19,.77-.29,1.23-.29s.88,.09,1.24,.29c.36,.19,.64,.46,.84,.81s.3,.77,.3,1.25c0,.13,0,.25-.03,.36Zm-1.83-.8c0-.15-.05-.27-.15-.35-.1-.08-.22-.12-.37-.12-.32,0-.51,.16-.57,.47h1.09Z"/>
    <path class="cls-1" d="M66.4,218.28c.22-.12,.48-.19,.78-.19,.36,0,.69,.09,.98,.29,.29,.19,.52,.46,.69,.83,.17,.36,.25,.79,.25,1.28s-.08,.92-.25,1.28c-.17,.36-.4,.64-.69,.83-.29,.19-.62,.29-.98,.29-.3,0-.56-.06-.78-.19-.22-.12-.38-.29-.5-.51v.64h-1.83v-6.11h1.83v2.09c.12-.21,.28-.38,.5-.51Zm.66,1.62c-.13-.14-.29-.21-.49-.21s-.36,.07-.49,.21-.19,.33-.19,.58,.06,.44,.19,.58,.29,.21,.49,.21,.36-.07,.49-.21,.19-.33,.19-.58-.06-.44-.19-.58Z"/>
    <path class="cls-1" d="M70.26,217.52c-.19-.17-.29-.39-.29-.64s.1-.48,.29-.66c.19-.17,.45-.26,.77-.26s.57,.09,.76,.26c.19,.17,.29,.39,.29,.66s-.1,.47-.29,.64c-.19,.17-.45,.26-.76,.26s-.58-.08-.77-.26Zm1.68,.63v4.66h-1.83v-4.66h1.83Z"/>
    <path class="cls-1" d="M77.69,218.66c.3,.36,.45,.84,.45,1.45v2.7h-1.83v-2.47c0-.22-.06-.4-.18-.53-.12-.13-.28-.19-.48-.19s-.36,.06-.48,.19c-.12,.13-.17,.3-.17,.53v2.47h-1.83v-6.11h1.83v2.16c.14-.22,.33-.4,.57-.54s.52-.21,.85-.21c.53,0,.95,.18,1.25,.54Z"/>
    <path class="cls-1" d="M83.49,218.28c.22-.12,.48-.19,.78-.19,.36,0,.69,.09,.98,.29,.29,.19,.52,.46,.69,.83,.17,.36,.25,.79,.25,1.28s-.08,.92-.25,1.28c-.17,.36-.4,.64-.69,.83-.29,.19-.62,.29-.98,.29-.3,0-.56-.06-.78-.19-.22-.12-.38-.29-.5-.51v.64h-1.83v-6.11h1.83v2.09c.12-.21,.28-.38,.5-.51Zm.66,1.62c-.13-.14-.29-.21-.49-.21s-.36,.07-.49,.21-.19,.33-.19,.58,.06,.44,.19,.58,.29,.21,.49,.21,.36-.07,.49-.21,.19-.33,.19-.58-.06-.44-.19-.58Z"/>
    <path class="cls-1" d="M87.19,219.21c.17-.36,.4-.64,.69-.83,.29-.19,.62-.29,.98-.29,.3,0,.56,.06,.79,.19,.22,.12,.39,.29,.5,.51v-.64h1.83v4.66h-1.83v-.64c-.12,.21-.28,.38-.5,.51-.22,.12-.48,.19-.79,.19-.36,0-.69-.09-.98-.29-.29-.19-.52-.46-.69-.83-.17-.36-.25-.79-.25-1.28s.08-.92,.25-1.28Zm2.77,.7c-.13-.14-.29-.21-.49-.21s-.36,.07-.49,.21-.19,.33-.19,.58,.06,.44,.19,.58,.29,.21,.49,.21,.36-.07,.49-.21c.13-.14,.19-.33,.19-.58s-.06-.44-.19-.58Z"/>
    <path class="cls-1" d="M97.74,218.66c.3,.36,.45,.84,.45,1.45v2.7h-1.83v-2.47c0-.22-.06-.4-.18-.53-.12-.13-.28-.19-.48-.19s-.36,.06-.48,.19c-.12,.13-.17,.3-.17,.53v2.47h-1.83v-4.66h1.83v.71c.14-.22,.33-.4,.57-.54s.52-.21,.85-.21c.53,0,.95,.18,1.25,.54Z"/>
    <path class="cls-1" d="M104.66,218.15l-2.98,6.89h-2.01l1.17-2.46-1.94-4.43h2.04l.88,2.36,.82-2.36h2.02Z"/>
    <path class="cls-1" d="M105.4,219.21c.17-.36,.4-.64,.69-.83,.29-.19,.62-.29,.98-.29,.3,0,.56,.06,.79,.19,.22,.12,.39,.29,.5,.51v-.64h1.83v4.66h-1.83v-.64c-.12,.21-.28,.38-.5,.51-.22,.12-.48,.19-.79,.19-.36,0-.69-.09-.98-.29-.29-.19-.52-.46-.69-.83-.17-.36-.25-.79-.25-1.28s.08-.92,.25-1.28Zm2.77,.7c-.13-.14-.29-.21-.49-.21s-.36,.07-.49,.21-.19,.33-.19,.58,.06,.44,.19,.58,.29,.21,.49,.21,.36-.07,.49-.21c.13-.14,.19-.33,.19-.58s-.06-.44-.19-.58Z"/>
    <path class="cls-1" d="M114.41,222.81l-1.15-1.86v1.86h-1.83v-6.11h1.83v3.2l1.17-1.74h2.13l-1.74,2.35,1.79,2.31h-2.19Z"/>
    <path class="cls-1" d="M125.03,218.66c.33,.36,.49,.84,.49,1.45v2.7h-1.83v-2.47c0-.2-.06-.35-.18-.47-.12-.11-.28-.17-.48-.17s-.36,.06-.48,.17c-.12,.11-.17,.27-.17,.47v2.47h-1.83v-2.47c0-.2-.06-.35-.18-.47-.12-.11-.28-.17-.48-.17s-.36,.06-.48,.17c-.12,.11-.17,.27-.17,.47v2.47h-1.83v-4.66h1.83v.63c.13-.2,.31-.36,.54-.48s.5-.18,.81-.18c.34,0,.63,.07,.89,.22,.26,.15,.47,.35,.62,.62,.17-.24,.39-.44,.65-.6s.56-.24,.88-.24c.59,0,1.06,.18,1.38,.54Z"/>
    <path class="cls-1" d="M126.73,219.21c.17-.36,.4-.64,.69-.83,.29-.19,.62-.29,.98-.29,.3,0,.56,.06,.79,.19,.22,.12,.39,.29,.5,.51v-.64h1.83v4.66h-1.83v-.64c-.12,.21-.28,.38-.5,.51-.22,.12-.48,.19-.79,.19-.36,0-.69-.09-.98-.29-.29-.19-.52-.46-.69-.83-.17-.36-.25-.79-.25-1.28s.08-.92,.25-1.28Zm2.77,.7c-.13-.14-.29-.21-.49-.21s-.36,.07-.49,.21-.19,.33-.19,.58,.06,.44,.19,.58,.29,.21,.49,.21,.36-.07,.49-.21c.13-.14,.19-.33,.19-.58s-.06-.44-.19-.58Z"/>
    <path class="cls-1" d="M135.74,222.81l-1.15-1.86v1.86h-1.83v-6.11h1.83v3.2l1.17-1.74h2.13l-1.74,2.35,1.79,2.31h-2.19Z"/>
    <path class="cls-1" d="M140.59,216.7v6.11h-1.83v-6.11h1.83Z"/>
    <path class="cls-1" d="M146.76,218.15v4.66h-1.83v-.71c-.14,.22-.33,.4-.57,.54-.24,.14-.52,.21-.85,.21-.53,0-.95-.18-1.25-.54s-.45-.84-.45-1.45v-2.7h1.83v2.47c0,.22,.06,.4,.18,.52,.12,.13,.28,.19,.47,.19s.36-.06,.48-.19c.12-.13,.17-.3,.17-.52v-2.47h1.83Z"/>
    <path class="cls-1" d="M155.6,218.66c.33,.36,.49,.84,.49,1.45v2.7h-1.83v-2.47c0-.2-.06-.35-.18-.47-.12-.11-.28-.17-.48-.17s-.36,.06-.48,.17c-.12,.11-.17,.27-.17,.47v2.47h-1.83v-2.47c0-.2-.06-.35-.18-.47-.12-.11-.28-.17-.48-.17s-.36,.06-.48,.17c-.12,.11-.17,.27-.17,.47v2.47h-1.83v-4.66h1.83v.63c.13-.2,.31-.36,.54-.48s.5-.18,.81-.18c.34,0,.63,.07,.89,.22,.26,.15,.47,.35,.62,.62,.17-.24,.39-.44,.65-.6s.56-.24,.88-.24c.59,0,1.06,.18,1.38,.54Z"/>
    <path class="cls-1" d="M157.31,219.21c.17-.36,.4-.64,.69-.83,.29-.19,.62-.29,.98-.29,.3,0,.56,.06,.79,.19,.22,.12,.39,.29,.5,.51v-.64h1.83v4.66h-1.83v-.64c-.12,.21-.28,.38-.5,.51-.22,.12-.48,.19-.79,.19-.36,0-.69-.09-.98-.29-.29-.19-.52-.46-.69-.83-.17-.36-.25-.79-.25-1.28s.08-.92,.25-1.28Zm2.77,.7c-.13-.14-.29-.21-.49-.21s-.36,.07-.49,.21-.19,.33-.19,.58,.06,.44,.19,.58,.29,.21,.49,.21,.36-.07,.49-.21c.13-.14,.19-.33,.19-.58s-.06-.44-.19-.58Z"/>
    <path class="cls-1" d="M166.23,221.25v1.56h-.69c-1.28,0-1.92-.64-1.92-1.91v-1.22h-.58v-1.53h.58v-1.12h1.83v1.12h.76v1.53h-.76v1.26c0,.11,.03,.19,.08,.24,.05,.05,.14,.07,.26,.07h.44Z"/>
    <path class="cls-1" d="M27,231.16v1.56h-.69c-1.28,0-1.92-.64-1.92-1.91v-1.22h-.58v-1.53h.58v-1.12h1.83v1.12h.76v1.53h-.76v1.26c0,.11,.03,.19,.08,.24,.05,.05,.14,.07,.26,.07h.44Z"/>
    <path class="cls-1" d="M32.61,230.72h-2.95c.03,.4,.2,.6,.5,.6,.2,0,.34-.09,.43-.27h1.94c-.07,.33-.21,.63-.42,.89s-.48,.47-.8,.62c-.32,.15-.68,.23-1.06,.23-.46,0-.87-.1-1.23-.29-.36-.19-.64-.47-.84-.83s-.3-.78-.3-1.27,.1-.91,.3-1.27,.48-.64,.84-.83c.36-.19,.77-.29,1.23-.29s.88,.09,1.24,.29c.36,.19,.64,.46,.84,.81s.3,.77,.3,1.25c0,.13,0,.25-.03,.36Zm-1.83-.8c0-.15-.05-.27-.15-.35-.1-.08-.22-.12-.37-.12-.32,0-.51,.16-.57,.47h1.09Z"/>
    <path class="cls-1" d="M38.14,228.57c.3,.36,.45,.84,.45,1.45v2.7h-1.83v-2.47c0-.22-.06-.4-.18-.53-.12-.13-.28-.19-.48-.19s-.36,.06-.48,.19c-.12,.13-.17,.3-.17,.53v2.47h-1.83v-4.66h1.83v.71c.14-.22,.33-.4,.57-.54s.52-.21,.85-.21c.53,0,.95,.18,1.25,.54Z"/>
    <path class="cls-1" d="M42.69,231.16v1.56h-.69c-1.28,0-1.92-.64-1.92-1.91v-1.22h-.58v-1.53h.58v-1.12h1.83v1.12h.76v1.53h-.76v1.26c0,.11,.03,.19,.08,.24,.05,.05,.14,.07,.26,.07h.44Z"/>
    <path class="cls-1" d="M43.81,229.12c.17-.36,.4-.64,.69-.83,.29-.19,.62-.29,.98-.29,.3,0,.56,.06,.79,.19,.22,.12,.39,.29,.5,.51v-.64h1.83v4.66h-1.83v-.64c-.12,.21-.28,.38-.5,.51-.22,.12-.48,.19-.79,.19-.36,0-.69-.09-.98-.29-.29-.19-.52-.46-.69-.83-.17-.36-.25-.79-.25-1.28s.08-.92,.25-1.28Zm2.77,.7c-.13-.14-.29-.21-.49-.21s-.36,.07-.49,.21-.19,.33-.19,.58,.06,.44,.19,.58,.29,.21,.49,.21,.36-.07,.49-.21c.13-.14,.19-.33,.19-.58s-.06-.44-.19-.58Z"/>
    <path class="cls-1" d="M54.35,228.57c.3,.36,.45,.84,.45,1.45v2.7h-1.83v-2.47c0-.22-.06-.4-.18-.53-.12-.13-.28-.19-.48-.19s-.36,.06-.48,.19c-.12,.13-.17,.3-.17,.53v2.47h-1.83v-4.66h1.83v.71c.14-.22,.33-.4,.57-.54s.52-.21,.85-.21c.53,0,.95,.18,1.25,.54Z"/>
    <path class="cls-1" d="M58.47,228.19c.22,.12,.39,.29,.5,.51v-.64h1.83v4.58c0,.44-.08,.83-.24,1.19-.16,.36-.42,.64-.77,.86s-.81,.32-1.37,.32c-.75,0-1.34-.17-1.78-.52s-.69-.83-.75-1.42h1.8c.05,.24,.25,.36,.59,.36,.21,0,.38-.05,.5-.17s.18-.32,.18-.62v-.55c-.12,.21-.28,.38-.5,.51-.22,.12-.48,.19-.79,.19-.36,0-.69-.09-.98-.29-.29-.19-.52-.46-.69-.83-.17-.36-.25-.79-.25-1.28s.08-.92,.25-1.28c.17-.36,.4-.64,.69-.83,.29-.19,.62-.29,.98-.29,.3,0,.56,.06,.79,.19Zm.31,1.62c-.13-.14-.29-.21-.49-.21s-.36,.07-.49,.21-.19,.33-.19,.58,.06,.44,.19,.58,.29,.21,.49,.21,.36-.07,.49-.21c.13-.14,.19-.33,.19-.58s-.06-.44-.19-.58Z"/>
    <path class="cls-1" d="M66.84,232.72l-1.15-1.86v1.86h-1.83v-6.11h1.83v3.2l1.17-1.74h2.13l-1.74,2.35,1.79,2.31h-2.19Z"/>
    <path class="cls-1" d="M74.34,230.72h-2.95c.03,.4,.2,.6,.5,.6,.2,0,.34-.09,.43-.27h1.94c-.07,.33-.21,.63-.42,.89s-.48,.47-.8,.62c-.32,.15-.68,.23-1.06,.23-.46,0-.87-.1-1.23-.29-.36-.19-.64-.47-.84-.83s-.3-.78-.3-1.27,.1-.91,.3-1.27,.48-.64,.84-.83c.36-.19,.77-.29,1.23-.29s.88,.09,1.24,.29c.36,.19,.64,.46,.84,.81s.3,.77,.3,1.25c0,.13,0,.25-.03,.36Zm-1.83-.8c0-.15-.05-.27-.15-.35-.1-.08-.22-.12-.37-.12-.32,0-.51,.16-.57,.47h1.09Z"/>
    <path class="cls-1" d="M75.36,229.12c.17-.36,.4-.64,.69-.83,.29-.19,.62-.29,.98-.29,.3,0,.56,.06,.78,.19,.22,.12,.38,.29,.5,.51v-2.09h1.83v6.11h-1.83v-.64c-.12,.21-.28,.38-.5,.51-.22,.12-.48,.19-.78,.19-.36,0-.69-.09-.98-.29-.29-.19-.52-.46-.69-.83-.17-.36-.25-.79-.25-1.28s.08-.92,.25-1.28Zm2.77,.7c-.13-.14-.29-.21-.49-.21s-.36,.07-.49,.21-.19,.33-.19,.58,.06,.44,.19,.58,.29,.21,.49,.21,.36-.07,.49-.21c.13-.14,.19-.33,.19-.58s-.06-.44-.19-.58Z"/>
    <path class="cls-1" d="M86.32,228.07v4.66h-1.83v-.71c-.14,.22-.33,.4-.57,.54-.24,.14-.52,.21-.85,.21-.53,0-.95-.18-1.25-.54s-.45-.84-.45-1.45v-2.7h1.83v2.47c0,.22,.06,.4,.18,.52,.12,.13,.28,.19,.47,.19s.36-.06,.48-.19c.12-.13,.17-.3,.17-.52v-2.47h1.83Z"/>
    <path class="cls-1" d="M87.56,229.12c.17-.36,.4-.64,.69-.83,.29-.19,.62-.29,.98-.29,.3,0,.56,.06,.79,.19,.22,.12,.39,.29,.5,.51v-.64h1.83v4.66h-1.83v-.64c-.12,.21-.28,.38-.5,.51-.22,.12-.48,.19-.79,.19-.36,0-.69-.09-.98-.29-.29-.19-.52-.46-.69-.83-.17-.36-.25-.79-.25-1.28s.08-.92,.25-1.28Zm2.77,.7c-.13-.14-.29-.21-.49-.21s-.36,.07-.49,.21-.19,.33-.19,.58,.06,.44,.19,.58,.29,.21,.49,.21,.36-.07,.49-.21c.13-.14,.19-.33,.19-.58s-.06-.44-.19-.58Z"/>
    <path class="cls-1" d="M97.19,229.15v1.51h-3.85v-1.51h3.85Z"/>
    <path class="cls-1" d="M98.76,229.12c.17-.36,.4-.64,.69-.83,.29-.19,.62-.29,.98-.29,.3,0,.56,.06,.78,.19,.22,.12,.38,.29,.5,.51v-2.09h1.83v6.11h-1.83v-.64c-.12,.21-.28,.38-.5,.51-.22,.12-.48,.19-.78,.19-.36,0-.69-.09-.98-.29-.29-.19-.52-.46-.69-.83-.17-.36-.25-.79-.25-1.28s.08-.92,.25-1.28Zm2.77,.7c-.13-.14-.29-.21-.49-.21s-.36,.07-.49,.21-.19,.33-.19,.58,.06,.44,.19,.58,.29,.21,.49,.21,.36-.07,.49-.21c.13-.14,.19-.33,.19-.58s-.06-.44-.19-.58Z"/>
    <path class="cls-1" d="M109.72,228.07v4.66h-1.83v-.71c-.14,.22-.33,.4-.57,.54-.24,.14-.52,.21-.85,.21-.53,0-.95-.18-1.25-.54s-.45-.84-.45-1.45v-2.7h1.83v2.47c0,.22,.06,.4,.18,.52,.12,.13,.28,.19,.47,.19s.36-.06,.48-.19c.12-.13,.17-.3,.17-.52v-2.47h1.83Z"/>
    <path class="cls-1" d="M110.97,229.12c.17-.36,.4-.64,.69-.83,.29-.19,.62-.29,.98-.29,.3,0,.56,.06,.79,.19,.22,.12,.39,.29,.5,.51v-.64h1.83v4.66h-1.83v-.64c-.12,.21-.28,.38-.5,.51-.22,.12-.48,.19-.79,.19-.36,0-.69-.09-.98-.29-.29-.19-.52-.46-.69-.83-.17-.36-.25-.79-.25-1.28s.08-.92,.25-1.28Zm2.77,.7c-.13-.14-.29-.21-.49-.21s-.36,.07-.49,.21-.19,.33-.19,.58,.06,.44,.19,.58,.29,.21,.49,.21,.36-.07,.49-.21c.13-.14,.19-.33,.19-.58s-.06-.44-.19-.58Z"/>
    <path class="cls-1" d="M118.86,229.13c.2-.36,.48-.64,.84-.83,.36-.19,.77-.29,1.23-.29,.61,0,1.12,.17,1.53,.51,.42,.34,.68,.82,.79,1.42h-1.94c-.07-.24-.21-.36-.42-.36-.15,0-.27,.07-.35,.21-.09,.14-.13,.34-.13,.61s.04,.47,.13,.61c.08,.14,.2,.21,.35,.21,.21,0,.35-.12,.42-.36h1.94c-.11,.61-.37,1.08-.79,1.42-.42,.34-.93,.51-1.53,.51-.46,0-.87-.1-1.23-.29-.36-.19-.64-.47-.84-.83s-.3-.78-.3-1.27,.1-.91,.3-1.27Z"/>
    <path class="cls-1" d="M124.26,229.12c.17-.36,.4-.64,.69-.83,.29-.19,.62-.29,.98-.29,.3,0,.56,.06,.79,.19,.22,.12,.39,.29,.5,.51v-.64h1.83v4.66h-1.83v-.64c-.12,.21-.28,.38-.5,.51-.22,.12-.48,.19-.79,.19-.36,0-.69-.09-.98-.29-.29-.19-.52-.46-.69-.83-.17-.36-.25-.79-.25-1.28s.08-.92,.25-1.28Zm2.77,.7c-.13-.14-.29-.21-.49-.21s-.36,.07-.49,.21-.19,.33-.19,.58,.06,.44,.19,.58,.29,.21,.49,.21,.36-.07,.49-.21c.13-.14,.19-.33,.19-.58s-.06-.44-.19-.58Z"/>
    <path class="cls-1" d="M132.12,226.61v6.11h-1.83v-6.11h1.83Z"/>
    <path class="cls-1" d="M134.31,232.49c-.38-.19-.67-.47-.88-.83s-.32-.78-.32-1.27,.11-.91,.32-1.27,.5-.64,.88-.83c.37-.19,.8-.29,1.26-.29s.89,.1,1.26,.29c.38,.19,.67,.47,.88,.83s.32,.78,.32,1.27-.11,.91-.32,1.27-.5,.64-.88,.83c-.37,.19-.8,.29-1.26,.29s-.89-.1-1.26-.29Zm1.69-1.5c.12-.13,.17-.33,.17-.6s-.06-.46-.17-.6-.26-.2-.43-.2-.31,.07-.43,.2c-.12,.13-.17,.33-.17,.6s.06,.46,.17,.6c.11,.13,.26,.2,.43,.2s.31-.07,.43-.2Z"/>
    <path class="cls-1" d="M143.54,228.57c.3,.36,.45,.84,.45,1.45v2.7h-1.83v-2.47c0-.22-.06-.4-.18-.53-.12-.13-.28-.19-.48-.19s-.36,.06-.48,.19c-.12,.13-.17,.3-.17,.53v2.47h-1.83v-4.66h1.83v.71c.14-.22,.33-.4,.57-.54s.52-.21,.85-.21c.53,0,.95,.18,1.25,.54Z"/>
    <path class="cls-1" d="M145.34,232.53c-.19-.17-.29-.38-.29-.64s.1-.48,.29-.66c.19-.17,.45-.26,.77-.26s.57,.09,.76,.26c.19,.17,.29,.39,.29,.66s-.1,.47-.29,.64c-.19,.17-.45,.26-.76,.26s-.58-.09-.77-.26Z"/>
  </g>
</svg>