<?xml version="1.0" encoding="UTF-8"?>
<svg id="Layer_2" data-name="Layer 2" xmlns="http://www.w3.org/2000/svg" xmlns:xlink="http://www.w3.org/1999/xlink" viewBox="0 0 173.34 246.49">
  <defs>
    <style>
      .cls-1 {
        fill: #fff;
      }

      .cls-2, .cls-3, .cls-4 {
        stroke: #fff;
      }

      .cls-2, .cls-3, .cls-4, .cls-5, .cls-6, .cls-7, .cls-8, .cls-9, .cls-10 {
        fill: none;
      }

      .cls-2, .cls-3, .cls-4, .cls-7, .cls-8, .cls-9, .cls-11 {
        stroke-linejoin: round;
      }

      .cls-2, .cls-3, .cls-7, .cls-11 {
        stroke-linecap: round;
      }

      .cls-2, .cls-7 {
        stroke-width: .68px;
      }

      .cls-12 {
        fill: #ef9d7f;
      }

      .cls-13 {
        fill: #363636;
      }

      .cls-3, .cls-4 {
        stroke-width: .25px;
      }

      .cls-14 {
        fill: #eeb2ff;
      }

      .cls-15 {
        fill: #333;
      }

      .cls-4, .cls-8, .cls-9, .cls-10 {
        stroke-linecap: square;
      }

      .cls-16 {
        fill: #ab7a5a;
      }

      .cls-5 {
        stroke-width: 2.33px;
      }

      .cls-5, .cls-17, .cls-10 {
        stroke-miterlimit: 10;
      }

      .cls-5, .cls-8 {
        stroke: #363636;
      }

      .cls-18 {
        fill: #f4ae32;
      }

      .cls-19 {
        clip-path: url(#clippath);
      }

      .cls-17 {
        stroke: #fce9ca;
        stroke-width: 5.93px;
      }

      .cls-17, .cls-20 {
        fill: #e08bfc;
      }

      .cls-21 {
        fill: #353535;
      }

      .cls-22 {
        fill: #474747;
      }

      .cls-23 {
        fill: #515151;
      }

      .cls-24 {
        fill: #9e6647;
      }

      .cls-25 {
        fill: #b72c2c;
      }

      .cls-7, .cls-11 {
        stroke: #f80500;
      }

      .cls-8 {
        stroke-width: .5px;
      }

      .cls-9 {
        stroke: #b72c2c;
        stroke-width: .68px;
      }

      .cls-11 {
        fill: #fac300;
        stroke-width: .51px;
      }

      .cls-26 {
        fill: #d46cff;
      }

      .cls-10 {
        stroke: #353535;
        stroke-width: .38px;
      }

      .cls-27 {
        fill: #f7a22d;
      }
    </style>
    <clipPath id="clippath">
      <rect class="cls-6" x="6.41" y="7.17" width="160.53" height="198.84" rx="14.3" ry="14.3"/>
    </clipPath>
  </defs>
  <rect class="cls-27" x="0" width="173.34" height="246.49" rx="13.2" ry="13.2"/>
  <rect class="cls-26" x="6.41" y="7.17" width="160.53" height="198.84" rx="14.3" ry="14.3"/>
  <g class="cls-19">
    <g>
      <path class="cls-14" d="M144.32,140c3.77,3.17,7.54,6.34,11.31,9.52-1.02-4.12-2.04-8.25-3.06-12.37,2.26-.34,4.52-.67,6.78-1.01,.32-12.14,.64-24.27,.97-36.41-28.56-.05-57.13-.09-85.69-.14,1.16,15.87,2.32,31.74,3.48,47.61,22.07-2.4,44.14-4.8,66.21-7.2Z"/>
      <rect class="cls-14" x="22.33" y="17.64" width="135.44" height="25.88" rx="12.94" ry="12.94"/>
      <g>
        <circle class="cls-5" cx="34.73" cy="29.67" r="4.88"/>
        <line class="cls-5" x1="38.31" y1="32.98" x2="42.92" y2="37.85"/>
      </g>
      <rect class="cls-14" x="22.33" y="47.65" width="135.44" height="25.88" rx="12.94" ry="12.94"/>
      <g>
        <circle class="cls-5" cx="34.73" cy="59.68" r="4.88"/>
        <line class="cls-5" x1="38.31" y1="62.99" x2="42.92" y2="67.86"/>
      </g>
      <path class="cls-14" d="M82.29,166.12c-1.98,1.81-3.96,3.61-5.93,5.42,.06,3.44,.13,6.88,.19,10.31-12.54,1.05-25.09,2.1-37.63,3.15-1.41-9.55-2.81-19.1-4.22-28.65,13.91-.27,27.82-.54,41.73-.81,.17,3.43,.34,6.86,.51,10.28,1.79,.1,3.57,.19,5.36,.29Z"/>
      <path class="cls-1" d="M79.66,181.32c2.91-2.65,5.81-5.3,8.72-7.96-.09-5.05-.19-10.1-.28-15.15,18.42-1.54,36.85-3.09,55.27-4.63,2.07,14.03,4.13,28.05,6.2,42.08-20.43,.39-40.86,.79-61.3,1.18-.25-5.03-.5-10.07-.75-15.1-2.62-.14-5.24-.28-7.87-.43Z"/>
      <path class="cls-1" d="M69.62,125.72c3.77,3.17,7.54,6.34,11.31,9.52-1.02-4.12-2.04-8.25-3.06-12.37,2.26-.34,4.52-.67,6.78-1.01,.32-12.14,.64-24.27,.97-36.41-28.56-.05-57.13-.09-85.69-.14,1.16,15.87,2.32,31.74,3.48,47.61,22.07-2.4,44.14-4.8,66.21-7.2Z"/>
      <g>
        <polygon class="cls-16" points="109.05 147.96 143.48 147.45 147.02 181.04 106.36 181.54 109.05 147.96"/>
        <g>
          <polygon class="cls-24" points="144.91 161.06 150.95 159.74 151.17 169.25 145.77 169.25 144.91 161.06"/>
          <path class="cls-4" d="M145.45,166.18s.82-1.77,1.75-2.69,2.28-1.46,2.28-1.46"/>
        </g>
        <g>
          <polygon class="cls-24" points="107.99 161.45 101.94 160.13 101.73 169.64 107.31 169.64 107.99 161.45"/>
          <path class="cls-4" d="M107.45,166.56s-.82-1.77-1.75-2.69-2.28-1.46-2.28-1.46"/>
        </g>
        <path class="cls-13" d="M144.91,161.06l4.29-.94,1.3-19.54s-32.3-5.97-33.59-6.39-2.45-1.01-3.33-1.39-2.82-1.49-2.82-1.49l2.47,4.56-10.36,8.92,1.98,15.97,3.13,.68,1.07-13.48,34.43-.51,1.43,13.61Z"/>
        <polygon class="cls-13" points="140.83 157.72 141.43 155.09 134.71 155.09 133.73 156.69 140.83 157.72"/>
        <polygon class="cls-13" points="110.79 156.76 110.35 154.09 117.05 154.51 117.93 156.17 110.79 156.76"/>
        <polygon class="cls-3" points="121.82 157.2 126.76 157.2 126.76 168.94 118.35 169.3 119.33 164.97 121.76 164.51 121.82 157.2"/>
        <path class="cls-8" d="M111.09,164.1s.92-1.87,3.13-1.69,2.97,1.69,2.97,1.69"/>
        <path class="cls-8" d="M134.2,164.1s.92-1.87,3.13-1.69,2.97,1.69,2.97,1.69"/>
        <polygon class="cls-13" points="106.65 173.84 110.36 178.57 141.49 178.39 146.22 171.94 147.47 181.37 130.86 181.88 130.86 183.81 123.65 183.81 122.81 181.99 106.03 181.77 106.65 173.84"/>
        <path class="cls-25" d="M123.17,173.84l4.71-.47s-.13,2.18-2.12,2.27-2.6-1.81-2.6-1.81Z"/>
        <path class="cls-3" d="M145.45,167.31s-4.28-1.96-8.2,1.99c-3.92,3.94-1.79,9.12-1.79,9.12"/>
        <path class="cls-3" d="M107.45,167.96s3.57,.9,5.96,3.51c2.39,2.61,2.25,7.06,2.25,7.06"/>
        <polygon class="cls-13" points="113.58 171.74 120.22 167.55 124.79 168.35 129.78 167.18 136 171.76 126.31 172.45 124.79 170.8 123.22 172.63 113.58 171.74"/>
      </g>
      <g>
        <path class="cls-20" d="M75.84,91.51l-53.76,2.83,.72,23.34,55.32,1.9-2.28-28.07Zm-.79,26.16l-28.55-1.18-1.09-20.75,28.41-1.5,1.23,23.43Z"/>
        <polygon class="cls-20" points="67.13 99.44 69.18 101.99 52.2 113.55 50.81 111.49 67.13 99.44"/>
        <polygon class="cls-20" points="50.63 102.55 52.27 99.71 69.17 111.39 67.75 113.43 50.63 102.55"/>
      </g>
      <g>
        <path class="cls-23" d="M67.36,135.75l-29.84-12.94-27.84,22.12,4.41,45.46L-.71,211.38s20.97,17.47,45.89,14.27c24.92-3.2,44.02-15.75,44.02-15.75l-13.84-27.64-8.01-46.5Z"/>
        <line class="cls-2" x1="48.38" y1="190.95" x2="51.63" y2="224.54"/>
        <g>
          <path class="cls-1" d="M52.47,187.7c-.82-2.36-7.86-.88-8.27,1.32-.41,2.19,2.39,4.83,5.12,4.22,2.72-.61,3.97-3.18,3.15-5.54Z"/>
          <polygon class="cls-18" points="44.25 188.87 44.86 191.1 38.2 192.07 44.25 188.87"/>
          <polygon class="cls-18" points="44.8 191.03 46.41 192.7 41.02 196.72 44.8 191.03"/>
          <polygon class="cls-18" points="46.21 192.61 48.44 193.23 45.83 199.43 46.21 192.61"/>
          <polygon class="cls-18" points="48.44 193.25 50.67 192.64 51.63 199.29 48.44 193.25"/>
          <polygon class="cls-18" points="50.69 192.62 52.24 190.91 56.62 196.02 50.69 192.62"/>
          <polygon class="cls-18" points="52.26 190.91 52.68 188.64 59.09 190.68 52.26 190.91"/>
          <polygon class="cls-18" points="52.65 188.64 52.45 186.34 59.17 186.61 52.65 188.64"/>
        </g>
        <polygon class="cls-12" points="68.3 147.31 20.62 153.43 24.83 191.59 72.66 185.92 68.3 147.31"/>
        <path class="cls-22" d="M18.84,142.7l1.51,11.78,48.61-6.24-1.6-12.49s-12.28,.12-23.79,1.6c-11.51,1.48-24.73,5.35-24.73,5.35Z"/>
        <path class="cls-15" d="M39.35,155.74l.46,3.62s-3.73,.3-7.55-.08c-3.82-.39-8.5-2.06-8.5-2.06l-.6-4.66s6.01,1.77,8.17,2.19c2.16,.42,8.02,.99,8.02,.99Z"/>
        <path class="cls-15" d="M52.77,154.74l.49,3.82,13.8-4.66-.95-3.82s-4.55,1.18-6.91,2c-2.36,.83-6.43,2.67-6.43,2.67Z"/>
        <path class="cls-7" d="M38.58,189.91s-.46-5.54-5.04-8.7c-4.58-3.16-9.79-2.04-9.79-2.04"/>
        <path class="cls-7" d="M60.12,186.84s-.06-5.8,3.79-9.36c3.85-3.56,6.93-3.4,6.93-3.4"/>
        <path class="cls-9" d="M46.96,184.03s-2.37-.69-4.37-3.04c-2-2.36-2.73-4.52-2.73-4.52"/>
        <g>
          <path class="cls-10" d="M66.78,162.35c-.42-.14-3.87-1.2-6.91,.91-1.93,1.35-2.65,3.24-2.87,3.94"/>
          <path class="cls-10" d="M66.57,160.01c-.19,.61-.38,1.22-.57,1.84"/>
          <path class="cls-10" d="M64.41,159.93c.06,.61,.13,1.22,.19,1.84"/>
          <path class="cls-21" d="M61.68,162.59c1.44,.19,2.06,1.78,2.22,2.19,.18,.46,.68,1.74-.02,2.62-.49,.62-1.28,.66-1.32,.67-1.29,.05-2.14-1.43-2.43-1.94-.38-.66-1.04-1.83-.49-2.72,.42-.69,1.36-.9,2.04-.81Z"/>
        </g>
        <g>
          <path class="cls-10" d="M29.18,165.74c.38-.23,3.49-2.06,6.94-.71,2.19,.86,3.32,2.54,3.7,3.17"/>
          <path class="cls-10" d="M28.84,163.42c.33,.55,.65,1.1,.98,1.66"/>
          <path class="cls-10" d="M30.93,162.85c.08,.61,.16,1.22,.24,1.83"/>
          <path class="cls-21" d="M34.2,164.8c-1.36,.52-1.59,2.21-1.65,2.65-.07,.49-.26,1.85,.63,2.54,.62,.49,1.4,.35,1.44,.34,1.27-.25,1.75-1.89,1.92-2.45,.22-.73,.59-2.02-.15-2.76-.57-.57-1.53-.56-2.17-.32Z"/>
        </g>
        <path class="cls-11" d="M48.43,157.87c-.05,5.37-.1,10.74-.15,16.11,3.16-.17,6.32-.34,9.48-.51-3.11-5.2-6.22-10.4-9.33-15.6Z"/>
      </g>
      <g>
        <path class="cls-15" d="M50.86,28.23h-.83l-.39-.22,.23-1.31,.3,.17h.68v-.4h2.2v.4h2.93v-.4h2.2v.4h.68l.3-.17,.23,1.31-.39,.22h-.83v.4h-2.2v-.4h-2.93v.4h-2.2v-.4Zm8.26,.42l.23,1.32-.39,.22h-2v.42h2v4.99l-.39,.22h-8.5v-3.64h2.1v2.27h4.7v-.45h-1.75l-.38-.23v-1.81h-.47v.6c0,.57-.07,1.1-.21,1.6l-1.67-.24c.12-.38,.18-.96,.18-1.72v-.24h-2.24l-.39-.22,.23-1.31,.31,.18h1.59v-.42h-1.98l-.39-.22,.23-1.32,.3,.18h8.56l.31-.18Zm-4.36,1.96v-.42h-.48v.42h.48Zm1.71,2.03h.4v-.68h-.4v.68Z"/>
        <path class="cls-15" d="M70.58,30.11h-8.95l-.38-.22,.23-1.26,.29,.17h3.23v-.33h2.2v.33h3.23l.29-.17,.22,1.26-.37,.22Zm-8-1.97h-.87l-.37-.21,.22-1.27,.29,.17h.72v-.37h2.12v.37h2.86v-.37h2.11v.37h.67l.29-.17,.22,1.27-.37,.21h-.82v.29h-2.11v-.29h-2.86v.29h-2.12v-.29Zm7.16,2.26l-.07,.31h1.14v1.53l-.37,.21h-1.68v-.52h-5.33v.52h-2.04v-1.74h1.15l-.07-.31,2.18-.1,.09,.42h2.71l.1-.42,2.18,.1Zm.74,2.38v2.69l-.38,.21h-1.74v-1.6h-1.16v1.9h-2.2v-1.9h-3.07l-.37-.21,.22-1.26,.29,.17h2.92v-.47h2.2v.47h3.28Zm-8.75,2.95v-1.42h2.11v1.42h-2.11Z"/>
        <path class="cls-15" d="M73.18,33.33h2.1v1.99h-2.1v-1.99Z"/>
        <path class="cls-15" d="M81.4,30.24l.27-.16,.23,1.31-.39,.22h-.12v4.25h-1.95l-.29-.17,.18-1.05,.24,.15h.08v-3.18h-1.93v-3.4h1.51v2.03h.42v-2.26h-1.73l-.39-.22,.23-1.32,.3,.18h3.17l.31-.18,.23,1.32-.39,.22v2.25Zm-3.51,1.56l1.4,.09-.29,3.97-1.39-.11,.28-3.96Zm8.76,2.66l.31-.18,.23,1.31-.39,.22h-4.7v-6.13l-.54-.14c.29-.96,.54-2.02,.78-3.18l1.73,.29c-.08,.43-.2,.96-.35,1.57h2.96l.3-.18,.23,1.31-.38,.23h-.58v.71h.33l.31-.18,.23,1.31-.39,.22h-.49v.72h.33l.31-.18,.23,1.31-.39,.22h-.49v.72h.39Zm-2.19-4.15v-.71h-.53v.71h.53Zm0,2.08v-.72h-.53v.72h.53Zm-.53,1.35v.72h.53v-.72h-.53Zm2.49-6.6l-1.06,1.07-1.06-1.07,1.06-1.06,1.06,1.06Z"/>
        <path class="cls-15" d="M98.65,34.26l.23,1.32-.39,.22h-9.11l-.39-.22,.23-1.32,.31,.18h8.8l.3-.18Zm-7.99-3.65h-1.65l1.92-4.25,2.24,.39-1.36,2.78h1.57l-1.31,2.66h1.11l.3-.18,.23,1.31-.39,.22h-4.21l1.54-2.93Zm5,0h-1.65l1.92-4.25,2.24,.39-1.36,2.78h1.57l-1.31,2.66h1.11l.3-.18,.23,1.31-.38,.22h-4.21l1.53-2.93Z"/>
        <path class="cls-15" d="M105.98,35.59l-.38,.22h-4.65v-2.87h-.09l-.39-.22,.23-1.32,.25,.15v-1.22h1.89v1.25h1.26v-1.49h-2.92l-.39-.22,.23-1.31,.3,.18h4.66v2.84h.1l.3-.18,.23,1.32-.38,.22h-.26v2.65Zm-5.03-9.13h2.2v.46h2.45l.31-.18,.23,1.32-.39,.22h-4.43l-.38-.22v-1.6Zm1.89,6.48v1.52h1.26v-1.52h-1.26Zm.63-2.63l.52,.51-.52,.52-.52-.52,.52-.51Zm0,2.87l.52,.52-.52,.52-.52-.52,.52-.52Zm5.85,2.88c-.37-.38-.69-.75-.96-1.1-.27,.36-.58,.73-.93,1.1l-1.31-1.07c.53-.55,.96-1.08,1.29-1.58-.48-1.01-.84-2.42-1.1-4.24l1.56-.26c.09,.89,.24,1.66,.44,2.33,.16-.75,.22-1.6,.18-2.56h-1.79l-.38-.22v-2h2.1v.86h1.56l.3-.18,.23,1.32-.39,.22h-.02c.03,1.86-.24,3.43-.8,4.71,.32,.49,.75,1.01,1.29,1.56l-1.27,1.12Z"/>
        <path class="cls-15" d="M115.54,26.48v.83h1.24v8.23l-.39,.22h-3.88v-6.76h1.88v5.4h.51v-2.14h-.33v-1.36h.33v-2.22h-2.19l-.39-.22,.23-1.32,.31,.18h.63v-.83h2.04Zm3.66,.75h2.47v8.63h-3.83l-.38-.22,.23-1.32,.3,.18h1.47v-5.9h-2.08l-.39-.22v-1.94h2.2v.8Zm-.4,2.01l.35,4.32-1.71,.15-.35-4.32,1.71-.15Z"/>
        <path class="cls-15" d="M128.44,33.1h-1.11v2.77h-2.11l-.33-.2,.2-1.13,.25,.15v-1.58h-1.11l-.38-.22,.23-1.31,.3,.18h.95v-.65h-1.27l-.38-.22,.23-1.32,.3,.18h.15l-.07-1.09,1.73-.1,.08,1.19h.38l.08-1.19,1.73,.1-.07,1.09h.21l.3-.18,.23,1.32-.38,.22h-1.27v.65h.95l.3-.18,.23,1.31-.38,.22Zm-4.36,.3l1.01,.15-.3,1.93-1-.16,.29-1.92Zm4.36-5.12h-4.21l-.38-.22,.23-1.31,.3,.17h.85v-.52h2.2v.52h.85l.3-.17,.23,1.31-.38,.22Zm-.9,5.26l1.01-.15,.29,1.92-1,.16-.3-1.93Zm6.07-2.68l-.38,.23h-.08v4.79h-1.77v-4.79h-.43v2.14c0,1.08-.07,2.01-.22,2.78l-1.78-.24c.13-.58,.19-1.34,.19-2.29v-5.26h1.81v1.51h2.13l.3-.18,.23,1.31Zm-.52-2.9h-3.75l-.38-.22,.23-1.31,.3,.18h3.44l.31-.18,.23,1.31-.39,.22Z"/>
        <path class="cls-15" d="M137.94,27.56l-1.3,1.3-1.3-1.3,1.3-1.3,1.3,1.3Zm-2.31,8.35v-6.76h1.94v6.76h-1.94Zm6.73-2.21l.23-.13,.22,1.26-.37,.21h-.08v.84h-1.72v-.84h-2.74v-1.3h.24v-3.87l-.38-.21,.22-1.26,.29,.17h3.94l.29-.17,.22,1.26-.38,.21v3.83Zm2.52-7.13v9.34h-1.94v-7.98h-4.46l-.38-.22,.23-1.31,.3,.17h6.25Zm-5.01,7.17h.78v-.42h-.54v-1.31h.54v-.41h-.54v-1.31h.54v-.42h-.78v3.87Z"/>
      </g>
      <g>
        <path class="cls-15" d="M54.22,59.57c.63,0,1.18,.22,1.65,.66,.48,.44,.72,.96,.72,1.57v.76c0,.62-.22,1.14-.66,1.57-.43,.44-.96,.66-1.57,.66h-4.07l-.39-.22,.23-1.32,.31,.18h2.76c.33,0,.61-.12,.84-.35,.23-.24,.35-.52,.35-.84v-.14c0-.33-.12-.61-.35-.84s-.51-.35-.84-.35h-1.14c-.62,0-1.18-.22-1.67-.66-.5-.45-.74-.97-.74-1.58v-.7c0-.62,.22-1.15,.65-1.58,.44-.43,.97-.65,1.58-.65h3.98l.3-.18,.23,1.31-.38,.22h-2.99c-.32,0-.6,.12-.84,.35-.23,.23-.35,.51-.35,.84v.09c0,.32,.12,.6,.35,.84,.24,.23,.52,.35,.84,.35h1.18Z"/>
        <path class="cls-15" d="M58.91,62.4h2.1v1.99h-2.1v-1.99Z"/>
        <path class="cls-15" d="M73.06,63.92l-1.25,1.25-1.25-1.25-1.24,1.25-1.25-1.25-1.25,1.25-1.25-1.25-1.25,1.25-1.25-1.25,1.25-1.25,1.25,1.24,1.25-1.24,1.25,1.24,1.25-1.24,1.24,1.24,1.25-1.24,1.25,1.25Zm-6.08-5.93h-3.35l-.39-.22,.23-1.32,.3,.18h3.21v-1.18h2.2v1.18h3.21l.3-.18,.23,1.32-.39,.22h-3.35v4.4h-2.2v-4.4Zm-1.68,4.65l-1.96-.51,1.03-3.94,1.96,.51-1.03,3.94Zm4.52-3.94l1.96-.51,1.03,3.94-1.96,.51-1.03-3.94Z"/>
        <path class="cls-15" d="M79.83,56.21v8.7h-2.34l-.38-.22,.23-1.31,.3,.18h.08v-5.98h-.4c-.13,2.56-.28,5.03-.44,7.42l-1.98-.13c.18-2.79,.32-5.23,.42-7.29h-.29l-.38-.22,.23-1.32,.3,.18h.21l.03-.78,1.99,.09-.03,.68h2.43Zm4.48-.41v9.01h-4.01v-7.34h1.76v5.97h.49v-6.3h-2.1l-.38-.22,.23-1.31,.3,.18h3.7Z"/>
        <path class="cls-15" d="M89.79,55.54v.83h1.24v8.23l-.39,.22h-3.88v-6.76h1.88v5.4h.51v-2.14h-.33v-1.36h.33v-2.22h-2.19l-.39-.22,.23-1.32,.31,.18h.63v-.83h2.04Zm3.66,.75h2.47v8.63h-3.83l-.38-.22,.23-1.32,.3,.18h1.47v-5.9h-2.08l-.39-.22v-1.94h2.2v.8Zm-.4,2.01l.35,4.32-1.71,.15-.35-4.32,1.71-.15Z"/>
        <path class="cls-15" d="M102.69,62.17h-1.11v2.77h-2.11l-.33-.2,.2-1.13,.25,.15v-1.58h-1.11l-.38-.22,.23-1.31,.3,.18h.95v-.65h-1.27l-.38-.22,.23-1.32,.3,.18h.15l-.07-1.09,1.73-.1,.08,1.19h.38l.08-1.19,1.73,.1-.07,1.09h.21l.3-.18,.23,1.32-.38,.22h-1.27v.65h.95l.3-.18,.23,1.31-.38,.22Zm-4.36,.3l1.01,.15-.3,1.93-1-.16,.29-1.92Zm4.36-5.12h-4.21l-.38-.22,.23-1.31,.3,.17h.85v-.52h2.2v.52h.85l.3-.17,.23,1.31-.38,.22Zm-.9,5.26l1.01-.15,.29,1.92-1,.16-.3-1.93Zm6.07-2.68l-.38,.23h-.08v4.79h-1.77v-4.79h-.43v2.14c0,1.08-.07,2.01-.22,2.78l-1.78-.24c.13-.58,.19-1.34,.19-2.29v-5.26h1.81v1.51h2.13l.3-.18,.23,1.31Zm-.52-2.9h-3.75l-.38-.22,.23-1.31,.3,.18h3.44l.31-.18,.23,1.31-.39,.22Z"/>
        <path class="cls-15" d="M112.18,56.62l-1.3,1.3-1.3-1.3,1.3-1.3,1.3,1.3Zm-2.31,8.35v-6.76h1.94v6.76h-1.94Zm6.73-2.21l.23-.13,.22,1.26-.37,.21h-.08v.84h-1.72v-.84h-2.74v-1.3h.24v-3.87l-.38-.21,.22-1.26,.29,.17h3.94l.29-.17,.22,1.26-.38,.21v3.83Zm2.52-7.13v9.34h-1.94v-7.98h-4.46l-.38-.22,.23-1.31,.3,.17h6.25Zm-5.01,7.17h.78v-.42h-.54v-1.31h.54v-.41h-.54v-1.31h.54v-.42h-.78v3.87Z"/>
      </g>
      <g>
        <rect class="cls-1" x="163.84" y="117.27" width="14.27" height="46.99" transform="translate(-50.46 144.57) rotate(-40.45)"/>
        <rect class="cls-1" x="152.42" y="112.56" width="6.14" height="20.22" transform="translate(-42.42 130.2) rotate(-40.45)"/>
        <circle class="cls-17" cx="129.13" cy="92.43" r="29.88"/>
        <path class="cls-1" d="M139.5,73.28c11.33,5.03,15.57,18.32,9.61,29.13-1.8,3.35-4.41,6.25-7.52,8.41,2.68-2.58,4.92-5.57,6.48-8.93,5.09-10.7,1.34-22.27-8.57-28.61h0Z"/>
      </g>
    </g>
  </g>
  <g>
    <path class="cls-1" d="M45.25,219.88l-.48,.27h-.34v3.78h-2.76l-.48-.27,.29-1.64,.38,.22h.04v-2.09h-.65v-1.69h.65v-2.73h-.35l-.48-.27,.29-1.64,.38,.22h.17v-1.69h2.54v1.69h.16l.38-.22,.29,1.64-.48,.27h-.34v2.73h.16l.38-.22,.29,1.64Zm7.21,4.22c-1.17-.27-2.26-.59-3.26-.97-.88,.46-1.86,.82-2.94,1.08l-1.04-1.57c.55-.15,1.12-.33,1.7-.53-.55-.28-1.03-.55-1.46-.81l1.14-.86h-.78l-.44-.26,.27-1.51,.35,.21h2.09v-.48h-2.64v-3.96h1.94v.22h.48v1.62h-.48v.43h.7v-4.45h2.09v4.45h.7v-.43h-.47v-1.62h.47v-.42h-.13l-.43-.26,.26-1.5,.35,.2h1.88v5.45l-.49,.27h-2.14v.48h2.72c-.11,1.05-.73,2.05-1.85,3.02,.56,.16,1.32,.33,2.28,.51l-.88,1.7Zm-4.59-9.87h-2.13l-.44-.26,.27-1.5,.34,.2h1.96v1.56Zm-.4,6.2c.42,.24,.91,.49,1.47,.73,.39-.24,.71-.49,.95-.73h-2.42Z"/>
    <path class="cls-1" d="M56.32,219.32v-3.55l-.99-.16c.58-1.21,1.01-2.36,1.3-3.44l2.7,.26c-.06,.25-.12,.45-.17,.58h2v-.69h2.73v.69h2.76l.29-.17,.21,1.22-.35,.21h-2.9v.42h2.68l.29-.16,.22,1.21-.36,.21h-2.82v.43h2.68l.29-.17,.22,1.22-.36,.21h-2.82v.42h2.9l.27-.16,.22,1.21-.35,.21h-10.62Zm11.26,2l-.42,.23h-.62l.57,2.07-2.67,.49-.69-2.56h-.86v2.55h-2.86v-2.55h-.82l-.7,2.56-2.65-.49,.56-2.07h-.65l-.42-.23,.25-1.4,.33,.19h4.11v-.53h2.86v.53h4.11l.33-.19,.25,1.4Zm-6.41-6.63v-.42h-2.12v.42h2.12Zm0,1.69v-.43h-2.12v.43h2.12Zm0,1.68v-.42h-2.12v.42h2.12Z"/>
    <path class="cls-1" d="M77,219.85c-.12,.46-.3,.88-.55,1.26l5.26,.99-.43,1.77-6.3-1.18c-.95,.75-1.99,1.26-3.11,1.53l-2.04-1.26c.85-.2,1.59-.47,2.24-.82l-1.86-.35,.43-1.77,3.18,.6c.18-.27,.32-.52,.42-.77h-3.8v-3.63h2.6v.22h1.48v-.52h-3.8l-.42-.25,.25-1.4,.34,.18h3.56v-.48h-4.09l-.43-.25,.26-1.46,.34,.2h10.58l.34-.2,.26,1.46-.43,.25h-4.09v.48h4v5.12l-.48,.27h-3.72Zm-3.95-2v.53h1.48v-.53h-1.48Zm4.08-1.92v.52h1.47v-.52h-1.47Zm0,2.46h1.47v-.53h-1.47v.53Z"/>
    <path class="cls-1" d="M96.23,218.02c-.21,1.79-1.27,3.25-3.2,4.38-1.96,1.16-4.44,1.75-7.44,1.78l-1.21-1.78c1.77-.07,3.3-.27,4.59-.6l-.42-.56,2-1.36,.75,1.01c.55-.31,1.05-.71,1.48-1.18h-3.21c-.59,.55-1.32,1.13-2.2,1.77l-2.05-1.04c.87-.62,1.64-1.29,2.33-2.03-.78,.18-1.51,.3-2.2,.36l-1.23-1.75c1.25-.12,2.38-.33,3.41-.61l-.3-.39,2-1.37,.66,.88c.75-.37,1.39-.78,1.92-1.22h-3.22c-.74,.72-1.48,1.3-2.22,1.75l-2.08-1.03c1.17-.86,2.22-1.9,3.15-3.12l2.72,.53-.12,.17h5.56c-.18,1.02-.82,2-1.91,2.94-1.01,.86-2.3,1.58-3.85,2.17l1.25,.23-.04,.05h5.07Z"/>
    <path class="cls-1" d="M107.04,219.42c.62,1.21,1.82,2.29,3.59,3.22l-2.22,1.64c-1.53-.7-2.79-1.89-3.78-3.56-.98,1.67-2.24,2.86-3.77,3.56l-2.24-1.64c1.78-.94,2.97-2.02,3.59-3.22h-3.17l-.48-.27,.29-1.62,.38,.21h3.6c.13-.55,.22-1.17,.27-1.87h-3.8l-.47-.27,.29-1.62,.38,.21h1.05l-.4-1.46,2.76-.6,.61,2.05h2.27l.61-2.05,2.76,.6-.4,1.46h.88l.38-.21,.29,1.62-.47,.27h-3.78c0,.58-.09,1.21-.23,1.87h4.09l.38-.21,.29,1.62-.48,.27h-3.04Z"/>
    <path class="cls-1" d="M125.14,218.62l-.47,.27h-4.19v5.07h-4.76l-.48-.27,.29-1.64,.38,.22h1.72v-3.38h-4.45l-.47-.27,.29-1.62,.38,.22h4.25v-3.09h-4.12l-.47-.27,.29-1.62,.38,.22h10.45l.38-.22,.29,1.62-.47,.27h-3.86v3.09h3.99l.38-.22,.29,1.62Z"/>
    <path class="cls-1" d="M138.95,215.39v8.55h-3.26l-.42-.25,.25-1.42,.34,.18h.49v-5.38h-.78v.95c0,.65-.04,1.29-.1,1.91l.79,.47-.83,1.42-.3-.18c-.09,.33-.21,.68-.36,1.07l-1.98-.64c.21-.51,.37-1.06,.49-1.65l-.51,.86-.27-.16c-.13,.45-.35,.99-.65,1.62l-1.61-.61v1.81h-2.6v-6.58h2.6v4.03c.36-.98,.55-2.1,.55-3.37v-.95h-2.9l-.47-.27,.29-1.64,.38,.22h2.27v-1.24h-2.63l-.48-.27,.29-1.62,.38,.21h10.76l.38-.21,.29,1.62-.48,.27h-2.67v1.24h2.76Zm-5.46,1.69h-.62v.95c0,.45-.02,.92-.07,1.42l.58,.34c.07-.57,.1-1.16,.1-1.76v-.95Zm-.66-2.93v1.24h.9v-1.24h-.9Z"/>
    <path class="cls-1" d="M44.75,228.18c-.29,1.39-.67,2.79-1.12,4.2h.78v7.24h-2.73v-6.45l-1.05-.23c.55-1.54,1.04-3.27,1.44-5.17l2.68,.42Zm8.22,9.37l.29,1.64-.48,.27h-7.38l-.48-.27,.29-1.64,.39,.22h7.01l.38-.22Zm-.27-6.7h-7.23l-.47-.27,.29-1.62,.38,.21h2.05v-1.27h2.73v1.27h2.05l.39-.21,.29,1.62-.48,.27Zm-6.85,6.37l-.43-5.73,2.43-.18,.44,5.73-2.44,.18Zm4.08-.18l.43-5.73,2.44,.18-.43,5.73-2.44-.18Z"/>
    <path class="cls-1" d="M58.88,228.22c-.27,1.44-.61,2.83-1.01,4.16h.58v7.24h-2.51v-6.45l-.81-.21c.49-1.55,.93-3.28,1.3-5.17l2.44,.43Zm-.08,9.85v-8.41h1.87v8.41h-1.87Zm8.27-1.48h-1.3l1.74,1.36-1.37,1.75-1.83-1.43c-.42,.59-.93,1.07-1.51,1.46l-2.08-1.13c.86-.68,1.47-1.36,1.83-2.01h-1.29l-.44-.25,.27-1.53,.35,.21h1.62c.04-.32,.07-.65,.08-.98h-1.55l-.44-.26v-1.69h2.47v.38h3.08l.35-.21,.27,1.52-.44,.26h-1.25c-.03,.43-.07,.76-.1,.98h1.35l.35-.21,.26,1.53-.44,.25Zm-.16-4.8h-5.6l-.44-.25,.26-1.53,.36,.21h2.67v-.57h-2.33l-.46-.25,.27-1.53,.35,.21h4.63v2.15h.1l.35-.21,.27,1.53-.44,.25Z"/>
    <path class="cls-1" d="M81.22,237.74l.39-.22,.29,1.64-.48,.27h-10.69l-.47-.27v-5.64h-.18l-.48-.27,.29-1.62,.38,.22h2.73v5.9h8.23Zm-8.06-8.07l-1.66,1.66-1.66-1.66,1.66-1.66,1.66,1.66Zm3.45,2.46v-1.13h-2.67l-.48-.27v-2.7h2.54v1.29h.61v-1.43h2.86v1.43h1.66l.38-.22,.29,1.64-.48,.27h-1.85v1.13h1.85l.38-.21,.29,1.62-.48,.27h-.87v1.66h.46l.38-.22,.29,1.64-.48,.27h-3.37v-3.35h-.72l-.57,3.5-2.64-.26,.51-3.24h-.77l-.48-.27,.29-1.62,.38,.21h2.72Z"/>
    <path class="cls-1" d="M96.67,238.13l-2.2,1.83-3.74-4.54c-1.01,1.96-2.62,3.44-4.82,4.45l-2.12-1.78c1.99-1.06,3.38-2.26,4.15-3.61,.69-1.21,1.04-2.82,1.04-4.85v-1.82h2.99v1.82c0,.9-.07,1.75-.21,2.56l4.91,5.94Z"/>
    <path class="cls-1" d="M102.64,227.9v1.03h1.53v10.21l-.48,.27h-4.81v-8.38h2.33v6.69h.64v-2.65h-.42v-1.69h.42v-2.76h-2.72l-.48-.27,.29-1.64,.39,.22h.78v-1.03h2.54Zm4.54,.94h3.07v10.7h-4.75l-.47-.27,.29-1.64,.38,.22h1.82v-7.32h-2.59l-.48-.27v-2.4h2.73v.99Zm-.49,2.5l.43,5.36-2.12,.18-.43-5.36,2.12-.18Z"/>
    <path class="cls-1" d="M116.53,228.18c-.32,1.51-.69,2.91-1.12,4.2h.92v7.24h-2.73v-6.41l-1.16-.27c.53-1.48,1-3.21,1.43-5.17l2.65,.42Zm8.06,1.98h-7.37l-.47-.27,.29-1.64,.38,.22h2.13v-.64h2.73v.64h2.13l.38-.22,.29,1.64-.48,.27Zm-.48,.49l.38-.21,.29,1.62-.47,.27h-6.79l-.48-.27,.29-1.62,.38,.21h6.41Zm0,2.2l.38-.22,.29,1.62-.47,.27h-6.79l-.48-.27,.29-1.62,.38,.22h6.41Zm.55,2.18v4.16l-.48,.27h-6.94v-2.46h2.6v.77h2.21v-1.05h-4.5l-.48-.27,.29-1.64,.38,.22h6.93Z"/>
    <path class="cls-1" d="M126.96,237.5l1.53-1.52,1.52,1.52-1.52,1.53-1.53-1.53Zm8.83-7.66h-7.44l-.43-.23,.26-1.47,.34,.21h3.41v-.61h2.73v.61h3.86v7.15l-.48,.27h-9.97v-5.64h2.73v4.13h4.99v-.47h-4.63v-1.51h4.63v-.47h-4.63v-1.51h4.63v-.47Zm.7,8.1l.35-.2,.26,1.51-.44,.26h-6.29v-3.42h2.86v1.85h3.26Zm-1.66-.13l-.95-.95,.95-.94,.94,.94-.94,.95Zm3.41-1.87l1.39,1.39-1.39,1.4-1.39-1.4,1.39-1.39Z"/>
  </g>
</svg>