<?xml version="1.0" encoding="UTF-8"?>
<svg id="Layer_2" data-name="Layer 2" xmlns="http://www.w3.org/2000/svg" xmlns:xlink="http://www.w3.org/1999/xlink" viewBox="0 0 246.09 293.53">
  <defs>
    <style>
      .cls-1 {
        fill: #fff;
      }

      .cls-2 {
        fill: #ef9d7f;
      }

      .cls-3 {
        fill: #363636;
      }

      .cls-4 {
        fill: #eeb2ff;
      }

      .cls-5 {
        fill: #fac300;
      }

      .cls-6 {
        fill: #333;
      }

      .cls-7 {
        fill: #fce9ca;
      }

      .cls-8 {
        fill: #f80500;
      }

      .cls-9 {
        fill: #ab7a5a;
      }

      .cls-10 {
        fill: #f4ae32;
      }

      .cls-11 {
        clip-path: url(#clippath);
      }

      .cls-12 {
        fill: none;
      }

      .cls-13 {
        fill: #353535;
      }

      .cls-14 {
        fill: #474747;
      }

      .cls-15 {
        fill: #515151;
      }

      .cls-16 {
        fill: #9e6647;
      }

      .cls-17 {
        fill: #b72c2c;
      }

      .cls-18 {
        fill: #e08bfc;
      }

      .cls-19 {
        fill: #d46cff;
      }

      .cls-20 {
        fill: #f7a22d;
      }
    </style>
    <clipPath id="clippath">
      <rect class="cls-12" x="43.32" y="34.42" width="160.53" height="198.84" rx="14.3" ry="14.3"/>
    </clipPath>
  </defs>
  <rect class="cls-20" x="36.91" y="27.25" width="173.34" height="246.49" rx="13.2" ry="13.2"/>
  <g>
    <path class="cls-1" d="M64.98,244.55c-.15-.29-.36-.5-.64-.65-.28-.15-.6-.23-.98-.23-.65,0-1.16,.22-1.55,.67-.39,.44-.58,1.04-.58,1.78,0,.79,.2,1.41,.61,1.85,.41,.44,.97,.67,1.69,.67,.49,0,.9-.13,1.24-.39s.59-.63,.74-1.12h-2.53v-1.54h4.34v1.94c-.15,.52-.4,1.01-.75,1.45-.35,.45-.8,.81-1.35,1.09-.54,.28-1.16,.42-1.84,.42-.81,0-1.53-.19-2.17-.56-.63-.37-1.13-.89-1.48-1.54-.35-.66-.53-1.41-.53-2.26s.18-1.6,.53-2.26c.35-.66,.85-1.18,1.48-1.55,.63-.37,1.35-.56,2.16-.56,.98,0,1.81,.25,2.48,.75,.67,.5,1.12,1.18,1.34,2.06h-2.21Z"/>
    <path class="cls-1" d="M69,245.15c.25-.53,.6-.94,1.03-1.22,.44-.29,.92-.43,1.46-.43,.46,0,.86,.1,1.21,.29,.35,.2,.61,.45,.8,.77v-.96h2v6.81h-2v-.96c-.2,.32-.47,.57-.81,.77-.35,.2-.75,.29-1.21,.29-.53,0-1.01-.14-1.45-.43-.44-.29-.78-.7-1.03-1.23s-.38-1.15-.38-1.85,.13-1.32,.38-1.84Zm4.09,.62c-.28-.3-.61-.45-1.01-.45s-.73,.15-1.01,.45-.42,.71-.42,1.23,.14,.93,.42,1.24c.28,.3,.61,.46,1.01,.46s.73-.15,1.01-.45c.28-.3,.42-.71,.42-1.23s-.14-.93-.42-1.23Z"/>
    <path class="cls-1" d="M81.16,248.64v1.77h-1.02c-.72,0-1.29-.19-1.69-.56-.41-.37-.61-.97-.61-1.81v-2.71h-.79v-1.73h.79v-1.66h2v1.66h1.31v1.73h-1.31v2.74c0,.2,.05,.35,.14,.44,.09,.09,.25,.13,.47,.13h.71Z"/>
    <path class="cls-1" d="M88.66,244.3c.45,.52,.68,1.23,.68,2.13v3.98h-1.98v-3.7c0-.46-.11-.81-.34-1.06-.23-.25-.53-.38-.91-.38s-.68,.13-.91,.38c-.23,.25-.34,.61-.34,1.06v3.7h-2v-9.04h2v3.14c.2-.3,.48-.54,.83-.72,.35-.18,.74-.27,1.18-.27,.75,0,1.35,.26,1.8,.78Z"/>
    <path class="cls-1" d="M97.42,247.5h-4.52c.03,.42,.16,.75,.39,.97s.51,.34,.85,.34c.5,0,.84-.22,1.04-.66h2.12c-.11,.45-.31,.85-.59,1.21s-.64,.64-1.07,.84c-.43,.2-.91,.31-1.44,.31-.64,0-1.21-.14-1.71-.43-.5-.28-.89-.69-1.17-1.22s-.42-1.15-.42-1.86,.14-1.33,.41-1.86,.66-.94,1.16-1.22,1.07-.43,1.72-.43,1.19,.14,1.68,.42c.49,.28,.87,.67,1.15,1.18,.28,.51,.42,1.11,.42,1.8,0,.2-.01,.4-.04,.61Zm-2.01-1.16c0-.36-.12-.64-.35-.86-.23-.21-.53-.32-.88-.32s-.62,.1-.85,.31-.37,.49-.43,.87h2.5Z"/>
    <path class="cls-1" d="M101.96,243.85c.35-.22,.74-.32,1.17-.32v2.21h-.55c-.5,0-.87,.11-1.12,.33-.25,.22-.37,.62-.37,1.18v3.16h-2v-6.81h2v1.14c.23-.37,.53-.67,.88-.88Z"/>
    <path class="cls-1" d="M117.97,244.29c.48,.51,.72,1.23,.72,2.14v3.98h-1.99v-3.7c0-.44-.11-.78-.33-1.02s-.53-.36-.92-.36-.7,.12-.92,.36-.33,.58-.33,1.02v3.7h-1.98v-3.7c0-.44-.11-.78-.33-1.02s-.53-.36-.92-.36-.69,.12-.92,.36-.33,.58-.33,1.02v3.7h-2v-6.81h2v.86c.2-.29,.47-.51,.79-.68,.33-.17,.7-.25,1.11-.25,.49,0,.93,.11,1.31,.33s.69,.53,.91,.94c.23-.38,.53-.68,.92-.92,.39-.24,.81-.35,1.27-.35,.81,0,1.45,.26,1.93,.77Z"/>
    <path class="cls-1" d="M121.92,250.08c-.51-.28-.91-.69-1.2-1.22s-.44-1.15-.44-1.86,.15-1.32,.44-1.85,.7-.94,1.21-1.23,1.09-.43,1.73-.43,1.21,.14,1.73,.43,.92,.69,1.21,1.23,.44,1.15,.44,1.85-.15,1.32-.45,1.85-.71,.94-1.23,1.23c-.52,.29-1.1,.43-1.73,.43s-1.21-.14-1.72-.43Zm2.7-1.82c.27-.29,.4-.71,.4-1.26s-.13-.96-.39-1.26-.58-.44-.96-.44-.71,.14-.97,.43-.39,.71-.39,1.26,.13,.96,.38,1.26,.57,.44,.95,.44,.71-.15,.98-.44Z"/>
    <path class="cls-1" d="M131.57,243.85c.35-.22,.74-.32,1.17-.32v2.21h-.55c-.5,0-.87,.11-1.12,.33-.25,.22-.37,.62-.37,1.18v3.16h-2v-6.81h2v1.14c.23-.37,.53-.67,.88-.88Z"/>
    <path class="cls-1" d="M140.38,247.5h-4.52c.03,.42,.16,.75,.39,.97s.51,.34,.85,.34c.5,0,.84-.22,1.04-.66h2.12c-.11,.45-.31,.85-.59,1.21s-.64,.64-1.07,.84c-.43,.2-.91,.31-1.44,.31-.64,0-1.21-.14-1.71-.43-.5-.28-.89-.69-1.17-1.22s-.42-1.15-.42-1.86,.14-1.33,.41-1.86,.66-.94,1.16-1.22,1.07-.43,1.72-.43,1.19,.14,1.68,.42c.49,.28,.87,.67,1.15,1.18,.28,.51,.42,1.11,.42,1.8,0,.2-.01,.4-.04,.61Zm-2.01-1.16c0-.36-.12-.64-.35-.86-.23-.21-.53-.32-.88-.32s-.62,.1-.85,.31-.37,.49-.43,.87h2.5Z"/>
    <path class="cls-1" d="M145.26,242.56c-.22-.21-.33-.48-.33-.8s.11-.6,.33-.81,.51-.32,.86-.32,.62,.11,.85,.32c.22,.22,.33,.49,.33,.81s-.11,.58-.33,.8c-.22,.22-.5,.32-.85,.32s-.64-.11-.86-.32Zm1.85,1.03v6.81h-2v-6.81h2Z"/>
    <path class="cls-1" d="M154.94,244.3c.46,.52,.68,1.23,.68,2.13v3.98h-1.98v-3.7c0-.46-.11-.81-.34-1.06-.23-.25-.53-.38-.91-.38s-.68,.13-.91,.38c-.23,.25-.34,.61-.34,1.06v3.7h-2v-6.81h2v.9c.2-.3,.47-.54,.82-.71s.73-.26,1.16-.26c.76,0,1.37,.26,1.83,.78Z"/>
    <path class="cls-1" d="M160.86,245.33h-1.07v5.08h-2v-5.08h-.72v-1.73h.72v-.2c0-.84,.23-1.48,.69-1.91s1.13-.65,2.02-.65c.15,0,.26,0,.33,.01v1.77c-.38-.02-.65,.03-.81,.17-.16,.14-.23,.39-.23,.75v.06h1.07v1.73Z"/>
    <path class="cls-1" d="M163.63,250.08c-.51-.28-.91-.69-1.2-1.22s-.44-1.15-.44-1.86,.15-1.32,.44-1.85,.7-.94,1.21-1.23,1.09-.43,1.73-.43,1.21,.14,1.73,.43,.92,.69,1.21,1.23,.44,1.15,.44,1.85-.15,1.32-.45,1.85-.71,.94-1.23,1.23c-.52,.29-1.1,.43-1.73,.43s-1.21-.14-1.72-.43Zm2.7-1.82c.27-.29,.4-.71,.4-1.26s-.13-.96-.39-1.26-.58-.44-.96-.44-.71,.14-.97,.43-.39,.71-.39,1.26,.13,.96,.38,1.26,.57,.44,.95,.44,.71-.15,.98-.44Z"/>
    <path class="cls-1" d="M174.71,250.08c-.51-.28-.91-.69-1.2-1.22s-.44-1.15-.44-1.86,.15-1.32,.44-1.85,.7-.94,1.21-1.23,1.09-.43,1.73-.43,1.21,.14,1.73,.43,.92,.69,1.21,1.23,.44,1.15,.44,1.85-.15,1.32-.45,1.85-.71,.94-1.23,1.23c-.52,.29-1.1,.43-1.73,.43s-1.21-.14-1.72-.43Zm2.7-1.82c.27-.29,.4-.71,.4-1.26s-.13-.96-.39-1.26-.58-.44-.96-.44-.71,.14-.97,.43-.39,.71-.39,1.26,.13,.96,.38,1.26,.57,.44,.95,.44,.71-.15,.98-.44Z"/>
    <path class="cls-1" d="M187.28,244.3c.46,.52,.68,1.23,.68,2.13v3.98h-1.98v-3.7c0-.46-.11-.81-.34-1.06-.23-.25-.53-.38-.91-.38s-.68,.13-.91,.38c-.23,.25-.34,.61-.34,1.06v3.7h-2v-6.81h2v.9c.2-.3,.47-.54,.82-.71s.73-.26,1.16-.26c.76,0,1.37,.26,1.83,.78Z"/>
    <path class="cls-1" d="M73.67,258.45c.35-.2,.75-.29,1.2-.29,.54,0,1.02,.14,1.46,.43s.78,.69,1.03,1.22,.38,1.14,.38,1.84-.13,1.32-.38,1.85-.6,.94-1.03,1.23-.92,.43-1.46,.43c-.46,0-.86-.1-1.2-.29s-.61-.45-.81-.76v.95h-2v-9.04h2v3.19c.19-.32,.46-.57,.81-.77Zm1.63,1.97c-.28-.3-.62-.45-1.02-.45s-.73,.15-1.01,.45c-.28,.3-.41,.71-.41,1.23s.14,.93,.41,1.23c.28,.3,.61,.45,1.01,.45s.74-.15,1.02-.46c.28-.31,.42-.72,.42-1.24s-.14-.93-.41-1.23Z"/>
    <path class="cls-1" d="M80.62,264.74c-.51-.28-.91-.69-1.2-1.22s-.44-1.15-.44-1.86,.15-1.32,.44-1.85,.7-.94,1.21-1.23,1.09-.43,1.73-.43,1.21,.14,1.73,.43,.92,.69,1.21,1.23,.44,1.15,.44,1.85-.15,1.32-.45,1.85-.71,.94-1.23,1.23c-.52,.29-1.1,.43-1.73,.43s-1.21-.14-1.72-.43Zm2.7-1.82c.27-.29,.4-.71,.4-1.26s-.13-.96-.39-1.26-.58-.44-.96-.44-.71,.14-.97,.43-.39,.71-.39,1.26,.13,.96,.38,1.26,.57,.44,.95,.44,.71-.15,.98-.44Z"/>
    <path class="cls-1" d="M91.03,263.29v1.77h-1.02c-.72,0-1.29-.19-1.69-.56-.41-.37-.61-.97-.61-1.81v-2.71h-.79v-1.73h.79v-1.66h2v1.66h1.31v1.73h-1.31v2.74c0,.2,.05,.35,.14,.44,.09,.09,.25,.13,.47,.13h.71Z"/>
    <path class="cls-1" d="M98.52,258.95c.45,.52,.68,1.23,.68,2.13v3.98h-1.98v-3.7c0-.46-.11-.81-.34-1.06-.23-.25-.53-.38-.91-.38s-.68,.13-.91,.38c-.23,.25-.34,.61-.34,1.06v3.7h-2v-9.04h2v3.14c.2-.3,.48-.54,.83-.72,.35-.18,.74-.27,1.18-.27,.75,0,1.35,.26,1.8,.78Z"/>
    <path class="cls-1" d="M104.25,259.8c.28-.53,.66-.94,1.16-1.22s1.06-.43,1.7-.43c.82,0,1.5,.22,2.05,.67s.91,1.08,1.08,1.89h-2.12c-.18-.52-.53-.78-1.04-.78-.37,0-.66,.15-.88,.45-.22,.3-.33,.72-.33,1.28s.11,.98,.33,1.28,.51,.45,.88,.45c.51,0,.86-.26,1.04-.78h2.12c-.17,.8-.53,1.42-1.09,1.88s-1.23,.68-2.04,.68c-.64,0-1.21-.14-1.7-.43-.49-.28-.88-.69-1.16-1.22s-.41-1.15-.41-1.86,.14-1.33,.41-1.86Z"/>
    <path class="cls-1" d="M111.87,259.8c.25-.53,.6-.94,1.03-1.22,.44-.29,.92-.43,1.46-.43,.46,0,.86,.1,1.21,.29,.35,.2,.61,.45,.8,.77v-.96h2v6.81h-2v-.96c-.2,.32-.47,.57-.81,.77-.35,.2-.75,.29-1.21,.29-.53,0-1.01-.14-1.45-.43-.44-.29-.78-.7-1.03-1.23s-.38-1.15-.38-1.85,.13-1.32,.38-1.84Zm4.09,.62c-.28-.3-.61-.45-1.01-.45s-.73,.15-1.01,.45-.42,.71-.42,1.23,.14,.93,.42,1.24c.28,.3,.61,.46,1.01,.46s.73-.15,1.01-.45c.28-.3,.42-.71,.42-1.23s-.14-.93-.42-1.23Z"/>
    <path class="cls-1" d="M126.19,258.95c.46,.52,.68,1.23,.68,2.13v3.98h-1.98v-3.7c0-.46-.11-.81-.34-1.06-.23-.25-.53-.38-.91-.38s-.68,.13-.91,.38c-.23,.25-.34,.61-.34,1.06v3.7h-2v-6.81h2v.9c.2-.3,.47-.54,.82-.71s.73-.26,1.16-.26c.76,0,1.37,.26,1.83,.78Z"/>
    <path class="cls-1" d="M128.83,259.8c.25-.53,.6-.94,1.03-1.22,.44-.29,.92-.43,1.46-.43,.43,0,.82,.09,1.17,.28,.35,.19,.63,.44,.83,.76v-3.16h2v9.04h-2v-.98c-.19,.33-.45,.59-.8,.78-.35,.2-.75,.29-1.21,.29-.54,0-1.02-.14-1.46-.43-.44-.29-.78-.7-1.03-1.23s-.38-1.15-.38-1.85,.13-1.32,.38-1.84Zm4.09,.62c-.28-.3-.61-.45-1.01-.45s-.73,.15-1.01,.45-.42,.71-.42,1.23,.14,.93,.42,1.24c.28,.3,.61,.46,1.01,.46s.73-.15,1.01-.45c.28-.3,.42-.71,.42-1.23s-.14-.93-.42-1.23Z"/>
    <path class="cls-1" d="M137.51,257.22c-.22-.21-.33-.48-.33-.8s.11-.6,.33-.81,.51-.32,.86-.32,.62,.11,.85,.32c.22,.22,.33,.49,.33,.81s-.11,.58-.33,.8c-.22,.22-.5,.32-.85,.32s-.64-.11-.86-.32Zm1.85,1.03v6.81h-2v-6.81h2Z"/>
    <path class="cls-1" d="M141.37,259.8c.25-.53,.6-.94,1.03-1.22,.44-.29,.92-.43,1.46-.43,.43,0,.82,.09,1.17,.28,.35,.19,.63,.44,.83,.76v-3.16h2v9.04h-2v-.98c-.19,.33-.45,.59-.8,.78-.35,.2-.75,.29-1.21,.29-.54,0-1.02-.14-1.46-.43-.44-.29-.78-.7-1.03-1.23s-.38-1.15-.38-1.85,.13-1.32,.38-1.84Zm4.09,.62c-.28-.3-.61-.45-1.01-.45s-.73,.15-1.01,.45-.42,.71-.42,1.23,.14,.93,.42,1.24c.28,.3,.61,.46,1.01,.46s.73-.15,1.01-.45c.28-.3,.42-.71,.42-1.23s-.14-.93-.42-1.23Z"/>
    <path class="cls-1" d="M149.88,259.8c.25-.53,.6-.94,1.03-1.22,.44-.29,.92-.43,1.46-.43,.46,0,.86,.1,1.21,.29,.35,.2,.61,.45,.8,.77v-.96h2v6.81h-2v-.96c-.2,.32-.47,.57-.81,.77-.35,.2-.75,.29-1.21,.29-.53,0-1.01-.14-1.45-.43-.44-.29-.78-.7-1.03-1.23s-.38-1.15-.38-1.85,.13-1.32,.38-1.84Zm4.09,.62c-.28-.3-.61-.45-1.01-.45s-.73,.15-1.01,.45-.42,.71-.42,1.23,.14,.93,.42,1.24c.28,.3,.61,.46,1.01,.46s.73-.15,1.01-.45c.28-.3,.42-.71,.42-1.23s-.14-.93-.42-1.23Z"/>
    <path class="cls-1" d="M162.04,263.29v1.77h-1.02c-.72,0-1.29-.19-1.69-.56-.41-.37-.61-.97-.61-1.81v-2.71h-.79v-1.73h.79v-1.66h2v1.66h1.31v1.73h-1.31v2.74c0,.2,.05,.35,.14,.44,.09,.09,.25,.13,.47,.13h.71Z"/>
    <path class="cls-1" d="M169.84,262.16h-4.52c.03,.42,.16,.75,.39,.97s.51,.34,.85,.34c.5,0,.84-.22,1.04-.66h2.12c-.11,.45-.31,.85-.59,1.21s-.64,.64-1.07,.84c-.43,.2-.91,.31-1.44,.31-.64,0-1.21-.14-1.71-.43-.5-.28-.89-.69-1.17-1.22s-.42-1.15-.42-1.86,.14-1.33,.41-1.86,.66-.94,1.16-1.22,1.07-.43,1.72-.43,1.19,.14,1.68,.42c.49,.28,.87,.67,1.15,1.18,.28,.51,.42,1.11,.42,1.8,0,.2-.01,.4-.04,.61Zm-2.01-1.16c0-.36-.12-.64-.35-.86-.23-.21-.53-.32-.88-.32s-.62,.1-.85,.31-.37,.49-.43,.87h2.5Z"/>
    <path class="cls-1" d="M172.64,264.86c-.44-.2-.79-.48-1.05-.84-.26-.35-.4-.75-.43-1.19h1.97c.02,.24,.13,.43,.32,.57s.42,.22,.69,.22c.25,0,.44-.05,.58-.15,.14-.1,.21-.23,.21-.4,0-.2-.1-.34-.29-.43-.2-.09-.51-.2-.95-.31-.47-.11-.86-.23-1.17-.36-.31-.13-.58-.33-.81-.6-.23-.27-.34-.64-.34-1.1,0-.39,.1-.75,.31-1.07,.21-.32,.51-.58,.91-.76,.4-.19,.88-.28,1.43-.28,.82,0,1.46,.21,1.93,.63,.47,.42,.74,.99,.81,1.69h-1.84c-.03-.24-.13-.42-.3-.56-.17-.14-.39-.21-.66-.21-.23,0-.41,.05-.54,.14-.12,.09-.19,.22-.19,.38,0,.2,.1,.34,.3,.44s.51,.2,.93,.29c.48,.13,.88,.26,1.18,.38,.3,.13,.57,.33,.8,.61,.23,.28,.35,.66,.36,1.13,0,.4-.11,.76-.32,1.07-.21,.31-.52,.56-.92,.74-.4,.18-.87,.27-1.4,.27-.57,0-1.07-.1-1.52-.31Z"/>
  </g>
  <rect class="cls-19" x="43.32" y="34.42" width="160.53" height="198.84" rx="14.3" ry="14.3"/>
  <g class="cls-11">
    <g>
      <path class="cls-4" d="M181.23,167.25c3.77,3.17,7.54,6.34,11.31,9.52-1.02-4.12-2.04-8.25-3.06-12.37,2.26-.34,4.52-.67,6.78-1.01,.32-12.14,.64-24.27,.97-36.41-28.56-.05-57.13-.09-85.69-.14,1.16,15.87,2.32,31.74,3.48,47.61,22.07-2.4,44.14-4.8,66.21-7.2Z"/>
      <rect class="cls-4" x="59.25" y="44.89" width="135.44" height="25.88" rx="12.94" ry="12.94"/>
      <g>
        <path class="cls-3" d="M71.65,62.97c-3.33,0-6.04-2.71-6.04-6.04s2.71-6.04,6.04-6.04,6.04,2.71,6.04,6.04-2.71,6.04-6.04,6.04Zm0-9.76c-2.05,0-3.71,1.67-3.71,3.71s1.67,3.71,3.71,3.71,3.71-1.67,3.71-3.71-1.67-3.71-3.71-3.71Z"/>
        <rect class="cls-3" x="76.36" y="59.31" width="2.33" height="6.71" transform="translate(-21.85 70.55) rotate(-43.49)"/>
      </g>
      <g>
        <path class="cls-3" d="M88.02,60.84c-.54-.39-.83-.96-.88-1.71h2.32c.03,.4,.21,.6,.53,.6,.12,0,.22-.03,.3-.08s.12-.14,.12-.26c0-.16-.09-.3-.27-.4-.18-.1-.45-.22-.82-.35-.44-.16-.81-.31-1.1-.46-.29-.15-.54-.37-.75-.66-.21-.29-.31-.66-.3-1.11,0-.45,.12-.84,.35-1.15s.55-.56,.95-.72c.4-.16,.86-.25,1.36-.25,.85,0,1.53,.2,2.03,.59,.5,.39,.76,.95,.79,1.66h-2.34c0-.2-.06-.34-.15-.42s-.2-.13-.33-.13c-.09,0-.17,.03-.23,.09-.06,.06-.09,.15-.09,.26,0,.16,.09,.29,.26,.39,.17,.1,.45,.22,.83,.37,.44,.16,.8,.32,1.08,.47,.29,.15,.53,.36,.74,.63,.21,.27,.31,.61,.31,1.01,0,.43-.1,.81-.31,1.14s-.51,.6-.91,.79c-.4,.19-.87,.28-1.42,.28-.83,0-1.52-.19-2.06-.58Z"/>
        <path class="cls-3" d="M94.17,55.08c-.23-.2-.34-.46-.34-.77s.11-.57,.34-.78c.23-.21,.53-.31,.91-.31s.67,.1,.9,.31c.23,.21,.34,.47,.34,.78s-.11,.56-.34,.77c-.23,.2-.53,.3-.9,.3s-.68-.1-.91-.3Zm1.99,.75v5.53h-2.18v-5.53h2.18Z"/>
        <path class="cls-3" d="M101.08,59.5v1.85h-.82c-1.52,0-2.28-.76-2.28-2.27v-1.45h-.69v-1.81h.69v-1.33h2.18v1.33h.9v1.81h-.9v1.49c0,.13,.03,.23,.09,.28,.06,.06,.17,.09,.31,.09h.52Z"/>
        <path class="cls-3" d="M102.59,55.08c-.23-.2-.34-.46-.34-.77s.11-.57,.34-.78c.23-.21,.53-.31,.91-.31s.67,.1,.9,.31c.23,.21,.34,.47,.34,.78s-.11,.56-.34,.77c-.23,.2-.53,.3-.9,.3s-.68-.1-.91-.3Zm1.99,.75v5.53h-2.18v-5.53h2.18Z"/>
        <path class="cls-3" d="M114.88,54.41l-2.49,4.84v2.11h-2.18v-2.11l-2.49-4.84h2.49l1.11,2.46,1.11-2.46h2.45Z"/>
        <path class="cls-3" d="M115.87,57.07c.2-.43,.47-.76,.82-.98s.74-.34,1.17-.34c.36,0,.67,.07,.93,.22,.26,.15,.46,.35,.6,.6v-.76h2.17v5.53h-2.17v-.76c-.14,.25-.34,.46-.6,.6-.26,.15-.57,.22-.93,.22-.43,0-.82-.11-1.17-.34-.35-.23-.62-.55-.82-.98-.2-.43-.3-.93-.3-1.52s.1-1.09,.3-1.52Zm3.29,.83c-.15-.16-.34-.25-.58-.25s-.43,.08-.58,.25-.23,.39-.23,.69,.08,.52,.23,.69c.15,.16,.34,.25,.58,.25s.43-.08,.58-.25c.15-.16,.23-.39,.23-.69s-.08-.52-.23-.69Z"/>
        <path class="cls-3" d="M124.1,61.17c-.4-.17-.72-.41-.96-.71s-.37-.64-.4-1.02h2.09c.03,.16,.1,.28,.21,.36,.11,.08,.26,.12,.44,.12,.11,0,.2-.02,.26-.07,.07-.05,.1-.11,.1-.18,0-.12-.07-.21-.21-.26-.14-.05-.37-.11-.7-.18-.4-.08-.73-.16-.99-.25-.26-.09-.48-.25-.68-.47-.19-.22-.29-.53-.29-.92,0-.34,.09-.65,.27-.93,.18-.28,.45-.5,.8-.66s.78-.24,1.29-.24c.75,0,1.33,.18,1.75,.55s.68,.84,.76,1.43h-1.93c-.03-.15-.1-.27-.21-.35-.1-.08-.25-.12-.42-.12-.11,0-.2,.02-.25,.06-.06,.04-.09,.11-.09,.19,0,.11,.07,.19,.21,.25,.14,.06,.36,.11,.66,.17,.4,.08,.74,.17,1.01,.26,.27,.1,.51,.27,.72,.51,.2,.24,.3,.57,.3,.99,0,.33-.09,.62-.28,.88-.19,.26-.46,.47-.82,.62s-.77,.23-1.25,.23c-.52,0-.99-.08-1.39-.26Z"/>
        <path class="cls-3" d="M138.22,56.42c.39,.43,.58,1,.58,1.73v3.21h-2.17v-2.93c0-.24-.07-.42-.21-.55-.14-.13-.33-.2-.56-.2s-.43,.07-.57,.2c-.14,.13-.21,.32-.21,.55v2.93h-2.17v-2.93c0-.24-.07-.42-.21-.55-.14-.13-.33-.2-.56-.2s-.43,.07-.57,.2c-.14,.13-.21,.32-.21,.55v2.93h-2.18v-5.53h2.18v.75c.16-.24,.37-.42,.64-.57,.27-.14,.59-.22,.96-.22,.4,0,.75,.09,1.06,.26s.55,.42,.74,.73c.2-.29,.46-.52,.78-.71,.31-.19,.66-.28,1.04-.28,.71,0,1.25,.21,1.64,.64Z"/>
        <path class="cls-3" d="M140.43,55.08c-.23-.2-.34-.46-.34-.77s.11-.57,.34-.78c.23-.21,.53-.31,.91-.31s.67,.1,.9,.31c.23,.21,.34,.47,.34,.78s-.11,.56-.34,.77c-.23,.2-.53,.3-.9,.3s-.68-.1-.91-.3Zm1.99,.75v5.53h-2.18v-5.53h2.18Z"/>
        <path class="cls-3" d="M149.25,56.42c.36,.43,.54,1,.54,1.73v3.21h-2.17v-2.93c0-.26-.07-.47-.21-.62s-.33-.23-.56-.23-.43,.08-.57,.23c-.14,.15-.21,.36-.21,.62v2.93h-2.18v-5.53h2.18v.84c.17-.26,.4-.47,.68-.64,.28-.16,.62-.25,1.01-.25,.63,0,1.13,.21,1.49,.64Z"/>
        <path class="cls-3" d="M160.04,61.36h-2.18l-2.31-3.49v3.49h-2.18v-6.95h2.18l2.31,3.55v-3.55h2.18v6.95Z"/>
        <path class="cls-3" d="M166.84,58.97h-3.5c.03,.48,.23,.72,.6,.72,.24,0,.41-.11,.51-.32h2.31c-.08,.39-.24,.74-.5,1.05-.25,.31-.57,.56-.95,.74-.38,.18-.8,.27-1.26,.27-.55,0-1.04-.11-1.47-.34-.43-.23-.76-.56-1-.99-.24-.43-.36-.93-.36-1.51s.12-1.08,.36-1.51c.24-.43,.57-.76,1-.99,.43-.23,.92-.34,1.47-.34s1.04,.11,1.47,.34,.76,.55,1,.97c.24,.42,.36,.91,.36,1.48,0,.15,0,.29-.03,.43Zm-2.18-.95c0-.18-.06-.32-.18-.42-.12-.09-.26-.14-.44-.14-.39,0-.61,.19-.68,.56h1.29Z"/>
        <path class="cls-3" d="M176.44,55.82l-1.32,5.53h-2.45l-.67-3.12-.71,3.12h-2.45l-1.3-5.53h2.16l.46,3.37,.72-3.37h2.32l.76,3.4,.47-3.4h2.01Z"/>
        <path class="cls-3" d="M178.47,61.17c-.4-.17-.72-.41-.96-.71s-.37-.64-.4-1.02h2.09c.03,.16,.1,.28,.21,.36,.11,.08,.26,.12,.44,.12,.11,0,.2-.02,.26-.07,.07-.05,.1-.11,.1-.18,0-.12-.07-.21-.21-.26-.14-.05-.37-.11-.7-.18-.4-.08-.73-.16-.99-.25-.26-.09-.48-.25-.68-.47-.19-.22-.29-.53-.29-.92,0-.34,.09-.65,.27-.93,.18-.28,.45-.5,.8-.66s.78-.24,1.29-.24c.75,0,1.33,.18,1.75,.55s.68,.84,.76,1.43h-1.93c-.03-.15-.1-.27-.21-.35-.1-.08-.25-.12-.42-.12-.11,0-.2,.02-.25,.06-.06,.04-.09,.11-.09,.19,0,.11,.07,.19,.21,.25,.14,.06,.36,.11,.66,.17,.4,.08,.74,.17,1.01,.26,.27,.1,.51,.27,.72,.51,.2,.24,.3,.57,.3,.99,0,.33-.09,.62-.28,.88-.19,.26-.46,.47-.82,.62s-.77,.23-1.25,.23c-.52,0-.99-.08-1.39-.26Z"/>
      </g>
      <rect class="cls-4" x="59.25" y="74.9" width="135.44" height="25.88" rx="12.94" ry="12.94"/>
      <g>
        <path class="cls-3" d="M71.65,92.97c-3.33,0-6.04-2.71-6.04-6.04s2.71-6.04,6.04-6.04,6.04,2.71,6.04,6.04-2.71,6.04-6.04,6.04Zm0-9.76c-2.05,0-3.71,1.67-3.71,3.71s1.67,3.71,3.71,3.71,3.71-1.67,3.71-3.71-1.67-3.71-3.71-3.71Z"/>
        <rect class="cls-3" x="76.36" y="89.32" width="2.33" height="6.71" transform="translate(-42.5 78.8) rotate(-43.49)"/>
      </g>
      <path class="cls-4" d="M119.21,193.37c-1.98,1.81-3.96,3.61-5.93,5.42,.06,3.44,.13,6.88,.19,10.31-12.54,1.05-25.09,2.1-37.63,3.15-1.41-9.55-2.81-19.1-4.22-28.65,13.91-.27,27.82-.54,41.73-.81,.17,3.43,.34,6.86,.51,10.28,1.79,.1,3.57,.19,5.36,.29Z"/>
      <g>
        <path class="cls-3" d="M88.02,90.85c-.54-.39-.83-.96-.88-1.71h2.32c.03,.4,.21,.6,.53,.6,.12,0,.22-.03,.3-.08s.12-.14,.12-.26c0-.16-.09-.3-.27-.4-.18-.1-.45-.22-.82-.35-.44-.16-.81-.31-1.1-.46-.29-.15-.54-.37-.75-.66-.21-.29-.31-.66-.3-1.11,0-.45,.12-.84,.35-1.15s.55-.56,.95-.72c.4-.16,.86-.25,1.36-.25,.85,0,1.53,.2,2.03,.59,.5,.39,.76,.95,.79,1.66h-2.34c0-.2-.06-.34-.15-.42s-.2-.13-.33-.13c-.09,0-.17,.03-.23,.09-.06,.06-.09,.15-.09,.26,0,.16,.09,.29,.26,.39,.17,.1,.45,.22,.83,.37,.44,.16,.8,.32,1.08,.47,.29,.15,.53,.36,.74,.63,.21,.27,.31,.61,.31,1.01,0,.43-.1,.81-.31,1.14s-.51,.6-.91,.79c-.4,.19-.87,.28-1.42,.28-.83,0-1.52-.19-2.06-.58Z"/>
        <path class="cls-3" d="M94.15,91.14c-.23-.2-.34-.46-.34-.77s.12-.57,.34-.78,.53-.31,.91-.31,.67,.1,.9,.31c.23,.21,.34,.47,.34,.78s-.11,.56-.34,.77c-.23,.2-.53,.3-.9,.3s-.68-.1-.91-.3Z"/>
        <path class="cls-3" d="M104.61,84.42v4.48c0,.83-.22,1.46-.65,1.89-.44,.43-1.04,.64-1.83,.64-.84,0-1.51-.23-2.01-.7s-.75-1.14-.75-2.03h2.15c0,.28,.04,.48,.14,.59,.09,.11,.22,.17,.37,.17,.13,0,.23-.04,.3-.13,.07-.08,.11-.23,.11-.44v-4.48h2.17Z"/>
        <path class="cls-3" d="M111.37,88.98h-3.5c.03,.48,.23,.72,.6,.72,.24,0,.41-.11,.51-.32h2.31c-.08,.39-.24,.74-.5,1.05-.25,.31-.57,.56-.95,.74-.38,.18-.8,.27-1.26,.27-.55,0-1.04-.11-1.47-.34-.43-.23-.76-.56-1-.99-.24-.43-.36-.93-.36-1.51s.12-1.08,.36-1.51c.24-.43,.57-.76,1-.99,.43-.23,.92-.34,1.47-.34s1.04,.11,1.47,.34,.76,.55,1,.97c.24,.42,.36,.91,.36,1.48,0,.15,0,.29-.03,.43Zm-2.18-.95c0-.18-.06-.32-.18-.42-.12-.09-.26-.14-.44-.14-.39,0-.61,.19-.68,.56h1.29Z"/>
        <path class="cls-3" d="M115.5,85.98c.26,.15,.46,.35,.6,.6v-.76h2.17v5.44c0,.52-.09,.99-.28,1.41-.19,.43-.5,.77-.92,1.02-.42,.25-.96,.38-1.62,.38-.89,0-1.59-.21-2.11-.62-.52-.42-.82-.98-.89-1.69h2.14c.06,.29,.29,.43,.71,.43,.25,0,.45-.07,.6-.2,.14-.13,.22-.38,.22-.74v-.66c-.14,.25-.34,.46-.6,.6-.26,.15-.57,.22-.93,.22-.43,0-.82-.11-1.17-.34-.35-.23-.62-.55-.82-.98-.2-.43-.3-.93-.3-1.52s.1-1.09,.3-1.52c.2-.43,.47-.76,.82-.98s.74-.34,1.17-.34c.36,0,.67,.07,.93,.22Zm.37,1.93c-.15-.16-.34-.25-.58-.25s-.43,.08-.58,.25-.23,.39-.23,.69,.08,.52,.23,.69c.15,.16,.34,.25,.58,.25s.43-.08,.58-.25c.15-.16,.23-.39,.23-.69s-.08-.52-.23-.69Z"/>
        <path class="cls-3" d="M119.74,87.08c.2-.43,.47-.76,.82-.98s.74-.34,1.17-.34c.36,0,.67,.07,.93,.22,.26,.15,.46,.35,.6,.6v-.76h2.17v5.53h-2.17v-.76c-.14,.25-.34,.46-.6,.6-.26,.15-.57,.22-.93,.22-.43,0-.82-.11-1.17-.34-.35-.23-.62-.55-.82-.98-.2-.43-.3-.93-.3-1.52s.1-1.09,.3-1.52Zm3.29,.83c-.15-.16-.34-.25-.58-.25s-.43,.08-.58,.25-.23,.39-.23,.69,.08,.52,.23,.69c.15,.16,.34,.25,.58,.25s.43-.08,.58-.25c.15-.16,.23-.39,.23-.69s-.08-.52-.23-.69Z"/>
        <path class="cls-3" d="M135.71,91.37h-2.18l-2.31-3.49v3.49h-2.18v-6.95h2.18l2.31,3.55v-3.55h2.18v6.95Z"/>
        <path class="cls-3" d="M142.51,88.98h-3.5c.03,.48,.23,.72,.6,.72,.24,0,.41-.11,.51-.32h2.31c-.08,.39-.24,.74-.5,1.05-.25,.31-.57,.56-.95,.74-.38,.18-.8,.27-1.26,.27-.55,0-1.04-.11-1.47-.34-.43-.23-.76-.56-1-.99-.24-.43-.36-.93-.36-1.51s.12-1.08,.36-1.51c.24-.43,.57-.76,1-.99,.43-.23,.92-.34,1.47-.34s1.04,.11,1.47,.34,.76,.55,1,.97c.24,.42,.36,.91,.36,1.48,0,.15,0,.29-.03,.43Zm-2.18-.95c0-.18-.06-.32-.18-.42-.12-.09-.26-.14-.44-.14-.39,0-.61,.19-.68,.56h1.29Z"/>
        <path class="cls-3" d="M152.12,85.83l-1.32,5.53h-2.45l-.67-3.12-.71,3.12h-2.45l-1.3-5.53h2.16l.46,3.37,.72-3.37h2.32l.76,3.4,.47-3.4h2.01Z"/>
        <path class="cls-3" d="M154.14,91.18c-.4-.17-.72-.41-.96-.71s-.37-.64-.4-1.02h2.09c.03,.16,.1,.28,.21,.36,.11,.08,.26,.12,.44,.12,.11,0,.2-.02,.26-.07,.07-.05,.1-.11,.1-.18,0-.12-.07-.21-.21-.26-.14-.05-.37-.11-.7-.18-.4-.08-.73-.16-.99-.25-.26-.09-.48-.25-.68-.47-.19-.22-.29-.53-.29-.92,0-.34,.09-.65,.27-.93,.18-.28,.45-.5,.8-.66s.78-.24,1.29-.24c.75,0,1.33,.18,1.75,.55s.68,.84,.76,1.43h-1.93c-.03-.15-.1-.27-.21-.35-.1-.08-.25-.12-.42-.12-.11,0-.2,.02-.25,.06-.06,.04-.09,.11-.09,.19,0,.11,.07,.19,.21,.25,.14,.06,.36,.11,.66,.17,.4,.08,.74,.17,1.01,.26,.27,.1,.51,.27,.72,.51,.2,.24,.3,.57,.3,.99,0,.33-.09,.62-.28,.88-.19,.26-.46,.47-.82,.62s-.77,.23-1.25,.23c-.52,0-.99-.08-1.39-.26Z"/>
      </g>
      <path class="cls-1" d="M116.58,208.58c2.91-2.65,5.81-5.3,8.72-7.96-.09-5.05-.19-10.1-.28-15.15,18.42-1.54,36.85-3.09,55.27-4.63,2.07,14.03,4.13,28.05,6.2,42.08-20.43,.39-40.86,.79-61.3,1.18-.25-5.03-.5-10.07-.75-15.1-2.62-.14-5.24-.28-7.87-.43Z"/>
      <path class="cls-1" d="M106.53,152.97c3.77,3.17,7.54,6.34,11.31,9.52-1.02-4.12-2.04-8.25-3.06-12.37,2.26-.34,4.52-.67,6.78-1.01,.32-12.14,.64-24.27,.97-36.41-28.56-.05-57.13-.09-85.69-.14,1.16,15.87,2.32,31.74,3.48,47.61,22.07-2.4,44.14-4.8,66.21-7.2Z"/>
      <g>
        <rect class="cls-1" x="200.75" y="144.53" width="14.27" height="46.99" transform="translate(-59.32 175.04) rotate(-40.45)"/>
        <rect class="cls-1" x="189.33" y="139.82" width="6.14" height="20.22" transform="translate(-51.28 160.67) rotate(-40.45)"/>
        <g>
          <circle class="cls-18" cx="166.05" cy="119.68" r="29.88"/>
          <path class="cls-7" d="M166.02,152.53c-8.36,0-16.28-3.12-22.42-8.86-6.41-6-10.09-14.13-10.39-22.89s2.85-17.13,8.84-23.53c5.99-6.41,14.12-10.09,22.89-10.39,8.78-.28,17.13,2.85,23.53,8.84,6.41,5.99,10.1,14.13,10.39,22.89h0c.6,18.1-13.64,33.32-31.74,33.92-.37,.01-.75,.02-1.12,.02Zm.05-59.76c-.3,0-.61,0-.92,.02-7.19,.24-13.85,3.26-18.76,8.51-4.91,5.25-7.49,12.1-7.25,19.28s3.26,13.85,8.51,18.76c5.25,4.91,12.1,7.49,19.28,7.25,14.83-.49,26.5-12.96,26.01-27.79h0c-.24-7.19-3.26-13.85-8.51-18.76-5.03-4.7-11.52-7.26-18.37-7.26Z"/>
        </g>
        <path class="cls-1" d="M176.42,100.53c11.33,5.03,15.57,18.32,9.61,29.13-1.8,3.35-4.41,6.25-7.52,8.41,2.68-2.58,4.92-5.57,6.48-8.93,5.09-10.7,1.34-22.27-8.57-28.61h0Z"/>
      </g>
      <g>
        <polygon class="cls-9" points="145.97 175.21 180.4 174.71 183.93 208.29 143.27 208.8 145.97 175.21"/>
        <g>
          <polygon class="cls-16" points="181.83 188.31 187.87 186.99 188.08 196.51 182.69 196.51 181.83 188.31"/>
          <path class="cls-1" d="M182.43,193.59l-.23-.1,.05-.11c.03-.07,.84-1.8,1.78-2.72,.95-.93,2.27-1.46,2.32-1.49l.12-.05,.09,.23-.12,.05s-1.33,.54-2.24,1.43c-.91,.89-1.72,2.63-1.73,2.65l-.05,.11Z"/>
        </g>
        <g>
          <polygon class="cls-16" points="144.9 188.7 138.86 187.38 138.65 196.89 144.23 196.89 144.9 188.7"/>
          <path class="cls-1" d="M144.3,193.98l-.05-.11s-.82-1.76-1.73-2.65c-.91-.89-2.23-1.43-2.24-1.43l-.12-.05,.09-.23,.12,.05c.06,.02,1.38,.56,2.32,1.49,.94,.93,1.75,2.65,1.78,2.72l.05,.11-.23,.1Z"/>
        </g>
        <path class="cls-3" d="M181.83,188.31l4.29-.94,1.3-19.54s-32.3-5.97-33.59-6.39-2.45-1.01-3.33-1.39-2.82-1.49-2.82-1.49l2.47,4.56-10.36,8.92,1.98,15.97,3.13,.68,1.07-13.48,34.43-.51,1.43,13.61Z"/>
        <polygon class="cls-3" points="177.74 184.98 178.34 182.34 171.63 182.34 170.65 183.94 177.74 184.98"/>
        <polygon class="cls-3" points="147.7 184.01 147.27 181.34 153.97 181.76 154.85 183.42 147.7 184.01"/>
        <path class="cls-1" d="M155.27,196.68s-.07-.02-.1-.04c-.03-.03-.04-.07-.03-.11l.97-4.33s.05-.09,.1-.1l2.34-.44,.05-7.21c0-.07,.06-.12,.12-.12h4.94c.07,0,.12,.06,.12,.12v11.74c0,.07-.05,.12-.12,.12l-8.41,.36h0Zm1.08-4.35l-.92,4.09,8.12-.34v-11.5h-4.69l-.05,7.19c0,.06-.04,.11-.1,.12l-2.36,.44Zm2.34-.57h0Z"/>
        <path class="cls-3" d="M154,191.69l-.11-.22c-.03-.06-.73-1.39-2.76-1.55-2.04-.15-2.86,1.48-2.89,1.55l-.11,.22-.45-.22,.11-.22s1.03-2.02,3.38-1.83c2.33,.18,3.14,1.76,3.17,1.83l.11,.22-.45,.22Z"/>
        <path class="cls-3" d="M177.11,191.69l-.11-.22c-.03-.06-.73-1.39-2.76-1.55-2.03-.15-2.86,1.48-2.89,1.55l-.11,.22-.45-.22,.11-.22s1.02-2.02,3.38-1.83c2.33,.18,3.14,1.76,3.17,1.83l.11,.22-.45,.22Z"/>
        <polygon class="cls-3" points="143.56 201.09 147.28 205.82 178.4 205.64 183.14 199.2 184.38 208.63 167.77 209.14 167.77 211.06 160.57 211.06 159.73 209.24 142.95 209.03 143.56 201.09"/>
        <path class="cls-17" d="M160.08,201.1l4.71-.47s-.13,2.18-2.12,2.27-2.6-1.81-2.6-1.81Z"/>
        <path class="cls-1" d="M172.37,205.8s-.1-.03-.12-.08c-.02-.05-2.11-5.3,1.82-9.26,3.94-3.96,8.29-2.03,8.34-2.01,.06,.03,.09,.1,.06,.17-.03,.06-.1,.09-.17,.06-.04-.02-4.24-1.87-8.06,1.96-3.82,3.84-1.79,8.94-1.77,8.99,.03,.06,0,.14-.07,.16-.02,0-.03,0-.05,0Z"/>
        <path class="cls-1" d="M152.58,205.92h0c-.07,0-.12-.06-.12-.13,0-.04,.11-4.43-2.22-6.98-2.34-2.55-5.87-3.47-5.9-3.48-.07-.02-.11-.08-.09-.15,.02-.07,.09-.11,.15-.09,.04,0,3.64,.94,6.02,3.55,2.4,2.62,2.29,7.11,2.29,7.15,0,.07-.06,.12-.12,.12Z"/>
        <polygon class="cls-3" points="150.5 199 157.13 194.8 161.71 195.6 166.69 194.43 172.91 199.01 163.22 199.71 161.71 198.05 160.13 199.88 150.5 199"/>
      </g>
      <g>
        <path class="cls-18" d="M112.76,118.76l-53.76,2.83,.72,23.34,55.32,1.9-2.28-28.07Zm-.79,26.16l-28.55-1.18-1.09-20.75,28.41-1.5,1.23,23.43Z"/>
        <polygon class="cls-18" points="104.05 126.69 106.1 129.25 89.12 140.8 87.73 138.74 104.05 126.69"/>
        <polygon class="cls-18" points="87.54 129.8 89.19 126.96 106.09 138.64 104.67 140.68 87.54 129.8"/>
      </g>
      <g>
        <path class="cls-15" d="M104.27,163l-29.84-12.94-27.84,22.12,4.41,45.46-14.79,20.98s20.97,17.47,45.89,14.27c24.92-3.2,44.02-15.75,44.02-15.75l-13.84-27.64-8.01-46.5Z"/>
        <path class="cls-1" d="M88.54,252.13c-.17,0-.32-.13-.34-.31l-3.25-33.59c-.02-.19,.12-.35,.31-.37,.19-.01,.35,.12,.37,.31l3.25,33.59c.02,.19-.12,.35-.31,.37-.01,0-.02,0-.03,0Z"/>
        <g>
          <path class="cls-1" d="M89.38,214.95c-.82-2.36-7.86-.88-8.27,1.32-.41,2.19,2.39,4.83,5.12,4.22,2.72-.61,3.97-3.18,3.15-5.54Z"/>
          <polygon class="cls-10" points="81.16 216.12 81.77 218.35 75.12 219.32 81.16 216.12"/>
          <polygon class="cls-10" points="81.72 218.28 83.32 219.95 77.93 223.97 81.72 218.28"/>
          <polygon class="cls-10" points="83.12 219.86 85.35 220.48 82.75 226.68 83.12 219.86"/>
          <polygon class="cls-10" points="85.35 220.5 87.58 219.89 88.55 226.54 85.35 220.5"/>
          <polygon class="cls-10" points="87.6 219.87 89.16 218.16 93.53 223.27 87.6 219.87"/>
          <polygon class="cls-10" points="89.17 218.16 89.59 215.89 96 217.94 89.17 218.16"/>
          <polygon class="cls-10" points="89.56 215.89 89.37 213.59 96.09 213.86 89.56 215.89"/>
        </g>
        <polygon class="cls-2" points="105.21 174.56 57.54 180.68 61.74 218.84 109.58 213.18 105.21 174.56"/>
        <path class="cls-14" d="M55.76,169.96l1.51,11.78,48.61-6.24-1.6-12.49s-12.28,.12-23.79,1.6c-11.51,1.48-24.73,5.35-24.73,5.35Z"/>
        <path class="cls-6" d="M76.27,182.99l.46,3.62s-3.73,.3-7.55-.08c-3.82-.39-8.5-2.06-8.5-2.06l-.6-4.66s6.01,1.77,8.17,2.19c2.16,.42,8.02,.99,8.02,.99Z"/>
        <path class="cls-6" d="M89.68,181.99l.49,3.82,13.8-4.66-.95-3.82s-4.55,1.18-6.91,2c-2.36,.83-6.43,2.67-6.43,2.67Z"/>
        <path class="cls-8" d="M75.5,217.5c-.17,0-.32-.13-.34-.31,0-.05-.51-5.42-4.9-8.45-4.41-3.04-9.48-2-9.53-1.99-.19,.04-.36-.08-.4-.26s.08-.36,.26-.4c.22-.04,5.41-1.11,10.06,2.09,4.66,3.21,5.17,8.72,5.19,8.95,.02,.19-.12,.35-.31,.37,0,0-.02,0-.03,0Z"/>
        <path class="cls-8" d="M97.03,214.43c-.19,0-.34-.15-.34-.33,0-.24-.02-6,3.9-9.61,3.91-3.61,7.04-3.5,7.18-3.49,.19,0,.33,.17,.32,.35,0,.19-.14,.33-.36,.32,0,0-3-.1-6.68,3.31-3.69,3.41-3.68,9.05-3.68,9.11,0,.19-.12,.36-.34,.34Z"/>
        <path class="cls-17" d="M84.11,211.7l-.33-.09c-.1-.03-2.49-.74-4.53-3.15-2.02-2.38-2.76-4.54-2.79-4.63l-.11-.32,.64-.22,.11,.32s.74,2.13,2.67,4.4c1.91,2.24,4.18,2.93,4.2,2.94l.33,.1-.19,.65Z"/>
        <g>
          <path class="cls-13" d="M94.04,194.7l-.37-.12,.06-.18c.31-.96,1.1-2.76,2.94-4.04,3.03-2.11,6.43-1.15,7.08-.94l.18,.06-.12,.37-.18-.06c-.62-.2-3.87-1.11-6.74,.89-1.75,1.22-2.5,2.93-2.8,3.84l-.06,.18Z"/>
          <polygon class="cls-13" points="103.04 189.34 102.68 189.23 103.36 187.02 103.73 187.14 103.04 189.34"/>
          <rect class="cls-13" x="101.23" y="186.99" width=".38" height="2.23" transform="translate(-18.89 11.49) rotate(-5.93)"/>
          <path class="cls-13" d="M98.59,189.84c1.44,.19,2.06,1.78,2.22,2.19,.18,.46,.68,1.74-.02,2.62-.49,.62-1.28,.66-1.32,.67-1.29,.05-2.14-1.43-2.43-1.94-.38-.66-1.04-1.83-.49-2.72,.42-.69,1.36-.9,2.04-.81Z"/>
        </g>
        <g>
          <path class="cls-13" d="M76.67,195.72l-.1-.16c-.5-.82-1.62-2.31-3.61-3.09-3.26-1.28-6.21,.35-6.77,.69l-.16,.1-.2-.33,.16-.1c.58-.36,3.68-2.07,7.11-.72,2.09,.82,3.28,2.39,3.8,3.25l.1,.17-.33,.2Z"/>
          <rect class="cls-13" x="66.05" y="190.35" width=".38" height="2.31" transform="translate(-88.29 60.43) rotate(-30.61)"/>
          <rect class="cls-13" x="67.77" y="189.9" width=".38" height="2.23" transform="translate(-24.1 10.38) rotate(-7.42)"/>
          <path class="cls-13" d="M71.12,192.06c-1.36,.52-1.59,2.21-1.65,2.65-.07,.49-.26,1.85,.63,2.54,.62,.49,1.4,.35,1.44,.34,1.27-.25,1.75-1.89,1.92-2.45,.22-.73,.59-2.02-.15-2.76-.57-.57-1.53-.56-2.17-.32Z"/>
        </g>
        <g>
          <path class="cls-5" d="M85.35,185.12c-.05,5.37-.1,10.74-.15,16.11,3.16-.17,6.32-.34,9.48-.51-3.11-5.2-6.22-10.4-9.33-15.6Z"/>
          <path class="cls-8" d="M85.2,201.49c-.07,0-.13-.03-.18-.07-.05-.05-.08-.12-.08-.19l.15-16.11c0-.12,.08-.21,.19-.25,.11-.03,.23,.02,.29,.12l9.33,15.6c.05,.08,.05,.17,0,.25s-.12,.13-.21,.14l-9.48,.51h-.01Zm.39-15.46l-.14,14.93,8.78-.47-8.65-14.46Z"/>
        </g>
      </g>
    </g>
  </g>
</svg>