<?xml version="1.0" encoding="UTF-8"?>
<svg id="Layer_2" data-name="Layer 2" xmlns="http://www.w3.org/2000/svg" xmlns:xlink="http://www.w3.org/1999/xlink" viewBox="0 0 428 506.12">
  <defs>
    <style>
      .cls-1 {
        fill: #fff;
      }

      .cls-2 {
        fill: #181216;
      }

      .cls-3 {
        fill: #ef9d7f;
      }

      .cls-4 {
        fill: #363636;
      }

      .cls-5 {
        fill: #db886e;
      }

      .cls-6 {
        fill: #fac300;
      }

      .cls-7 {
        fill: #f55;
      }

      .cls-8 {
        fill: #e58e73;
      }

      .cls-9 {
        fill: #3ba45b;
      }

      .cls-10 {
        fill: #333;
      }

      .cls-11 {
        fill: #f7f2dc;
      }

      .cls-12 {
        fill: #fce9ca;
      }

      .cls-13 {
        fill: #f80500;
      }

      .cls-14 {
        fill: #307f46;
      }

      .cls-15 {
        fill: #e64c00;
      }

      .cls-16 {
        fill: #f4ae32;
      }

      .cls-17 {
        clip-path: url(#clippath);
      }

      .cls-18 {
        fill: none;
      }

      .cls-19 {
        fill: #353535;
      }

      .cls-20 {
        fill: #474747;
      }

      .cls-21 {
        fill: #515151;
      }

      .cls-22 {
        fill: #b72c2c;
      }

      .cls-23 {
        fill: #6d6d6d;
      }

      .cls-24 {
        fill: #ffcbbb;
      }

      .cls-25 {
        fill: #4ea978;
      }

      .cls-26 {
        fill: #d46cff;
      }

      .cls-27 {
        fill: #f7a22d;
      }
    </style>
    <clipPath id="clippath">
      <polygon class="cls-18" points="123.54 272.25 108.19 326.27 125.25 382.56 86.35 331.75 83.49 276.19 15.62 276.19 15.62 76.23 110.33 48.98 235.8 43.54 265.97 202.59 133.97 268.16 123.54 272.25"/>
    </clipPath>
  </defs>
  <path class="cls-14" d="M339.47,74.42l11.85-4.93,7.18-36.72-18.11-22.32-32.64,13.81-21.42-3.8,17,16.21,7.96,3.05v2l-8.03-1.38,1.73,10.87-4.88,11.72,10.25,13.65,20.5-.45-2.84,18.52-18.92,6.67-17.2,100.9,78.13-37.18-16.77-66.6-10.75-4.8-3.01-19.23Zm-15.87-35.5l14.28-5.47-2.67,5.47-11.61,2v-2Zm-7.06,2.86l-1.32,13.45h-3.24l4.55-13.45Zm0,19.79l-10.55,3.27,5.17-4.53,5.37-2.01,6.22,1,6.42,4.7-12.63-2.44Z"/>
  <g>
    <g>
      <path class="cls-9" d="M428,111.04l-16.55-4.01-6.54-10.99,11.28-4.03,.95-38.11s-7.58-20.27-31.21-20.27-28.79,27.14-28.79,27.14l11.24,37.98h25.95l4.56,11.55-39.84,13.61-4.6,70.09,73.54-44.66"/>
      <path class="cls-12" d="M363.97,50.83l-.12-.99,.49-.06c.1-.01,9.92-1.24,19.08-3.75,9.17-2.51,19-6.26,19.1-6.29l.47-.18,.36,.93-.47,.18c-.1,.04-9.98,3.8-19.19,6.32-9.23,2.53-19.12,3.76-19.22,3.78l-.5,.06Z"/>
      <path class="cls-12" d="M368.53,47.82l-.29-.96,14.55-4.34c5.15-1.54,13.09-5.2,13.17-5.23l.45-.21,.42,.9-.45,.21c-.08,.04-8.09,3.73-13.3,5.28l-14.55,4.34Z"/>
      <path class="cls-12" d="M366.14,44.93l-.25-.97,.48-.12c.08-.02,8.32-2.14,11.93-3.48,3.61-1.33,10.67-4.86,10.74-4.9l.45-.22,.45,.89-.45,.22c-.29,.15-7.18,3.59-10.84,4.94-3.66,1.35-11.69,3.42-12.03,3.51l-.48,.12Z"/>
      <g>
        <g>
          <ellipse class="cls-11" cx="369.93" cy="77.88" rx="6.32" ry="2.75" transform="translate(-5.35 32.26) rotate(-4.96)"/>
          <path class="cls-12" d="M392.11,75.47l-.45-.89,.45-.22c4.05-2.03,18.86-7.73,19.49-7.97,.16-.06,.35-.03,.49,.08,.22,.18,1.37,1.1,1.69,1.61l.27,.42-.84,.54-.27-.42c-.15-.24-.77-.79-1.26-1.19-2.07,.8-15.42,5.97-19.13,7.83l-.45,.22Z"/>
          <ellipse class="cls-11" cx="386.48" cy="75.78" rx="6.32" ry="2.75" transform="translate(-5.1 33.69) rotate(-4.96)"/>
        </g>
        <path class="cls-12" d="M375.52,77.77c-.25,0-.46-.19-.49-.44-.03-.27,.16-.52,.44-.55l6.35-.74c.27-.04,.52,.16,.55,.44,.03,.27-.16,.52-.44,.55l-6.35,.74s-.04,0-.06,0Z"/>
      </g>
    </g>
    <polygon class="cls-11" points="377.86 78.84 374.67 86.28 379.53 87.24 377.86 78.84"/>
  </g>
  <g>
    <path class="cls-25" d="M288.73,103.21c-3.51,0-6.36,2.85-6.36,6.36s2.85,6.36,6.36,6.36,6.36-2.85,6.36-6.36-2.85-6.36-6.36-6.36Z"/>
    <path class="cls-25" d="M268.35,103.94c-3.51,0-6.36,2.85-6.36,6.36s2.85,6.36,6.36,6.36,6.36-2.85,6.36-6.36-2.85-6.36-6.36-6.36Z"/>
    <path class="cls-25" d="M330.48,163.3l-19.92-12.07-2.32-12.59s6.02-5.36,8-8.01,6.39-39.1,3-43.56c-3.39-4.46-33.29-13.95-38.12-13.95s-10.23,6.99-14.96,7.13c-4.73,.14-11.85-2.71-11.85-2.71,0,0,7.78,4.61,7.38,7.49-.4,2.87-3.77,5.33-3.77,9.53s-2.12,34.64,0,37.1c2.12,2.46,37.78,8.91,37.78,8.91l1.74,11.75-24.83,10.54-22.78,58.3h99.37l-18.72-57.85Zm-45.4-38.7l-6.54-2.15-6.54,2.15-3.65-.42c3.58-.34,5.84-3.7,5.84-3.7l4.35,.84,4.35-.84s2.26,3.37,5.84,3.7l-3.65,.42Zm3.66-7.32c-3.77,0-6.91-2.72-7.57-6.3h-5.14c-.34,3.94-3.65,7.03-7.67,7.03-4.25,0-7.71-3.46-7.71-7.71s3.46-7.71,7.71-7.71c4.02,0,7.33,3.1,7.67,7.03h5s0-.04,0-.06c0-4.25,3.46-7.71,7.71-7.71s7.71,3.46,7.71,7.71-3.46,7.71-7.71,7.71Z"/>
  </g>
  <polygon class="cls-26" points="52.97 365.71 428 103.21 428 473.97 104.05 474.87 52.97 365.71"/>
  <path class="cls-27" d="M331.17,148.48c-.38,2.81-1.53,8.34-5.58,13.87-3.14,4.29-6.75,6.83-9.04,8.18,2.36,1.17,5.3,2.96,8.26,5.65,5.14,4.68,7.8,9.84,9.13,13.04,.52-2.73,1.87-7.77,5.74-12.78,3.02-3.91,6.39-6.26,8.61-7.56-2.53-1.37-6.03-3.65-9.39-7.3-4.53-4.91-6.69-10-7.73-13.09Z"/>
  <path class="cls-1" d="M428,173.99c-6.18-8.33-8.88-16.49-10.13-21.51-1.01,4.61-3.65,13.63-11.1,22.27-5.79,6.7-12.1,10.43-16.08,12.37,3.76,2.26,8.41,5.61,12.94,10.46,7.9,8.45,11.62,17.36,13.41,22.85,1.21-4.4,4.06-12.44,10.96-20.15"/>
  <path class="cls-1" d="M320.53,325.95c-.42,1.94-1.54,5.74-4.67,9.37-2.43,2.82-5.09,4.39-6.77,5.2,1.58,.95,3.54,2.36,5.45,4.4,3.32,3.56,4.89,7.3,5.64,9.62,.52-1.87,1.74-5.32,4.72-8.6,2.33-2.56,4.81-4.01,6.43-4.8-1.69-1.1-4-2.89-6.15-5.62-2.88-3.68-4.11-7.35-4.66-9.57Z"/>
  <polyline class="cls-1" points="428 244.11 350.25 294.31 349.17 292.63 428 241.73"/>
  <polygon class="cls-1" points="356.55 474.17 400.35 445.9 399.26 444.22 352.55 474.18 356.55 474.17"/>
  <rect class="cls-1" x="215.94" y="218.15" width="175.13" height="2" transform="translate(-70.52 203.44) rotate(-33.43)"/>
  <polyline class="cls-1" points="428 257.52 380.54 287.31 379.48 285.61 428 255.16"/>
  <rect class="cls-1" x="274.89" y="404.87" width="61.49" height="2" transform="translate(-168.97 224.52) rotate(-32.11)"/>
  <polyline class="cls-1" points="428 418.38 377.69 449.96 376.63 448.27 428 416.02"/>
  <polyline class="cls-1" points="428 269.96 380.74 300.04 379.66 298.36 428 267.59"/>
  <rect class="cls-1" x="284.05" y="388.53" width="60.45" height="2" transform="translate(-160.02 229.69) rotate(-32.48)"/>
  <rect class="cls-1" x="106.45" y="385.41" width="61.49" height="2" transform="translate(-184.39 132.01) rotate(-32.11)"/>
  <rect class="cls-1" x="115.6" y="369.07" width="60.45" height="2" transform="translate(-175.92 136.19) rotate(-32.48)"/>
  <g>
    <polyline class="cls-15" points="83.48 276.19 15.62 276.19 15.62 76.23 198.21 112.46 265.97 202.59 130.3 269.98"/>
    <g>
      <polygon class="cls-1" points="132.48 45.29 121.07 83.22 183.22 139.4 231.2 124.35 240.78 62.66 201.78 31.16 132.48 45.29"/>
      <path class="cls-15" d="M182.76,141.48l-63.8-57.68,12.06-40.11,71.25-14.52,40.51,32.72-9.92,63.88-50.09,15.72Zm-59.58-58.86l60.49,54.69,45.87-14.39,9.24-59.49-37.49-30.28-67.37,13.73-10.75,35.75Z"/>
    </g>
    <g>
      <polyline class="cls-20" points="133.97 268.16 86.86 312.97 98.96 357.79 64.76 312.11 82.08 271.77"/>
      <g class="cls-17">
        <g>
          <g>
            <polygon class="cls-23" points="199.75 145.5 143.61 220.95 201.21 229.41 223.76 154.8 199.75 145.5"/>
            <path class="cls-3" d="M210.43,122.99l-3.35,10.74-2.56,8.2-1.51,4.83,20.74,8.03,8.81-22.34s2.3-7.61-4.55-16.2c-3.45-4.33-7.57-3.59-10.81-1.8s-5.66,4.95-6.78,8.54Z"/>
            <polygon class="cls-5" points="211.49 113.95 224.51 111.97 235.86 122.97 231.77 139.36 211.49 130.25 211.49 113.95"/>
            <path class="cls-13" d="M215.58,131.82s-.07,0-.11,0c-.35-.06-.59-.4-.53-.75l2.58-14.92c.06-.35,.4-.59,.75-.53,.35,.06,.59,.4,.53,.75l-2.58,14.92c-.05,.31-.33,.54-.64,.54Z"/>
            <path class="cls-13" d="M221.26,134.43c-.06,0-.13,0-.19-.03-.34-.1-.53-.47-.43-.81l4.99-16.22c.11-.34,.46-.53,.81-.43,.34,.1,.53,.47,.43,.81l-4.99,16.22c-.09,.28-.34,.46-.62,.46Z"/>
            <path class="cls-13" d="M227.09,136.72c-.07,0-.15-.01-.22-.04-.34-.12-.51-.49-.39-.83l4.05-11.29c.12-.34,.49-.51,.83-.39,.34,.12,.51,.49,.39,.83l-4.05,11.29c-.09,.26-.34,.43-.61,.43Z"/>
            <path class="cls-5" d="M205.89,131.18l-2.4,9.94,15.07,3.23s2.7,.06,3.63-2.64c.92-2.7-1.82-4.61-1.82-4.61l-14.48-5.92Z"/>
            <path class="cls-24" d="M221.35,138.02c-.37,.05-.95,.17-1.55,.52-.28,.17-1.54,.9-1.82,2.31-.24,1.22,.34,2.54,1.45,3.38,1.44-.24,2.6-1.29,2.95-2.68,.32-1.26-.08-2.62-1.04-3.53Z"/>
          </g>
          <path class="cls-20" d="M192.33,216.11l26.52,47.14L12.26,289.77s2.95-20.34,10.42-34.95c7.48-14.6,30.47-46.11,30.47-46.11l139.18,7.41Z"/>
          <path class="cls-21" d="M165.88,85.91l-56.96-24.69-53.14,42.23,8.41,86.75-28.22,40.05s40.02,33.33,87.58,27.23c47.56-6.1,84.02-30.07,84.02-30.07l-26.41-52.76-15.29-88.74Z"/>
          <path class="cls-1" d="M135.86,256.01c-.33,0-.61-.25-.64-.59l-6.2-64.11c-.04-.36,.23-.67,.58-.71,.34-.04,.67,.23,.71,.58l6.2,64.11c.04,.36-.23,.67-.58,.71-.02,0-.04,0-.06,0Z"/>
          <g>
            <g>
              <path class="cls-16" d="M136.72,185.51c.46-.1,2.68-.56,5.43,.58,.84,.35,2.23,1.05,3.6,2.46-1.88,1.2-3.58,1.6-4.58,1.74-1.45,.22-3.89,.57-5.4-.89-.72-.7-1.41-1.96-.97-2.85,.32-.66,1.14-.86,1.93-1.04Z"/>
              <path class="cls-16" d="M137,190.24c.46,.12,2.63,.74,4.55,3.01,.59,.7,1.49,1.96,2.06,3.84-2.22,.2-3.91-.23-4.87-.56-1.39-.48-3.71-1.28-4.39-3.28-.32-.95-.34-2.39,.45-2.98,.59-.44,1.41-.24,2.2-.03Z"/>
              <path class="cls-16" d="M134.91,194.53c.2,.43,1.1,2.5,.56,5.43-.17,.9-.57,2.4-1.66,4.03-1.57-1.59-2.3-3.17-2.66-4.12-.51-1.38-1.37-3.68-.25-5.47,.53-.85,1.63-1.78,2.59-1.55,.72,.18,1.08,.94,1.42,1.68Z"/>
              <path class="cls-16" d="M130.18,195.77c.02,.47,.09,2.73-1.51,5.24-.49,.77-1.42,2.02-3.04,3.12-.86-2.06-.95-3.8-.93-4.81,.04-1.47,.1-3.93,1.81-5.17,.81-.59,2.18-1.05,2.98-.47,.6,.43,.65,1.27,.69,2.08Z"/>
              <path class="cls-16" d="M126.08,194.4c-.25,.4-1.47,2.31-4.21,3.47-.84,.36-2.31,.86-4.27,.86,.45-2.19,1.36-3.68,1.96-4.49,.86-1.19,2.31-3.18,4.41-3.24,1-.03,2.39,.37,2.72,1.3,.25,.69-.18,1.41-.61,2.11Z"/>
              <path class="cls-16" d="M122.92,191c-.45,.14-2.62,.78-5.46-.12-.87-.28-2.31-.86-3.79-2.14,1.77-1.36,3.43-1.89,4.42-2.12,1.43-.34,3.82-.9,5.46,.43,.78,.63,1.57,1.84,1.21,2.76-.26,.69-1.06,.95-1.84,1.2Z"/>
            </g>
            <path class="cls-1" d="M137.46,185.04c-1.56-4.5-15-1.67-15.78,2.52s4.56,9.21,9.76,8.05,7.58-6.07,6.02-10.57Z"/>
          </g>
          <polygon class="cls-3" points="167.67 107.97 76.68 119.64 82.13 169.32 130.67 191.16 173.43 158.5 167.67 107.97"/>
          <path class="cls-20" d="M73.28,99.17l2.89,22.48,92.77-11.91-3.06-23.84s-23.45,.24-45.4,3.06c-21.96,2.82-47.19,10.21-47.19,10.21Z"/>
          <path class="cls-10" d="M112.43,124.05l.89,6.91s-7.12,.58-14.41-.16c-7.29-.74-16.23-3.94-16.23-3.94l-1.14-8.89s11.48,3.38,15.59,4.19c4.12,.81,15.3,1.88,15.3,1.88Z"/>
          <path class="cls-10" d="M138.03,122.14l.93,7.28,26.34-8.9-1.81-7.3s-8.68,2.24-13.19,3.83-12.27,5.09-12.27,5.09Z"/>
          <path class="cls-13" d="M109.55,182.31c-.33,0-.62-.25-.64-.59,0-.1-.97-10.34-9.34-16.12-8.39-5.79-18.09-3.82-18.19-3.8-.35,.07-.69-.15-.77-.5-.08-.35,.15-.69,.5-.77,.42-.09,10.33-2.12,19.2,4,8.88,6.13,9.86,16.64,9.9,17.08,.03,.36-.23,.67-.59,.7-.02,0-.04,0-.06,0Z"/>
          <path class="cls-13" d="M152.06,175.47c-.35,0-.64-.29-.65-.64,0-.46-.03-11.44,7.44-18.35,7.46-6.9,13.44-6.67,13.7-6.66,.36,.02,.63,.32,.61,.68-.02,.36-.33,.63-.68,.61-.05,0-5.74-.17-12.75,6.32-7.04,6.51-7.02,17.27-7.02,17.38,0,.36-.28,.65-.64,.65h0Z"/>
          <path class="cls-22" d="M127.39,178.85l-.62-.18c-.19-.06-4.75-1.42-8.65-6.01-3.86-4.54-5.27-8.66-5.33-8.83l-.21-.61,1.23-.41,.21,.61s1.4,4.07,5.09,8.41c3.64,4.28,7.98,5.59,8.02,5.6l.62,.18-.36,1.24Z"/>
          <g>
            <path class="cls-19" d="M146.34,146.39l-.7-.22,.11-.35c.59-1.83,2.1-5.26,5.62-7.71,5.78-4.02,12.27-2.2,13.52-1.79l.35,.11-.23,.7-.35-.11c-1.18-.39-7.37-2.13-12.87,1.7-3.35,2.33-4.78,5.6-5.34,7.34l-.11,.35Z"/>
            <rect class="cls-19" x="161.64" y="133.59" width="4.4" height=".73" transform="translate(-12.63 250.77) rotate(-72.77)"/>
            <rect class="cls-19" x="160.07" y="131.68" width=".73" height="4.26" transform="translate(-12.96 17.28) rotate(-5.93)"/>
            <path class="cls-19" d="M155.04,137.13c2.75,.37,3.93,3.4,4.24,4.18,.34,.87,1.3,3.32-.04,5-.94,1.18-2.44,1.27-2.52,1.27-2.46,.1-4.08-2.74-4.64-3.71-.72-1.26-1.99-3.48-.93-5.2,.81-1.31,2.6-1.72,3.9-1.54Z"/>
          </g>
          <g>
            <path class="cls-19" d="M113.19,148.35l-.19-.31c-.95-1.56-3.1-4.41-6.89-5.9-6.23-2.45-11.85,.67-12.91,1.32l-.31,.19-.38-.62,.31-.19c1.12-.68,7.01-3.96,13.56-1.38,3.99,1.57,6.26,4.56,7.25,6.21l.19,.31-.63,.38Z"/>
            <rect class="cls-19" x="92.94" y="138.09" width=".73" height="4.4" transform="translate(-58.46 67.1) rotate(-30.63)"/>
            <rect class="cls-19" x="96.21" y="137.24" width=".73" height="4.26" transform="translate(-17.16 13.62) rotate(-7.41)"/>
            <path class="cls-19" d="M102.6,141.35c-2.59,.99-3.04,4.22-3.16,5.05-.13,.93-.5,3.53,1.19,4.85,1.19,.93,2.67,.67,2.75,.65,2.42-.47,3.34-3.6,3.66-4.68,.41-1.4,1.13-3.85-.29-5.27-1.09-1.09-2.92-1.07-4.15-.6Z"/>
          </g>
          <g>
            <path class="cls-6" d="M129.76,128.11c-.09,10.25-.19,20.5-.28,30.75,6.03-.32,12.06-.65,18.09-.97-5.94-9.92-11.87-19.85-17.81-29.77Z"/>
            <path class="cls-13" d="M129.48,159.35c-.12,0-.25-.05-.34-.14-.1-.09-.15-.22-.15-.36l.28-30.75c0-.22,.15-.41,.36-.47,.22-.06,.43,.03,.55,.22l17.81,29.77c.09,.15,.09,.33,.01,.48-.08,.15-.23,.25-.4,.26l-18.09,.97s-.02,0-.03,0Zm.75-29.5l-.26,28.49,16.76-.9-16.5-27.59Z"/>
          </g>
        </g>
      </g>
    </g>
    <g>
      <path class="cls-15" d="M147.68,71.23l-3.33-16.92-.6-.88h6.35l2.39,12.36,6.04-12.36h6.04l-8.43,17.8h-8.46Z"/>
      <path class="cls-15" d="M182.18,57.96c.61,0,1.06,.25,1.37,.74,.3,.49,.46,1.04,.46,1.65l-1.51,10.88h-13.58c-.61,0-1.06-.2-1.37-.6-.3-.4-.46-.9-.46-1.51l1.51-11.16h13.58Zm-7.86,3.02l-1.2,7.23h3.62l1.23-7.23h-3.65Z"/>
      <path class="cls-15" d="M189.53,56.13l-.6-.91h6.63l-.41,2.74h3.74l-.63,3.02h-3.49l-1.04,7.23h3.02l-.6,3.02h-6.64c-.61,0-1.1-.2-1.48-.6-.38-.4-.49-.9-.35-1.51l1.23-8.15h-2.42l.31-3.02h2.45l.25-1.82Z"/>
      <path class="cls-15" d="M216.8,65.79h-9.65l-.31,2.42h8.46l1.51-1.19-.91,4.21h-13.27c-.61,0-1.06-.2-1.37-.6-.3-.4-.46-.9-.46-1.51l1.51-11.16h15.69l-1.2,7.83Zm-8.77-4.81l-.28,1.79h3.62l.31-1.79h-3.65Z"/>
    </g>
    <g>
      <path class="cls-15" d="M181.82,75.73h4.17l-.29,1.62h-.81l-.34,1.78h1.3l-.32,1.62h-1.13l-.81,5.49h-3.23l.81-5.49h-1.3l.17-1.62h1.28l.49-3.4Z"/>
      <path class="cls-15" d="M194.75,79.13c.33,0,.57,.13,.73,.4s.24,.56,.24,.88l-.81,5.82h-7.27c-.33,0-.57-.11-.73-.32-.16-.21-.24-.48-.24-.81l.81-5.98h7.27Zm-4.21,1.62l-.64,3.87h1.94l.66-3.87h-1.95Z"/>
      <path class="cls-15" d="M200.95,79.13l-.32,2.26,2.27-2.26h3.23l-5.5,4.85-.32,2.26h-3.23l.94-6.63-.34-.47h3.27Z"/>
    </g>
    <g>
      <path class="cls-15" d="M183.36,91.44l3.03,10.13,5.74-10.13h5.76l-2.2,16.15h-4.94l1.37-8.5-4.37,7.42h-4.39l-2.2-7.13-1.08,8.22h-4.94l2.2-15.07-1.11-1.08h7.13Z"/>
      <path class="cls-15" d="M214.84,102.66h-8.76l-.29,2.2h7.68l1.37-1.08-.83,3.82h-12.04c-.55,0-.97-.18-1.24-.54-.28-.36-.41-.82-.41-1.37l1.37-10.13h14.24l-1.08,7.1Zm-7.96-4.37l-.26,1.63h3.28l.29-1.63h-3.31Z"/>
      <path class="cls-15" d="M222.68,107.59h-4.34l.37-2.71h4.34l-.37,2.71Zm.51-4h-4.34l1.77-12.16h4.34l-1.77,12.16Z"/>
    </g>
  </g>
  <g>
    <circle class="cls-27" cx="35.64" cy="323.29" r="11.64"/>
    <circle class="cls-26" cx="35.64" cy="403.67" r="11.64"/>
    <circle class="cls-15" cx="35.64" cy="449.54" r="11.64"/>
  </g>
  <g>
    <g>
      <polygon class="cls-4" points="280.12 303.12 299.32 311.71 286.71 342.08 259.22 331.62 261.67 303.12 280.12 303.12"/>
      <path class="cls-2" d="M281.55,340.02l-1.14-.25,3.2-14.76-21.89-11.28,.53-1.04,22.29,11.48c.23,.12,.36,.38,.3,.64l-3.29,15.2Z"/>
      <path class="cls-2" d="M284.65,341.38l-1.11-.34,5.64-18.26-13.67-12.3,.78-.87,13.95,12.55c.17,.15,.23,.39,.17,.6l-5.75,18.62Z"/>
    </g>
    <polygon class="cls-4" points="158.38 230.71 206.06 197.24 283.96 227.61 275.39 292.41 254.56 304.63 158.38 230.71"/>
    <g>
      <polygon class="cls-8" points="263.73 291.29 278.78 285.97 280.36 310.69 263.73 314.01 263.73 291.29"/>
      <path class="cls-13" d="M264.1,304.55l-.92-.73,7.2-9.1c.06-.08,.14-.14,.23-.18l4.38-1.83,.46,1.09-4.24,1.78-7.11,8.98Z"/>
    </g>
    <polygon class="cls-8" points="240.02 342.28 253.43 381.09 233.02 409.3 203.7 381.09 197.3 358.98 240.02 342.28"/>
    <path class="cls-7" d="M150.47,372.81c-16.1,34.97-47.74,102.06-47.74,102.06l222.54-2.52-26.68-98.03-47.56-.21-18.19,13.27,.19,20.03-5.79-19.26-25.93-15.36"/>
    <path class="cls-3" d="M263.84,263.01l.16,62.08c.01,4.3-2.26,8.29-5.97,10.47l-52.46,30.82c-3.24,1.91-7.32,1.63-10.28-.68l-33.43-26.15c-3.78-2.95-5.94-7.52-5.85-12.31l.96-63.82,46.46-28.07,60.41,27.66Z"/>
    <path class="cls-4" d="M222.7,242.9c-22.64,13.03-65.76,39.04-65.76,39.04l.11-51.25s34.67,.34,49.54-.19c5.35,4.63,10.77,7.76,16.12,12.39Z"/>
    <g>
      <path class="cls-7" d="M194.28,279.15c.38,13.15,1.13,39.46,1.13,39.46l-12.01,.24s-3.02-28.46,10.88-39.7Z"/>
      <path class="cls-13" d="M183.4,319.48c-.32,0-.59-.24-.62-.56-.12-1.18-2.9-28.93,11.11-40.25,.18-.15,.44-.18,.66-.08,.22,.1,.36,.31,.36,.55l1.13,39.46c0,.17-.06,.33-.17,.45-.12,.12-.27,.19-.44,.19l-12.01,.24h-.01Zm10.29-38.99c-11.34,10.49-10.03,33.78-9.71,37.72l10.79-.21-1.08-37.51Z"/>
    </g>
    <path class="cls-13" d="M227.7,353.96c-.28,0-.53-.2-.58-.48-.74-4.02-1.28-11.95,3.35-19.96,3.59-6.22,9.22-10.67,16.72-13.23,6.54-2.23,12.48-1.88,16.31-1.18,.32,.06,.53,.36,.47,.68-.06,.32-.36,.53-.68,.47-3.7-.67-9.42-1.01-15.72,1.14-7.23,2.47-12.64,6.74-16.09,12.71-4.44,7.69-3.92,15.31-3.21,19.16,.06,.32-.15,.63-.47,.69-.04,0-.07,0-.11,0Z"/>
    <path class="cls-13" d="M178.75,353.35s-.05,0-.07,0c-.32-.04-.55-.33-.52-.65,.43-3.69,1.27-16.42-5.78-25.19-5.45-6.77-12.47-9.26-16.18-10.13-.32-.07-.51-.39-.44-.71,.08-.32,.39-.51,.71-.44,3.85,.91,11.16,3.49,16.82,10.54,7.34,9.13,6.47,22.26,6.03,26.06-.04,.3-.29,.52-.58,.52Z"/>
    <polygon class="cls-2" points="213.64 273.54 245.46 282.23 244.17 273.74 214.7 269.05 213.64 273.54"/>
    <polygon class="cls-2" points="182.28 275.61 149.62 280.26 151.95 272 181.78 271.02 182.28 275.61"/>
    <path class="cls-13" d="M196.67,343.02c-4.84,0-8.07-1.7-8.24-1.79l-.5-.27,.54-1.01,.51,.27s4.87,2.54,11.4,1.3c6.63-1.26,10.34-3.72,10.37-3.74l.48-.32,.64,.95-.48,.32c-.16,.11-3.94,2.61-10.8,3.91-1.39,.27-2.71,.37-3.92,.37Z"/>
    <path class="cls-1" d="M169.79,289.28c-.32,1.45-1.15,4.3-3.5,7.02-1.82,2.11-3.81,3.28-5.07,3.9,1.18,.71,2.65,1.77,4.08,3.3,2.49,2.66,3.66,5.47,4.23,7.2,.39-1.4,1.3-3.98,3.54-6.44,1.74-1.92,3.6-3.01,4.82-3.59-1.26-.82-3-2.16-4.6-4.21-2.16-2.76-3.08-5.51-3.49-7.17Z"/>
    <path class="cls-1" d="M222.94,289.28c-.32,1.45-1.15,4.3-3.5,7.02-1.82,2.11-3.81,3.28-5.07,3.9,1.18,.71,2.65,1.77,4.08,3.3,2.49,2.66,3.66,5.47,4.23,7.2,.39-1.4,1.3-3.98,3.54-6.44,1.74-1.92,3.6-3.01,4.82-3.59-1.26-.82-3-2.16-4.6-4.21-2.16-2.76-3.08-5.51-3.49-7.17Z"/>
    <g>
      <path class="cls-4" d="M52.93,360.76l32.75-4.82c3.48-.51,6.9,1.25,8.51,4.37l32.51,63.12c1.26,2.45-.3,5.4-3.04,5.74l-34.58,4.22c-3.47,.42-6.83-1.39-8.38-4.53l-30.75-62.44c-1.19-2.41,.32-5.27,2.97-5.66Z"/>
      <path class="cls-21" d="M53.96,363.62l30.89-4.41c3.28-.47,6.52,1.24,8.07,4.26l31.12,60.89c1.21,2.36-.25,5.19-2.83,5.49l-32.62,3.82c-3.28,.38-6.46-1.39-7.94-4.41l-29.46-60.22c-1.14-2.32,.26-5.06,2.77-5.42Z"/>
      <g>
        <path class="cls-3" d="M72.5,466.32c-1.55-2.8-4.61-13.38-4.61-13.38l.08-12.94,26.58-42.39,18.33,13.43-16.4,32.15s6.42,9.29,4.74,14.45c-.14,.44-.3,.78-.41,.99-9.44,2.57-18.87,5.14-28.31,7.7Z"/>
        <rect class="cls-13" x="82.78" y="408.06" width="19.65" height="1.15" transform="translate(-293.22 245.25) rotate(-54.28)"/>
        <rect class="cls-13" x="93.47" y="415.31" width="19.7" height="1.15" transform="translate(-312.14 310.88) rotate(-61.86)"/>
        <rect class="cls-13" x="87.5" y="411.96" width="20.77" height="1.15" transform="translate(-299.83 265.62) rotate(-56.38)"/>
      </g>
      <path class="cls-22" d="M107.11,438.73s-.17-.12,25.64,36.06H67.56l-8.51-30.83,48.06-5.23Z"/>
      <ellipse class="cls-4" cx="57.13" cy="370.2" rx="2.32" ry="3.23" transform="translate(-157.76 63.39) rotate(-26.23)"/>
      <ellipse class="cls-4" cx="60.11" cy="376.25" rx="1.4" ry="1.95" transform="translate(-160.13 65.33) rotate(-26.23)"/>
    </g>
    <g>
      <path class="cls-2" d="M185.07,229.75s54.06,42.91,81.11,65.8c-.67-16.31-1.24-32.77-1.69-49.37-.16-6.02-.31-12.03-.45-18.01-26.32,.53-52.65,1.06-78.97,1.58Z"/>
      <rect class="cls-2" x="157.08" y="228.61" width="127.49" height="1.18" transform="translate(-5.41 5.34) rotate(-1.37)"/>
      <rect class="cls-4" x="251.92" y="221.32" width="1.19" height="74.28" transform="translate(-71.85 99.24) rotate(-19.52)"/>
      <rect class="cls-4" x="237.05" y="216.87" width="1.18" height="85.11" transform="translate(-110.75 210.43) rotate(-39.5)"/>
    </g>
  </g>
  <g>
    <polygon class="cls-1" points="362.5 374.21 350.57 355.47 359.3 351.88 370.02 368.74 394.07 352.16 409.97 383.32 366.78 407.27 351.11 382.65 362.5 374.21"/>
    <polygon class="cls-6" points="344.5 379.92 354.29 373.69 358.83 380.82 376.11 407.96 366.31 414.19 344.5 379.92"/>
  </g>
  <g>
    <polygon class="cls-1" points="339.7 243.55 333.07 233.12 337.92 231.13 343.89 240.51 357.26 231.28 366.11 248.62 342.08 261.94 333.36 248.24 339.7 243.55"/>
    <polygon class="cls-6" points="329.69 246.73 335.13 243.26 337.66 247.23 347.27 262.33 341.82 265.79 329.69 246.73"/>
  </g>
  <g>
    <polygon class="cls-1" points="113.52 352.88 106.89 342.46 111.74 340.46 117.71 349.84 131.08 340.61 139.93 357.95 115.9 371.27 107.19 357.57 113.52 352.88"/>
    <polygon class="cls-6" points="103.51 356.06 108.96 352.59 111.48 356.56 121.09 371.66 115.64 375.13 103.51 356.06"/>
  </g>
</svg>