<?xml version="1.0" encoding="UTF-8"?>
<svg xmlns="http://www.w3.org/2000/svg" viewBox="0 0 428 482">
  <defs>
    <style>
      .cls-1 {
        fill: #fff;
      }

      .cls-2 {
        fill: #edeeea;
      }

      .cls-3 {
        fill: #181216;
      }

      .cls-4 {
        fill: #ef9d7f;
      }

      .cls-5 {
        fill: #f5ad34;
      }

      .cls-6 {
        fill: #363636;
      }

      .cls-7 {
        fill: #eeb2ff;
      }

      .cls-8 {
        isolation: isolate;
      }

      .cls-9, .cls-10 {
        fill: #fac300;
      }

      .cls-11 {
        fill: #ffb9a4;
      }

      .cls-12 {
        fill: #f55;
      }

      .cls-13 {
        fill: #e58e73;
      }

      .cls-14 {
        fill: #f7f2dc;
      }

      .cls-15 {
        fill: #f80500;
      }

      .cls-16 {
        fill: #307f46;
      }

      .cls-17 {
        fill: #e64c00;
      }

      .cls-10 {
        mix-blend-mode: hard-light;
      }

      .cls-18 {
        fill: #353535;
      }

      .cls-19 {
        fill: #b72c2c;
      }

      .cls-20 {
        fill: #6d6d6d;
      }

      .cls-21 {
        fill: #4ea978;
      }

      .cls-22 {
        fill: #d46cff;
      }

      .cls-23 {
        fill: #d38871;
      }

      .cls-24 {
        fill: #f7a22d;
      }
    </style>
  </defs>
  <g class="cls-8">
    <g id="Layer_2" data-name="Layer 2">
      <g>
        <polygon class="cls-13" points="292.43 338.14 335.08 327.78 350.37 366.28 295.08 364.45 292.43 338.14"/>
        <polygon class="cls-23" points="204.84 351.62 197.69 375.23 199.17 396.68 231.01 397.89 232.5 377.52 204.84 351.62"/>
        <path class="cls-6" d="M206.4,312.33l-17.35,16.74c-2.2,2.12-2.81,5.41-1.51,8.18l26.17,55.89c1.01,2.17,3.88,2.66,5.56,.96l21.26-21.55c2.14-2.16,2.67-5.44,1.33-8.17l-24.58-50.12c-2.04-4.16-7.55-5.13-10.89-1.91Z"/>
        <path class="cls-20" d="M211.57,313.38l-18.37,18.1c-1.56,1.53-1.97,3.89-1.03,5.86l26.6,55.63,21.4-21.19c1.9-1.95,2.34-4.94,1.1-7.46l-24.75-50c-.95-1.93-3.46-2.41-4.96-.95Z"/>
        <polygon class="cls-6" points="196.19 327.96 199.2 328.57 207.45 320.57 207.45 316.86 196.19 327.96"/>
        <path class="cls-1" d="M202.73,338.94h21.18c1.27,0,2.31,1.03,2.31,2.31h0c0,2.18-1.77,3.96-3.96,3.96h-21.18c-1.27,0-2.31-1.03-2.31-2.31h0c0-2.18,1.77-3.96,3.96-3.96Z" transform="translate(-174.21 229.71) rotate(-41.95)"/>
        <polygon class="cls-6" points="262.96 239.69 304.58 210.12 372.58 236.63 369.49 316.01 327.29 335.28 328.83 292.98 286.45 256.99 262.39 268.93 262.96 239.69"/>
        <g>
          <polygon class="cls-13" points="327.59 294.27 340.73 289.62 342.11 311.2 327.59 314.1 327.59 294.27"/>
          <path class="cls-15" d="M327.91,305.84l-.81-.64,6.29-7.94c.05-.07,.12-.12,.21-.16l3.82-1.6,.4,.95-3.7,1.55-6.21,7.84Z"/>
        </g>
        <g>
          <g>
            <polygon class="cls-23" points="242.6 345.79 221.36 350.28 222.08 355.23 241.97 354.99 245.03 364.08 233.28 367.74 235.88 373.16 248.1 374.76 262.39 372.59 278.13 386.48 291.61 369.26 254.95 345.64 242.6 345.79"/>
            <polygon class="cls-11" points="221.72 352.75 226.31 351.62 225.56 349.39 221.36 350.28 221.72 352.75"/>
            <polygon class="cls-11" points="234.26 369.79 239.12 369.79 240.08 373.7 235.88 373.16 234.26 369.79"/>
          </g>
          <polygon class="cls-19" points="248.99 377.74 269.02 352.53 292.43 367.7 277.92 392.98 248.99 377.74"/>
        </g>
        <path class="cls-12" d="M288.06,363.97c-11.79,25.61-53.25,89.26-53.25,89.26l152.43-1.95-18.81-74.81-11.01-10.19-69.36-2.31Z"/>
        <path class="cls-19" d="M338.5,413.62c.36,10.01,.85,23.04,1.47,39.64l-70.23-.51c6.08-30.88,7.83-37.66,12.39-60.8,1.25-6.36,12.75-25.01,30.96-20.33,18.22,4.68,24.77,24.55,25.4,42.01Z"/>
        <g>
          <path class="cls-4" d="M226.15,411.07c.43-2.75-.23-12.3-.23-12.3h0c-2.98-3.24-3.92-10.55-3.92-10.55l1.74-22.11-8.35-1.74-1.99-.41-3.5,16.67-10.22,18.69s-2.47,9.5,.44,13.21c.25,.32,.48,.55,.63,.69,8.47-.72,16.94-1.43,25.41-2.15Z"/>
          <polygon class="cls-11" points="214.98 368.3 215.71 364.45 221.48 365.65 220.8 370.96 214.98 368.3"/>
        </g>
        <path class="cls-19" d="M232.77,394.97s12.89,23.92,31.33,57.86l-56.69,1.6c-6.37-23.42-13.13-59.31-13.13-59.31l38.48-.15Z"/>
        <path class="cls-4" d="M329.93,277.62l-2.65,57.65-64.67,16.9c-4.14,1.08-8.08-2.28-7.67-6.54,1.85-18.87,6.15-62.75,7.44-76.71,13.77-6.83,27.54-13.66,41.31-20.5l26.24,29.19Z"/>
        <path class="cls-15" d="M281.83,347.08l.5-.05h-.5c-.5-4.93-.93-21.54,14.6-28.61,7.33-3.34,18.67-5.47,31.11,3.33l.34,.24c.23,.16,.28,.47,.13,.69-.16,.23-.47,.28-.69,.13l-.35-.25c-12.04-8.53-23.03-6.46-30.12-3.23-14.92,6.8-14.5,22.84-14.02,27.6l-.49,.1-.5,.05Z"/>
        <path class="cls-18" d="M277.04,291.01c2.61,1.11,2.95,4.44,3.03,5.29,.1,.95,.37,3.63-1.41,4.92-1.25,.91-2.76,.58-2.84,.56-2.46-.58-3.28-3.82-3.56-4.93-.37-1.45-1.01-3.99,.51-5.39,1.16-1.07,3.03-.98,4.27-.45Z"/>
        <polygon class="cls-19" points="265.68 330.03 266.38 318.96 275.07 328.07 265.68 330.03"/>
        <polygon class="cls-3" points="268.08 265.86 294.24 271.44 294.79 264.81 269.01 262.46 268.08 265.86"/>
        <g>
          <path class="cls-12" d="M261.77,275.73c-.88,11.11-2.64,33.34-2.64,33.34l-10.14-.9s.05-24.25,12.78-32.45Z"/>
          <path class="cls-15" d="M259.13,309.6s-.03,0-.05,0l-10.13-.9c-.27-.02-.48-.25-.48-.53,0-1,.2-24.63,13.02-32.89,.17-.11,.39-.11,.56,0s.27,.3,.26,.5l-2.64,33.34c-.01,.14-.08,.27-.19,.36-.1,.08-.22,.13-.34,.13Zm-9.59-1.91l9.11,.8,2.51-31.69c-10.51,7.8-11.52,27.54-11.62,30.89Z"/>
        </g>
        <g>
          <polygon class="cls-6" points="379.67 310.17 397.31 315.3 390.04 343.08 365.01 337.33 363.71 312.37 379.67 310.17"/>
          <path class="cls-3" d="M385.33,341.92l-1.01-.08,1-13.15-21.57-7.59,.34-.96,21.93,7.72c.22,.08,.36,.29,.34,.52l-1.03,13.54Z"/>
          <path class="cls-3" d="M388.17,342.72l-1-.16,2.7-16.49-19.14-14.2,.61-.82,19.39,14.39c.15,.11,.23,.3,.2,.49l-2.75,16.79Z"/>
        </g>
        <g>
          <path class="cls-6" d="M287.72,292.84c-1.85-.71-2.88-2.14-8.9-2.3s-11.32,6.25-11.32,6.25l-1.14-1.02s4.63-6,10.71-6.83,9.58,1.32,11.3,2.04l-.66,1.86Z"/>
          <polygon class="cls-6" points="288.38 287.72 288.39 290.99 285.6 290.19 288.38 287.72"/>
        </g>
        <g>
          <path class="cls-3" d="M262.49,239.12s48.42,38.44,72.66,58.94c-.6-14.61-1.11-29.35-1.51-44.23-.15-5.39-.28-10.77-.4-16.13-23.58,.47-47.16,.95-70.74,1.42Z"/>
          <rect class="cls-3" x="262.52" y="238.14" width="110.57" height="1.06" transform="translate(-5.62 7.67) rotate(-1.37)"/>
          <polygon class="cls-6" points="333.52 296.38 333.35 295.88 311.29 233.67 312.29 233.31 312.47 233.81 334.53 296.03 333.52 296.38"/>
          <polygon class="cls-6" points="333.42 295.46 333.09 295.05 284.93 236.63 285.74 235.96 286.08 236.37 334.24 294.78 333.42 295.46"/>
        </g>
      </g>
      <g>
        <g>
          <polygon class="cls-5" points="44.09 204.85 239.65 200.89 221.98 266.85 207.67 268.1 202.37 288.75 190.16 265.86 36.88 271.91 44.09 204.85"/>
          <circle class="cls-14" cx="146.02" cy="237.68" r="5.93"/>
          <circle class="cls-14" cx="173.43" cy="238.49" r="5.93"/>
          <circle class="cls-14" cx="200.22" cy="239.04" r="5.93"/>
          <circle class="cls-14" cx="62.85" cy="237" r="5.93"/>
          <circle class="cls-14" cx="90.27" cy="237.82" r="5.93"/>
          <circle class="cls-14" cx="117.05" cy="238.36" r="5.93"/>
        </g>
        <g>
          <circle class="cls-19" cx="50.17" cy="201.83" r="18.62"/>
          <g>
            <path class="cls-1" d="M57.29,207.47l-14.34,.03s-2-14.67,7.13-14.69c9.13-.02,7.2,14.66,7.2,14.66Z"/>
            <path class="cls-1" d="M47.62,206.88h4.99s.7,5.1-2.48,5.1c-3.18,0-2.51-5.1-2.51-5.1Z"/>
            <rect class="cls-1" x="41.37" y="206.2" width="17.51" height="2.58" transform="translate(-.49 .12) rotate(-.13)"/>
            <rect class="cls-1" x="49.12" y="190.11" width="1.93" height="5.4" rx=".96" ry=".96" transform="translate(-.45 .12) rotate(-.13)"/>
          </g>
        </g>
      </g>
      <g>
        <path class="cls-7" d="M224.82,25.88c-4.49,12.02-8.98,24.03-13.46,36.05,16.45,.05,32.91,.1,49.36,.15,1.15-9.77,2.29-19.55,3.44-29.32-13.11-2.29-26.23-4.59-39.34-6.88Z"/>
        <g>
          <rect class="cls-17" x="181.02" y="59.43" width="113.48" height="113.48"/>
          <g>
            <path class="cls-1" d="M198.52,125.57l-3.37-17.08-.6-.89h6.41l2.41,12.48,6.1-12.48h6.09l-8.51,17.97h-8.54Z"/>
            <path class="cls-1" d="M236.58,107.6c.3,0,.57,.05,.83,.16,.25,.11,.47,.25,.65,.44s.3,.41,.37,.67,.05,.54-.03,.86l-2.13,15.84h-17.08c-.3,0-.57-.05-.83-.16-.25-.11-.47-.25-.65-.44s-.3-.42-.37-.68c-.06-.26-.05-.54,.03-.84l2.13-15.84h17.08Zm-11.59,3.05l-1.52,11.87h7.02l1.81-11.87h-7.3Z"/>
            <path class="cls-1" d="M244.93,125.57l2.13-14.92h-6.7l.32-3.05h19.49l-.6,3.05h-6.41l-2.13,14.92h-6.09Z"/>
            <path class="cls-1" d="M280.96,107.6l-.29,3.05h-10.06l-.6,3.94h9.43l-.29,3.05h-9.78l-.6,4.89h10.67l-.29,3.05h-17.08l2.44-16.76-.92-1.21h17.36Z"/>
          </g>
        </g>
      </g>
      <g>
        <polygon class="cls-9" points="316.19 24.85 402.7 24.85 402.7 135.52 361.28 176.48 316.19 176.48 316.19 24.85"/>
        <rect class="cls-1" x="329.62" y="40.71" width="62.01" height="4"/>
        <rect class="cls-1" x="329.62" y="53.55" width="62.01" height="4"/>
        <rect class="cls-1" x="329.62" y="65.2" width="62.01" height="4"/>
        <rect class="cls-1" x="329.62" y="76.85" width="62.01" height="4"/>
        <rect class="cls-1" x="329.62" y="88.51" width="62.01" height="4"/>
        <rect class="cls-1" x="329.62" y="100.16" width="62.01" height="4"/>
        <rect class="cls-1" x="329.62" y="111.81" width="62.01" height="4"/>
        <rect class="cls-1" x="329.62" y="123.47" width="62.01" height="4"/>
        <rect class="cls-1" x="329.62" y="138.59" width="62.01" height="4"/>
        <rect class="cls-1" x="329.62" y="150.25" width="42.7" height="4"/>
        <rect class="cls-1" x="329.62" y="161.9" width="36.13" height="4"/>
        <polygon class="cls-24" points="361.28 176.48 360.08 134.61 402.7 135.56 361.28 176.48"/>
      </g>
      <g>
        <g>
          <rect class="cls-21" x="33.49" y="43.77" width="128.37" height="75.96"/>
          <g>
            <rect class="cls-1" x="40.06" y="51.49" width="74.57" height="61.91"/>
            <g>
              <rect class="cls-1" x="120.13" y="80.14" width="29.93" height="4.61" transform="translate(-18.73 119.67) rotate(-45)"/>
              <rect class="cls-1" x="132.79" y="67.48" width="4.61" height="29.93" transform="translate(-18.73 119.67) rotate(-45)"/>
            </g>
            <polygon class="cls-1" points="155.55 113.4 114.64 113.4 114.64 110.13 152.28 110.13 152.28 54.76 114.64 54.76 114.64 51.49 155.55 51.49 155.55 113.4"/>
          </g>
        </g>
        <polygon class="cls-16" points="77.64 65.51 54.38 99.13 100.32 98.06 77.64 65.51"/>
      </g>
      <g>
        <polygon class="cls-7" points="33.77 151.65 57.1 167.11 57.1 136.19 33.77 151.65"/>
        <polygon class="cls-17" points="57.1 166.7 57.1 136.19 143.97 136.19 143.97 167.11 57.1 166.7"/>
        <path class="cls-24" d="M143.97,167.11v-30.92s17.6,.45,17.6,15.46-17.6,15.46-17.6,15.46Z"/>
        <polygon class="cls-2" points="136.61 167.52 136.61 135.74 143.97 135.74 143.97 167.56 136.61 167.52"/>
        <rect class="cls-2" x="57.1" y="158.71" width="79.51" height="5.25"/>
        <rect class="cls-2" x="57.1" y="148.31" width="79.51" height="5.25"/>
        <rect class="cls-2" x="57.25" y="137.91" width="79.51" height="5.25"/>
        <polygon class="cls-17" points="40.67 156.22 40.67 147.08 33.77 151.65 40.67 156.22"/>
      </g>
      <g>
        <polygon class="cls-17" points="164.43 288.05 161.86 388.11 92.88 393.25 52.55 436.18 65.42 392.96 45.29 392.96 33.49 292.89 164.43 288.05"/>
        <g>
          <rect class="cls-1" x="66.12" y="334.36" width="68.84" height="10.59" transform="translate(-210.73 170.57) rotate(-45)"/>
          <rect class="cls-1" x="95.24" y="305.24" width="10.59" height="68.84" transform="translate(-210.73 170.57) rotate(-45)"/>
        </g>
      </g>
      <g>
        <path class="cls-22" d="M105.29,410.32l64.45-4.97s.86,16.35,3.81,26.87c2.95,10.51,10.06,24.09,10.06,24.09H59.83s20.95-13.58,30.28-24.09c9.33-10.51,15.17-21.9,15.17-21.9Z"/>
        <g>
          <path class="cls-10" d="M165.41,430.83c-2.38-13.04-2.97-19.07-2.97-19.07l-53.91,4.59s-2.8,7.2-11.75,17.41c-8.94,10.21-17.39,15.86-17.39,15.86l91.77-1.19s-3.37-4.56-5.75-17.6Zm-20.81,5.35l-9.48-.49-5.5,6.23-2.84-6.66-9.17-.47,6.41-6.01-2.31-5.42h8.09l4.06-3.8,2.46,3.8h9.69l-5.6,6.34,4.19,6.48Z"/>
          <polygon class="cls-10" points="129.81 423.36 124.03 428.78 126.79 435.26 135.13 435.69 140.42 429.7 136.33 423.36 129.81 423.36"/>
        </g>
      </g>
    </g>
  </g>
</svg>