<?xml version="1.0" encoding="UTF-8"?>
<svg id="Layer_2" data-name="Layer 2" xmlns="http://www.w3.org/2000/svg" xmlns:xlink="http://www.w3.org/1999/xlink" viewBox="0 0 173.34 246.49">
  <defs>
    <style>
      .cls-1 {
        fill: #fff;
      }

      .cls-2, .cls-3, .cls-4, .cls-5, .cls-6, .cls-7, .cls-8, .cls-9, .cls-10 {
        stroke-linejoin: round;
      }

      .cls-2, .cls-3, .cls-6 {
        stroke-linecap: round;
      }

      .cls-2, .cls-3, .cls-6, .cls-8 {
        stroke: #f80500;
      }

      .cls-2, .cls-4, .cls-5, .cls-6, .cls-11, .cls-7, .cls-8, .cls-9, .cls-10 {
        fill: none;
      }

      .cls-2, .cls-8 {
        stroke-width: .82px;
      }

      .cls-12 {
        fill: #181216;
      }

      .cls-13 {
        fill: #ef9d7f;
      }

      .cls-14 {
        fill: #363636;
      }

      .cls-15 {
        fill: #eeb2ff;
      }

      .cls-3 {
        stroke-width: .87px;
      }

      .cls-3, .cls-16 {
        fill: #f55;
      }

      .cls-17 {
        fill: #e58e73;
      }

      .cls-4 {
        stroke-width: .88px;
      }

      .cls-4, .cls-5, .cls-7, .cls-8, .cls-9, .cls-10 {
        stroke-linecap: square;
      }

      .cls-4, .cls-10 {
        stroke: #fff;
      }

      .cls-18 {
        fill: #307f46;
      }

      .cls-5 {
        stroke: #363636;
      }

      .cls-5, .cls-9 {
        stroke-width: .82px;
      }

      .cls-6 {
        stroke-width: .8px;
      }

      .cls-19 {
        clip-path: url(#clippath);
      }

      .cls-7 {
        stroke-width: .81px;
      }

      .cls-7, .cls-9 {
        stroke: #181216;
      }

      .cls-20 {
        fill: #b72c2c;
      }

      .cls-21 {
        fill: #e27c5d;
      }

      .cls-22 {
        fill: #f7a22d;
      }
    </style>
    <clipPath id="clippath">
      <rect class="cls-11" x="6.24" y="7.23" width="160.53" height="198.84" rx="14.3" ry="14.3"/>
    </clipPath>
  </defs>
  <rect class="cls-22" x=".49" width="173.34" height="246.49" rx="13.2" ry="13.2"/>
  <rect class="cls-18" x="6.24" y="7.23" width="160.53" height="198.84" rx="14.3" ry="14.3"/>
  <g class="cls-19">
    <g>
      <polygon class="cls-14" points="134.47 98.96 147.89 104.96 139.07 126.18 119.87 118.87 121.58 98.96 134.47 98.96"/>
      <polyline class="cls-7" points="135.16 124.26 137.37 114.04 122.16 106.2"/>
      <polyline class="cls-7" points="131.82 104.07 141.27 112.56 137.37 125.18"/>
    </g>
    <path class="cls-22" d="M60,44.92c-1.2,.34-3.57,.83-6.47,.24-3.22-.65-5.37-2.29-6.31-3.12-.15,.5-.73,2.14-2.44,3.3-1.88,1.28-3.83,1.07-4.31,1.01,.08,.18,1.91,4.48-.72,8.04-1.76,2.39-4.4,2.91-5.03,3.02,.75,.52,6.43,4.57,6.85,11.77,.27,4.58-1.73,7.97-2.54,9.19,1.01-.9,4.14-3.44,8.47-3.3,1.23,.04,2.29,.28,3.16,.57,3.11-10.24,6.22-20.49,9.33-30.73Z"/>
    <polygon class="cls-14" points="49.89 48.84 83.03 25.58 137.15 46.69 131.2 91.72 116.73 100.21 49.89 48.84"/>
    <polygon class="cls-17" points="106.62 126.37 115.94 153.34 101.76 172.94 81.39 153.34 76.94 137.98 106.62 126.37"/>
    <path class="cls-16" d="M44.4,147.58c-11.19,24.3-33.17,70.92-33.17,70.92l154.63-1.75-18.54-68.11-33.05-.14-12.64,9.22,.13,13.92-4.02-13.38-18.02-10.67"/>
    <path class="cls-13" d="M123.18,71.29l.11,43.14c0,2.99-1.57,5.76-4.15,7.27l-36.45,21.42c-2.25,1.32-5.09,1.14-7.15-.47l-23.23-18.17c-2.63-2.05-4.13-5.22-4.06-8.55l.67-44.35,32.28-19.51,41.98,19.22Z"/>
    <path class="cls-14" d="M94.59,57.31c-15.73,9.05-45.7,27.13-45.7,27.13l.08-35.61s24.09,.24,34.42-.13c3.72,3.22,7.48,5.39,11.2,8.61Z"/>
    <path class="cls-3" d="M74.84,82.51l.79,27.42-8.34,.16s-2.1-19.78,7.56-27.58Z"/>
    <path class="cls-2" d="M122.87,110.66c-2.06-.37-6.28-.85-11.13,.81-1.9,.65-7.79,2.76-11.4,9.01-3.46,5.99-2.59,11.91-2.28,13.59"/>
    <g>
      <polygon class="cls-17" points="123.1 90.94 133.56 87.24 134.66 104.42 123.1 106.73 123.1 90.94"/>
      <path class="cls-8" d="M123.29,99.58c1.58-2,3.17-4,4.75-6,.89-.37,1.78-.74,2.67-1.12"/>
    </g>
    <path class="cls-2" d="M64.05,133.65c.17-1.46,1.2-11.21-4.1-17.81-4.2-5.22-9.67-6.76-11.47-7.18"/>
    <path class="cls-12" d="M68.29,48.45s37.32,29.63,56,45.43c-.51-14.57-1.57-45.85-1.57-45.85l-54.43,.42Z"/>
    <path class="cls-14" d="M87.94,98.24c4.46,3.41,9.92,1.89,14.14-1.15,1.08-.84,3.23-.9,3.96,.5-1.86,.02-2.59,.56-4.12,1.59-1.4,.95-3,1.81-4.73,2.24-1.71,.43-3.57,.51-5.31,.06-1.74-.46-3.32-1.33-4.52-2.68-.15-.16-.13-.42,.03-.56,.16-.14,.39-.13,.55,.01h0Z"/>
    <path class="cls-15" d="M131.98,87.06c1.77,.68,3.84,1.69,5.95,3.21,5.64,4.05,8.31,9.34,9.48,12.2-2.22,1.4-4.45,2.81-6.67,4.21-.25-2.87-1.02-7.36-3.51-12.2-1.68-3.26-3.64-5.7-5.25-7.42Z"/>
    <path class="cls-15" d="M131.81,86.75c1.22-.38,2.72-.72,4.47-.81,4.66-.24,8.28,1.43,10.09,2.44-.58,1.67-1.16,3.34-1.74,5.01-1.34-1.41-3.61-3.44-6.95-4.94-2.24-1.01-4.3-1.48-5.86-1.7Z"/>
    <path class="cls-20" d="M81.18,125.34c.73,.78,.42,2.04-.59,2.41-.68,.25-1.47,.47-2.35,.59-2.32,.32-4.32-.15-5.76-.7-1.02-.39-1.26-1.72-.46-2.46,1.25-1.16,8.06-1.03,9.17,.16Z"/>
    <polygon class="cls-12" points="86.59 81.32 112.83 83.11 112.91 79.64 92.41 75.62 86.59 81.32"/>
    <polygon class="cls-12" points="67.26 81.03 40.96 81.11 41.1 77.64 61.82 74.96 67.26 81.03"/>
    <g>
      <polygon class="cls-13" points="105.62 210.59 106.35 192.71 105.49 149.66 139.7 151.17 129.71 194.86 132.26 210.89 105.62 210.59"/>
      <polygon class="cls-21" points="108.61 192.14 99.65 183.69 94.68 164.18 100.72 163.19 103.99 175.21 108.83 180.65 108.61 192.14"/>
      <line class="cls-6" x1="111.33" y1="153.75" x2="111.91" y2="171.39"/>
      <line class="cls-6" x1="119.35" y1="172.93" x2="121.25" y2="152.21"/>
      <line class="cls-6" x1="127.1" y1="176.13" x2="131.48" y2="155.78"/>
      <path class="cls-6" d="M108.02,172.37s5.29-.65,12.28,1.13c6.99,1.78,11.18,4.83,11.18,4.83"/>
    </g>
    <g>
      <polygon class="cls-13" points="72.81 212.48 72.08 194.6 72.94 151.54 38.73 153.06 48.72 196.75 46.17 212.78 72.81 212.48"/>
      <polygon class="cls-21" points="69.82 194.03 78.77 185.58 83.74 166.07 77.71 165.07 74.44 177.1 69.59 182.54 69.82 194.03"/>
      <line class="cls-6" x1="67.09" y1="155.64" x2="66.51" y2="173.28"/>
      <line class="cls-6" x1="59.08" y1="174.82" x2="57.18" y2="154.1"/>
      <line class="cls-6" x1="51.33" y1="178.01" x2="46.94" y2="157.67"/>
      <path class="cls-6" d="M70.41,174.26s-5.29-.65-12.28,1.13-11.18,4.83-11.18,4.83"/>
    </g>
    <path class="cls-1" d="M12.93,51.17c.12-.92,.45-1.71,.98-2.37,.53-.66,1.21-1.13,2.05-1.42,.71-.25,1.39-.32,2.03-.22,.64,.1,1.19,.34,1.64,.71l-.5-1.43,3.1-1.08,3.52,10.12-3.1,1.08-.5-1.43c-.14,.58-.43,1.1-.86,1.58s-1.01,.84-1.73,1.09c-.82,.29-1.65,.33-2.47,.14-.83-.19-1.57-.62-2.24-1.27-.67-.66-1.18-1.5-1.54-2.54-.36-1.04-.48-2.02-.36-2.94Zm6.67-1.28c-.58-.3-1.19-.34-1.8-.13-.62,.21-1.06,.62-1.34,1.21-.28,.59-.28,1.27,0,2.05,.27,.77,.7,1.31,1.28,1.62s1.19,.35,1.81,.13c.62-.21,1.06-.62,1.34-1.22,.27-.6,.28-1.28,0-2.06-.27-.77-.7-1.31-1.28-1.61Z"/>
    <path class="cls-1" d="M20.54,20.05c-.66-.35-1.17-.85-1.54-1.5s-.56-1.41-.56-2.28,.19-1.62,.57-2.27c.38-.65,.9-1.16,1.56-1.51s1.4-.53,2.22-.53,1.56,.18,2.22,.53,1.18,.85,1.56,1.51c.38,.66,.57,1.41,.57,2.27s-.19,1.62-.58,2.27c-.39,.66-.91,1.16-1.58,1.51s-1.41,.52-2.23,.52-1.56-.17-2.21-.52Zm3.46-2.24c.35-.36,.52-.88,.52-1.54s-.17-1.19-.5-1.54c-.34-.36-.75-.54-1.24-.54s-.91,.18-1.24,.53-.5,.87-.5,1.55,.16,1.19,.49,1.54c.33,.36,.73,.54,1.22,.54s.91-.18,1.25-.54Z"/>
    <path class="cls-1" d="M54.33,27.18c-.22-.45-.31-.91-.28-1.37l-.69,.96-2.08-1.5,4.88-6.78c.45-.62,.98-1.1,1.59-1.43,.61-.33,1.28-.46,2-.39,.72,.07,1.46,.37,2.22,.91,1.01,.72,1.65,1.55,1.93,2.47,.28,.92,.18,1.83-.32,2.7l-2.06-1.48c.12-.31,.11-.62-.02-.95s-.38-.62-.74-.87c-.43-.31-.86-.43-1.29-.37-.43,.06-.85,.37-1.24,.91l-.69,.96c.43-.17,.9-.23,1.4-.17s.99,.26,1.47,.61c.56,.4,.96,.91,1.21,1.53,.25,.62,.31,1.29,.19,2.01-.12,.72-.43,1.43-.93,2.13-.5,.7-1.08,1.22-1.72,1.55s-1.3,.48-1.96,.44-1.27-.27-1.83-.67c-.48-.34-.83-.75-1.05-1.2Zm1.02-2.26c.07,.51,.31,.91,.73,1.21,.41,.3,.87,.4,1.37,.31,.5-.09,.94-.39,1.31-.91,.38-.52,.53-1.03,.46-1.55s-.31-.92-.72-1.21c-.41-.3-.87-.4-1.38-.31-.5,.09-.94,.4-1.32,.92-.37,.52-.52,1.03-.45,1.54Z"/>
    <path class="cls-1" d="M14.47,84.77l-1.74,1.77,7.99,7.88-3.24,3.28-7.99-7.88-1.17,1.19-2.73-2.69,1.17-1.19-.31-.3c-1.32-1.3-1.95-2.67-1.89-4.1,.06-1.43,.81-2.88,2.25-4.33,.24-.24,.42-.42,.55-.52l2.78,2.75c-.66,.59-1,1.12-1.04,1.59-.04,.47,.23,.98,.79,1.54l.1,.09,1.74-1.77,2.73,2.69Z"/>
    <path class="cls-1" d="M17.1,114.41c-.3-.66-.42-1.32-.34-1.97,.08-.65,.33-1.25,.76-1.79,.34-.43,.75-.75,1.21-.96,.46-.21,.93-.3,1.4-.26l-3.03-2.43,1.6-2,8.66,6.94-1.6,2-.94-.75c.16,.44,.2,.91,.11,1.4s-.32,.98-.69,1.44c-.43,.54-.96,.92-1.59,1.13-.63,.22-1.3,.25-2.01,.09-.71-.16-1.41-.5-2.08-1.04s-1.16-1.14-1.46-1.8Zm3.88-3.62c-.51,.05-.92,.27-1.24,.67-.32,.4-.45,.85-.39,1.36,.06,.5,.34,.96,.84,1.36,.5,.4,1.01,.58,1.52,.54s.93-.26,1.25-.66c.32-.4,.44-.85,.38-1.36-.07-.51-.35-.96-.85-1.36-.5-.4-1-.58-1.52-.53Z"/>
    <path class="cls-10" d="M26.11,46.44c.59-.66,2.31-2.42,5.19-3.08,3.29-.75,5.91,.44,6.65,.81-2.67-3.6-7.33-8.92-14.59-13.29C12.67,24.44,2.35,23.64-2.59,23.58"/>
    <path class="cls-10" d="M37.28,48.56c-.89,.24-3.21,1-4.86,3.24-.68,.92-1.06,1.84-1.27,2.55"/>
    <path class="cls-10" d="M29.75,20.81c2.31,.92,7.75,3.46,11.74,9.21,2.69,3.87,3.62,7.62,3.99,9.88"/>
    <path class="cls-10" d="M54.44,32.46c-.56,1.42-1.1,3.26-1.27,5.41-.13,1.6-.04,3.02,.14,4.22"/>
    <path class="cls-10" d="M17.27,86.22c1.15-2,4.11-6.53,9.88-9.61,4.76-2.55,9.19-2.91,11.48-2.94"/>
    <path class="cls-4" d="M36.71,96.41c-2.05,.85-4.57,2.14-7.19,4.1-1.71,1.28-3.13,2.59-4.29,3.8"/>
    <g>
      <path class="cls-12" d="M68.41,48.6s37.21,29.54,55.84,45.3c-.46-11.23-.85-22.56-1.16-33.99-.11-4.15-.22-8.28-.31-12.4-18.12,.36-36.24,.73-54.37,1.09Z"/>
      <line class="cls-9" x1="136.48" y1="47.18" x2="49.55" y2="49.26"/>
      <line class="cls-5" x1="106.43" y1="44.65" x2="123.24" y2="92.08"/>
      <line class="cls-5" x1="86.22" y1="46.74" x2="122.97" y2="91.32"/>
    </g>
    <path class="cls-15" d="M43.22,86.14c25.02-.26,75.07-.77,75.07-.77,0,0,11.67-.47,13.51,1.74-8.43,1.4-8.55,15.46-8.55,15.46,0,0-58.39,5.09-80.81,3.25,.26-6.56,.52-13.12,.78-19.68Z"/>
  </g>
  <g>
    <path class="cls-1" d="M17.88,228.27h-3.78l-.56,1.71h-3.73l4.14-11.33h4.1l4.13,11.33h-3.74l-.56-1.71Zm-.86-2.67l-1.02-3.15-1.02,3.15h2.05Z"/>
    <path class="cls-1" d="M28.3,221.21c.42-.24,.92-.36,1.51-.36,.7,0,1.34,.18,1.9,.55,.56,.37,1.01,.9,1.34,1.6,.33,.7,.49,1.52,.49,2.47s-.16,1.77-.49,2.47c-.33,.7-.77,1.23-1.34,1.6-.57,.37-1.2,.55-1.9,.55-.59,0-1.09-.12-1.51-.36-.42-.24-.74-.57-.97-.98v1.23h-3.55v-11.84h3.55v4.05c.22-.42,.55-.74,.97-.98Zm1.27,3.14c-.25-.27-.56-.4-.94-.4s-.7,.13-.94,.4-.37,.64-.37,1.12,.12,.85,.37,1.12,.56,.4,.94,.4,.7-.13,.94-.4,.37-.64,.37-1.12-.12-.85-.37-1.12Z"/>
    <path class="cls-1" d="M35.47,223c.33-.7,.77-1.23,1.34-1.6s1.2-.55,1.9-.55c.59,0,1.09,.12,1.52,.36,.43,.24,.75,.57,.98,.98v-1.23h3.54v9.02h-3.54v-1.23c-.22,.42-.55,.74-.98,.98-.43,.24-.93,.36-1.52,.36-.7,0-1.34-.18-1.9-.55-.57-.37-1.01-.9-1.34-1.6-.33-.7-.49-1.52-.49-2.47s.16-1.77,.49-2.47Zm5.37,1.35c-.25-.27-.56-.4-.94-.4s-.7,.13-.94,.4-.37,.64-.37,1.12,.12,.85,.37,1.12,.56,.4,.94,.4,.7-.13,.94-.4,.37-.64,.37-1.12-.12-.85-.37-1.12Z"/>
    <path class="cls-1" d="M47.45,219.74c-.37-.33-.56-.75-.56-1.25s.19-.94,.56-1.27c.37-.34,.87-.5,1.49-.5s1.1,.17,1.47,.5c.37,.34,.56,.76,.56,1.27s-.19,.92-.56,1.25c-.37,.33-.86,.5-1.47,.5s-1.11-.17-1.49-.5Zm3.25,1.22v9.02h-3.55v-9.02h3.55Z"/>
    <path class="cls-1" d="M58.87,229.98l-2.22-3.6v3.6h-3.55v-11.84h3.55v6.19l2.26-3.38h4.13l-3.38,4.54,3.46,4.48h-4.24Z"/>
    <path class="cls-1" d="M64.72,223c.33-.7,.77-1.23,1.34-1.6s1.2-.55,1.9-.55c.59,0,1.09,.12,1.52,.36,.43,.24,.75,.57,.98,.98v-1.23h3.54v9.02h-3.54v-1.23c-.22,.42-.55,.74-.98,.98-.43,.24-.93,.36-1.52,.36-.7,0-1.34-.18-1.9-.55-.57-.37-1.01-.9-1.34-1.6-.33-.7-.49-1.52-.49-2.47s.16-1.77,.49-2.47Zm5.37,1.35c-.25-.27-.56-.4-.94-.4s-.7,.13-.94,.4-.37,.64-.37,1.12,.12,.85,.37,1.12,.56,.4,.94,.4,.7-.13,.94-.4,.37-.64,.37-1.12-.12-.85-.37-1.12Z"/>
    <path class="cls-1" d="M85.13,221.93c.58,.69,.87,1.63,.87,2.82v5.23h-3.54v-4.78c0-.43-.11-.76-.34-1.02s-.54-.38-.92-.38-.7,.12-.93,.38c-.22,.25-.34,.59-.34,1.02v4.78h-3.55v-9.02h3.55v1.38c.28-.43,.65-.77,1.11-1.04,.46-.27,1.02-.4,1.66-.4,1.03,0,1.84,.35,2.42,1.04Z"/>
    <path class="cls-1" d="M93.61,229.68c-.66-.28-1.18-.66-1.56-1.15-.38-.49-.6-1.04-.66-1.66h3.41c.04,.27,.16,.46,.34,.59s.42,.19,.71,.19c.18,0,.33-.04,.43-.12,.11-.08,.16-.18,.16-.3,0-.2-.11-.35-.34-.43-.22-.09-.6-.18-1.14-.29-.65-.13-1.19-.27-1.61-.42-.42-.15-.79-.41-1.1-.77-.31-.36-.47-.86-.47-1.5,0-.55,.15-1.06,.44-1.51,.29-.45,.73-.81,1.3-1.07,.58-.26,1.27-.39,2.1-.39,1.22,0,2.17,.3,2.86,.9,.69,.6,1.1,1.38,1.24,2.34h-3.15c-.05-.25-.17-.43-.34-.57-.17-.13-.4-.2-.69-.2-.18,0-.32,.03-.42,.1-.1,.07-.14,.17-.14,.31,0,.18,.11,.32,.34,.41,.22,.09,.58,.18,1.07,.28,.65,.13,1.2,.27,1.65,.43s.84,.43,1.17,.82c.33,.39,.5,.92,.5,1.61,0,.53-.16,1.01-.46,1.44-.31,.43-.75,.76-1.34,1.01-.58,.25-1.26,.37-2.04,.37-.85,0-1.61-.14-2.26-.42Z"/>
    <path class="cls-1" d="M101.93,223c.33-.7,.77-1.23,1.34-1.6s1.2-.55,1.9-.55c.59,0,1.09,.12,1.52,.36,.43,.24,.75,.57,.98,.98v-1.23h3.54v9.02h-3.54v-1.23c-.22,.42-.55,.74-.98,.98-.43,.24-.93,.36-1.52,.36-.7,0-1.34-.18-1.9-.55-.57-.37-1.01-.9-1.34-1.6-.33-.7-.49-1.52-.49-2.47s.16-1.77,.49-2.47Zm5.37,1.35c-.25-.27-.56-.4-.94-.4s-.7,.13-.94,.4-.37,.64-.37,1.12,.12,.85,.37,1.12,.56,.4,.94,.4,.7-.13,.94-.4,.37-.64,.37-1.12-.12-.85-.37-1.12Z"/>
    <path class="cls-1" d="M117.16,230.61c0,2.46-1.24,3.7-3.71,3.7h-1.18v-3.02h.69c.24,0,.4-.05,.5-.14,.1-.1,.15-.25,.15-.46v-9.71h3.55v9.65Zm-3.28-10.86c-.37-.33-.56-.75-.56-1.25s.19-.94,.56-1.27c.37-.34,.87-.5,1.49-.5s1.1,.17,1.47,.5c.37,.34,.56,.76,.56,1.27s-.19,.92-.56,1.25c-.37,.33-.86,.5-1.47,.5s-1.11-.17-1.49-.5Z"/>
    <path class="cls-1" d="M119.53,223c.33-.7,.77-1.23,1.34-1.6s1.2-.55,1.9-.55c.59,0,1.09,.12,1.52,.36,.43,.24,.75,.57,.98,.98v-1.23h3.54v9.02h-3.54v-1.23c-.22,.42-.55,.74-.98,.98-.43,.24-.93,.36-1.52,.36-.7,0-1.34-.18-1.9-.55-.57-.37-1.01-.9-1.34-1.6-.33-.7-.49-1.52-.49-2.47s.16-1.77,.49-2.47Zm5.37,1.35c-.25-.27-.56-.4-.94-.4s-.7,.13-.94,.4-.37,.64-.37,1.12,.12,.85,.37,1.12,.56,.4,.94,.4,.7-.13,.94-.4,.37-.64,.37-1.12-.12-.85-.37-1.12Z"/>
    <path class="cls-1" d="M134.76,218.14v11.84h-3.55v-11.84h3.55Z"/>
    <path class="cls-1" d="M137.17,223c.33-.7,.77-1.23,1.34-1.6s1.2-.55,1.9-.55c.59,0,1.09,.12,1.52,.36,.43,.24,.75,.57,.98,.98v-1.23h3.54v9.02h-3.54v-1.23c-.22,.42-.55,.74-.98,.98-.43,.24-.93,.36-1.52,.36-.7,0-1.34-.18-1.9-.55-.57-.37-1.01-.9-1.34-1.6-.33-.7-.49-1.52-.49-2.47s.16-1.77,.49-2.47Zm5.37,1.35c-.25-.27-.56-.4-.94-.4s-.7,.13-.94,.4-.37,.64-.37,1.12,.12,.85,.37,1.12,.56,.4,.94,.4,.7-.13,.94-.4,.37-.64,.37-1.12-.12-.85-.37-1.12Z"/>
    <path class="cls-1" d="M157.58,221.93c.58,.69,.87,1.63,.87,2.82v5.23h-3.54v-4.78c0-.43-.11-.76-.34-1.02s-.54-.38-.92-.38-.7,.12-.93,.38c-.22,.25-.34,.59-.34,1.02v4.78h-3.55v-11.84h3.55v4.19c.28-.43,.65-.77,1.11-1.04,.46-.27,1.02-.4,1.66-.4,1.03,0,1.84,.35,2.42,1.04Z"/>
    <path class="cls-1" d="M162.15,229.61c-.37-.33-.56-.75-.56-1.25s.19-.94,.56-1.27c.37-.34,.87-.5,1.49-.5s1.1,.17,1.47,.5c.37,.34,.56,.76,.56,1.27s-.19,.92-.56,1.25c-.37,.33-.86,.5-1.47,.5s-1.12-.17-1.49-.5Zm3.42-11.71l-.42,7.58h-3.04l-.42-7.58h3.87Z"/>
  </g>
</svg>