<?xml version="1.0" encoding="UTF-8"?>
<svg id="Layer_2" data-name="Layer 2" xmlns="http://www.w3.org/2000/svg" xmlns:xlink="http://www.w3.org/1999/xlink" viewBox="0 0 173.34 246.49">
  <defs>
    <style>
      .cls-1 {
        fill: #fff;
      }

      .cls-2, .cls-3, .cls-4, .cls-5, .cls-6, .cls-7, .cls-8, .cls-9, .cls-10 {
        stroke-linejoin: round;
      }

      .cls-2, .cls-3, .cls-6 {
        stroke-linecap: round;
      }

      .cls-2, .cls-3, .cls-6, .cls-8 {
        stroke: #f80500;
      }

      .cls-2, .cls-4, .cls-5, .cls-6, .cls-11, .cls-7, .cls-8, .cls-9, .cls-10 {
        fill: none;
      }

      .cls-2, .cls-8 {
        stroke-width: .82px;
      }

      .cls-12 {
        fill: #181216;
      }

      .cls-13 {
        fill: #ef9d7f;
      }

      .cls-14 {
        fill: #363636;
      }

      .cls-15 {
        fill: #eeb2ff;
      }

      .cls-3 {
        stroke-width: .87px;
      }

      .cls-3, .cls-16 {
        fill: #f55;
      }

      .cls-17 {
        fill: #e58e73;
      }

      .cls-4 {
        stroke-width: .88px;
      }

      .cls-4, .cls-5, .cls-7, .cls-8, .cls-9, .cls-10 {
        stroke-linecap: square;
      }

      .cls-4, .cls-10 {
        stroke: #fff;
      }

      .cls-18 {
        fill: #307f46;
      }

      .cls-5 {
        stroke: #363636;
      }

      .cls-5, .cls-9 {
        stroke-width: .82px;
      }

      .cls-6 {
        stroke-width: .8px;
      }

      .cls-19 {
        clip-path: url(#clippath);
      }

      .cls-7 {
        stroke-width: .81px;
      }

      .cls-7, .cls-9 {
        stroke: #181216;
      }

      .cls-20 {
        fill: #b72c2c;
      }

      .cls-21 {
        fill: #e27c5d;
      }

      .cls-22 {
        fill: #f7a22d;
      }
    </style>
    <clipPath id="clippath">
      <rect class="cls-11" x="5.75" y="7.23" width="160.53" height="198.84" rx="14.3" ry="14.3"/>
    </clipPath>
  </defs>
  <rect class="cls-22" width="173.34" height="246.49" rx="13.2" ry="13.2"/>
  <rect class="cls-18" x="5.75" y="7.23" width="160.53" height="198.84" rx="14.3" ry="14.3"/>
  <g class="cls-19">
    <g>
      <polygon class="cls-14" points="133.98 98.96 147.4 104.96 138.59 126.18 119.39 118.87 121.1 98.96 133.98 98.96"/>
      <polyline class="cls-7" points="134.67 124.26 136.88 114.04 121.68 106.2"/>
      <polyline class="cls-7" points="131.34 104.07 140.78 112.56 136.88 125.18"/>
    </g>
    <path class="cls-22" d="M59.51,44.92c-1.2,.34-3.57,.83-6.47,.24-3.22-.65-5.37-2.29-6.31-3.12-.15,.5-.73,2.14-2.44,3.3-1.88,1.28-3.83,1.07-4.31,1.01,.08,.18,1.91,4.48-.72,8.04-1.76,2.39-4.4,2.91-5.03,3.02,.75,.52,6.43,4.57,6.85,11.77,.27,4.58-1.73,7.97-2.54,9.19,1.01-.9,4.14-3.44,8.47-3.3,1.23,.04,2.29,.28,3.16,.57,3.11-10.24,6.22-20.49,9.33-30.73Z"/>
    <polygon class="cls-14" points="49.41 48.84 82.54 25.58 136.67 46.69 130.71 91.72 116.24 100.21 49.41 48.84"/>
    <polygon class="cls-17" points="106.13 126.37 115.45 153.34 101.27 172.94 80.9 153.34 76.45 137.98 106.13 126.37"/>
    <path class="cls-16" d="M43.91,147.58c-11.19,24.3-33.17,70.92-33.17,70.92l154.63-1.75-18.54-68.11-33.05-.14-12.64,9.22,.13,13.92-4.02-13.38-18.02-10.67"/>
    <path class="cls-13" d="M122.69,71.29l.11,43.14c0,2.99-1.57,5.76-4.15,7.27l-36.45,21.42c-2.25,1.32-5.09,1.14-7.15-.47l-23.23-18.17c-2.63-2.05-4.13-5.22-4.06-8.55l.67-44.35,32.28-19.51,41.98,19.22Z"/>
    <path class="cls-14" d="M94.1,57.31c-15.73,9.05-45.7,27.13-45.7,27.13l.08-35.61s24.09,.24,34.42-.13c3.72,3.22,7.48,5.39,11.2,8.61Z"/>
    <path class="cls-3" d="M74.35,82.51l.79,27.42-8.34,.16s-2.1-19.78,7.56-27.58Z"/>
    <path class="cls-2" d="M122.38,110.66c-2.06-.37-6.28-.85-11.13,.81-1.9,.65-7.79,2.76-11.4,9.01-3.46,5.99-2.59,11.91-2.28,13.59"/>
    <g>
      <polygon class="cls-17" points="122.61 90.94 133.07 87.24 134.17 104.42 122.61 106.73 122.61 90.94"/>
      <path class="cls-8" d="M122.8,99.58c1.58-2,3.17-4,4.75-6,.89-.37,1.78-.74,2.67-1.12"/>
    </g>
    <path class="cls-2" d="M63.56,133.65c.17-1.46,1.2-11.21-4.1-17.81-4.2-5.22-9.67-6.76-11.47-7.18"/>
    <path class="cls-12" d="M67.8,48.45s37.32,29.63,56,45.43c-.51-14.57-1.57-45.85-1.57-45.85l-54.43,.42Z"/>
    <path class="cls-14" d="M87.45,98.24c4.46,3.41,9.92,1.89,14.14-1.15,1.08-.84,3.23-.9,3.96,.5-1.86,.02-2.59,.56-4.12,1.59-1.4,.95-3,1.81-4.73,2.24-1.71,.43-3.57,.51-5.31,.06-1.74-.46-3.32-1.33-4.52-2.68-.15-.16-.13-.42,.03-.56,.16-.14,.39-.13,.55,.01h0Z"/>
    <path class="cls-15" d="M131.5,87.06c1.77,.68,3.84,1.69,5.95,3.21,5.64,4.05,8.31,9.34,9.48,12.2-2.22,1.4-4.45,2.81-6.67,4.21-.25-2.87-1.02-7.36-3.51-12.2-1.68-3.26-3.64-5.7-5.25-7.42Z"/>
    <path class="cls-15" d="M131.32,86.75c1.22-.38,2.72-.72,4.47-.81,4.66-.24,8.28,1.43,10.09,2.44-.58,1.67-1.16,3.34-1.74,5.01-1.34-1.41-3.61-3.44-6.95-4.94-2.24-1.01-4.3-1.48-5.86-1.7Z"/>
    <path class="cls-20" d="M80.69,125.34c.73,.78,.42,2.04-.59,2.41-.68,.25-1.47,.47-2.35,.59-2.32,.32-4.32-.15-5.76-.7-1.02-.39-1.26-1.72-.46-2.46,1.25-1.16,8.06-1.03,9.17,.16Z"/>
    <polygon class="cls-12" points="86.1 81.32 112.34 83.11 112.43 79.64 91.92 75.62 86.1 81.32"/>
    <polygon class="cls-12" points="66.77 81.03 40.47 81.11 40.61 77.64 61.33 74.96 66.77 81.03"/>
    <g>
      <polygon class="cls-13" points="105.13 210.59 105.86 192.71 105 149.66 139.21 151.17 129.22 194.86 131.77 210.89 105.13 210.59"/>
      <polygon class="cls-21" points="108.12 192.14 99.17 183.69 94.19 164.18 100.23 163.19 103.5 175.21 108.35 180.65 108.12 192.14"/>
      <line class="cls-6" x1="110.85" y1="153.75" x2="111.43" y2="171.39"/>
      <line class="cls-6" x1="118.86" y1="172.93" x2="120.76" y2="152.21"/>
      <line class="cls-6" x1="126.61" y1="176.13" x2="130.99" y2="155.78"/>
      <path class="cls-6" d="M107.53,172.37s5.29-.65,12.28,1.13c6.99,1.78,11.18,4.83,11.18,4.83"/>
    </g>
    <g>
      <polygon class="cls-13" points="72.32 212.48 71.59 194.6 72.45 151.54 38.24 153.06 48.23 196.75 45.68 212.78 72.32 212.48"/>
      <polygon class="cls-21" points="69.33 194.03 78.28 185.58 83.26 166.07 77.22 165.07 73.95 177.1 69.1 182.54 69.33 194.03"/>
      <line class="cls-6" x1="66.6" y1="155.64" x2="66.02" y2="173.28"/>
      <line class="cls-6" x1="58.59" y1="174.82" x2="56.69" y2="154.1"/>
      <line class="cls-6" x1="50.84" y1="178.01" x2="46.46" y2="157.67"/>
      <path class="cls-6" d="M69.92,174.26s-5.29-.65-12.28,1.13-11.18,4.83-11.18,4.83"/>
    </g>
    <path class="cls-1" d="M12.44,51.17c.12-.92,.45-1.71,.98-2.37,.53-.66,1.21-1.13,2.05-1.42,.71-.25,1.39-.32,2.03-.22,.64,.1,1.19,.34,1.64,.71l-.5-1.43,3.1-1.08,3.52,10.12-3.1,1.08-.5-1.43c-.14,.58-.43,1.1-.86,1.58s-1.01,.84-1.73,1.09c-.82,.29-1.65,.33-2.47,.14-.83-.19-1.57-.62-2.24-1.27-.67-.66-1.18-1.5-1.54-2.54-.36-1.04-.48-2.02-.36-2.94Zm6.67-1.28c-.58-.3-1.19-.34-1.8-.13-.62,.21-1.06,.62-1.34,1.21-.28,.59-.28,1.27,0,2.05,.27,.77,.7,1.31,1.28,1.62s1.19,.35,1.81,.13c.62-.21,1.06-.62,1.34-1.22,.27-.6,.28-1.28,0-2.06-.27-.77-.7-1.31-1.28-1.61Z"/>
    <path class="cls-1" d="M20.06,20.05c-.66-.35-1.17-.85-1.54-1.5s-.56-1.41-.56-2.28,.19-1.62,.57-2.27c.38-.65,.9-1.16,1.56-1.51s1.4-.53,2.22-.53,1.56,.18,2.22,.53,1.18,.85,1.56,1.51c.38,.66,.57,1.41,.57,2.27s-.19,1.62-.58,2.27c-.39,.66-.91,1.16-1.58,1.51s-1.41,.52-2.23,.52-1.56-.17-2.21-.52Zm3.46-2.24c.35-.36,.52-.88,.52-1.54s-.17-1.19-.5-1.54c-.34-.36-.75-.54-1.24-.54s-.91,.18-1.24,.53-.5,.87-.5,1.55,.16,1.19,.49,1.54c.33,.36,.73,.54,1.22,.54s.91-.18,1.25-.54Z"/>
    <path class="cls-1" d="M53.84,27.18c-.22-.45-.31-.91-.28-1.37l-.69,.96-2.08-1.5,4.88-6.78c.45-.62,.98-1.1,1.59-1.43,.61-.33,1.28-.46,2-.39,.72,.07,1.46,.37,2.22,.91,1.01,.72,1.65,1.55,1.93,2.47,.28,.92,.18,1.83-.32,2.7l-2.06-1.48c.12-.31,.11-.62-.02-.95s-.38-.62-.74-.87c-.43-.31-.86-.43-1.29-.37-.43,.06-.85,.37-1.24,.91l-.69,.96c.43-.17,.9-.23,1.4-.17s.99,.26,1.47,.61c.56,.4,.96,.91,1.21,1.53,.25,.62,.31,1.29,.19,2.01-.12,.72-.43,1.43-.93,2.13-.5,.7-1.08,1.22-1.72,1.55s-1.3,.48-1.96,.44-1.27-.27-1.83-.67c-.48-.34-.83-.75-1.05-1.2Zm1.02-2.26c.07,.51,.31,.91,.73,1.21,.41,.3,.87,.4,1.37,.31,.5-.09,.94-.39,1.31-.91,.38-.52,.53-1.03,.46-1.55s-.31-.92-.72-1.21c-.41-.3-.87-.4-1.38-.31-.5,.09-.94,.4-1.32,.92-.37,.52-.52,1.03-.45,1.54Z"/>
    <path class="cls-1" d="M13.98,84.77l-1.74,1.77,7.99,7.88-3.24,3.28-7.99-7.88-1.17,1.19-2.73-2.69,1.17-1.19-.31-.3c-1.32-1.3-1.95-2.67-1.89-4.1,.06-1.43,.81-2.88,2.25-4.33,.24-.24,.42-.42,.55-.52l2.78,2.75c-.66,.59-1,1.12-1.04,1.59-.04,.47,.23,.98,.79,1.54l.1,.09,1.74-1.77,2.73,2.69Z"/>
    <path class="cls-1" d="M16.61,114.41c-.3-.66-.42-1.32-.34-1.97,.08-.65,.33-1.25,.76-1.79,.34-.43,.75-.75,1.21-.96,.46-.21,.93-.3,1.4-.26l-3.03-2.43,1.6-2,8.66,6.94-1.6,2-.94-.75c.16,.44,.2,.91,.11,1.4s-.32,.98-.69,1.44c-.43,.54-.96,.92-1.59,1.13-.63,.22-1.3,.25-2.01,.09-.71-.16-1.41-.5-2.08-1.04s-1.16-1.14-1.46-1.8Zm3.88-3.62c-.51,.05-.92,.27-1.24,.67-.32,.4-.45,.85-.39,1.36,.06,.5,.34,.96,.84,1.36,.5,.4,1.01,.58,1.52,.54s.93-.26,1.25-.66c.32-.4,.44-.85,.38-1.36-.07-.51-.35-.96-.85-1.36-.5-.4-1-.58-1.52-.53Z"/>
    <path class="cls-10" d="M25.62,46.44c.59-.66,2.31-2.42,5.19-3.08,3.29-.75,5.91,.44,6.65,.81-2.67-3.6-7.33-8.92-14.59-13.29C12.19,24.44,1.86,23.64-3.07,23.58"/>
    <path class="cls-10" d="M36.79,48.56c-.89,.24-3.21,1-4.86,3.24-.68,.92-1.06,1.84-1.27,2.55"/>
    <path class="cls-10" d="M29.26,20.81c2.31,.92,7.75,3.46,11.74,9.21,2.69,3.87,3.62,7.62,3.99,9.88"/>
    <path class="cls-10" d="M53.95,32.46c-.56,1.42-1.1,3.26-1.27,5.41-.13,1.6-.04,3.02,.14,4.22"/>
    <path class="cls-10" d="M16.78,86.22c1.15-2,4.11-6.53,9.88-9.61,4.76-2.55,9.19-2.91,11.48-2.94"/>
    <path class="cls-4" d="M36.22,96.41c-2.05,.85-4.57,2.14-7.19,4.1-1.71,1.28-3.13,2.59-4.29,3.8"/>
    <g>
      <path class="cls-12" d="M67.92,48.6s37.21,29.54,55.84,45.3c-.46-11.23-.85-22.56-1.16-33.99-.11-4.15-.22-8.28-.31-12.4-18.12,.36-36.24,.73-54.37,1.09Z"/>
      <line class="cls-9" x1="135.99" y1="47.18" x2="49.07" y2="49.26"/>
      <line class="cls-5" x1="105.94" y1="44.65" x2="122.75" y2="92.08"/>
      <line class="cls-5" x1="85.73" y1="46.74" x2="122.48" y2="91.32"/>
    </g>
    <path class="cls-15" d="M42.74,86.14c25.02-.26,75.07-.77,75.07-.77,0,0,11.67-.47,13.51,1.74-8.43,1.4-8.55,15.46-8.55,15.46,0,0-58.39,5.09-80.81,3.25,.26-6.56,.52-13.12,.78-19.68Z"/>
  </g>
  <g>
    <path class="cls-1" d="M46.26,228.08v8.81h-4.73l-.78-.46,.48-2.71,.63,.35h.39v-3.17h-1.58c-.28,2.39-.55,4.46-.83,6.21l-3.78-.52,.72-5.69h-.3l-.8-.46,.48-2.73,.63,.37h.35l.15-1.26,3.78,.39-.04,.43c-.03,.2-.04,.35-.04,.43h5.3Zm0-10.16v8.12l-.76,.46h-9.12v-5.23h4.02v2.47h1.87v-3.06h-5.47l-.78-.46,.48-2.67,.61,.37h9.16Zm4.04,1.3v13.8h-3.28v-13.8h3.28Zm.8-1.65h3.89v19.36h-5.93l-.8-.46,.48-2.73,.65,.37h1.71v-16.54Z"/>
    <path class="cls-1" d="M64.01,233.79l.63-.37,.48,2.71-.8,.48h-5.75v-2.82h1.08v-5.1h-.61l-.8-.46,.48-2.73,.63,.37h.3v-5.14h-.61l-.8-.48,.48-2.71,.63,.37h4.71l.63-.37,.48,2.71-.78,.48h-.61v5.14h.28l.63-.37,.48,2.73-.78,.46h-.61v5.1h.24Zm14.41-.09l.48,2.71-.8,.46h-12.18l-.78-.46,.48-2.71,.63,.35h3.62v-1.13h-3.6l-.78-.46,.48-2.73,.63,.37h3.28v-1.22h-4.04v-7.79h3.75v.85h.61v-1.35h-3.91l-.8-.46,.48-2.71,.63,.37h11.42v10.63l-.78,.46h-3.23v1.22h3.28l.63-.37,.48,2.73-.8,.46h-3.58v1.13h3.78l.65-.35Zm-8.83-8.94v1.3h.61v-1.3h-.61Zm4.08-4.17v1.35h.59v-1.35h-.59Zm0,5.47h.59v-1.3h-.59v1.3Z"/>
    <path class="cls-1" d="M93.66,219.07h7.53v4.75l-.8,.46h-3.58v-2.39h-11.07v2.39h-4.38v-5.21h7.53v-1.74h4.78v1.74Zm6.19,15.04l.65-.35,.48,2.71-.8,.46h-16.71v-11.74h4.77v8.92h11.61Zm.43-7.88l.46,3.06-11.68,1.74-.46-3.04,11.68-1.76Z"/>
    <path class="cls-1" d="M109.89,217.99v18.21l-.8,.46h-4.51v-15.3h2.39v12.48h.54v-13.02h-2.26l-.78-.48,.48-2.71,.63,.37h4.32Zm6.16,12.11l-.8,.46h-.41v6.42h-3.84l-.78-.46,.48-2.74,.5,.3v-3.54h-.96v-2.82h.96v-4.56h-.35l-.8-.46,.48-2.73,.63,.37h.04v-2.71h3.65v2.71l.63-.37,.48,2.73-.8,.46h-.3v4.56h.11l.63-.37,.48,2.74Zm7.77,3.58l.48,2.71-.8,.46h-7.16l-.8-.46,.48-2.71,.63,.37h6.53l.65-.37Zm-.54-11.18h-6.4l-.8-.46,.48-2.71,.63,.35h.76v-2.13h4.12v2.13h.89l.65-.35,.48,2.71-.8,.46Zm-6.66,10.79l-.3-9.96,3.28-.11,.3,9.96-3.28,.11Zm3.62-.11l.3-9.96,3.28,.11-.3,9.96-3.28-.11Z"/>
    <path class="cls-1" d="M136.87,232.4c.54,.52,.8,1.16,.8,1.91s-.27,1.39-.8,1.91c-.52,.54-1.16,.8-1.91,.8s-1.39-.27-1.91-.8c-.54-.52-.8-1.16-.8-1.91s.27-1.39,.8-1.91c.52-.54,1.16-.8,1.91-.8s1.39,.27,1.91,.8Zm.48-14.59v12.96h-4.78v-12.96h4.78Z"/>
  </g>
</svg>