<?xml version="1.0" encoding="UTF-8"?>
<svg id="Layer_2" data-name="Layer 2" xmlns="http://www.w3.org/2000/svg" xmlns:xlink="http://www.w3.org/1999/xlink" viewBox="0 0 192.07 273.58">
  <defs>
    <style>
      .cls-1 {
        fill: #fff;
      }

      .cls-2 {
        fill: #181216;
      }

      .cls-3 {
        fill: #ef9d7f;
      }

      .cls-4 {
        fill: #363636;
      }

      .cls-5 {
        fill: #eeb2ff;
      }

      .cls-6 {
        fill: #f55;
      }

      .cls-7 {
        fill: #e58e73;
      }

      .cls-8 {
        fill: #f80500;
      }

      .cls-9 {
        fill: #307f46;
      }

      .cls-10 {
        clip-path: url(#clippath);
      }

      .cls-11 {
        fill: none;
      }

      .cls-12 {
        fill: #b72c2c;
      }

      .cls-13 {
        fill: #e27c5d;
      }

      .cls-14 {
        fill: #f7a22d;
      }
    </style>
    <clipPath id="clippath">
      <rect class="cls-11" x="15.18" y="20.22" width="160.53" height="198.84" rx="14.3" ry="14.3"/>
    </clipPath>
  </defs>
  <rect class="cls-14" x="9.43" y="12.99" width="173.34" height="246.49" rx="13.2" ry="13.2"/>
  <rect class="cls-9" x="15.18" y="20.22" width="160.53" height="198.84" rx="14.3" ry="14.3"/>
  <g>
    <path class="cls-1" d="M29.17,230.42v14.94h-3.48v-14.94h3.48Z"/>
    <path class="cls-1" d="M39.12,233.82c.6,.34,1.07,.79,1.39,1.34v-1.68h3.48v11.85c0,1.09-.21,2.08-.62,2.97-.41,.89-1.04,1.59-1.89,2.12s-1.9,.79-3.16,.79c-1.68,0-3.04-.42-4.09-1.24-1.04-.83-1.64-1.95-1.79-3.37h3.44c.11,.45,.37,.81,.77,1.07,.41,.26,.91,.39,1.5,.39,.72,0,1.29-.22,1.72-.65,.43-.43,.64-1.12,.64-2.07v-1.68c-.34,.55-.81,1-1.4,1.35s-1.29,.52-2.09,.52c-.94,0-1.78-.25-2.54-.75-.76-.5-1.36-1.22-1.8-2.15-.44-.93-.66-2-.66-3.22s.22-2.29,.66-3.21,1.04-1.63,1.8-2.13c.76-.5,1.61-.74,2.54-.74,.8,0,1.5,.17,2.11,.51Zm.67,3.45c-.48-.52-1.07-.79-1.76-.79s-1.28,.26-1.76,.78c-.48,.52-.72,1.23-.72,2.14s.24,1.63,.72,2.16,1.07,.8,1.76,.8,1.28-.26,1.76-.79c.48-.52,.72-1.24,.72-2.15s-.24-1.62-.72-2.15Z"/>
    <path class="cls-1" d="M57.64,234.7c.79,.9,1.19,2.14,1.19,3.71v6.94h-3.46v-6.45c0-.79-.2-1.41-.59-1.85-.39-.44-.92-.66-1.59-.66s-1.19,.22-1.59,.66c-.39,.44-.59,1.06-.59,1.85v6.45h-3.48v-11.87h3.48v1.57c.35-.52,.83-.94,1.42-1.24s1.27-.46,2.01-.46c1.33,0,2.39,.45,3.18,1.35Z"/>
    <path class="cls-1" d="M64.43,244.78c-.89-.5-1.59-1.21-2.1-2.13-.51-.92-.76-2-.76-3.23s.26-2.29,.77-3.22c.51-.93,1.22-1.64,2.12-2.14,.9-.5,1.9-.74,3.01-.74s2.12,.25,3.01,.74c.9,.5,1.6,1.21,2.12,2.14,.51,.93,.77,2,.77,3.22s-.26,2.29-.78,3.22c-.52,.93-1.23,1.64-2.14,2.14-.9,.5-1.91,.74-3.02,.74s-2.11-.25-3-.74Zm4.7-3.17c.47-.51,.7-1.24,.7-2.19s-.23-1.68-.68-2.19c-.46-.51-1.01-.77-1.68-.77s-1.24,.25-1.69,.76c-.45,.5-.67,1.24-.67,2.2s.22,1.68,.66,2.19c.44,.51,.99,.77,1.66,.77s1.23-.26,1.7-.77Z"/>
    <path class="cls-1" d="M81.24,233.92c.61-.38,1.29-.56,2.03-.56v3.85h-.96c-.87,0-1.52,.2-1.95,.58-.43,.39-.65,1.07-.65,2.05v5.51h-3.48v-11.87h3.48v1.98c.41-.65,.92-1.17,1.53-1.54Z"/>
    <path class="cls-1" d="M96.6,240.29h-7.87c.05,.74,.28,1.3,.68,1.69,.4,.39,.89,.58,1.48,.58,.87,0,1.47-.38,1.81-1.15h3.7c-.19,.78-.53,1.48-1.03,2.11-.5,.62-1.12,1.11-1.86,1.47-.75,.35-1.58,.53-2.5,.53-1.11,0-2.1-.25-2.97-.74s-1.55-1.21-2.03-2.13-.73-2-.73-3.23,.24-2.31,.72-3.23,1.16-1.63,2.02-2.13c.87-.5,1.87-.74,2.99-.74s2.07,.24,2.93,.72,1.52,1.17,2,2.06,.72,1.94,.72,3.13c0,.34-.02,.69-.06,1.06Zm-3.5-2.02c0-.62-.2-1.12-.61-1.49-.41-.37-.92-.55-1.53-.55s-1.08,.18-1.47,.53c-.4,.35-.65,.86-.74,1.51h4.35Z"/>
    <path class="cls-1" d="M105.1,231.68c-.39-.38-.58-.84-.58-1.39s.19-1.04,.58-1.42c.39-.38,.88-.56,1.5-.56s1.09,.19,1.47,.56c.39,.38,.58,.85,.58,1.42s-.19,1.02-.58,1.39c-.39,.38-.88,.56-1.47,.56s-1.11-.19-1.5-.56Zm3.22,1.8v11.87h-3.48v-11.87h3.48Z"/>
    <path class="cls-1" d="M118.19,242.27v3.08h-1.77c-1.26,0-2.25-.32-2.95-.97s-1.06-1.7-1.06-3.16v-4.72h-1.38v-3.02h1.38v-2.89h3.48v2.89h2.28v3.02h-2.28v4.77c0,.35,.08,.61,.24,.77,.16,.16,.43,.23,.81,.23h1.24Z"/>
    <path class="cls-1" d="M129.94,229.61v15.74h-3.48v-15.74h3.48Z"/>
    <path class="cls-1" d="M133.45,236.18c.44-.92,1.04-1.63,1.8-2.13,.76-.5,1.61-.74,2.54-.74,.8,0,1.5,.17,2.11,.51,.6,.34,1.07,.79,1.39,1.34v-1.68h3.48v11.87h-3.48v-1.68c-.34,.55-.81,1-1.41,1.34-.6,.34-1.31,.51-2.11,.51-.92,0-1.76-.25-2.52-.75-.76-.5-1.36-1.22-1.8-2.15-.44-.93-.66-2-.66-3.22s.22-2.29,.66-3.21Zm7.12,1.08c-.48-.52-1.07-.79-1.76-.79s-1.28,.26-1.76,.78c-.48,.52-.72,1.23-.72,2.14s.24,1.63,.72,2.16,1.07,.8,1.76,.8,1.28-.26,1.76-.79c.48-.52,.72-1.24,.72-2.15s-.24-1.62-.72-2.15Z"/>
    <path class="cls-1" d="M158.42,234.7c.79,.9,1.18,2.14,1.18,3.71v6.94h-3.46v-6.45c0-.79-.2-1.41-.59-1.85-.39-.44-.92-.66-1.59-.66s-1.19,.22-1.59,.66c-.39,.44-.59,1.06-.59,1.85v6.45h-3.48v-15.74h3.48v5.47c.35-.52,.83-.94,1.44-1.25,.61-.31,1.29-.47,2.05-.47,1.3,0,2.35,.45,3.13,1.35Z"/>
    <path class="cls-1" d="M164.29,244.96c-.39-.38-.58-.84-.58-1.39s.19-1.04,.58-1.43c.39-.38,.88-.57,1.5-.57s1.09,.19,1.47,.57,.58,.86,.58,1.43-.19,1.02-.58,1.39-.88,.56-1.47,.56-1.11-.19-1.5-.56Zm3.33-15.07l-.41,10.19h-2.95l-.41-10.19h3.76Z"/>
  </g>
  <g class="cls-10">
    <g>
      <polygon class="cls-4" points="143.42 111.95 156.83 117.95 148.02 139.16 128.82 131.86 130.53 111.95 143.42 111.95"/>
      <path class="cls-2" d="M144.42,137.73l-.8-.17,2.23-10.31-15.29-7.88,.37-.72,15.57,8.02c.16,.08,.25,.27,.21,.45l-2.3,10.62Z"/>
      <path class="cls-2" d="M146.58,138.68l-.78-.24,3.94-12.75-9.55-8.59,.54-.6,9.75,8.77c.12,.11,.16,.27,.12,.42l-4.02,13Z"/>
    </g>
    <path class="cls-14" d="M68.95,57.91c-1.2,.34-3.57,.83-6.47,.24-3.22-.65-5.37-2.29-6.31-3.12-.15,.5-.73,2.14-2.44,3.3-1.88,1.28-3.83,1.07-4.31,1.01,.08,.18,1.91,4.48-.72,8.04-1.76,2.39-4.4,2.91-5.03,3.02,.75,.52,6.43,4.57,6.85,11.77,.27,4.58-1.73,7.97-2.54,9.19,1.01-.9,4.14-3.44,8.47-3.3,1.23,.04,2.29,.28,3.16,.57,3.11-10.24,6.22-20.49,9.33-30.73Z"/>
    <polygon class="cls-4" points="58.84 61.83 91.97 38.57 146.1 59.68 140.14 104.71 125.67 113.2 58.84 61.83"/>
    <polygon class="cls-7" points="115.57 139.36 124.89 166.33 110.7 185.93 90.33 166.33 85.88 150.97 115.57 139.36"/>
    <path class="cls-6" d="M53.34,160.57c-11.19,24.3-33.17,70.92-33.17,70.92l154.63-1.75-18.54-68.11-33.05-.14-12.64,9.22,.13,13.92-4.02-13.38-18.02-10.67"/>
    <path class="cls-3" d="M132.12,84.27l.11,43.14c0,2.99-1.57,5.76-4.15,7.27l-36.45,21.42c-2.25,1.32-5.09,1.14-7.15-.47l-23.23-18.17c-2.63-2.05-4.13-5.22-4.06-8.55l.67-44.35,32.28-19.51,41.98,19.22Z"/>
    <path class="cls-4" d="M103.53,70.3c-15.73,9.05-45.7,27.13-45.7,27.13l.08-35.61s24.09,.24,34.42-.13c3.72,3.22,7.48,5.39,11.2,8.61Z"/>
    <g>
      <path class="cls-6" d="M83.78,95.5l.79,27.42-8.34,.16s-2.1-19.78,7.56-27.58Z"/>
      <path class="cls-8" d="M76.23,123.52c-.22,0-.41-.17-.43-.39-.09-.82-2.01-20.1,7.72-27.97,.13-.1,.31-.12,.46-.06,.15,.07,.25,.22,.25,.38l.79,27.42c0,.12-.04,.23-.12,.31s-.19,.13-.31,.14l-8.34,.16h0Zm7.15-27.09c-7.88,7.29-6.97,23.47-6.75,26.21l7.5-.15-.75-26.06Z"/>
    </g>
    <path class="cls-8" d="M107.01,147.48c-.19,0-.37-.14-.4-.34-.51-2.79-.89-8.3,2.33-13.87,2.5-4.32,6.41-7.42,11.62-9.2,4.54-1.55,8.67-1.3,11.33-.82,.22,.04,.37,.25,.33,.48-.04,.22-.24,.37-.48,.33-2.56-.46-6.55-.7-10.92,.79-5.02,1.72-8.78,4.69-11.18,8.83-3.09,5.34-2.72,10.64-2.23,13.32,.04,.22-.11,.44-.33,.48-.02,0-.05,0-.07,0Z"/>
    <g>
      <polygon class="cls-7" points="132.04 103.93 142.5 100.23 143.6 117.41 132.04 119.71 132.04 103.93"/>
      <path class="cls-8" d="M132.3,113.14l-.64-.51,5-6.32c.04-.05,.1-.1,.16-.12l3.05-1.27,.32,.75-2.95,1.23-4.94,6.24Z"/>
    </g>
    <path class="cls-8" d="M72.99,147.05s-.03,0-.05,0c-.22-.03-.39-.23-.36-.45,.3-2.57,.88-11.41-4.02-17.5-3.79-4.71-8.67-6.43-11.24-7.04-.22-.05-.36-.27-.3-.49,.05-.22,.28-.36,.49-.3,2.68,.63,7.75,2.43,11.69,7.32,5.1,6.34,4.5,15.46,4.19,18.11-.02,.21-.2,.36-.41,.36Z"/>
    <path class="cls-2" d="M77.24,61.44s37.32,29.63,56,45.43c-.51-14.57-1.57-45.85-1.57-45.85l-54.43,.42Z"/>
    <path class="cls-4" d="M96.89,111.22c4.46,3.41,9.92,1.89,14.14-1.15,1.08-.84,3.23-.9,3.96,.5-1.86,.02-2.58,.56-4.12,1.59-1.4,.95-3,1.81-4.73,2.24-1.71,.43-3.57,.51-5.31,.06-1.74-.46-3.32-1.33-4.52-2.68-.15-.16-.13-.42,.03-.56,.16-.14,.39-.13,.55,.01h0Z"/>
    <path class="cls-5" d="M140.93,100.04c1.77,.68,3.84,1.69,5.95,3.21,5.64,4.05,8.31,9.34,9.48,12.2-2.22,1.4-4.45,2.81-6.67,4.21-.25-2.87-1.02-7.36-3.51-12.2-1.68-3.26-3.64-5.7-5.25-7.42Z"/>
    <path class="cls-5" d="M140.75,99.74c1.22-.38,2.72-.72,4.47-.81,4.66-.24,8.28,1.43,10.09,2.44-.58,1.67-1.16,3.34-1.74,5.01-1.34-1.41-3.61-3.44-6.95-4.94-2.24-1.01-4.3-1.48-5.86-1.7Z"/>
    <path class="cls-12" d="M90.12,138.33c.73,.78,.42,2.04-.59,2.41-.68,.25-1.47,.47-2.35,.59-2.32,.32-4.32-.15-5.76-.7-1.02-.39-1.26-1.72-.46-2.46,1.25-1.16,8.06-1.03,9.17,.16Z"/>
    <polygon class="cls-2" points="95.53 94.31 121.78 96.1 121.86 92.63 101.36 88.61 95.53 94.31"/>
    <polygon class="cls-2" points="76.2 94.01 49.9 94.1 50.04 90.63 70.76 87.95 76.2 94.01"/>
    <g>
      <polygon class="cls-3" points="114.56 223.58 115.29 205.7 114.43 162.64 148.64 164.16 138.65 207.85 141.2 223.88 114.56 223.58"/>
      <polygon class="cls-13" points="117.55 205.13 108.6 196.68 103.62 177.17 109.66 176.17 112.93 188.2 117.78 193.64 117.55 205.13"/>
      <path class="cls-8" d="M120.86,184.78c-.22,0-.39-.17-.4-.39l-.58-17.64c0-.22,.17-.41,.39-.42,.25,.02,.41,.17,.41,.39l.58,17.64c0,.22-.17,.41-.39,.42h-.01Z"/>
      <path class="cls-8" d="M128.29,186.32s-.02,0-.04,0c-.22-.02-.38-.22-.36-.44l1.9-20.72c.02-.22,.21-.38,.44-.36,.22,.02,.38,.22,.36,.44l-1.9,20.72c-.02,.21-.19,.36-.4,.36Z"/>
      <path class="cls-8" d="M136.04,189.52s-.06,0-.08,0c-.22-.05-.35-.26-.31-.48l4.38-20.34c.05-.22,.26-.35,.48-.31,.22,.05,.35,.26,.31,.48l-4.38,20.34c-.04,.19-.21,.32-.39,.32Z"/>
      <path class="cls-8" d="M140.42,191.72c-.08,0-.16-.03-.24-.08-.04-.03-4.23-3.03-11.05-4.76-6.84-1.74-12.08-1.13-12.13-1.12-.22,.02-.42-.13-.45-.35-.03-.22,.13-.42,.35-.45,.22-.03,5.45-.63,12.42,1.14,6.98,1.77,11.15,4.76,11.32,4.89,.18,.13,.22,.38,.09,.56-.08,.11-.2,.17-.32,.17Z"/>
    </g>
    <g>
      <polygon class="cls-3" points="81.75 225.47 81.02 207.58 81.88 164.53 47.67 166.04 57.66 209.74 55.11 225.77 81.75 225.47"/>
      <polygon class="cls-13" points="78.76 207.01 87.71 198.57 92.69 179.06 86.65 178.06 83.38 190.09 78.53 195.53 78.76 207.01"/>
      <path class="cls-8" d="M75.46,186.67h-.01c-.22,0-.4-.19-.39-.42l.58-17.64c0-.22,.22-.39,.41-.39,.22,0,.4,.19,.39,.42l-.58,17.64c0,.22-.19,.39-.4,.39Z"/>
      <path class="cls-8" d="M68.02,188.21c-.21,0-.38-.16-.4-.36l-1.9-20.72c-.02-.22,.14-.42,.36-.44,.24-.01,.42,.14,.44,.36l1.9,20.72c.02,.22-.14,.42-.36,.44-.01,0-.03,0-.04,0Z"/>
      <path class="cls-8" d="M60.27,191.4c-.19,0-.35-.13-.39-.32l-4.38-20.34c-.05-.22,.09-.43,.31-.48,.22-.04,.43,.09,.48,.31l4.38,20.34c.05,.22-.09,.43-.31,.48-.03,0-.06,0-.08,0Z"/>
      <path class="cls-8" d="M55.89,193.6c-.12,0-.25-.06-.32-.17-.13-.18-.09-.43,.09-.56,.17-.13,4.34-3.12,11.32-4.89,6.98-1.77,12.21-1.17,12.42-1.14,.22,.03,.38,.23,.35,.45-.03,.22-.22,.38-.45,.35-.05,0-5.31-.61-12.13,1.12-6.82,1.73-11,4.73-11.05,4.76-.07,.05-.15,.08-.24,.08Z"/>
    </g>
    <path class="cls-1" d="M21.88,64.16c.12-.92,.45-1.71,.98-2.37,.53-.66,1.21-1.13,2.05-1.42,.71-.25,1.39-.32,2.03-.22,.64,.1,1.19,.34,1.64,.71l-.5-1.43,3.1-1.08,3.52,10.12-3.1,1.08-.5-1.43c-.14,.58-.43,1.1-.86,1.58s-1.01,.84-1.73,1.09c-.82,.29-1.65,.33-2.47,.14-.83-.19-1.57-.62-2.24-1.27-.67-.66-1.18-1.5-1.54-2.54-.36-1.04-.48-2.02-.36-2.94Zm6.67-1.28c-.58-.3-1.19-.34-1.8-.13-.62,.21-1.06,.62-1.34,1.21-.28,.59-.28,1.27,0,2.05,.27,.77,.7,1.31,1.28,1.62s1.19,.35,1.81,.13c.62-.21,1.06-.62,1.34-1.22,.27-.6,.28-1.28,0-2.06-.27-.77-.7-1.31-1.28-1.61Z"/>
    <path class="cls-1" d="M29.49,33.04c-.66-.35-1.17-.85-1.54-1.5s-.56-1.41-.56-2.28,.19-1.62,.57-2.27c.38-.65,.9-1.16,1.56-1.51s1.4-.53,2.22-.53,1.56,.18,2.22,.53,1.18,.85,1.56,1.51c.38,.66,.57,1.41,.57,2.27s-.19,1.62-.58,2.27c-.39,.66-.91,1.16-1.58,1.51s-1.41,.52-2.23,.52-1.56-.17-2.21-.52Zm3.46-2.24c.35-.36,.52-.88,.52-1.54s-.17-1.19-.5-1.54c-.34-.36-.75-.54-1.24-.54s-.91,.18-1.24,.53-.5,.87-.5,1.55,.16,1.19,.49,1.54c.33,.36,.73,.54,1.22,.54s.91-.18,1.25-.54Z"/>
    <path class="cls-1" d="M63.27,40.17c-.22-.45-.31-.91-.28-1.37l-.69,.96-2.08-1.5,4.88-6.78c.45-.62,.98-1.1,1.59-1.43,.61-.33,1.28-.46,2-.39,.72,.07,1.46,.37,2.22,.91,1.01,.72,1.65,1.55,1.93,2.47,.28,.92,.18,1.83-.32,2.7l-2.06-1.48c.12-.31,.11-.62-.02-.95s-.38-.62-.74-.87c-.43-.31-.86-.43-1.29-.37-.43,.06-.85,.37-1.24,.91l-.69,.96c.43-.17,.9-.23,1.4-.17s.99,.26,1.47,.61c.56,.4,.96,.91,1.21,1.53,.25,.62,.31,1.29,.19,2.01-.12,.72-.43,1.43-.93,2.13-.5,.7-1.08,1.22-1.72,1.55s-1.3,.48-1.96,.44-1.27-.27-1.83-.67c-.48-.34-.83-.75-1.05-1.2Zm1.02-2.26c.07,.51,.31,.91,.73,1.21,.41,.3,.87,.4,1.37,.31,.5-.09,.94-.39,1.31-.91,.38-.52,.53-1.03,.46-1.55s-.31-.92-.72-1.21c-.41-.3-.87-.4-1.38-.31-.5,.09-.94,.4-1.32,.92-.37,.52-.52,1.03-.45,1.54Z"/>
    <path class="cls-1" d="M23.41,97.76l-1.74,1.77,7.99,7.88-3.24,3.28-7.99-7.88-1.17,1.19-2.73-2.69,1.17-1.19-.31-.3c-1.32-1.3-1.95-2.67-1.89-4.1,.06-1.43,.81-2.88,2.25-4.33,.24-.24,.42-.42,.55-.52l2.78,2.75c-.66,.59-1,1.12-1.04,1.59-.04,.47,.23,.98,.79,1.54l.1,.09,1.74-1.77,2.73,2.69Z"/>
    <path class="cls-1" d="M26.04,127.4c-.3-.66-.42-1.32-.34-1.97,.08-.65,.33-1.25,.76-1.79,.34-.43,.75-.75,1.21-.96,.46-.21,.93-.3,1.4-.26l-3.03-2.43,1.6-2,8.66,6.94-1.6,2-.94-.75c.16,.44,.2,.91,.11,1.4s-.32,.98-.69,1.44c-.43,.54-.96,.92-1.59,1.13-.63,.22-1.3,.25-2.01,.09-.71-.16-1.41-.5-2.08-1.04s-1.16-1.14-1.46-1.8Zm3.88-3.62c-.51,.05-.92,.27-1.24,.67-.32,.4-.45,.85-.39,1.36,.06,.5,.34,.96,.84,1.36,.5,.4,1.01,.58,1.52,.54s.93-.26,1.25-.66c.32-.4,.44-.85,.38-1.36-.07-.51-.35-.96-.85-1.36-.5-.4-1-.58-1.52-.53Z"/>
    <path class="cls-1" d="M35.1,60.14l-.75-.66,.33-.37c.83-.93,2.64-2.59,5.45-3.24,2.08-.48,3.9-.23,5.27,.18-3.75-4.71-8.24-8.66-13.36-11.74-9.69-5.84-19.32-7.15-25.69-7.22h-.5s.01-1.01,.01-1.01h.5c6.49,.08,16.31,1.42,26.19,7.37,5.74,3.46,10.7,7.98,14.73,13.42,.14,.19,.13,.44-.02,.62-.15,.18-.4,.23-.61,.13-1.13-.57-3.46-1.42-6.31-.77-2.54,.58-4.18,2.08-4.92,2.92l-.33,.37Z"/>
    <path class="cls-1" d="M40.41,67.97l-.96-.29,.15-.48c.3-.98,.75-1.89,1.35-2.7,1.63-2.22,3.92-3.1,5.14-3.43l.48-.13,.26,.97-.48,.13c-1.09,.3-3.14,1.09-4.59,3.06-.53,.72-.93,1.52-1.2,2.4l-.15,.48Z"/>
    <path class="cls-1" d="M54.01,53.46l-.08-.49c-.57-3.51-1.89-6.76-3.91-9.67-3.51-5.06-8.2-7.7-11.52-9.03l-.46-.19,.37-.93,.46,.19c3.44,1.38,8.31,4.12,11.97,9.38,2.11,3.04,3.48,6.43,4.07,10.08l.08,.49-.99,.16Z"/>
    <path class="cls-1" d="M61.83,55.65l-.07-.49c-.22-1.44-.26-2.9-.15-4.34,.15-1.88,.59-3.75,1.31-5.56l.18-.46,.93,.37-.18,.47c-.68,1.72-1.09,3.49-1.24,5.27-.11,1.37-.07,2.75,.14,4.11l.07,.49-.99,.15Z"/>
    <path class="cls-1" d="M26.4,99.89l-.87-.5,.25-.43c1.67-2.91,4.77-6.97,10.08-9.8,3.57-1.91,7.62-2.95,11.71-3h.5s.01,.99,.01,.99h-.5c-2.74,.04-6.91,.56-11.25,2.88-5.1,2.72-8.08,6.63-9.68,9.42l-.25,.43Z"/>
    <path class="cls-1" d="M34.19,117.92l-.64-.61,.31-.32c1.34-1.41,2.8-2.7,4.34-3.85,2.25-1.68,4.71-3.08,7.29-4.15l.41-.17,.34,.82-.41,.17c-2.51,1.04-4.9,2.4-7.1,4.04-1.5,1.12-2.92,2.38-4.23,3.75l-.3,.32Z"/>
    <g>
      <path class="cls-2" d="M77.35,61.59s37.21,29.54,55.84,45.3c-.46-11.23-.85-22.56-1.16-33.99-.11-4.15-.22-8.28-.31-12.4-18.12,.36-36.24,.73-54.37,1.09Z"/>
      <rect class="cls-2" x="58.08" y="60.8" width="87.77" height=".82" transform="translate(-1.44 2.46) rotate(-1.37)"/>
      <polygon class="cls-4" points="131.94 105.59 131.8 105.21 114.85 57.39 115.62 57.12 115.76 57.51 132.71 105.32 131.94 105.59"/>
      <polygon class="cls-4" points="131.86 104.88 131.6 104.56 94.59 59.67 95.22 59.15 95.48 59.47 132.49 104.36 131.86 104.88"/>
    </g>
    <path class="cls-5" d="M52.17,99.13c25.02-.26,75.07-.77,75.07-.77,0,0,11.67-.47,13.51,1.74-8.43,1.4-8.55,15.46-8.55,15.46,0,0-58.39,5.09-80.81,3.25,.26-6.56,.52-13.12,.78-19.68Z"/>
  </g>
</svg>