<?xml version="1.0" encoding="UTF-8"?>
<svg id="Layer_2" data-name="Layer 2" xmlns="http://www.w3.org/2000/svg" xmlns:xlink="http://www.w3.org/1999/xlink" viewBox="0 0 174.04 246.49">
  <defs>
    <style>
      .cls-1, .cls-2, .cls-3, .cls-4, .cls-5, .cls-6 {
        fill: none;
      }

      .cls-1, .cls-4 {
        stroke-linecap: square;
      }

      .cls-1, .cls-4, .cls-6 {
        stroke-linejoin: round;
      }

      .cls-1, .cls-6 {
        stroke: #fff;
        stroke-width: .26px;
      }

      .cls-7 {
        fill: #fff;
      }

      .cls-8 {
        fill: #edeeea;
      }

      .cls-2 {
        stroke: #d46cff;
        stroke-width: .52px;
      }

      .cls-2, .cls-3 {
        stroke-miterlimit: 10;
      }

      .cls-9 {
        fill: #363636;
      }

      .cls-10 {
        fill: #eeb2ff;
      }

      .cls-11 {
        fill: #3ba45b;
      }

      .cls-12 {
        fill: #f7f2dc;
      }

      .cls-13 {
        fill: #fce9ca;
      }

      .cls-14 {
        fill: #ab7a5a;
      }

      .cls-3 {
        stroke-width: 2.33px;
      }

      .cls-3, .cls-4 {
        stroke: #363636;
      }

      .cls-4 {
        stroke-width: .53px;
      }

      .cls-15 {
        clip-path: url(#clippath);
      }

      .cls-16 {
        fill: #9e6647;
      }

      .cls-17 {
        fill: #b72c2c;
      }

      .cls-18 {
        fill: #e08bfc;
      }

      .cls-6 {
        stroke-linecap: round;
      }

      .cls-19 {
        fill: #4ea978;
      }
    </style>
    <clipPath id="clippath">
      <rect class="cls-5" x="6.76" y="7.17" width="160.53" height="198.84" rx="14.3" ry="14.3"/>
    </clipPath>
  </defs>
  <rect class="cls-11" x=".35" y="0" width="173.34" height="246.49" rx="13.2" ry="13.2"/>
  <rect class="cls-10" x="6.76" y="7.17" width="160.53" height="198.84" rx="14.3" ry="14.3"/>
  <g class="cls-15">
    <g>
      <path class="cls-19" d="M113.14,157.17c4.29,3.61,8.59,7.22,12.88,10.84-1.16-4.7-2.32-9.39-3.48-14.09,2.57-.38,5.15-.76,7.72-1.15,.37-13.82,.73-27.64,1.1-41.46-32.53-.05-65.06-.11-97.59-.16,1.32,18.07,2.64,36.15,3.96,54.22,25.14-2.73,50.27-5.47,75.41-8.2Z"/>
      <rect class="cls-8" x="22.68" y="17.64" width="135.44" height="25.88" rx="12.94" ry="12.94"/>
      <g>
        <circle class="cls-3" cx="35.08" cy="29.67" r="4.88"/>
        <line class="cls-3" x1="38.66" y1="32.98" x2="43.27" y2="37.85"/>
      </g>
      <path class="cls-19" d="M118.34,71.75c-2.25,2.06-4.51,4.11-6.76,6.17,.07,3.92,.14,7.83,.22,11.75-14.29,1.2-28.57,2.39-42.86,3.59-1.6-10.88-3.21-21.75-4.81-32.63,15.84-.31,31.69-.61,47.53-.92,.19,3.9,.39,7.81,.58,11.71,2.03,.11,4.07,.22,6.1,.33Z"/>
      <path class="cls-13" d="M11.61,171.17c3.31-3.02,6.62-6.04,9.93-9.06-.11-5.75-.21-11.5-.32-17.25,20.98-1.76,41.97-3.52,62.95-5.27,2.35,15.97,4.71,31.95,7.06,47.92-23.27,.45-46.54,.9-69.81,1.35-.28-5.73-.57-11.47-.85-17.2-2.99-.16-5.97-.32-8.96-.48Z"/>
      <path class="cls-13" d="M64.35,119.87c4.29,3.61,8.59,7.22,12.88,10.84-1.16-4.7-2.32-9.39-3.48-14.09,2.57-.38,5.15-.76,7.72-1.15,.37-13.82,.73-27.64,1.1-41.46-32.53-.05-65.06-.11-97.59-.16,1.32,18.07,2.64,36.15,3.96,54.22,25.14-2.73,50.27-5.47,75.41-8.2Z"/>
      <g>
        <circle class="cls-18" cx="134.4" cy="117.11" r="37.62"/>
        <path class="cls-8" d="M134.49,158.47c-1.69,0-3.39-.1-5.09-.31-10.96-1.34-20.75-6.87-27.56-15.56-6.81-8.7-9.82-19.53-8.48-30.49,2.76-22.64,23.43-38.8,46.06-36.04,10.96,1.34,20.75,6.87,27.56,15.56s9.82,19.53,8.48,30.49c-1.34,10.96-6.87,20.75-15.56,27.56-7.35,5.75-16.22,8.79-25.4,8.79Zm-.11-75.25c-16.87,0-31.52,12.62-33.61,29.79-1.1,8.99,1.37,17.86,6.95,24.99,5.58,7.13,13.6,11.66,22.58,12.75,8.99,1.09,17.86-1.37,24.99-6.95,7.13-5.58,11.66-13.6,12.75-22.58h0c2.26-18.55-10.99-35.48-29.53-37.74-1.39-.17-2.76-.25-4.13-.25Z"/>
        <rect class="cls-8" x="168.1" y="155.77" width="17.97" height="59.17" transform="translate(-70.86 120.24) rotate(-31.59)"/>
        <rect class="cls-8" x="157.46" y="147.11" width="7.73" height="25.46" transform="translate(-59.83 108.21) rotate(-31.59)"/>
        <path class="cls-7" d="M151.02,95.3c13.16,8.57,15.82,25.7,6.31,38.1-2.89,3.82-6.7,6.92-10.98,9,3.83-2.7,7.2-5.97,9.79-9.85,8.41-12.43,6.02-27.34-5.12-37.25h0Z"/>
      </g>
      <g>
        <path class="cls-9" d="M52.35,28.27c.45,.24,.79,.58,1.03,1.01,.24,.43,.36,.92,.36,1.46s-.12,1.03-.36,1.46c-.24,.43-.59,.78-1.03,1.03-.45,.25-.97,.37-1.56,.37h-2.37v-5.69h2.37c.59,0,1.12,.12,1.56,.36Zm-.77,3.41c.24-.22,.35-.53,.35-.94s-.12-.72-.35-.94c-.24-.22-.55-.33-.96-.33h-.43v2.54h.43c.4,0,.72-.11,.96-.33Z"/>
        <path class="cls-9" d="M54.8,30.09c.16-.35,.39-.62,.67-.8s.6-.28,.96-.28c.29,0,.55,.06,.76,.18,.21,.12,.38,.29,.49,.49v-.62h1.78v4.54h-1.78v-.62c-.11,.21-.28,.37-.49,.49-.21,.12-.47,.18-.76,.18-.35,0-.67-.09-.96-.28s-.51-.45-.67-.8c-.16-.35-.25-.77-.25-1.24s.08-.89,.25-1.24Zm2.7,.68c-.12-.13-.28-.2-.47-.2s-.35,.07-.47,.2c-.12,.13-.18,.32-.18,.56s.06,.43,.18,.56c.12,.13,.28,.2,.47,.2s.35-.07,.47-.2c.12-.13,.19-.32,.19-.56s-.06-.43-.19-.56Z"/>
        <path class="cls-9" d="M63.57,33.6l-1.12-1.81v1.81h-1.79v-5.95h1.79v3.11l1.13-1.7h2.08l-1.7,2.28,1.74,2.25h-2.13Z"/>
        <path class="cls-9" d="M73.39,29.06l-1.08,4.54h-2.01l-.55-2.56-.58,2.56h-2.01l-1.07-4.54h1.77l.38,2.76,.59-2.76h1.91l.62,2.79,.39-2.79h1.65Z"/>
        <path class="cls-9" d="M74.18,30.09c.16-.35,.39-.62,.67-.8s.6-.28,.96-.28c.29,0,.55,.06,.76,.18,.21,.12,.38,.29,.49,.49v-.62h1.78v4.54h-1.78v-.62c-.11,.21-.28,.37-.49,.49-.21,.12-.47,.18-.76,.18-.35,0-.67-.09-.96-.28s-.51-.45-.67-.8c-.16-.35-.25-.77-.25-1.24s.08-.89,.25-1.24Zm2.7,.68c-.12-.13-.28-.2-.47-.2s-.35,.07-.47,.2c-.12,.13-.18,.32-.18,.56s.06,.43,.18,.56c.12,.13,.28,.2,.47,.2s.35-.07,.47-.2c.12-.13,.19-.32,.19-.56s-.06-.43-.19-.56Z"/>
        <path class="cls-9" d="M80.05,30.09c.16-.35,.39-.62,.67-.8s.6-.28,.96-.28c.29,0,.55,.06,.76,.18,.21,.12,.38,.29,.49,.49v-.62h1.78v4.54h-1.78v-.62c-.11,.21-.28,.37-.49,.49-.21,.12-.47,.18-.76,.18-.35,0-.67-.09-.96-.28s-.51-.45-.67-.8c-.16-.35-.25-.77-.25-1.24s.08-.89,.25-1.24Zm2.7,.68c-.12-.13-.28-.2-.47-.2s-.35,.07-.47,.2c-.12,.13-.18,.32-.18,.56s.06,.43,.18,.56c.12,.13,.28,.2,.47,.2s.35-.07,.47-.2c.12-.13,.19-.32,.19-.56s-.06-.43-.19-.56Z"/>
        <path class="cls-9" d="M90.31,29.55c.29,.35,.44,.82,.44,1.42v2.63h-1.78v-2.41c0-.21-.06-.38-.17-.51-.12-.13-.27-.19-.46-.19s-.35,.06-.47,.19c-.11,.13-.17,.3-.17,.51v2.41h-1.79v-4.54h1.79v.69c.14-.21,.33-.39,.56-.52,.23-.13,.51-.2,.83-.2,.52,0,.93,.17,1.22,.52Z"/>
        <path class="cls-9" d="M96.56,33.6l-1.07-2.04h0v2.04h-1.79v-5.69h2.65c.46,0,.86,.08,1.18,.25s.57,.39,.74,.67c.16,.28,.25,.6,.25,.95,0,.38-.11,.72-.32,1.01s-.52,.51-.91,.64l1.24,2.18h-1.96Zm-1.08-3.23h.71c.17,0,.3-.04,.39-.12,.08-.08,.13-.2,.13-.37,0-.15-.04-.27-.13-.35-.09-.09-.22-.13-.38-.13h-.71v.97Z"/>
        <path class="cls-9" d="M99.49,30.09c.16-.35,.39-.62,.67-.8s.6-.28,.96-.28c.29,0,.55,.06,.76,.18,.21,.12,.38,.29,.49,.49v-.62h1.78v4.54h-1.78v-.62c-.11,.21-.28,.37-.49,.49-.21,.12-.47,.18-.76,.18-.35,0-.67-.09-.96-.28s-.51-.45-.67-.8c-.16-.35-.25-.77-.25-1.24s.08-.89,.25-1.24Zm2.7,.68c-.12-.13-.28-.2-.47-.2s-.35,.07-.47,.2c-.12,.13-.18,.32-.18,.56s.06,.43,.18,.56c.12,.13,.28,.2,.47,.2s.35-.07,.47-.2c.12-.13,.19-.32,.19-.56s-.06-.43-.19-.56Z"/>
        <path class="cls-9" d="M106.24,33.45c-.33-.14-.59-.33-.78-.58-.19-.25-.3-.53-.33-.84h1.71c.02,.13,.08,.23,.17,.3s.21,.1,.36,.1c.09,0,.16-.02,.22-.06,.05-.04,.08-.09,.08-.15,0-.1-.06-.17-.17-.22-.11-.04-.3-.09-.57-.15-.33-.06-.6-.13-.81-.21s-.4-.2-.55-.39c-.16-.18-.24-.43-.24-.76,0-.28,.07-.53,.22-.76s.37-.41,.66-.54c.29-.13,.64-.2,1.05-.2,.61,0,1.09,.15,1.44,.45s.55,.69,.62,1.17h-1.58c-.03-.12-.08-.22-.17-.29-.09-.07-.2-.1-.35-.1-.09,0-.16,.02-.21,.05-.05,.03-.07,.09-.07,.16,0,.09,.06,.16,.17,.21,.11,.05,.29,.09,.54,.14,.33,.06,.6,.14,.83,.22,.23,.08,.42,.22,.59,.41,.17,.2,.25,.47,.25,.81,0,.27-.08,.51-.23,.72-.16,.21-.38,.38-.67,.51-.29,.12-.63,.19-1.03,.19-.43,0-.81-.07-1.14-.21Z"/>
        <path class="cls-9" d="M115.22,29.06v4.54h-1.79v-.69c-.14,.21-.33,.39-.56,.52-.23,.13-.51,.2-.83,.2-.52,0-.93-.17-1.22-.52-.29-.35-.44-.82-.44-1.42v-2.63h1.78v2.41c0,.21,.06,.38,.17,.51s.27,.19,.46,.19,.35-.06,.47-.19c.11-.13,.17-.3,.17-.51v-2.41h1.79Z"/>
        <path class="cls-9" d="M116.43,30.09c.16-.35,.39-.62,.67-.8s.6-.28,.96-.28c.29,0,.55,.06,.76,.18,.21,.12,.38,.29,.49,.49v-.62h1.78v4.54h-1.78v-.62c-.11,.21-.28,.37-.49,.49-.21,.12-.47,.18-.76,.18-.35,0-.67-.09-.96-.28s-.51-.45-.67-.8c-.16-.35-.25-.77-.25-1.24s.08-.89,.25-1.24Zm2.7,.68c-.12-.13-.28-.2-.47-.2s-.35,.07-.47,.2c-.12,.13-.18,.32-.18,.56s.06,.43,.18,.56c.12,.13,.28,.2,.47,.2s.35-.07,.47-.2c.12-.13,.19-.32,.19-.56s-.06-.43-.19-.56Z"/>
        <path class="cls-9" d="M126.69,29.55c.29,.35,.44,.82,.44,1.42v2.63h-1.78v-2.41c0-.21-.06-.38-.17-.51-.12-.13-.27-.19-.46-.19s-.35,.06-.47,.19c-.11,.13-.17,.3-.17,.51v2.41h-1.79v-5.95h1.79v2.11c.14-.21,.33-.39,.56-.52,.23-.13,.51-.2,.83-.2,.52,0,.93,.17,1.22,.52Z"/>
        <path class="cls-9" d="M134.05,27.9v3.68c0,.68-.18,1.2-.54,1.55-.36,.35-.86,.53-1.5,.53-.69,0-1.24-.19-1.65-.57-.41-.38-.61-.94-.61-1.67h1.76c0,.23,.04,.39,.11,.49,.07,.09,.18,.14,.31,.14,.11,0,.19-.04,.25-.1,.06-.07,.09-.19,.09-.36v-3.68h1.78Z"/>
        <path class="cls-9" d="M139.59,31.64h-2.87c.03,.39,.19,.59,.49,.59,.19,0,.33-.09,.42-.27h1.89c-.06,.32-.2,.61-.41,.86-.21,.25-.47,.46-.78,.6-.31,.15-.66,.22-1.03,.22-.45,0-.85-.09-1.2-.28-.35-.19-.62-.46-.82-.81-.2-.35-.29-.76-.29-1.23s.1-.88,.29-1.23c.2-.35,.47-.62,.82-.81,.35-.19,.75-.28,1.2-.28s.85,.09,1.2,.28c.35,.19,.62,.45,.82,.79,.2,.34,.29,.75,.29,1.21,0,.12,0,.24-.02,.35Zm-1.79-.78c0-.15-.05-.26-.14-.34-.1-.08-.22-.12-.36-.12-.32,0-.5,.15-.55,.46h1.06Z"/>
        <path class="cls-9" d="M142.98,29.19c.21,.12,.38,.29,.49,.49v-.62h1.78v4.46c0,.42-.08,.81-.23,1.16s-.41,.63-.75,.84c-.35,.21-.79,.31-1.33,.31-.73,0-1.31-.17-1.73-.51-.43-.34-.67-.8-.73-1.39h1.75c.05,.24,.24,.35,.58,.35,.21,0,.37-.05,.49-.16,.12-.11,.18-.31,.18-.6v-.54c-.11,.21-.28,.37-.49,.49-.21,.12-.47,.18-.76,.18-.35,0-.67-.09-.96-.28s-.51-.45-.67-.8c-.16-.35-.25-.77-.25-1.24s.08-.89,.25-1.24c.16-.35,.39-.62,.67-.8s.6-.28,.96-.28c.29,0,.55,.06,.76,.18Zm.31,1.58c-.12-.13-.28-.2-.47-.2s-.35,.07-.47,.2c-.12,.13-.18,.32-.18,.56s.06,.43,.18,.56c.12,.13,.28,.2,.47,.2s.35-.07,.47-.2c.12-.13,.19-.32,.19-.56s-.06-.43-.19-.56Z"/>
        <path class="cls-9" d="M146.46,30.09c.16-.35,.39-.62,.67-.8s.6-.28,.96-.28c.29,0,.55,.06,.76,.18,.21,.12,.38,.29,.49,.49v-.62h1.78v4.54h-1.78v-.62c-.11,.21-.28,.37-.49,.49-.21,.12-.47,.18-.76,.18-.35,0-.67-.09-.96-.28s-.51-.45-.67-.8c-.16-.35-.25-.77-.25-1.24s.08-.89,.25-1.24Zm2.7,.68c-.12-.13-.28-.2-.47-.2s-.35,.07-.47,.2c-.12,.13-.18,.32-.18,.56s.06,.43,.18,.56c.12,.13,.28,.2,.47,.2s.35-.07,.47-.2c.12-.13,.19-.32,.19-.56s-.06-.43-.19-.56Z"/>
      </g>
    </g>
    <g>
      <polygon class="cls-14" points="30.8 71.58 67.13 74.24 67.74 109.96 24.84 106.73 30.8 71.58"/>
      <g>
        <polygon class="cls-16" points="67.37 88.72 73.86 87.89 73.21 97.93 67.52 97.43 67.37 88.72"/>
        <path class="cls-1" d="M67.47,94.16s1.02-1.79,2.1-2.67c1.08-.88,2.54-1.33,2.54-1.33"/>
      </g>
      <g>
        <polygon class="cls-16" points="28.42 85.7 22.18 83.75 21.07 93.75 26.95 94.27 28.42 85.7"/>
        <path class="cls-1" d="M27.38,91.04s-.7-1.94-1.6-3c-.9-1.06-2.27-1.75-2.27-1.75"/>
      </g>
      <path class="cls-9" d="M67.37,88.72l4.6-.59,3.18-20.47s-33.49-9.28-34.8-9.85-2.49-1.29-3.38-1.77c-.89-.48-2.83-1.83-2.83-1.83l2.18,5.03-11.74,8.44,.6,17.01,3.23,1.01,2.38-14.11,36.33,2.66,.24,14.48Z"/>
      <polygon class="cls-9" points="63.38 84.82 64.25 82.1 57.18 81.48 56 83.07 63.38 84.82"/>
      <polygon class="cls-9" points="31.81 81.01 31.6 78.17 38.62 79.23 39.39 81.06 31.81 81.01"/>
      <polygon class="cls-6" points="43.39 82.51 48.6 82.96 47.51 95.34 38.62 94.94 40.05 90.46 42.66 90.21 43.39 82.51"/>
      <path class="cls-4" d="M31.45,88.78s1.14-1.88,3.46-1.49c2.32,.39,2.97,2.06,2.97,2.06"/>
      <path class="cls-4" d="M55.8,90.93s1.14-1.88,3.46-1.49c2.32,.39,2.97,2.06,2.97,2.06"/>
      <polygon class="cls-9" points="25.86 98.63 29.34 103.96 62.16 106.66 67.74 100.31 68.18 110.36 50.63 109.36 50.45 111.39 42.86 110.72 42.14 108.73 24.48 106.94 25.86 98.63"/>
      <path class="cls-17" d="M43.27,100.17l5.01-.06s-.33,2.28-2.44,2.2-2.57-2.14-2.57-2.14Z"/>
      <path class="cls-6" d="M67.36,95.36s-4.32-2.46-8.82,1.33c-4.5,3.79-2.74,9.45-2.74,9.45"/>
      <path class="cls-6" d="M27.25,92.52s3.68,1.28,5.96,4.25c2.28,2.98,1.72,7.65,1.72,7.65"/>
      <polygon class="cls-9" points="33.36 97.07 40.75 93.26 45.49 94.53 50.86 93.76 56.99 99.16 46.71 99 45.27 97.12 43.44 98.89 33.36 97.07"/>
    </g>
    <g>
      <path class="cls-10" d="M81.99,163.37s-8.82,9.65-19.43,13.87c-10.6,4.22-26.74,3.94-26.74,3.94l-5.05-15.61s8.45-.43,17.7-4.8c5.96-2.82,14.58-14.36,14.58-14.36l18.94,16.96Z"/>
      <path class="cls-12" d="M52.22,165.18c4.65-1.63,8.69-3.04,9.7-1.68,1.1,1.49-1.38,6.35-5.37,8.2-5.1,2.38-11.88-.54-11.94-2.51-.04-1.34,3.02-2.41,7.61-4.02Z"/>
      <path class="cls-2" d="M76.85,163.24l-13.52-12.7s-9,10.31-13.14,11.98c-4.15,1.68-17.13,4.7-17.13,4.7l4.6,11.65s11.7-.77,20.73-3.49,18.47-12.15,18.47-12.15Z"/>
    </g>
  </g>
  <g>
    <path class="cls-7" d="M32.42,224.49c-.33,.58-.82,1.04-1.46,1.38-.64,.34-1.43,.51-2.34,.51h-1.41v3.6h-3.55v-11.33h4.96c1.39,0,2.45,.35,3.19,1.06,.74,.7,1.11,1.65,1.11,2.83,0,.71-.17,1.36-.5,1.94Zm-3.11-1.94c0-.69-.37-1.04-1.1-1.04h-1.01v2.08h1.01c.74,0,1.1-.35,1.1-1.04Z"/>
    <path class="cls-7" d="M43.52,226.09h-5.71c.05,.78,.38,1.17,.98,1.17,.38,0,.66-.18,.83-.53h3.76c-.13,.64-.4,1.21-.81,1.72-.41,.51-.93,.91-1.55,1.2-.62,.29-1.31,.44-2.06,.44-.9,0-1.69-.19-2.39-.56-.7-.37-1.24-.91-1.63-1.61-.39-.7-.58-1.52-.58-2.46s.19-1.76,.58-2.46c.39-.7,.93-1.23,1.63-1.61,.7-.37,1.5-.56,2.39-.56s1.69,.18,2.39,.55c.7,.37,1.24,.89,1.63,1.58s.58,1.49,.58,2.42c0,.25-.02,.48-.05,.7Zm-3.55-1.55c0-.3-.1-.52-.29-.68-.19-.15-.43-.23-.72-.23-.63,0-1,.3-1.1,.91h2.11Z"/>
    <path class="cls-7" d="M50.37,221.37c.52-.31,1.07-.47,1.63-.47v3.79h-1.01c-.67,0-1.16,.12-1.48,.35-.32,.24-.47,.65-.47,1.25v3.7h-3.55v-9.02h3.55v1.66c.36-.52,.8-.94,1.33-1.26Z"/>
    <path class="cls-7" d="M54.07,219.74c-.37-.33-.56-.75-.56-1.25s.19-.94,.56-1.27,.87-.5,1.49-.5,1.1,.17,1.47,.5c.37,.34,.56,.76,.56,1.27s-.19,.92-.56,1.25c-.38,.33-.87,.5-1.47,.5s-1.12-.17-1.49-.5Zm3.25,1.22v9.02h-3.55v-9.02h3.55Z"/>
    <path class="cls-7" d="M65.49,229.98l-2.22-3.6v3.6h-3.55v-11.84h3.55v6.19l2.26-3.38h4.13l-3.38,4.54,3.46,4.48h-4.24Z"/>
    <path class="cls-7" d="M73.08,229.68c-.65-.28-1.18-.66-1.56-1.15-.38-.49-.6-1.04-.66-1.66h3.41c.04,.27,.16,.46,.34,.59,.19,.13,.42,.19,.71,.19,.18,0,.33-.04,.43-.12,.11-.08,.16-.18,.16-.3,0-.2-.11-.35-.34-.43-.22-.09-.6-.18-1.13-.29-.65-.13-1.19-.27-1.61-.42-.42-.15-.79-.41-1.1-.77-.31-.36-.47-.86-.47-1.5,0-.55,.15-1.06,.44-1.51s.73-.81,1.3-1.07c.57-.26,1.27-.39,2.1-.39,1.21,0,2.17,.3,2.86,.9,.69,.6,1.1,1.38,1.24,2.34h-3.15c-.05-.25-.17-.43-.34-.57-.17-.13-.4-.2-.69-.2-.18,0-.32,.03-.42,.1-.1,.07-.14,.17-.14,.31,0,.18,.11,.32,.34,.41s.58,.18,1.07,.28c.65,.13,1.2,.27,1.65,.43,.45,.16,.84,.43,1.17,.82,.33,.39,.5,.92,.5,1.61,0,.53-.16,1.01-.46,1.44s-.75,.76-1.34,1.01-1.26,.37-2.04,.37c-.85,0-1.61-.14-2.27-.42Z"/>
    <path class="cls-7" d="M81.4,223c.32-.7,.77-1.23,1.34-1.6,.56-.37,1.2-.55,1.9-.55,.59,0,1.09,.12,1.52,.36,.43,.24,.75,.57,.98,.98v-1.23h3.54v9.02h-3.54v-1.23c-.22,.42-.55,.74-.98,.98s-.93,.36-1.52,.36c-.71,0-1.34-.18-1.9-.55-.57-.37-1.01-.9-1.34-1.6-.33-.7-.49-1.52-.49-2.47s.16-1.77,.49-2.47Zm5.37,1.35c-.24-.27-.56-.4-.94-.4s-.7,.13-.94,.4c-.25,.27-.37,.64-.37,1.12s.12,.85,.37,1.12c.24,.27,.56,.4,.94,.4s.7-.13,.94-.4c.25-.27,.37-.64,.37-1.12s-.12-.85-.37-1.12Z"/>
    <path class="cls-7" d="M101.4,220.29c-.27,0-.47,.05-.61,.15s-.24,.27-.29,.52h1.3v2.96h-1.33v6.06h-3.55v-6.06h-.96v-2.96h.96c.02-1.17,.39-2.08,1.11-2.73,.72-.65,1.73-.97,3.03-.97,.15,0,.39,.01,.74,.03v3.02c-.19-.02-.33-.03-.4-.03Z"/>
    <path class="cls-7" d="M103.56,223c.32-.7,.77-1.23,1.34-1.6,.56-.37,1.2-.55,1.9-.55,.59,0,1.09,.12,1.52,.36,.43,.24,.75,.57,.98,.98v-1.23h3.54v9.02h-3.54v-1.23c-.22,.42-.55,.74-.98,.98s-.93,.36-1.52,.36c-.71,0-1.34-.18-1.9-.55-.57-.37-1.01-.9-1.34-1.6-.33-.7-.49-1.52-.49-2.47s.16-1.77,.49-2.47Zm5.37,1.35c-.24-.27-.56-.4-.94-.4s-.7,.13-.94,.4c-.25,.27-.37,.64-.37,1.12s.12,.85,.37,1.12c.24,.27,.56,.4,.94,.4s.7-.13,.94-.4c.25-.27,.37-.64,.37-1.12s-.12-.85-.37-1.12Z"/>
    <path class="cls-7" d="M121.01,229.98l-2.22-3.6v3.6h-3.55v-11.84h3.55v6.19l2.26-3.38h4.13l-3.38,4.54,3.46,4.48h-4.24Z"/>
    <path class="cls-7" d="M132.47,226.96v3.02h-1.34c-2.47,0-3.71-1.23-3.71-3.7v-2.37h-1.12v-2.96h1.12v-2.18h3.55v2.18h1.47v2.96h-1.47v2.43c0,.21,.05,.37,.15,.46,.1,.1,.27,.14,.5,.14h.85Z"/>
    <path class="cls-7" d="M134.63,223c.33-.7,.77-1.23,1.34-1.6,.57-.37,1.2-.55,1.9-.55,.59,0,1.09,.12,1.52,.36,.43,.24,.75,.57,.97,.98v-1.23h3.54v9.02h-3.54v-1.23c-.22,.42-.55,.74-.97,.98-.43,.24-.93,.36-1.52,.36-.7,0-1.34-.18-1.9-.55-.56-.37-1.01-.9-1.34-1.6-.32-.7-.49-1.52-.49-2.47s.16-1.77,.49-2.47Zm5.37,1.35c-.25-.27-.56-.4-.94-.4s-.7,.13-.95,.4c-.24,.27-.37,.64-.37,1.12s.12,.85,.37,1.12c.25,.27,.56,.4,.95,.4s.7-.13,.94-.4c.24-.27,.37-.64,.37-1.12s-.12-.85-.37-1.12Z"/>
    <path class="cls-7" d="M147.67,229.61c-.38-.33-.56-.75-.56-1.25s.19-.94,.56-1.27c.37-.34,.87-.5,1.49-.5s1.1,.17,1.47,.5,.56,.76,.56,1.27-.19,.92-.56,1.25c-.37,.33-.86,.5-1.47,.5s-1.12-.17-1.49-.5Zm3.42-11.71l-.42,7.58h-3.04l-.42-7.58h3.87Z"/>
  </g>
</svg>