<?xml version="1.0" encoding="UTF-8"?>
<svg id="Layer_2" data-name="Layer 2" xmlns="http://www.w3.org/2000/svg" xmlns:xlink="http://www.w3.org/1999/xlink" viewBox="0 0 174.04 246.49">
  <defs>
    <style>
      .cls-1, .cls-2, .cls-3, .cls-4, .cls-5, .cls-6 {
        fill: none;
      }

      .cls-1, .cls-4 {
        stroke-linecap: square;
      }

      .cls-1, .cls-4, .cls-6 {
        stroke-linejoin: round;
      }

      .cls-1, .cls-6 {
        stroke: #fff;
        stroke-width: .26px;
      }

      .cls-7 {
        fill: #fff;
      }

      .cls-8 {
        fill: #edeeea;
      }

      .cls-2 {
        stroke: #d46cff;
        stroke-width: .52px;
      }

      .cls-2, .cls-3 {
        stroke-miterlimit: 10;
      }

      .cls-9 {
        fill: #363636;
      }

      .cls-10 {
        fill: #eeb2ff;
      }

      .cls-11 {
        fill: #3ba45b;
      }

      .cls-12 {
        fill: #f7f2dc;
      }

      .cls-13 {
        fill: #fce9ca;
      }

      .cls-14 {
        fill: #ab7a5a;
      }

      .cls-3 {
        stroke-width: 2.33px;
      }

      .cls-3, .cls-4 {
        stroke: #363636;
      }

      .cls-4 {
        stroke-width: .53px;
      }

      .cls-15 {
        clip-path: url(#clippath);
      }

      .cls-16 {
        fill: #9e6647;
      }

      .cls-17 {
        fill: #b72c2c;
      }

      .cls-18 {
        fill: #e08bfc;
      }

      .cls-6 {
        stroke-linecap: round;
      }

      .cls-19 {
        fill: #4ea978;
      }
    </style>
    <clipPath id="clippath">
      <rect class="cls-5" x="6.76" y="7.17" width="160.53" height="198.84" rx="14.3" ry="14.3"/>
    </clipPath>
  </defs>
  <rect class="cls-11" x=".35" y="0" width="173.34" height="246.49" rx="13.2" ry="13.2"/>
  <rect class="cls-10" x="6.76" y="7.17" width="160.53" height="198.84" rx="14.3" ry="14.3"/>
  <g class="cls-15">
    <g>
      <path class="cls-19" d="M113.14,157.17c4.29,3.61,8.59,7.22,12.88,10.84-1.16-4.7-2.32-9.39-3.48-14.09,2.57-.38,5.15-.76,7.72-1.15,.37-13.82,.73-27.64,1.1-41.46-32.53-.05-65.06-.11-97.59-.16,1.32,18.07,2.64,36.15,3.96,54.22,25.14-2.73,50.27-5.47,75.41-8.2Z"/>
      <rect class="cls-8" x="22.68" y="17.64" width="135.44" height="25.88" rx="12.94" ry="12.94"/>
      <g>
        <circle class="cls-3" cx="35.08" cy="29.67" r="4.88"/>
        <line class="cls-3" x1="38.66" y1="32.98" x2="43.27" y2="37.85"/>
      </g>
      <path class="cls-19" d="M118.34,71.75c-2.25,2.06-4.51,4.11-6.76,6.17,.07,3.92,.14,7.83,.22,11.75-14.29,1.2-28.57,2.39-42.86,3.59-1.6-10.88-3.21-21.75-4.81-32.63,15.84-.31,31.69-.61,47.53-.92,.19,3.9,.39,7.81,.58,11.71,2.03,.11,4.07,.22,6.1,.33Z"/>
      <path class="cls-13" d="M11.61,171.17c3.31-3.02,6.62-6.04,9.93-9.06-.11-5.75-.21-11.5-.32-17.25,20.98-1.76,41.97-3.52,62.95-5.27,2.35,15.97,4.71,31.95,7.06,47.92-23.27,.45-46.54,.9-69.81,1.35-.28-5.73-.57-11.47-.85-17.2-2.99-.16-5.97-.32-8.96-.48Z"/>
      <path class="cls-13" d="M64.35,119.87c4.29,3.61,8.59,7.22,12.88,10.84-1.16-4.7-2.32-9.39-3.48-14.09,2.57-.38,5.15-.76,7.72-1.15,.37-13.82,.73-27.64,1.1-41.46-32.53-.05-65.06-.11-97.59-.16,1.32,18.07,2.64,36.15,3.96,54.22,25.14-2.73,50.27-5.47,75.41-8.2Z"/>
      <g>
        <circle class="cls-18" cx="134.4" cy="117.11" r="37.62"/>
        <path class="cls-8" d="M134.49,158.47c-1.69,0-3.39-.1-5.09-.31-10.96-1.34-20.75-6.87-27.56-15.56-6.81-8.7-9.82-19.53-8.48-30.49,2.76-22.64,23.43-38.8,46.06-36.04,10.96,1.34,20.75,6.87,27.56,15.56s9.82,19.53,8.48,30.49c-1.34,10.96-6.87,20.75-15.56,27.56-7.35,5.75-16.22,8.79-25.4,8.79Zm-.11-75.25c-16.87,0-31.52,12.62-33.61,29.79-1.1,8.99,1.37,17.86,6.95,24.99,5.58,7.13,13.6,11.66,22.58,12.75,8.99,1.09,17.86-1.37,24.99-6.95,7.13-5.58,11.66-13.6,12.75-22.58h0c2.26-18.55-10.99-35.48-29.53-37.74-1.39-.17-2.76-.25-4.13-.25Z"/>
        <rect class="cls-8" x="168.1" y="155.77" width="17.97" height="59.17" transform="translate(-70.86 120.24) rotate(-31.59)"/>
        <rect class="cls-8" x="157.46" y="147.11" width="7.73" height="25.46" transform="translate(-59.83 108.21) rotate(-31.59)"/>
        <path class="cls-7" d="M151.02,95.3c13.16,8.57,15.82,25.69,6.31,38.1-2.89,3.82-6.7,6.92-10.98,9,3.83-2.7,7.2-5.97,9.79-9.85,8.41-12.43,6.02-27.34-5.12-37.25h0Z"/>
      </g>
      <g>
        <path class="cls-9" d="M66.02,36.55l-1.81,1.81-1.81-1.81-1.79,1.81-1.81-1.81-1.81,1.81-1.81-1.81-1.81,1.81-1.81-1.81,1.81-1.81,1.81,1.79,1.81-1.79,1.81,1.79,1.81-1.79,1.79,1.79,1.81-1.79,1.81,1.81Zm-8.81-8.6h-4.86l-.56-.32,.33-1.92,.44,.26h4.65v-1.72h3.19v1.72h4.65l.44-.26,.33,1.92-.56,.32h-4.86v6.38h-3.19v-6.38Zm-2.43,6.75l-2.84-.74,1.49-5.71,2.84,.74-1.49,5.71Zm6.55-5.71l2.84-.74,1.49,5.71-2.84,.74-1.49-5.71Z"/>
        <path class="cls-9" d="M75,25.38v12.61h-3.39l-.55-.32,.33-1.9,.44,.26h.12v-8.68h-.58c-.19,3.71-.4,7.29-.64,10.76l-2.87-.18c.26-4.05,.47-7.58,.61-10.58h-.43l-.55-.32,.33-1.92,.44,.26h.3l.04-1.12,2.89,.14-.04,.99h3.53Zm6.49-.59v13.07h-5.82v-10.64h2.55v8.66h.71v-9.13h-3.04l-.55-.32,.33-1.9,.44,.26h5.36Z"/>
        <path class="cls-9" d="M85.87,28.23l-1.61,.62-.73-1.92c2.41-.91,4.71-1.84,6.91-2.78l.39-.18,.41,.18c2.2,.94,4.5,1.87,6.91,2.78l-.73,1.92-1.2-.46-1.35,2.89-2.86-.42,.41-.82h-6.34l-.5-.29,.27-1.52Zm6.56,5.32v1.76l5.39,1.09-.44,1.85-6.53-1.31-6.53,1.31-.46-1.85,5.38-1.09v-1.76h3.19Zm4.36,1.88h-3.04v-2.26h-8.54l-.5-.29,.3-1.7,.4,.23h11.38v4.03Zm-11.91,.01v-2h3.04v2h-3.04Zm1.2-7.29l.21,.12h3.1v-1.08h2.89v1.08h3.65c-1.85-.72-3.55-1.41-5.09-2.07-1.8,.77-3.39,1.42-4.76,1.94Z"/>
        <path class="cls-9" d="M99.72,26.29l1.97-1.97,1.97,1.97-1.97,1.98-1.97-1.98Zm0,4.18l1.97-1.98,1.97,1.98-1.97,1.99-1.97-1.99Zm.02,7.38l.65-5.17,2.83,.33-.64,5.17-2.84-.33Zm13.81-7.57h-5.07l-.12,1.55h5.14v6.11h-5.91l-.56-.33,.35-1.9,.44,.26h2.34v-2.16h-5.23l.26-3.53h-.79l-.56-.32,.35-1.92,.44,.26h8.72l.44-.26,.33,1.92-.56,.32Zm-.55-3.72h-8.14l-.55-.32,.33-1.9,.44,.26h7.69l.44-.26,.33,1.9-.55,.32Z"/>
        <path class="cls-9" d="M120.41,28.42h-.59v3.19h.38l.44-.26,.33,1.92-.56,.32h-.59v4.42h-3.4l-.56-.32,.33-1.92,.44,.26h.15v-2.45h-.87v-1.98h.87v-3.19h-.52l-.56-.32,.33-1.92,.44,.26h.3v-1.98h3.04v1.98h.38l.44-.26,.33,1.92-.56,.32Zm9,2.35v6.82l-.53,.32h-7.58v-4.85h3.04v2.95h2.04v-.73h-1.64v-1.88h1.64v-.73h-4.7l-.53-.32,.32-1.82,.43,.24h7.52Zm-8.04-.87v-5.56h3.19v.79h4.21l.44-.26,.33,1.92-.56,.32h-4.42v.83h4.39l.44-.26,.33,1.9-.56,.32h-7.79Z"/>
        <path class="cls-9" d="M135.73,31.53l.44-.26,.33,1.91-.55,.32h-.41v4.47h-3.18l-.56-.33,.33-1.9,.44,.26v-2.49h-.71v-1.98h.71v-3.19h-.37l-.56-.32,.33-1.91,.44,.26h.15v-1.93h2.96v1.93h.18l.44-.26,.33,1.91-.55,.32h-.41v3.19h.18Zm1.46-.41l-.73-1.94,3.86-1.44,.73,1.95-3.86,1.44Zm7.82,4.85l.44-.26,.33,1.91-.55,.32h-8.01l-.56-.32,.33-1.91,.46,.26h1.78v-2.34h-1.75l-.56-.32,.33-1.92,.44,.26h7.05l.44-.26,.33,1.92-.55,.32h-2.4v2.34h2.43Zm-5.03-8.93v.61h-3.19v-2.58h2.73v-.7h3.34v.7h2.75v2.26l-.56,.32h-2.63v-.61h-2.45Zm1.34,2.64l.73-1.95,3.86,1.44-.73,1.94-3.86-1.44Z"/>
      </g>
    </g>
    <g>
      <polygon class="cls-14" points="30.8 71.58 67.13 74.24 67.74 109.96 24.84 106.73 30.8 71.58"/>
      <g>
        <polygon class="cls-16" points="67.37 88.72 73.86 87.89 73.21 97.93 67.52 97.43 67.37 88.72"/>
        <path class="cls-1" d="M67.47,94.16s1.02-1.79,2.1-2.67c1.08-.88,2.54-1.33,2.54-1.33"/>
      </g>
      <g>
        <polygon class="cls-16" points="28.42 85.7 22.18 83.75 21.07 93.75 26.95 94.27 28.42 85.7"/>
        <path class="cls-1" d="M27.38,91.04s-.7-1.94-1.6-3-2.27-1.75-2.27-1.75"/>
      </g>
      <path class="cls-9" d="M67.37,88.72l4.6-.59,3.18-20.47s-33.49-9.28-34.8-9.85-2.49-1.29-3.38-1.77c-.89-.48-2.83-1.83-2.83-1.83l2.18,5.03-11.74,8.44,.6,17.01,3.23,1.01,2.38-14.11,36.33,2.66,.24,14.48Z"/>
      <polygon class="cls-9" points="63.38 84.82 64.25 82.1 57.18 81.48 56 83.07 63.38 84.82"/>
      <polygon class="cls-9" points="31.81 81.01 31.6 78.17 38.62 79.23 39.39 81.06 31.81 81.01"/>
      <polygon class="cls-6" points="43.39 82.51 48.6 82.96 47.51 95.34 38.62 94.94 40.05 90.46 42.66 90.21 43.39 82.51"/>
      <path class="cls-4" d="M31.45,88.78s1.14-1.88,3.46-1.49,2.97,2.06,2.97,2.06"/>
      <path class="cls-4" d="M55.8,90.93s1.14-1.88,3.46-1.49,2.97,2.06,2.97,2.06"/>
      <polygon class="cls-9" points="25.86 98.63 29.34 103.96 62.16 106.66 67.74 100.31 68.18 110.36 50.63 109.36 50.45 111.39 42.86 110.72 42.14 108.73 24.48 106.94 25.86 98.63"/>
      <path class="cls-17" d="M43.27,100.17l5.01-.06s-.33,2.28-2.44,2.2-2.57-2.14-2.57-2.14Z"/>
      <path class="cls-6" d="M67.36,95.36s-4.32-2.46-8.82,1.33c-4.5,3.79-2.74,9.45-2.74,9.45"/>
      <path class="cls-6" d="M27.25,92.52s3.68,1.28,5.96,4.25,1.72,7.65,1.72,7.65"/>
      <polygon class="cls-9" points="33.36 97.07 40.75 93.26 45.49 94.53 50.86 93.76 56.99 99.16 46.71 99 45.27 97.12 43.44 98.89 33.36 97.07"/>
    </g>
    <g>
      <path class="cls-10" d="M81.99,163.37s-8.82,9.65-19.43,13.87c-10.6,4.22-26.74,3.94-26.74,3.94l-5.05-15.61s8.45-.43,17.7-4.8c5.96-2.82,14.58-14.36,14.58-14.36l18.94,16.96Z"/>
      <path class="cls-12" d="M52.22,165.18c4.65-1.63,8.69-3.04,9.7-1.68,1.1,1.49-1.38,6.35-5.37,8.2-5.1,2.38-11.88-.54-11.94-2.51-.04-1.34,3.02-2.41,7.61-4.02Z"/>
      <path class="cls-2" d="M76.85,163.24l-13.52-12.7s-9,10.31-13.14,11.98c-4.15,1.68-17.13,4.7-17.13,4.7l4.6,11.65s11.7-.77,20.73-3.49c9.03-2.71,18.47-12.15,18.47-12.15Z"/>
    </g>
  </g>
  <g>
    <path class="cls-7" d="M37.33,225.93l-.48,.17-1-2.56,5.84-2.28,1,2.56-3.91,1.52h14.28l-3.91-1.52,1-2.56,5.86,2.28-1,2.56-.61-.22v7.18l-.87,.52h-16.06v-5.62h4.95v3.39h7.05v-.76h-6.27v-2.26h6.27v-.74h-11.76l-.63-.37,.24-1.3Zm17.52,8.42l.56-.33,.43,2.43-.72,.41h-18.38l-.69-.41,.41-2.43,.56,.33h17.82Zm-11.29-13.26h-6.47l-.76-.43,.46-2.58,.61,.35h6.16v-1.08h4.78v1.08h6.16l.61-.35,.46,2.58-.76,.43h-6.47v3.69h-4.78v-3.69Z"/>
    <path class="cls-7" d="M63.98,234.16l.61-.35,.43,2.56-.74,.41h-4.84v-10.4h-.26l-.78-.46,.48-2.71,.63,.37h4.28v10.57h.2Zm.2-13.96l-2.65,2.67-2.67-2.67,2.67-2.65,2.65,2.65Zm14.46,13.46l.48,2.73-.78,.46h-12.31l-.8-.46,.48-2.73,.63,.37h.09v-11.33h3.86v11.33h1.28v-13.35h-5.32l-.8-.46,.48-2.73,.63,.37h11.2l.63-.37,.48,2.73-.8,.46h-1.93v4.95h1.37l.65-.37,.48,2.71-.8,.48h-1.69v5.58h1.89l.63-.37Z"/>
    <path class="cls-7" d="M100.75,229.53l.46-.26,.35,2-.59,.33h-.74v2.34l-.8,.46h-5.67v2.5h-7.34l-.5-.26,.3-1.69,.39,.24h2.8v-.78h-6.6l-.56-.33,.35-2,.46,.28h6.36v-.76h-7.51l-.59-.33,.35-2,.48,.26h7.27v-.74h-6.6l-.56-.35,.35-1.98,.46,.26h6.36v-.67h-6.53v-2.41h4.56v.35h1.98v-.65h-6.27l-.56-.35,.35-1.98,.46,.26h6.03v-.69h-7.51l-.59-.33,.35-2,.48,.26h7.27v-1.24h4.34v1.24h6.99l.46-.26,.35,2-.59,.33h-7.21v.69h6.29v4.32l-.8,.46h-5.49v.67h6.47v2.8h.52Zm-6.99-6.19v.65h1.95v-.65h-1.95Zm0,5.45v.74h2.34v-.74h-2.34Zm2.34,3.56v-.76h-2.34v.76h2.34Z"/>
    <path class="cls-7" d="M123.71,232.46h-4.91c1.65,.78,3.5,1.44,5.56,1.98l-1.52,3.1c-2.27-.61-4.32-1.34-6.14-2.19-.96-.48-1.75-.92-2.39-1.32-.64,.41-1.43,.85-2.39,1.32-1.82,.85-3.87,1.58-6.14,2.19l-1.52-3.1c2.1-.55,3.94-1.21,5.54-1.98h-4.73l-.8-.46,.5-2.74,.63,.37h8.44l1.93-6.79,4.58,1.11-1.61,5.69h4.64l.65-.37,.48,2.74-.8,.46Zm-14.93-10.83v2.02h-4.38v-4.84h7.53v-1.41h4.78v1.41h7.53v4.38l-.8,.46h-3.58v-2.02h-11.07Zm-2.54,5.99l.89-2.39,4.91,1.82-.89,2.39-4.91-1.82Zm8.38-3.21l-.89,2.39-4.88-1.82,.89-2.39,4.88,1.82Z"/>
    <path class="cls-7" d="M137.12,232.4c.54,.52,.8,1.16,.8,1.91s-.27,1.39-.8,1.91c-.52,.54-1.16,.8-1.91,.8s-1.39-.27-1.91-.8c-.54-.52-.8-1.16-.8-1.91s.27-1.39,.8-1.91c.52-.54,1.16-.8,1.91-.8s1.39,.27,1.91,.8Zm.48-14.59v12.96h-4.78v-12.96h4.78Z"/>
  </g>
</svg>