<?xml version="1.0" encoding="UTF-8"?>
<svg id="Layer_2" data-name="Layer 2" xmlns="http://www.w3.org/2000/svg" xmlns:xlink="http://www.w3.org/1999/xlink" viewBox="0 0 192.07 273.58">
  <defs>
    <style>
      .cls-1 {
        fill: #fff;
      }

      .cls-2 {
        fill: #edeeea;
      }

      .cls-3 {
        fill: #363636;
      }

      .cls-4 {
        fill: #eeb2ff;
      }

      .cls-5 {
        fill: #3ba45b;
      }

      .cls-6 {
        fill: #f7f2dc;
      }

      .cls-7 {
        fill: #fce9ca;
      }

      .cls-8 {
        fill: #ab7a5a;
      }

      .cls-9 {
        clip-path: url(#clippath);
      }

      .cls-10 {
        fill: none;
      }

      .cls-11 {
        fill: #9e6647;
      }

      .cls-12 {
        fill: #b72c2c;
      }

      .cls-13 {
        fill: #e08bfc;
      }

      .cls-14 {
        fill: #4ea978;
      }

      .cls-15 {
        fill: #d46cff;
      }
    </style>
    <clipPath id="clippath">
      <rect class="cls-10" x="18.76" y="18.41" width="160.53" height="198.84" rx="14.3" ry="14.3"/>
    </clipPath>
  </defs>
  <rect class="cls-5" x="12.35" y="11.24" width="173.34" height="246.49" rx="13.2" ry="13.2"/>
  <g>
    <path class="cls-1" d="M37.53,228.68v3.21h-6.41v3.47h4.8v3.12h-4.8v6.66h-3.83v-16.45h10.24Z"/>
    <path class="cls-1" d="M40.63,235.03c.49-1.02,1.15-1.8,1.98-2.34,.84-.55,1.77-.82,2.8-.82,.88,0,1.65,.19,2.32,.56,.66,.38,1.18,.87,1.54,1.48v-1.85h3.83v13.08h-3.83v-1.85c-.37,.61-.89,1.1-1.56,1.48s-1.44,.56-2.32,.56c-1.02,0-1.94-.28-2.78-.83-.84-.55-1.5-1.34-1.98-2.37-.49-1.02-.73-2.21-.73-3.55s.24-2.52,.73-3.54Zm7.84,1.2c-.53-.58-1.18-.87-1.94-.87s-1.41,.29-1.94,.86c-.53,.57-.8,1.36-.8,2.36s.26,1.79,.8,2.38c.53,.59,1.18,.88,1.94,.88s1.41-.29,1.94-.87c.53-.58,.8-1.37,.8-2.37s-.27-1.79-.8-2.37Z"/>
    <path class="cls-1" d="M57.03,235.03c.53-1.02,1.27-1.8,2.22-2.34,.95-.55,2.04-.82,3.26-.82,1.57,0,2.88,.43,3.93,1.29,1.05,.86,1.74,2.07,2.07,3.63h-4.08c-.34-1-1.01-1.5-2-1.5-.7,0-1.26,.29-1.68,.86-.42,.57-.63,1.39-.63,2.45s.21,1.88,.63,2.45c.42,.57,.98,.86,1.68,.86,.99,0,1.65-.5,2-1.5h4.08c-.33,1.53-1.02,2.73-2.08,3.61-1.06,.88-2.37,1.31-3.92,1.31-1.22,0-2.31-.27-3.26-.82-.95-.55-1.69-1.33-2.22-2.34s-.8-2.2-.8-3.56,.27-2.55,.8-3.56Z"/>
    <path class="cls-1" d="M78.64,241.73v3.4h-1.95c-1.39,0-2.47-.36-3.25-1.07-.78-.71-1.17-1.87-1.17-3.48v-5.2h-1.52v-3.33h1.52v-3.19h3.83v3.19h2.51v3.33h-2.51v5.25c0,.39,.09,.67,.27,.84,.18,.17,.48,.26,.9,.26h1.37Z"/>
    <path class="cls-1" d="M88.12,232.53c.67-1.27,1.61-2.26,2.81-2.98,1.2-.71,2.57-1.07,4.09-1.07,1.87,0,3.47,.52,4.79,1.55,1.33,1.03,2.22,2.44,2.67,4.22h-4.21c-.31-.69-.76-1.21-1.33-1.57s-1.23-.54-1.96-.54c-1.18,0-2.14,.43-2.87,1.29-.73,.86-1.1,2.01-1.1,3.45s.37,2.59,1.1,3.44c.73,.86,1.69,1.29,2.87,1.29,.73,0,1.39-.18,1.96-.54,.58-.36,1.02-.88,1.33-1.57h4.21c-.45,1.78-1.34,3.18-2.67,4.21-1.33,1.02-2.93,1.54-4.79,1.54-1.52,0-2.89-.36-4.09-1.07-1.2-.71-2.14-1.7-2.81-2.96-.67-1.27-1.01-2.71-1.01-4.33s.34-3.07,1.01-4.35Z"/>
    <path class="cls-1" d="M117.1,233.4c.87,.99,1.3,2.36,1.3,4.09v7.64h-3.81v-7.1c0-.88-.22-1.55-.65-2.04s-1.02-.73-1.75-.73-1.32,.24-1.75,.73c-.43,.48-.65,1.16-.65,2.04v7.1h-3.83v-17.34h3.83v6.02c.39-.58,.92-1.04,1.59-1.38,.67-.34,1.43-.52,2.26-.52,1.43,0,2.58,.5,3.45,1.49Z"/>
    <path class="cls-1" d="M133.9,239.55h-8.67c.06,.81,.31,1.43,.75,1.86,.44,.43,.98,.64,1.62,.64,.96,0,1.62-.42,2-1.27h4.08c-.21,.86-.59,1.63-1.13,2.32-.55,.69-1.23,1.23-2.05,1.62-.82,.39-1.74,.59-2.76,.59-1.22,0-2.32-.27-3.27-.82s-1.7-1.33-2.24-2.34c-.54-1.02-.81-2.2-.81-3.56s.27-2.55,.8-3.56,1.27-1.8,2.23-2.34,2.05-.82,3.29-.82,2.29,.27,3.23,.8c.94,.53,1.68,1.29,2.21,2.27s.8,2.13,.8,3.45c0,.38-.02,.77-.07,1.17Zm-3.85-2.23c0-.69-.22-1.23-.67-1.64s-1.01-.61-1.68-.61-1.18,.2-1.62,.59c-.44,.39-.71,.95-.82,1.66h4.8Z"/>
    <path class="cls-1" d="M137.14,235.03c.53-1.02,1.27-1.8,2.22-2.34,.95-.55,2.04-.82,3.26-.82,1.57,0,2.88,.43,3.93,1.29,1.05,.86,1.74,2.07,2.07,3.63h-4.08c-.34-1-1.01-1.5-2-1.5-.7,0-1.26,.29-1.68,.86-.42,.57-.63,1.39-.63,2.45s.21,1.88,.63,2.45c.42,.57,.98,.86,1.68,.86,.99,0,1.65-.5,2-1.5h4.08c-.33,1.53-1.02,2.73-2.08,3.61-1.06,.88-2.37,1.31-3.92,1.31-1.22,0-2.31-.27-3.26-.82-.95-.55-1.69-1.33-2.22-2.34s-.8-2.2-.8-3.56,.27-2.55,.8-3.56Z"/>
    <path class="cls-1" d="M159.42,245.13l-3.81-5.48v5.48h-3.83v-17.34h3.83v9.58l3.79-5.32h4.73l-5.2,6.56,5.24,6.51h-4.75Z"/>
    <path class="cls-1" d="M168.13,244.7c-.43-.41-.64-.93-.64-1.54s.21-1.15,.64-1.57,.97-.63,1.65-.63,1.2,.21,1.62,.63,.64,.95,.64,1.57-.21,1.12-.64,1.54-.97,.62-1.62,.62-1.22-.21-1.65-.62Zm3.66-16.6l-.45,11.23h-3.25l-.45-11.23h4.15Z"/>
  </g>
  <rect class="cls-4" x="18.76" y="18.41" width="160.53" height="198.84" rx="14.3" ry="14.3"/>
  <g class="cls-9">
    <g>
      <path class="cls-14" d="M125.14,168.41c4.29,3.61,8.59,7.22,12.88,10.84-1.16-4.7-2.32-9.39-3.48-14.09,2.57-.38,5.15-.76,7.72-1.15,.37-13.82,.73-27.64,1.1-41.46-32.53-.05-65.06-.11-97.59-.16,1.32,18.07,2.64,36.15,3.96,54.22,25.14-2.73,50.27-5.47,75.41-8.2Z"/>
      <rect class="cls-2" x="34.68" y="28.88" width="135.44" height="25.88" rx="12.94" ry="12.94"/>
      <g>
        <path class="cls-3" d="M47.08,46.95c-3.33,0-6.04-2.71-6.04-6.04s2.71-6.04,6.04-6.04,6.04,2.71,6.04,6.04-2.71,6.04-6.04,6.04Zm0-9.76c-2.05,0-3.71,1.67-3.71,3.71s1.67,3.71,3.71,3.71,3.71-1.67,3.71-3.71-1.67-3.71-3.71-3.71Z"/>
        <rect class="cls-3" x="51.8" y="43.3" width="2.33" height="6.71" transform="translate(-17.57 49.25) rotate(-43.48)"/>
      </g>
      <path class="cls-14" d="M130.34,82.99c-2.25,2.06-4.51,4.11-6.76,6.17,.07,3.92,.14,7.83,.22,11.75-14.29,1.2-28.57,2.39-42.86,3.59-1.6-10.88-3.21-21.75-4.81-32.63,15.84-.31,31.69-.61,47.53-.92,.19,3.9,.39,7.81,.58,11.71,2.03,.11,4.07,.22,6.1,.33Z"/>
      <path class="cls-7" d="M23.61,182.4c3.31-3.02,6.62-6.04,9.93-9.06-.11-5.75-.21-11.5-.32-17.25,20.98-1.76,41.97-3.52,62.95-5.27,2.35,15.97,4.71,31.95,7.06,47.92-23.27,.45-46.54,.9-69.81,1.35-.28-5.73-.57-11.47-.85-17.2-2.99-.16-5.97-.32-8.96-.48Z"/>
      <path class="cls-7" d="M76.35,131.11c4.29,3.61,8.59,7.22,12.88,10.84-1.16-4.7-2.32-9.39-3.48-14.09,2.57-.38,5.15-.76,7.72-1.15,.37-13.82,.73-27.64,1.1-41.46-32.53-.05-65.06-.11-97.59-.16C-1.7,103.16-.38,121.24,.94,139.31c25.14-2.73,50.27-5.47,75.41-8.2Z"/>
      <g>
        <circle class="cls-13" cx="146.4" cy="128.34" r="37.62"/>
        <path class="cls-2" d="M146.49,169.7c-1.69,0-3.39-.1-5.09-.31-10.96-1.34-20.75-6.87-27.56-15.56-6.81-8.7-9.82-19.53-8.48-30.49,2.76-22.64,23.43-38.8,46.06-36.04,10.96,1.34,20.75,6.87,27.56,15.56s9.82,19.53,8.48,30.49c-1.34,10.96-6.87,20.75-15.56,27.56-7.35,5.75-16.22,8.79-25.4,8.79Zm-.11-75.25c-16.87,0-31.52,12.62-33.61,29.79-1.1,8.99,1.37,17.86,6.95,24.99,5.58,7.13,13.6,11.66,22.58,12.75,8.99,1.09,17.86-1.37,24.99-6.95,7.13-5.58,11.66-13.6,12.75-22.58h0c2.26-18.55-10.99-35.48-29.53-37.74-1.39-.17-2.76-.25-4.13-.25Z"/>
        <rect class="cls-2" x="180.1" y="167.01" width="17.97" height="59.17" transform="translate(-74.97 128.19) rotate(-31.59)"/>
        <rect class="cls-2" x="169.47" y="158.35" width="7.73" height="25.46" transform="translate(-63.94 116.16) rotate(-31.59)"/>
        <path class="cls-1" d="M163.02,106.53c13.16,8.57,15.82,25.7,6.31,38.1-2.89,3.82-6.7,6.92-10.98,9,3.83-2.7,7.2-5.97,9.79-9.85,8.41-12.43,6.02-27.34-5.12-37.25h0Z"/>
      </g>
      <g>
        <path d="M64.82,39.27v2.94c0,.54-.14,.96-.43,1.24s-.68,.42-1.2,.42c-.55,0-.99-.15-1.32-.46-.33-.3-.49-.75-.49-1.33h1.41c0,.18,.03,.31,.09,.39,.06,.08,.14,.11,.24,.11,.09,0,.15-.03,.2-.08s.07-.15,.07-.29v-2.94h1.42Z"/>
        <path d="M69.24,42.26h-2.29c.02,.31,.15,.47,.39,.47,.15,0,.27-.07,.33-.21h1.51c-.05,.26-.16,.49-.33,.69s-.37,.36-.62,.48c-.25,.12-.53,.18-.83,.18-.36,0-.68-.07-.96-.23-.28-.15-.5-.37-.66-.65s-.23-.61-.23-.99,.08-.71,.23-.99,.38-.5,.66-.65c.28-.15,.6-.23,.96-.23s.68,.07,.96,.22,.5,.36,.66,.63c.16,.27,.23,.6,.23,.97,0,.1,0,.19-.02,.28Zm-1.43-.62c0-.12-.04-.21-.12-.27-.08-.06-.17-.09-.29-.09-.25,0-.4,.12-.44,.37h.85Z"/>
        <path d="M71.95,40.3c.17,.1,.3,.23,.39,.4v-.5h1.42v3.56c0,.34-.06,.65-.19,.93-.12,.28-.33,.5-.6,.67-.28,.17-.63,.25-1.06,.25-.58,0-1.04-.14-1.39-.41-.34-.27-.54-.64-.58-1.11h1.4c.04,.19,.19,.28,.46,.28,.17,0,.3-.04,.39-.13,.09-.09,.14-.25,.14-.48v-.43c-.09,.17-.22,.3-.39,.4-.17,.1-.38,.14-.61,.14-.28,0-.54-.07-.77-.22-.23-.15-.41-.36-.54-.64-.13-.28-.2-.61-.2-.99s.07-.71,.2-.99c.13-.28,.31-.49,.54-.64,.23-.15,.48-.22,.77-.22,.24,0,.44,.05,.61,.15Zm.24,1.26c-.1-.11-.22-.16-.38-.16s-.28,.05-.38,.16c-.1,.11-.15,.26-.15,.45s.05,.34,.15,.45c.1,.11,.23,.16,.38,.16s.28-.05,.38-.16c.1-.11,.15-.26,.15-.45s-.05-.34-.15-.45Z"/>
        <path d="M74.73,41.02c.13-.28,.31-.49,.54-.64,.23-.15,.48-.22,.77-.22,.24,0,.44,.05,.61,.15,.17,.1,.3,.23,.39,.4v-.5h1.42v3.63h-1.42v-.5c-.09,.17-.22,.3-.39,.4-.17,.1-.38,.14-.61,.14-.28,0-.54-.07-.77-.22-.23-.15-.41-.36-.54-.64-.13-.28-.2-.61-.2-.99s.07-.71,.2-.99Zm2.16,.54c-.1-.11-.22-.16-.38-.16s-.28,.05-.38,.16c-.1,.11-.15,.26-.15,.45s.05,.34,.15,.45c.1,.11,.23,.16,.38,.16s.28-.05,.38-.16c.1-.11,.15-.26,.15-.45s-.05-.34-.15-.45Z"/>
        <path d="M80.88,41.03c.16-.28,.38-.5,.66-.65,.28-.15,.6-.23,.96-.23,.47,0,.87,.13,1.19,.4s.53,.63,.61,1.11h-1.51c-.06-.19-.17-.28-.33-.28-.12,0-.21,.05-.27,.16-.07,.11-.1,.27-.1,.48s.03,.37,.1,.48c.07,.11,.16,.16,.27,.16,.16,0,.27-.09,.33-.28h1.51c-.09,.47-.29,.84-.61,1.11s-.72,.4-1.19,.4c-.36,0-.68-.07-.96-.23-.28-.15-.5-.37-.66-.65s-.23-.61-.23-.99,.08-.71,.23-.99Z"/>
        <path d="M85.81,43.65c-.29-.15-.52-.37-.68-.65s-.25-.61-.25-.99,.08-.71,.25-.99,.39-.5,.68-.65c.29-.15,.62-.23,.98-.23s.69,.08,.98,.23c.29,.15,.52,.37,.68,.65s.25,.61,.25,.99-.08,.71-.25,.99-.39,.5-.68,.65c-.29,.15-.62,.23-.98,.23s-.69-.07-.98-.23Zm1.32-1.17c.09-.1,.13-.26,.13-.47s-.04-.36-.13-.47-.2-.16-.33-.16-.25,.05-.33,.16-.13,.26-.13,.47,.04,.36,.13,.47c.09,.11,.2,.16,.34,.16s.24-.05,.33-.16Z"/>
        <path d="M91.44,40.36c.21-.13,.43-.19,.66-.19v1.52h-.41c-.27,0-.47,.05-.59,.14-.13,.09-.19,.26-.19,.5v1.49h-1.43v-3.63h1.43v.67c.15-.21,.32-.38,.53-.5Z"/>
        <path d="M94.77,40.36c.21-.13,.43-.19,.66-.19v1.52h-.41c-.27,0-.47,.05-.59,.14-.13,.09-.19,.26-.19,.5v1.49h-1.43v-3.63h1.43v.67c.15-.21,.32-.38,.53-.5Z"/>
        <path d="M99.97,40.2v3.63h-1.43v-.55c-.11,.17-.26,.31-.45,.42-.19,.11-.41,.16-.67,.16-.42,0-.74-.14-.97-.42-.23-.28-.35-.66-.35-1.13v-2.1h1.42v1.92c0,.17,.05,.31,.14,.41,.09,.1,.22,.15,.37,.15s.28-.05,.37-.15,.13-.24,.13-.41v-1.92h1.43Z"/>
        <path d="M102.75,40.3c.17-.1,.37-.15,.61-.15,.28,0,.54,.07,.77,.22,.23,.15,.41,.36,.54,.64,.13,.28,.2,.61,.2,.99s-.07,.71-.2,.99-.31,.5-.54,.64c-.23,.15-.48,.22-.77,.22-.24,0-.44-.05-.61-.14-.17-.1-.3-.23-.39-.4v2.23h-1.43v-5.36h1.43v.5c.09-.17,.22-.3,.39-.4Zm.51,1.26c-.1-.11-.22-.16-.38-.16s-.28,.05-.38,.16c-.1,.11-.15,.26-.15,.45s.05,.34,.15,.45c.1,.11,.22,.16,.38,.16s.28-.05,.38-.16c.1-.11,.15-.26,.15-.45s-.05-.34-.15-.45Z"/>
        <path d="M107.89,42.61v1.22h-.54c-.99,0-1.49-.5-1.49-1.49v-.95h-.45v-1.19h.45v-.87h1.43v.87h.59v1.19h-.59v.98c0,.09,.02,.15,.06,.19,.04,.04,.11,.06,.2,.06h.34Z"/>
        <path d="M108.88,39.71c-.15-.13-.22-.3-.22-.5s.08-.38,.22-.51c.15-.13,.35-.2,.6-.2s.44,.07,.59,.2c.15,.14,.23,.31,.23,.51s-.08,.37-.23,.5c-.15,.13-.35,.2-.59,.2s-.45-.07-.6-.2Zm1.31,.49v3.63h-1.43v-3.63h1.43Z"/>
        <path d="M111.88,43.65c-.29-.15-.52-.37-.68-.65s-.25-.61-.25-.99,.08-.71,.25-.99,.39-.5,.68-.65c.29-.15,.62-.23,.98-.23s.69,.08,.98,.23c.29,.15,.52,.37,.68,.65s.25,.61,.25,.99-.08,.71-.25,.99-.39,.5-.68,.65c-.29,.15-.62,.23-.98,.23s-.69-.07-.98-.23Zm1.32-1.17c.09-.1,.13-.26,.13-.47s-.04-.36-.13-.47-.2-.16-.33-.16-.25,.05-.33,.16-.13,.26-.13,.47,.04,.36,.13,.47c.09,.11,.2,.16,.34,.16s.24-.05,.33-.16Z"/>
        <path d="M119.07,40.59c.23,.28,.35,.66,.35,1.13v2.1h-1.42v-1.92c0-.17-.05-.31-.14-.41-.09-.1-.21-.15-.37-.15s-.28,.05-.37,.15-.13,.24-.13,.41v1.92h-1.43v-3.63h1.43v.55c.11-.17,.26-.31,.45-.42,.19-.11,.41-.16,.67-.16,.42,0,.74,.14,.97,.42Z"/>
        <path d="M121.78,41.02c.13-.28,.31-.49,.54-.64,.23-.15,.48-.22,.77-.22,.24,0,.44,.05,.61,.15,.17,.1,.3,.23,.39,.4v-.5h1.42v3.63h-1.42v-.5c-.09,.17-.22,.3-.39,.4-.17,.1-.38,.14-.61,.14-.28,0-.54-.07-.77-.22-.23-.15-.41-.36-.54-.64-.13-.28-.2-.61-.2-.99s.07-.71,.2-.99Zm2.16,.54c-.1-.11-.22-.16-.38-.16s-.28,.05-.38,.16c-.1,.11-.15,.26-.15,.45s.05,.34,.15,.45c.1,.11,.23,.16,.38,.16s.28-.05,.38-.16c.1-.11,.15-.26,.15-.45s-.05-.34-.15-.45Z"/>
        <path d="M127.89,39.07v4.76h-1.43v-4.76h1.43Z"/>
        <path d="M130.29,39.07v4.76h-1.43v-4.76h1.43Z"/>
        <path d="M134.74,42.26h-2.29c.02,.31,.15,.47,.39,.47,.15,0,.27-.07,.33-.21h1.51c-.05,.26-.16,.49-.33,.69s-.37,.36-.62,.48c-.25,.12-.53,.18-.83,.18-.36,0-.68-.07-.96-.23-.28-.15-.5-.37-.66-.65s-.23-.61-.23-.99,.08-.71,.23-.99,.38-.5,.66-.65c.28-.15,.6-.23,.96-.23s.68,.07,.96,.22,.5,.36,.66,.63c.16,.27,.23,.6,.23,.97,0,.1,0,.19-.02,.28Zm-1.43-.62c0-.12-.04-.21-.12-.27-.08-.06-.17-.09-.29-.09-.25,0-.4,.12-.44,.37h.85Z"/>
        <path d="M137.45,40.3c.17,.1,.3,.23,.39,.4v-.5h1.42v3.56c0,.34-.06,.65-.19,.93-.12,.28-.33,.5-.6,.67-.28,.17-.63,.25-1.06,.25-.58,0-1.04-.14-1.39-.41-.34-.27-.54-.64-.58-1.11h1.4c.04,.19,.19,.28,.46,.28,.17,0,.3-.04,.39-.13,.09-.09,.14-.25,.14-.48v-.43c-.09,.17-.22,.3-.39,.4-.17,.1-.38,.14-.61,.14-.28,0-.54-.07-.77-.22-.23-.15-.41-.36-.54-.64-.13-.28-.2-.61-.2-.99s.07-.71,.2-.99c.13-.28,.31-.49,.54-.64,.23-.15,.48-.22,.77-.22,.24,0,.44,.05,.61,.15Zm.24,1.26c-.1-.11-.22-.16-.38-.16s-.28,.05-.38,.16c-.1,.11-.15,.26-.15,.45s.05,.34,.15,.45c.1,.11,.23,.16,.38,.16s.28-.05,.38-.16c.1-.11,.15-.26,.15-.45s-.05-.34-.15-.45Z"/>
        <path d="M140.23,41.02c.13-.28,.31-.49,.54-.64,.23-.15,.48-.22,.77-.22,.24,0,.44,.05,.61,.15,.17,.1,.3,.23,.39,.4v-.5h1.42v3.63h-1.42v-.5c-.09,.17-.22,.3-.39,.4-.17,.1-.38,.14-.61,.14-.28,0-.54-.07-.77-.22-.23-.15-.41-.36-.54-.64-.13-.28-.2-.61-.2-.99s.07-.71,.2-.99Zm2.16,.54c-.1-.11-.22-.16-.38-.16s-.28,.05-.38,.16c-.1,.11-.15,.26-.15,.45s.05,.34,.15,.45c.1,.11,.23,.16,.38,.16s.28-.05,.38-.16c.1-.11,.15-.26,.15-.45s-.05-.34-.15-.45Z"/>
        <path d="M147.18,42.61v1.22h-.54c-.99,0-1.49-.5-1.49-1.49v-.95h-.45v-1.19h.45v-.87h1.43v.87h.59v1.19h-.59v.98c0,.09,.02,.15,.06,.19,.04,.04,.11,.06,.2,.06h.34Z"/>
        <path d="M148.16,39.71c-.15-.13-.22-.3-.22-.5s.08-.38,.22-.51c.15-.13,.35-.2,.6-.2s.44,.07,.59,.2c.15,.14,.23,.31,.23,.51s-.08,.37-.23,.5c-.15,.13-.35,.2-.59,.2s-.45-.07-.6-.2Zm1.31,.49v3.63h-1.43v-3.63h1.43Z"/>
        <path d="M151.17,43.65c-.29-.15-.52-.37-.68-.65s-.25-.61-.25-.99,.08-.71,.25-.99,.39-.5,.68-.65c.29-.15,.62-.23,.98-.23s.69,.08,.98,.23c.29,.15,.52,.37,.68,.65s.25,.61,.25,.99-.08,.71-.25,.99-.39,.5-.68,.65c-.29,.15-.62,.23-.98,.23s-.69-.07-.98-.23Zm1.32-1.17c.09-.1,.13-.26,.13-.47s-.04-.36-.13-.47-.2-.16-.33-.16-.25,.05-.33,.16-.13,.26-.13,.47,.04,.36,.13,.47c.09,.11,.2,.16,.34,.16s.24-.05,.33-.16Z"/>
        <path d="M158.36,40.59c.23,.28,.35,.66,.35,1.13v2.1h-1.42v-1.92c0-.17-.05-.31-.14-.41-.09-.1-.21-.15-.37-.15s-.28,.05-.37,.15-.13,.24-.13,.41v1.92h-1.43v-3.63h1.43v.55c.11-.17,.26-.31,.45-.42,.19-.11,.41-.16,.67-.16,.42,0,.74,.14,.97,.42Z"/>
        <path d="M160.35,43.7c-.26-.11-.47-.27-.63-.46s-.24-.42-.26-.67h1.37c.02,.11,.06,.19,.14,.24,.08,.05,.17,.08,.29,.08,.07,0,.13-.02,.17-.05s.06-.07,.06-.12c0-.08-.04-.14-.14-.17-.09-.03-.24-.07-.46-.12-.26-.05-.48-.11-.65-.17-.17-.06-.32-.16-.44-.31-.13-.15-.19-.35-.19-.6,0-.22,.06-.43,.18-.61s.29-.33,.52-.43,.51-.16,.84-.16c.49,0,.87,.12,1.15,.36s.44,.55,.5,.94h-1.27c-.02-.1-.07-.17-.13-.23s-.16-.08-.28-.08c-.07,0-.13,.01-.17,.04-.04,.03-.06,.07-.06,.13,0,.07,.04,.13,.13,.16,.09,.04,.23,.07,.43,.11,.26,.05,.48,.11,.66,.17,.18,.06,.34,.17,.47,.33,.13,.16,.2,.37,.2,.65,0,.21-.06,.41-.19,.58-.12,.17-.3,.31-.54,.4s-.51,.15-.82,.15c-.34,0-.65-.06-.91-.17Z"/>
      </g>
    </g>
    <g>
      <polygon class="cls-8" points="42.8 82.82 79.13 85.48 79.74 121.2 36.84 117.96 42.8 82.82"/>
      <g>
        <polygon class="cls-11" points="79.37 99.96 85.86 99.12 85.21 109.17 79.52 108.67 79.37 99.96"/>
        <path class="cls-1" d="M79.52,105.57l-.23-.13,.07-.12c.04-.07,1.05-1.82,2.13-2.71,1.08-.89,2.53-1.33,2.59-1.35l.13-.04,.08,.25-.13,.04s-1.45,.44-2.49,1.3c-1.04,.86-2.06,2.62-2.07,2.63l-.07,.11Z"/>
      </g>
      <g>
        <polygon class="cls-11" points="40.42 96.94 34.18 94.98 33.07 104.99 38.95 105.51 40.42 96.94"/>
        <path class="cls-1" d="M39.3,102.44l-.04-.12s-.7-1.93-1.58-2.96c-.88-1.02-2.21-1.71-2.23-1.72l-.12-.06,.12-.24,.12,.06c.06,.03,1.4,.71,2.31,1.78,.91,1.06,1.6,2.96,1.62,3.04l.04,.12-.25,.09Z"/>
      </g>
      <path class="cls-3" d="M79.37,99.96l4.6-.59,3.18-20.47s-33.49-9.28-34.8-9.85-2.49-1.29-3.38-1.77c-.89-.48-2.83-1.83-2.83-1.83l2.18,5.03-11.74,8.44,.6,17.01,3.23,1.01,2.38-14.11,36.33,2.66,.24,14.48Z"/>
      <polygon class="cls-3" points="75.38 96.06 76.25 93.34 69.18 92.72 68 94.31 75.38 96.06"/>
      <polygon class="cls-3" points="43.81 92.25 43.6 89.4 50.62 90.47 51.39 92.3 43.81 92.25"/>
      <path class="cls-1" d="M59.51,106.71h0l-8.89-.4s-.08-.02-.1-.06-.03-.08-.02-.12l1.43-4.47c.02-.05,.06-.09,.11-.09l2.5-.25,.72-7.59c0-.07,.08-.13,.14-.12l5.21,.46s.07,.02,.09,.05,.03,.06,.03,.1l-1.09,12.38c0,.07-.06,.12-.13,.12Zm-8.71-.66l8.59,.39,1.07-12.12-4.95-.44-.72,7.57c0,.06-.06,.11-.12,.12l-2.53,.25-1.35,4.23Zm3.86-4.61h0Z"/>
      <path class="cls-3" d="M49.73,100.93l-.1-.24c-.02-.06-.64-1.53-2.77-1.89-2.11-.35-3.15,1.3-3.19,1.37l-.14,.23-.45-.27,.14-.23s1.26-2.03,3.73-1.61c2.44,.41,3.14,2.15,3.17,2.22l.1,.25-.49,.19Z"/>
      <path class="cls-3" d="M74.09,103.07l-.1-.24c-.02-.06-.64-1.53-2.77-1.89-2.12-.36-3.15,1.3-3.19,1.37l-.14,.23-.45-.27,.14-.23s1.26-2.03,3.73-1.61c2.44,.41,3.14,2.15,3.17,2.22l.1,.25-.49,.19Z"/>
      <polygon class="cls-3" points="37.87 109.87 41.34 115.2 74.16 117.9 79.75 111.55 80.18 121.6 62.63 120.59 62.45 122.63 54.86 121.96 54.14 119.96 36.48 118.18 37.87 109.87"/>
      <path class="cls-12" d="M55.27,111.41l5.01-.06s-.33,2.28-2.44,2.2c-2.11-.08-2.57-2.14-2.57-2.14Z"/>
      <path class="cls-1" d="M67.8,117.51c-.06,0-.11-.04-.13-.09-.02-.06-1.74-5.78,2.78-9.59,4.52-3.81,8.93-1.37,8.97-1.35,.06,.04,.09,.12,.05,.18-.04,.06-.12,.08-.18,.05-.04-.02-4.3-2.37-8.67,1.32-4.38,3.69-2.71,9.25-2.7,9.31,.02,.07-.02,.14-.09,.17-.01,0-.03,0-.04,0Z"/>
      <path class="cls-1" d="M46.93,115.79s-.01,0-.02,0c-.07,0-.12-.07-.12-.15,0-.05,.52-4.66-1.69-7.56-2.23-2.91-5.86-4.2-5.9-4.21-.07-.02-.11-.1-.08-.17,.02-.07,.1-.1,.17-.08,.04,.01,3.75,1.33,6.02,4.3,2.28,2.98,1.75,7.7,1.75,7.75,0,.07-.06,.12-.13,.12Z"/>
      <polygon class="cls-3" points="45.37 108.31 52.75 104.5 57.49 105.77 62.86 105 68.99 110.4 58.71 110.24 57.27 108.35 55.44 110.13 45.37 108.31"/>
    </g>
    <g>
      <path class="cls-4" d="M93.99,174.6s-8.82,9.65-19.43,13.87c-10.6,4.22-26.74,3.94-26.74,3.94l-5.05-15.61s8.45-.43,17.7-4.8c5.96-2.82,14.58-14.36,14.58-14.36l18.94,16.96Z"/>
      <path class="cls-6" d="M64.23,176.42c4.65-1.63,8.69-3.04,9.7-1.68,1.1,1.49-1.38,6.35-5.37,8.2-5.1,2.38-11.88-.54-11.94-2.51-.04-1.34,3.02-2.41,7.61-4.02Z"/>
      <path class="cls-15" d="M49.49,190.39l-4.78-12.11,.29-.07c.13-.03,13.02-3.04,17.1-4.69,4.04-1.64,12.95-11.81,13.04-11.91l.18-.2,13.91,13.07-.19,.19c-.09,.09-9.59,9.52-18.58,12.22-8.95,2.69-20.67,3.49-20.79,3.5h-.19Zm-4.07-11.73l4.42,11.2c1.54-.12,12.21-.98,20.48-3.46,8.16-2.45,16.78-10.56,18.17-11.9l-13.12-12.33c-1.32,1.5-9.18,10.28-13.06,11.85-3.77,1.53-14.93,4.19-16.88,4.65Z"/>
    </g>
  </g>
</svg>