<?xml version="1.0" encoding="UTF-8"?>
<svg id="Layer_2" data-name="Layer 2" xmlns="http://www.w3.org/2000/svg" xmlns:xlink="http://www.w3.org/1999/xlink" viewBox="0 0 428 691.85">
  <defs>
    <style>
      .cls-1 {
        fill: #f9b29b;
      }

      .cls-2 {
        fill: #fff;
      }

      .cls-3 {
        fill: #edeeea;
      }

      .cls-4 {
        fill: #181216;
      }

      .cls-5 {
        fill: #ef9d7f;
      }

      .cls-6 {
        fill: #363636;
      }

      .cls-7 {
        fill: #dd896f;
      }

      .cls-8 {
        fill: #eeb2ff;
      }

      .cls-9 {
        fill: #f55;
      }

      .cls-10 {
        fill: #ffc5b3;
      }

      .cls-11 {
        fill: #e58e73;
      }

      .cls-12 {
        fill: #333;
      }

      .cls-13 {
        clip-path: url(#clippath-1);
      }

      .cls-14 {
        fill: #f80500;
      }

      .cls-15 {
        fill: #ff5b00;
      }

      .cls-16 {
        fill: #e64c00;
      }

      .cls-17 {
        fill: #f4ae32;
      }

      .cls-18 {
        clip-path: url(#clippath);
      }

      .cls-19 {
        fill: none;
      }

      .cls-20 {
        fill: #353535;
      }

      .cls-21 {
        fill: #474747;
      }

      .cls-22 {
        fill: #515151;
      }

      .cls-23 {
        fill: #b72c2c;
      }

      .cls-24 {
        fill: #6d6d6d;
      }

      .cls-25 {
        fill: #d46cff;
      }

      .cls-26 {
        fill: #f7a22d;
      }
    </style>
    <clipPath id="clippath">
      <rect class="cls-19" x="-187.86" y="18.41" width="160.53" height="198.84" rx="14.3" ry="14.3"/>
    </clipPath>
    <clipPath id="clippath-1">
      <path class="cls-19" d="M232.42,293.01s12.97-2.42,19.67-4.6c6.69-2.18,19.91-6.73,19.91-6.73l5.72,30.9-35.11,2.4-10.18-21.99Z"/>
    </clipPath>
  </defs>
  <g class="cls-18">
    <rect class="cls-3" x="-26.51" y="167.01" width="17.97" height="59.17" transform="translate(-105.59 19.96) rotate(-31.59)"/>
  </g>
  <g>
    <polygon class="cls-4" points="360.04 0 0 0 0 641.55 415.68 578.88 428 500.8 428 0 360.04 0"/>
    <g>
      <polygon class="cls-15" points="371.03 142.46 340.89 175.52 338.16 162.6 322.3 196.74 325.69 216.79 333.6 235.71 355.54 245.76 390.81 231.93 398.07 214.53 382.87 175.32 381.22 158.83 370.93 166.96 371.03 142.46"/>
      <polygon class="cls-26" points="357.21 180.18 344.33 201.53 338.32 197.45 336.51 208.13 340.29 228.39 357.73 236.68 384.53 223.75 373.87 201.27 372.6 184.8 358.57 197.87 357.21 180.18"/>
    </g>
    <g>
      <polyline class="cls-15" points="0 386.14 29.95 406.29 23.91 331.78 123.31 425.3 128.58 385.35 184.79 485.49 179.17 547.24 159.54 606.65 95.15 642.33 0 613.22"/>
      <polygon class="cls-26" points="74.77 443.28 118.93 505.21 136.23 491.38 144.25 523.45 137.49 585.94 86.38 615.24 1.86 582.17 29.03 511.32 29.03 460.93 74.77 497.39 74.77 443.28"/>
    </g>
    <g>
      <path class="cls-26" d="M282.31,189.5s-71.84,.73-125.65,0c-53.81-.73-122.61,0-122.61,0V87.69h248.26v101.81Z"/>
      <g>
        <path class="cls-2" d="M69.01,126.77c-1.01-.73-1.56-1.8-1.65-3.22h4.35c.06,.75,.39,1.12,1,1.12,.22,0,.41-.05,.56-.16,.15-.1,.23-.27,.23-.49,0-.31-.17-.56-.5-.75s-.85-.41-1.55-.65c-.84-.29-1.53-.58-2.07-.87-.55-.28-1.02-.69-1.41-1.23-.39-.54-.58-1.23-.57-2.08,0-.85,.22-1.57,.65-2.17,.44-.6,1.03-1.05,1.79-1.35,.76-.31,1.61-.46,2.55-.46,1.6,0,2.86,.37,3.8,1.11,.94,.74,1.43,1.77,1.48,3.11h-4.4c-.01-.37-.1-.63-.28-.79s-.38-.24-.63-.24c-.17,0-.31,.06-.42,.18-.11,.12-.17,.28-.17,.49,0,.29,.16,.54,.49,.73,.33,.19,.84,.42,1.56,.69,.82,.31,1.5,.6,2.04,.88,.53,.28,1,.68,1.39,1.18,.39,.5,.59,1.14,.59,1.9s-.2,1.51-.59,2.15c-.39,.63-.96,1.13-1.71,1.48-.75,.36-1.64,.53-2.67,.53-1.56,0-2.85-.37-3.86-1.1Z"/>
        <path class="cls-2" d="M84.29,114.69v13.05h-4.09v-13.05h4.09Z"/>
        <path class="cls-2" d="M97.3,114.69v3.24h-3.46v9.8h-4.09v-9.8h-3.43v-3.24h10.98Z"/>
        <path class="cls-2" d="M103.42,114.69v13.05h-4.09v-13.05h4.09Z"/>
        <path class="cls-2" d="M122.77,114.69l-4.68,9.08v3.96h-4.09v-3.96l-4.68-9.08h4.68l2.08,4.62,2.08-4.62h4.61Z"/>
        <path class="cls-2" d="M132.98,125.76h-4.35l-.64,1.97h-4.29l4.77-13.05h4.72l4.75,13.05h-4.31l-.64-1.97Zm-1-3.08l-1.18-3.63-1.18,3.63h2.36Z"/>
        <path class="cls-2" d="M141.02,126.77c-1.01-.73-1.56-1.8-1.65-3.22h4.35c.06,.75,.39,1.12,.99,1.12,.22,0,.41-.05,.56-.16s.23-.27,.23-.49c0-.31-.17-.56-.5-.75-.33-.19-.85-.41-1.55-.65-.84-.29-1.53-.58-2.07-.87-.55-.28-1.02-.69-1.41-1.23-.39-.54-.58-1.23-.57-2.08,0-.85,.22-1.57,.65-2.17s1.03-1.05,1.79-1.35c.76-.31,1.61-.46,2.55-.46,1.6,0,2.87,.37,3.81,1.11,.94,.74,1.43,1.77,1.48,3.11h-4.4c-.01-.37-.1-.63-.28-.79-.17-.16-.38-.24-.63-.24-.17,0-.31,.06-.42,.18-.11,.12-.17,.28-.17,.49,0,.29,.16,.54,.49,.73,.33,.19,.84,.42,1.56,.69,.82,.31,1.5,.6,2.04,.88s1,.68,1.39,1.18c.39,.5,.59,1.14,.59,1.9s-.2,1.51-.59,2.15c-.39,.63-.96,1.13-1.71,1.48-.75,.36-1.64,.53-2.67,.53-1.56,0-2.85-.37-3.86-1.1Z"/>
        <path class="cls-2" d="M167.89,114.69v13.05h-4.07v-6.5l-2.01,6.5h-3.5l-2.01-6.5v6.5h-4.09v-13.05h5.01l2.87,7.83,2.8-7.83h4.99Z"/>
        <path class="cls-2" d="M174.75,114.69v13.05h-4.09v-13.05h4.09Z"/>
        <path class="cls-2" d="M190.02,127.73h-4.09l-4.33-6.56v6.56h-4.09v-13.05h4.09l4.33,6.67v-6.67h4.09v13.05Z"/>
      </g>
      <g>
        <path class="cls-2" d="M84.35,166.04c-1.14-.82-1.75-2.02-1.85-3.6h4.87c.07,.84,.44,1.26,1.11,1.26,.25,0,.46-.06,.63-.18s.26-.3,.26-.55c0-.34-.19-.62-.56-.84-.37-.21-.95-.46-1.73-.73-.94-.33-1.71-.65-2.32-.97-.61-.32-1.14-.78-1.58-1.38-.44-.61-.65-1.38-.64-2.33,0-.95,.24-1.76,.73-2.43,.49-.67,1.16-1.17,2-1.52,.85-.34,1.8-.52,2.86-.52,1.79,0,3.21,.41,4.26,1.24,1.05,.83,1.61,1.99,1.66,3.49h-4.93c-.01-.41-.12-.71-.31-.89-.19-.18-.43-.27-.7-.27-.19,0-.35,.07-.48,.2-.12,.13-.19,.31-.19,.55,0,.33,.18,.6,.55,.82,.36,.21,.95,.47,1.74,.77,.92,.34,1.68,.67,2.28,.99s1.12,.76,1.56,1.32c.44,.56,.66,1.27,.66,2.13s-.22,1.7-.66,2.4c-.44,.71-1.08,1.26-1.92,1.66-.84,.4-1.84,.6-2.99,.6-1.75,0-3.19-.41-4.32-1.23Z"/>
        <path class="cls-2" d="M97.24,166.65c-.48-.43-.72-.96-.72-1.61s.24-1.21,.72-1.64c.48-.43,1.12-.65,1.92-.65s1.42,.22,1.9,.65c.48,.43,.72,.98,.72,1.64s-.24,1.18-.72,1.61c-.48,.43-1.11,.64-1.9,.64s-1.44-.21-1.92-.64Z"/>
        <path class="cls-2" d="M119.24,152.51v9.43c0,1.75-.46,3.07-1.37,3.97-.92,.9-2.2,1.35-3.85,1.35-1.77,0-3.19-.49-4.23-1.47-1.05-.98-1.57-2.4-1.57-4.27h4.52c0,.59,.1,1.01,.29,1.25,.19,.24,.45,.36,.78,.36,.28,0,.49-.09,.64-.27s.23-.49,.23-.93v-9.43h4.56Z"/>
        <path class="cls-2" d="M133.46,162.1h-7.37c.07,1,.49,1.51,1.26,1.51,.5,0,.85-.23,1.07-.68h4.85c-.16,.83-.51,1.57-1.04,2.22s-1.2,1.17-2,1.55c-.8,.38-1.69,.57-2.65,.57-1.16,0-2.18-.24-3.09-.72-.9-.48-1.6-1.17-2.11-2.07-.5-.9-.75-1.96-.75-3.17s.25-2.27,.75-3.17c.5-.9,1.2-1.59,2.11-2.07,.9-.48,1.93-.72,3.09-.72s2.18,.24,3.09,.71c.9,.47,1.6,1.15,2.1,2.03,.5,.88,.75,1.92,.75,3.12,0,.32-.02,.62-.06,.91Zm-4.58-2c0-.39-.12-.68-.37-.88-.25-.2-.56-.3-.93-.3-.81,0-1.29,.39-1.42,1.18h2.72Z"/>
        <path class="cls-2" d="M142.15,155.8c.55,.31,.97,.73,1.26,1.27v-1.59h4.56v11.43c0,1.09-.2,2.08-.6,2.97-.4,.89-1.04,1.61-1.93,2.15-.89,.54-2.03,.81-3.42,.81-1.87,0-3.35-.44-4.45-1.31-1.09-.87-1.72-2.06-1.87-3.56h4.5c.12,.61,.62,.91,1.49,.91,.54,0,.96-.14,1.26-.41,.3-.28,.45-.79,.45-1.55v-1.38c-.29,.54-.71,.96-1.26,1.27-.55,.31-1.2,.46-1.96,.46-.91,0-1.73-.24-2.46-.71s-1.3-1.16-1.72-2.06c-.42-.9-.63-1.96-.63-3.19s.21-2.29,.63-3.19c.42-.9,.99-1.59,1.72-2.06,.73-.47,1.55-.71,2.46-.71,.76,0,1.41,.15,1.96,.46Zm.78,4.06c-.32-.34-.72-.52-1.22-.52s-.9,.17-1.22,.52-.47,.83-.47,1.44,.16,1.1,.47,1.44c.32,.34,.72,.52,1.22,.52s.9-.17,1.22-.52c.32-.34,.47-.83,.47-1.44s-.16-1.1-.47-1.44Z"/>
        <path class="cls-2" d="M151.07,158.11c.42-.9,.99-1.59,1.72-2.06,.73-.47,1.55-.71,2.46-.71,.76,0,1.41,.15,1.96,.46,.55,.31,.97,.73,1.26,1.27v-1.59h4.56v11.64h-4.56v-1.59c-.29,.54-.71,.96-1.26,1.27-.55,.31-1.2,.46-1.96,.46-.91,0-1.73-.24-2.46-.71s-1.3-1.16-1.72-2.06c-.42-.9-.63-1.96-.63-3.19s.21-2.29,.63-3.19Zm6.92,1.74c-.32-.34-.72-.52-1.22-.52s-.9,.17-1.22,.52c-.32,.34-.47,.83-.47,1.44s.16,1.1,.47,1.44c.32,.34,.72,.52,1.22,.52s.9-.17,1.22-.52c.32-.34,.47-.83,.47-1.44s-.16-1.1-.47-1.44Z"/>
      </g>
      <path class="cls-2" d="M269.37,180.48H45.97c-.35,0-.64-.29-.64-.64V99.76c0-.35,.29-.64,.64-.64h223.41c.35,0,.64,.29,.64,.64v80.08c0,.35-.29,.64-.64,.64Zm-222.77-1.28h222.13V100.4H46.6v78.81Z"/>
      <path class="cls-2" d="M269.41,143.33H45.11c-.35,0-.64-.29-.64-.64s.29-.64,.64-.64h224.31c.35,0,.64,.29,.64,.64s-.29,.64-.64,.64Z"/>
      <path class="cls-2" d="M211.8,179.26c-.35,0-.64-.29-.64-.64V99.76c0-.35,.29-.64,.64-.64s.64,.29,.64,.64v78.86c0,.35-.29,.64-.64,.64Z"/>
      <g>
        <path class="cls-2" d="M221.76,132.09c-.23,0-.46-.13-.57-.35-.16-.31-.04-.7,.28-.86l40.08-20.53c.32-.16,.7-.04,.86,.28,.16,.31,.04,.7-.28,.86l-40.08,20.53c-.09,.05-.19,.07-.29,.07Z"/>
        <path class="cls-2" d="M261.84,132.89c-.1,0-.21-.02-.3-.08l-40.79-22.08c-.31-.17-.42-.55-.26-.86,.17-.31,.55-.43,.86-.26l40.79,22.08c.31,.17,.42,.55,.26,.86-.12,.21-.33,.33-.56,.33Z"/>
      </g>
    </g>
    <g>
      <polygon class="cls-8" points="43.52 225.51 169.65 230.5 169.65 291.32 97.65 295.48 82.56 314.92 82.56 297.98 54.42 294.65 43.52 225.51"/>
      <g>
        <polygon class="cls-2" points="102.04 267.79 102.04 285.25 109.34 283.95 109.34 268.25 132.27 269.1 129.66 241.73 90.93 244.08 90.93 267.01 102.04 267.79"/>
        <polygon class="cls-16" points="87.7 271.61 96.82 271.61 96.82 264.96 96.82 239.68 87.7 239.68 87.7 271.61"/>
      </g>
      <rect class="cls-2" x="113.55" y="249.3" width="16.83" height=".72" transform="translate(-18.66 10.02) rotate(-4.37)"/>
      <rect class="cls-2" x="115.84" y="256.3" width="15.24" height=".72" transform="translate(-2.79 1.36) rotate(-.62)"/>
      <rect class="cls-2" x="123.98" y="254.67" width=".72" height="14.58" transform="translate(-143.42 373.3) rotate(-87.19)"/>
      <g>
        <path class="cls-16" d="M165.02,262.94c-13.17,0-23.89-10.72-23.89-23.89s10.72-23.89,23.89-23.89,23.89,10.72,23.89,23.89-10.72,23.89-23.89,23.89Zm0-40.12c-8.95,0-16.23,7.28-16.23,16.23s7.28,16.23,16.23,16.23,16.23-7.28,16.23-16.23-7.28-16.23-16.23-16.23Z"/>
        <rect class="cls-16" x="146.25" y="235.19" width="39.03" height="7.66" transform="translate(-123.46 208.07) rotate(-49.15)"/>
      </g>
    </g>
    <g>
      <g>
        <g>
          <path class="cls-24" d="M177.88,349.62l50.04,74.31-34.82,73.76-11.65-8.32c-24.02-17.16-38.94-44.3-40.57-73.77l-3.36-60.85,40.36-5.13Z"/>
          <path class="cls-5" d="M173.36,344.1l.36,6.05-26.43,3.36s-6.33-25.04-6.9-28.32c-.57-3.28,2.38-11.29,2.38-11.29l6.65,6.86,3.53-16.26,10.41,11.56,3.19-7.56s5.18,7.85,5.42,11.88c.24,4.03,.79,13.45,.79,13.45l.61,10.27Z"/>
        </g>
        <g>
          <path class="cls-21" d="M428,601.49l-11.33-46.74-22.17-196.71-216.64,34.94s-51.86,79.96-93.99,136.08C52.15,571.32,15.95,616.08,0,635.62v11.98s195.63,44.26,195.63,44.26l232.37-12.74"/>
          <path class="cls-22" d="M192.52,200.98l68.8-46.62,80.38,42.36,57.53,161.9s-44.38,53.78-108.46,57.56c-64.08,3.77-117.99-18.7-117.99-18.7l21.65-75.96-1.91-120.54Z"/>
          <path class="cls-2" d="M274.06,417.33c-.44,0-.82-.34-.86-.79l-7.76-85.87c-.04-.48,.31-.9,.79-.94,.46-.05,.9,.31,.94,.79l7.76,85.87c.04,.48-.31,.9-.79,.94-.03,0-.05,0-.08,0Z"/>
          <g>
            <g>
              <path class="cls-17" d="M254.43,316.41c-.63-.02-3.66-.07-6.99,2.11-1.02,.67-2.67,1.94-4.13,4.13,2.77,1.12,5.11,1.21,6.46,1.16,1.97-.08,5.26-.21,6.89-2.51,.78-1.09,1.36-2.93,.57-4-.59-.79-1.71-.85-2.8-.89Z"/>
              <path class="cls-17" d="M255.24,322.71c-.57,.27-3.28,1.62-5.24,5.09-.6,1.07-1.48,2.95-1.76,5.56,2.98-.29,5.09-1.28,6.26-1.95,1.71-.98,4.57-2.61,4.96-5.4,.19-1.33-.14-3.23-1.33-3.81-.89-.43-1.91,.04-2.9,.5Z"/>
              <path class="cls-17" d="M259.06,327.83c-.15,.61-.83,3.57,.61,7.28,.44,1.14,1.34,3.02,3.18,4.89,1.67-2.48,2.24-4.74,2.47-6.08,.33-1.94,.89-5.18-1.02-7.26-.91-.99-2.59-1.94-3.79-1.39-.9,.41-1.18,1.5-1.45,2.56Z"/>
              <path class="cls-17" d="M265.58,328.29c.09,.63,.56,3.62,3.29,6.52,.84,.89,2.37,2.3,4.78,3.35,.62-2.93,.31-5.24,.03-6.56-.42-1.92-1.11-5.14-3.66-6.35-1.21-.58-3.12-.84-4.04,.12-.68,.72-.54,1.83-.39,2.91Z"/>
              <path class="cls-17" d="M270.64,325.47c.43,.47,2.51,2.67,6.4,3.53,1.2,.26,3.26,.55,5.83,.07-1.14-2.76-2.7-4.5-3.69-5.43-1.43-1.35-3.82-3.61-6.61-3.17-1.33,.21-3.05,1.08-3.26,2.38-.16,.97,.59,1.82,1.33,2.62Z"/>
              <path class="cls-17" d="M273.95,320.21c.63,.08,3.64,.38,7.15-1.51,1.08-.58,2.83-1.71,4.46-3.76-2.67-1.35-4.99-1.64-6.34-1.7-1.97-.09-5.25-.24-7.08,1.92-.87,1.02-1.61,2.81-.91,3.93,.52,.84,1.63,.99,2.72,1.12Z"/>
            </g>
            <path class="cls-2" d="M253.35,315.98c.93-6.3,19.32-5.92,21.39-.61,2.07,5.32-3.72,13.25-10.85,13.01-7.13-.24-11.47-6.1-10.54-12.41Z"/>
          </g>
          <polygon class="cls-5" points="195.63 230.45 318.22 223.23 323.66 309 200.86 317.27 195.63 230.45"/>
          <path class="cls-21" d="M317.62,195.46l1.78,30.29-125,7.36-1.89-32.12s30.9-5.51,60.49-7.25c29.59-1.74,64.61,1.72,64.61,1.72Z"/>
          <path class="cls-12" d="M225.41,239.16l-1.99,10.77-38.5-15.42,3.3-10.72s12.75,4.06,19.33,6.78c6.58,2.73,17.86,8.59,17.86,8.59Z"/>
          <path class="cls-12" d="M257.52,235.32l1.77,10.81,38.81-14.63-3.08-10.78s-12.83,3.79-19.46,6.38-18.03,8.22-18.03,8.22Z"/>
          <path class="cls-14" d="M288.71,311.4c-.44,0-.82-.33-.86-.78-.06-.59-1.38-14.65,8.78-24.93,10.14-10.25,23.69-10.03,24.26-10.02,.48,.01,.86,.41,.84,.89-.01,.48-.45,.83-.89,.85-.15-.02-13.39-.19-22.99,9.51-9.58,9.68-8.3,23.39-8.29,23.53,.05,.48-.3,.9-.77,.95-.03,0-.06,0-.09,0Z"/>
          <path class="cls-14" d="M228.53,315.24c-.41,0-.78-.29-.85-.71-.03-.14-2.67-14.31-13.55-21.13-6.57-4.12-11.85-5.17-15.12-5.32-.48-.02-.85-.43-.83-.91,.02-.48,.44-.86,.91-.83,3.48,.16,9.07,1.27,15.96,5.58,11.54,7.23,14.23,21.68,14.33,22.29,.08,.47-.23,.92-.7,1.01-.05,0-.1,.01-.15,.01Z"/>
          <g>
            <path class="cls-17" d="M241.3,244.71l8,40.38c-8.01,1.07-16.02,2.14-24.04,3.21,5.35-14.53,10.69-29.06,16.04-43.59Z"/>
            <path class="cls-14" d="M225.26,288.96c-.2,0-.38-.09-.51-.24-.14-.18-.18-.42-.1-.63l16.04-43.59c.1-.27,.36-.45,.66-.43,.29,.02,.53,.24,.59,.52l8,40.38c.04,.18,0,.36-.11,.51-.1,.15-.27,.24-.44,.27l-24.04,3.21s-.06,0-.09,0Zm15.85-41.84l-14.86,40.39,22.27-2.97-7.41-37.42Z"/>
          </g>
          <path class="cls-2" d="M262.31,259.44l51.4-17.55s-8.17,28.6-23.79,30.65c-15.62,2.05-27.61-13.09-27.61-13.09Z"/>
          <path class="cls-2" d="M227.1,260.8l-50.42-20.21s6.67,28.99,22.16,31.85c15.49,2.86,28.26-11.64,28.26-11.64Z"/>
          <path class="cls-23" d="M232.42,293.01s12.97-2.42,19.67-4.6c6.69-2.18,19.91-6.73,19.91-6.73l5.72,30.9-35.11,2.4-10.18-21.99Z"/>
          <g class="cls-13">
            <path class="cls-2" d="M230.81,292.24c2.45,3.36,4.89,6.72,7.34,10.08,1.3-2.4,2.59-4.79,3.89-7.19,2.04,1.56,4.07,3.11,6.11,4.67,.86-1.94,1.71-3.88,2.57-5.83l5.69,4.7c.84-2.18,1.68-4.35,2.52-6.53,2.19,1.69,4.37,3.38,6.56,5.06,.45-2.43,.89-4.86,1.34-7.3,1.85,1.57,3.7,3.14,5.55,4.71,.39-4.64,.78-9.28,1.17-13.92-14.25,3.85-28.49,7.69-42.74,11.54Z"/>
          </g>
        </g>
      </g>
      <g>
        <path class="cls-24" d="M346.7,302.57l37.91,64.67c4.29,7.33,7.16,15.4,8.46,23.79l2.79,18.1c2.28,14.84-1.2,30.12-10.23,42.12-4.62,6.14-10.38,11.09-17.07,11.55-9.58,.65-20.97-6.42-29.75-13.41-8.9-7.09-14.78-17.29-16.38-28.55l-16.07-113,40.34-5.27Z"/>
        <path class="cls-10" d="M342.16,297.07l.38,6.05-26.42,3.45s-6.42-25.02-7-28.3c-.59-3.28,2.34-11.3,2.34-11.3l6.67,6.84,3.47-16.27,10.45,11.53,3.17-7.57s5.21,7.83,5.46,11.86c.25,4.03,.84,13.45,.84,13.45l.64,10.27Z"/>
      </g>
    </g>
    <g>
      <polygon class="cls-15" points="270.44 450.33 238.44 480.43 236.74 467.57 218.64 499.81 220.45 519.69 226.77 538.82 247.5 550.3 283.07 539.42 291.49 522.93 279.56 483.39 279.18 467.12 268.49 474.31 270.44 450.33"/>
      <polygon class="cls-26" points="254.06 486.22 239.85 506.16 234.28 501.71 231.69 512.03 233.87 532.15 250.33 541.58 277.54 530.93 268.79 508.12 268.79 491.9 254.06 503.64 254.06 486.22"/>
    </g>
    <g>
      <g>
        <g>
          <g>
            <polygon class="cls-5" points="188.34 528.11 189.04 541.56 181.41 571.52 151.5 564.03 155.81 531.57 188.34 528.11"/>
            <path class="cls-7" d="M153.86,522.65l1.1,15.35,34.79,5.47,2.43-16.76c.14-1-.6-1.91-1.61-1.96l-36.71-2.1Z"/>
            <rect class="cls-14" x="162.69" y="523.52" width=".97" height="15.39" transform="translate(-20.04 6.58) rotate(-2.18)"/>
            <rect class="cls-14" x="165.25" y="532.13" width="15.51" height=".97" transform="translate(-365.86 685.02) rotate(-87.8)"/>
            <rect class="cls-14" x="175.3" y="533.7" width="15.4" height=".97" transform="translate(-374.23 625.49) rotate(-80.39)"/>
            <polygon class="cls-1" points="150.47 564.65 149.59 540.22 157.16 533.65 168.51 537.24 168.18 545.56 158.46 544.05 165.56 556.7 168.7 569.03 150.47 564.65"/>
          </g>
          <path class="cls-23" d="M150.66,560.84s-18.45,18.74-44.78,45.29l52.25,16.83c12.26-20.04,16.4-27.01,25.58-42.03,2.52-4.13,1.92-9.43-1.45-12.9l-31.6-7.2Z"/>
        </g>
        <polygon class="cls-11" points="120.94 521.73 82.25 512.33 68.38 547.26 118.54 545.6 120.94 521.73"/>
        <polygon class="cls-6" points="103.23 428.73 58.09 418.34 10.24 464.11 40.31 529.61 82.37 531.16 66.44 496.22 89.52 451.37 113.83 453.05 103.23 428.73"/>
        <g>
          <polygon class="cls-11" points="67.92 496.87 55.3 497.52 61.61 516.1 74.79 513.5 67.92 496.87"/>
          <path class="cls-14" d="M71.66,506.69l-7.92-4.43-3.64-.02v-.93s3.77,.02,3.77,.02c.08,0,.16,.02,.23,.06l8.02,4.49-.46,.81Z"/>
        </g>
        <path class="cls-9" d="M124.91,545.16c10.7,23.24,35.44,80.98,35.44,80.98l-125.42-1.77,17.07-67.87,9.99-9.25,62.93-2.1Z"/>
        <path class="cls-23" d="M79.14,590.21c-.33,9.08-.77,20.9-1.34,35.96l63.71-.47c-5.52-28.01-7.1-34.17-11.24-55.16-1.14-5.77-11.57-22.69-28.09-18.45-16.53,4.24-22.47,22.28-23.04,38.11Z"/>
        <path class="cls-5" d="M60.19,483.72l22.18,47.43,60.08-8.21c3.84-.53,5.99-4.71,4.17-8.14-8.08-15.18-26.88-50.5-32.79-61.76-13.91-.96-27.82-1.93-41.73-2.89l-11.9,33.56Z"/>
        <path class="cls-14" d="M124.12,525.88c-.19,0-.36-.11-.42-.3v-.04c-1.25-4.16-6.45-17.76-21.32-18.3-7.06-.25-16.99,1.82-24.14,13.14l-.21,.33c-.14,.21-.42,.27-.63,.13-.21-.14-.27-.42-.13-.63l.2-.32c7.38-11.68,17.61-13.83,24.94-13.56,15.48,.56,20.86,14.64,22.14,18.94,.07,.24-.06,.51-.3,.58-.05,.01-.1,.02-.14,.02Z"/>
        <polygon class="cls-23" points="136.08 504.7 131 493.16 122.77 501.78 127.86 507.92 136.08 504.7"/>
        <g>
          <path class="cls-9" d="M116.7,458.54c4.59,9.02,13.76,27.05,13.76,27.05l8.19-4.26s-8.43-20.32-21.95-22.79Z"/>
          <path class="cls-14" d="M130.46,486.07s-.1,0-.15-.02c-.12-.04-.22-.13-.28-.24l-13.76-27.05c-.08-.16-.07-.36,.04-.51,.11-.15,.28-.22,.47-.19,13.61,2.49,21.96,22.24,22.3,23.08,.1,.23,0,.5-.22,.61l-8.19,4.26c-.07,.04-.15,.05-.22,.05Zm-12.87-26.84l13.08,25.71,7.36-3.83c-1.24-2.78-8.92-18.98-20.43-21.88Z"/>
        </g>
        <polygon class="cls-4" points="107.33 458.9 96.21 464.09 81.16 465.4 84.32 471.53 97.39 470.03 108.64 463.22 107.33 458.9"/>
        <g>
          <polygon class="cls-6" points="30.04 528.13 16.86 538.37 32.31 559.41 51.53 546.17 44.26 524.65 30.04 528.13"/>
          <path class="cls-4" d="M35.9,556.85l-5.4-11.1c-.09-.19-.04-.41,.11-.55l15.85-13.78,.61,.7-15.58,13.55,5.25,10.78-.83,.41Z"/>
          <path class="cls-4" d="M33.76,558.48l-7.94-13.27c-.09-.15-.09-.33,0-.48l11.79-19.13,.79,.49-11.64,18.89,7.8,13.02-.79,.48Z"/>
        </g>
        <g>
          <path class="cls-20" d="M104.3,477.99c-.66,3,2.05,5.39,2.75,6,.78,.69,2.96,2.61,5.22,1.85,1.59-.53,2.24-2.06,2.28-2.15,1.04-2.52-1.3-5.29-2.1-6.23-1.04-1.23-2.87-3.4-5.06-2.94-1.67,.34-2.77,2.05-3.09,3.47Z"/>
          <path class="cls-6" d="M99.89,485.95c.61-1.74,.21-3.33,3.71-7.69,3.49-4.36,11.21-4.27,11.21-4.27l-.04-1.42s-7.03-.31-11.26,3.5c-4.24,3.81-4.81,7.58-5.33,9.23l1.71,.64Z"/>
          <polygon class="cls-6" points="95.86 483.35 98.18 485.31 99.28 482.86 95.86 483.35"/>
        </g>
        <path class="cls-4" d="M103.16,428.18s-25.14,46.98-37.3,71.5c-4.52-11.76-9.17-23.6-13.94-35.5-1.73-4.32-3.47-9.74-5.21-14.02,18.82-7.7,37.63-14.28,56.45-21.98Z"/>
        <polygon class="cls-4" points="10.68 464.88 10.35 464.02 10.78 463.86 103.17 428.06 103.5 428.92 10.68 464.88"/>
        <polygon class="cls-6" points="65.66 497.86 65.63 497.4 61.78 440.63 62.69 440.57 62.72 441.03 66.57 497.8 65.66 497.86"/>
        <rect class="cls-6" x="42.15" y="464.88" width="65.71" height=".91" transform="translate(-392.86 408.25) rotate(-73.89)"/>
      </g>
      <path class="cls-2" d="M189.76,520.68c-.09,0-.18-.02-.26-.08l-3.54-2.28-4.57,2.3c-.17,.09-.37,.07-.52-.06l-3.85-3.12-4.38,3.14c-.2,.14-.47,.11-.64-.06l-4.18-4.51-3.62,3.17c-.18,.16-.45,.16-.63,0l-3.78-3.26-4.78,2.51-.45-.86,5.07-2.66c.18-.09,.39-.07,.54,.06l3.71,3.21,3.65-3.2c.2-.17,.5-.16,.67,.04l4.21,4.54,4.33-3.1c.18-.13,.42-.12,.58,.02l3.9,3.15,4.54-2.29c.15-.08,.33-.07,.48,.02l3.43,2.21,2.25-2.47,.71,.65-2.53,2.77c-.09,.1-.22,.16-.36,.16Z"/>
      <path class="cls-2" d="M193.96,543.12l-.75-.61,4.16-5.04-2.03-3c-.13-.19-.11-.44,.05-.6l2.51-2.63-2.5-2.42c-.14-.13-.18-.33-.12-.51l1.9-5.16,.91,.33-1.79,4.87,2.62,2.53c.19,.19,.2,.49,.01,.68l-2.58,2.69,2.01,2.98c.12,.18,.11,.41-.03,.58l-4.39,5.32Z"/>
      <path class="cls-2" d="M202.78,530.24l-2.04-3.13c-.07-.1-.09-.23-.07-.35l1.12-5.92,.95,.18-1.08,5.73,1.93,2.96-.81,.53Z"/>
      <rect class="cls-2" x="189.87" y="549.07" width="4.67" height=".97" transform="translate(-380.14 442.92) rotate(-60.17)"/>
      <rect class="cls-2" x="186.13" y="558.66" width="7.67" height=".97" transform="translate(-392.54 656.15) rotate(-80.69)"/>
    </g>
    <path class="cls-8" d="M428,620.69h-69.39l-53.23-67.03s33.14-64.9,34.73-65.98,35.94-13,38.58-14.18,10.15-58.79,10.15-58.79l39.16-19.25"/>
    <polygon class="cls-25" points="190.59 620.69 203.55 578.62 236.19 570.23 247.58 534.96 302.92 521.38 322.93 547.27 347.8 545.94 366.54 563.55 388.84 620.56 190.59 620.69"/>
  </g>
</svg>