<?xml version="1.0" encoding="UTF-8"?>
<svg id="Layer_2" data-name="Layer 2" xmlns="http://www.w3.org/2000/svg" xmlns:xlink="http://www.w3.org/1999/xlink" viewBox="0 0 173.25 246.95">
  <defs>
    <style>
      .cls-1 {
        fill: #fff;
      }

      .cls-2 {
        stroke-width: .53px;
      }

      .cls-2, .cls-3 {
        stroke: #fff;
      }

      .cls-2, .cls-3, .cls-4, .cls-5 {
        fill: none;
      }

      .cls-2, .cls-3, .cls-4, .cls-6 {
        stroke-miterlimit: 10;
      }

      .cls-7 {
        fill: #363636;
      }

      .cls-8 {
        fill: #eeb2ff;
      }

      .cls-3 {
        stroke-width: .56px;
      }

      .cls-9 {
        fill: #f55;
      }

      .cls-4, .cls-6 {
        stroke: #aadef7;
        stroke-width: .96px;
      }

      .cls-10 {
        clip-path: url(#clippath-1);
      }

      .cls-11 {
        fill: #e64c00;
      }

      .cls-12 {
        clip-path: url(#clippath);
      }

      .cls-13 {
        fill: #8fcc8f;
      }

      .cls-14, .cls-6 {
        fill: #aadef7;
      }

      .cls-15 {
        fill: #c3edc3;
      }
    </style>
    <clipPath id="clippath">
      <rect class="cls-5" x="6.43" y="7.46" width="160.53" height="198.84" rx="14.3" ry="14.3"/>
    </clipPath>
    <clipPath id="clippath-1">
      <path class="cls-5" d="M357.13,7.4H225.2c-7.9,0-14.3,6.4-14.3,14.3V191.93c0,7.9,6.4,14.3,14.3,14.3h131.93c7.9,0,14.3-6.4,14.3-14.3V21.7c0-7.9-6.4-14.3-14.3-14.3Z"/>
    </clipPath>
  </defs>
  <g>
    <rect class="cls-11" x=".3" y=".23" width="173.34" height="246.49" rx="13.2" ry="13.2"/>
    <rect class="cls-8" x="6.43" y="7.46" width="160.53" height="198.84" rx="14.3" ry="14.3"/>
    <g class="cls-12">
      <g>
        <g>
          <path class="cls-1" d="M24.83,32.52l124.58-3.3c4.36-.12,7.97,3.34,8.05,7.7l2.06,110.04c.08,4.28-3.29,7.83-7.56,7.99l-122.65,4.39c-4.33,.15-7.97-3.23-8.12-7.56l-3.99-111.13c-.16-4.36,3.27-8.01,7.63-8.12Z"/>
          <circle class="cls-14" cx="38.5" cy="53.26" r="12.2"/>
          <polygon class="cls-14" points="55 43.85 56.5 50.78 97.27 48.15 98.42 41.06 55 43.85"/>
          <polygon class="cls-14" points="57.57 55.67 57.57 58.95 84.08 57.05 84.08 53.81 57.57 55.67"/>
          <polygon class="cls-14" points="28.85 78.27 147.41 71.59 147.41 81.99 28.85 84.46 28.85 78.27"/>
          <polygon class="cls-14" points="28.85 89.41 135.03 88.17 135.03 94.27 28.85 98.07 28.85 89.41"/>
          <polygon class="cls-14" points="31.34 103.89 140.48 101.04 142.21 105.75 36.77 110.95 31.34 103.89"/>
          <polygon class="cls-14" points="31.34 116.29 31.34 121.74 140.23 119.01 138.75 110.95 31.34 116.29"/>
          <line class="cls-4" x1="26.29" y1="134.43" x2="151.12" y2="130.39"/>
          <path class="cls-6" d="M32.12,140.38l30.19-.97c1.18-.04,2.2,.84,2.32,2.02l.75,7.03c.14,1.31-.86,2.45-2.17,2.5l-30.55,1.1c-1.23,.04-2.27-.91-2.34-2.14l-.39-7.16c-.07-1.27,.92-2.34,2.19-2.39Z"/>
        </g>
        <g>
          <polygon class="cls-15" points="76.57 129.56 81.36 192.23 150.06 192.23 150.78 124.75 76.57 129.56"/>
          <polygon class="cls-7" points="76.57 129.56 150.78 124.75 150.6 140.83 77.77 145.32 76.57 129.56"/>
          <polyline class="cls-3" points="84.64 134.51 82.16 137.59 85.19 139.63"/>
          <polygon class="cls-13" points="86.27 153.72 135.3 150.63 135.3 160.63 101.64 163.72 93.05 170.06 94.74 163.87 88.82 164.29 86.27 153.72"/>
          <polygon class="cls-1" points="107.74 171.64 138.16 168.61 138.86 177.35 144.22 182.13 138.72 180.86 139.14 185.23 107.74 187.9 107.74 171.64"/>
        </g>
        <g>
          <polygon class="cls-1" points="36.07 177.25 56.65 176.74 47.95 193.18 43.68 187.39 30.93 197.12 26.42 189.74 40.99 183.42 36.07 177.25"/>
          <line class="cls-2" x1="58.32" y1="175.46" x2="62.95" y2="173.21"/>
          <line class="cls-2" x1="58.58" y1="179.87" x2="63.74" y2="180.61"/>
          <line class="cls-2" x1="56.45" y1="172.5" x2="57.57" y2="168.44"/>
        </g>
      </g>
    </g>
    <g>
      <path class="cls-1" d="M12.59,222.99c-.61-.44-.94-1.09-1-1.94h2.63c.04,.45,.24,.68,.6,.68,.13,0,.25-.03,.34-.09,.09-.06,.14-.16,.14-.29,0-.19-.1-.33-.3-.45-.2-.12-.51-.25-.93-.4-.5-.18-.92-.35-1.25-.52-.33-.17-.61-.42-.85-.75s-.35-.75-.34-1.26c0-.51,.13-.95,.39-1.31,.26-.36,.62-.63,1.08-.82s.97-.28,1.54-.28c.96,0,1.73,.22,2.3,.67,.57,.45,.87,1.07,.9,1.88h-2.66c0-.22-.06-.38-.17-.48-.1-.1-.23-.14-.38-.14-.1,0-.19,.04-.26,.11-.07,.07-.1,.17-.1,.29,0,.18,.1,.33,.29,.44,.2,.12,.51,.25,.94,.42,.5,.19,.91,.36,1.23,.53,.32,.17,.6,.41,.84,.71,.24,.3,.36,.69,.36,1.15,0,.48-.12,.92-.36,1.3s-.58,.68-1.03,.9c-.45,.22-.99,.32-1.61,.32-.94,0-1.72-.22-2.33-.66Z"/>
      <path class="cls-1" d="M26,217.29v6.28h-2.47v-.96c-.19,.3-.45,.54-.77,.72-.32,.19-.71,.28-1.15,.28-.72,0-1.28-.24-1.69-.72s-.61-1.14-.61-1.96v-3.64h2.46v3.33c0,.3,.08,.53,.24,.71,.16,.17,.37,.26,.64,.26s.49-.09,.65-.26c.16-.17,.23-.41,.23-.71v-3.33h2.47Z"/>
      <path class="cls-1" d="M27.67,218.71c.23-.49,.54-.86,.93-1.11,.39-.26,.83-.38,1.33-.38,.41,0,.76,.08,1.05,.25s.52,.39,.67,.68v-2.82h2.47v8.24h-2.47v-.86c-.16,.29-.38,.52-.67,.68s-.64,.25-1.05,.25c-.49,0-.93-.13-1.33-.38-.39-.26-.7-.63-.93-1.11-.23-.49-.34-1.06-.34-1.72s.11-1.23,.34-1.72Zm3.73,.94c-.17-.19-.39-.28-.66-.28s-.49,.09-.66,.28c-.17,.19-.26,.45-.26,.78s.09,.59,.26,.78c.17,.19,.39,.28,.66,.28s.49-.09,.66-.28,.26-.45,.26-.78-.09-.59-.26-.78Z"/>
      <path class="cls-1" d="M35.8,218.71c.23-.49,.54-.86,.93-1.11,.39-.26,.83-.38,1.33-.38,.41,0,.76,.08,1.06,.25s.52,.39,.68,.68v-.86h2.46v6.28h-2.46v-.86c-.16,.29-.38,.52-.68,.68s-.65,.25-1.06,.25c-.49,0-.93-.13-1.33-.38-.39-.26-.7-.63-.93-1.11-.23-.49-.34-1.06-.34-1.72s.11-1.23,.34-1.72Zm3.73,.94c-.17-.19-.39-.28-.66-.28s-.49,.09-.66,.28c-.17,.19-.26,.45-.26,.78s.09,.59,.26,.78c.17,.19,.39,.28,.66,.28s.49-.09,.66-.28,.26-.45,.26-.78-.09-.59-.26-.78Z"/>
      <path class="cls-1" d="M50,217.97c.4,.48,.61,1.14,.61,1.96v3.64h-2.46v-3.33c0-.3-.08-.53-.24-.71-.16-.17-.37-.26-.64-.26s-.49,.09-.65,.26c-.16,.17-.23,.41-.23,.71v3.33h-2.47v-8.24h2.47v2.92c.19-.3,.45-.54,.77-.72,.32-.19,.71-.28,1.15-.28,.72,0,1.28,.24,1.69,.72Z"/>
      <path class="cls-1" d="M58.59,221.47v2.1h-.93c-1.72,0-2.58-.86-2.58-2.57v-1.65h-.78v-2.06h.78v-1.51h2.47v1.51h1.02v2.06h-1.02v1.69c0,.15,.04,.26,.11,.32,.07,.07,.19,.1,.35,.1h.59Z"/>
      <path class="cls-1" d="M66.13,220.87h-3.97c.04,.54,.26,.81,.68,.81,.27,0,.46-.12,.58-.37h2.62c-.09,.45-.28,.84-.56,1.2-.29,.35-.64,.63-1.08,.83s-.91,.31-1.43,.31c-.62,0-1.18-.13-1.66-.39-.49-.26-.86-.63-1.14-1.12-.27-.49-.41-1.06-.41-1.71s.14-1.22,.41-1.71c.27-.49,.65-.86,1.14-1.12,.49-.26,1.04-.39,1.66-.39s1.18,.13,1.66,.38c.49,.26,.87,.62,1.14,1.1,.27,.48,.41,1.04,.41,1.68,0,.17-.01,.33-.03,.49Zm-2.47-1.08c0-.21-.07-.37-.2-.47-.13-.11-.3-.16-.5-.16-.44,0-.69,.21-.77,.63h1.47Z"/>
      <path class="cls-1" d="M73.58,217.97c.4,.48,.61,1.14,.61,1.96v3.64h-2.46v-3.33c0-.3-.08-.53-.24-.71-.16-.17-.37-.26-.64-.26s-.49,.09-.65,.26c-.16,.17-.23,.41-.23,.71v3.33h-2.47v-6.28h2.47v.96c.19-.3,.45-.54,.77-.72s.71-.28,1.15-.28c.72,0,1.28,.24,1.69,.72Z"/>
      <path class="cls-1" d="M79.72,221.47v2.1h-.93c-1.72,0-2.58-.86-2.58-2.57v-1.65h-.78v-2.06h.78v-1.51h2.47v1.51h1.02v2.06h-1.02v1.69c0,.15,.04,.26,.11,.32,.07,.07,.19,.1,.35,.1h.59Z"/>
      <path class="cls-1" d="M87.87,217.29v6.28h-2.47v-.96c-.19,.3-.45,.54-.77,.72-.32,.19-.71,.28-1.15,.28-.72,0-1.28-.24-1.69-.72s-.61-1.14-.61-1.96v-3.64h2.46v3.33c0,.3,.08,.53,.24,.71,.16,.17,.37,.26,.64,.26s.49-.09,.65-.26c.16-.17,.23-.41,.23-.71v-3.33h2.47Z"/>
      <path class="cls-1" d="M92.01,215.34v8.24h-2.47v-8.24h2.47Z"/>
      <path class="cls-1" d="M93.68,218.71c.23-.49,.54-.86,.93-1.11,.39-.26,.83-.38,1.33-.38,.41,0,.76,.08,1.06,.25s.52,.39,.68,.68v-.86h2.46v6.28h-2.46v-.86c-.16,.29-.38,.52-.68,.68s-.65,.25-1.06,.25c-.49,0-.93-.13-1.33-.38-.39-.26-.7-.63-.93-1.11-.23-.49-.34-1.06-.34-1.72s.11-1.23,.34-1.72Zm3.73,.94c-.17-.19-.39-.28-.66-.28s-.49,.09-.66,.28c-.17,.19-.26,.45-.26,.78s.09,.59,.26,.78c.17,.19,.39,.28,.66,.28s.49-.09,.66-.28,.26-.45,.26-.78-.09-.59-.26-.78Z"/>
      <path class="cls-1" d="M107.88,217.97c.4,.48,.61,1.14,.61,1.96v3.64h-2.46v-3.33c0-.3-.08-.53-.24-.71-.16-.17-.37-.26-.64-.26s-.49,.09-.65,.26c-.16,.17-.23,.41-.23,.71v3.33h-2.47v-8.24h2.47v2.92c.19-.3,.45-.54,.77-.72,.32-.19,.71-.28,1.15-.28,.72,0,1.28,.24,1.69,.72Z"/>
      <path class="cls-1" d="M112.77,216.45c-.26-.23-.39-.52-.39-.87s.13-.65,.39-.88,.61-.35,1.04-.35,.76,.12,1.02,.35c.26,.23,.39,.53,.39,.88s-.13,.64-.39,.87c-.26,.23-.6,.34-1.02,.34s-.78-.11-1.04-.34Zm2.26,.85v6.28h-2.47v-6.28h2.47Z"/>
      <path class="cls-1" d="M122.79,217.97c.4,.48,.61,1.14,.61,1.96v3.64h-2.46v-3.33c0-.3-.08-.53-.24-.71-.16-.17-.37-.26-.64-.26s-.49,.09-.65,.26c-.16,.17-.23,.41-.23,.71v3.33h-2.47v-6.28h2.47v.96c.19-.3,.45-.54,.77-.72,.32-.19,.71-.28,1.15-.28,.72,0,1.28,.24,1.69,.72Z"/>
      <path class="cls-1" d="M128.92,221.47v2.1h-.93c-1.72,0-2.58-.86-2.58-2.57v-1.65h-.78v-2.06h.78v-1.51h2.47v1.51h1.02v2.06h-1.02v1.69c0,.15,.04,.26,.11,.32,.07,.07,.19,.1,.35,.1h.59Z"/>
      <path class="cls-1" d="M136.47,220.87h-3.97c.04,.54,.26,.81,.68,.81,.27,0,.46-.12,.58-.37h2.62c-.09,.45-.28,.84-.56,1.2-.29,.35-.65,.63-1.08,.83s-.91,.31-1.43,.31c-.62,0-1.18-.13-1.66-.39s-.87-.63-1.13-1.12c-.27-.49-.41-1.06-.41-1.71s.13-1.22,.41-1.71c.27-.49,.65-.86,1.13-1.12s1.04-.39,1.66-.39,1.18,.13,1.66,.38c.49,.26,.86,.62,1.13,1.1,.27,.48,.41,1.04,.41,1.68,0,.17-.01,.33-.03,.49Zm-2.47-1.08c0-.21-.07-.37-.2-.47-.13-.11-.3-.16-.5-.16-.44,0-.69,.21-.77,.63h1.47Z"/>
      <path class="cls-1" d="M141.23,217.58c.36-.22,.74-.33,1.13-.33v2.64h-.7c-.47,0-.81,.08-1.03,.24-.22,.16-.33,.45-.33,.87v2.57h-2.47v-6.28h2.47v1.16c.25-.36,.56-.65,.92-.87Z"/>
      <path class="cls-1" d="M149.67,217.97c.4,.48,.61,1.14,.61,1.96v3.64h-2.46v-3.33c0-.3-.08-.53-.24-.71-.16-.17-.37-.26-.64-.26s-.49,.09-.64,.26c-.16,.17-.23,.41-.23,.71v3.33h-2.47v-6.28h2.47v.96c.19-.3,.45-.54,.77-.72s.71-.28,1.15-.28c.72,0,1.28,.24,1.69,.72Z"/>
      <path class="cls-1" d="M157.95,220.87h-3.97c.04,.54,.26,.81,.68,.81,.27,0,.46-.12,.58-.37h2.62c-.09,.45-.28,.84-.56,1.2-.29,.35-.65,.63-1.08,.83s-.91,.31-1.43,.31c-.62,0-1.18-.13-1.66-.39s-.87-.63-1.13-1.12c-.27-.49-.41-1.06-.41-1.71s.13-1.22,.41-1.71c.27-.49,.65-.86,1.13-1.12s1.04-.39,1.66-.39,1.18,.13,1.66,.38c.49,.26,.86,.62,1.13,1.1,.27,.48,.41,1.04,.41,1.68,0,.17-.01,.33-.03,.49Zm-2.47-1.08c0-.21-.07-.37-.2-.47-.13-.11-.3-.16-.5-.16-.44,0-.69,.21-.77,.63h1.47Z"/>
      <path class="cls-1" d="M163.23,221.47v2.1h-.94c-1.72,0-2.58-.86-2.58-2.57v-1.65h-.78v-2.06h.78v-1.51h2.47v1.51h1.02v2.06h-1.02v1.69c0,.15,.04,.26,.11,.32,.07,.07,.19,.1,.35,.1h.59Z"/>
      <path class="cls-1" d="M32.79,232.07c.23-.49,.54-.86,.93-1.11,.39-.26,.83-.38,1.32-.38,.41,0,.76,.08,1.05,.25,.29,.17,.52,.39,.67,.68v-2.82h2.47v8.24h-2.47v-.86c-.16,.29-.38,.52-.67,.68-.29,.17-.64,.25-1.05,.25-.49,0-.93-.13-1.32-.38-.39-.26-.7-.63-.93-1.11s-.34-1.06-.34-1.72,.11-1.23,.34-1.72Zm3.73,.94c-.17-.19-.39-.28-.66-.28s-.49,.09-.66,.28c-.17,.19-.26,.45-.26,.78s.08,.59,.26,.78c.17,.19,.39,.28,.66,.28s.49-.09,.66-.28c.17-.19,.26-.45,.26-.78s-.08-.59-.26-.78Z"/>
      <path class="cls-1" d="M40.91,232.07c.23-.49,.54-.86,.93-1.11,.39-.26,.83-.38,1.32-.38,.41,0,.76,.08,1.06,.25s.52,.39,.68,.68v-.86h2.46v6.28h-2.46v-.86c-.16,.29-.38,.52-.68,.68s-.65,.25-1.06,.25c-.49,0-.93-.13-1.32-.38-.39-.26-.7-.63-.93-1.11s-.34-1.06-.34-1.72,.11-1.23,.34-1.72Zm3.73,.94c-.17-.19-.39-.28-.66-.28s-.49,.09-.66,.28-.26,.45-.26,.78,.09,.59,.26,.78,.39,.28,.66,.28,.49-.09,.66-.28c.17-.19,.26-.45,.26-.78s-.09-.59-.26-.78Z"/>
      <path class="cls-1" d="M55.11,231.33c.4,.48,.61,1.14,.61,1.96v3.64h-2.46v-3.33c0-.3-.08-.53-.24-.71-.16-.17-.37-.26-.64-.26s-.49,.09-.64,.26c-.16,.17-.23,.41-.23,.71v3.33h-2.47v-6.28h2.47v.96c.19-.3,.45-.54,.77-.72s.71-.28,1.15-.28c.72,0,1.28,.24,1.69,.72Z"/>
      <path class="cls-1" d="M70.04,231.33c.44,.48,.66,1.14,.66,1.96v3.64h-2.46v-3.33c0-.27-.08-.48-.24-.63-.16-.15-.37-.23-.64-.23s-.49,.08-.64,.23c-.16,.15-.23,.36-.23,.63v3.33h-2.46v-3.33c0-.27-.08-.48-.24-.63-.16-.15-.37-.23-.64-.23s-.49,.08-.65,.23c-.16,.15-.23,.36-.23,.63v3.33h-2.47v-6.28h2.47v.85c.18-.27,.42-.48,.73-.65,.31-.16,.67-.24,1.08-.24,.45,0,.85,.1,1.2,.29,.35,.2,.63,.47,.83,.83,.23-.33,.52-.6,.88-.81,.36-.21,.75-.32,1.18-.32,.8,0,1.42,.24,1.87,.72Z"/>
      <path class="cls-1" d="M78.37,234.22h-3.97c.04,.54,.26,.81,.68,.81,.27,0,.46-.12,.58-.37h2.62c-.09,.45-.28,.84-.56,1.2-.29,.35-.65,.63-1.08,.83s-.91,.31-1.43,.31c-.62,0-1.18-.13-1.66-.39s-.87-.63-1.13-1.12c-.27-.49-.41-1.06-.41-1.71s.13-1.22,.41-1.71c.27-.49,.65-.86,1.13-1.12s1.04-.39,1.66-.39,1.18,.13,1.66,.38c.49,.26,.86,.62,1.13,1.1,.27,.48,.41,1.04,.41,1.68,0,.17-.01,.33-.03,.49Zm-2.47-1.08c0-.21-.07-.37-.2-.47-.13-.11-.3-.16-.5-.16-.44,0-.69,.21-.77,.63h1.47Z"/>
      <path class="cls-1" d="M79.74,232.07c.23-.49,.54-.86,.93-1.11,.39-.26,.84-.38,1.33-.38,.41,0,.76,.08,1.05,.25s.52,.39,.67,.68v-2.82h2.47v8.24h-2.47v-.86c-.16,.29-.38,.52-.67,.68s-.64,.25-1.05,.25c-.49,0-.93-.13-1.33-.38-.39-.26-.7-.63-.93-1.11-.23-.49-.34-1.06-.34-1.72s.11-1.23,.34-1.72Zm3.73,.94c-.17-.19-.39-.28-.66-.28s-.49,.09-.66,.28c-.17,.19-.26,.45-.26,.78s.08,.59,.26,.78c.17,.19,.39,.28,.66,.28s.49-.09,.66-.28c.17-.19,.26-.45,.26-.78s-.08-.59-.26-.78Z"/>
      <path class="cls-1" d="M88.07,229.8c-.26-.23-.39-.52-.39-.87s.13-.65,.39-.88,.6-.35,1.04-.35,.76,.12,1.02,.35,.39,.53,.39,.88-.13,.64-.39,.87c-.26,.23-.6,.34-1.02,.34s-.78-.11-1.04-.34Zm2.26,.85v6.28h-2.47v-6.28h2.47Z"/>
      <path class="cls-1" d="M92.01,232.07c.23-.49,.54-.86,.93-1.11,.39-.26,.83-.38,1.32-.38,.41,0,.76,.08,1.06,.25s.52,.39,.68,.68v-.86h2.46v6.28h-2.46v-.86c-.16,.29-.38,.52-.68,.68s-.65,.25-1.06,.25c-.49,0-.93-.13-1.32-.38-.39-.26-.7-.63-.93-1.11s-.34-1.06-.34-1.72,.11-1.23,.34-1.72Zm3.73,.94c-.17-.19-.39-.28-.66-.28s-.49,.09-.66,.28c-.17,.19-.26,.45-.26,.78s.08,.59,.26,.78c.17,.19,.39,.28,.66,.28s.49-.09,.66-.28c.17-.19,.26-.45,.26-.78s-.08-.59-.26-.78Z"/>
      <path class="cls-1" d="M103.79,236.72c-.46-.19-.82-.46-1.09-.8s-.42-.73-.46-1.16h2.37c.03,.19,.11,.32,.24,.41,.13,.09,.29,.13,.49,.13,.13,0,.23-.03,.3-.08s.11-.12,.11-.21c0-.14-.08-.24-.23-.3s-.42-.13-.79-.2c-.45-.09-.83-.19-1.12-.29-.29-.1-.55-.28-.77-.53-.22-.25-.33-.6-.33-1.05,0-.39,.1-.74,.31-1.05s.51-.56,.91-.75,.89-.27,1.46-.27c.85,0,1.51,.21,1.99,.62,.48,.42,.77,.96,.86,1.62h-2.19c-.04-.17-.12-.3-.23-.4s-.28-.14-.48-.14c-.13,0-.22,.02-.29,.07-.07,.05-.1,.12-.1,.22,0,.13,.08,.22,.23,.28,.16,.06,.4,.13,.75,.2,.45,.09,.83,.19,1.15,.3s.58,.3,.81,.57c.23,.27,.34,.64,.34,1.12,0,.37-.11,.71-.32,1-.21,.3-.52,.53-.93,.7s-.88,.26-1.42,.26c-.59,0-1.12-.1-1.57-.29Z"/>
      <path class="cls-1" d="M110.85,236.62c-.5-.26-.9-.63-1.19-1.12-.29-.49-.43-1.06-.43-1.71s.14-1.22,.43-1.71c.29-.49,.68-.86,1.19-1.12,.5-.26,1.07-.39,1.7-.39s1.2,.13,1.7,.39c.5,.26,.9,.63,1.19,1.12,.29,.49,.43,1.06,.43,1.71s-.14,1.22-.43,1.71c-.29,.49-.68,.86-1.19,1.12-.5,.26-1.07,.39-1.7,.39s-1.2-.13-1.7-.39Zm2.28-2.02c.16-.18,.23-.45,.23-.81s-.08-.62-.23-.81-.35-.27-.58-.27-.42,.09-.58,.27c-.16,.18-.23,.45-.23,.81s.08,.62,.23,.81c.15,.18,.35,.27,.58,.27s.42-.09,.58-.27Z"/>
      <path class="cls-1" d="M118.43,236.72c-.46-.19-.82-.46-1.08-.8s-.42-.73-.46-1.16h2.37c.03,.19,.11,.32,.24,.41,.13,.09,.29,.13,.5,.13,.12,0,.23-.03,.3-.08,.07-.06,.11-.12,.11-.21,0-.14-.08-.24-.23-.3s-.42-.13-.79-.2c-.45-.09-.82-.19-1.12-.29-.29-.1-.55-.28-.77-.53-.22-.25-.33-.6-.33-1.05,0-.39,.1-.74,.31-1.05s.51-.56,.91-.75,.89-.27,1.46-.27c.85,0,1.51,.21,1.99,.62,.48,.42,.77,.96,.86,1.62h-2.19c-.04-.17-.12-.3-.23-.4s-.28-.14-.48-.14c-.13,0-.22,.02-.29,.07-.07,.05-.1,.12-.1,.22,0,.13,.08,.22,.23,.28,.16,.06,.4,.13,.75,.2,.45,.09,.83,.19,1.15,.3s.58,.3,.81,.57c.23,.27,.34,.64,.34,1.12,0,.37-.11,.71-.32,1-.22,.3-.53,.53-.93,.7s-.88,.26-1.42,.26c-.59,0-1.12-.1-1.58-.29Z"/>
      <path class="cls-1" d="M124.42,229.8c-.26-.23-.39-.52-.39-.87s.13-.65,.39-.88c.26-.23,.6-.35,1.04-.35s.76,.12,1.02,.35,.39,.53,.39,.88-.13,.64-.39,.87c-.26,.23-.6,.34-1.02,.34s-.78-.11-1.04-.34Zm2.26,.85v6.28h-2.47v-6.28h2.47Z"/>
      <path class="cls-1" d="M128.36,232.07c.23-.49,.54-.86,.93-1.11,.39-.26,.83-.38,1.32-.38,.41,0,.76,.08,1.06,.25s.52,.39,.68,.68v-.86h2.46v6.28h-2.46v-.86c-.16,.29-.38,.52-.68,.68s-.65,.25-1.06,.25c-.49,0-.93-.13-1.32-.38-.39-.26-.7-.63-.93-1.11s-.34-1.06-.34-1.72,.11-1.23,.34-1.72Zm3.73,.94c-.17-.19-.39-.28-.66-.28s-.49,.09-.66,.28-.26,.45-.26,.78,.09,.59,.26,.78,.39,.28,.66,.28,.49-.09,.66-.28c.17-.19,.26-.45,.26-.78s-.09-.59-.26-.78Z"/>
      <path class="cls-1" d="M138.95,228.69v8.24h-2.47v-8.24h2.47Z"/>
      <path class="cls-1" d="M141.56,236.67c-.26-.23-.39-.52-.39-.87s.13-.65,.39-.88,.6-.35,1.04-.35,.76,.12,1.02,.35,.39,.53,.39,.88-.13,.64-.39,.87c-.26,.23-.6,.34-1.02,.34s-.78-.12-1.04-.34Zm2.38-8.15l-.29,5.28h-2.11l-.29-5.28h2.69Z"/>
    </g>
  </g>
  <g class="cls-10">
    <g>
      <polygon class="cls-7" points="173.04 108.11 160.77 111.57 165.65 130.89 183.06 127.05 184.1 109.73 173.04 108.11"/>
      <path class="cls-9" d="M235.98,145.17c8.1,17.6,36.6,61.35,36.6,61.35l-104.77-1.34,12.93-51.42,7.57-7.01,47.67-1.59Z"/>
    </g>
  </g>
</svg>