<?xml version="1.0" encoding="UTF-8"?>
<svg id="Layer_2" data-name="Layer 2" xmlns="http://www.w3.org/2000/svg" xmlns:xlink="http://www.w3.org/1999/xlink" viewBox="0 0 173.25 246.95">
  <defs>
    <style>
      .cls-1 {
        fill: #fff;
      }

      .cls-2 {
        stroke-width: .53px;
      }

      .cls-2, .cls-3 {
        stroke: #fff;
      }

      .cls-2, .cls-3, .cls-4, .cls-5 {
        fill: none;
      }

      .cls-2, .cls-3, .cls-4, .cls-6 {
        stroke-miterlimit: 10;
      }

      .cls-7 {
        fill: #363636;
      }

      .cls-8 {
        fill: #eeb2ff;
      }

      .cls-3 {
        stroke-width: .56px;
      }

      .cls-9 {
        fill: #f55;
      }

      .cls-4, .cls-6 {
        stroke: #aadef7;
        stroke-width: .96px;
      }

      .cls-10 {
        clip-path: url(#clippath-1);
      }

      .cls-11 {
        fill: #e64c00;
      }

      .cls-12 {
        clip-path: url(#clippath);
      }

      .cls-13 {
        fill: #8fcc8f;
      }

      .cls-14, .cls-6 {
        fill: #aadef7;
      }

      .cls-15 {
        fill: #c3edc3;
      }
    </style>
    <clipPath id="clippath">
      <rect class="cls-5" x="6.08" y="7.46" width="160.53" height="198.84" rx="14.3" ry="14.3"/>
    </clipPath>
    <clipPath id="clippath-1">
      <path class="cls-5" d="M356.78,7.4H224.85c-7.9,0-14.3,6.4-14.3,14.3V191.93c0,7.9,6.4,14.3,14.3,14.3h131.93c7.9,0,14.3-6.4,14.3-14.3V21.7c0-7.9-6.4-14.3-14.3-14.3Z"/>
    </clipPath>
  </defs>
  <g>
    <rect class="cls-11" x="-.05" y=".23" width="173.34" height="246.49" rx="13.2" ry="13.2"/>
    <rect class="cls-8" x="6.08" y="7.46" width="160.53" height="198.84" rx="14.3" ry="14.3"/>
    <g class="cls-12">
      <g>
        <g>
          <path class="cls-1" d="M24.48,32.52l124.58-3.3c4.36-.12,7.97,3.34,8.05,7.7l2.06,110.04c.08,4.28-3.29,7.83-7.56,7.99l-122.65,4.39c-4.33,.15-7.97-3.23-8.12-7.56l-3.99-111.13c-.16-4.36,3.27-8.01,7.63-8.12Z"/>
          <circle class="cls-14" cx="38.15" cy="53.26" r="12.2"/>
          <polygon class="cls-14" points="54.65 43.85 56.15 50.78 96.92 48.15 98.07 41.06 54.65 43.85"/>
          <polygon class="cls-14" points="57.22 55.67 57.22 58.95 83.73 57.05 83.73 53.81 57.22 55.67"/>
          <polygon class="cls-14" points="28.5 78.27 147.06 71.59 147.06 81.99 28.5 84.46 28.5 78.27"/>
          <polygon class="cls-14" points="28.5 89.41 134.68 88.17 134.68 94.27 28.5 98.07 28.5 89.41"/>
          <polygon class="cls-14" points="30.99 103.89 140.13 101.04 141.86 105.75 36.42 110.95 30.99 103.89"/>
          <polygon class="cls-14" points="30.99 116.29 30.99 121.74 139.88 119.01 138.4 110.95 30.99 116.29"/>
          <line class="cls-4" x1="25.94" y1="134.43" x2="150.77" y2="130.39"/>
          <path class="cls-6" d="M31.77,140.38l30.19-.97c1.18-.04,2.2,.84,2.32,2.02l.75,7.03c.14,1.31-.86,2.45-2.17,2.5l-30.55,1.1c-1.23,.04-2.27-.91-2.34-2.14l-.39-7.16c-.07-1.27,.92-2.34,2.19-2.39Z"/>
        </g>
        <g>
          <polygon class="cls-15" points="76.22 129.56 81.01 192.23 149.71 192.23 150.43 124.75 76.22 129.56"/>
          <polygon class="cls-7" points="76.22 129.56 150.43 124.75 150.26 140.83 77.42 145.32 76.22 129.56"/>
          <polyline class="cls-3" points="84.29 134.51 81.81 137.59 84.84 139.63"/>
          <polygon class="cls-13" points="85.92 153.72 134.95 150.63 134.95 160.63 101.29 163.72 92.7 170.06 94.39 163.87 88.47 164.29 85.92 153.72"/>
          <polygon class="cls-1" points="107.39 171.64 137.81 168.61 138.51 177.35 143.87 182.13 138.37 180.86 138.8 185.23 107.39 187.9 107.39 171.64"/>
        </g>
        <g>
          <polygon class="cls-1" points="35.72 177.25 56.3 176.74 47.61 193.18 43.33 187.39 30.58 197.12 26.07 189.74 40.64 183.42 35.72 177.25"/>
          <line class="cls-2" x1="57.97" y1="175.46" x2="62.6" y2="173.21"/>
          <line class="cls-2" x1="58.23" y1="179.87" x2="63.39" y2="180.61"/>
          <line class="cls-2" x1="56.1" y1="172.5" x2="57.22" y2="168.44"/>
        </g>
      </g>
    </g>
    <g>
      <path class="cls-1" d="M49.79,215.84v7.91l-.5,.28h-10.87l-.5-.28,.3-1.69,.39,.23h8.2v-1.47h-8.12l-.5-.28,.3-1.69,.39,.23h7.93v-1.47h-8.3l-.49-.28,.3-1.69,.39,.22h3.82v-3.91h2.97v3.91h4.27Zm-8.01-2.11l-1.68,1.66-1.66-1.66,1.66-1.68,1.68,1.68Zm7.73,0l-1.68,1.66-1.66-1.66,1.66-1.68,1.68,1.68Z"/>
      <path class="cls-1" d="M51.63,219.46c.64-.27,1.18-.57,1.63-.91l-.95-.43,.74-1.64,1.6,.72,.27-.38-1.69-.69,.69-1.68,1.73,.72c.06-.19,.13-.48,.2-.88h-3.1l-.46-.28v-2.07h2.57v.59h3.53c0,2.09-.36,3.76-1.04,5.01-.73,1.33-2.01,2.5-3.84,3.49l-1.89-1.58Zm.51,3.38l1.43-1.42,1.42,1.42-1.42,1.43-1.43-1.43Zm3.05,0l1.43-1.42,1.42,1.42-1.42,1.43-1.43-1.43Zm3.72-6.97l-.5-.28,.3-1.69,.39,.23h.66c.02-.41,.03-.73,.03-.96v-1.24h2.51v2.2s1.51,0,1.51,0l.39-.23,.3,1.69-.49,.28h-1.88c-.08,.48-.16,.84-.23,1.09l.89-.46,1.93,3.77-2.07,1.07-1.35-2.62c-.43,.98-.96,1.81-1.58,2.47l-2.42-.97c1.15-1.34,1.89-2.79,2.22-4.35h-.62Zm-.66,6.97l1.43-1.42,1.42,1.42-1.42,1.43-1.43-1.43Zm3.05,0l1.43-1.42,1.42,1.42-1.42,1.43-1.43-1.43Zm3.03-9.92l-.95,.95-.95-.95,.95-.95,.95,.95Z"/>
      <path class="cls-1" d="M78.06,222.38l.38-.22,.28,1.62-.47,.28h-7.85l-1.3-.81-.34,1.04-2.68-.43,1.24-3.89,2.68,.43-.31,.99,1.55,.99h.09v-2.69h-4.91l-.47-.27,.28-1.63,.38,.22h11.43l.38-.22,.28,1.63-.47,.27h-4.07v.51h3.1l.35-.2,.26,1.51-.43,.26h-3.27v.61h3.88Zm-3.19-8.57h-7.66l-.47-.28,.28-1.62,.38,.22h10.31v5.14l-.47,.28h-10.3v-3.47h2.84v1.78h5.09v-.39h-4.78v-1.27h4.78v-.38Z"/>
      <path class="cls-1" d="M92.78,223.73l-.45,.26h-11.14l-.45-.26v-5.66h-.19l-.5-.28,.3-1.69,.39,.23h2.84v6.09h8.57l.35-.2,.27,1.51Zm-8.78-9.81l-1.84,1.84-1.85-1.84,1.85-1.85,1.84,1.85Zm.51-.27l-.41-.24,.24-1.39,.32,.19h8.03v.53l-1.43,1.99h1.23v7.03l-.5,.28h-1.89v-1.39h-.51v1.34h-2.3v-1.34h-.51v1.39h-2.39v-5.65h2.39v.62h.51v-.84h-2.65l-.42-.23,.26-1.41,.32,.19h.77l-.37-.69,2.39-.2,.45,.89h.65l.77-1.07h-4.96Zm2.27,5.53h.51v-.73h-.51v.73Zm3.33-2.18v-.84h-.51v.84h.51Zm-.51,2.18h.51v-.73h-.51v.73Z"/>
      <path class="cls-1" d="M106.74,222l.3,1.7-.5,.28h-11.11l-.49-.28v-5.8h-.19l-.5-.28,.3-1.7,.39,.23h2.84v6.08h8.55l.41-.23Zm-8.56-8.19l-1.84,1.85-1.85-1.85,1.85-1.84,1.84,1.84Zm5.14,1.47h-4.45l-.5-.28,.3-1.7,.41,.23h4.24v-1.65h2.84v1.65h.26l.39-.23,.3,1.7-.49,.28h-.46v6.19h-4.45l-.49-.28,.3-1.7,.39,.23h1.41v-4.43Zm-2.88,.78l1.84,1.85-1.84,1.85-1.85-1.85,1.85-1.85Z"/>
      <path class="cls-1" d="M120.47,222.26l.39-.22,.3,1.69-.49,.28h-11.51l-.49-.28,.3-1.69,.39,.22h7.35l.16-1.5h-7.55l.77-6.84h-.93l-.49-.28,.3-1.69,.39,.23h11.11l.39-.23,.3,1.69-.49,.28h-7.74l-.18,1.51h7.57l-.77,6.82h.92Zm-8.12-3.26h4.73l.2-1.81h-4.72l-.22,1.81Z"/>
      <path class="cls-1" d="M129.22,222.66l-.49,.28h-.16v1.3h-2.28v-1.3h-3.3v-1.74h.24v-6.95h2.28v6.95h.77v-1.27h-.57v-1.76h.57v-1.24h-.57v-1.76h.57v-1.26h-2.99l-.5-.28,.3-1.7,.39,.23h4.95l.39-.23,.3,1.7-.5,.28h-.05v7.26l.35-.2,.3,1.69Zm6.29,.76l-2.16,.82-.77-2.05c-.4,.91-.9,1.66-1.49,2.24l-2.11-1.19c.96-1.09,1.57-2.37,1.81-3.84h-1.46l-.49-.28,.3-1.69,.39,.22h1.38v-1.28h-1.3l-.5-.28,.3-1.69,.39,.22h4.8l.39-.22,.3,1.69-.5,.28h-1.18v1.28h1.19l.41-.22,.3,1.69-.5,.28h-1.66l-.12,.72,.91-.34,1.38,3.64Zm-3.28-10.35l-1.39,1.38-1.38-1.38,1.38-1.38,1.39,1.38Zm2.86,0l-1.38,1.38-1.38-1.38,1.38-1.38,1.38,1.38Z"/>
      <path class="cls-1" d="M49.85,228.32v12.03h-3.68l-.38-.22,.23-1.3,.3,.18h.96v-8.93h-9.04l-.5-.3,.3-1.69,.41,.23h11.41Zm-11.89,12.03v-9.93h2.57v9.93h-2.57Zm4.53-9.55l1.34,.28-.76,3.68,.76,3.68-1.34,.28-.24-1.16-.23,1.16-1.35-.28,.76-3.68-.76-3.68,1.35-.28,.23,1.15,.24-1.15Zm4.65,7.64l-1.35,.28-.24-1.16-.23,1.16-1.35-.28,.76-3.68-.76-3.68,1.35-.28,.23,1.15,.24-1.15,1.35,.28-.77,3.68,.77,3.68Z"/>
      <path class="cls-1" d="M57.52,231.97l.39-.23,.3,1.69-.49,.28h-1.27v6.68h-2.84v-6.68h-1.29l-.49-.28,.3-1.69,.39,.23h1.08v-1.88h-1.55v-1.76h5.32l.39-.22,.3,1.69-.49,.28h-1.13v1.88h1.07Zm-5.51,8.18l.26-5.95,1.08,.05-.26,5.95-1.08-.05Zm4.7-5.89l1.08-.05,.26,5.95-1.08,.05-.26-5.95Zm7.33-5.77v11.34l-.5,.28h-5.03v-9.43h2.43v7.68h.68v-8.11h-2.78l-.49-.3,.3-1.69,.39,.23h5Z"/>
      <path class="cls-1" d="M71.38,231.53c-.23,.98-.61,1.89-1.16,2.73v6.2h-2.7v-3.31c-.12,.1-.24,.2-.38,.3l-1.45-1.45c1.19-.92,2.07-1.83,2.65-2.73h-1.83l-.5-.28,.3-1.69,.41,.23h4.66Zm-.89-1.88l-1.74,1.74-1.74-1.74,1.74-1.74,1.74,1.74Zm2.16,6.16l-1.18,1.18-1.18-1.18,1.18-1.16,1.18,1.16Zm6,2.43l.3,1.7-.5,.28h-6.76l-.49-.28,.3-1.7,.39,.23h1.91v-5.73h-1.73l-.5-.28,.3-1.7,.39,.23h1.54v-2.65h2.7v2.65h1.54l.39-.23,.3,1.7-.49,.28h-1.74v5.73h1.74l.4-.23Z"/>
      <path class="cls-1" d="M85.9,232.69l-5.12,2.27-.84-1.88,5.13-2.26,.82,1.86Zm4.85,2.2c-.43,.54-1.09,1.18-1.96,1.91,1.28,.76,2.66,1.4,4.13,1.93l-1.74,1.85c-1.42-.35-2.95-1.07-4.6-2.15-1.62,1.07-3.15,1.79-4.59,2.15l-1.73-1.85c1.46-.52,2.84-1.17,4.13-1.93-.89-.73-1.54-1.36-1.96-1.91l2.22-1.38c.57,.63,1.21,1.22,1.93,1.78,.67-.51,1.32-1.11,1.95-1.78l2.22,1.38Zm1.6-4.16h-11.49l-.49-.3,.3-1.69,.39,.23h4.05v-.89h2.97v.89h4.05l.39-.23,.3,1.69-.49,.3Zm-5.05,1.96l.82-1.86,5.12,2.26-.83,1.88-5.12-2.27Z"/>
      <path class="cls-1" d="M99.48,238.92l-1.46,1.32-1.03-1.27c-.3,.38-.68,.82-1.15,1.33l-1.46-1.09c.65-.71,1.13-1.28,1.43-1.7l-.91-1.12v-5.08h-.11l-.5-.3,.3-1.69,.42,.23v-1.34h2.24v1.34h1.85v3.57c0,1.45-.33,2.83-1,4.15l1.37,1.66Zm-2.73-3.32l.08,.09c.3-.78,.45-1.57,.45-2.38v-2.01h-.53v4.3Zm3.15-5.05h-.22l-.49-.28,.3-1.69,.41,.22v-.57h2.57v.57h1.39v-.57h2.55v.57l.4-.22,.3,1.69-.49,.28h-.22v3.73h-6.51v-3.73Zm6.53,4.57l.39-.22,.3,1.69-.49,.28h-2.12v3.62h-2.7v-3.62h-2.12l-.49-.28,.3-1.69,.39,.22h1.92v-.61h2.7v.61h1.92Zm-7.03,5.04l.35-2.97,1.8,.2-.35,2.99-1.8-.22Zm4.46-9.61h-1.39v2.18h1.39v-.45h-1.03v-1.3h1.03v-.43Zm.93,6.84l1.8-.2,.34,2.97-1.8,.22-.34-2.99Z"/>
      <path class="cls-1" d="M112.32,228.51c-.32,1.53-.68,2.99-1.11,4.37h.8v7.53h-2.7v-6.69l-1.04-.26c.54-1.61,1.01-3.41,1.41-5.38l2.65,.43Zm6.19,3.41l2-.16,.61,8.46-2.01,.16-.08-1.14h-.79v1.22h-2.84v-1.22h-.8l-.08,1.14-2-.16,.59-8.46,2.01,.16-.41,5.57h.68v-6.07h-2.57l-.5-.28,.3-1.69,.4,.23h2.37v-1.55h2.84v1.55h2.37l.39-.23,.3,1.69-.5,.28h-2.55v6.07h.66l-.39-5.57Z"/>
      <path class="cls-1" d="M129.18,237.46c.33,.33,.5,.72,.5,1.19s-.17,.87-.5,1.19c-.32,.33-.72,.5-1.19,.5s-.86-.17-1.19-.5c-.33-.32-.5-.72-.5-1.19s.17-.86,.5-1.19c.33-.33,.72-.5,1.19-.5s.87,.17,1.19,.5Zm.3-9.08v8.07h-2.97v-8.07h2.97Z"/>
    </g>
  </g>
  <g class="cls-10">
    <g>
      <polygon class="cls-7" points="172.69 108.11 160.42 111.57 165.3 130.89 182.71 127.05 183.75 109.73 172.69 108.11"/>
      <path class="cls-9" d="M235.63,145.17c8.1,17.6,36.6,61.35,36.6,61.35l-104.77-1.34,12.93-51.42,7.57-7.01,47.67-1.59Z"/>
    </g>
  </g>
</svg>