<?xml version="1.0" encoding="UTF-8"?>
<svg id="Layer_2" data-name="Layer 2" xmlns="http://www.w3.org/2000/svg" xmlns:xlink="http://www.w3.org/1999/xlink" viewBox="0 0 195.67 284.38">
  <defs>
    <style>
      .cls-1 {
        fill: #fff;
      }

      .cls-2 {
        fill: #363636;
      }

      .cls-3 {
        fill: #eeb2ff;
      }

      .cls-4 {
        fill: #e64c00;
      }

      .cls-5 {
        clip-path: url(#clippath);
      }

      .cls-6 {
        fill: none;
      }

      .cls-7 {
        fill: #8fcc8f;
      }

      .cls-8 {
        fill: #aadef7;
      }

      .cls-9 {
        fill: #c3edc3;
      }
    </style>
    <clipPath id="clippath">
      <rect class="cls-6" x="19.29" y="23.69" width="160.53" height="198.84" rx="14.3" ry="14.3"/>
    </clipPath>
  </defs>
  <rect class="cls-4" x="13.16" y="16.46" width="173.34" height="246.49" rx="13.2" ry="13.2"/>
  <rect class="cls-3" x="19.29" y="23.69" width="160.53" height="198.84" rx="14.3" ry="14.3"/>
  <g>
    <path class="cls-1" d="M32.93,230.84v1.6h-2.07v6.58h-1.91v-6.58h-2.07v-1.6h6.05Z"/>
    <path class="cls-1" d="M39.99,233.18c.43,.49,.65,1.17,.65,2.03v3.8h-1.89v-3.53c0-.44-.11-.77-.32-1.01-.22-.24-.5-.36-.87-.36s-.65,.12-.87,.36c-.22,.24-.32,.58-.32,1.01v3.53h-1.91v-8.62h1.91v2.99c.19-.29,.46-.52,.79-.69,.33-.17,.71-.26,1.12-.26,.71,0,1.28,.25,1.71,.74Z"/>
    <path class="cls-1" d="M48.34,236.24h-4.31c.03,.4,.15,.71,.37,.93,.22,.21,.49,.32,.81,.32,.47,0,.81-.21,.99-.63h2.03c-.1,.43-.29,.81-.56,1.15-.27,.34-.61,.61-1.02,.8-.41,.19-.87,.29-1.37,.29-.61,0-1.15-.14-1.63-.41-.48-.27-.85-.66-1.11-1.16-.27-.51-.4-1.1-.4-1.77s.13-1.27,.4-1.77c.26-.5,.63-.89,1.11-1.16,.48-.27,1.02-.41,1.64-.41s1.14,.13,1.6,.4,.83,.64,1.1,1.13c.26,.49,.4,1.06,.4,1.71,0,.19-.01,.38-.03,.58Zm-1.92-1.11c0-.34-.11-.61-.33-.82-.22-.2-.5-.3-.84-.3s-.59,.1-.81,.29c-.22,.2-.35,.47-.41,.83h2.38Z"/>
    <path class="cls-1" d="M54.76,230.84v8.18h-1.91v-8.18h1.91Z"/>
    <path class="cls-1" d="M62.23,233.18c.43,.49,.65,1.17,.65,2.03v3.8h-1.89v-3.53c0-.44-.11-.77-.32-1.01-.22-.24-.5-.36-.87-.36s-.65,.12-.87,.36c-.22,.24-.32,.58-.32,1.01v3.53h-1.91v-6.5h1.91v.86c.19-.29,.45-.51,.78-.68,.33-.17,.69-.25,1.1-.25,.73,0,1.31,.25,1.74,.74Z"/>
    <path class="cls-1" d="M68.22,237.32v1.69h-.97c-.69,0-1.23-.18-1.62-.53-.39-.35-.58-.93-.58-1.73v-2.59h-.76v-1.65h.76v-1.58h1.91v1.58h1.25v1.65h-1.25v2.61c0,.19,.04,.33,.13,.42,.09,.09,.24,.13,.45,.13h.68Z"/>
    <path class="cls-1" d="M75.66,236.24h-4.31c.03,.4,.15,.71,.37,.93,.22,.21,.49,.32,.81,.32,.47,0,.81-.21,.99-.63h2.03c-.1,.43-.29,.81-.56,1.15-.27,.34-.61,.61-1.02,.8-.41,.19-.87,.29-1.37,.29-.61,0-1.15-.14-1.63-.41-.48-.27-.85-.66-1.11-1.16-.27-.51-.4-1.1-.4-1.77s.13-1.27,.4-1.77c.26-.5,.63-.89,1.11-1.16,.48-.27,1.02-.41,1.64-.41s1.14,.13,1.6,.4,.83,.64,1.1,1.13c.26,.49,.4,1.06,.4,1.71,0,.19-.01,.38-.03,.58Zm-1.92-1.11c0-.34-.11-.61-.33-.82-.22-.2-.5-.3-.84-.3s-.59,.1-.81,.29c-.22,.2-.35,.47-.41,.83h2.38Z"/>
    <path class="cls-1" d="M80,232.75c.33-.21,.71-.31,1.11-.31v2.11h-.52c-.48,0-.83,.11-1.07,.32-.24,.21-.36,.59-.36,1.12v3.02h-1.91v-6.5h1.91v1.08c.22-.36,.5-.64,.83-.85Z"/>
    <path class="cls-1" d="M88.11,233.18c.43,.49,.65,1.17,.65,2.03v3.8h-1.89v-3.53c0-.44-.11-.77-.32-1.01-.22-.24-.5-.36-.87-.36s-.65,.12-.87,.36c-.22,.24-.32,.58-.32,1.01v3.53h-1.91v-6.5h1.91v.86c.19-.29,.45-.51,.78-.68,.33-.17,.69-.25,1.1-.25,.73,0,1.31,.25,1.74,.74Z"/>
    <path class="cls-1" d="M96.47,236.24h-4.31c.03,.4,.15,.71,.37,.93,.22,.21,.49,.32,.81,.32,.47,0,.81-.21,.99-.63h2.03c-.1,.43-.29,.81-.56,1.15-.27,.34-.61,.61-1.02,.8-.41,.19-.87,.29-1.37,.29-.61,0-1.15-.14-1.63-.41-.48-.27-.85-.66-1.11-1.16-.27-.51-.4-1.1-.4-1.77s.13-1.27,.4-1.77c.26-.5,.63-.89,1.11-1.16,.48-.27,1.02-.41,1.64-.41s1.14,.13,1.6,.4,.83,.64,1.1,1.13c.26,.49,.4,1.06,.4,1.71,0,.19-.01,.38-.03,.58Zm-1.92-1.11c0-.34-.11-.61-.33-.82-.22-.2-.5-.3-.84-.3s-.59,.1-.81,.29c-.22,.2-.35,.47-.41,.83h2.38Z"/>
    <path class="cls-1" d="M101.53,237.32v1.69h-.97c-.69,0-1.23-.18-1.62-.53-.39-.35-.58-.93-.58-1.73v-2.59h-.76v-1.65h.76v-1.58h1.91v1.58h1.25v1.65h-1.25v2.61c0,.19,.04,.33,.13,.42,.09,.09,.24,.13,.45,.13h.68Z"/>
    <path class="cls-1" d="M106.05,233.99c.24-.5,.57-.89,.99-1.16,.42-.27,.88-.41,1.39-.41,.44,0,.82,.09,1.15,.28,.33,.19,.58,.43,.76,.73v-.92h1.91v6.5h-1.91v-.92c-.19,.3-.44,.55-.77,.73-.33,.19-.71,.28-1.15,.28-.5,0-.97-.14-1.38-.41-.42-.28-.75-.67-.99-1.18-.24-.51-.36-1.1-.36-1.77s.12-1.25,.36-1.76Zm3.9,.6c-.26-.29-.58-.43-.96-.43s-.7,.14-.96,.43c-.26,.28-.4,.67-.4,1.17s.13,.89,.4,1.18c.26,.29,.58,.44,.96,.44s.7-.14,.96-.43c.26-.29,.4-.68,.4-1.18s-.13-.89-.4-1.18Z"/>
    <path class="cls-1" d="M119.71,233.18c.43,.49,.65,1.17,.65,2.03v3.8h-1.89v-3.53c0-.44-.11-.77-.32-1.01-.22-.24-.5-.36-.87-.36s-.65,.12-.87,.36c-.22,.24-.32,.58-.32,1.01v3.53h-1.91v-6.5h1.91v.86c.19-.29,.45-.51,.78-.68,.33-.17,.69-.25,1.1-.25,.73,0,1.31,.25,1.74,.74Z"/>
    <path class="cls-1" d="M122.23,233.99c.24-.5,.57-.89,.99-1.16,.42-.27,.88-.41,1.39-.41,.41,0,.78,.09,1.12,.27,.34,.18,.6,.42,.8,.72v-3.02h1.91v8.62h-1.91v-.93c-.18,.31-.43,.56-.76,.75-.33,.19-.71,.28-1.15,.28-.51,0-.98-.14-1.39-.41-.42-.28-.75-.67-.99-1.18-.24-.51-.36-1.1-.36-1.77s.12-1.25,.36-1.76Zm3.9,.6c-.26-.29-.58-.43-.96-.43s-.7,.14-.96,.43c-.26,.28-.4,.67-.4,1.17s.13,.89,.4,1.18c.26,.29,.58,.44,.96,.44s.7-.14,.96-.43c.26-.29,.4-.68,.4-1.18s-.13-.89-.4-1.18Z"/>
    <path class="cls-1" d="M134.37,238.82c-.42-.2-.76-.46-1-.8s-.38-.72-.41-1.13h1.88c.02,.22,.12,.41,.3,.55,.18,.14,.4,.21,.66,.21,.24,0,.42-.05,.55-.14s.2-.22,.2-.38c0-.19-.09-.32-.28-.41-.19-.09-.49-.19-.9-.3-.45-.11-.82-.22-1.11-.34-.3-.12-.55-.31-.77-.57s-.32-.61-.32-1.05c0-.37,.1-.71,.3-1.02,.2-.31,.49-.55,.87-.73,.38-.18,.84-.27,1.37-.27,.78,0,1.39,.2,1.84,.61,.45,.4,.71,.94,.77,1.61h-1.76c-.03-.22-.12-.4-.28-.54-.16-.13-.37-.2-.63-.2-.22,0-.39,.04-.51,.13-.12,.09-.18,.21-.18,.37,0,.19,.09,.33,.28,.42s.48,.19,.89,.28c.46,.12,.84,.25,1.12,.37,.29,.12,.54,.31,.76,.58,.22,.27,.33,.63,.34,1.08,0,.38-.1,.72-.31,1.02s-.5,.53-.88,.71c-.38,.17-.83,.26-1.33,.26-.54,0-1.03-.1-1.45-.29Z"/>
    <path class="cls-1" d="M141.25,238.7c-.49-.27-.87-.66-1.15-1.16-.28-.51-.42-1.1-.42-1.77s.14-1.26,.42-1.77c.28-.51,.67-.9,1.16-1.17s1.04-.41,1.65-.41,1.16,.14,1.65,.41c.49,.27,.88,.66,1.16,1.17,.28,.51,.42,1.1,.42,1.77s-.14,1.26-.43,1.77c-.29,.51-.68,.9-1.17,1.17-.49,.27-1.04,.41-1.65,.41s-1.16-.14-1.64-.41Zm2.57-1.74c.26-.28,.38-.68,.38-1.2s-.12-.92-.37-1.2c-.25-.28-.55-.42-.92-.42s-.68,.14-.92,.41-.37,.68-.37,1.21,.12,.92,.36,1.2c.24,.28,.54,.42,.91,.42s.67-.14,.93-.42Z"/>
    <path class="cls-1" d="M147.73,233.99c.26-.5,.63-.89,1.1-1.16,.47-.27,1.01-.41,1.62-.41,.78,0,1.43,.21,1.96,.64,.52,.43,.87,1.03,1.03,1.81h-2.03c-.17-.5-.5-.75-.99-.75-.35,0-.63,.14-.83,.43-.21,.28-.31,.69-.31,1.22s.1,.93,.31,1.22c.21,.29,.49,.43,.83,.43,.49,0,.82-.25,.99-.75h2.03c-.16,.76-.51,1.36-1.04,1.79s-1.18,.65-1.95,.65c-.61,0-1.15-.14-1.62-.41-.47-.27-.84-.66-1.1-1.16-.26-.51-.4-1.1-.4-1.77s.13-1.27,.4-1.77Z"/>
    <path class="cls-1" d="M155.15,231.53c-.21-.21-.32-.46-.32-.76s.11-.57,.32-.78c.21-.21,.48-.31,.82-.31s.6,.1,.81,.31c.21,.21,.32,.46,.32,.78s-.11,.56-.32,.76c-.21,.21-.48,.31-.81,.31s-.61-.1-.82-.31Zm1.77,.98v6.5h-1.91v-6.5h1.91Z"/>
    <path class="cls-1" d="M158.84,233.99c.24-.5,.57-.89,.99-1.16,.42-.27,.88-.41,1.39-.41,.44,0,.82,.09,1.15,.28,.33,.19,.58,.43,.76,.73v-.92h1.91v6.5h-1.91v-.92c-.19,.3-.44,.55-.77,.73-.33,.19-.71,.28-1.15,.28-.5,0-.97-.14-1.38-.41-.42-.28-.75-.67-.99-1.18-.24-.51-.36-1.1-.36-1.77s.12-1.25,.36-1.76Zm3.9,.6c-.26-.29-.58-.43-.96-.43s-.7,.14-.96,.43c-.26,.28-.4,.67-.4,1.17s.13,.89,.4,1.18c.26,.29,.58,.44,.96,.44s.7-.14,.96-.43c.26-.29,.4-.68,.4-1.18s-.13-.89-.4-1.18Z"/>
    <path class="cls-1" d="M168.88,230.39v8.62h-1.91v-8.62h1.91Z"/>
    <path class="cls-1" d="M55.74,247.16c.46,.49,.68,1.17,.68,2.04v3.8h-1.89v-3.53c0-.42-.11-.74-.32-.97s-.5-.34-.88-.34-.66,.12-.87,.34-.32,.55-.32,.97v3.53h-1.89v-3.53c0-.42-.11-.74-.32-.97-.21-.23-.5-.34-.88-.34s-.66,.12-.87,.34-.32,.55-.32,.97v3.53h-1.91v-6.5h1.91v.81c.19-.27,.45-.49,.76-.65,.31-.16,.67-.24,1.06-.24,.47,0,.89,.11,1.25,.31,.37,.21,.66,.51,.86,.9,.22-.36,.51-.65,.88-.87,.37-.22,.78-.34,1.21-.34,.77,0,1.39,.24,1.84,.73Z"/>
    <path class="cls-1" d="M64.14,250.22h-4.31c.03,.4,.15,.71,.37,.93,.22,.21,.49,.32,.81,.32,.47,0,.81-.21,.99-.63h2.03c-.1,.43-.29,.81-.56,1.15-.27,.34-.61,.61-1.02,.8-.41,.19-.87,.29-1.37,.29-.61,0-1.15-.14-1.63-.41-.48-.27-.85-.66-1.11-1.16-.27-.51-.4-1.1-.4-1.77s.13-1.27,.4-1.77c.26-.5,.63-.89,1.11-1.16,.48-.27,1.02-.41,1.64-.41s1.14,.13,1.6,.4,.83,.64,1.1,1.13c.26,.49,.4,1.06,.4,1.71,0,.19-.01,.38-.03,.58Zm-1.92-1.11c0-.34-.11-.61-.33-.82-.22-.2-.5-.3-.84-.3s-.59,.1-.81,.29c-.22,.2-.35,.47-.41,.83h2.38Z"/>
    <path class="cls-1" d="M65.72,247.97c.24-.5,.57-.89,.99-1.16,.42-.27,.88-.41,1.39-.41,.41,0,.78,.09,1.12,.27,.34,.18,.6,.42,.8,.72v-3.02h1.91v8.62h-1.91v-.93c-.18,.31-.43,.56-.76,.75-.33,.19-.71,.28-1.15,.28-.51,0-.98-.14-1.39-.41-.42-.28-.75-.67-.99-1.18-.24-.51-.36-1.1-.36-1.77s.12-1.25,.36-1.76Zm3.9,.6c-.26-.29-.58-.43-.96-.43s-.7,.14-.96,.43c-.26,.28-.4,.67-.4,1.17s.13,.89,.4,1.18c.26,.29,.58,.44,.96,.44s.7-.14,.96-.43c.26-.29,.4-.68,.4-1.18s-.13-.89-.4-1.18Z"/>
    <path class="cls-1" d="M73.99,245.51c-.21-.21-.32-.46-.32-.76s.11-.57,.32-.78c.21-.21,.48-.31,.82-.31s.6,.1,.81,.31c.21,.21,.32,.46,.32,.78s-.11,.56-.32,.76c-.21,.21-.48,.31-.81,.31s-.61-.1-.82-.31Zm1.77,.98v6.5h-1.91v-6.5h1.91Z"/>
    <path class="cls-1" d="M77.68,247.97c.24-.5,.57-.89,.99-1.16,.42-.27,.88-.41,1.39-.41,.44,0,.82,.09,1.15,.28,.33,.19,.58,.43,.76,.73v-.92h1.91v6.5h-1.91v-.92c-.19,.3-.44,.55-.77,.73-.33,.19-.71,.28-1.15,.28-.5,0-.97-.14-1.38-.41-.42-.28-.75-.67-.99-1.18-.24-.51-.36-1.1-.36-1.77s.12-1.25,.36-1.76Zm3.9,.6c-.26-.29-.58-.43-.96-.43s-.7,.14-.96,.43c-.26,.28-.4,.67-.4,1.17s.13,.89,.4,1.18c.26,.29,.58,.44,.96,.44s.7-.14,.96-.43c.26-.29,.4-.68,.4-1.18s-.13-.89-.4-1.18Z"/>
    <path class="cls-1" d="M87.87,251.16l-1.24,3.34h-1.21l.65-3.34h1.8Z"/>
    <path class="cls-1" d="M93.68,252.68c-.49-.27-.87-.66-1.15-1.16-.28-.51-.42-1.1-.42-1.77s.14-1.26,.42-1.77c.28-.51,.67-.9,1.16-1.17s1.04-.41,1.65-.41,1.16,.14,1.65,.41c.49,.27,.88,.66,1.16,1.17,.28,.51,.42,1.1,.42,1.77s-.14,1.26-.43,1.77c-.29,.51-.68,.9-1.17,1.17-.49,.27-1.04,.41-1.65,.41s-1.16-.14-1.64-.41Zm2.57-1.74c.26-.28,.38-.68,.38-1.2s-.12-.92-.37-1.2c-.25-.28-.55-.42-.92-.42s-.68,.14-.92,.41-.37,.68-.37,1.21,.12,.92,.36,1.2c.24,.28,.54,.42,.91,.42s.67-.14,.93-.42Z"/>
    <path class="cls-1" d="M103.26,248.15h-1.02v4.85h-1.91v-4.85h-.69v-1.65h.69v-.19c0-.8,.22-1.41,.66-1.82s1.08-.62,1.93-.62c.14,0,.24,0,.31,.01v1.69c-.36-.02-.62,.03-.77,.16-.15,.13-.22,.37-.22,.71v.06h1.02v1.65Z"/>
    <path class="cls-1" d="M107.65,247.97c.26-.5,.63-.89,1.1-1.16,.47-.27,1.01-.41,1.62-.41,.78,0,1.43,.21,1.96,.64,.52,.43,.87,1.03,1.03,1.81h-2.03c-.17-.5-.5-.75-.99-.75-.35,0-.63,.14-.83,.43-.21,.28-.31,.69-.31,1.22s.1,.93,.31,1.22c.21,.29,.49,.43,.83,.43,.49,0,.82-.25,.99-.75h2.03c-.16,.76-.51,1.36-1.04,1.79s-1.18,.65-1.95,.65c-.61,0-1.15-.14-1.62-.41-.47-.27-.84-.66-1.1-1.16-.26-.51-.4-1.1-.4-1.77s.13-1.27,.4-1.77Z"/>
    <path class="cls-1" d="M116.11,252.68c-.49-.27-.87-.66-1.15-1.16-.28-.51-.42-1.1-.42-1.77s.14-1.26,.42-1.77c.28-.51,.67-.9,1.16-1.17s1.04-.41,1.65-.41,1.16,.14,1.65,.41c.49,.27,.88,.66,1.16,1.17,.28,.51,.42,1.1,.42,1.77s-.14,1.26-.43,1.77c-.29,.51-.68,.9-1.17,1.17-.49,.27-1.04,.41-1.65,.41s-1.16-.14-1.64-.41Zm2.57-1.74c.26-.28,.38-.68,.38-1.2s-.12-.92-.37-1.2c-.25-.28-.55-.42-.92-.42s-.68,.14-.92,.41-.37,.68-.37,1.21,.12,.92,.36,1.2c.24,.28,.54,.42,.91,.42s.67-.14,.93-.42Z"/>
    <path class="cls-1" d="M128.71,246.49v6.5h-1.9v-.88c-.19,.29-.46,.52-.79,.69-.33,.17-.7,.26-1.1,.26-.48,0-.89-.11-1.26-.33s-.65-.54-.85-.96-.3-.91-.3-1.48v-3.8h1.89v3.53c0,.44,.11,.77,.32,1.01s.5,.36,.87,.36,.66-.12,.88-.36c.21-.24,.32-.58,.32-1.01v-3.53h1.9Z"/>
    <path class="cls-1" d="M133.38,246.73c.33-.21,.71-.31,1.11-.31v2.11h-.52c-.48,0-.83,.11-1.07,.32-.24,.21-.36,.59-.36,1.12v3.02h-1.91v-6.5h1.91v1.08c.22-.36,.5-.64,.83-.85Z"/>
    <path class="cls-1" d="M137.05,252.8c-.42-.2-.76-.46-1-.8s-.38-.72-.41-1.13h1.88c.02,.22,.12,.41,.3,.55,.18,.14,.4,.21,.66,.21,.24,0,.42-.05,.55-.14s.2-.22,.2-.38c0-.19-.09-.32-.28-.41-.19-.09-.49-.19-.9-.3-.45-.11-.82-.22-1.11-.34-.3-.12-.55-.31-.77-.57s-.32-.61-.32-1.05c0-.37,.1-.71,.3-1.02,.2-.31,.49-.55,.87-.73,.38-.18,.84-.27,1.37-.27,.78,0,1.39,.2,1.84,.61,.45,.4,.71,.94,.77,1.61h-1.76c-.03-.22-.12-.4-.28-.54-.16-.13-.37-.2-.63-.2-.22,0-.39,.04-.51,.13-.12,.09-.18,.21-.18,.37,0,.19,.09,.33,.28,.42s.48,.19,.89,.28c.46,.12,.84,.25,1.12,.37,.29,.12,.54,.31,.76,.58,.22,.27,.33,.63,.34,1.08,0,.38-.1,.72-.31,1.02s-.5,.53-.88,.71c-.38,.17-.83,.26-1.33,.26-.54,0-1.03-.1-1.45-.29Z"/>
    <path class="cls-1" d="M148.57,250.22h-4.31c.03,.4,.15,.71,.37,.93,.22,.21,.49,.32,.81,.32,.47,0,.81-.21,.99-.63h2.03c-.1,.43-.29,.81-.56,1.15-.27,.34-.61,.61-1.02,.8-.41,.19-.87,.29-1.37,.29-.61,0-1.15-.14-1.63-.41-.48-.27-.85-.66-1.11-1.16-.27-.51-.4-1.1-.4-1.77s.13-1.27,.4-1.77c.26-.5,.63-.89,1.11-1.16,.48-.27,1.02-.41,1.64-.41s1.14,.13,1.6,.4,.83,.64,1.1,1.13c.26,.49,.4,1.06,.4,1.71,0,.19-.01,.38-.03,.58Zm-1.92-1.11c0-.34-.11-.61-.33-.82-.22-.2-.5-.3-.84-.3s-.59,.1-.81,.29c-.22,.2-.35,.47-.41,.83h2.38Z"/>
    <path class="cls-1" d="M150.84,252.78c-.21-.21-.32-.46-.32-.76s.11-.57,.32-.78c.21-.21,.48-.32,.82-.32s.6,.11,.81,.32c.21,.21,.32,.47,.32,.78s-.11,.56-.32,.76-.48,.31-.81,.31-.61-.1-.82-.31Zm1.82-8.25l-.22,5.58h-1.62l-.22-5.58h2.06Z"/>
  </g>
  <g class="cls-5">
    <g>
      <g>
        <path class="cls-1" d="M37.69,48.75l124.58-3.3c4.36-.12,7.97,3.34,8.05,7.7l2.06,110.04c.08,4.28-3.29,7.83-7.56,7.99l-122.65,4.39c-4.33,.15-7.97-3.23-8.12-7.56l-3.99-111.13c-.16-4.36,3.27-8.01,7.63-8.12Z"/>
        <circle class="cls-8" cx="51.36" cy="69.5" r="12.2"/>
        <polygon class="cls-8" points="67.86 60.08 69.36 67.02 110.12 64.39 111.28 57.29 67.86 60.08"/>
        <polygon class="cls-8" points="70.42 71.91 70.42 75.18 96.93 73.28 96.93 70.05 70.42 71.91"/>
        <polygon class="cls-8" points="41.71 94.5 160.27 87.83 160.27 98.22 41.71 100.7 41.71 94.5"/>
        <polygon class="cls-8" points="41.71 105.65 147.89 104.41 147.89 110.51 41.71 114.31 41.71 105.65"/>
        <polygon class="cls-8" points="44.2 120.13 153.34 117.28 155.07 121.98 49.63 127.18 44.2 120.13"/>
        <polygon class="cls-8" points="44.2 132.52 44.2 137.98 153.09 135.25 151.6 127.18 44.2 132.52"/>
        <rect class="cls-8" x="39.12" y="148.16" width="124.89" height=".96" transform="translate(-4.79 3.39) rotate(-1.87)"/>
        <g>
          <path class="cls-8" d="M44.98,156.62l30.19-.97c1.18-.04,2.2,.84,2.32,2.02l.75,7.03c.14,1.31-.86,2.45-2.17,2.5l-30.55,1.1c-1.23,.04-2.27-.91-2.34-2.14l-.39-7.16c-.07-1.27,.92-2.34,2.19-2.39Z"/>
          <path class="cls-8" d="M45.44,168.79c-1.44,0-2.66-1.14-2.74-2.59l-.39-7.16c-.04-.74,.21-1.46,.72-2,.5-.55,1.19-.86,1.93-.89l30.19-.97c1.47-.08,2.66,1.03,2.82,2.45l.75,7.03c.08,.75-.16,1.51-.65,2.09-.5,.57-1.22,.92-1.97,.94l-30.55,1.1s-.07,0-.1,0Zm-.45-11.69h0c-.48,.02-.93,.22-1.26,.58-.33,.36-.49,.82-.47,1.3l.39,7.16c.05,.96,.88,1.7,1.84,1.68l30.55-1.1c.5-.02,.96-.24,1.28-.61s.48-.86,.43-1.36l-.75-7.03c-.1-.92-.91-1.63-1.83-1.59l-30.19,.97Z"/>
        </g>
      </g>
      <g>
        <polygon class="cls-9" points="89.42 145.8 94.22 208.46 162.92 208.46 163.63 140.99 89.42 145.8"/>
        <polygon class="cls-2" points="89.42 145.8 163.63 140.99 163.46 157.06 90.63 161.55 89.42 145.8"/>
        <polygon class="cls-1" points="97.89 156.1 94.6 153.89 97.27 150.57 97.71 150.92 95.43 153.76 98.21 155.63 97.89 156.1"/>
        <polygon class="cls-7" points="99.13 169.96 148.16 166.86 148.16 176.86 114.5 179.96 105.9 186.3 107.59 180.1 101.68 180.52 99.13 169.96"/>
        <polygon class="cls-1" points="120.59 187.88 151.02 184.84 151.72 193.58 157.07 198.37 151.58 197.1 152 201.46 120.59 204.14 120.59 187.88"/>
      </g>
      <g>
        <polygon class="cls-1" points="48.93 193.48 69.51 192.98 60.81 209.41 56.53 203.62 43.79 213.36 39.28 205.98 53.85 199.66 48.93 193.48"/>
        <rect class="cls-1" x="70.91" y="190.31" width="5.16" height=".53" transform="translate(-75.87 51.25) rotate(-25.9)"/>
        <rect class="cls-1" x="73.75" y="193.87" width=".53" height="5.21" transform="translate(-130.93 242.05) rotate(-81.89)"/>
        <polygon class="cls-1" points="69.57 188.81 69.05 188.67 70.17 184.61 70.68 184.75 69.57 188.81"/>
      </g>
    </g>
  </g>
</svg>