<?xml version="1.0" encoding="UTF-8"?>
<svg id="Layer_2" data-name="Layer 2" xmlns="http://www.w3.org/2000/svg" xmlns:xlink="http://www.w3.org/1999/xlink" viewBox="0 0 173.52 246.49">
  <defs>
    <style>
      .cls-1 {
        fill: #fff;
      }

      .cls-2 {
        fill: #363636;
      }

      .cls-3 {
        fill: #eeb2ff;
      }

      .cls-4 {
        fill: #e64c00;
      }

      .cls-5 {
        clip-path: url(#clippath);
      }

      .cls-6 {
        fill: none;
      }

      .cls-7 {
        fill: #8fcc8f;
      }

      .cls-8 {
        fill: #aadef7;
      }

      .cls-9 {
        fill: #c3edc3;
      }
    </style>
    <clipPath id="clippath">
      <rect class="cls-6" x="6.32" y="7.23" width="160.53" height="198.84" rx="14.3" ry="14.3"/>
    </clipPath>
  </defs>
  <rect class="cls-4" x=".19" width="173.34" height="246.49" rx="13.2" ry="13.2"/>
  <rect class="cls-3" x="6.32" y="7.23" width="160.53" height="198.84" rx="14.3" ry="14.3"/>
  <g>
    <path class="cls-1" d="M19.96,214.37v1.6h-2.07v6.58h-1.91v-6.58h-2.07v-1.6h6.05Z"/>
    <path class="cls-1" d="M27.01,216.72c.43,.49,.65,1.17,.65,2.03v3.8h-1.89v-3.53c0-.44-.11-.77-.32-1.01-.22-.24-.5-.36-.87-.36s-.65,.12-.87,.36c-.22,.24-.32,.58-.32,1.01v3.53h-1.91v-8.62h1.91v2.99c.19-.29,.46-.52,.79-.69,.33-.17,.71-.26,1.12-.26,.71,0,1.28,.25,1.71,.74Z"/>
    <path class="cls-1" d="M35.37,219.78h-4.31c.03,.4,.15,.71,.37,.93,.22,.21,.49,.32,.81,.32,.47,0,.81-.21,.99-.63h2.03c-.1,.43-.29,.81-.56,1.15-.27,.34-.61,.61-1.02,.8-.41,.19-.87,.29-1.37,.29-.61,0-1.15-.14-1.63-.41-.48-.27-.85-.66-1.11-1.16-.27-.51-.4-1.1-.4-1.77s.13-1.27,.4-1.77c.26-.5,.63-.89,1.11-1.16,.48-.27,1.02-.41,1.64-.41s1.14,.13,1.6,.4,.83,.64,1.1,1.13c.26,.49,.4,1.06,.4,1.71,0,.19-.01,.38-.03,.58Zm-1.92-1.11c0-.34-.11-.61-.33-.82-.22-.2-.5-.3-.84-.3s-.59,.1-.81,.29c-.22,.2-.35,.47-.41,.83h2.38Z"/>
    <path class="cls-1" d="M41.78,214.37v8.18h-1.91v-8.18h1.91Z"/>
    <path class="cls-1" d="M49.25,216.72c.43,.49,.65,1.17,.65,2.03v3.8h-1.89v-3.53c0-.44-.11-.77-.32-1.01-.22-.24-.5-.36-.87-.36s-.65,.12-.87,.36c-.22,.24-.32,.58-.32,1.01v3.53h-1.91v-6.5h1.91v.86c.19-.29,.45-.51,.78-.68,.33-.17,.69-.25,1.1-.25,.73,0,1.31,.25,1.74,.74Z"/>
    <path class="cls-1" d="M55.25,220.86v1.69h-.97c-.69,0-1.23-.18-1.62-.53-.39-.35-.58-.93-.58-1.73v-2.59h-.76v-1.65h.76v-1.58h1.91v1.58h1.25v1.65h-1.25v2.61c0,.19,.04,.33,.13,.42,.09,.09,.24,.13,.45,.13h.68Z"/>
    <path class="cls-1" d="M62.69,219.78h-4.31c.03,.4,.15,.71,.37,.93,.22,.21,.49,.32,.81,.32,.47,0,.81-.21,.99-.63h2.03c-.1,.43-.29,.81-.56,1.15-.27,.34-.61,.61-1.02,.8-.41,.19-.87,.29-1.37,.29-.61,0-1.15-.14-1.63-.41-.48-.27-.85-.66-1.11-1.16-.27-.51-.4-1.1-.4-1.77s.13-1.27,.4-1.77c.26-.5,.63-.89,1.11-1.16,.48-.27,1.02-.41,1.64-.41s1.14,.13,1.6,.4,.83,.64,1.1,1.13c.26,.49,.4,1.06,.4,1.71,0,.19-.01,.38-.03,.58Zm-1.92-1.11c0-.34-.11-.61-.33-.82-.22-.2-.5-.3-.84-.3s-.59,.1-.81,.29c-.22,.2-.35,.47-.41,.83h2.38Z"/>
    <path class="cls-1" d="M67.02,216.29c.33-.21,.71-.31,1.11-.31v2.11h-.52c-.48,0-.83,.11-1.07,.32-.24,.21-.36,.59-.36,1.12v3.02h-1.91v-6.5h1.91v1.08c.22-.36,.5-.64,.83-.85Z"/>
    <path class="cls-1" d="M75.14,216.72c.43,.49,.65,1.17,.65,2.03v3.8h-1.89v-3.53c0-.44-.11-.77-.32-1.01-.22-.24-.5-.36-.87-.36s-.65,.12-.87,.36c-.22,.24-.32,.58-.32,1.01v3.53h-1.91v-6.5h1.91v.86c.19-.29,.45-.51,.78-.68,.33-.17,.69-.25,1.1-.25,.73,0,1.31,.25,1.74,.74Z"/>
    <path class="cls-1" d="M83.5,219.78h-4.31c.03,.4,.15,.71,.37,.93,.22,.21,.49,.32,.81,.32,.47,0,.81-.21,.99-.63h2.03c-.1,.43-.29,.81-.56,1.15-.27,.34-.61,.61-1.02,.8-.41,.19-.87,.29-1.37,.29-.61,0-1.15-.14-1.63-.41-.48-.27-.85-.66-1.11-1.16-.27-.51-.4-1.1-.4-1.77s.13-1.27,.4-1.77c.26-.5,.63-.89,1.11-1.16,.48-.27,1.02-.41,1.64-.41s1.14,.13,1.6,.4,.83,.64,1.1,1.13c.26,.49,.4,1.06,.4,1.71,0,.19-.01,.38-.03,.58Zm-1.92-1.11c0-.34-.11-.61-.33-.82-.22-.2-.5-.3-.84-.3s-.59,.1-.81,.29c-.22,.2-.35,.47-.41,.83h2.38Z"/>
    <path class="cls-1" d="M88.56,220.86v1.69h-.97c-.69,0-1.23-.18-1.62-.53-.39-.35-.58-.93-.58-1.73v-2.59h-.76v-1.65h.76v-1.58h1.91v1.58h1.25v1.65h-1.25v2.61c0,.19,.04,.33,.13,.42,.09,.09,.24,.13,.45,.13h.68Z"/>
    <path class="cls-1" d="M93.07,217.53c.24-.5,.57-.89,.99-1.16,.42-.27,.88-.41,1.39-.41,.44,0,.82,.09,1.15,.28,.33,.19,.58,.43,.76,.73v-.92h1.91v6.5h-1.91v-.92c-.19,.3-.44,.55-.77,.73-.33,.19-.71,.28-1.15,.28-.5,0-.97-.14-1.38-.41-.42-.28-.75-.67-.99-1.18-.24-.51-.36-1.1-.36-1.77s.12-1.25,.36-1.76Zm3.9,.6c-.26-.29-.58-.43-.96-.43s-.7,.14-.96,.43c-.26,.28-.4,.67-.4,1.17s.13,.89,.4,1.18c.26,.29,.58,.44,.96,.44s.7-.14,.96-.43c.26-.29,.4-.68,.4-1.18s-.13-.89-.4-1.18Z"/>
    <path class="cls-1" d="M106.74,216.72c.43,.49,.65,1.17,.65,2.03v3.8h-1.89v-3.53c0-.44-.11-.77-.32-1.01-.22-.24-.5-.36-.87-.36s-.65,.12-.87,.36c-.22,.24-.32,.58-.32,1.01v3.53h-1.91v-6.5h1.91v.86c.19-.29,.45-.51,.78-.68,.33-.17,.69-.25,1.1-.25,.73,0,1.31,.25,1.74,.74Z"/>
    <path class="cls-1" d="M109.26,217.53c.24-.5,.57-.89,.99-1.16,.42-.27,.88-.41,1.39-.41,.41,0,.78,.09,1.12,.27,.34,.18,.6,.42,.8,.72v-3.02h1.91v8.62h-1.91v-.93c-.18,.31-.43,.56-.76,.75-.33,.19-.71,.28-1.15,.28-.51,0-.98-.14-1.39-.41-.42-.28-.75-.67-.99-1.18-.24-.51-.36-1.1-.36-1.77s.12-1.25,.36-1.76Zm3.9,.6c-.26-.29-.58-.43-.96-.43s-.7,.14-.96,.43c-.26,.28-.4,.67-.4,1.17s.13,.89,.4,1.18c.26,.29,.58,.44,.96,.44s.7-.14,.96-.43c.26-.29,.4-.68,.4-1.18s-.13-.89-.4-1.18Z"/>
    <path class="cls-1" d="M121.39,222.35c-.42-.2-.76-.46-1-.8s-.38-.72-.41-1.13h1.88c.02,.22,.12,.41,.3,.55,.18,.14,.4,.21,.66,.21,.24,0,.42-.05,.55-.14s.2-.22,.2-.38c0-.19-.09-.32-.28-.41-.19-.09-.49-.19-.9-.3-.45-.11-.82-.22-1.11-.34-.3-.12-.55-.31-.77-.57s-.32-.61-.32-1.05c0-.37,.1-.71,.3-1.02,.2-.31,.49-.55,.87-.73,.38-.18,.84-.27,1.37-.27,.78,0,1.39,.2,1.84,.61,.45,.4,.71,.94,.77,1.61h-1.76c-.03-.22-.12-.4-.28-.54-.16-.13-.37-.2-.63-.2-.22,0-.39,.04-.51,.13-.12,.09-.18,.21-.18,.37,0,.19,.09,.33,.28,.42s.48,.19,.89,.28c.46,.12,.84,.25,1.12,.37,.29,.12,.54,.31,.76,.58,.22,.27,.33,.63,.34,1.08,0,.38-.1,.72-.31,1.02s-.5,.53-.88,.71c-.38,.17-.83,.26-1.33,.26-.54,0-1.03-.1-1.45-.29Z"/>
    <path class="cls-1" d="M128.27,222.24c-.49-.27-.87-.66-1.15-1.16-.28-.51-.42-1.1-.42-1.77s.14-1.26,.42-1.77c.28-.51,.67-.9,1.16-1.17s1.04-.41,1.65-.41,1.16,.14,1.65,.41c.49,.27,.88,.66,1.16,1.17,.28,.51,.42,1.1,.42,1.77s-.14,1.26-.43,1.77c-.29,.51-.68,.9-1.17,1.17-.49,.27-1.04,.41-1.65,.41s-1.16-.14-1.64-.41Zm2.57-1.74c.26-.28,.38-.68,.38-1.2s-.12-.92-.37-1.2c-.25-.28-.55-.42-.92-.42s-.68,.14-.92,.41-.37,.68-.37,1.21,.12,.92,.36,1.2c.24,.28,.54,.42,.91,.42s.67-.14,.93-.42Z"/>
    <path class="cls-1" d="M134.76,217.53c.26-.5,.63-.89,1.1-1.16,.47-.27,1.01-.41,1.62-.41,.78,0,1.43,.21,1.96,.64,.52,.43,.87,1.03,1.03,1.81h-2.03c-.17-.5-.5-.75-.99-.75-.35,0-.63,.14-.83,.43-.21,.28-.31,.69-.31,1.22s.1,.93,.31,1.22c.21,.29,.49,.43,.83,.43,.49,0,.82-.25,.99-.75h2.03c-.16,.76-.51,1.36-1.04,1.79s-1.18,.65-1.95,.65c-.61,0-1.15-.14-1.62-.41-.47-.27-.84-.66-1.1-1.16-.26-.51-.4-1.1-.4-1.77s.13-1.27,.4-1.77Z"/>
    <path class="cls-1" d="M142.17,215.07c-.21-.21-.32-.46-.32-.76s.11-.57,.32-.78c.21-.21,.48-.31,.82-.31s.6,.1,.81,.31c.21,.21,.32,.46,.32,.78s-.11,.56-.32,.76c-.21,.21-.48,.31-.81,.31s-.61-.1-.82-.31Zm1.77,.98v6.5h-1.91v-6.5h1.91Z"/>
    <path class="cls-1" d="M145.86,217.53c.24-.5,.57-.89,.99-1.16,.42-.27,.88-.41,1.39-.41,.44,0,.82,.09,1.15,.28,.33,.19,.58,.43,.76,.73v-.92h1.91v6.5h-1.91v-.92c-.19,.3-.44,.55-.77,.73-.33,.19-.71,.28-1.15,.28-.5,0-.97-.14-1.38-.41-.42-.28-.75-.67-.99-1.18-.24-.51-.36-1.1-.36-1.77s.12-1.25,.36-1.76Zm3.9,.6c-.26-.29-.58-.43-.96-.43s-.7,.14-.96,.43c-.26,.28-.4,.67-.4,1.17s.13,.89,.4,1.18c.26,.29,.58,.44,.96,.44s.7-.14,.96-.43c.26-.29,.4-.68,.4-1.18s-.13-.89-.4-1.18Z"/>
    <path class="cls-1" d="M155.9,213.93v8.62h-1.91v-8.62h1.91Z"/>
    <path class="cls-1" d="M42.76,230.7c.46,.49,.68,1.17,.68,2.04v3.8h-1.89v-3.53c0-.42-.11-.74-.32-.97s-.5-.34-.88-.34-.66,.12-.87,.34-.32,.55-.32,.97v3.53h-1.89v-3.53c0-.42-.11-.74-.32-.97-.21-.23-.5-.34-.88-.34s-.66,.12-.87,.34-.32,.55-.32,.97v3.53h-1.91v-6.5h1.91v.81c.19-.27,.45-.49,.76-.65,.31-.16,.67-.24,1.06-.24,.47,0,.89,.11,1.25,.31,.37,.21,.66,.51,.86,.9,.22-.36,.51-.65,.88-.87,.37-.22,.78-.34,1.21-.34,.77,0,1.39,.24,1.84,.73Z"/>
    <path class="cls-1" d="M51.17,233.76h-4.31c.03,.4,.15,.71,.37,.93,.22,.21,.49,.32,.81,.32,.47,0,.81-.21,.99-.63h2.03c-.1,.43-.29,.81-.56,1.15-.27,.34-.61,.61-1.02,.8-.41,.19-.87,.29-1.37,.29-.61,0-1.15-.14-1.63-.41-.48-.27-.85-.66-1.11-1.16-.27-.51-.4-1.1-.4-1.77s.13-1.27,.4-1.77c.26-.5,.63-.89,1.11-1.16,.48-.27,1.02-.41,1.64-.41s1.14,.13,1.6,.4,.83,.64,1.1,1.13c.26,.49,.4,1.06,.4,1.71,0,.19-.01,.38-.03,.58Zm-1.92-1.11c0-.34-.11-.61-.33-.82-.22-.2-.5-.3-.84-.3s-.59,.1-.81,.29c-.22,.2-.35,.47-.41,.83h2.38Z"/>
    <path class="cls-1" d="M52.74,231.51c.24-.5,.57-.89,.99-1.16,.42-.27,.88-.41,1.39-.41,.41,0,.78,.09,1.12,.27,.34,.18,.6,.42,.8,.72v-3.02h1.91v8.62h-1.91v-.93c-.18,.31-.43,.56-.76,.75-.33,.19-.71,.28-1.15,.28-.51,0-.98-.14-1.39-.41-.42-.28-.75-.67-.99-1.18-.24-.51-.36-1.1-.36-1.77s.12-1.25,.36-1.76Zm3.9,.6c-.26-.29-.58-.43-.96-.43s-.7,.14-.96,.43c-.26,.28-.4,.67-.4,1.17s.13,.89,.4,1.18c.26,.29,.58,.44,.96,.44s.7-.14,.96-.43c.26-.29,.4-.68,.4-1.18s-.13-.89-.4-1.18Z"/>
    <path class="cls-1" d="M61.02,229.05c-.21-.21-.32-.46-.32-.76s.11-.57,.32-.78c.21-.21,.48-.31,.82-.31s.6,.1,.81,.31c.21,.21,.32,.46,.32,.78s-.11,.56-.32,.76c-.21,.21-.48,.31-.81,.31s-.61-.1-.82-.31Zm1.77,.98v6.5h-1.91v-6.5h1.91Z"/>
    <path class="cls-1" d="M64.71,231.51c.24-.5,.57-.89,.99-1.16,.42-.27,.88-.41,1.39-.41,.44,0,.82,.09,1.15,.28,.33,.19,.58,.43,.76,.73v-.92h1.91v6.5h-1.91v-.92c-.19,.3-.44,.55-.77,.73-.33,.19-.71,.28-1.15,.28-.5,0-.97-.14-1.38-.41-.42-.28-.75-.67-.99-1.18-.24-.51-.36-1.1-.36-1.77s.12-1.25,.36-1.76Zm3.9,.6c-.26-.29-.58-.43-.96-.43s-.7,.14-.96,.43c-.26,.28-.4,.67-.4,1.17s.13,.89,.4,1.18c.26,.29,.58,.44,.96,.44s.7-.14,.96-.43c.26-.29,.4-.68,.4-1.18s-.13-.89-.4-1.18Z"/>
    <path class="cls-1" d="M74.89,234.69l-1.24,3.34h-1.21l.65-3.34h1.8Z"/>
    <path class="cls-1" d="M80.7,236.22c-.49-.27-.87-.66-1.15-1.16-.28-.51-.42-1.1-.42-1.77s.14-1.26,.42-1.77c.28-.51,.67-.9,1.16-1.17s1.04-.41,1.65-.41,1.16,.14,1.65,.41c.49,.27,.88,.66,1.16,1.17,.28,.51,.42,1.1,.42,1.77s-.14,1.26-.43,1.77c-.29,.51-.68,.9-1.17,1.17-.49,.27-1.04,.41-1.65,.41s-1.16-.14-1.64-.41Zm2.57-1.74c.26-.28,.38-.68,.38-1.2s-.12-.92-.37-1.2c-.25-.28-.55-.42-.92-.42s-.68,.14-.92,.41-.37,.68-.37,1.21,.12,.92,.36,1.2c.24,.28,.54,.42,.91,.42s.67-.14,.93-.42Z"/>
    <path class="cls-1" d="M90.29,231.69h-1.02v4.85h-1.91v-4.85h-.69v-1.65h.69v-.19c0-.8,.22-1.41,.66-1.82s1.08-.62,1.93-.62c.14,0,.24,0,.31,.01v1.69c-.36-.02-.62,.03-.77,.16-.15,.13-.22,.37-.22,.71v.06h1.02v1.65Z"/>
    <path class="cls-1" d="M94.67,231.51c.26-.5,.63-.89,1.1-1.16,.47-.27,1.01-.41,1.62-.41,.78,0,1.43,.21,1.96,.64,.52,.43,.87,1.03,1.03,1.81h-2.03c-.17-.5-.5-.75-.99-.75-.35,0-.63,.14-.83,.43-.21,.28-.31,.69-.31,1.22s.1,.93,.31,1.22c.21,.29,.49,.43,.83,.43,.49,0,.82-.25,.99-.75h2.03c-.16,.76-.51,1.36-1.04,1.79s-1.18,.65-1.95,.65c-.61,0-1.15-.14-1.62-.41-.47-.27-.84-.66-1.1-1.16-.26-.51-.4-1.1-.4-1.77s.13-1.27,.4-1.77Z"/>
    <path class="cls-1" d="M103.14,236.22c-.49-.27-.87-.66-1.15-1.16-.28-.51-.42-1.1-.42-1.77s.14-1.26,.42-1.77c.28-.51,.67-.9,1.16-1.17s1.04-.41,1.65-.41,1.16,.14,1.65,.41c.49,.27,.88,.66,1.16,1.17,.28,.51,.42,1.1,.42,1.77s-.14,1.26-.43,1.77c-.29,.51-.68,.9-1.17,1.17-.49,.27-1.04,.41-1.65,.41s-1.16-.14-1.64-.41Zm2.57-1.74c.26-.28,.38-.68,.38-1.2s-.12-.92-.37-1.2c-.25-.28-.55-.42-.92-.42s-.68,.14-.92,.41-.37,.68-.37,1.21,.12,.92,.36,1.2c.24,.28,.54,.42,.91,.42s.67-.14,.93-.42Z"/>
    <path class="cls-1" d="M115.74,230.03v6.5h-1.9v-.88c-.19,.29-.46,.52-.79,.69-.33,.17-.7,.26-1.1,.26-.48,0-.89-.11-1.26-.33s-.65-.54-.85-.96-.3-.91-.3-1.48v-3.8h1.89v3.53c0,.44,.11,.77,.32,1.01s.5,.36,.87,.36,.66-.12,.88-.36c.21-.24,.32-.58,.32-1.01v-3.53h1.9Z"/>
    <path class="cls-1" d="M120.41,230.27c.33-.21,.71-.31,1.11-.31v2.11h-.52c-.48,0-.83,.11-1.07,.32-.24,.21-.36,.59-.36,1.12v3.02h-1.91v-6.5h1.91v1.08c.22-.36,.5-.64,.83-.85Z"/>
    <path class="cls-1" d="M124.07,236.33c-.42-.2-.76-.46-1-.8s-.38-.72-.41-1.13h1.88c.02,.22,.12,.41,.3,.55,.18,.14,.4,.21,.66,.21,.24,0,.42-.05,.55-.14s.2-.22,.2-.38c0-.19-.09-.32-.28-.41-.19-.09-.49-.19-.9-.3-.45-.11-.82-.22-1.11-.34-.3-.12-.55-.31-.77-.57s-.32-.61-.32-1.05c0-.37,.1-.71,.3-1.02,.2-.31,.49-.55,.87-.73,.38-.18,.84-.27,1.37-.27,.78,0,1.39,.2,1.84,.61,.45,.4,.71,.94,.77,1.61h-1.76c-.03-.22-.12-.4-.28-.54-.16-.13-.37-.2-.63-.2-.22,0-.39,.04-.51,.13-.12,.09-.18,.21-.18,.37,0,.19,.09,.33,.28,.42s.48,.19,.89,.28c.46,.12,.84,.25,1.12,.37,.29,.12,.54,.31,.76,.58,.22,.27,.33,.63,.34,1.08,0,.38-.1,.72-.31,1.02s-.5,.53-.88,.71c-.38,.17-.83,.26-1.33,.26-.54,0-1.03-.1-1.45-.29Z"/>
    <path class="cls-1" d="M135.59,233.76h-4.31c.03,.4,.15,.71,.37,.93,.22,.21,.49,.32,.81,.32,.47,0,.81-.21,.99-.63h2.03c-.1,.43-.29,.81-.56,1.15-.27,.34-.61,.61-1.02,.8-.41,.19-.87,.29-1.37,.29-.61,0-1.15-.14-1.63-.41-.48-.27-.85-.66-1.11-1.16-.27-.51-.4-1.1-.4-1.77s.13-1.27,.4-1.77c.26-.5,.63-.89,1.11-1.16,.48-.27,1.02-.41,1.64-.41s1.14,.13,1.6,.4,.83,.64,1.1,1.13c.26,.49,.4,1.06,.4,1.71,0,.19-.01,.38-.03,.58Zm-1.92-1.11c0-.34-.11-.61-.33-.82-.22-.2-.5-.3-.84-.3s-.59,.1-.81,.29c-.22,.2-.35,.47-.41,.83h2.38Z"/>
    <path class="cls-1" d="M137.87,236.32c-.21-.21-.32-.46-.32-.76s.11-.57,.32-.78c.21-.21,.48-.32,.82-.32s.6,.11,.81,.32c.21,.21,.32,.47,.32,.78s-.11,.56-.32,.76-.48,.31-.81,.31-.61-.1-.82-.31Zm1.82-8.25l-.22,5.58h-1.62l-.22-5.58h2.06Z"/>
  </g>
  <g class="cls-5">
    <g>
      <g>
        <path class="cls-1" d="M24.72,32.29l124.58-3.3c4.36-.12,7.97,3.34,8.05,7.7l2.06,110.04c.08,4.28-3.29,7.83-7.56,7.99l-122.65,4.39c-4.33,.15-7.97-3.23-8.12-7.56l-3.99-111.13c-.16-4.36,3.27-8.01,7.63-8.12Z"/>
        <circle class="cls-8" cx="38.38" cy="53.03" r="12.2"/>
        <polygon class="cls-8" points="54.88 43.62 56.38 50.55 97.15 47.92 98.31 40.83 54.88 43.62"/>
        <polygon class="cls-8" points="57.45 55.44 57.45 58.72 83.96 56.82 83.96 53.59 57.45 55.44"/>
        <polygon class="cls-8" points="28.73 78.04 147.29 71.36 147.29 81.76 28.73 84.23 28.73 78.04"/>
        <polygon class="cls-8" points="28.73 89.18 134.92 87.95 134.92 94.05 28.73 97.84 28.73 89.18"/>
        <polygon class="cls-8" points="31.22 103.67 140.36 100.82 142.09 105.52 36.65 110.72 31.22 103.67"/>
        <polygon class="cls-8" points="31.22 116.06 31.22 121.52 140.11 118.79 138.63 110.72 31.22 116.06"/>
        <rect class="cls-8" x="26.14" y="131.7" width="124.89" height=".96" transform="translate(-4.26 2.96) rotate(-1.87)"/>
        <g>
          <path class="cls-8" d="M32,140.16l30.19-.97c1.18-.04,2.2,.84,2.32,2.02l.75,7.03c.14,1.31-.86,2.45-2.17,2.5l-30.55,1.1c-1.23,.04-2.27-.91-2.34-2.14l-.39-7.16c-.07-1.27,.92-2.34,2.19-2.39Z"/>
          <path class="cls-8" d="M32.47,152.32c-1.44,0-2.66-1.14-2.74-2.59l-.39-7.16c-.04-.74,.21-1.46,.72-2,.5-.55,1.19-.86,1.93-.89l30.19-.97c1.47-.08,2.66,1.03,2.82,2.45l.75,7.03c.08,.75-.16,1.51-.65,2.09-.5,.57-1.22,.92-1.97,.94l-30.55,1.1s-.07,0-.1,0Zm-.45-11.69h0c-.48,.02-.93,.22-1.26,.58-.33,.36-.49,.82-.47,1.3l.39,7.16c.05,.96,.88,1.7,1.84,1.68l30.55-1.1c.5-.02,.96-.24,1.28-.61s.48-.86,.43-1.36l-.75-7.03c-.1-.92-.91-1.63-1.83-1.59l-30.19,.97Z"/>
        </g>
      </g>
      <g>
        <polygon class="cls-9" points="76.45 129.33 81.24 192 149.94 192 150.66 124.53 76.45 129.33"/>
        <polygon class="cls-2" points="76.45 129.33 150.66 124.53 150.49 140.6 77.65 145.09 76.45 129.33"/>
        <polygon class="cls-1" points="84.92 139.63 81.63 137.42 84.3 134.11 84.74 134.46 82.45 137.3 85.23 139.17 84.92 139.63"/>
        <polygon class="cls-7" points="86.15 153.5 135.18 150.4 135.18 160.4 101.52 163.5 92.93 169.84 94.62 163.64 88.7 164.06 86.15 153.5"/>
        <polygon class="cls-1" points="107.62 171.41 138.04 168.38 138.75 177.12 144.1 181.9 138.61 180.64 139.03 185 107.62 187.68 107.62 171.41"/>
      </g>
      <g>
        <polygon class="cls-1" points="35.95 177.02 56.54 176.51 47.84 192.95 43.56 187.16 30.81 196.89 26.3 189.51 40.87 183.2 35.95 177.02"/>
        <rect class="cls-1" x="57.94" y="173.84" width="5.16" height=".53" transform="translate(-69.98 43.93) rotate(-25.9)"/>
        <rect class="cls-1" x="60.78" y="177.41" width=".53" height="5.21" transform="translate(-125.78 215.06) rotate(-81.89)"/>
        <polygon class="cls-1" points="56.59 172.35 56.08 172.21 57.19 168.14 57.7 168.29 56.59 172.35"/>
      </g>
    </g>
  </g>
</svg>