<?xml version="1.0" encoding="UTF-8"?>
<svg id="Layer_2" data-name="Layer 2" xmlns="http://www.w3.org/2000/svg" xmlns:xlink="http://www.w3.org/1999/xlink" viewBox="0 0 173.52 246.49">
  <defs>
    <style>
      .cls-1 {
        fill: #fff;
      }

      .cls-2 {
        fill: #181216;
      }

      .cls-3 {
        fill: #ef9d7f;
      }

      .cls-4 {
        fill: #ffb69f;
      }

      .cls-5 {
        fill: #363636;
      }

      .cls-6 {
        fill: #fac300;
        stroke-width: .25px;
      }

      .cls-6, .cls-7, .cls-8, .cls-9, .cls-10, .cls-11, .cls-12, .cls-13, .cls-14, .cls-15, .cls-16, .cls-17, .cls-18, .cls-19, .cls-20 {
        stroke-linejoin: round;
      }

      .cls-6, .cls-8, .cls-9, .cls-10, .cls-11, .cls-17, .cls-18, .cls-19 {
        stroke: #f80500;
      }

      .cls-6, .cls-9, .cls-10, .cls-12, .cls-16, .cls-17, .cls-18 {
        stroke-linecap: round;
      }

      .cls-21 {
        fill: #ffd550;
      }

      .cls-22 {
        fill: #eeb2ff;
      }

      .cls-23 {
        stroke: #353535;
        stroke-miterlimit: 10;
        stroke-width: .19px;
      }

      .cls-23, .cls-7, .cls-8, .cls-9, .cls-10, .cls-11, .cls-12, .cls-13, .cls-14, .cls-24, .cls-15, .cls-16, .cls-17, .cls-20 {
        fill: none;
      }

      .cls-23, .cls-7, .cls-8, .cls-11, .cls-13, .cls-14, .cls-15, .cls-19, .cls-20 {
        stroke-linecap: square;
      }

      .cls-7, .cls-12, .cls-16 {
        stroke: #fff;
      }

      .cls-7, .cls-16 {
        stroke-width: .16px;
      }

      .cls-8 {
        stroke-width: .71px;
      }

      .cls-25, .cls-18 {
        fill: #f55;
      }

      .cls-9 {
        stroke-width: .69px;
      }

      .cls-26 {
        fill: #e58e73;
      }

      .cls-10 {
        stroke-width: .69px;
      }

      .cls-11, .cls-19 {
        stroke-width: .69px;
      }

      .cls-27 {
        fill: #333;
      }

      .cls-28 {
        fill: #ab7a5a;
      }

      .cls-12, .cls-17 {
        stroke-width: .33px;
      }

      .cls-13, .cls-15 {
        stroke: #363636;
      }

      .cls-13, .cls-20 {
        stroke-width: .72px;
      }

      .cls-29 {
        fill: #e64c00;
      }

      .cls-14 {
        stroke: #b72c2c;
        stroke-width: .33px;
      }

      .cls-30 {
        fill: #f4ae32;
      }

      .cls-31 {
        clip-path: url(#clippath);
      }

      .cls-32 {
        fill: #ff8cb7;
      }

      .cls-33 {
        fill: #353535;
      }

      .cls-34 {
        fill: #474747;
      }

      .cls-35 {
        fill: #515151;
      }

      .cls-36 {
        fill: #9e6647;
      }

      .cls-15 {
        stroke-width: .32px;
      }

      .cls-37 {
        fill: #b72c2c;
      }

      .cls-38, .cls-19 {
        fill: #e08bfc;
      }

      .cls-18 {
        stroke-width: .73px;
      }

      .cls-20 {
        stroke: #181216;
      }

      .cls-39 {
        fill: #d46cff;
      }

      .cls-40 {
        fill: #d38871;
      }
    </style>
    <clipPath id="clippath">
      <path class="cls-24" d="M152.73,7.17H20.8c-7.9,0-14.3,6.4-14.3,14.3V191.71c0,7.9,6.4,14.3,14.3,14.3H152.73c7.9,0,14.3-6.4,14.3-14.3V21.47c0-7.9-6.4-14.3-14.3-14.3Z"/>
    </clipPath>
  </defs>
  <path class="cls-39" d="M160.23,0H13.3C6,0,.09,5.91,.09,13.2V233.29c0,7.29,5.91,13.2,13.2,13.2H160.23c7.29,0,13.2-5.91,13.2-13.2V13.2C173.43,5.91,167.52,0,160.23,0ZM82.99,128.22s-.08,.03-.13,.05c0,0,0,0,0,0-.16,.08-.32,.15-.49,.23-.46,.21-.92,.41-1.41,.54-.18,.05-.36,.06-.54,.06-.81,.22-1.63,.27-2.48,.15-.37-.05-.69-.29-.92-.59-.5-.11-.91-.43-1.17-.84-.15,.04-.31,.08-.47,.08-.02,0-.02,0-.04,0-.1,.02-.2,.04-.31,.06-.06,.02-.12,.05-.18,.08-.26,.1-.53,.1-.79,.06-.04,0-.08,0-.11,.01-.84,.03-1.55-.6-1.79-1.36-.26-.79,.18-1.68,.85-2.1,.88-.55,1.8-1.03,2.75-1.47,.75-.4,1.52-.74,2.33-.98,0,0,0,0,.01,0,.15-.4,.42-.74,.8-1,.65-.44,1.3-.8,2.07-1,.82-.22,1.65,.15,2.1,.85,.4,.63,.31,1.67-.24,2.2,.02,.11,.03,.22,.05,.33,.32,.16,.6,.4,.8,.72,.17,.26,.24,.54,.25,.83,.1,.13,.19,.26,.25,.41,.09,.22,.14,.47,.14,.72,0,.07,.02,.13,.02,.2,.04,.85-.62,1.53-1.36,1.79Zm21.94-9.62c-.37,.4-1.03,.61-1.61,.53-.2,.21-.45,.38-.72,.48-.11,.53-.43,1.02-.88,1.31-.88,.57-2,.14-2.54-.67-.21-.31-.42-.62-.64-.92-.08-.11-.15-.21-.23-.32-.63-.71-1.2-1.46-1.77-2.22-.19-.26-.27-.56-.26-.87-.41-.55-.83-1.09-1.27-1.6-.68-.79-.72-1.84,0-2.63,.56-.61,1.63-.71,2.32-.26-.48-.64-.95-1.29-1.4-1.96-.58-.86-.14-2.02,.67-2.54,.88-.57,2-.14,2.54,.67,1.98,2.95,4.4,5.6,6.09,8.73,.41,.75,.28,1.63-.29,2.25Z"/>
  <path class="cls-21" d="M152.73,7.17H20.8c-7.9,0-14.3,6.4-14.3,14.3V191.71c0,7.9,6.4,14.3,14.3,14.3H152.73c7.9,0,14.3-6.4,14.3-14.3V21.47c0-7.9-6.4-14.3-14.3-14.3Z"/>
  <g class="cls-31">
    <g>
      <polygon class="cls-40" points="76.36 131.16 70.48 144.83 89.67 155.66 109.03 126.38 94.78 113.07 76.36 131.16"/>
      <path class="cls-3" d="M83.73,159.32l-.96-11.25,1.01-13.89-2.11-14.84-6.41,.32-.71,10.99-4.34,14.48,1.96,8.48s.4,.31,.52,.38c5.65-1.62,11.04,5.34,11.04,5.34Z"/>
      <path class="cls-37" d="M70.18,144.83s-13.37,13.22-32.44,31.94l28.63,28.29,27.53-53.01-23.72-7.23Z"/>
      <polygon class="cls-4" points="76.59 122.76 76.59 119.58 80.4 119.33 80.8 122.34 76.59 122.76"/>
      <line class="cls-11" x1="97.76" y1="115.86" x2="89.17" y2="125.37"/>
      <line class="cls-11" x1="101.14" y1="119.01" x2="92.55" y2="130.36"/>
      <line class="cls-11" x1="104.93" y1="122.76" x2="97.48" y2="133.46"/>
      <g>
        <path class="cls-38" d="M128.55,102.35s11.32,20.65,10.38,28.77c-.94,8.13-1.61,6.57-1.61,6.57l28.95-15.92-7.36-17.6-30.35-1.83Z"/>
        <polygon class="cls-22" points="123.95 45.94 114.69 102.35 169.53 113.94 177.79 67.38 137.63 45.98 123.95 45.94"/>
        <polygon class="cls-39" points="141.58 27.41 123.17 35.58 110.77 53.6 123.66 65.05 132.71 57.54 129.98 66.21 164.88 79.91 141.58 27.41"/>
        <polygon class="cls-32" points="141.59 27.41 155.81 25.77 166.75 79.36 161.79 79.94 141.59 27.41"/>
        <polygon class="cls-38" points="158.07 79.94 169.66 77.86 168.4 94.7 158.07 96.18 158.07 79.94"/>
        <g>
          <path class="cls-38" d="M135.3,208.33s-5.21,6.72-8.45,8.43c-3.23,1.71-10.82-.14-10.82-.14l-11.52-53.11-12.55-23.34,17.62-9.99,5.55,17.71,3.43-6.2,3.42,2.9-5.6,8.58,1.06,4.47,17.86,50.7Z"/>
          <line class="cls-19" x1="106.27" y1="132.96" x2="110.04" y2="143.07"/>
          <line class="cls-19" x1="100.83" y1="135.9" x2="105.88" y2="146.72"/>
          <line class="cls-19" x1="95.76" y1="138.85" x2="101.95" y2="148.43"/>
        </g>
        <polygon class="cls-9" points="120.3 65.66 108.32 80.62 117.15 84.81 120.3 65.66"/>
        <path class="cls-22" d="M137.32,137.69s-12.25,14.86-15.96,24.67c-3.72,9.81-11.97,43.64-11.97,43.64l78.97-.02-10.92-92.6-40.12,24.31Z"/>
        <path class="cls-9" d="M158.9,89.64s.92-3.68,3.17-5.52c2.25-1.84,4.19-1.28,4.19-1.28"/>
        <polygon class="cls-39" points="155.81 25.77 166.56 78.42 169.66 77.86 168.4 94.7 158.07 96.18 137.32 124.11 148.69 129.42 151.87 124.71 150.7 130.56 169.66 132.76 171.44 125.87 174.79 132.76 196.87 127.76 188.51 77.45 187.34 35.54 155.81 25.77"/>
        <path class="cls-37" d="M120.66,85.79l16.14-3.26-5.81,14.48c-.17,.42-.72,.51-1.02,.18l-9.56-10.64c-.24-.26-.1-.68,.25-.75Z"/>
        <path class="cls-9" d="M158.07,84.86s-9.02-2.81-16.48,4.78c-7.46,7.6-4.92,17.35-4.92,17.35"/>
        <path class="cls-38" d="M147.41,148.69s7.06-4.74,10.66-5.35,10.23,3.53,10.23,3.53l2.14,59.13-26.1-.02,3.07-57.29Z"/>
      </g>
      <polygon class="cls-29" points="58.1 55.58 29.43 39.24 30.78 17.41 99.39 15.34 127.03 25.14 101.14 58.03 66.15 60.31 56.35 71.51 58.1 55.58"/>
      <polygon class="cls-1" points="65.63 70.83 106.21 64.51 104.68 81.36 109.13 96.06 104.5 100.14 114.79 110.95 96.31 103.89 67.62 107.12 63.06 85.21 65.63 70.83"/>
      <g>
        <polygon class="cls-26" points="28.57 127.19 -.74 120.07 -11.25 146.53 26.75 145.27 28.57 127.19"/>
        <polygon class="cls-5" points="48.83 59.52 20.22 39.2 -26.52 57.42 -24.39 111.98 4.61 125.22 3.56 96.15 32.68 71.41 49.22 79.62 48.83 59.52"/>
        <g>
          <polygon class="cls-26" points="4.41 97.03 -4.62 93.84 -5.57 108.68 4.41 110.66 4.41 97.03"/>
          <path class="cls-8" d="M4.24,104.49c-1.37-1.73-2.74-3.46-4.1-5.18-.77-.32-1.54-.64-2.3-.96"/>
        </g>
        <path class="cls-25" d="M31.58,144.94c8.1,17.6,36.6,61.35,36.6,61.35l-104.77-1.34,12.93-51.42,7.57-7.01,47.67-1.59Z"/>
        <path class="cls-37" d="M-3.1,179.07c-.25,6.88-.58,15.84-1.01,27.25l48.27-.35c-4.18-21.22-5.38-25.88-8.52-41.79-.86-4.37-8.76-17.19-21.28-13.98-12.52,3.21-17.02,16.88-17.46,28.87Z"/>
        <path class="cls-3" d="M2.79,85.59l1.82,39.63,44.45,11.61c2.84,.74,5.56-1.57,5.27-4.49-1.27-12.97-4.23-43.13-5.11-52.73-9.46-4.7-18.93-9.39-28.39-14.09L2.79,85.59Z"/>
        <path class="cls-10" d="M35.52,133.3c.15-1.43,1.54-14.17-9.83-19.35-11.37-5.18-19.8,1.4-21.28,2.42"/>
        <polygon class="cls-2" points="45.31 77.51 27.33 81.35 26.95 76.79 44.67 75.17 45.31 77.51"/>
        <path class="cls-18" d="M49.64,84.29c.61,7.64,1.82,22.92,1.82,22.92l6.97-.62s-.03-16.67-8.78-22.3Z"/>
        <polygon class="cls-37" points="40.89 121.47 35.04 111.7 47.69 114.36 40.89 121.47"/>
        <g>
          <path class="cls-33" d="M37.65,89.49c-1.48,1.46-.83,3.82-.66,4.42,.19,.68,.72,2.58,2.28,2.98,1.1,.29,2.04-.34,2.09-.37,1.52-1.05,1.22-3.48,1.11-4.32-.14-1.08-.37-2.99-1.78-3.54-1.08-.42-2.33,.14-3.04,.83Z"/>
          <path class="cls-5" d="M32.2,92.38c.99-.76,1.35-1.81,4.95-2.99s7.95,1.72,7.95,1.72l.5-.82s-3.87-2.78-7.69-2.18c-3.82,.6-5.54,2.53-6.44,3.27l.73,1Z"/>
          <polygon class="cls-5" points="30.88 89.41 31.46 91.38 33 90.4 30.88 89.41"/>
        </g>
        <g>
          <path class="cls-2" d="M47.57,59.27S16.15,86.62,.46,101.16c-.04-9.85-.15-19.79-.33-29.81-.07-3.64-.14-7.26-.22-10.87,15.89-.4,31.77-.8,47.66-1.21Z"/>
          <line class="cls-20" x1="-27.8" y1="61.07" x2="48.42" y2="59.44"/>
          <line class="cls-13" x1="14.11" y1="57.32" x2="1.27" y2="99.53"/>
          <line class="cls-13" x1="31.89" y1="58.35" x2="1.47" y2="98.85"/>
        </g>
      </g>
    </g>
    <g>
      <polygon class="cls-28" points="73.88 77.08 96.19 76.75 98.48 98.51 72.14 98.84 73.88 77.08"/>
      <g>
        <polygon class="cls-36" points="97.12 85.57 101.03 84.71 101.17 90.88 97.68 90.88 97.12 85.57"/>
        <path class="cls-7" d="M97.47,88.88s.53-1.14,1.14-1.74,1.48-.94,1.48-.94"/>
      </g>
      <g>
        <polygon class="cls-36" points="73.19 85.82 69.28 84.96 69.14 91.13 72.76 91.13 73.19 85.82"/>
        <path class="cls-7" d="M72.84,89.13s-.53-1.14-1.14-1.74c-.61-.6-1.48-.94-1.48-.94"/>
      </g>
      <path class="cls-5" d="M97.12,85.57l2.78-.61,.84-12.66s-20.93-3.87-21.76-4.14-1.59-.65-2.16-.9-1.82-.96-1.82-.96l1.6,2.95-6.71,5.78,1.28,10.34,2.03,.44,.69-8.74,22.31-.33,.93,8.82Z"/>
      <polygon class="cls-5" points="94.47 83.41 94.86 81.7 90.51 81.7 89.87 82.74 94.47 83.41"/>
      <polygon class="cls-5" points="75.01 82.78 74.73 81.05 79.07 81.33 79.64 82.4 75.01 82.78"/>
      <polygon class="cls-16" points="82.15 83.07 85.36 83.07 85.36 90.68 79.91 90.91 80.54 88.1 82.12 87.8 82.15 83.07"/>
      <path class="cls-15" d="M75.21,87.54s.6-1.21,2.03-1.09c1.44,.11,1.92,1.09,1.92,1.09"/>
      <path class="cls-15" d="M90.18,87.54s.6-1.21,2.03-1.09c1.44,.11,1.92,1.09,1.92,1.09"/>
      <polygon class="cls-5" points="72.33 93.85 74.73 96.91 94.9 96.8 97.97 92.62 98.77 98.73 88.01 99.06 88.01 100.31 83.34 100.31 82.8 99.13 71.93 98.99 72.33 93.85"/>
      <path class="cls-37" d="M83.03,93.85l3.05-.3s-.08,1.41-1.37,1.47-1.68-1.17-1.68-1.17Z"/>
      <path class="cls-16" d="M97.47,89.62s-2.77-1.27-5.31,1.29-1.16,5.91-1.16,5.91"/>
      <path class="cls-16" d="M72.84,90.04s2.31,.58,3.86,2.28c1.55,1.69,1.46,4.58,1.46,4.58"/>
      <polygon class="cls-5" points="76.82 92.49 81.12 89.77 84.08 90.29 87.31 89.53 91.34 92.5 85.06 92.95 84.08 91.88 83.06 93.06 76.82 92.49"/>
    </g>
    <g>
      <path class="cls-35" d="M90.93,10.76l-14.47-6.27-13.5,10.73,2.14,22.04-7.17,10.17s10.17,8.47,22.25,6.92c12.08-1.55,21.34-7.64,21.34-7.64l-6.71-13.4-3.88-22.54Z"/>
      <line class="cls-12" x1="81.73" y1="37.52" x2="83.31" y2="53.81"/>
      <g>
        <path class="cls-1" d="M83.71,35.95c-.4-1.14-3.81-.42-4.01,.64s1.16,2.34,2.48,2.04,1.92-1.54,1.53-2.68Z"/>
        <polygon class="cls-30" points="79.73 36.51 80.02 37.59 76.8 38.06 79.73 36.51"/>
        <polygon class="cls-30" points="80 37.56 80.77 38.37 78.16 40.32 80 37.56"/>
        <polygon class="cls-30" points="80.68 38.33 81.76 38.63 80.5 41.64 80.68 38.33"/>
        <polygon class="cls-30" points="81.76 38.64 82.84 38.34 83.31 41.57 81.76 38.64"/>
        <polygon class="cls-30" points="82.85 38.33 83.6 37.5 85.72 39.98 82.85 38.33"/>
        <polygon class="cls-30" points="83.61 37.5 83.81 36.4 86.92 37.39 83.61 37.5"/>
        <polygon class="cls-30" points="83.8 36.4 83.71 35.29 86.96 35.42 83.8 36.4"/>
      </g>
      <polygon class="cls-3" points="91.39 16.37 68.27 19.33 70.31 37.83 93.5 35.09 91.39 16.37"/>
      <path class="cls-34" d="M67.41,14.13l.73,5.71,23.57-3.02-.78-6.06s-5.96,.06-11.53,.78c-5.58,.72-11.99,2.59-11.99,2.59Z"/>
      <path class="cls-27" d="M77.35,20.45l.23,1.76s-1.81,.15-3.66-.04c-1.85-.19-4.12-1-4.12-1l-.29-2.26s2.92,.86,3.96,1.06c1.05,.21,3.89,.48,3.89,.48Z"/>
      <path class="cls-27" d="M83.86,19.97l.24,1.85,6.69-2.26-.46-1.85s-2.21,.57-3.35,.97-3.12,1.29-3.12,1.29Z"/>
      <path class="cls-17" d="M76.98,37.02s-.22-2.69-2.44-4.22c-2.22-1.53-4.75-.99-4.75-.99"/>
      <path class="cls-17" d="M87.42,35.53s-.03-2.81,1.84-4.54c1.87-1.72,3.36-1.65,3.36-1.65"/>
      <path class="cls-14" d="M81.04,34.17s-1.15-.33-2.12-1.47c-.97-1.14-1.32-2.19-1.32-2.19"/>
      <g>
        <path class="cls-23" d="M90.65,23.65c-.2-.07-1.88-.58-3.35,.44-.94,.65-1.28,1.57-1.39,1.91"/>
        <path class="cls-23" d="M90.55,22.52c-.09,.3-.18,.59-.28,.89"/>
        <path class="cls-23" d="M89.5,22.49c.03,.3,.06,.59,.09,.89"/>
        <path class="cls-33" d="M88.18,23.77c.7,.09,1,.86,1.08,1.06,.09,.22,.33,.84-.01,1.27-.24,.3-.62,.32-.64,.32-.62,.03-1.04-.69-1.18-.94-.18-.32-.51-.89-.24-1.32,.21-.33,.66-.44,.99-.39Z"/>
      </g>
      <g>
        <path class="cls-23" d="M72.42,25.3c.18-.11,1.69-1,3.36-.34,1.06,.42,1.61,1.23,1.8,1.54"/>
        <path class="cls-23" d="M72.26,24.18c.16,.27,.32,.53,.47,.8"/>
        <path class="cls-23" d="M73.27,23.9c.04,.3,.08,.59,.12,.89"/>
        <path class="cls-33" d="M74.86,24.85c-.66,.25-.77,1.07-.8,1.28-.03,.24-.13,.9,.3,1.23,.3,.24,.68,.17,.7,.17,.61-.12,.85-.92,.93-1.19,.1-.35,.29-.98-.07-1.34-.28-.28-.74-.27-1.05-.15Z"/>
      </g>
      <path class="cls-6" d="M81.76,21.48c-.02,2.6-.05,5.21-.07,7.81,1.53-.08,3.06-.16,4.59-.25-1.51-2.52-3.02-5.04-4.52-7.56Z"/>
    </g>
    <path class="cls-1" d="M113.17,19.6c.97,1.3,1.24,2.9,.83,4.8-.38,1.75-1.25,2.98-2.61,3.71-1.36,.72-2.97,.89-4.85,.49l-.6,2.06-4.18-.92,1-5.21,1.67,.37c1.43,.31,2.56,.38,3.39,.19,.83-.19,1.35-.74,1.55-1.67,.14-.65,.08-1.2-.19-1.65s-.72-.74-1.35-.88c-.67-.15-1.23-.07-1.69,.23-.45,.3-.75,.77-.9,1.42l-4.48-.99c.21-1.14,.67-2.11,1.38-2.91,.71-.8,1.63-1.35,2.76-1.66,1.13-.31,2.41-.3,3.84,.01,1.99,.44,3.47,1.31,4.43,2.61Zm-12.74,16.66c-.42-.61-.55-1.28-.39-2s.57-1.31,1.2-1.69c.64-.39,1.38-.49,2.21-.3,.82,.18,1.43,.58,1.85,1.2,.42,.62,.55,1.3,.38,2.04s-.56,1.27-1.19,1.65-1.36,.47-2.18,.29c-.84-.18-1.46-.58-1.88-1.19Z"/>
  </g>
  <g>
    <path class="cls-1" d="M26.89,218.26c.32,.42,.48,.91,.48,1.47,0,.85-.28,1.5-.84,1.96-.56,.46-1.36,.69-2.41,.69h-5.07v-9.67h4.93c.98,0,1.76,.21,2.32,.64,.56,.43,.85,1.05,.85,1.87,0,.56-.15,1.04-.44,1.43-.3,.39-.69,.64-1.18,.77,.58,.14,1.04,.42,1.36,.84Zm-4.8-1.78h1.17c.27,0,.48-.05,.61-.16,.13-.11,.2-.28,.2-.51s-.07-.41-.2-.53-.33-.17-.61-.17h-1.17v1.37Zm1.99,3.31c.13-.1,.2-.28,.2-.51,0-.46-.27-.7-.81-.7h-1.38v1.37h1.38c.27,0,.48-.05,.61-.16Z"/>
    <path class="cls-1" d="M36.5,219.05h-4.88c.05,.67,.32,1,.83,1,.33,0,.56-.15,.71-.45h3.21c-.11,.55-.34,1.04-.69,1.47-.35,.43-.79,.77-1.32,1.02-.53,.25-1.12,.38-1.75,.38-.76,0-1.45-.16-2.04-.48-.6-.32-1.06-.78-1.39-1.37-.33-.6-.5-1.29-.5-2.1s.17-1.5,.5-2.1c.33-.6,.8-1.05,1.39-1.37,.6-.32,1.28-.48,2.04-.48s1.45,.16,2.04,.47c.6,.31,1.06,.76,1.39,1.34,.33,.58,.5,1.27,.5,2.06,0,.21-.01,.41-.04,.6Zm-3.03-1.32c0-.25-.08-.45-.25-.58s-.37-.2-.61-.2c-.54,0-.85,.26-.94,.78h1.8Z"/>
    <path class="cls-1" d="M42.34,215.02c.45-.27,.91-.4,1.39-.4v3.24h-.86c-.57,0-.99,.1-1.26,.3s-.4,.56-.4,1.07v3.15h-3.03v-7.7h3.03v1.42c.31-.45,.69-.8,1.13-1.07Z"/>
    <path class="cls-1" d="M45.33,216.43c.33-.6,.8-1.05,1.39-1.37,.6-.32,1.28-.48,2.04-.48,1,0,1.85,.28,2.53,.85s1.12,1.35,1.3,2.35h-3.21c-.12-.4-.35-.6-.7-.6-.25,0-.44,.11-.58,.34-.14,.23-.21,.56-.21,1.01s.07,.78,.21,1.01c.14,.23,.33,.34,.58,.34,.35,0,.58-.2,.7-.6h3.21c-.18,1-.62,1.78-1.3,2.35s-1.53,.85-2.53,.85c-.76,0-1.45-.16-2.04-.48-.6-.32-1.06-.78-1.39-1.37-.33-.6-.5-1.29-.5-2.1s.17-1.5,.5-2.1Z"/>
    <path class="cls-1" d="M54.24,216.41c.28-.6,.66-1.05,1.14-1.37,.48-.31,1.02-.47,1.62-.47,.5,0,.93,.1,1.3,.31,.37,.21,.64,.49,.83,.84v-1.05h3.02v7.7h-3.02v-1.05c-.19,.36-.47,.64-.83,.84-.36,.21-.8,.31-1.3,.31-.6,0-1.14-.16-1.62-.47-.48-.31-.86-.77-1.14-1.37-.28-.6-.42-1.3-.42-2.11s.14-1.51,.42-2.11Zm4.58,1.15c-.21-.23-.48-.34-.81-.34s-.6,.11-.81,.34-.31,.55-.31,.96,.11,.73,.31,.96,.48,.34,.81,.34,.6-.11,.81-.34,.31-.55,.31-.96-.11-.73-.31-.96Z"/>
    <path class="cls-1" d="M69.13,222.37l-1.9-3.07v3.07h-3.03v-10.1h3.03v5.28l1.92-2.88h3.52l-2.88,3.88,2.95,3.82h-3.62Z"/>
    <path class="cls-1" d="M74.12,216.41c.28-.6,.66-1.05,1.14-1.37,.48-.31,1.02-.47,1.62-.47,.5,0,.93,.1,1.3,.31,.36,.21,.64,.49,.83,.84v-1.05h3.02v7.7h-3.02v-1.05c-.19,.36-.47,.64-.83,.84-.37,.21-.8,.31-1.3,.31-.6,0-1.14-.16-1.62-.47-.48-.31-.86-.77-1.14-1.37-.28-.6-.42-1.3-.42-2.11s.14-1.51,.42-2.11Zm4.58,1.15c-.21-.23-.48-.34-.81-.34s-.6,.11-.81,.34-.31,.55-.31,.96,.1,.73,.31,.96,.48,.34,.81,.34,.6-.11,.81-.34c.21-.23,.31-.55,.31-.96s-.1-.73-.31-.96Z"/>
    <path class="cls-1" d="M87.94,214.88c.36-.2,.79-.31,1.29-.31,.6,0,1.14,.16,1.62,.47,.48,.31,.86,.77,1.14,1.37,.28,.6,.42,1.3,.42,2.11s-.14,1.51-.42,2.11c-.28,.6-.66,1.05-1.14,1.37-.48,.31-1.02,.47-1.62,.47-.5,0-.93-.1-1.29-.31-.36-.2-.63-.48-.83-.84v4.74h-3.03v-11.39h3.03v1.05c.19-.35,.47-.63,.83-.84Zm1.09,2.68c-.21-.23-.48-.34-.81-.34s-.6,.11-.81,.34-.31,.55-.31,.96,.11,.73,.31,.96,.48,.34,.81,.34,.6-.11,.81-.34,.31-.55,.31-.96-.11-.73-.31-.96Z"/>
    <path class="cls-1" d="M97.06,216.41c.28-.6,.66-1.05,1.14-1.37,.48-.31,1.02-.47,1.62-.47,.5,0,.93,.1,1.29,.31,.36,.21,.63,.49,.83,.84v-3.45h3.03v10.1h-3.03v-1.05c-.19,.36-.47,.64-.83,.84-.36,.21-.79,.31-1.29,.31-.6,0-1.14-.16-1.62-.47-.48-.31-.86-.77-1.14-1.37-.28-.6-.42-1.3-.42-2.11s.14-1.51,.42-2.11Zm4.58,1.15c-.21-.23-.48-.34-.81-.34s-.6,.11-.81,.34-.31,.55-.31,.96,.11,.73,.31,.96,.48,.34,.81,.34,.6-.11,.81-.34,.31-.55,.31-.96-.11-.73-.31-.96Z"/>
    <path class="cls-1" d="M114.44,219.05h-4.88c.04,.67,.32,1,.83,1,.33,0,.56-.15,.71-.45h3.21c-.11,.55-.34,1.04-.69,1.47-.35,.43-.79,.77-1.32,1.02-.53,.25-1.12,.38-1.76,.38-.76,0-1.45-.16-2.04-.48-.6-.32-1.06-.78-1.39-1.37-.33-.6-.5-1.29-.5-2.1s.17-1.5,.5-2.1c.33-.6,.8-1.05,1.39-1.37,.6-.32,1.28-.48,2.04-.48s1.45,.16,2.04,.47c.6,.31,1.06,.76,1.39,1.34,.33,.58,.5,1.27,.5,2.06,0,.21-.01,.41-.04,.6Zm-3.03-1.32c0-.25-.08-.45-.25-.58s-.37-.2-.62-.2c-.54,0-.85,.26-.94,.78h1.8Z"/>
    <path class="cls-1" d="M123.58,215.5c.5,.59,.74,1.39,.74,2.4v4.46h-3.02v-4.08c0-.36-.1-.65-.29-.87-.2-.21-.46-.32-.79-.32s-.6,.11-.79,.32-.29,.5-.29,.87v4.08h-3.03v-7.7h3.03v1.17c.24-.36,.55-.66,.95-.89,.4-.23,.87-.34,1.41-.34,.88,0,1.57,.3,2.07,.89Z"/>
    <path class="cls-1" d="M130.39,214.88c.36,.21,.64,.49,.83,.84v-1.05h3.02v7.56c0,.72-.13,1.38-.4,1.97s-.69,1.06-1.28,1.42c-.59,.35-1.34,.53-2.26,.53-1.24,0-2.22-.29-2.94-.87s-1.14-1.36-1.24-2.36h2.98c.08,.4,.41,.6,.98,.6,.36,0,.63-.09,.83-.27,.2-.18,.3-.52,.3-1.02v-.92c-.19,.36-.47,.64-.83,.84-.36,.21-.8,.31-1.3,.31-.6,0-1.14-.16-1.62-.47-.48-.31-.86-.77-1.14-1.37-.28-.6-.42-1.3-.42-2.11s.14-1.51,.42-2.11c.28-.6,.66-1.05,1.14-1.37,.48-.31,1.02-.47,1.62-.47,.5,0,.93,.1,1.3,.31Zm.52,2.68c-.21-.23-.48-.34-.81-.34s-.6,.11-.8,.34c-.21,.23-.31,.55-.31,.96s.1,.73,.31,.96c.21,.23,.48,.34,.8,.34s.6-.11,.81-.34c.21-.23,.31-.55,.31-.96s-.1-.73-.31-.96Z"/>
    <path class="cls-1" d="M136.3,216.41c.28-.6,.66-1.05,1.14-1.37,.48-.31,1.03-.47,1.62-.47,.5,0,.93,.1,1.3,.31,.36,.21,.64,.49,.83,.84v-1.05h3.02v7.7h-3.02v-1.05c-.19,.36-.47,.64-.83,.84-.36,.21-.8,.31-1.3,.31-.6,0-1.14-.16-1.62-.47-.48-.31-.86-.77-1.14-1.37-.28-.6-.42-1.3-.42-2.11s.14-1.51,.42-2.11Zm4.58,1.15c-.21-.23-.48-.34-.8-.34s-.6,.11-.81,.34c-.21,.23-.31,.55-.31,.96s.1,.73,.31,.96c.21,.23,.48,.34,.81,.34s.6-.11,.8-.34,.31-.55,.31-.96-.11-.73-.31-.96Z"/>
    <path class="cls-1" d="M153.72,215.5c.5,.59,.74,1.39,.74,2.4v4.46h-3.02v-4.08c0-.36-.1-.65-.29-.87-.2-.21-.46-.32-.79-.32s-.6,.11-.79,.32-.29,.5-.29,.87v4.08h-3.03v-7.7h3.03v1.17c.24-.36,.55-.66,.95-.89,.4-.23,.87-.34,1.41-.34,.88,0,1.57,.3,2.07,.89Z"/>
    <path class="cls-1" d="M39.97,231.41c.45-.27,.91-.4,1.39-.4v3.24h-.86c-.57,0-1,.1-1.26,.3-.27,.2-.4,.56-.4,1.07v3.15h-3.03v-7.7h3.03v1.42c.31-.45,.69-.8,1.13-1.07Z"/>
    <path class="cls-1" d="M42.87,232.8c.28-.6,.66-1.05,1.14-1.37,.48-.31,1.02-.47,1.62-.47,.5,0,.93,.1,1.3,.31,.36,.21,.64,.49,.83,.84v-1.05h3.02v7.7h-3.02v-1.05c-.19,.36-.47,.64-.83,.84-.37,.21-.8,.31-1.3,.31-.6,0-1.14-.16-1.62-.47-.48-.31-.86-.77-1.14-1.37-.28-.6-.42-1.3-.42-2.11s.14-1.51,.42-2.11Zm4.58,1.15c-.21-.23-.48-.34-.81-.34s-.6,.11-.81,.34-.31,.55-.31,.96,.1,.73,.31,.96,.48,.34,.81,.34,.6-.11,.81-.34c.21-.23,.31-.55,.31-.96s-.1-.73-.31-.96Z"/>
    <path class="cls-1" d="M65.4,231.89c.54,.59,.81,1.39,.81,2.4v4.46h-3.02v-4.08c0-.33-.1-.58-.29-.77-.2-.19-.46-.28-.79-.28s-.6,.09-.79,.28-.29,.44-.29,.77v4.08h-3.02v-4.08c0-.33-.1-.58-.29-.77s-.46-.28-.79-.28-.6,.09-.79,.28-.29,.44-.29,.77v4.08h-3.03v-7.7h3.03v1.04c.22-.33,.52-.59,.89-.79,.38-.2,.82-.3,1.33-.3,.55,0,1.05,.12,1.47,.36s.77,.58,1.02,1.02c.28-.4,.64-.73,1.08-.99,.44-.26,.92-.39,1.45-.39,.98,0,1.74,.3,2.29,.89Z"/>
    <path class="cls-1" d="M68.21,232.8c.28-.6,.66-1.05,1.14-1.37,.48-.31,1.02-.47,1.62-.47,.5,0,.93,.1,1.3,.31,.36,.21,.64,.49,.83,.84v-1.05h3.02v7.7h-3.02v-1.05c-.19,.36-.47,.64-.83,.84-.37,.21-.8,.31-1.3,.31-.6,0-1.14-.16-1.62-.47-.48-.31-.86-.77-1.14-1.37-.28-.6-.42-1.3-.42-2.11s.14-1.51,.42-2.11Zm4.58,1.15c-.21-.23-.48-.34-.81-.34s-.6,.11-.81,.34-.31,.55-.31,.96,.1,.73,.31,.96,.48,.34,.81,.34,.6-.11,.81-.34c.21-.23,.31-.55,.31-.96s-.1-.73-.31-.96Z"/>
    <path class="cls-1" d="M78.43,230.02c-.32-.28-.48-.64-.48-1.07s.16-.8,.48-1.08c.32-.29,.74-.43,1.27-.43s.94,.14,1.26,.43c.32,.29,.48,.65,.48,1.08s-.16,.78-.48,1.07c-.32,.28-.74,.42-1.26,.42s-.95-.14-1.27-.42Zm2.77,1.04v7.7h-3.03v-7.7h3.03Z"/>
    <path class="cls-1" d="M87.83,238.38c-.62-.32-1.1-.78-1.45-1.37-.35-.6-.53-1.29-.53-2.1s.18-1.5,.53-2.1c.35-.6,.83-1.05,1.45-1.37,.62-.32,1.32-.48,2.09-.48s1.47,.16,2.09,.48c.62,.32,1.1,.78,1.45,1.37,.35,.6,.53,1.3,.53,2.1s-.17,1.5-.53,2.1c-.35,.6-.83,1.05-1.45,1.37-.62,.32-1.32,.48-2.09,.48s-1.47-.16-2.09-.48Zm2.8-2.48c.19-.22,.29-.55,.29-.99s-.1-.77-.29-.99c-.19-.22-.43-.33-.71-.33s-.52,.11-.71,.33c-.19,.22-.29,.55-.29,.99s.09,.77,.28,.99c.19,.22,.42,.33,.72,.33s.52-.11,.71-.33Z"/>
    <path class="cls-1" d="M99.79,231.41c.45-.27,.91-.4,1.39-.4v3.24h-.86c-.57,0-.99,.1-1.26,.3s-.4,.56-.4,1.07v3.15h-3.03v-7.7h3.03v1.42c.31-.45,.69-.8,1.13-1.07Z"/>
    <path class="cls-1" d="M102.69,232.8c.28-.6,.66-1.05,1.14-1.37,.48-.31,1.02-.47,1.62-.47,.5,0,.93,.1,1.3,.31,.36,.21,.64,.49,.83,.84v-1.05h3.02v7.7h-3.02v-1.05c-.19,.36-.47,.64-.83,.84-.36,.21-.8,.31-1.3,.31-.6,0-1.14-.16-1.62-.47-.48-.31-.86-.77-1.14-1.37-.28-.6-.42-1.3-.42-2.11s.14-1.51,.42-2.11Zm4.58,1.15c-.21-.23-.48-.34-.81-.34s-.6,.11-.8,.34c-.21,.23-.31,.55-.31,.96s.1,.73,.31,.96c.21,.23,.48,.34,.8,.34s.6-.11,.81-.34c.21-.23,.31-.55,.31-.96s-.1-.73-.31-.96Z"/>
    <path class="cls-1" d="M120.11,231.89c.5,.59,.74,1.39,.74,2.4v4.46h-3.02v-4.08c0-.36-.1-.65-.29-.87-.2-.21-.46-.32-.79-.32s-.6,.11-.79,.32-.29,.5-.29,.87v4.08h-3.03v-7.7h3.03v1.17c.24-.36,.55-.66,.95-.89,.4-.23,.87-.34,1.41-.34,.88,0,1.57,.3,2.07,.89Z"/>
    <path class="cls-1" d="M126.92,231.27c.37,.21,.64,.49,.83,.84v-1.05h3.02v7.56c0,.72-.13,1.38-.4,1.97s-.69,1.06-1.28,1.42c-.59,.35-1.34,.53-2.26,.53-1.24,0-2.22-.29-2.94-.87-.72-.58-1.14-1.36-1.24-2.36h2.98c.08,.4,.41,.6,.98,.6,.35,0,.63-.09,.83-.27,.2-.18,.3-.52,.3-1.02v-.92c-.19,.36-.47,.64-.83,.84-.36,.21-.8,.31-1.3,.31-.6,0-1.14-.16-1.62-.47-.48-.31-.86-.77-1.14-1.37-.28-.6-.42-1.3-.42-2.11s.14-1.51,.42-2.11c.28-.6,.66-1.05,1.14-1.37,.48-.31,1.02-.47,1.62-.47,.5,0,.93,.1,1.3,.31Zm.52,2.68c-.21-.23-.48-.34-.81-.34s-.6,.11-.81,.34-.31,.55-.31,.96,.11,.73,.31,.96,.48,.34,.81,.34,.6-.11,.81-.34,.31-.55,.31-.96-.11-.73-.31-.96Z"/>
    <path class="cls-1" d="M133.98,238.45c-.32-.28-.48-.64-.48-1.06s.16-.8,.48-1.09,.74-.43,1.27-.43,.94,.14,1.26,.43,.48,.65,.48,1.09-.16,.78-.48,1.06c-.32,.28-.74,.42-1.26,.42s-.95-.14-1.27-.42Zm2.92-10l-.36,6.47h-2.59l-.36-6.47h3.3Z"/>
  </g>
</svg>