<?xml version="1.0" encoding="UTF-8"?>
<svg id="Layer_2" data-name="Layer 2" xmlns="http://www.w3.org/2000/svg" xmlns:xlink="http://www.w3.org/1999/xlink" viewBox="0 0 173.25 246.95">
  <defs>
    <style>
      .cls-1 {
        fill: #fff;
      }

      .cls-2 {
        fill: #181216;
      }

      .cls-3 {
        fill: #ef9d7f;
      }

      .cls-4 {
        fill: #ffb69f;
      }

      .cls-5 {
        fill: #363636;
      }

      .cls-6 {
        fill: #ffd550;
      }

      .cls-7 {
        fill: #eeb2ff;
      }

      .cls-8 {
        fill: #fac300;
      }

      .cls-9 {
        fill: #f55;
      }

      .cls-10 {
        fill: #e58e73;
      }

      .cls-11 {
        fill: #333;
      }

      .cls-12 {
        fill: #f80500;
      }

      .cls-13 {
        fill: #ab7a5a;
      }

      .cls-14 {
        fill: #e64c00;
      }

      .cls-15 {
        fill: #f4ae32;
      }

      .cls-16 {
        clip-path: url(#clippath);
      }

      .cls-17 {
        fill: #ff8cb7;
      }

      .cls-18 {
        fill: none;
      }

      .cls-19 {
        fill: #353535;
      }

      .cls-20 {
        fill: #474747;
      }

      .cls-21 {
        fill: #515151;
      }

      .cls-22 {
        fill: #9e6647;
      }

      .cls-23 {
        fill: #b72c2c;
      }

      .cls-24 {
        fill: #e08bfc;
      }

      .cls-25 {
        fill: #d46cff;
      }

      .cls-26 {
        fill: #d38871;
      }
    </style>
    <clipPath id="clippath">
      <path class="cls-18" d="M152.54,7.62H20.61c-7.9,0-14.3,6.4-14.3,14.3V192.16c0,7.9,6.4,14.3,14.3,14.3H152.54c7.9,0,14.3-6.4,14.3-14.3V21.92c0-7.9-6.4-14.3-14.3-14.3Z"/>
    </clipPath>
  </defs>
  <path class="cls-25" d="M160.04,.45H13.11C5.82,.45-.09,6.37-.09,13.66V233.74c0,7.29,5.91,13.2,13.2,13.2H160.04c7.29,0,13.2-5.91,13.2-13.2V13.66c0-7.29-5.91-13.2-13.2-13.2ZM82.81,128.68s-.08,.03-.13,.05c0,0,0,0,0,0-.16,.08-.32,.15-.49,.23-.46,.21-.92,.41-1.41,.54-.18,.05-.36,.06-.54,.06-.81,.22-1.63,.27-2.48,.15-.37-.05-.69-.29-.92-.59-.5-.11-.91-.43-1.17-.84-.15,.04-.31,.08-.47,.08-.02,0-.02,0-.04,0-.1,.02-.2,.04-.31,.06-.06,.02-.12,.05-.18,.08-.26,.1-.53,.1-.79,.06-.04,0-.08,0-.11,.01-.84,.03-1.55-.6-1.79-1.36-.26-.79,.18-1.68,.85-2.1,.88-.55,1.8-1.03,2.75-1.47,.75-.4,1.52-.74,2.33-.98,0,0,0,0,.01,0,.15-.4,.42-.74,.8-1,.65-.44,1.3-.8,2.07-1,.82-.22,1.65,.15,2.1,.85,.4,.63,.31,1.67-.24,2.2,.02,.11,.03,.22,.05,.33,.32,.16,.6,.4,.8,.72,.17,.26,.24,.54,.25,.83,.1,.13,.19,.26,.25,.41,.09,.22,.14,.47,.14,.72,0,.07,.02,.13,.02,.2,.04,.85-.62,1.53-1.36,1.79Zm21.94-9.62c-.37,.4-1.03,.61-1.61,.53-.2,.21-.45,.38-.72,.48-.11,.53-.43,1.02-.88,1.31-.88,.57-2,.14-2.54-.67-.21-.31-.42-.62-.64-.92-.08-.11-.15-.21-.23-.32-.63-.71-1.2-1.46-1.77-2.22-.19-.26-.27-.56-.26-.87-.41-.55-.83-1.09-1.27-1.6-.68-.79-.72-1.84,0-2.63,.56-.61,1.63-.71,2.32-.26-.48-.64-.95-1.29-1.4-1.96-.58-.86-.14-2.02,.67-2.54,.88-.57,2-.14,2.54,.67,1.98,2.95,4.4,5.6,6.09,8.73,.41,.75,.28,1.63-.29,2.25Z"/>
  <g>
    <path class="cls-1" d="M21.93,218.65v2.6h-3.37v10.71h-3.1v-10.71h-3.37v-2.6h9.84Z"/>
    <path class="cls-1" d="M24.36,223.79c.39-.82,.93-1.45,1.6-1.9,.68-.44,1.43-.66,2.27-.66,.71,0,1.34,.15,1.88,.46,.54,.3,.95,.7,1.24,1.19v-1.5h3.1v10.58h-3.1v-1.5c-.3,.49-.72,.89-1.26,1.19-.54,.3-1.16,.46-1.88,.46-.82,0-1.57-.22-2.25-.67-.68-.45-1.21-1.09-1.6-1.92s-.59-1.79-.59-2.87,.2-2.04,.59-2.86Zm6.35,.97c-.43-.47-.95-.7-1.57-.7s-1.14,.23-1.57,.69c-.43,.46-.64,1.1-.64,1.91s.21,1.45,.64,1.92c.43,.47,.95,.71,1.57,.71s1.14-.23,1.57-.7c.43-.47,.64-1.11,.64-1.92s-.21-1.45-.64-1.92Z"/>
    <path class="cls-1" d="M40.71,217.93v14.03h-3.1v-14.03h3.1Z"/>
    <path class="cls-1" d="M50.04,231.97l-3.08-4.44v4.44h-3.1v-14.03h3.1v7.75l3.06-4.3h3.83l-4.21,5.31,4.24,5.27h-3.84Z"/>
    <path class="cls-1" d="M66.36,229.22v2.75h-1.58c-1.12,0-2-.29-2.63-.86-.63-.58-.94-1.51-.94-2.82v-4.21h-1.23v-2.69h1.23v-2.58h3.1v2.58h2.03v2.69h-2.03v4.25c0,.32,.07,.54,.22,.68,.15,.14,.39,.21,.73,.21h1.11Z"/>
    <path class="cls-1" d="M70.92,231.45c-.79-.44-1.41-1.07-1.87-1.9-.45-.82-.68-1.78-.68-2.88s.23-2.04,.69-2.87,1.09-1.46,1.89-1.91c.8-.44,1.69-.66,2.68-.66s1.89,.22,2.68,.66c.8,.44,1.43,1.08,1.89,1.91,.46,.83,.69,1.79,.69,2.87s-.23,2.04-.7,2.87c-.46,.83-1.1,1.46-1.9,1.91s-1.7,.66-2.69,.66-1.88-.22-2.67-.66Zm4.19-2.83c.42-.46,.63-1.11,.63-1.95s-.2-1.5-.61-1.95c-.41-.46-.9-.68-1.5-.68s-1.11,.22-1.5,.67c-.4,.45-.6,1.1-.6,1.96s.2,1.5,.59,1.95,.89,.68,1.48,.68,1.1-.23,1.51-.68Z"/>
    <path class="cls-1" d="M90.54,221.69c.53-.3,1.15-.46,1.87-.46,.83,0,1.59,.22,2.27,.66,.68,.44,1.21,1.08,1.6,1.9s.59,1.78,.59,2.86-.2,2.04-.59,2.87-.93,1.47-1.6,1.92c-.68,.45-1.43,.67-2.27,.67-.7,0-1.32-.15-1.86-.46-.54-.3-.96-.69-1.26-1.17v6.52h-3.1v-15.62h3.1v1.5c.3-.49,.72-.89,1.25-1.19Zm2.53,3.06c-.43-.46-.96-.69-1.59-.69s-1.14,.23-1.57,.7c-.43,.47-.64,1.11-.64,1.92s.21,1.45,.64,1.92c.43,.47,.95,.7,1.57,.7s1.14-.24,1.58-.71c.43-.47,.65-1.12,.65-1.92s-.21-1.44-.64-1.91Z"/>
    <path class="cls-1" d="M108.89,227.45h-7.02c.05,.66,.25,1.16,.61,1.51,.36,.35,.79,.52,1.31,.52,.77,0,1.31-.34,1.61-1.02h3.3c-.17,.7-.47,1.32-.92,1.88-.44,.56-.99,.99-1.66,1.31-.66,.32-1.41,.47-2.23,.47-.99,0-1.87-.22-2.65-.66-.77-.44-1.38-1.07-1.81-1.9-.43-.82-.65-1.78-.65-2.88s.21-2.06,.64-2.88c.43-.82,1.03-1.45,1.8-1.9,.77-.44,1.66-.66,2.67-.66s1.85,.21,2.61,.64,1.36,1.04,1.79,1.84c.43,.8,.64,1.73,.64,2.79,0,.3-.02,.62-.05,.95Zm-3.12-1.8c0-.56-.18-1-.54-1.33-.36-.33-.82-.49-1.36-.49s-.96,.16-1.31,.47c-.36,.32-.58,.76-.66,1.35h3.88Z"/>
    <path class="cls-1" d="M113.41,231.45c-.79-.44-1.41-1.07-1.87-1.9-.45-.82-.68-1.78-.68-2.88s.23-2.04,.69-2.87,1.09-1.46,1.89-1.91c.8-.44,1.69-.66,2.68-.66s1.89,.22,2.68,.66c.8,.44,1.43,1.08,1.89,1.91,.46,.83,.69,1.79,.69,2.87s-.23,2.04-.7,2.87c-.46,.83-1.1,1.46-1.9,1.91s-1.7,.66-2.69,.66-1.88-.22-2.67-.66Zm4.19-2.83c.42-.46,.63-1.11,.63-1.95s-.2-1.5-.61-1.95c-.41-.46-.9-.68-1.5-.68s-1.11,.22-1.5,.67c-.4,.45-.6,1.1-.6,1.96s.2,1.5,.59,1.95,.89,.68,1.48,.68,1.1-.23,1.51-.68Z"/>
    <path class="cls-1" d="M128.29,221.69c.53-.3,1.15-.46,1.87-.46,.83,0,1.59,.22,2.27,.66,.68,.44,1.21,1.08,1.6,1.9s.59,1.78,.59,2.86-.2,2.04-.59,2.87-.93,1.47-1.6,1.92c-.68,.45-1.43,.67-2.27,.67-.7,0-1.32-.15-1.86-.46-.54-.3-.96-.69-1.26-1.17v6.52h-3.1v-15.62h3.1v1.5c.3-.49,.72-.89,1.25-1.19Zm2.53,3.06c-.43-.46-.96-.69-1.59-.69s-1.14,.23-1.57,.7c-.43,.47-.64,1.11-.64,1.92s.21,1.45,.64,1.92c.43,.47,.95,.7,1.57,.7s1.14-.24,1.58-.71c.43-.47,.65-1.12,.65-1.92s-.21-1.44-.64-1.91Z"/>
    <path class="cls-1" d="M140.25,217.93v14.03h-3.1v-14.03h3.1Z"/>
    <path class="cls-1" d="M152.89,227.45h-7.02c.05,.66,.25,1.16,.61,1.51,.36,.35,.79,.52,1.31,.52,.77,0,1.31-.34,1.61-1.02h3.3c-.17,.7-.47,1.32-.92,1.88-.44,.56-.99,.99-1.66,1.31-.66,.32-1.41,.47-2.23,.47-.99,0-1.87-.22-2.65-.66-.77-.44-1.38-1.07-1.81-1.9-.43-.82-.65-1.78-.65-2.88s.21-2.06,.64-2.88c.43-.82,1.03-1.45,1.8-1.9,.77-.44,1.66-.66,2.67-.66s1.85,.21,2.61,.64,1.36,1.04,1.79,1.84c.43,.8,.64,1.73,.64,2.79,0,.3-.02,.62-.05,.95Zm-3.12-1.8c0-.56-.18-1-.54-1.33-.36-.33-.82-.49-1.36-.49s-.96,.16-1.31,.47c-.36,.32-.58,.76-.66,1.35h3.88Z"/>
    <path class="cls-1" d="M156.6,231.61c-.34-.33-.52-.75-.52-1.24s.17-.93,.52-1.27c.34-.34,.79-.51,1.33-.51s.97,.17,1.31,.51c.34,.34,.52,.77,.52,1.27s-.17,.91-.52,1.24-.78,.5-1.31,.5-.99-.17-1.33-.5Zm2.96-13.43l-.36,9.08h-2.63l-.36-9.08h3.35Z"/>
  </g>
  <path class="cls-6" d="M152.54,7.62H20.61c-7.9,0-14.3,6.4-14.3,14.3V192.16c0,7.9,6.4,14.3,14.3,14.3H152.54c7.9,0,14.3-6.4,14.3-14.3V21.92c0-7.9-6.4-14.3-14.3-14.3Z"/>
  <g class="cls-16">
    <g>
      <polygon class="cls-26" points="76.17 131.62 70.29 145.28 89.49 156.12 108.84 126.83 94.59 113.52 76.17 131.62"/>
      <path class="cls-3" d="M83.54,159.77l-.96-11.25,1.01-13.89-2.11-14.84-6.41,.32-.71,10.99-4.34,14.48,1.96,8.48s.4,.31,.52,.38c5.65-1.62,11.04,5.34,11.04,5.34Z"/>
      <path class="cls-23" d="M70,145.29s-13.37,13.22-32.44,31.94l28.63,28.29,27.53-53.01-23.72-7.23Z"/>
      <polygon class="cls-4" points="76.41 123.21 76.41 120.04 80.21 119.78 80.62 122.79 76.41 123.21"/>
      <rect class="cls-12" x="86.53" y="120.73" width="13.51" height=".69" transform="translate(-59.09 109.1) rotate(-47.9)"/>
      <rect class="cls-12" x="89.2" y="124.8" width="14.92" height=".69" transform="translate(-61.46 126.6) rotate(-52.85)"/>
      <rect class="cls-12" x="94.16" y="128.21" width="13.73" height=".69" transform="translate(-62.21 137.97) rotate(-55.14)"/>
      <g>
        <path class="cls-24" d="M128.36,102.8s11.32,20.65,10.38,28.77-1.61,6.57-1.61,6.57l28.95-15.92-7.36-17.6-30.35-1.83Z"/>
        <polygon class="cls-7" points="123.77 46.4 114.51 102.8 169.34 114.39 177.61 67.84 137.44 46.44 123.77 46.4"/>
        <polygon class="cls-25" points="141.4 27.86 122.98 36.04 110.59 54.06 123.47 65.51 132.52 57.99 129.79 66.67 164.69 80.36 141.4 27.86"/>
        <polygon class="cls-17" points="141.4 27.86 155.63 26.22 166.56 79.81 161.6 80.4 141.4 27.86"/>
        <polygon class="cls-24" points="157.88 80.4 169.48 78.32 168.22 95.16 157.88 96.64 157.88 80.4"/>
        <g>
          <path class="cls-24" d="M135.11,208.78s-5.21,6.72-8.45,8.43c-3.23,1.71-10.82-.14-10.82-.14l-11.52-53.11-12.55-23.34,17.62-9.99,5.55,17.71,3.43-6.2,3.42,2.9-5.6,8.58,1.06,4.47,17.86,50.7Z"/>
          <g>
            <line class="cls-24" x1="106.08" y1="133.41" x2="109.85" y2="143.52"/>
            <rect class="cls-12" x="107.62" y="132.72" width=".69" height="11.49" transform="translate(-41.58 46.46) rotate(-20.46)"/>
          </g>
          <g>
            <line class="cls-24" x1="100.65" y1="136.36" x2="105.69" y2="147.17"/>
            <rect class="cls-12" x="102.83" y="135.45" width=".69" height="12.63" transform="translate(-50.26 56.91) rotate(-25.01)"/>
          </g>
          <g>
            <line class="cls-24" x1="95.58" y1="139.31" x2="101.76" y2="148.89"/>
            <rect class="cls-12" x="98.32" y="138.05" width=".69" height="12.09" transform="translate(-62.37 76.51) rotate(-32.83)"/>
          </g>
        </g>
        <path class="cls-12" d="M116.97,85.6c-.05,0-.1-.01-.15-.03l-8.83-4.18c-.1-.04-.16-.13-.19-.23-.02-.1,0-.21,.07-.29l11.97-14.97c.1-.12,.27-.16,.41-.1,.14,.06,.23,.22,.2,.37l-3.14,19.15c-.02,.11-.08,.2-.18,.25-.05,.03-.1,.04-.16,.04Zm-8.29-4.65l8.02,3.8,2.86-17.4-10.88,13.6Z"/>
        <path class="cls-7" d="M137.13,138.15s-12.25,14.86-15.96,24.67-11.97,43.64-11.97,43.64l78.97-.02-10.92-92.6-40.12,24.31Z"/>
        <path class="cls-12" d="M158.71,90.44s-.06,0-.08,0c-.18-.05-.3-.23-.25-.42,.04-.15,.98-3.81,3.29-5.71,2.36-1.93,4.42-1.37,4.51-1.34,.18,.05,.29,.24,.24,.43-.05,.18-.24,.29-.43,.24-.07-.02-1.81-.48-3.88,1.21-2.13,1.75-3.04,5.3-3.05,5.34-.04,.16-.18,.26-.33,.26Z"/>
        <polygon class="cls-25" points="155.63 26.22 166.37 78.87 169.48 78.32 168.22 95.16 157.88 96.64 137.13 124.56 148.51 129.87 151.68 125.16 150.51 131.01 169.48 133.22 171.26 126.33 174.6 133.22 196.69 128.21 188.32 77.9 187.15 35.99 155.63 26.22"/>
        <path class="cls-23" d="M120.48,86.24l16.14-3.26-5.81,14.48c-.17,.42-.72,.51-1.02,.18l-9.56-10.64c-.24-.26-.1-.68,.25-.75Z"/>
        <path class="cls-12" d="M136.48,107.79c-.15,0-.29-.1-.33-.26-.03-.1-2.51-10.04,5.01-17.68,7.52-7.66,16.74-4.9,16.83-4.87,.18,.06,.28,.25,.23,.43-.06,.18-.25,.28-.43,.23-.09-.02-8.91-2.65-16.13,4.7-7.23,7.36-4.86,16.93-4.83,17.02,.05,.18-.06,.37-.25,.42-.03,0-.06,.01-.09,.01Z"/>
        <path class="cls-24" d="M147.22,149.14s7.06-4.74,10.66-5.35,10.23,3.53,10.23,3.53l2.14,59.13-26.1-.02,3.07-57.29Z"/>
      </g>
      <polygon class="cls-14" points="57.91 56.04 29.24 39.7 30.59 17.86 99.2 15.8 126.85 25.6 100.95 58.49 65.96 60.76 56.17 71.96 57.91 56.04"/>
      <polygon class="cls-1" points="65.44 71.29 106.03 64.96 104.5 81.81 108.95 96.51 104.32 100.59 114.6 111.4 96.13 104.34 67.43 107.57 62.87 85.67 65.44 71.29"/>
      <g>
        <polygon class="cls-10" points="28.39 127.64 -.93 120.52 -11.44 146.98 26.57 145.72 28.39 127.64"/>
        <polygon class="cls-5" points="48.64 59.98 20.03 39.65 -26.7 57.87 -24.58 112.43 4.43 125.68 3.37 96.6 32.5 71.87 49.03 80.07 48.64 59.98"/>
        <g>
          <polygon class="cls-10" points="4.22 97.49 -4.81 94.29 -5.76 109.13 4.22 111.12 4.22 97.49"/>
          <path class="cls-12" d="M4,105.44L-.27,100.05l-2.55-1.07,.27-.65,2.63,1.1c.06,.02,.1,.06,.14,.11l4.32,5.46-.55,.44Z"/>
        </g>
        <path class="cls-9" d="M31.39,145.39c8.1,17.6,36.6,61.35,36.6,61.35l-104.77-1.34,12.93-51.42,7.57-7.01,47.67-1.59Z"/>
        <path class="cls-23" d="M-3.28,179.52c-.25,6.88-.58,15.84-1.01,27.25l48.27-.35c-4.18-21.22-5.38-25.88-8.52-41.79-.86-4.37-8.76-17.19-21.28-13.98S-2.85,167.53-3.28,179.52Z"/>
        <path class="cls-3" d="M2.61,86.05l1.82,39.63,44.45,11.61c2.84,.74,5.56-1.57,5.27-4.49-1.27-12.97-4.23-43.13-5.11-52.73-9.46-4.7-18.93-9.39-28.39-14.09L2.61,86.05Z"/>
        <path class="cls-12" d="M35.33,134.08s-.02,0-.03,0c-.19-.02-.33-.17-.31-.36,0,0,0-.04,0-.04,.33-3.27,.63-14.3-9.63-18.97-4.87-2.22-12.42-3.64-20.7,2.22l-.24,.17c-.16,.11-.37,.07-.48-.09s-.07-.37,.09-.48l.24-.17c8.54-6.05,16.34-4.58,21.38-2.29,10.68,4.86,10.38,16.28,10.03,19.66-.02,.18-.17,.33-.35,.33Z"/>
        <polygon class="cls-2" points="45.12 77.96 27.14 81.8 26.76 77.24 44.48 75.62 45.12 77.96"/>
        <g>
          <path class="cls-9" d="M49.46,84.74c.61,7.64,1.82,22.92,1.82,22.92l6.97-.62s-.03-16.67-8.78-22.3Z"/>
          <path class="cls-12" d="M51.27,108.03c-.09,0-.17-.03-.24-.09-.07-.06-.12-.15-.13-.25l-1.82-22.92c-.01-.14,.06-.27,.18-.34,.12-.07,.27-.07,.39,0,8.81,5.68,8.95,21.92,8.95,22.61,0,.19-.14,.35-.33,.36l-6.97,.62s-.02,0-.03,0Zm-1.39-22.54l1.73,21.78,6.26-.55c-.07-2.3-.76-15.87-7.99-21.23Z"/>
        </g>
        <polygon class="cls-23" points="40.7 121.93 34.86 112.15 47.51 114.81 40.7 121.93"/>
        <g>
          <path class="cls-19" d="M37.46,89.94c-1.48,1.46-.83,3.82-.66,4.42,.19,.68,.72,2.58,2.28,2.98,1.1,.29,2.04-.34,2.09-.37,1.52-1.05,1.22-3.48,1.11-4.32-.14-1.08-.37-2.99-1.78-3.54-1.08-.42-2.33,.14-3.04,.83Z"/>
          <path class="cls-5" d="M32.01,92.83c.99-.76,1.35-1.81,4.95-2.99s7.95,1.72,7.95,1.72l.5-.82s-3.87-2.78-7.69-2.18c-3.82,.6-5.54,2.53-6.44,3.27l.73,1Z"/>
          <polygon class="cls-5" points="30.69 89.86 31.28 91.84 32.82 90.85 30.69 89.86"/>
        </g>
        <g>
          <path class="cls-2" d="M47.38,59.72S15.96,87.08,.28,101.62c-.04-9.85-.15-19.79-.33-29.81-.07-3.64-.14-7.26-.22-10.87,15.89-.4,31.77-.8,47.66-1.21Z"/>
          <rect class="cls-2" x="-28.35" y="60.35" width="76.95" height=".72" transform="translate(-1.28 .23) rotate(-1.21)"/>
          <rect class="cls-5" x="-14.91" y="78.53" width="44.84" height=".72" transform="translate(-70.15 63.11) rotate(-73.09)"/>
          <polygon class="cls-5" points="1.36 99.81 .79 99.38 1 99.09 31.63 58.3 32.21 58.73 31.99 59.02 1.36 99.81"/>
        </g>
      </g>
    </g>
    <g>
      <polygon class="cls-13" points="73.7 77.53 96.01 77.21 98.3 98.96 71.95 99.29 73.7 77.53"/>
      <g>
        <polygon class="cls-22" points="96.93 86.02 100.85 85.17 100.99 91.33 97.49 91.33 96.93 86.02"/>
        <path class="cls-1" d="M97.32,89.44l-.15-.07,.03-.07s.54-1.17,1.15-1.77c.61-.6,1.47-.95,1.5-.96l.08-.03,.06,.15-.08,.03s-.86,.35-1.45,.93c-.59,.58-1.12,1.71-1.12,1.72l-.03,.07Z"/>
      </g>
      <g>
        <polygon class="cls-22" points="73.01 86.27 69.09 85.42 68.95 91.58 72.57 91.58 73.01 86.27"/>
        <path class="cls-1" d="M72.62,89.69l-.03-.07s-.53-1.14-1.12-1.72c-.59-.58-1.44-.92-1.45-.93l-.08-.03,.06-.15,.08,.03s.89,.36,1.5,.96c.61,.6,1.13,1.72,1.15,1.76l.03,.07-.15,.07Z"/>
      </g>
      <path class="cls-5" d="M96.93,86.02l2.78-.61,.84-12.66s-20.93-3.87-21.76-4.14-1.59-.65-2.16-.9-1.82-.96-1.82-.96l1.6,2.95-6.71,5.78,1.28,10.34,2.03,.44,.69-8.74,22.31-.33,.93,8.82Z"/>
      <polygon class="cls-5" points="94.29 83.86 94.67 82.15 90.32 82.15 89.69 83.19 94.29 83.86"/>
      <polygon class="cls-5" points="74.82 83.23 74.54 81.51 78.88 81.78 79.45 82.85 74.82 83.23"/>
      <path class="cls-1" d="M79.72,91.44s-.05-.01-.06-.03c-.02-.02-.02-.04-.02-.07l.63-2.81s.03-.06,.06-.06l1.52-.29,.03-4.67s.04-.08,.08-.08h3.2s.08,.04,.08,.08v7.61s-.03,.08-.08,.08l-5.45,.23h0Zm.7-2.82l-.6,2.65,5.26-.22v-7.45h-3.04l-.03,4.66s-.03,.07-.07,.08l-1.53,.29Zm1.51-.37h0Z"/>
      <path class="cls-5" d="M78.9,88.21l-.07-.14s-.47-.9-1.79-1.01c-1.3-.08-1.85,.96-1.87,1.01l-.07,.14-.29-.14,.07-.14s.66-1.31,2.19-1.18c1.51,.12,2.03,1.14,2.06,1.18l.07,.14-.29,.14Z"/>
      <path class="cls-5" d="M93.87,88.21l-.07-.14s-.47-.9-1.79-1.01c-1.3-.08-1.85,.96-1.87,1.01l-.07,.14-.29-.14,.07-.14s.66-1.31,2.19-1.18c1.51,.12,2.03,1.14,2.06,1.18l.07,.14-.29,.14Z"/>
      <polygon class="cls-5" points="72.14 94.3 74.55 97.37 94.72 97.25 97.78 93.07 98.59 99.18 87.83 99.51 87.83 100.76 83.16 100.76 82.61 99.58 71.74 99.44 72.14 94.3"/>
      <path class="cls-23" d="M82.84,94.3l3.05-.3s-.08,1.41-1.37,1.47-1.68-1.17-1.68-1.17Z"/>
      <path class="cls-1" d="M90.81,97.35s-.06-.02-.07-.05c-.01-.03-1.37-3.43,1.18-6,2.55-2.57,5.37-1.32,5.4-1.3,.04,.02,.06,.07,.04,.11-.02,.04-.07,.06-.11,.04-.03-.01-2.75-1.21-5.22,1.27-2.47,2.49-1.16,5.79-1.15,5.82,.02,.04,0,.09-.04,.11-.01,0-.02,0-.03,0Z"/>
      <path class="cls-1" d="M77.98,97.43h0s-.08-.04-.08-.08c0-.03,.07-2.87-1.44-4.52-1.52-1.66-3.8-2.25-3.82-2.25-.04-.01-.07-.05-.06-.1,.01-.04,.05-.07,.1-.06,.02,0,2.35,.61,3.9,2.3,1.55,1.7,1.48,4.6,1.48,4.63,0,.04-.04,.08-.08,.08Z"/>
      <polygon class="cls-5" points="76.63 92.94 80.93 90.23 83.9 90.74 87.13 89.99 91.16 92.95 84.88 93.4 83.9 92.33 82.88 93.52 76.63 92.94"/>
    </g>
    <g>
      <path class="cls-21" d="M90.75,11.22l-14.47-6.27-13.5,10.73,2.14,22.04-7.17,10.17s10.17,8.47,22.25,6.92c12.08-1.55,21.34-7.64,21.34-7.64l-6.71-13.4-3.88-22.54Z"/>
      <path class="cls-1" d="M83.12,54.43c-.08,0-.16-.06-.16-.15l-1.57-16.29c0-.09,.06-.17,.15-.18,.1,0,.17,.06,.18,.15l1.57,16.29c0,.09-.06,.17-.15,.18,0,0-.01,0-.02,0Z"/>
      <g>
        <path class="cls-1" d="M83.53,36.4c-.4-1.14-3.81-.42-4.01,.64s1.16,2.34,2.48,2.04,1.92-1.54,1.53-2.68Z"/>
        <polygon class="cls-15" points="79.54 36.97 79.84 38.05 76.61 38.52 79.54 36.97"/>
        <polygon class="cls-15" points="79.81 38.02 80.59 38.83 77.97 40.78 79.81 38.02"/>
        <polygon class="cls-15" points="80.49 38.78 81.57 39.08 80.31 42.09 80.49 38.78"/>
        <polygon class="cls-15" points="81.57 39.09 82.65 38.79 83.12 42.02 81.57 39.09"/>
        <polygon class="cls-15" points="82.66 38.79 83.42 37.96 85.54 40.43 82.66 38.79"/>
        <polygon class="cls-15" points="83.42 37.96 83.63 36.86 86.74 37.85 83.42 37.96"/>
        <polygon class="cls-15" points="83.61 36.86 83.52 35.74 86.78 35.87 83.61 36.86"/>
      </g>
      <polygon class="cls-3" points="91.2 16.82 68.09 19.79 70.12 38.29 93.32 35.54 91.2 16.82"/>
      <path class="cls-20" d="M67.22,14.59l.73,5.71,23.57-3.02-.78-6.06s-5.96,.06-11.53,.78-11.99,2.59-11.99,2.59Z"/>
      <path class="cls-11" d="M77.17,20.91l.23,1.76s-1.81,.15-3.66-.04c-1.85-.19-4.12-1-4.12-1l-.29-2.26s2.92,.86,3.96,1.06c1.05,.21,3.89,.48,3.89,.48Z"/>
      <path class="cls-11" d="M83.67,20.42l.24,1.85,6.69-2.26-.46-1.85s-2.21,.57-3.35,.97-3.12,1.29-3.12,1.29Z"/>
      <path class="cls-12" d="M76.8,37.64c-.08,0-.16-.06-.16-.15,0-.03-.25-2.63-2.37-4.09-2.13-1.47-4.6-.97-4.62-.96-.08,.01-.18-.04-.19-.13-.02-.09,.04-.18,.13-.2,.11-.02,2.62-.54,4.88,1.02,2.26,1.56,2.51,4.23,2.52,4.34,0,.09-.06,.17-.15,.18h-.01Z"/>
      <path class="cls-12" d="M87.24,36.15c-.09,0-.16-.07-.16-.16,0-.12,0-2.91,1.89-4.66,1.9-1.75,3.42-1.7,3.48-1.69,.09,0,.16,.08,.16,.17,0,.09-.08,.15-.17,.16-.02,0-1.46-.05-3.24,1.61-1.79,1.66-1.78,4.39-1.78,4.42,0,.09-.07,.17-.16,.17h0Z"/>
      <path class="cls-23" d="M80.97,34.83l-.16-.05s-1.21-.36-2.2-1.53c-.98-1.15-1.34-2.2-1.35-2.24l-.05-.16,.31-.1,.05,.16s.36,1.03,1.29,2.14c.92,1.09,2.03,1.42,2.04,1.42l.16,.05-.09,.32Z"/>
      <g>
        <path class="cls-19" d="M85.78,26.58l-.18-.06,.03-.09c.15-.46,.53-1.34,1.43-1.96,1.46-1.02,3.12-.56,3.43-.46l.09,.03-.06,.18-.09-.03c-.3-.1-1.88-.54-3.27,.43-.85,.59-1.22,1.42-1.36,1.86l-.03,.09Z"/>
        <polygon class="cls-19" points="90.15 23.98 89.97 23.93 90.3 22.86 90.48 22.92 90.15 23.98"/>
        <polygon class="cls-19" points="89.33 23.93 89.21 22.86 89.4 22.84 89.51 23.91 89.33 23.93"/>
        <path class="cls-19" d="M87.99,24.23c.7,.09,1,.86,1.08,1.06,.09,.22,.33,.84-.01,1.27-.24,.3-.62,.32-.64,.32-.62,.03-1.04-.69-1.18-.94-.18-.32-.51-.89-.24-1.32,.21-.33,.66-.44,.99-.39Z"/>
      </g>
      <g>
        <path class="cls-19" d="M77.36,27.08l-.05-.08c-.24-.4-.79-1.12-1.75-1.5-1.58-.62-3.01,.17-3.28,.33l-.08,.05-.1-.16,.08-.05c.28-.17,1.78-1,3.45-.35,1.01,.4,1.59,1.16,1.84,1.58l.05,.08-.16,.1Z"/>
        <polygon class="cls-19" points="72.51 25.56 71.94 24.6 72.1 24.5 72.67 25.47 72.51 25.56"/>
        <polygon class="cls-19" points="73.12 25.34 72.98 24.27 73.16 24.25 73.3 25.32 73.12 25.34"/>
        <path class="cls-19" d="M74.67,25.3c-.66,.25-.77,1.07-.8,1.28-.03,.24-.13,.9,.3,1.23,.3,.24,.68,.17,.7,.17,.61-.12,.85-.92,.93-1.19,.1-.35,.29-.98-.07-1.34-.28-.28-.74-.27-1.05-.15Z"/>
      </g>
      <g>
        <path class="cls-8" d="M81.57,21.94l-.07,7.81c1.53-.08,3.06-.16,4.59-.25-1.51-2.52-3.02-5.04-4.52-7.56Z"/>
        <path class="cls-12" d="M81.5,29.87s-.06-.01-.09-.03c-.02-.02-.04-.06-.04-.09l.07-7.81c0-.06,.04-.1,.09-.12,.06-.01,.11,0,.14,.06l4.52,7.56s.02,.08,0,.12c-.02,.04-.06,.06-.1,.07l-4.59,.25h0Zm.19-7.49l-.07,7.24,4.26-.23-4.19-7.01Z"/>
      </g>
    </g>
    <path class="cls-1" d="M112.99,20.05c.97,1.3,1.24,2.9,.83,4.8-.38,1.75-1.25,2.98-2.61,3.71-1.36,.72-2.97,.89-4.85,.49l-.6,2.06-4.18-.92,1-5.21,1.67,.37c1.43,.31,2.56,.38,3.39,.19,.83-.19,1.35-.74,1.55-1.67,.14-.65,.08-1.2-.19-1.65s-.72-.74-1.35-.88c-.67-.15-1.23-.07-1.69,.23-.45,.3-.75,.77-.9,1.42l-4.48-.99c.21-1.14,.67-2.11,1.38-2.91,.71-.8,1.63-1.35,2.76-1.66,1.13-.31,2.41-.3,3.84,.01,1.99,.44,3.47,1.31,4.43,2.61Zm-12.74,16.66c-.42-.61-.55-1.28-.39-2s.57-1.31,1.2-1.69c.64-.39,1.38-.49,2.21-.3,.82,.18,1.43,.58,1.85,1.2,.42,.62,.55,1.3,.38,2.04s-.56,1.27-1.19,1.65-1.36,.47-2.18,.29c-.84-.18-1.46-.58-1.88-1.19Z"/>
  </g>
</svg>