<?xml version="1.0" encoding="UTF-8"?>
<svg id="Layer_2" data-name="Layer 2" xmlns="http://www.w3.org/2000/svg" xmlns:xlink="http://www.w3.org/1999/xlink" viewBox="0 0 195.67 284.38">
  <defs>
    <style>
      .cls-1 {
        fill: #fff;
      }

      .cls-2 {
        fill: #181216;
      }

      .cls-3 {
        fill: #ef9d7f;
      }

      .cls-4 {
        fill: #ffb69f;
      }

      .cls-5 {
        fill: #363636;
      }

      .cls-6 {
        fill: #ffd550;
      }

      .cls-7 {
        fill: #eeb2ff;
      }

      .cls-8 {
        fill: #fac300;
      }

      .cls-9 {
        fill: #f55;
      }

      .cls-10 {
        fill: #e58e73;
      }

      .cls-11 {
        fill: #333;
      }

      .cls-12 {
        fill: #f80500;
      }

      .cls-13 {
        fill: #ab7a5a;
      }

      .cls-14 {
        fill: #e64c00;
      }

      .cls-15 {
        fill: #f4ae32;
      }

      .cls-16 {
        clip-path: url(#clippath);
      }

      .cls-17 {
        fill: #ff8cb7;
      }

      .cls-18 {
        fill: none;
      }

      .cls-19 {
        fill: #353535;
      }

      .cls-20 {
        fill: #474747;
      }

      .cls-21 {
        fill: #515151;
      }

      .cls-22 {
        fill: #9e6647;
      }

      .cls-23 {
        fill: #b72c2c;
      }

      .cls-24 {
        fill: #e08bfc;
      }

      .cls-25 {
        fill: #d46cff;
      }

      .cls-26 {
        fill: #d38871;
      }
    </style>
    <clipPath id="clippath">
      <path class="cls-18" d="M165.61,25.27H33.68c-7.9,0-14.3,6.4-14.3,14.3V209.81c0,7.9,6.4,14.3,14.3,14.3H165.61c7.9,0,14.3-6.4,14.3-14.3V39.57c0-7.9-6.4-14.3-14.3-14.3Z"/>
    </clipPath>
  </defs>
  <path class="cls-25" d="M173.11,18.1H26.18c-7.29,0-13.2,5.91-13.2,13.2V251.39c0,7.29,5.91,13.2,13.2,13.2H173.11c7.29,0,13.2-5.91,13.2-13.2V31.31c0-7.29-5.91-13.2-13.2-13.2ZM95.87,146.33s-.08,.03-.13,.05c0,0,0,0,0,0-.16,.08-.32,.15-.49,.23-.46,.21-.92,.41-1.41,.54-.18,.05-.36,.06-.54,.06-.81,.22-1.63,.27-2.48,.15-.37-.05-.69-.29-.92-.59-.5-.11-.91-.43-1.17-.84-.15,.04-.31,.08-.47,.08-.02,0-.02,0-.04,0-.1,.02-.2,.04-.31,.06-.06,.02-.12,.05-.18,.08-.26,.1-.53,.1-.79,.06-.04,0-.08,0-.11,.01-.84,.03-1.55-.6-1.79-1.36-.26-.79,.18-1.68,.85-2.1,.88-.55,1.8-1.03,2.75-1.47,.75-.4,1.52-.74,2.33-.98,0,0,0,0,.01,0,.15-.4,.42-.74,.8-1,.65-.44,1.3-.8,2.07-1,.82-.22,1.65,.15,2.1,.85,.4,.63,.31,1.67-.24,2.2,.02,.11,.03,.22,.05,.33,.32,.16,.6,.4,.8,.72,.17,.26,.24,.54,.25,.83,.1,.13,.19,.26,.25,.41,.09,.22,.14,.47,.14,.72,0,.07,.02,.13,.02,.2,.04,.85-.62,1.53-1.36,1.79Zm21.94-9.62c-.37,.4-1.03,.61-1.61,.53-.2,.21-.45,.38-.72,.48-.11,.53-.43,1.02-.88,1.31-.88,.57-2,.14-2.54-.67-.21-.31-.42-.62-.64-.92-.08-.11-.15-.21-.23-.32-.63-.71-1.2-1.46-1.77-2.22-.19-.26-.27-.56-.26-.87-.41-.55-.83-1.09-1.27-1.6-.68-.79-.72-1.84,0-2.63,.56-.61,1.63-.71,2.32-.26-.48-.64-.95-1.29-1.4-1.96-.58-.86-.14-2.02,.67-2.54,.88-.57,2-.14,2.54,.67,1.98,2.95,4.4,5.6,6.09,8.73,.41,.75,.28,1.63-.29,2.25Z"/>
  <g>
    <path class="cls-1" d="M34.99,236.3v2.6h-3.37v10.71h-3.1v-10.71h-3.37v-2.6h9.84Z"/>
    <path class="cls-1" d="M37.43,241.44c.39-.82,.93-1.45,1.6-1.9,.68-.44,1.43-.66,2.27-.66,.71,0,1.34,.15,1.88,.46,.54,.3,.95,.7,1.24,1.19v-1.5h3.1v10.58h-3.1v-1.5c-.3,.49-.72,.89-1.26,1.19-.54,.3-1.16,.46-1.88,.46-.82,0-1.57-.22-2.25-.67-.68-.45-1.21-1.09-1.6-1.92s-.59-1.79-.59-2.87,.2-2.04,.59-2.86Zm6.35,.97c-.43-.47-.95-.7-1.57-.7s-1.14,.23-1.57,.69c-.43,.46-.64,1.1-.64,1.91s.21,1.45,.64,1.92c.43,.47,.95,.71,1.57,.71s1.14-.23,1.57-.7c.43-.47,.64-1.11,.64-1.92s-.21-1.45-.64-1.92Z"/>
    <path class="cls-1" d="M53.77,235.58v14.03h-3.1v-14.03h3.1Z"/>
    <path class="cls-1" d="M63.11,249.61l-3.08-4.44v4.44h-3.1v-14.03h3.1v7.75l3.06-4.3h3.83l-4.21,5.31,4.24,5.27h-3.84Z"/>
    <path class="cls-1" d="M79.43,246.86v2.75h-1.58c-1.12,0-2-.29-2.63-.86-.63-.58-.94-1.51-.94-2.82v-4.21h-1.23v-2.69h1.23v-2.58h3.1v2.58h2.03v2.69h-2.03v4.25c0,.32,.07,.54,.22,.68,.15,.14,.39,.21,.73,.21h1.11Z"/>
    <path class="cls-1" d="M83.99,249.1c-.79-.44-1.41-1.07-1.87-1.9-.45-.82-.68-1.78-.68-2.88s.23-2.04,.69-2.87,1.09-1.46,1.89-1.91c.8-.44,1.69-.66,2.68-.66s1.89,.22,2.68,.66c.8,.44,1.43,1.08,1.89,1.91,.46,.83,.69,1.79,.69,2.87s-.23,2.04-.7,2.87c-.46,.83-1.1,1.46-1.9,1.91s-1.7,.66-2.69,.66-1.88-.22-2.67-.66Zm4.19-2.83c.42-.46,.63-1.11,.63-1.95s-.2-1.5-.61-1.95c-.41-.46-.9-.68-1.5-.68s-1.11,.22-1.5,.67c-.4,.45-.6,1.1-.6,1.96s.2,1.5,.59,1.95,.89,.68,1.48,.68,1.1-.23,1.51-.68Z"/>
    <path class="cls-1" d="M103.61,239.34c.53-.3,1.15-.46,1.87-.46,.83,0,1.59,.22,2.27,.66,.68,.44,1.21,1.08,1.6,1.9s.59,1.78,.59,2.86-.2,2.04-.59,2.87-.93,1.47-1.6,1.92c-.68,.45-1.43,.67-2.27,.67-.7,0-1.32-.15-1.86-.46-.54-.3-.96-.69-1.26-1.17v6.52h-3.1v-15.62h3.1v1.5c.3-.49,.72-.89,1.25-1.19Zm2.53,3.06c-.43-.46-.96-.69-1.59-.69s-1.14,.23-1.57,.7c-.43,.47-.64,1.11-.64,1.92s.21,1.45,.64,1.92c.43,.47,.95,.7,1.57,.7s1.14-.24,1.58-.71c.43-.47,.65-1.12,.65-1.92s-.21-1.44-.64-1.91Z"/>
    <path class="cls-1" d="M121.96,245.1h-7.02c.05,.66,.25,1.16,.61,1.51,.36,.35,.79,.52,1.31,.52,.77,0,1.31-.34,1.61-1.02h3.3c-.17,.7-.47,1.32-.92,1.88-.44,.56-.99,.99-1.66,1.31-.66,.32-1.41,.47-2.23,.47-.99,0-1.87-.22-2.65-.66-.77-.44-1.38-1.07-1.81-1.9-.43-.82-.65-1.78-.65-2.88s.21-2.06,.64-2.88c.43-.82,1.03-1.45,1.8-1.9,.77-.44,1.66-.66,2.67-.66s1.85,.21,2.61,.64,1.36,1.04,1.79,1.84c.43,.8,.64,1.73,.64,2.79,0,.3-.02,.62-.05,.95Zm-3.12-1.8c0-.56-.18-1-.54-1.33-.36-.33-.82-.49-1.36-.49s-.96,.16-1.31,.47c-.36,.32-.58,.76-.66,1.35h3.88Z"/>
    <path class="cls-1" d="M126.48,249.1c-.79-.44-1.41-1.07-1.87-1.9-.45-.82-.68-1.78-.68-2.88s.23-2.04,.69-2.87,1.09-1.46,1.89-1.91c.8-.44,1.69-.66,2.68-.66s1.89,.22,2.68,.66c.8,.44,1.43,1.08,1.89,1.91,.46,.83,.69,1.79,.69,2.87s-.23,2.04-.7,2.87c-.46,.83-1.1,1.46-1.9,1.91s-1.7,.66-2.69,.66-1.88-.22-2.67-.66Zm4.19-2.83c.42-.46,.63-1.11,.63-1.95s-.2-1.5-.61-1.95c-.41-.46-.9-.68-1.5-.68s-1.11,.22-1.5,.67c-.4,.45-.6,1.1-.6,1.96s.2,1.5,.59,1.95,.89,.68,1.48,.68,1.1-.23,1.51-.68Z"/>
    <path class="cls-1" d="M141.35,239.34c.53-.3,1.15-.46,1.87-.46,.83,0,1.59,.22,2.27,.66,.68,.44,1.21,1.08,1.6,1.9s.59,1.78,.59,2.86-.2,2.04-.59,2.87-.93,1.47-1.6,1.92c-.68,.45-1.43,.67-2.27,.67-.7,0-1.32-.15-1.86-.46-.54-.3-.96-.69-1.26-1.17v6.52h-3.1v-15.62h3.1v1.5c.3-.49,.72-.89,1.25-1.19Zm2.53,3.06c-.43-.46-.96-.69-1.59-.69s-1.14,.23-1.57,.7c-.43,.47-.64,1.11-.64,1.92s.21,1.45,.64,1.92c.43,.47,.95,.7,1.57,.7s1.14-.24,1.58-.71c.43-.47,.65-1.12,.65-1.92s-.21-1.44-.64-1.91Z"/>
    <path class="cls-1" d="M153.32,235.58v14.03h-3.1v-14.03h3.1Z"/>
    <path class="cls-1" d="M165.95,245.1h-7.02c.05,.66,.25,1.16,.61,1.51,.36,.35,.79,.52,1.31,.52,.77,0,1.31-.34,1.61-1.02h3.3c-.17,.7-.47,1.32-.92,1.88-.44,.56-.99,.99-1.66,1.31-.66,.32-1.41,.47-2.23,.47-.99,0-1.87-.22-2.65-.66-.77-.44-1.38-1.07-1.81-1.9-.43-.82-.65-1.78-.65-2.88s.21-2.06,.64-2.88c.43-.82,1.03-1.45,1.8-1.9,.77-.44,1.66-.66,2.67-.66s1.85,.21,2.61,.64,1.36,1.04,1.79,1.84c.43,.8,.64,1.73,.64,2.79,0,.3-.02,.62-.05,.95Zm-3.12-1.8c0-.56-.18-1-.54-1.33-.36-.33-.82-.49-1.36-.49s-.96,.16-1.31,.47c-.36,.32-.58,.76-.66,1.35h3.88Z"/>
    <path class="cls-1" d="M169.66,249.26c-.34-.33-.52-.75-.52-1.24s.17-.93,.52-1.27c.34-.34,.79-.51,1.33-.51s.97,.17,1.31,.51c.34,.34,.52,.77,.52,1.27s-.17,.91-.52,1.24-.78,.5-1.31,.5-.99-.17-1.33-.5Zm2.96-13.43l-.36,9.08h-2.63l-.36-9.08h3.35Z"/>
  </g>
  <path class="cls-6" d="M165.61,25.27H33.68c-7.9,0-14.3,6.4-14.3,14.3V209.81c0,7.9,6.4,14.3,14.3,14.3H165.61c7.9,0,14.3-6.4,14.3-14.3V39.57c0-7.9-6.4-14.3-14.3-14.3Z"/>
  <g class="cls-16">
    <g>
      <polygon class="cls-26" points="89.24 149.26 83.36 162.93 102.56 173.76 121.91 144.48 107.66 131.17 89.24 149.26"/>
      <path class="cls-3" d="M96.61,177.42l-.96-11.25,1.01-13.89-2.11-14.84-6.41,.32-.71,10.99-4.34,14.48,1.96,8.48s.4,.31,.52,.38c5.65-1.62,11.04,5.34,11.04,5.34Z"/>
      <path class="cls-23" d="M83.06,162.93s-13.37,13.22-32.44,31.94l28.63,28.29,27.53-53.01-23.72-7.23Z"/>
      <polygon class="cls-4" points="89.47 140.86 89.47 137.68 93.28 137.43 93.68 140.44 89.47 140.86"/>
      <rect class="cls-12" x="99.59" y="138.37" width="13.51" height=".69" transform="translate(-67.87 124.61) rotate(-47.9)"/>
      <rect class="cls-12" x="102.27" y="142.44" width="14.92" height=".69" transform="translate(-70.35 144.01) rotate(-52.85)"/>
      <rect class="cls-12" x="107.22" y="145.86" width="13.73" height=".69" transform="translate(-71.09 156.26) rotate(-55.14)"/>
      <g>
        <path class="cls-24" d="M141.43,120.45s11.32,20.65,10.38,28.77-1.61,6.57-1.61,6.57l28.95-15.92-7.36-17.6-30.35-1.83Z"/>
        <polygon class="cls-7" points="136.83 64.04 127.57 120.45 182.41 132.04 190.67 85.49 150.51 64.08 136.83 64.04"/>
        <polygon class="cls-25" points="154.47 45.51 136.05 53.68 123.65 71.71 136.54 83.15 145.59 75.64 142.86 84.31 177.76 98.01 154.47 45.51"/>
        <polygon class="cls-17" points="154.47 45.51 168.69 43.87 179.63 97.46 174.67 98.04 154.47 45.51"/>
        <polygon class="cls-24" points="170.95 98.04 182.54 95.97 181.28 112.81 170.95 114.28 170.95 98.04"/>
        <g>
          <path class="cls-24" d="M148.18,226.43s-5.21,6.72-8.45,8.43c-3.23,1.71-10.82-.14-10.82-.14l-11.52-53.11-12.55-23.34,17.62-9.99,5.55,17.71,3.43-6.2,3.42,2.9-5.6,8.58,1.06,4.47,17.86,50.7Z"/>
          <g>
            <line class="cls-24" x1="119.15" y1="151.06" x2="122.92" y2="161.17"/>
            <rect class="cls-12" x="120.69" y="150.37" width=".69" height="11.49" transform="translate(-46.93 52.14) rotate(-20.46)"/>
          </g>
          <g>
            <line class="cls-24" x1="113.71" y1="154.01" x2="118.76" y2="164.82"/>
            <rect class="cls-12" x="115.89" y="153.1" width=".69" height="12.63" transform="translate(-56.5 64.09) rotate(-25.01)"/>
          </g>
          <g>
            <line class="cls-24" x1="108.65" y1="156.95" x2="114.83" y2="166.53"/>
            <rect class="cls-12" x="111.39" y="155.7" width=".69" height="12.09" transform="translate(-69.85 86.42) rotate(-32.83)"/>
          </g>
        </g>
        <path class="cls-12" d="M130.03,103.25c-.05,0-.1-.01-.15-.03l-8.83-4.18c-.1-.04-.16-.13-.19-.23-.02-.1,0-.21,.07-.29l11.97-14.97c.1-.12,.27-.16,.41-.1,.14,.06,.23,.22,.2,.37l-3.14,19.15c-.02,.11-.08,.2-.18,.25-.05,.03-.1,.04-.16,.04Zm-8.29-4.65l8.02,3.8,2.86-17.4-10.88,13.6Z"/>
        <path class="cls-7" d="M150.2,155.8s-12.25,14.86-15.96,24.67-11.97,43.64-11.97,43.64l78.97-.02-10.92-92.6-40.12,24.31Z"/>
        <path class="cls-12" d="M171.78,108.09s-.06,0-.08,0c-.18-.05-.3-.23-.25-.42,.04-.15,.98-3.81,3.29-5.71,2.36-1.93,4.42-1.37,4.51-1.34,.18,.05,.29,.24,.24,.43-.05,.18-.24,.29-.43,.24-.07-.02-1.81-.48-3.88,1.21-2.13,1.75-3.04,5.3-3.05,5.34-.04,.16-.18,.26-.33,.26Z"/>
        <polygon class="cls-25" points="168.69 43.87 179.44 96.52 182.54 95.97 181.28 112.81 170.95 114.28 150.2 142.21 161.57 147.52 164.75 142.81 163.58 148.66 182.54 150.86 184.32 143.97 187.67 150.86 209.75 145.86 201.39 95.55 200.22 53.64 168.69 43.87"/>
        <path class="cls-23" d="M133.55,103.89l16.14-3.26-5.81,14.48c-.17,.42-.72,.51-1.02,.18l-9.56-10.64c-.24-.26-.1-.68,.25-.75Z"/>
        <path class="cls-12" d="M149.55,125.44c-.15,0-.29-.1-.33-.26-.03-.1-2.51-10.04,5.01-17.68,7.52-7.66,16.74-4.9,16.83-4.87,.18,.06,.28,.25,.23,.43-.06,.18-.25,.28-.43,.23-.09-.02-8.91-2.65-16.13,4.7-7.23,7.36-4.86,16.93-4.83,17.02,.05,.18-.06,.37-.25,.42-.03,0-.06,.01-.09,.01Z"/>
        <path class="cls-24" d="M160.29,166.79s7.06-4.74,10.66-5.35,10.23,3.53,10.23,3.53l2.14,59.13-26.1-.02,3.07-57.29Z"/>
      </g>
      <polygon class="cls-14" points="70.98 73.69 42.31 57.35 43.66 35.51 112.27 33.45 139.91 43.24 114.02 76.14 79.03 78.41 69.23 89.61 70.98 73.69"/>
      <polygon class="cls-1" points="78.51 88.93 119.09 82.61 117.56 99.46 122.01 114.16 117.38 118.24 127.67 129.05 109.19 121.99 80.5 125.22 75.94 103.31 78.51 88.93"/>
      <g>
        <polygon class="cls-10" points="41.45 145.29 12.14 138.17 1.63 164.63 39.63 163.37 41.45 145.29"/>
        <polygon class="cls-5" points="61.71 77.62 33.1 57.3 -13.64 75.52 -11.51 130.08 17.49 143.32 16.44 114.25 45.57 89.51 62.1 97.72 61.71 77.62"/>
        <g>
          <polygon class="cls-10" points="17.29 115.13 8.26 111.94 7.31 126.78 17.29 128.77 17.29 115.13"/>
          <path class="cls-12" d="M17.07,123.09l-4.26-5.39-2.55-1.07,.27-.65,2.63,1.1c.06,.02,.1,.06,.14,.11l4.32,5.46-.55,.44Z"/>
        </g>
        <path class="cls-9" d="M44.46,163.04c8.1,17.6,36.6,61.35,36.6,61.35l-104.77-1.34,12.93-51.42,7.57-7.01,47.67-1.59Z"/>
        <path class="cls-23" d="M9.78,197.17c-.25,6.88-.58,15.84-1.01,27.25l48.27-.35c-4.18-21.22-5.38-25.88-8.52-41.79-.86-4.37-8.76-17.19-21.28-13.98s-17.02,16.88-17.46,28.87Z"/>
        <path class="cls-3" d="M15.67,103.7l1.82,39.63,44.45,11.61c2.84,.74,5.56-1.57,5.27-4.49-1.27-12.97-4.23-43.13-5.11-52.73-9.46-4.7-18.93-9.39-28.39-14.09l-18.04,20.06Z"/>
        <path class="cls-12" d="M48.39,151.72s-.02,0-.03,0c-.19-.02-.33-.17-.31-.36,0,0,0-.04,0-.04,.33-3.27,.63-14.3-9.63-18.97-4.87-2.22-12.42-3.64-20.7,2.22l-.24,.17c-.16,.11-.37,.07-.48-.09s-.07-.37,.09-.48l.24-.17c8.54-6.05,16.34-4.58,21.38-2.29,10.68,4.86,10.38,16.28,10.03,19.66-.02,.18-.17,.33-.35,.33Z"/>
        <polygon class="cls-2" points="58.19 95.61 40.21 99.45 39.83 94.89 57.55 93.27 58.19 95.61"/>
        <g>
          <path class="cls-9" d="M62.53,102.39c.61,7.64,1.82,22.92,1.82,22.92l6.97-.62s-.03-16.67-8.78-22.3Z"/>
          <path class="cls-12" d="M64.34,125.67c-.09,0-.17-.03-.24-.09-.07-.06-.12-.15-.13-.25l-1.82-22.92c-.01-.14,.06-.27,.18-.34,.12-.07,.27-.07,.39,0,8.81,5.68,8.95,21.92,8.95,22.61,0,.19-.14,.35-.33,.36l-6.97,.62s-.02,0-.03,0Zm-1.39-22.54l1.73,21.78,6.26-.55c-.07-2.3-.76-15.87-7.99-21.23Z"/>
        </g>
        <polygon class="cls-23" points="53.77 139.58 47.92 129.8 60.58 132.46 53.77 139.58"/>
        <g>
          <path class="cls-19" d="M50.53,107.59c-1.48,1.46-.83,3.82-.66,4.42,.19,.68,.72,2.58,2.28,2.98,1.1,.29,2.04-.34,2.09-.37,1.52-1.05,1.22-3.48,1.11-4.32-.14-1.08-.37-2.99-1.78-3.54-1.08-.42-2.33,.14-3.04,.83Z"/>
          <path class="cls-5" d="M45.08,110.48c.99-.76,1.35-1.81,4.95-2.99s7.95,1.72,7.95,1.72l.5-.82s-3.87-2.78-7.69-2.18c-3.82,.6-5.54,2.53-6.44,3.27l.73,1Z"/>
          <polygon class="cls-5" points="43.76 107.51 44.35 109.48 45.88 108.5 43.76 107.51"/>
        </g>
        <g>
          <path class="cls-2" d="M60.45,77.37s-31.42,27.35-47.1,41.89c-.04-9.85-.15-19.79-.33-29.81-.07-3.64-.14-7.26-.22-10.87,15.89-.4,31.77-.8,47.66-1.21Z"/>
          <rect class="cls-2" x="-15.28" y="78" width="76.95" height=".72" transform="translate(-1.65 .51) rotate(-1.21)"/>
          <rect class="cls-5" x="-1.85" y="96.17" width="44.84" height=".72" transform="translate(-77.77 88.13) rotate(-73.09)"/>
          <polygon class="cls-5" points="14.43 117.45 13.85 117.02 14.07 116.74 44.7 75.95 45.27 76.38 45.06 76.67 14.43 117.45"/>
        </g>
      </g>
    </g>
    <g>
      <polygon class="cls-13" points="86.77 95.18 109.07 94.85 111.36 116.61 85.02 116.94 86.77 95.18"/>
      <g>
        <polygon class="cls-22" points="110 103.67 113.91 102.82 114.05 108.98 110.56 108.98 110 103.67"/>
        <path class="cls-1" d="M110.39,107.09l-.15-.07,.03-.07s.54-1.17,1.15-1.77c.61-.6,1.47-.95,1.5-.96l.08-.03,.06,.15-.08,.03s-.86,.35-1.45,.93c-.59,.58-1.12,1.71-1.12,1.72l-.03,.07Z"/>
      </g>
      <g>
        <polygon class="cls-22" points="86.07 103.92 82.16 103.06 82.02 109.23 85.64 109.23 86.07 103.92"/>
        <path class="cls-1" d="M85.69,107.34l-.03-.07s-.53-1.14-1.12-1.72c-.59-.58-1.44-.92-1.45-.93l-.08-.03,.06-.15,.08,.03s.89,.36,1.5,.96c.61,.6,1.13,1.72,1.15,1.76l.03,.07-.15,.07Z"/>
      </g>
      <path class="cls-5" d="M110,103.67l2.78-.61,.84-12.66s-20.93-3.87-21.76-4.14-1.59-.65-2.16-.9-1.82-.96-1.82-.96l1.6,2.95-6.71,5.78,1.28,10.34,2.03,.44,.69-8.74,22.31-.33,.93,8.82Z"/>
      <polygon class="cls-5" points="107.35 101.51 107.74 99.8 103.39 99.8 102.76 100.84 107.35 101.51"/>
      <polygon class="cls-5" points="87.89 100.88 87.61 99.15 91.95 99.43 92.52 100.5 87.89 100.88"/>
      <path class="cls-1" d="M92.79,109.09s-.05-.01-.06-.03c-.02-.02-.02-.04-.02-.07l.63-2.81s.03-.06,.06-.06l1.52-.29,.03-4.67s.04-.08,.08-.08h3.2s.08,.04,.08,.08v7.61s-.03,.08-.08,.08l-5.45,.23h0Zm.7-2.82l-.6,2.65,5.26-.22v-7.45h-3.04l-.03,4.66s-.03,.07-.07,.08l-1.53,.29Zm1.51-.37h0Z"/>
      <path class="cls-5" d="M91.97,105.86l-.07-.14s-.47-.9-1.79-1.01c-1.3-.08-1.85,.96-1.87,1.01l-.07,.14-.29-.14,.07-.14s.66-1.31,2.19-1.18c1.51,.12,2.03,1.14,2.06,1.18l.07,.14-.29,.14Z"/>
      <path class="cls-5" d="M106.94,105.86l-.07-.14s-.47-.9-1.79-1.01c-1.3-.08-1.85,.96-1.87,1.01l-.07,.14-.29-.14,.07-.14s.66-1.31,2.19-1.18c1.51,.12,2.03,1.14,2.06,1.18l.07,.14-.29,.14Z"/>
      <polygon class="cls-5" points="85.21 111.95 87.61 115.01 107.78 114.9 110.85 110.72 111.66 116.83 100.89 117.16 100.89 118.41 96.22 118.41 95.68 117.23 84.81 117.09 85.21 111.95"/>
      <path class="cls-23" d="M95.91,111.95l3.05-.3s-.08,1.41-1.37,1.47-1.68-1.17-1.68-1.17Z"/>
      <path class="cls-1" d="M103.87,115s-.06-.02-.07-.05c-.01-.03-1.37-3.43,1.18-6,2.55-2.57,5.37-1.32,5.4-1.3,.04,.02,.06,.07,.04,.11-.02,.04-.07,.06-.11,.04-.03-.01-2.75-1.21-5.22,1.27-2.47,2.49-1.16,5.79-1.15,5.82,.02,.04,0,.09-.04,.11-.01,0-.02,0-.03,0Z"/>
      <path class="cls-1" d="M91.05,115.08h0s-.08-.04-.08-.08c0-.03,.07-2.87-1.44-4.52-1.52-1.66-3.8-2.25-3.82-2.25-.04-.01-.07-.05-.06-.1,.01-.04,.05-.07,.1-.06,.02,0,2.35,.61,3.9,2.3,1.55,1.7,1.48,4.6,1.48,4.63,0,.04-.04,.08-.08,.08Z"/>
      <polygon class="cls-5" points="89.7 110.59 94 107.87 96.96 108.39 100.19 107.63 104.22 110.6 97.94 111.05 96.96 109.98 95.94 111.16 89.7 110.59"/>
    </g>
    <g>
      <path class="cls-21" d="M103.81,28.86l-14.47-6.27-13.5,10.73,2.14,22.04-7.17,10.17s10.17,8.47,22.25,6.92c12.08-1.55,21.34-7.64,21.34-7.64l-6.71-13.4-3.88-22.54Z"/>
      <path class="cls-1" d="M96.19,72.08c-.08,0-.16-.06-.16-.15l-1.57-16.29c0-.09,.06-.17,.15-.18,.1,0,.17,.06,.18,.15l1.57,16.29c0,.09-.06,.17-.15,.18,0,0-.01,0-.02,0Z"/>
      <g>
        <path class="cls-1" d="M96.59,54.05c-.4-1.14-3.81-.42-4.01,.64s1.16,2.34,2.48,2.04,1.92-1.54,1.53-2.68Z"/>
        <polygon class="cls-15" points="92.61 54.62 92.9 55.7 89.68 56.17 92.61 54.62"/>
        <polygon class="cls-15" points="92.88 55.66 93.65 56.47 91.04 58.42 92.88 55.66"/>
        <polygon class="cls-15" points="93.56 56.43 94.64 56.73 93.38 59.74 93.56 56.43"/>
        <polygon class="cls-15" points="94.64 56.74 95.72 56.44 96.19 59.67 94.64 56.74"/>
        <polygon class="cls-15" points="95.73 56.44 96.48 55.61 98.61 58.08 95.73 56.44"/>
        <polygon class="cls-15" points="96.49 55.61 96.7 54.5 99.8 55.5 96.49 55.61"/>
        <polygon class="cls-15" points="96.68 54.5 96.59 53.39 99.84 53.52 96.68 54.5"/>
      </g>
      <polygon class="cls-3" points="104.27 34.47 81.15 37.43 83.19 55.94 106.38 53.19 104.27 34.47"/>
      <path class="cls-20" d="M80.29,32.23l.73,5.71,23.57-3.02-.78-6.06s-5.96,.06-11.53,.78-11.99,2.59-11.99,2.59Z"/>
      <path class="cls-11" d="M90.23,38.55l.23,1.76s-1.81,.15-3.66-.04c-1.85-.19-4.12-1-4.12-1l-.29-2.26s2.92,.86,3.96,1.06c1.05,.21,3.89,.48,3.89,.48Z"/>
      <path class="cls-11" d="M96.74,38.07l.24,1.85,6.69-2.26-.46-1.85s-2.21,.57-3.35,.97-3.12,1.29-3.12,1.29Z"/>
      <path class="cls-12" d="M89.86,55.28c-.08,0-.16-.06-.16-.15,0-.03-.25-2.63-2.37-4.09-2.13-1.47-4.6-.97-4.62-.96-.08,.01-.18-.04-.19-.13-.02-.09,.04-.18,.13-.2,.11-.02,2.62-.54,4.88,1.02,2.26,1.56,2.51,4.23,2.52,4.34,0,.09-.06,.17-.15,.18h-.01Z"/>
      <path class="cls-12" d="M100.3,53.8c-.09,0-.16-.07-.16-.16,0-.12,0-2.91,1.89-4.66,1.9-1.75,3.42-1.7,3.48-1.69,.09,0,.16,.08,.16,.17,0,.09-.08,.15-.17,.16-.02,0-1.46-.05-3.24,1.61-1.79,1.66-1.78,4.39-1.78,4.42,0,.09-.07,.17-.16,.17h0Z"/>
      <path class="cls-23" d="M94.04,52.47l-.16-.05s-1.21-.36-2.2-1.53c-.98-1.15-1.34-2.2-1.35-2.24l-.05-.16,.31-.1,.05,.16s.36,1.03,1.29,2.14c.92,1.09,2.03,1.42,2.04,1.42l.16,.05-.09,.32Z"/>
      <g>
        <path class="cls-19" d="M98.85,44.23l-.18-.06,.03-.09c.15-.46,.53-1.34,1.43-1.96,1.46-1.02,3.12-.56,3.43-.46l.09,.03-.06,.18-.09-.03c-.3-.1-1.88-.54-3.27,.43-.85,.59-1.22,1.42-1.36,1.86l-.03,.09Z"/>
        <polygon class="cls-19" points="103.22 41.63 103.04 41.58 103.37 40.51 103.55 40.56 103.22 41.63"/>
        <polygon class="cls-19" points="102.39 41.58 102.28 40.5 102.47 40.48 102.58 41.56 102.39 41.58"/>
        <path class="cls-19" d="M101.06,41.88c.7,.09,1,.86,1.08,1.06,.09,.22,.33,.84-.01,1.27-.24,.3-.62,.32-.64,.32-.62,.03-1.04-.69-1.18-.94-.18-.32-.51-.89-.24-1.32,.21-.33,.66-.44,.99-.39Z"/>
      </g>
      <g>
        <path class="cls-19" d="M90.43,44.73l-.05-.08c-.24-.4-.79-1.12-1.75-1.5-1.58-.62-3.01,.17-3.28,.33l-.08,.05-.1-.16,.08-.05c.28-.17,1.78-1,3.45-.35,1.01,.4,1.59,1.16,1.84,1.58l.05,.08-.16,.1Z"/>
        <polygon class="cls-19" points="85.58 43.21 85.01 42.24 85.17 42.15 85.74 43.11 85.58 43.21"/>
        <polygon class="cls-19" points="86.19 42.99 86.05 41.92 86.23 41.89 86.37 42.97 86.19 42.99"/>
        <path class="cls-19" d="M87.74,42.95c-.66,.25-.77,1.07-.8,1.28-.03,.24-.13,.9,.3,1.23,.3,.24,.68,.17,.7,.17,.61-.12,.85-.92,.93-1.19,.1-.35,.29-.98-.07-1.34-.28-.28-.74-.27-1.05-.15Z"/>
      </g>
      <g>
        <path class="cls-8" d="M94.64,39.58l-.07,7.81c1.53-.08,3.06-.16,4.59-.25-1.51-2.52-3.02-5.04-4.52-7.56Z"/>
        <path class="cls-12" d="M94.57,47.52s-.06-.01-.09-.03c-.02-.02-.04-.06-.04-.09l.07-7.81c0-.06,.04-.1,.09-.12,.06-.01,.11,0,.14,.06l4.52,7.56s.02,.08,0,.12c-.02,.04-.06,.06-.1,.07l-4.59,.25h0Zm.19-7.49l-.07,7.24,4.26-.23-4.19-7.01Z"/>
      </g>
    </g>
    <path class="cls-1" d="M126.05,37.7c.97,1.3,1.24,2.9,.83,4.8-.38,1.75-1.25,2.98-2.61,3.71-1.36,.72-2.97,.89-4.85,.49l-.6,2.06-4.18-.92,1-5.21,1.67,.37c1.43,.31,2.56,.38,3.39,.19,.83-.19,1.35-.74,1.55-1.67,.14-.65,.08-1.2-.19-1.65s-.72-.74-1.35-.88c-.67-.15-1.23-.07-1.69,.23-.45,.3-.75,.77-.9,1.42l-4.48-.99c.21-1.14,.67-2.11,1.38-2.91,.71-.8,1.63-1.35,2.76-1.66,1.13-.31,2.41-.3,3.84,.01,1.99,.44,3.47,1.31,4.43,2.61Zm-12.74,16.66c-.42-.61-.55-1.28-.39-2s.57-1.31,1.2-1.69c.64-.39,1.38-.49,2.21-.3,.82,.18,1.43,.58,1.85,1.2,.42,.62,.55,1.3,.38,2.04s-.56,1.27-1.19,1.65-1.36,.47-2.18,.29c-.84-.18-1.46-.58-1.88-1.19Z"/>
  </g>
</svg>