<?xml version="1.0" encoding="UTF-8"?>
<svg id="Layer_2" data-name="Layer 2" xmlns="http://www.w3.org/2000/svg" xmlns:xlink="http://www.w3.org/1999/xlink" viewBox="0 0 173.56 247.2">
  <defs>
    <style>
      .cls-1 {
        fill: #fff;
      }

      .cls-2 {
        fill: #181216;
      }

      .cls-3 {
        fill: #ff8080;
      }

      .cls-4 {
        fill: #ef9d7f;
      }

      .cls-5 {
        fill: #363636;
      }

      .cls-6 {
        fill: #ed8869;
      }

      .cls-7 {
        fill: #eeb2ff;
      }

      .cls-8 {
        fill: #fac300;
      }

      .cls-9, .cls-10, .cls-11, .cls-12, .cls-13, .cls-14, .cls-15 {
        fill: none;
      }

      .cls-9, .cls-10, .cls-12, .cls-13, .cls-16, .cls-14, .cls-15 {
        stroke-linejoin: round;
      }

      .cls-9, .cls-10, .cls-12, .cls-16 {
        stroke: #f80500;
      }

      .cls-9, .cls-12 {
        stroke-width: .82px;
      }

      .cls-9, .cls-16 {
        stroke-linecap: round;
      }

      .cls-17, .cls-16 {
        fill: #f55;
      }

      .cls-18 {
        fill: #e58e73;
      }

      .cls-19 {
        clip-path: url(#clippath-1);
      }

      .cls-20 {
        fill: #fce9ca;
      }

      .cls-21 {
        fill: #307f46;
      }

      .cls-10 {
        stroke-width: .78px;
      }

      .cls-10, .cls-12, .cls-13, .cls-14, .cls-15 {
        stroke-linecap: square;
      }

      .cls-22 {
        clip-path: url(#clippath);
      }

      .cls-23 {
        fill: #353535;
      }

      .cls-13 {
        stroke: #363636;
      }

      .cls-13, .cls-15 {
        stroke-width: .82px;
      }

      .cls-24 {
        fill: #b72c2c;
      }

      .cls-16 {
        stroke-width: .87px;
      }

      .cls-14 {
        stroke-width: .82px;
      }

      .cls-14, .cls-15 {
        stroke: #181216;
      }
    </style>
    <clipPath id="clippath">
      <path class="cls-11" d="M152.09,7.58H20.16c-7.9,0-14.3,6.4-14.3,14.3V192.12c0,7.9,6.4,14.3,14.3,14.3H152.09c7.9,0,14.3-6.4,14.3-14.3V21.88c0-7.9-6.4-14.3-14.3-14.3Z"/>
    </clipPath>
    <clipPath id="clippath-1">
      <path class="cls-11" d="M152.09,291.7H20.16c-7.9,0-14.3,6.4-14.3,14.3v170.24c0,7.9,6.4,14.3,14.3,14.3H152.09c7.9,0,14.3-6.4,14.3-14.3v-170.24c0-7.9-6.4-14.3-14.3-14.3Z"/>
    </clipPath>
  </defs>
  <g>
    <path class="cls-21" d="M159.86,.36H12.93C5.64,.36-.27,6.27-.27,13.56V233.64c0,7.29,5.91,13.2,13.2,13.2H159.86c7.29,0,13.2-5.91,13.2-13.2V13.56c0-7.29-5.91-13.2-13.2-13.2ZM67.2,125.91c-.05,.5-.28,.9-.61,1.17-.17,1.39-1.57,1.88-2.6,1.47-.13,0-.26,0-.38-.03-.02,.04-.05,.09-.07,.13-.63,1.21-2.39,1.13-3.12,.14-.33,.35-.77,.58-1.31,.58-.68,0-1.36-.42-1.66-1.03-.08,.09-.16,.19-.25,.28-.02,.02-.04,.03-.06,.05v3.07c0,.94-.71,1.69-1.61,1.82-.83,.12-1.89-.43-2.04-1.33-.09-.56-.2-1.12-.32-1.68-.77-.04-1.51-.57-1.7-1.35-.02-.09-.05-.19-.07-.29-.53-.05-1.03-.32-1.36-.88-.23-.39-.34-.83-.34-1.28,0-.21,.04-.41,.07-.61,0-.08,.01-.16,.02-.25,.08-1,.79-1.86,1.86-1.86,.02,0,.05,0,.07,0,.48-.89,1.68-.91,2.48-.56,.04,.02,.07,.04,.1,.05,.59-.32,1.36-.32,1.95,0,.74-.99,2.47-.91,3.05,.21,.02,.04,.05,.08,.07,.13,.72-.72,1.84-.79,2.56-.18,.2-.18,.44-.32,.72-.4,.31-.08,.65-.07,.97,0,.07-.04,.14-.08,.22-.12,.61-.84,1.93-.94,2.75-.24,.37,.24,.66,.59,.77,1.04,.07,.31,.13,.62,.15,.93,.02,.38-.1,.71-.3,.99Z"/>
    <path class="cls-7" d="M152.09,7.58H20.16c-7.9,0-14.3,6.4-14.3,14.3V192.12c0,7.9,6.4,14.3,14.3,14.3H152.09c7.9,0,14.3-6.4,14.3-14.3V21.88c0-7.9-6.4-14.3-14.3-14.3Z"/>
    <g class="cls-22">
      <g>
        <g>
          <polygon class="cls-20" points="181.42 10.54 96.3 94.34 105.09 107.95 204.07 53.82 181.42 10.54"/>
          <polygon class="cls-20" points="201.48 96.65 86.62 129.44 87.82 145.6 200.64 145.48 201.48 96.65"/>
          <polygon class="cls-20" points="206.39 195.78 89.83 169.67 83.15 184.43 182.3 238.27 206.39 195.78"/>
          <polygon class="cls-20" points="-54 200.4 72.65 155.92 68.82 138.32 -57.78 151.7 -54 200.4"/>
          <polygon class="cls-20" points="-54.06 58.06 47.94 120.21 59.01 108.37 -17.61 25.56 -54.06 58.06"/>
          <polygon class="cls-20" points=".54 -25.26 62.22 77.03 77.51 71.65 47.9 -37.21 .54 -25.26"/>
          <polygon class="cls-20" points="122.1 -45.12 81.59 67.25 95.4 75.72 161.23 -15.9 122.1 -45.12"/>
        </g>
        <g>
          <polygon class="cls-5" points="121.95 100.92 135.43 106.96 126.58 128.29 107.27 120.95 108.99 100.92 121.95 100.92"/>
          <polyline class="cls-14" points="122.64 126.36 124.87 116.08 109.58 108.2"/>
          <polyline class="cls-14" points="119.29 106.06 128.78 114.6 124.86 127.28"/>
        </g>
        <polygon class="cls-5" points="37.56 50.97 70.64 27.75 124.69 48.82 118.74 93.79 104.3 102.26 37.56 50.97"/>
        <g>
          <polygon class="cls-18" points="110.65 93.01 121.1 89.32 122.2 106.47 110.65 108.77 110.65 93.01"/>
          <path class="cls-12" d="M110.84,101.63c1.58-2,3.16-4,4.74-5.99,.89-.37,1.78-.74,2.66-1.12"/>
        </g>
        <polygon class="cls-18" points="94.2 128.39 103.51 155.32 89.35 174.89 69 155.32 64.56 139.98 94.2 128.39"/>
        <path class="cls-17" d="M32.07,149.57C20.9,173.84-1.06,220.39-1.06,220.39l154.42-1.75-18.51-68.02-33-.14-12.62,9.21,.13,13.9-4.02-13.36-17.99-10.66"/>
        <path class="cls-4" d="M110.73,73.38l.11,43.08c0,2.99-1.57,5.75-4.14,7.26l-36.4,21.39c-2.25,1.32-5.08,1.13-7.14-.47l-23.2-18.14c-2.62-2.05-4.12-5.22-4.06-8.54l.67-44.28,32.24-19.48,41.92,19.2Z"/>
        <path class="cls-5" d="M82.18,59.43c-15.71,9.04-45.63,27.09-45.63,27.09l.08-35.56s24.06,.24,34.37-.13c3.71,3.21,7.47,5.39,11.18,8.6Z"/>
        <path class="cls-16" d="M62.46,84.59c.26,9.13,.78,27.38,.78,27.38l-8.33,.16s-2.1-19.75,7.55-27.55Z"/>
        <path class="cls-9" d="M110.43,112.71c-2.06-.37-6.27-.85-11.11,.81-1.89,.65-7.78,2.76-11.38,9-3.45,5.98-2.59,11.89-2.28,13.58"/>
        <path class="cls-9" d="M51.69,135.66c.17-1.46,1.2-11.2-4.1-17.78-4.19-5.21-9.66-6.75-11.45-7.17"/>
        <path class="cls-2" d="M55.93,50.58s37.27,29.59,55.92,45.36c-.51-14.55-1.57-45.78-1.57-45.78l-54.35,.42Z"/>
        <polygon class="cls-2" points="75.3 86.85 95.16 85.69 94.65 79.4 75.13 83.96 75.3 86.85"/>
        <polygon class="cls-2" points="53.82 87.87 33.95 86.71 34.46 80.42 53.99 84.98 53.82 87.87"/>
        <polygon class="cls-8" points="36.57 105.4 43.3 110.51 51.84 105.4 36.57 105.4"/>
        <polygon class="cls-8" points="76.41 105.4 83.14 110.51 91.68 105.4 76.41 105.4"/>
        <polygon class="cls-24" points="63.25 119.43 68.41 118.76 75.27 135.28 63.77 136.55 63.25 119.43"/>
        <g>
          <g>
            <path class="cls-6" d="M54.88,164.19l-1.63-18-13.04-15.46-12.26,9.71,7.21,12.8-.58,10.27s.34,.46,.44,.58c6.62,.03,19.86,.1,19.86,.1Z"/>
            <path class="cls-10" d="M46.85,142.51c-3.04-2.86-6.09-5.71-9.13-8.56"/>
            <path class="cls-10" d="M38.3,148.96c-2.65-3.24-5.29-6.49-7.94-9.73"/>
            <path class="cls-10" d="M42.97,146.27c-3.11-3.15-6.23-6.3-9.34-9.44"/>
          </g>
          <path class="cls-3" d="M57.39,162.69s-7.06,59.74-10.59,89.61L7.13,228.93c6.48-17.75,17.98-49.25,22.83-62.56,1.33-3.65,4.97-5.93,8.84-5.55l18.58,1.87Z"/>
        </g>
        <g>
          <path class="cls-23" d="M43.29,93.91c-1.71,1.68-.96,4.41-.76,5.11,.22,.78,.83,2.98,2.63,3.45,1.27,.33,2.35-.39,2.41-.43,1.76-1.21,1.41-4.02,1.29-4.99-.16-1.25-.43-3.45-2.06-4.09-1.24-.49-2.69,.16-3.51,.96Z"/>
          <path class="cls-5" d="M37,97.25c1.14-.88,1.56-2.09,5.71-3.46,4.15-1.37,9.18,1.99,9.18,1.99l.58-.95s-4.47-3.21-8.88-2.52c-4.41,.69-6.39,2.92-7.44,3.78l.85,1.15Z"/>
          <polygon class="cls-5" points="35.47 93.82 36.15 96.09 37.92 94.96 35.47 93.82"/>
        </g>
        <g>
          <path class="cls-23" d="M86.58,92.62c1.71,1.68,.96,4.41,.76,5.11-.22,.78-.83,2.98-2.63,3.45-1.27,.33-2.35-.39-2.41-.43-1.76-1.21-1.41-4.02-1.29-4.99,.16-1.25,.43-3.45,2.06-4.09,1.24-.49,2.69,.16,3.51,.96Z"/>
          <path class="cls-5" d="M92.87,95.96c-1.14-.88-1.56-2.09-5.71-3.46-4.15-1.37-9.18,1.99-9.18,1.99l-.58-.95s4.47-3.21,8.88-2.52c4.41,.69,6.39,2.92,7.44,3.78l-.85,1.15Z"/>
          <polygon class="cls-5" points="94.4 92.53 93.72 94.8 91.95 93.67 94.4 92.53"/>
        </g>
        <g>
          <path class="cls-2" d="M55.96,50.98s37.29,29.61,55.96,45.39c-.46-11.25-.85-22.61-1.17-34.06-.11-4.15-.22-8.3-.31-12.42-18.16,.36-36.32,.73-54.48,1.09Z"/>
          <line class="cls-15" x1="124.18" y1="49.55" x2="37.07" y2="51.64"/>
          <line class="cls-13" x1="94.07" y1="47.02" x2="110.92" y2="94.55"/>
          <line class="cls-13" x1="73.81" y1="49.11" x2="110.65" y2="93.79"/>
        </g>
      </g>
    </g>
    <g>
      <path class="cls-1" d="M18.95,231.16c-.94-.68-1.45-1.67-1.52-2.97h4.02c.06,.69,.36,1.04,.92,1.04,.21,0,.38-.05,.52-.14,.14-.1,.21-.25,.21-.45,0-.28-.15-.51-.46-.69-.31-.18-.78-.38-1.43-.61-.77-.27-1.41-.54-1.92-.8-.51-.26-.94-.64-1.3-1.14-.36-.5-.54-1.14-.53-1.92,0-.78,.2-1.45,.6-2s.95-.97,1.65-1.25c.7-.29,1.48-.43,2.36-.43,1.48,0,2.65,.34,3.52,1.02,.87,.68,1.33,1.64,1.37,2.88h-4.07c-.01-.34-.1-.58-.26-.73-.16-.15-.35-.22-.58-.22-.16,0-.29,.05-.39,.16-.1,.11-.15,.26-.15,.45,0,.27,.15,.5,.45,.67,.3,.18,.78,.39,1.44,.64,.76,.29,1.39,.56,1.88,.82s.92,.62,1.29,1.09,.54,1.05,.54,1.75c0,.74-.18,1.4-.54,1.98s-.89,1.04-1.58,1.37-1.52,.49-2.47,.49c-1.44,0-2.63-.34-3.57-1.01Z"/>
      <path class="cls-1" d="M29.62,221.16c-.4-.35-.6-.79-.6-1.33s.2-1,.6-1.35c.4-.36,.92-.54,1.58-.54s1.17,.18,1.57,.54,.6,.81,.6,1.35-.2,.98-.6,1.33-.92,.53-1.57,.53-1.19-.18-1.58-.53Zm3.46,1.29v9.61h-3.78v-9.61h3.78Z"/>
      <path class="cls-1" d="M35.64,224.63c.35-.74,.82-1.31,1.42-1.7,.6-.39,1.28-.59,2.03-.59,.62,0,1.16,.13,1.62,.38s.8,.61,1.04,1.05v-1.31h3.76v9.61h-3.76v-1.31c-.24,.44-.58,.79-1.04,1.05-.45,.25-.99,.38-1.62,.38-.75,0-1.42-.2-2.03-.59s-1.08-.96-1.42-1.7c-.35-.74-.52-1.62-.52-2.63s.17-1.89,.52-2.63Zm5.71,1.44c-.26-.28-.6-.43-1-.43s-.74,.14-1,.43c-.26,.29-.39,.68-.39,1.19s.13,.91,.39,1.19c.26,.29,.6,.43,1,.43s.74-.14,1-.43c.26-.28,.39-.68,.39-1.19s-.13-.91-.39-1.19Z"/>
      <path class="cls-1" d="M52.88,222.72c.45-.26,.99-.38,1.61-.38,.75,0,1.42,.2,2.03,.59,.6,.39,1.08,.96,1.42,1.7,.35,.74,.52,1.62,.52,2.63s-.17,1.89-.52,2.63c-.35,.74-.82,1.31-1.42,1.7-.6,.39-1.28,.59-2.03,.59-.62,0-1.16-.13-1.61-.38-.45-.26-.79-.61-1.03-1.05v5.91h-3.78v-14.2h3.78v1.31c.24-.44,.58-.79,1.03-1.05Zm1.35,3.35c-.26-.28-.6-.43-1-.43s-.74,.14-1,.43c-.26,.29-.39,.68-.39,1.19s.13,.91,.39,1.19c.26,.29,.6,.43,1,.43s.74-.14,1-.43c.26-.28,.39-.68,.39-1.19s-.13-.91-.39-1.19Z"/>
      <path class="cls-1" d="M60.51,224.63c.35-.74,.82-1.31,1.42-1.7,.6-.39,1.28-.59,2.03-.59,.62,0,1.16,.13,1.62,.38s.8,.61,1.04,1.05v-1.31h3.76v9.61h-3.76v-1.31c-.24,.44-.58,.79-1.04,1.05-.45,.25-.99,.38-1.62,.38-.75,0-1.42-.2-2.03-.59s-1.08-.96-1.42-1.7c-.35-.74-.52-1.62-.52-2.63s.17-1.89,.52-2.63Zm5.71,1.44c-.26-.28-.6-.43-1-.43s-.74,.14-1,.43c-.26,.29-.39,.68-.39,1.19s.13,.91,.39,1.19c.26,.29,.6,.43,1,.43s.74-.14,1-.43c.26-.28,.39-.68,.39-1.19s-.13-.91-.39-1.19Z"/>
      <path class="cls-1" d="M78.54,231.74c-.7-.29-1.25-.7-1.66-1.23-.41-.52-.64-1.11-.7-1.77h3.63c.04,.29,.17,.49,.37,.63,.2,.14,.45,.21,.76,.21,.19,0,.35-.04,.46-.13,.11-.08,.17-.19,.17-.31,0-.21-.12-.37-.36-.46-.24-.09-.64-.19-1.21-.31-.69-.14-1.26-.29-1.71-.44s-.84-.43-1.17-.82c-.33-.38-.5-.92-.5-1.6,0-.59,.16-1.13,.47-1.61s.78-.86,1.39-1.14c.61-.28,1.36-.42,2.23-.42,1.29,0,2.31,.32,3.04,.95,.73,.64,1.17,1.46,1.32,2.49h-3.35c-.06-.26-.18-.46-.36-.6-.18-.14-.43-.21-.73-.21-.19,0-.34,.04-.44,.11-.1,.07-.15,.19-.15,.33,0,.19,.12,.34,.36,.44,.24,.1,.62,.2,1.14,.3,.69,.14,1.28,.29,1.75,.46s.89,.46,1.24,.88,.53,.98,.53,1.71c0,.57-.17,1.08-.49,1.53-.33,.45-.8,.81-1.42,1.07-.62,.26-1.34,.39-2.17,.39-.91,0-1.71-.15-2.41-.44Z"/>
      <path class="cls-1" d="M87.4,224.63c.35-.74,.82-1.31,1.42-1.7,.6-.39,1.28-.59,2.03-.59,.62,0,1.16,.13,1.62,.38s.8,.61,1.04,1.05v-1.31h3.76v9.61h-3.76v-1.31c-.24,.44-.58,.79-1.04,1.05-.45,.25-.99,.38-1.62,.38-.75,0-1.42-.2-2.03-.59s-1.08-.96-1.42-1.7c-.35-.74-.52-1.62-.52-2.63s.17-1.89,.52-2.63Zm5.71,1.44c-.26-.28-.6-.43-1-.43s-.74,.14-1,.43c-.26,.29-.39,.68-.39,1.19s.13,.91,.39,1.19c.26,.29,.6,.43,1,.43s.74-.14,1-.43c.26-.28,.39-.68,.39-1.19s-.13-.91-.39-1.19Z"/>
      <path class="cls-1" d="M109.13,223.49c.62,.74,.93,1.74,.93,3v5.57h-3.76v-5.09c0-.46-.12-.81-.37-1.08-.25-.27-.57-.4-.98-.4s-.75,.13-.99,.4c-.24,.27-.36,.63-.36,1.08v5.09h-3.78v-9.61h3.78v1.46c.29-.46,.69-.82,1.18-1.11s1.08-.43,1.76-.43c1.1,0,1.96,.37,2.58,1.11Z"/>
      <path class="cls-1" d="M117.62,222.72c.45,.26,.8,.61,1.04,1.05v-1.31h3.76v9.44c0,.9-.16,1.71-.49,2.45-.33,.74-.86,1.33-1.59,1.77s-1.67,.66-2.82,.66c-1.54,0-2.77-.36-3.67-1.08s-1.42-1.7-1.54-2.94h3.71c.1,.5,.51,.75,1.23,.75,.44,0,.79-.11,1.04-.34,.25-.23,.37-.65,.37-1.28v-1.14c-.24,.44-.58,.79-1.04,1.05-.46,.25-.99,.38-1.62,.38-.75,0-1.42-.2-2.03-.59-.6-.39-1.08-.96-1.42-1.7-.35-.74-.52-1.62-.52-2.63s.17-1.89,.52-2.63c.35-.74,.82-1.31,1.42-1.7,.6-.39,1.28-.59,2.03-.59,.62,0,1.16,.13,1.62,.38Zm.65,3.35c-.26-.28-.6-.43-1-.43s-.74,.14-1,.43c-.26,.29-.39,.68-.39,1.19s.13,.91,.39,1.19c.26,.29,.6,.43,1,.43s.74-.14,1-.43c.26-.28,.39-.68,.39-1.19s-.13-.91-.39-1.19Z"/>
      <path class="cls-1" d="M131.12,232.06l-2.37-3.83v3.83h-3.78v-12.6h3.78v6.59l2.4-3.59h4.39l-3.59,4.84,3.68,4.77h-4.51Z"/>
      <path class="cls-1" d="M137.35,224.63c.35-.74,.82-1.31,1.42-1.7,.6-.39,1.28-.59,2.03-.59,.62,0,1.16,.13,1.62,.38,.45,.26,.8,.61,1.04,1.05v-1.31h3.76v9.61h-3.76v-1.31c-.24,.44-.58,.79-1.04,1.05-.46,.25-.99,.38-1.62,.38-.75,0-1.42-.2-2.03-.59-.6-.39-1.08-.96-1.42-1.7-.35-.74-.52-1.62-.52-2.63s.17-1.89,.52-2.63Zm5.71,1.44c-.26-.28-.6-.43-1-.43s-.74,.14-1,.43c-.26,.29-.39,.68-.39,1.19s.13,.91,.39,1.19c.26,.29,.6,.43,1,.43s.74-.14,1-.43c.26-.28,.39-.68,.39-1.19s-.13-.91-.39-1.19Z"/>
      <path class="cls-1" d="M156.59,219.84c.77,.63,1.15,1.55,1.15,2.77,0,1-.34,1.81-1.01,2.42-.68,.61-1.56,.93-2.65,.95l-.1,1.21h-3.34l-.1-3.61h1.43c.67,0,1.18-.07,1.54-.22,.36-.15,.54-.38,.54-.71,0-.22-.05-.38-.16-.5-.11-.12-.25-.18-.43-.18-.23,0-.39,.07-.5,.21-.11,.14-.16,.33-.16,.55h-3.56c-.03-.7,.11-1.34,.42-1.92,.31-.58,.8-1.04,1.46-1.39,.66-.35,1.48-.52,2.45-.52,1.26,0,2.27,.31,3.04,.94Zm-5.82,11.83c-.4-.35-.6-.79-.6-1.33s.2-1,.6-1.35,.93-.54,1.58-.54,1.17,.18,1.57,.54,.6,.81,.6,1.35-.2,.98-.6,1.33-.92,.53-1.57,.53-1.19-.18-1.58-.53Z"/>
    </g>
  </g>
  <g class="cls-19">
    <g>
      <polygon class="cls-20" points=".54 258.86 62.22 361.14 77.51 355.77 47.9 246.9 .54 258.86"/>
      <polygon class="cls-20" points="122.1 239 81.59 351.36 95.4 359.84 161.23 268.22 122.1 239"/>
    </g>
  </g>
</svg>