<?xml version="1.0" encoding="UTF-8"?>
<svg id="Layer_2" data-name="Layer 2" xmlns="http://www.w3.org/2000/svg" xmlns:xlink="http://www.w3.org/1999/xlink" viewBox="0 0 173.56 247.2">
  <defs>
    <style>
      .cls-1 {
        fill: #fff;
      }

      .cls-2 {
        fill: #181216;
      }

      .cls-3 {
        fill: #ff8080;
      }

      .cls-4 {
        fill: #ef9d7f;
      }

      .cls-5 {
        fill: #363636;
      }

      .cls-6 {
        fill: #ed8869;
      }

      .cls-7 {
        fill: #eeb2ff;
      }

      .cls-8 {
        fill: #fac300;
      }

      .cls-9, .cls-10, .cls-11, .cls-12, .cls-13, .cls-14, .cls-15 {
        fill: none;
      }

      .cls-9, .cls-10, .cls-12, .cls-13, .cls-16, .cls-14, .cls-15 {
        stroke-linejoin: round;
      }

      .cls-9, .cls-10, .cls-12, .cls-16 {
        stroke: #f80500;
      }

      .cls-9, .cls-12 {
        stroke-width: .82px;
      }

      .cls-9, .cls-16 {
        stroke-linecap: round;
      }

      .cls-17, .cls-16 {
        fill: #f55;
      }

      .cls-18 {
        fill: #e58e73;
      }

      .cls-19 {
        fill: #fce9ca;
      }

      .cls-20 {
        fill: #307f46;
      }

      .cls-10 {
        stroke-width: .78px;
      }

      .cls-10, .cls-12, .cls-13, .cls-14, .cls-15 {
        stroke-linecap: square;
      }

      .cls-21 {
        clip-path: url(#clippath);
      }

      .cls-22 {
        fill: #353535;
      }

      .cls-13 {
        stroke: #363636;
      }

      .cls-13, .cls-15 {
        stroke-width: .82px;
      }

      .cls-23 {
        fill: #b72c2c;
      }

      .cls-16 {
        stroke-width: .87px;
      }

      .cls-14 {
        stroke-width: .82px;
      }

      .cls-14, .cls-15 {
        stroke: #181216;
      }
    </style>
    <clipPath id="clippath">
      <path class="cls-11" d="M152.09,7.58H20.16c-7.9,0-14.3,6.4-14.3,14.3V192.12c0,7.9,6.4,14.3,14.3,14.3H152.09c7.9,0,14.3-6.4,14.3-14.3V21.88c0-7.9-6.4-14.3-14.3-14.3Z"/>
    </clipPath>
  </defs>
  <path class="cls-20" d="M159.86,.36H12.93C5.64,.36-.27,6.27-.27,13.56V233.64c0,7.29,5.91,13.2,13.2,13.2H159.86c7.29,0,13.2-5.91,13.2-13.2V13.56c0-7.29-5.91-13.2-13.2-13.2ZM67.2,125.91c-.05,.5-.28,.9-.61,1.17-.17,1.39-1.57,1.88-2.6,1.47-.13,0-.26,0-.38-.03-.02,.04-.05,.09-.07,.13-.63,1.21-2.39,1.13-3.12,.14-.33,.35-.77,.58-1.31,.58-.68,0-1.36-.42-1.66-1.03-.08,.09-.16,.19-.25,.28-.02,.02-.04,.03-.06,.05v3.07c0,.94-.71,1.69-1.61,1.82-.83,.12-1.89-.43-2.04-1.33-.09-.56-.2-1.12-.32-1.68-.77-.04-1.51-.57-1.7-1.35-.02-.09-.05-.19-.07-.29-.53-.05-1.03-.32-1.36-.88-.23-.39-.34-.83-.34-1.28,0-.21,.04-.41,.07-.61,0-.08,.01-.16,.02-.25,.08-1,.79-1.86,1.86-1.86,.02,0,.05,0,.07,0,.48-.89,1.68-.91,2.48-.56,.04,.02,.07,.04,.1,.05,.59-.32,1.36-.32,1.95,0,.74-.99,2.47-.91,3.05,.21,.02,.04,.05,.08,.07,.13,.72-.72,1.84-.79,2.56-.18,.2-.18,.44-.32,.72-.4,.31-.08,.65-.07,.97,0,.07-.04,.14-.08,.22-.12,.61-.84,1.93-.94,2.75-.24,.37,.24,.66,.59,.77,1.04,.07,.31,.13,.62,.15,.93,.02,.38-.1,.71-.3,.99Z"/>
  <path class="cls-7" d="M152.09,7.58H20.16c-7.9,0-14.3,6.4-14.3,14.3V192.12c0,7.9,6.4,14.3,14.3,14.3H152.09c7.9,0,14.3-6.4,14.3-14.3V21.88c0-7.9-6.4-14.3-14.3-14.3Z"/>
  <g class="cls-21">
    <g>
      <g>
        <polygon class="cls-19" points="181.42 10.54 96.3 94.34 105.09 107.95 204.07 53.82 181.42 10.54"/>
        <polygon class="cls-19" points="201.48 96.65 86.62 129.44 87.82 145.6 200.64 145.48 201.48 96.65"/>
        <polygon class="cls-19" points="206.39 195.78 89.83 169.67 83.15 184.43 182.3 238.27 206.39 195.78"/>
        <polygon class="cls-19" points="-54 200.4 72.65 155.92 68.82 138.32 -57.78 151.7 -54 200.4"/>
        <polygon class="cls-19" points="-54.06 58.06 47.94 120.21 59.01 108.37 -17.61 25.56 -54.06 58.06"/>
        <polygon class="cls-19" points=".54 -25.26 62.22 77.03 77.51 71.65 47.9 -37.21 .54 -25.26"/>
        <polygon class="cls-19" points="122.1 -45.12 81.59 67.25 95.4 75.72 161.23 -15.9 122.1 -45.12"/>
      </g>
      <g>
        <polygon class="cls-5" points="121.95 100.92 135.43 106.96 126.58 128.29 107.27 120.95 108.99 100.92 121.95 100.92"/>
        <polyline class="cls-14" points="122.64 126.36 124.87 116.08 109.58 108.2"/>
        <polyline class="cls-14" points="119.29 106.06 128.78 114.6 124.86 127.28"/>
      </g>
      <polygon class="cls-5" points="37.56 50.97 70.64 27.75 124.69 48.82 118.74 93.79 104.3 102.26 37.56 50.97"/>
      <g>
        <polygon class="cls-18" points="110.65 93.01 121.1 89.32 122.2 106.47 110.65 108.77 110.65 93.01"/>
        <path class="cls-12" d="M110.84,101.63c1.58-2,3.16-4,4.74-5.99,.89-.37,1.78-.74,2.66-1.12"/>
      </g>
      <polygon class="cls-18" points="94.2 128.39 103.51 155.32 89.35 174.89 69 155.32 64.56 139.98 94.2 128.39"/>
      <path class="cls-17" d="M32.07,149.57C20.9,173.84-1.06,220.39-1.06,220.39l154.42-1.75-18.51-68.02-33-.14-12.62,9.21,.13,13.9-4.02-13.36-17.99-10.66"/>
      <path class="cls-4" d="M110.73,73.38l.11,43.08c0,2.99-1.57,5.75-4.14,7.26l-36.4,21.39c-2.25,1.32-5.08,1.13-7.14-.47l-23.2-18.14c-2.62-2.05-4.12-5.22-4.06-8.54l.67-44.28,32.24-19.48,41.92,19.2Z"/>
      <path class="cls-5" d="M82.18,59.43c-15.71,9.04-45.63,27.09-45.63,27.09l.08-35.56s24.06,.24,34.37-.13c3.71,3.21,7.47,5.39,11.18,8.6Z"/>
      <path class="cls-16" d="M62.46,84.59c.26,9.13,.78,27.38,.78,27.38l-8.33,.16s-2.1-19.75,7.55-27.55Z"/>
      <path class="cls-9" d="M110.43,112.71c-2.06-.37-6.27-.85-11.11,.81-1.89,.65-7.78,2.76-11.38,9-3.45,5.98-2.59,11.89-2.28,13.58"/>
      <path class="cls-9" d="M51.69,135.66c.17-1.46,1.2-11.2-4.1-17.78-4.19-5.21-9.66-6.75-11.45-7.17"/>
      <path class="cls-2" d="M55.93,50.58s37.27,29.59,55.92,45.36c-.51-14.55-1.57-45.78-1.57-45.78l-54.35,.42Z"/>
      <polygon class="cls-2" points="75.3 86.85 95.16 85.69 94.65 79.4 75.13 83.96 75.3 86.85"/>
      <polygon class="cls-2" points="53.82 87.87 33.95 86.71 34.46 80.42 53.99 84.98 53.82 87.87"/>
      <polygon class="cls-8" points="36.57 105.4 43.3 110.51 51.84 105.4 36.57 105.4"/>
      <polygon class="cls-8" points="76.41 105.4 83.14 110.51 91.68 105.4 76.41 105.4"/>
      <polygon class="cls-23" points="63.25 119.43 68.41 118.76 75.27 135.28 63.77 136.55 63.25 119.43"/>
      <g>
        <g>
          <path class="cls-6" d="M54.88,164.19l-1.63-18-13.04-15.46-12.26,9.71,7.21,12.8-.58,10.27s.34,.46,.44,.58c6.62,.03,19.86,.1,19.86,.1Z"/>
          <path class="cls-10" d="M46.85,142.51c-3.04-2.86-6.09-5.71-9.13-8.56"/>
          <path class="cls-10" d="M38.3,148.96c-2.65-3.24-5.29-6.49-7.94-9.73"/>
          <path class="cls-10" d="M42.97,146.27c-3.11-3.15-6.23-6.3-9.34-9.44"/>
        </g>
        <path class="cls-3" d="M57.39,162.69s-7.06,59.74-10.59,89.61L7.13,228.93c6.48-17.75,17.98-49.25,22.83-62.56,1.33-3.65,4.97-5.93,8.84-5.55l18.58,1.87Z"/>
      </g>
      <g>
        <path class="cls-22" d="M43.29,93.91c-1.71,1.68-.96,4.41-.76,5.11,.22,.78,.83,2.98,2.63,3.45,1.27,.33,2.35-.39,2.41-.43,1.76-1.21,1.41-4.02,1.29-4.99-.16-1.25-.43-3.45-2.06-4.09-1.24-.49-2.69,.16-3.51,.96Z"/>
        <path class="cls-5" d="M37,97.25c1.14-.88,1.56-2.09,5.71-3.46,4.15-1.37,9.18,1.99,9.18,1.99l.58-.95s-4.47-3.21-8.88-2.52c-4.41,.69-6.39,2.92-7.44,3.78l.85,1.15Z"/>
        <polygon class="cls-5" points="35.47 93.82 36.15 96.09 37.92 94.96 35.47 93.82"/>
      </g>
      <g>
        <path class="cls-22" d="M86.58,92.62c1.71,1.68,.96,4.41,.76,5.11-.22,.78-.83,2.98-2.63,3.45-1.27,.33-2.35-.39-2.41-.43-1.76-1.21-1.41-4.02-1.29-4.99,.16-1.25,.43-3.45,2.06-4.09,1.24-.49,2.69,.16,3.51,.96Z"/>
        <path class="cls-5" d="M92.87,95.96c-1.14-.88-1.56-2.09-5.71-3.46-4.15-1.37-9.18,1.99-9.18,1.99l-.58-.95s4.47-3.21,8.88-2.52c4.41,.69,6.39,2.92,7.44,3.78l-.85,1.15Z"/>
        <polygon class="cls-5" points="94.4 92.53 93.72 94.8 91.95 93.67 94.4 92.53"/>
      </g>
      <g>
        <path class="cls-2" d="M55.96,50.98s37.29,29.61,55.96,45.39c-.46-11.25-.85-22.61-1.17-34.06-.11-4.15-.22-8.3-.31-12.42-18.16,.36-36.32,.73-54.48,1.09Z"/>
        <line class="cls-15" x1="124.18" y1="49.55" x2="37.07" y2="51.64"/>
        <line class="cls-13" x1="94.07" y1="47.02" x2="110.92" y2="94.55"/>
        <line class="cls-13" x1="73.81" y1="49.11" x2="110.65" y2="93.79"/>
      </g>
    </g>
  </g>
  <g>
    <path class="cls-1" d="M16.81,236.02l.53,3-.89,.48h-5.84v-12.17h-.41l-.94-.53,.56-3.18,.74,.43h5.13v12.37h.43l.69-.41Zm-.76-15.93l-3.12,3.12-3.1-3.12,3.1-3.1,3.12,3.1Zm16.74,15.88l.56,3.2-.94,.53h-14.64v-14.3l-1.75-.25c1.15-2.98,2.02-5.78,2.59-8.38l4.98,.61c-.27,1.22-.63,2.53-1.09,3.94h3.91l-1.93-1.91,3.1-3.07,3.07,3.07-1.93,1.91h3.2l.74-.43,.56,3.2-.94,.53h-2.16v1.73h1.6l.74-.43,.56,3.2-.92,.53h-1.98v1.73h1.6l.74-.43,.56,3.2-.92,.53h-1.98v1.73h1.93l.74-.43Zm-7.75-9.63v-1.73h-2.18v1.73h2.18Zm0,5.03v-1.73h-2.18v1.73h2.18Zm-2.18,3.3v1.73h2.18v-1.73h-2.18Z"/>
    <path class="cls-1" d="M40.39,224.41l-2.77,1.35-1.7-3.56c3.52-1.66,7.32-3.58,11.38-5.77l.94-.53,.94,.53c4.07,2.19,7.86,4.11,11.38,5.77l-1.7,3.56-2.77-1.35,.43,2.52-.91,.53h-14.74l-.91-.53,.43-2.52Zm5.87,8.28l-1.63,3.58h7.93l-.79-2.21,4.85-1.04,2.29,6.02-.92,.53h-19.33l-.89-.53,2.67-6.35h-2.67l-.91-.53,.56-3.18,.74,.41h20.17l.74-.41,.56,3.18-.91,.53h-12.45Zm-5.16-8.61l.15,.08h13.97l.15-.08c-2.44-1.2-4.82-2.43-7.14-3.68-2.32,1.25-4.7,2.48-7.14,3.68Z"/>
    <path class="cls-1" d="M62.8,235.9l3-2.97,2.97,2.97-2.97,3-3-3Zm3.1-13.7h-1.63l-.94-.53,.56-3.2,.74,.43h1.27v-2.03h5.18v2.03h1.25l.74-.43,.56,3.2-.91,.53h-1.63v10.34h-5.18v-10.34Zm-2.26,9.93l.36-9.22,1.58,.1-.38,9.22-1.55-.1Zm16.72,4.27l.74-.43,.56,3.18-.92,.56h-11.41v-6.63h5.34v3.33h5.69Zm-8.59-4.17l-.36-9.22,1.55-.1,.36,9.22-1.55,.1Zm9.53-11.81h-6.73l-.86-.51,.51-3,.71,.41h11v14.46l-.89,.51h-11.08v-11.2h4.68v8.1h2.67v-.86h-2.11v-3.1h2.11v-.84h-2.11v-3.1h2.11v-.86Zm-3.43,15.8l-1.85-1.88,1.85-1.88,1.88,1.88-1.88,1.88Zm6.2-3.73l2.92,2.92-2.92,2.92-2.92-2.92,2.92-2.92Z"/>
    <path class="cls-1" d="M91.54,220.63h-.61l-.94-.53,.56-3.18,.76,.43h9.78l.76-.43,.56,3.18-.94,.53h-5.31l-.84,4.17h2.11l-.56-2.57,4.19-.84,1.42,6.17-.91,.53h-10.52l-.91-.53,1.4-6.94Zm9.99,15.7l.76-.43,.56,3.18-.94,.53h-11.64v-3.28h3.28v-2.44h-2.52l-.91-.53,.56-3.18,.74,.43h2.13v-1.78h5.59v1.78h2.13l.76-.43,.56,3.18-.94,.53h-2.52v2.44h2.39Zm5.56-17.84v16.11h-3.89v-16.11h3.89Zm1.07-1.47h4.62v22.66h-7.29l-.94-.53,.56-3.2,.74,.43h2.31v-19.36Z"/>
    <path class="cls-1" d="M125.68,217.5v21.32l-.94,.53h-7.27v-17.86h3.61v14.56h1.02v-15.25h-4.04l-.92-.56,.56-3.18,.74,.43h7.24Zm13.08,9.17h-7.5v5.82c0,3.01-.2,5.53-.61,7.55l-4.52-.48c.36-2.93,.53-5.22,.53-6.86v-11.51h4.93v2.18h3.15v-2.79h-7.72l-.92-.56,.56-3.18,.74,.43h12.27v8.87l-.92,.53Zm.2,9.65l.74-.43,.56,3.18-.91,.56h-7.09v-11.82h4.95v2.19h1.75l.74-.43,.56,3.2-.91,.53h-2.13v3.02h1.75Z"/>
    <path class="cls-1" d="M160.29,222.25v1.4c0,.9-.19,1.69-.56,2.39-.34,.66-.87,1.3-1.6,1.93l-2.69,2.16c-.12,.1-.18,.24-.18,.41v3.15h-4.5v-3.15c0-.83,.18-1.58,.53-2.24,.32-.61,.75-1.13,1.3-1.55,.97-.75,1.82-1.43,2.57-2.06,.42-.36,.63-.7,.63-1.04v-1.4c0-.13-.06-.26-.18-.38-.14-.13-.27-.2-.41-.2h-4.19c-.49,0-.74,.28-.74,.84v2.77h-4.5v-2.77c0-1.47,.51-2.7,1.52-3.68,.95-.95,2.11-1.42,3.48-1.42h4.65c1.39,0,2.56,.53,3.51,1.58,.9,.95,1.35,2.04,1.35,3.28Zm-5.31,13.29c.52,.51,.79,1.13,.79,1.88s-.26,1.35-.79,1.88c-.51,.53-1.14,.79-1.88,.79s-1.35-.26-1.88-.79-.79-1.15-.79-1.88,.26-1.37,.79-1.88c.53-.53,1.15-.79,1.88-.79s1.37,.26,1.88,.79Z"/>
  </g>
</svg>