<?xml version="1.0" encoding="UTF-8"?>
<svg id="Layer_2" data-name="Layer 2" xmlns="http://www.w3.org/2000/svg" xmlns:xlink="http://www.w3.org/1999/xlink" viewBox="0 0 199.5 283.47">
  <defs>
    <style>
      .cls-1 {
        fill: #fff;
      }

      .cls-2 {
        fill: #181216;
      }

      .cls-3 {
        fill: #ff8080;
      }

      .cls-4 {
        fill: #ef9d7f;
      }

      .cls-5 {
        fill: #363636;
      }

      .cls-6 {
        fill: #ed8869;
      }

      .cls-7 {
        fill: #eeb2ff;
      }

      .cls-8 {
        fill: #fac300;
      }

      .cls-9 {
        fill: #f55;
      }

      .cls-10 {
        fill: #e58e73;
      }

      .cls-11 {
        fill: #fce9ca;
      }

      .cls-12 {
        fill: #f80500;
      }

      .cls-13 {
        fill: #307f46;
      }

      .cls-14 {
        clip-path: url(#clippath);
      }

      .cls-15 {
        fill: none;
      }

      .cls-16 {
        fill: #353535;
      }

      .cls-17 {
        fill: #b72c2c;
      }
    </style>
    <clipPath id="clippath">
      <path class="cls-15" d="M167.12,30.85H35.2c-7.9,0-14.3,6.4-14.3,14.3V215.38c0,7.9,6.4,14.3,14.3,14.3H167.12c7.9,0,14.3-6.4,14.3-14.3V45.15c0-7.9-6.4-14.3-14.3-14.3Z"/>
    </clipPath>
  </defs>
  <path class="cls-13" d="M174.9,23.62H27.97c-7.29,0-13.2,5.91-13.2,13.2v220.08c0,7.29,5.91,13.2,13.2,13.2H174.9c7.29,0,13.2-5.91,13.2-13.2V36.82c0-7.29-5.91-13.2-13.2-13.2Zm-92.67,125.55c-.05,.5-.28,.9-.61,1.17-.17,1.39-1.57,1.88-2.6,1.47-.13,0-.26,0-.38-.03-.02,.04-.05,.09-.07,.13-.63,1.21-2.39,1.13-3.12,.14-.33,.35-.77,.58-1.31,.58-.68,0-1.36-.42-1.66-1.03-.08,.09-.16,.19-.25,.28-.02,.02-.04,.03-.06,.05v3.07c0,.94-.71,1.69-1.61,1.82-.83,.12-1.89-.43-2.04-1.33-.09-.56-.2-1.12-.32-1.68-.77-.04-1.51-.57-1.7-1.35-.02-.09-.05-.19-.07-.29-.53-.05-1.03-.32-1.36-.88-.23-.39-.34-.83-.34-1.28,0-.21,.04-.41,.07-.61,0-.08,.01-.16,.02-.25,.08-1,.79-1.86,1.86-1.86,.02,0,.05,0,.07,0,.48-.89,1.68-.91,2.48-.56,.04,.02,.07,.04,.1,.05,.59-.32,1.36-.32,1.95,0,.74-.99,2.47-.91,3.05,.21,.02,.04,.05,.08,.07,.13,.72-.72,1.84-.79,2.56-.18,.2-.18,.44-.32,.72-.4,.31-.08,.65-.07,.97,0,.07-.04,.14-.08,.22-.12,.61-.84,1.93-.94,2.75-.24,.37,.24,.66,.59,.77,1.04,.07,.31,.13,.62,.15,.93,.02,.38-.1,.71-.3,.99Z"/>
  <path class="cls-7" d="M167.12,30.85H35.2c-7.9,0-14.3,6.4-14.3,14.3V215.38c0,7.9,6.4,14.3,14.3,14.3H167.12c7.9,0,14.3-6.4,14.3-14.3V45.15c0-7.9-6.4-14.3-14.3-14.3Z"/>
  <g>
    <path class="cls-1" d="M39.71,244.4l-2.04,8.18h-2.31l-1.25-5.38-1.29,5.38h-2.31l-1.98-8.18h2.04l1.12,5.95,1.39-5.95h2.09l1.34,5.95,1.14-5.95h2.05Z"/>
    <path class="cls-1" d="M46.76,246.75c.43,.49,.65,1.17,.65,2.03v3.8h-1.89v-3.53c0-.43-.11-.77-.32-1.01-.22-.24-.5-.36-.87-.36s-.65,.12-.87,.36c-.22,.24-.32,.58-.32,1.01v3.53h-1.91v-8.62h1.91v2.99c.19-.29,.46-.52,.79-.69,.33-.17,.71-.26,1.12-.26,.71,0,1.29,.25,1.72,.74Z"/>
    <path class="cls-1" d="M50.48,252.27c-.49-.27-.87-.66-1.15-1.17-.28-.5-.42-1.1-.42-1.77s.14-1.26,.42-1.77,.67-.9,1.16-1.17c.49-.27,1.04-.41,1.65-.41s1.16,.14,1.65,.41c.49,.27,.88,.66,1.16,1.17s.42,1.1,.42,1.77-.14,1.26-.43,1.76c-.29,.51-.68,.9-1.17,1.17-.49,.27-1.05,.41-1.65,.41s-1.16-.14-1.64-.41Zm2.57-1.74c.26-.28,.38-.68,.38-1.2s-.12-.92-.37-1.2c-.25-.28-.56-.42-.92-.42s-.68,.14-.92,.41-.37,.68-.37,1.21,.12,.92,.36,1.2c.24,.28,.54,.42,.91,.42s.67-.14,.93-.42Z"/>
    <path class="cls-1" d="M68.78,246.08l-1.68,6.5h-2.11l-.98-4.22-1.01,4.22h-2.09l-1.69-6.5h1.9l.88,4.65,1.05-4.65h2.02l1.06,4.62,.87-4.62h1.79Z"/>
    <path class="cls-1" d="M71.25,252.27c-.49-.27-.87-.66-1.15-1.17-.28-.5-.42-1.1-.42-1.77s.14-1.26,.42-1.77,.67-.9,1.16-1.17c.49-.27,1.04-.41,1.65-.41s1.16,.14,1.65,.41c.49,.27,.88,.66,1.16,1.17s.42,1.1,.42,1.77-.14,1.26-.43,1.76c-.29,.51-.68,.9-1.17,1.17-.49,.27-1.05,.41-1.65,.41s-1.16-.14-1.64-.41Zm2.57-1.74c.26-.28,.38-.68,.38-1.2s-.12-.92-.37-1.2c-.25-.28-.56-.42-.92-.42s-.68,.14-.92,.41-.37,.68-.37,1.21,.12,.92,.36,1.2c.24,.28,.54,.42,.91,.42s.67-.14,.93-.42Z"/>
    <path class="cls-1" d="M83.85,246.08v6.5h-1.9v-.89c-.19,.29-.46,.52-.79,.69s-.7,.26-1.1,.26c-.48,0-.9-.11-1.26-.33-.36-.22-.65-.54-.85-.96-.2-.42-.3-.91-.3-1.48v-3.8h1.89v3.53c0,.43,.11,.77,.32,1.01,.22,.24,.5,.36,.87,.36s.66-.12,.88-.36c.22-.24,.32-.58,.32-1.01v-3.53h1.9Z"/>
    <path class="cls-1" d="M87.69,243.96v8.62h-1.91v-8.62h1.91Z"/>
    <path class="cls-1" d="M89.61,247.56c.24-.5,.57-.89,.99-1.17,.42-.27,.88-.41,1.39-.41,.41,0,.78,.09,1.12,.27,.34,.18,.6,.42,.8,.72v-3.02h1.9v8.62h-1.9v-.93c-.18,.31-.43,.56-.76,.75s-.71,.28-1.15,.28c-.51,0-.98-.14-1.39-.41s-.74-.67-.99-1.18-.36-1.1-.36-1.76,.12-1.25,.36-1.76Zm3.9,.59c-.26-.29-.58-.43-.96-.43s-.7,.14-.96,.43c-.26,.28-.4,.67-.4,1.17s.13,.89,.4,1.18c.26,.29,.58,.44,.96,.44s.7-.14,.96-.43c.26-.29,.4-.68,.4-1.18s-.13-.89-.4-1.18Z"/>
    <path class="cls-1" d="M99.07,243.26l-.14,2.58h-1.28l-.14-2.58h1.57Z"/>
    <path class="cls-1" d="M103.56,250.72l1.35-4.64h2.03l-2.21,6.5h-2.35l-2.21-6.5h2.04l1.35,4.64Z"/>
    <path class="cls-1" d="M114.12,249.81h-4.31c.03,.4,.15,.71,.37,.93,.22,.21,.49,.32,.81,.32,.48,0,.81-.21,.99-.63h2.03c-.1,.43-.29,.81-.56,1.15-.27,.34-.61,.61-1.02,.8-.41,.19-.87,.29-1.37,.29-.61,0-1.15-.14-1.63-.41-.48-.27-.85-.66-1.11-1.17-.27-.5-.4-1.1-.4-1.77s.13-1.27,.4-1.77c.26-.5,.63-.89,1.11-1.17,.48-.27,1.02-.41,1.64-.41s1.14,.13,1.6,.4c.47,.26,.83,.64,1.1,1.13,.26,.49,.4,1.06,.4,1.71,0,.19-.01,.38-.03,.58Zm-1.92-1.11c0-.34-.11-.61-.33-.82-.22-.2-.5-.3-.84-.3s-.59,.1-.81,.29c-.22,.19-.35,.47-.41,.83h2.38Z"/>
    <path class="cls-1" d="M122.1,250.89v1.69h-.97c-.69,0-1.23-.18-1.62-.53-.39-.35-.58-.93-.58-1.73v-2.59h-.76v-1.65h.76v-1.58h1.91v1.58h1.25v1.65h-1.25v2.61c0,.19,.04,.33,.13,.42,.09,.09,.24,.13,.45,.13h.68Z"/>
    <path class="cls-1" d="M129.25,246.75c.43,.49,.65,1.17,.65,2.03v3.8h-1.89v-3.53c0-.43-.11-.77-.32-1.01-.22-.24-.5-.36-.87-.36s-.65,.12-.87,.36c-.22,.24-.32,.58-.32,1.01v3.53h-1.91v-8.62h1.91v2.99c.19-.29,.46-.52,.79-.69,.33-.17,.71-.26,1.12-.26,.71,0,1.29,.25,1.72,.74Z"/>
    <path class="cls-1" d="M132.96,252.27c-.49-.27-.87-.66-1.15-1.17-.28-.5-.42-1.1-.42-1.77s.14-1.26,.42-1.77,.67-.9,1.16-1.17c.49-.27,1.04-.41,1.65-.41s1.16,.14,1.65,.41c.49,.27,.88,.66,1.16,1.17s.42,1.1,.42,1.77-.14,1.26-.43,1.76c-.29,.51-.68,.9-1.17,1.17-.49,.27-1.05,.41-1.65,.41s-1.16-.14-1.64-.41Zm2.57-1.74c.26-.28,.38-.68,.38-1.2s-.12-.92-.37-1.2c-.25-.28-.56-.42-.92-.42s-.68,.14-.92,.41-.37,.68-.37,1.21,.12,.92,.36,1.2c.24,.28,.54,.42,.91,.42s.67-.14,.93-.42Z"/>
    <path class="cls-1" d="M145.57,246.08v6.5h-1.9v-.89c-.19,.29-.46,.52-.79,.69s-.7,.26-1.1,.26c-.48,0-.9-.11-1.26-.33-.36-.22-.65-.54-.85-.96-.2-.42-.3-.91-.3-1.48v-3.8h1.89v3.53c0,.43,.11,.77,.32,1.01,.22,.24,.5,.36,.87,.36s.66-.12,.88-.36c.22-.24,.32-.58,.32-1.01v-3.53h1.9Z"/>
    <path class="cls-1" d="M151.01,246.27c.33,.19,.58,.43,.76,.73v-.92h1.9v6.49c0,.6-.11,1.14-.34,1.62s-.57,.87-1.04,1.16c-.46,.29-1.04,.43-1.73,.43-.92,0-1.67-.23-2.24-.68s-.9-1.07-.98-1.85h1.88c.06,.25,.2,.44,.42,.59,.22,.14,.5,.22,.82,.22,.39,0,.71-.12,.94-.36,.23-.24,.35-.62,.35-1.14v-.92c-.19,.3-.44,.55-.77,.74-.33,.19-.71,.29-1.15,.29-.51,0-.98-.14-1.39-.41s-.74-.67-.99-1.18-.36-1.1-.36-1.76,.12-1.25,.36-1.76,.57-.89,.99-1.17c.42-.27,.88-.41,1.39-.41,.44,0,.82,.09,1.15,.28Zm.37,1.89c-.26-.29-.58-.43-.96-.43s-.7,.14-.96,.43c-.26,.28-.4,.67-.4,1.17s.13,.89,.4,1.18c.26,.29,.58,.44,.96,.44s.7-.14,.96-.43c.26-.29,.4-.68,.4-1.18s-.13-.89-.4-1.18Z"/>
    <path class="cls-1" d="M161.15,246.75c.43,.49,.65,1.17,.65,2.03v3.8h-1.89v-3.53c0-.43-.11-.77-.32-1.01-.22-.24-.5-.36-.87-.36s-.65,.12-.87,.36c-.22,.24-.32,.58-.32,1.01v3.53h-1.91v-8.62h1.91v2.99c.19-.29,.46-.52,.79-.69,.33-.17,.71-.26,1.12-.26,.71,0,1.29,.25,1.72,.74Z"/>
    <path class="cls-1" d="M167.14,250.89v1.69h-.97c-.69,0-1.23-.18-1.62-.53-.39-.35-.58-.93-.58-1.73v-2.59h-.76v-1.65h.76v-1.58h1.91v1.58h1.25v1.65h-1.25v2.61c0,.19,.04,.33,.13,.42,.09,.09,.24,.13,.45,.13h.68Z"/>
    <path class="cls-1" d="M172.95,244.6c.48,.44,.72,1.05,.72,1.84,0,.73-.23,1.3-.69,1.71-.46,.41-1.06,.62-1.81,.62l-.06,.87h-1.67l-.06-2.17h.67c.57,0,1.01-.07,1.31-.22s.45-.42,.45-.8c0-.27-.07-.49-.21-.64-.14-.16-.34-.23-.59-.23-.27,0-.48,.08-.62,.24s-.22,.38-.22,.65h-1.79c-.02-.47,.08-.9,.28-1.28,.2-.38,.51-.68,.91-.9s.89-.33,1.46-.33c.79,0,1.43,.22,1.91,.65Zm-3.46,7.76c-.21-.21-.32-.46-.32-.76s.11-.57,.32-.78c.21-.21,.48-.32,.82-.32s.6,.11,.81,.32c.21,.21,.32,.47,.32,.78s-.11,.56-.32,.76c-.21,.21-.48,.31-.81,.31s-.61-.1-.82-.31Z"/>
  </g>
  <g class="cls-14">
    <g>
      <g>
        <polygon class="cls-11" points="196.46 33.8 111.34 117.6 120.12 131.22 219.11 77.08 196.46 33.8"/>
        <polygon class="cls-11" points="216.52 119.91 101.66 152.7 102.85 168.86 215.67 168.74 216.52 119.91"/>
        <polygon class="cls-11" points="221.43 219.05 104.87 192.93 98.19 207.7 197.34 261.53 221.43 219.05"/>
        <polygon class="cls-11" points="-38.96 223.66 87.69 179.18 83.85 161.58 -42.74 174.97 -38.96 223.66"/>
        <polygon class="cls-11" points="-39.03 81.32 62.98 143.47 74.04 131.63 -2.57 48.82 -39.03 81.32"/>
        <polygon class="cls-11" points="15.58 -2 77.26 100.29 92.55 94.91 62.93 -13.95 15.58 -2"/>
        <polygon class="cls-11" points="137.13 -21.86 96.62 90.51 110.44 98.99 176.27 7.36 137.13 -21.86"/>
      </g>
      <g>
        <polygon class="cls-5" points="136.98 124.19 150.47 130.22 141.61 151.55 122.31 144.21 124.03 124.19 136.98 124.19"/>
        <path class="cls-2" d="M137.99,150.1l-.8-.17,2.24-10.37-15.38-7.92,.38-.73,15.65,8.07c.16,.08,.25,.27,.21,.45l-2.31,10.67Z"/>
        <path class="cls-2" d="M140.17,151.06l-.78-.24,3.96-12.82-9.6-8.64,.55-.61,9.8,8.81c.12,.11,.16,.27,.12,.43l-4.04,13.07Z"/>
      </g>
      <polygon class="cls-5" points="52.59 74.23 85.68 51.01 139.73 72.08 133.78 117.05 119.33 125.53 52.59 74.23"/>
      <g>
        <polygon class="cls-10" points="125.69 116.27 136.14 112.58 137.23 129.73 125.69 132.04 125.69 116.27"/>
        <path class="cls-12" d="M125.95,125.47l-.64-.51,5-6.32c.04-.05,.1-.1,.16-.12l3.04-1.27,.32,.75-2.94,1.23-4.93,6.23Z"/>
      </g>
      <polygon class="cls-10" points="109.24 151.65 118.54 178.58 104.38 198.15 84.04 178.58 79.6 163.24 109.24 151.65"/>
      <path class="cls-9" d="M47.1,172.83c-11.17,24.27-33.13,70.82-33.13,70.82l154.42-1.75-18.51-68.02-33-.14-12.62,9.21,.13,13.9-4.02-13.36-17.99-10.66"/>
      <path class="cls-4" d="M125.77,96.65l.11,43.08c0,2.99-1.57,5.75-4.14,7.26l-36.4,21.39c-2.25,1.32-5.08,1.13-7.14-.47l-23.2-18.14c-2.62-2.05-4.12-5.22-4.06-8.54l.67-44.28,32.24-19.48,41.92,19.2Z"/>
      <path class="cls-5" d="M97.22,82.69c-15.71,9.04-45.63,27.09-45.63,27.09l.08-35.56s24.06,.24,34.37-.13c3.71,3.21,7.47,5.39,11.18,8.6Z"/>
      <g>
        <path class="cls-9" d="M77.5,107.85l.78,27.38-8.33,.16s-2.1-19.75,7.55-27.55Z"/>
        <path class="cls-12" d="M69.95,135.83c-.22,0-.41-.17-.43-.39-.09-.82-2.01-20.08,7.71-27.93,.13-.1,.31-.12,.46-.06,.15,.07,.25,.22,.25,.38l.78,27.38c0,.12-.04,.23-.12,.31s-.19,.13-.31,.13l-8.33,.16h0Zm7.14-27.05c-7.87,7.28-6.96,23.44-6.74,26.18l7.49-.15-.75-26.03Z"/>
      </g>
      <path class="cls-12" d="M100.69,159.76c-.19,0-.37-.14-.4-.33-.51-2.79-.89-8.29,2.32-13.85,2.49-4.32,6.4-7.41,11.6-9.18,4.54-1.55,8.66-1.3,11.32-.82,.22,.04,.37,.25,.33,.47-.04,.22-.25,.37-.47,.33-2.56-.46-6.54-.7-10.91,.79-5.02,1.71-8.77,4.68-11.16,8.82-3.08,5.34-2.72,10.62-2.23,13.3,.04,.22-.11,.43-.33,.47-.02,0-.05,0-.07,0Z"/>
      <path class="cls-12" d="M66.72,159.33s-.03,0-.05,0c-.22-.03-.38-.23-.36-.45,.3-2.56,.88-11.39-4.01-17.48-3.78-4.7-8.66-6.42-11.23-7.03-.22-.05-.35-.27-.3-.49,.05-.22,.27-.36,.49-.3,2.67,.63,7.74,2.42,11.67,7.31,5.09,6.33,4.49,15.44,4.19,18.08-.02,.21-.2,.36-.41,.36Z"/>
      <path class="cls-2" d="M70.96,73.84s37.27,29.59,55.92,45.36c-.51-14.55-1.57-45.78-1.57-45.78l-54.35,.42Z"/>
      <polygon class="cls-2" points="90.34 110.12 110.2 108.95 109.69 102.66 90.17 107.23 90.34 110.12"/>
      <polygon class="cls-2" points="68.85 111.13 48.99 109.97 49.5 103.68 69.02 108.24 68.85 111.13"/>
      <polygon class="cls-8" points="51.6 128.66 58.33 133.77 66.88 128.66 51.6 128.66"/>
      <polygon class="cls-8" points="91.44 128.66 98.17 133.77 106.72 128.66 91.44 128.66"/>
      <polygon class="cls-17" points="78.29 142.69 83.44 142.03 90.3 158.55 78.8 159.81 78.29 142.69"/>
      <g>
        <g>
          <path class="cls-6" d="M69.91,187.45l-1.63-18-13.04-15.46-12.26,9.71,7.21,12.8-.58,10.27s.34,.46,.44,.58c6.62,.03,19.86,.1,19.86,.1Z"/>
          <rect class="cls-12" x="56.93" y="154.84" width=".78" height="13.3" transform="translate(-99.69 92.83) rotate(-46.84)"/>
          <rect class="cls-12" x="48.98" y="160.69" width=".78" height="13.33" transform="translate(-94.68 68.89) rotate(-39.21)"/>
          <rect class="cls-12" x="52.95" y="157.78" width=".78" height="14.06" transform="translate(-100.48 85.15) rotate(-44.69)"/>
        </g>
        <path class="cls-3" d="M72.43,185.95s-7.06,59.74-10.59,89.61l-39.67-23.37c6.48-17.75,17.98-49.25,22.83-62.56,1.33-3.65,4.97-5.93,8.84-5.55l18.58,1.87Z"/>
      </g>
      <g>
        <path class="cls-16" d="M58.33,117.17c-1.71,1.68-.96,4.41-.76,5.11,.22,.78,.83,2.98,2.63,3.45,1.27,.33,2.35-.39,2.41-.43,1.76-1.21,1.41-4.02,1.29-4.99-.16-1.25-.43-3.45-2.06-4.09-1.24-.49-2.69,.16-3.51,.96Z"/>
        <path class="cls-5" d="M52.03,120.51c1.14-.88,1.56-2.09,5.71-3.46,4.15-1.37,9.18,1.99,9.18,1.99l.58-.95s-4.47-3.21-8.88-2.52c-4.41,.69-6.39,2.92-7.44,3.78l.85,1.15Z"/>
        <polygon class="cls-5" points="50.51 117.08 51.18 119.35 52.96 118.22 50.51 117.08"/>
      </g>
      <g>
        <path class="cls-16" d="M101.61,115.88c1.71,1.68,.96,4.41,.76,5.11-.22,.78-.83,2.98-2.63,3.45-1.27,.33-2.35-.39-2.41-.43-1.76-1.21-1.41-4.02-1.29-4.99,.16-1.25,.43-3.45,2.06-4.09,1.24-.49,2.69,.16,3.51,.96Z"/>
        <path class="cls-5" d="M107.91,119.22c-1.14-.88-1.56-2.09-5.71-3.46s-9.18,1.99-9.18,1.99l-.58-.95s4.47-3.21,8.88-2.52c4.41,.69,6.39,2.92,7.44,3.78l-.85,1.15Z"/>
        <polygon class="cls-5" points="109.43 115.79 108.76 118.07 106.98 116.93 109.43 115.79"/>
      </g>
      <g>
        <path class="cls-2" d="M71,74.24s37.29,29.61,55.96,45.39c-.46-11.25-.85-22.61-1.17-34.06-.11-4.15-.22-8.3-.31-12.42-18.16,.36-36.32,.73-54.48,1.09Z"/>
        <rect class="cls-2" x="51.69" y="73.45" width="87.96" height=".82" transform="translate(-1.74 2.31) rotate(-1.37)"/>
        <rect class="cls-5" x="117.12" y="68.43" width=".82" height="51.25" transform="translate(-24.67 44.68) rotate(-19.52)"/>
        <rect class="cls-5" x="106.86" y="65.35" width=".82" height="58.72" transform="translate(-35.75 89.87) rotate(-39.5)"/>
      </g>
    </g>
  </g>
</svg>