<?xml version="1.0" encoding="UTF-8"?>
<svg id="Layer_2" data-name="Layer 2" xmlns="http://www.w3.org/2000/svg" xmlns:xlink="http://www.w3.org/1999/xlink" viewBox="0 0 173.81 246.49">
  <defs>
    <style>
      .cls-1 {
        fill: #fff;
      }

      .cls-2 {
        fill: #181216;
      }

      .cls-3 {
        stroke: #b72c2c;
        stroke-width: .71px;
      }

      .cls-3, .cls-4, .cls-5, .cls-6, .cls-7, .cls-8, .cls-9 {
        fill: none;
      }

      .cls-3, .cls-4, .cls-5, .cls-6, .cls-7, .cls-9, .cls-10 {
        stroke-linejoin: round;
      }

      .cls-3, .cls-4, .cls-5, .cls-7, .cls-9 {
        stroke-linecap: square;
      }

      .cls-11 {
        fill: #ef9d7f;
      }

      .cls-12 {
        fill: #363636;
      }

      .cls-4, .cls-6 {
        stroke-width: .76px;
      }

      .cls-4, .cls-6, .cls-10 {
        stroke: #f80500;
      }

      .cls-5 {
        stroke-width: .76px;
      }

      .cls-5, .cls-9 {
        stroke: #181216;
      }

      .cls-13, .cls-10 {
        fill: #f55;
      }

      .cls-6, .cls-10 {
        stroke-linecap: round;
      }

      .cls-14 {
        fill: #e58e73;
      }

      .cls-7 {
        stroke: #363636;
      }

      .cls-7, .cls-9 {
        stroke-width: .76px;
      }

      .cls-15 {
        fill: #ff5b00;
      }

      .cls-16 {
        fill: #e64c00;
      }

      .cls-17 {
        clip-path: url(#clippath);
      }

      .cls-18 {
        fill: #353535;
      }

      .cls-19 {
        fill: #6d6d6d;
      }

      .cls-10 {
        stroke-width: .8px;
      }

      .cls-20 {
        fill: #f7a22d;
      }
    </style>
    <clipPath id="clippath">
      <rect class="cls-8" x="6.64" y="7.17" width="160.53" height="198.84" rx="14.3" ry="14.3"/>
    </clipPath>
  </defs>
  <rect class="cls-2" x=".24" y="0" width="173.34" height="246.49" rx="13.2" ry="13.2"/>
  <rect class="cls-19" x="6.64" y="7.17" width="160.53" height="198.84" rx="14.3" ry="14.3"/>
  <g class="cls-17">
    <g>
      <polygon class="cls-15" points="67.97 16.71 26.12 56.08 23.91 39.26 .24 81.43 2.61 107.42 10.87 132.44 37.98 147.46 84.49 133.23 95.51 111.66 79.91 59.95 79.41 38.67 65.43 48.08 67.97 16.71"/>
      <polygon class="cls-20" points="46.56 63.65 27.97 89.73 20.68 83.9 17.31 97.4 20.15 123.72 41.67 136.05 77.26 122.13 65.82 92.3 65.82 71.08 46.56 86.43 46.56 63.65"/>
    </g>
    <g>
      <g>
        <polygon class="cls-12" points="131.72 114.37 144.24 119.98 136.02 139.78 118.1 132.96 119.69 114.37 131.72 114.37"/>
        <polyline class="cls-5" points="132.36 137.98 134.43 128.45 120.23 121.13"/>
        <polyline class="cls-5" points="129.25 119.14 138.06 127.07 134.43 138.85"/>
      </g>
      <polygon class="cls-12" points="53.62 68.13 84.21 46.66 134.17 66.14 128.68 107.71 115.32 115.55 53.62 68.13"/>
      <g>
        <polygon class="cls-14" points="121.2 106.99 130.85 103.58 131.87 119.44 121.2 121.57 121.2 106.99"/>
        <path class="cls-4" d="M121.37,114.97c1.46-1.85,2.92-3.69,4.39-5.54,.82-.34,1.64-.69,2.46-1.03"/>
      </g>
      <polygon class="cls-14" points="105.99 139.7 114.59 164.6 101.5 182.69 82.69 164.6 78.58 150.42 105.99 139.7"/>
      <path class="cls-13" d="M48.55,159.28c-10.33,22.43-30.63,65.47-30.63,65.47l142.76-1.61-17.12-62.88-30.51-.13-11.67,8.51,.12,12.85-3.72-12.35-16.63-9.85"/>
      <path class="cls-11" d="M121.27,88.85l.1,39.82c0,2.76-1.45,5.32-3.83,6.72l-33.65,19.77c-2.08,1.22-4.7,1.05-6.6-.44l-21.44-16.77c-2.42-1.9-3.81-4.82-3.75-7.9l.62-40.94,29.8-18.01,38.75,17.75Z"/>
      <path class="cls-12" d="M94.88,75.95c-14.53,8.36-42.19,25.05-42.19,25.05l.07-32.87s22.24,.22,31.78-.12c3.43,2.97,6.91,4.98,10.34,7.95Z"/>
      <path class="cls-10" d="M76.65,99.21c.24,8.44,.73,25.31,.73,25.31l-7.7,.15s-1.94-18.26,6.98-25.47Z"/>
      <path class="cls-6" d="M120.99,125.2c-1.9-.34-5.8-.78-10.27,.74-1.75,.6-7.19,2.55-10.52,8.32-3.19,5.53-2.39,10.99-2.1,12.55"/>
      <path class="cls-6" d="M66.68,146.42c.16-1.35,1.11-10.35-3.79-16.44-3.87-4.82-8.93-6.24-10.58-6.63"/>
      <path class="cls-2" d="M70.6,67.77s34.45,27.35,51.7,41.94c-.47-13.45-1.45-42.33-1.45-42.33l-50.25,.39Z"/>
      <path class="cls-3" d="M75.69,137.58s1.21-2.97,4.95-4.92c3.74-1.95,6.82,2.86,6.82,2.86"/>
      <polygon class="cls-2" points="66.68 102.3 48.78 98.7 49.04 91.04 67.73 98.38 66.68 102.3"/>
      <polygon class="cls-1" points="122.38 45.61 119.75 56.84 125.71 59.87 132.66 52.27 142.12 55.53 150.48 47.19 143.97 37.57 137.01 38.37 139.77 29.92 133.13 25.41 124.42 28.24 123.93 35.28 117.59 32.31 111.85 36.93 114.58 42.82 122.38 45.61"/>
      <g>
        <polygon class="cls-16" points="157.68 62.8 169.79 70.57 150.03 86.55 142.8 82.38 157.68 62.8"/>
        <polygon class="cls-16" points="141.24 85.07 148 89.13 142.41 94.53 137.62 90 141.24 85.07"/>
      </g>
      <g>
        <path class="cls-18" d="M57.65,108.84c-1.53,1.5-.85,3.93-.68,4.56,.19,.7,.74,2.65,2.34,3.07,1.13,.29,2.1-.35,2.15-.39,1.57-1.08,1.26-3.59,1.15-4.45-.14-1.12-.39-3.08-1.84-3.65-1.11-.43-2.4,.14-3.13,.85Z"/>
        <path class="cls-12" d="M52.03,111.82c1.02-.79,1.39-1.86,5.1-3.08,3.71-1.22,8.19,1.77,8.19,1.77l.52-.84s-3.99-2.86-7.92-2.25-5.7,2.6-6.64,3.37l.76,1.03Z"/>
        <polygon class="cls-12" points="50.67 108.76 51.28 110.79 52.86 109.78 50.67 108.76"/>
      </g>
      <g>
        <path class="cls-18" d="M97.19,108.84c1.53,1.5,.85,3.93,.68,4.56-.19,.7-.74,2.65-2.34,3.07-1.13,.29-2.1-.35-2.15-.39-1.57-1.08-1.26-3.59-1.15-4.45,.14-1.12,.39-3.08,1.84-3.65,1.11-.43,2.4,.14,3.13,.85Z"/>
        <path class="cls-12" d="M102.81,111.82c-1.02-.79-1.39-1.86-5.1-3.08s-8.19,1.77-8.19,1.77l-.52-.84s3.99-2.86,7.92-2.25,5.7,2.6,6.64,3.37l-.76,1.03Z"/>
        <polygon class="cls-12" points="104.17 108.76 103.56 110.79 101.98 109.78 104.17 108.76"/>
      </g>
      <g>
        <path class="cls-2" d="M70.26,67.76s34.62,27.48,51.94,42.14c-.43-10.44-.79-20.98-1.08-31.62-.11-3.86-.2-7.7-.29-11.53-16.86,.34-33.72,.68-50.58,1.01Z"/>
        <line class="cls-9" x1="133.59" y1="66.44" x2="52.72" y2="68.38"/>
        <line class="cls-7" x1="105.63" y1="64.09" x2="121.27" y2="108.21"/>
        <line class="cls-7" x1="86.83" y1="66.03" x2="121.02" y2="107.5"/>
      </g>
      <polygon class="cls-2" points="88.07 101.72 105.97 98.12 105.7 90.47 87.01 97.8 88.07 101.72"/>
      <g>
        <polygon class="cls-1" points="116.6 71.25 114.51 79.48 105.53 77.49 107.04 82.78 116.86 83.45 120.82 73.4 116.6 71.25"/>
        <polygon class="cls-1" points="123.73 74.34 120.82 83.89 131.69 86.43 131.69 82.68 125.7 81.98 128.46 75.65 123.73 74.34"/>
        <polygon class="cls-1" points="106.31 85.01 116.04 87.19 116.04 98.01 110.02 98.01 111.69 90.58 105.53 90.39 106.31 85.01"/>
        <polygon class="cls-1" points="119.91 87.6 119.91 98.03 123.62 98.6 123.55 91.83 130.55 95.25 132.61 89.33 119.91 87.6"/>
      </g>
    </g>
    <path class="cls-20" d="M153.38,140.35l-30.66,28.85-.69-11.04s-5.44,6.97-9.15,12.25c-2.61,3.72-5.09,13.45-5.72,17.95-.75,5.36-1.68,18.46-1.68,18.46l-2.63,16.48,62.62,2.42,16.76-24.77-22.9-28.68,2.42-15.82-10.24,6.89,1.86-22.98Z"/>
    <polygon class="cls-16" points="138.34 170.33 123.91 187.72 121.39 183.19 118.75 197.75 115.82 220.82 160.75 217.14 147.82 188.63 148.87 178.41 140.3 181.46 138.34 170.33"/>
  </g>
  <g>
    <path class="cls-1" d="M17.02,231.7l-3.59-5.35v5.35h-3.87v-12.34h3.87v5.19l3.54-5.19h4.38l-4.25,5.91,4.53,6.43h-4.6Z"/>
    <path class="cls-1" d="M33.05,227.47h-6.22c.06,.85,.41,1.27,1.06,1.27,.42,0,.72-.19,.91-.57h4.1c-.14,.7-.43,1.32-.88,1.87-.45,.55-1.01,.99-1.69,1.31s-1.43,.48-2.24,.48c-.98,0-1.85-.2-2.61-.61-.76-.41-1.35-.99-1.78-1.75-.42-.76-.64-1.65-.64-2.68s.21-1.91,.64-2.68c.42-.76,1.02-1.35,1.78-1.75,.76-.41,1.63-.61,2.61-.61s1.84,.2,2.61,.6c.76,.4,1.35,.97,1.78,1.72,.42,.74,.64,1.62,.64,2.63,0,.27-.02,.52-.05,.77Zm-3.87-1.69c0-.32-.1-.57-.31-.74s-.47-.25-.78-.25c-.69,0-1.09,.33-1.2,.99h2.3Z"/>
    <path class="cls-1" d="M40.39,222.14c.46,.26,.82,.62,1.06,1.07v-1.34h3.85v9.66c0,.92-.17,1.76-.5,2.51-.34,.75-.88,1.36-1.63,1.81-.75,.45-1.71,.68-2.89,.68-1.58,0-2.83-.37-3.76-1.11s-1.45-1.74-1.58-3.01h3.8c.1,.51,.52,.77,1.25,.77,.45,0,.81-.12,1.06-.35,.25-.23,.38-.67,.38-1.31v-1.17c-.24,.45-.6,.81-1.06,1.07-.47,.26-1.02,.39-1.66,.39-.77,0-1.46-.2-2.07-.6-.62-.4-1.1-.98-1.46-1.74s-.53-1.66-.53-2.69,.18-1.93,.53-2.69,.84-1.34,1.46-1.74c.62-.4,1.31-.6,2.07-.6,.64,0,1.19,.13,1.66,.39Zm.66,3.43c-.27-.29-.61-.44-1.03-.44s-.76,.14-1.03,.44c-.27,.29-.4,.7-.4,1.22s.13,.93,.4,1.22c.27,.29,.61,.44,1.03,.44s.76-.15,1.03-.44c.27-.29,.4-.7,.4-1.22s-.13-.93-.4-1.22Z"/>
    <path class="cls-1" d="M48.25,220.55c-.41-.36-.61-.81-.61-1.36s.2-1.02,.61-1.39c.41-.37,.95-.55,1.62-.55s1.2,.18,1.6,.55,.61,.83,.61,1.39-.2,1-.61,1.36c-.41,.36-.94,.54-1.6,.54s-1.21-.18-1.62-.54Zm3.54,1.32v9.83h-3.87v-9.83h3.87Z"/>
    <path class="cls-1" d="M54.42,224.09c.35-.76,.84-1.34,1.46-1.74,.62-.4,1.31-.6,2.07-.6,.64,0,1.19,.13,1.66,.39s.82,.62,1.06,1.07v-1.34h3.85v9.83h-3.85v-1.34c-.24,.45-.6,.81-1.06,1.07-.46,.26-1.02,.39-1.66,.39-.77,0-1.46-.2-2.07-.6-.62-.4-1.1-.98-1.46-1.74s-.53-1.66-.53-2.69,.18-1.93,.53-2.69Zm5.85,1.47c-.27-.29-.61-.44-1.03-.44s-.76,.14-1.03,.44-.4,.7-.4,1.22,.13,.93,.4,1.22c.27,.29,.61,.44,1.03,.44s.76-.15,1.03-.44c.27-.29,.4-.7,.4-1.22s-.13-.93-.4-1.22Z"/>
    <path class="cls-1" d="M73.25,228.41v3.29h-1.46c-2.7,0-4.04-1.34-4.04-4.03v-2.58h-1.22v-3.22h1.22v-2.37h3.87v2.37h1.6v3.22h-1.6v2.65c0,.23,.05,.4,.17,.51,.11,.1,.29,.16,.55,.16h.92Z"/>
    <path class="cls-1" d="M75.61,224.09c.35-.76,.84-1.34,1.46-1.74,.62-.4,1.31-.6,2.07-.6,.64,0,1.19,.13,1.66,.39,.46,.26,.82,.62,1.06,1.07v-1.34h3.85v9.83h-3.85v-1.34c-.24,.45-.6,.81-1.06,1.07-.47,.26-1.02,.39-1.66,.39-.77,0-1.46-.2-2.07-.6-.62-.4-1.1-.98-1.46-1.74s-.53-1.66-.53-2.69,.18-1.93,.53-2.69Zm5.85,1.47c-.27-.29-.61-.44-1.03-.44s-.76,.14-1.03,.44c-.27,.29-.4,.7-.4,1.22s.13,.93,.4,1.22c.27,.29,.61,.44,1.03,.44s.76-.15,1.03-.44c.27-.29,.4-.7,.4-1.22s-.13-.93-.4-1.22Z"/>
    <path class="cls-1" d="M97.85,222.93c.63,.76,.95,1.78,.95,3.07v5.7h-3.85v-5.21c0-.46-.12-.83-.38-1.11-.25-.27-.58-.41-1-.41s-.77,.14-1.01,.41c-.24,.27-.37,.64-.37,1.11v5.21h-3.87v-9.83h3.87v1.5c.3-.46,.71-.84,1.21-1.13,.51-.29,1.11-.44,1.8-.44,1.13,0,2.01,.38,2.64,1.13Z"/>
    <path class="cls-1" d="M111.48,231.7l-2.42-3.92v3.92h-3.87v-12.9h3.87v6.75l2.46-3.68h4.5l-3.68,4.95,3.77,4.88h-4.62Z"/>
    <path class="cls-1" d="M119.84,231.22c-.79-.41-1.41-.99-1.86-1.75s-.67-1.65-.67-2.68,.22-1.91,.67-2.68,1.07-1.35,1.86-1.75c.79-.41,1.68-.61,2.67-.61s1.88,.2,2.67,.61c.79,.41,1.41,.99,1.86,1.75,.45,.76,.67,1.65,.67,2.68s-.22,1.91-.67,2.68c-.45,.76-1.07,1.35-1.86,1.75-.79,.41-1.68,.61-2.67,.61s-1.88-.2-2.67-.61Zm3.57-3.16c.24-.29,.37-.71,.37-1.26s-.12-.98-.37-1.26-.55-.43-.91-.43-.66,.14-.91,.43-.37,.71-.37,1.26,.12,.98,.36,1.26,.54,.43,.92,.43,.66-.14,.91-.43Z"/>
    <path class="cls-1" d="M135.92,228.41v3.29h-1.46c-2.7,0-4.04-1.34-4.04-4.03v-2.58h-1.22v-3.22h1.22v-2.37h3.87v2.37h1.6v3.22h-1.6v2.65c0,.23,.06,.4,.17,.51,.11,.1,.29,.16,.55,.16h.92Z"/>
    <path class="cls-1" d="M140.27,231.22c-.79-.41-1.41-.99-1.86-1.75s-.67-1.65-.67-2.68,.22-1.91,.67-2.68,1.07-1.35,1.86-1.75c.79-.41,1.68-.61,2.67-.61s1.88,.2,2.67,.61c.79,.41,1.41,.99,1.86,1.75,.45,.76,.67,1.65,.67,2.68s-.22,1.91-.67,2.68c-.45,.76-1.07,1.35-1.86,1.75-.79,.41-1.68,.61-2.67,.61s-1.88-.2-2.67-.61Zm3.57-3.16c.24-.29,.37-.71,.37-1.26s-.12-.98-.37-1.26-.55-.43-.91-.43-.66,.14-.91,.43-.37,.71-.37,1.26,.12,.98,.36,1.26,.54,.43,.92,.43,.66-.14,.91-.43Z"/>
    <path class="cls-1" d="M155.54,222.32c.57-.34,1.16-.52,1.78-.52v4.13h-1.1c-.73,0-1.27,.13-1.61,.38-.34,.26-.51,.71-.51,1.36v4.03h-3.87v-9.83h3.87v1.81c.39-.57,.88-1.03,1.45-1.37Z"/>
    <path class="cls-1" d="M160.72,231.3c-.41-.36-.61-.81-.61-1.36s.2-1.02,.61-1.38c.41-.37,.95-.55,1.62-.55s1.2,.18,1.6,.55c.41,.37,.61,.83,.61,1.38s-.2,1-.61,1.36c-.41,.36-.94,.54-1.6,.54s-1.21-.18-1.62-.54Zm3.73-12.76l-.45,8.26h-3.31l-.45-8.26h4.22Z"/>
  </g>
</svg>