<?xml version="1.0" encoding="UTF-8"?>
<svg id="Layer_2" data-name="Layer 2" xmlns="http://www.w3.org/2000/svg" xmlns:xlink="http://www.w3.org/1999/xlink" viewBox="0 0 173.81 246.49">
  <defs>
    <style>
      .cls-1 {
        fill: #fff;
      }

      .cls-2 {
        fill: #181216;
      }

      .cls-3 {
        stroke: #b72c2c;
        stroke-width: .71px;
      }

      .cls-3, .cls-4, .cls-5, .cls-6, .cls-7, .cls-8, .cls-9 {
        fill: none;
      }

      .cls-3, .cls-4, .cls-5, .cls-6, .cls-7, .cls-9, .cls-10 {
        stroke-linejoin: round;
      }

      .cls-3, .cls-4, .cls-5, .cls-7, .cls-9 {
        stroke-linecap: square;
      }

      .cls-11 {
        fill: #ef9d7f;
      }

      .cls-12 {
        fill: #363636;
      }

      .cls-4, .cls-6 {
        stroke-width: .76px;
      }

      .cls-4, .cls-6, .cls-10 {
        stroke: #f80500;
      }

      .cls-5 {
        stroke-width: .76px;
      }

      .cls-5, .cls-9 {
        stroke: #181216;
      }

      .cls-13, .cls-10 {
        fill: #f55;
      }

      .cls-6, .cls-10 {
        stroke-linecap: round;
      }

      .cls-14 {
        fill: #e58e73;
      }

      .cls-7 {
        stroke: #363636;
      }

      .cls-7, .cls-9 {
        stroke-width: .76px;
      }

      .cls-15 {
        fill: #ff5b00;
      }

      .cls-16 {
        fill: #e64c00;
      }

      .cls-17 {
        clip-path: url(#clippath);
      }

      .cls-18 {
        fill: #353535;
      }

      .cls-19 {
        fill: #6d6d6d;
      }

      .cls-10 {
        stroke-width: .8px;
      }

      .cls-20 {
        fill: #f7a22d;
      }
    </style>
    <clipPath id="clippath">
      <rect class="cls-8" x="6.64" y="7.17" width="160.53" height="198.84" rx="14.3" ry="14.3"/>
    </clipPath>
  </defs>
  <rect class="cls-2" x=".24" y="0" width="173.34" height="246.49" rx="13.2" ry="13.2"/>
  <rect class="cls-19" x="6.64" y="7.17" width="160.53" height="198.84" rx="14.3" ry="14.3"/>
  <g class="cls-17">
    <g>
      <polygon class="cls-15" points="67.97 16.71 26.12 56.08 23.91 39.26 .24 81.43 2.61 107.42 10.87 132.44 37.98 147.46 84.49 133.23 95.51 111.66 79.91 59.95 79.41 38.67 65.43 48.08 67.97 16.71"/>
      <polygon class="cls-20" points="46.56 63.65 27.97 89.73 20.68 83.9 17.31 97.4 20.15 123.72 41.67 136.05 77.26 122.13 65.82 92.3 65.82 71.08 46.56 86.43 46.56 63.65"/>
    </g>
    <g>
      <g>
        <polygon class="cls-12" points="131.72 114.37 144.24 119.98 136.02 139.78 118.1 132.96 119.69 114.37 131.72 114.37"/>
        <polyline class="cls-5" points="132.36 137.98 134.43 128.45 120.23 121.13"/>
        <polyline class="cls-5" points="129.25 119.14 138.06 127.07 134.43 138.85"/>
      </g>
      <polygon class="cls-12" points="53.62 68.13 84.21 46.66 134.17 66.14 128.68 107.71 115.32 115.55 53.62 68.13"/>
      <g>
        <polygon class="cls-14" points="121.2 106.99 130.85 103.58 131.87 119.44 121.2 121.57 121.2 106.99"/>
        <path class="cls-4" d="M121.37,114.97c1.46-1.85,2.92-3.69,4.39-5.54,.82-.34,1.64-.69,2.46-1.03"/>
      </g>
      <polygon class="cls-14" points="105.99 139.7 114.59 164.6 101.5 182.69 82.69 164.6 78.58 150.42 105.99 139.7"/>
      <path class="cls-13" d="M48.55,159.28c-10.33,22.43-30.63,65.47-30.63,65.47l142.76-1.61-17.12-62.88-30.51-.13-11.67,8.51,.12,12.85-3.72-12.35-16.63-9.85"/>
      <path class="cls-11" d="M121.27,88.85l.1,39.82c0,2.76-1.45,5.32-3.83,6.72l-33.65,19.77c-2.08,1.22-4.7,1.05-6.6-.44l-21.44-16.77c-2.42-1.9-3.81-4.82-3.75-7.9l.62-40.94,29.8-18.01,38.75,17.75Z"/>
      <path class="cls-12" d="M94.88,75.95c-14.53,8.36-42.19,25.05-42.19,25.05l.07-32.87s22.24,.22,31.78-.12c3.43,2.97,6.91,4.98,10.34,7.95Z"/>
      <path class="cls-10" d="M76.65,99.21c.24,8.44,.73,25.31,.73,25.31l-7.7,.15s-1.94-18.26,6.98-25.47Z"/>
      <path class="cls-6" d="M120.99,125.2c-1.9-.34-5.8-.78-10.27,.74-1.75,.6-7.19,2.55-10.52,8.32-3.19,5.53-2.39,10.99-2.1,12.55"/>
      <path class="cls-6" d="M66.68,146.42c.16-1.35,1.11-10.35-3.79-16.44-3.87-4.82-8.93-6.24-10.58-6.63"/>
      <path class="cls-2" d="M70.6,67.77s34.45,27.35,51.7,41.94c-.47-13.45-1.45-42.33-1.45-42.33l-50.25,.39Z"/>
      <path class="cls-3" d="M75.69,137.58s1.21-2.97,4.95-4.92c3.74-1.95,6.82,2.86,6.82,2.86"/>
      <polygon class="cls-2" points="66.68 102.3 48.78 98.7 49.04 91.04 67.73 98.38 66.68 102.3"/>
      <polygon class="cls-1" points="122.38 45.61 119.75 56.84 125.71 59.87 132.66 52.27 142.12 55.53 150.48 47.19 143.97 37.57 137.01 38.37 139.77 29.92 133.13 25.41 124.42 28.24 123.93 35.28 117.59 32.31 111.85 36.93 114.58 42.82 122.38 45.61"/>
      <g>
        <polygon class="cls-16" points="157.68 62.8 169.79 70.57 150.03 86.55 142.8 82.38 157.68 62.8"/>
        <polygon class="cls-16" points="141.24 85.07 148 89.13 142.41 94.53 137.62 90 141.24 85.07"/>
      </g>
      <g>
        <path class="cls-18" d="M57.65,108.84c-1.53,1.5-.85,3.93-.68,4.56,.19,.7,.74,2.65,2.34,3.07,1.13,.29,2.1-.35,2.15-.39,1.57-1.08,1.26-3.59,1.15-4.45-.14-1.12-.39-3.08-1.84-3.65-1.11-.43-2.4,.14-3.13,.85Z"/>
        <path class="cls-12" d="M52.03,111.82c1.02-.79,1.39-1.86,5.1-3.08,3.71-1.22,8.19,1.77,8.19,1.77l.52-.84s-3.99-2.86-7.92-2.25-5.7,2.6-6.64,3.37l.76,1.03Z"/>
        <polygon class="cls-12" points="50.67 108.76 51.28 110.79 52.86 109.78 50.67 108.76"/>
      </g>
      <g>
        <path class="cls-18" d="M97.19,108.84c1.53,1.5,.85,3.93,.68,4.56-.19,.7-.74,2.65-2.34,3.07-1.13,.29-2.1-.35-2.15-.39-1.57-1.08-1.26-3.59-1.15-4.45,.14-1.12,.39-3.08,1.84-3.65,1.11-.43,2.4,.14,3.13,.85Z"/>
        <path class="cls-12" d="M102.81,111.82c-1.02-.79-1.39-1.86-5.1-3.08s-8.19,1.77-8.19,1.77l-.52-.84s3.99-2.86,7.92-2.25,5.7,2.6,6.64,3.37l-.76,1.03Z"/>
        <polygon class="cls-12" points="104.17 108.76 103.56 110.79 101.98 109.78 104.17 108.76"/>
      </g>
      <g>
        <path class="cls-2" d="M70.26,67.76s34.62,27.48,51.94,42.14c-.43-10.44-.79-20.98-1.08-31.62-.11-3.86-.2-7.7-.29-11.53-16.86,.34-33.72,.68-50.58,1.01Z"/>
        <line class="cls-9" x1="133.59" y1="66.44" x2="52.72" y2="68.38"/>
        <line class="cls-7" x1="105.63" y1="64.09" x2="121.27" y2="108.21"/>
        <line class="cls-7" x1="86.83" y1="66.03" x2="121.02" y2="107.5"/>
      </g>
      <polygon class="cls-2" points="88.07 101.72 105.97 98.12 105.7 90.47 87.01 97.8 88.07 101.72"/>
      <g>
        <polygon class="cls-1" points="116.6 71.25 114.51 79.48 105.53 77.49 107.04 82.78 116.86 83.45 120.82 73.4 116.6 71.25"/>
        <polygon class="cls-1" points="123.73 74.34 120.82 83.89 131.69 86.43 131.69 82.68 125.7 81.98 128.46 75.65 123.73 74.34"/>
        <polygon class="cls-1" points="106.31 85.01 116.04 87.19 116.04 98.01 110.02 98.01 111.69 90.58 105.53 90.39 106.31 85.01"/>
        <polygon class="cls-1" points="119.91 87.6 119.91 98.03 123.62 98.6 123.55 91.83 130.55 95.25 132.61 89.33 119.91 87.6"/>
      </g>
    </g>
    <path class="cls-20" d="M153.38,140.35l-30.66,28.85-.69-11.04s-5.44,6.97-9.15,12.25c-2.61,3.72-5.09,13.45-5.72,17.95-.75,5.36-1.68,18.46-1.68,18.46l-2.63,16.48,62.62,2.42,16.76-24.77-22.9-28.68,2.42-15.82-10.24,6.89,1.86-22.98Z"/>
    <polygon class="cls-16" points="138.34 170.33 123.91 187.72 121.39 183.19 118.75 197.75 115.82 220.82 160.75 217.14 147.82 188.63 148.87 178.41 140.3 181.46 138.34 170.33"/>
  </g>
  <g>
    <path class="cls-1" d="M68.28,232.91l-.7,.38h-6.13l5.84,1.06-.48,2.74-8.56-1.54,.41-2.26h-3.12l.41,2.26-8.53,1.54-.5-2.74,5.87-1.06h-6.06l-.7-.38,.41-2.38,.55,.34h.6v-9.16h5.05v9.16h9.04v-.75h-8.46v-2.21h8.46v-.72h-8.46v-2.21h8.46v-.72h-8.46v-2.19h8.46v-.75h-13.68l-.65-.36,.38-2.21,.5,.29h6.27v-.67h-7.57l-.7-.41,.41-2.36,.55,.31h7.31v-.91h5.29v.91h7.31l.55-.31,.41,2.36-.7,.41h-7.57v.67h6.92v11.83h.6l.53-.34,.43,2.38Z"/>
    <path class="cls-1" d="M81.29,215.72v21.03h-4.18l-.82-.48,.5-2.81,.58,.34v-2.64h-1.44v5.6h-3.92v-17.12h3.92v2.62h1.44v-3.41h-5.03l-.89-.53,.53-3.01,.72,.41h8.58Zm-5.36,12.31h1.44v-2.64h-1.44v2.64Zm16.61-7.96h-10l-.89-.53,.53-3,.7,.41h2.26v-1.68h4.81v1.68h2.24l.7-.41,.53,3-.87,.53Zm.84,13.1l.53,3.03-.89,.5h-4.83v-11.56h-5.36l-.89-.5,.53-3,.7,.41h9.47v11.54h.05l.7-.41Zm-10.82,3.53v-10.72h4.45v10.72h-4.45Z"/>
    <path class="cls-1" d="M97.06,219.16h3.87v12.04c0,2.21-.15,4.1-.46,5.67l-3.82-.58c.27-1.14,.41-2.67,.41-4.59v-12.55Zm9.16-3.63v21.23h-4.28l-.82-.48,.48-2.81,.65,.38h.1v-3.05h-.87v-3.13h.87v-2.28h-.87v-3.12h.87v-3.61h-4.76l-.89-.5,.53-3.03,.72,.41h8.27Zm4.66,4.4v10.1c0,2.85-.33,5.2-.99,7.04l-3.61-.87c.54-1.54,.82-3.53,.82-5.99v-10.29h3.77Zm7.24-.53h-10.55l-.89-.5,.53-3,.7,.38h2.88v-1.2h4.81v1.2h2.16l.7-.38,.53,3-.87,.5Zm.41,13.7l.53,3.03-.89,.5h-6.49l-.89-.5,.53-3.03,.7,.41h.84v-6.25h-.87l-.87-.5,.53-3.03,.7,.41h.51v-3.68h4.13v3.68h.5l.7-.41,.53,3.03-.87,.5h-.87v6.25h.84l.7-.41Z"/>
    <path class="cls-1" d="M132.9,231.68c.59,.58,.89,1.28,.89,2.12s-.3,1.54-.89,2.12c-.58,.59-1.28,.89-2.12,.89s-1.54-.3-2.12-.89c-.59-.58-.89-1.28-.89-2.12s.3-1.54,.89-2.12c.58-.59,1.28-.89,2.12-.89s1.54,.3,2.12,.89Zm.53-16.15v14.35h-5.29v-14.35h5.29Z"/>
  </g>
</svg>