<?xml version="1.0" encoding="UTF-8"?>
<svg id="Layer_2" data-name="Layer 2" xmlns="http://www.w3.org/2000/svg" xmlns:xlink="http://www.w3.org/1999/xlink" viewBox="0 0 199.5 283.47">
  <defs>
    <style>
      .cls-1 {
        fill: #fff;
      }

      .cls-2 {
        fill: #181216;
      }

      .cls-3 {
        fill: #ef9d7f;
      }

      .cls-4 {
        fill: #363636;
      }

      .cls-5 {
        fill: #f55;
      }

      .cls-6 {
        fill: #e58e73;
      }

      .cls-7 {
        fill: #f80500;
      }

      .cls-8 {
        fill: #ff5b00;
      }

      .cls-9 {
        fill: #e64c00;
      }

      .cls-10 {
        clip-path: url(#clippath);
      }

      .cls-11 {
        fill: none;
      }

      .cls-12 {
        fill: #353535;
      }

      .cls-13 {
        fill: #b72c2c;
      }

      .cls-14 {
        fill: #6d6d6d;
      }

      .cls-15 {
        fill: #f7a22d;
      }
    </style>
    <clipPath id="clippath">
      <rect class="cls-11" x="20.54" y="28.56" width="160.53" height="198.84" rx="14.3" ry="14.3"/>
    </clipPath>
  </defs>
  <rect class="cls-2" x="14.14" y="21.39" width="173.34" height="246.49" rx="13.2" ry="13.2"/>
  <g>
    <path class="cls-1" d="M88,240.43c1,.56,1.78,1.34,2.33,2.34,.55,1,.82,2.17,.82,3.48s-.27,2.46-.82,3.47c-.55,1.01-1.33,1.79-2.34,2.35-1.01,.56-2.18,.83-3.51,.83h-4.77v-13.31h4.77c1.34,0,2.51,.28,3.52,.83Zm-.98,8.66c.65-.67,.98-1.62,.98-2.84s-.33-2.18-.98-2.86c-.65-.68-1.57-1.02-2.74-1.02h-1.47v7.74h1.47c1.17,0,2.08-.33,2.74-1.01Z"/>
    <path class="cls-1" d="M94.03,240.72c-.34-.33-.52-.75-.52-1.24s.17-.93,.52-1.26,.79-.5,1.33-.5,.97,.17,1.31,.5c.34,.33,.52,.75,.52,1.26s-.17,.91-.52,1.24c-.34,.33-.78,.5-1.31,.5s-.99-.17-1.33-.5Zm2.87,1.6v10.58h-3.1v-10.58h3.1Z"/>
    <path class="cls-1" d="M104.52,242.71c.54-.33,1.15-.5,1.81-.5v3.43h-.85c-.77,0-1.35,.17-1.74,.52s-.58,.96-.58,1.83v4.91h-3.1v-10.58h3.1v1.76c.36-.58,.82-1.04,1.36-1.38Z"/>
    <path class="cls-1" d="M114.36,250.15v2.75h-1.58c-1.12,0-2-.29-2.63-.86s-.94-1.51-.94-2.82v-4.21h-1.23v-2.69h1.23v-2.58h3.1v2.58h2.03v2.69h-2.03v4.25c0,.32,.07,.54,.22,.68,.15,.14,.39,.21,.73,.21h1.11Z"/>
    <path class="cls-1" d="M118.11,252.55c-.34-.33-.52-.75-.52-1.24s.17-.93,.52-1.27c.34-.34,.79-.51,1.33-.51s.97,.17,1.31,.51c.34,.34,.52,.77,.52,1.27s-.17,.91-.52,1.24c-.34,.33-.78,.5-1.31,.5s-.99-.17-1.33-.5Zm2.96-13.43l-.36,9.08h-2.63l-.36-9.08h3.35Z"/>
  </g>
  <rect class="cls-14" x="20.54" y="28.56" width="160.53" height="198.84" rx="14.3" ry="14.3"/>
  <g class="cls-10">
    <g>
      <polygon class="cls-8" points="81.87 38.1 40.02 77.47 37.8 60.65 14.14 102.82 16.51 128.82 24.77 153.83 51.88 168.85 98.39 154.62 109.4 133.05 93.8 81.34 93.31 60.07 79.33 69.47 81.87 38.1"/>
      <polygon class="cls-15" points="60.46 85.04 41.87 111.12 34.58 105.3 31.21 118.8 34.05 145.11 55.57 157.45 91.16 143.52 79.72 113.69 79.72 92.48 60.46 107.83 60.46 85.04"/>
    </g>
    <g>
      <g>
        <polygon class="cls-4" points="145.62 135.77 158.14 141.37 149.92 161.17 131.99 154.36 133.59 135.77 145.62 135.77"/>
        <path class="cls-2" d="M146.55,159.83l-.74-.16,2.08-9.63-14.27-7.36,.35-.68,14.53,7.49c.15,.08,.23,.25,.2,.42l-2.15,9.91Z"/>
        <path class="cls-2" d="M148.58,160.71l-.73-.22,3.68-11.91-8.92-8.02,.51-.56,9.1,8.18c.11,.1,.15,.25,.11,.39l-3.75,12.14Z"/>
      </g>
      <polygon class="cls-4" points="67.52 89.52 98.1 68.05 148.07 87.54 142.57 129.11 129.22 136.94 67.52 89.52"/>
      <g>
        <polygon class="cls-6" points="135.1 128.39 144.75 124.97 145.77 140.83 135.1 142.96 135.1 128.39"/>
        <path class="cls-7" d="M135.33,136.89l-.59-.47,4.62-5.84s.09-.09,.15-.11l2.81-1.18,.29,.7-2.72,1.14-4.56,5.76Z"/>
      </g>
      <polygon class="cls-6" points="119.89 161.09 128.49 185.99 115.4 204.09 96.59 185.99 92.48 171.81 119.89 161.09"/>
      <path class="cls-5" d="M62.44,180.68c-10.33,22.43-30.63,65.47-30.63,65.47l142.76-1.61-17.12-62.88-30.51-.13-11.67,8.51,.12,12.85-3.72-12.35-16.63-9.85"/>
      <path class="cls-3" d="M135.17,110.24l.1,39.82c0,2.76-1.45,5.32-3.83,6.72l-33.65,19.77c-2.08,1.22-4.7,1.05-6.6-.44l-21.44-16.77c-2.42-1.9-3.81-4.82-3.75-7.9l.62-40.94,29.8-18.01,38.75,17.75Z"/>
      <path class="cls-4" d="M108.78,97.34c-14.53,8.36-42.19,25.05-42.19,25.05l.07-32.87s22.24,.22,31.78-.12c3.43,2.97,6.91,4.98,10.34,7.95Z"/>
      <g>
        <path class="cls-5" d="M90.55,120.6c.24,8.44,.73,25.31,.73,25.31l-7.7,.15s-1.94-18.26,6.98-25.47Z"/>
        <path class="cls-7" d="M83.57,146.47c-.21,0-.38-.16-.4-.36-.08-.75-1.86-18.56,7.12-25.82,.12-.1,.28-.12,.42-.05,.14,.06,.23,.2,.23,.35l.73,25.31c0,.11-.04,.21-.11,.29-.07,.08-.18,.12-.28,.12l-7.7,.15h0Zm6.6-25.01c-7.27,6.73-6.43,21.67-6.23,24.2l6.92-.14-.69-24.06Z"/>
      </g>
      <path class="cls-7" d="M111.99,168.59c-.18,0-.34-.13-.37-.31-.47-2.58-.82-7.66,2.15-12.81,2.3-3.99,5.91-6.85,10.73-8.49,4.2-1.43,8.01-1.2,10.46-.76,.21,.04,.34,.23,.3,.44-.04,.21-.23,.34-.44,.3-2.37-.43-6.04-.65-10.08,.73-4.64,1.58-8.11,4.33-10.32,8.15-2.85,4.93-2.51,9.82-2.06,12.29,.04,.21-.1,.4-.3,.44-.02,0-.05,0-.07,0Z"/>
      <path class="cls-7" d="M80.58,168.2s-.03,0-.04,0c-.21-.02-.36-.21-.33-.42,.27-2.37,.81-10.54-3.71-16.16-3.49-4.34-8-5.94-10.38-6.5-.2-.05-.33-.25-.28-.45,.05-.2,.25-.33,.45-.28,2.47,.58,7.16,2.24,10.79,6.76,4.71,5.85,4.15,14.28,3.87,16.72-.02,.19-.19,.33-.37,.33Z"/>
      <path class="cls-2" d="M84.5,89.16s34.45,27.35,51.7,41.94c-.47-13.45-1.45-42.33-1.45-42.33l-50.25,.39Z"/>
      <path class="cls-13" d="M89.78,159.44l-.66-.27,.13-.33c.05-.13,1.3-3.11,5.11-5.1,3.98-2.07,7.25,2.94,7.28,2.99l.19,.3-.6,.38-.19-.3c-.12-.19-2.94-4.51-6.35-2.74-3.57,1.86-4.77,4.71-4.78,4.73l-.14,.33Z"/>
      <polygon class="cls-2" points="80.58 123.69 62.67 120.09 62.94 112.44 81.63 119.77 80.58 123.69"/>
      <polygon class="cls-1" points="136.28 67 133.65 78.24 139.61 81.26 146.56 73.66 156.02 76.93 164.38 68.59 157.87 58.97 150.91 59.77 153.67 51.32 147.03 46.8 138.32 49.63 137.83 56.68 131.48 53.71 125.75 58.32 128.48 64.21 136.28 67"/>
      <g>
        <polygon class="cls-9" points="171.58 84.19 183.69 91.96 163.93 107.94 156.7 103.77 171.58 84.19"/>
        <polygon class="cls-9" points="155.14 106.46 161.9 110.52 156.31 115.92 151.52 111.39 155.14 106.46"/>
      </g>
      <g>
        <path class="cls-12" d="M71.55,130.23c-1.53,1.5-.85,3.93-.68,4.56,.19,.7,.74,2.65,2.34,3.07,1.13,.29,2.1-.35,2.15-.39,1.57-1.08,1.26-3.59,1.15-4.45-.14-1.12-.39-3.08-1.84-3.65-1.11-.43-2.4,.14-3.13,.85Z"/>
        <path class="cls-4" d="M65.93,133.21c1.02-.79,1.39-1.86,5.1-3.08,3.71-1.22,8.19,1.77,8.19,1.77l.52-.84s-3.99-2.86-7.92-2.25-5.7,2.6-6.64,3.37l.76,1.03Z"/>
        <polygon class="cls-4" points="64.57 130.16 65.18 132.19 66.76 131.17 64.57 130.16"/>
      </g>
      <g>
        <path class="cls-12" d="M111.09,130.23c1.53,1.5,.85,3.93,.68,4.56-.19,.7-.74,2.65-2.34,3.07-1.13,.29-2.1-.35-2.15-.39-1.57-1.08-1.26-3.59-1.15-4.45,.14-1.12,.39-3.08,1.84-3.65,1.11-.43,2.4,.14,3.13,.85Z"/>
        <path class="cls-4" d="M116.71,133.21c-1.02-.79-1.39-1.86-5.1-3.08s-8.19,1.77-8.19,1.77l-.52-.84s3.99-2.86,7.92-2.25,5.7,2.6,6.64,3.37l-.76,1.03Z"/>
        <polygon class="cls-4" points="118.07 130.16 117.46 132.19 115.88 131.17 118.07 130.16"/>
      </g>
      <g>
        <path class="cls-2" d="M84.16,89.15s34.62,27.48,51.94,42.14c-.43-10.44-.79-20.98-1.08-31.62-.11-3.86-.2-7.7-.29-11.53-16.86,.34-33.72,.68-50.58,1.01Z"/>
        <polygon class="cls-2" points="66.25 90.16 66.23 89.4 66.61 89.39 147.85 87.44 147.87 88.2 147.49 88.21 66.25 90.16"/>
        <rect class="cls-4" x="126.97" y="83.76" width=".76" height="47.57" transform="translate(-28.62 48.74) rotate(-19.52)"/>
        <rect class="cls-4" x="117.44" y="80.91" width=".76" height="54.5" transform="translate(-41.89 99.66) rotate(-39.5)"/>
      </g>
      <polygon class="cls-2" points="101.97 123.11 119.87 119.51 119.6 111.86 100.91 119.2 101.97 123.11"/>
      <g>
        <polygon class="cls-1" points="130.5 92.64 128.41 100.87 119.43 98.88 120.94 104.17 130.76 104.84 134.72 94.8 130.5 92.64"/>
        <polygon class="cls-1" points="137.62 95.74 134.72 105.28 145.59 107.83 145.59 104.08 139.6 103.37 142.36 97.05 137.62 95.74"/>
        <polygon class="cls-1" points="120.21 106.41 129.94 108.58 129.94 119.4 123.92 119.4 125.58 111.97 119.43 111.78 120.21 106.41"/>
        <polygon class="cls-1" points="133.8 109 133.8 119.42 137.52 119.99 137.45 113.23 144.45 116.64 146.5 110.73 133.8 109"/>
      </g>
    </g>
    <path class="cls-15" d="M167.28,161.74l-30.66,28.85-.69-11.04s-5.44,6.97-9.15,12.25c-2.61,3.72-5.09,13.45-5.72,17.95-.75,5.36-1.68,18.46-1.68,18.46l-2.63,16.48,62.62,2.42,16.76-24.77-22.9-28.68,2.42-15.82-10.24,6.89,1.86-22.98Z"/>
    <polygon class="cls-9" points="152.24 191.72 137.81 209.11 135.29 204.58 132.65 219.14 129.72 242.21 174.65 238.53 161.72 210.02 162.77 199.8 154.2 202.85 152.24 191.72"/>
  </g>
</svg>