<?xml version="1.0" encoding="UTF-8"?>
<svg id="Layer_2" data-name="Layer 2" xmlns="http://www.w3.org/2000/svg" xmlns:xlink="http://www.w3.org/1999/xlink" viewBox="0 0 173.81 246.49">
  <defs>
    <style>
      .cls-1 {
        fill: #fff;
      }

      .cls-2 {
        fill: #181216;
      }

      .cls-3 {
        fill: #ef9d7f;
      }

      .cls-4 {
        fill: #363636;
      }

      .cls-5 {
        fill: #f55;
      }

      .cls-6 {
        fill: #e58e73;
      }

      .cls-7 {
        fill: #f80500;
      }

      .cls-8 {
        fill: #ff5b00;
      }

      .cls-9 {
        fill: #e64c00;
      }

      .cls-10 {
        clip-path: url(#clippath);
      }

      .cls-11 {
        fill: none;
      }

      .cls-12 {
        fill: #353535;
      }

      .cls-13 {
        fill: #b72c2c;
      }

      .cls-14 {
        fill: #6d6d6d;
      }

      .cls-15 {
        fill: #f7a22d;
      }
    </style>
    <clipPath id="clippath">
      <rect class="cls-11" x="6.41" y="7.17" width="160.53" height="198.84" rx="14.3" ry="14.3"/>
    </clipPath>
  </defs>
  <rect class="cls-2" y="0" width="173.34" height="246.49" rx="13.2" ry="13.2"/>
  <g>
    <path class="cls-1" d="M73.87,219.03c1,.56,1.78,1.34,2.33,2.34,.55,1,.82,2.17,.82,3.48s-.27,2.46-.82,3.47c-.55,1.01-1.33,1.79-2.34,2.35-1.01,.56-2.18,.83-3.51,.83h-4.77v-13.31h4.77c1.34,0,2.51,.28,3.52,.83Zm-.98,8.66c.65-.67,.98-1.62,.98-2.84s-.33-2.18-.98-2.86c-.65-.68-1.57-1.02-2.74-1.02h-1.47v7.74h1.47c1.17,0,2.08-.33,2.74-1.01Z"/>
    <path class="cls-1" d="M79.89,219.33c-.34-.33-.52-.75-.52-1.24s.17-.93,.52-1.26,.79-.5,1.33-.5,.97,.17,1.31,.5c.34,.33,.52,.75,.52,1.26s-.17,.91-.52,1.24c-.34,.33-.78,.5-1.31,.5s-.99-.17-1.33-.5Zm2.87,1.6v10.58h-3.1v-10.58h3.1Z"/>
    <path class="cls-1" d="M90.38,221.32c.54-.33,1.15-.5,1.81-.5v3.43h-.85c-.77,0-1.35,.17-1.74,.52s-.58,.96-.58,1.83v4.91h-3.1v-10.58h3.1v1.76c.36-.58,.82-1.04,1.36-1.38Z"/>
    <path class="cls-1" d="M100.23,228.76v2.75h-1.58c-1.12,0-2-.29-2.63-.86s-.94-1.51-.94-2.82v-4.21h-1.23v-2.69h1.23v-2.58h3.1v2.58h2.03v2.69h-2.03v4.25c0,.32,.07,.54,.22,.68,.15,.14,.39,.21,.73,.21h1.11Z"/>
    <path class="cls-1" d="M103.97,231.16c-.34-.33-.52-.75-.52-1.24s.17-.93,.52-1.27c.34-.34,.79-.51,1.33-.51s.97,.17,1.31,.51c.34,.34,.52,.77,.52,1.27s-.17,.91-.52,1.24c-.34,.33-.78,.5-1.31,.5s-.99-.17-1.33-.5Zm2.96-13.43l-.36,9.08h-2.63l-.36-9.08h3.35Z"/>
  </g>
  <rect class="cls-14" x="6.41" y="7.17" width="160.53" height="198.84" rx="14.3" ry="14.3"/>
  <g class="cls-10">
    <g>
      <polygon class="cls-8" points="67.74 16.71 25.89 56.08 23.67 39.26 0 81.43 2.37 107.42 10.64 132.44 37.74 147.46 84.26 133.23 95.27 111.66 79.67 59.95 79.17 38.67 65.19 48.08 67.74 16.71"/>
      <polygon class="cls-15" points="46.32 63.65 27.73 89.73 20.45 83.9 17.07 97.4 19.92 123.72 41.44 136.05 77.02 122.13 65.58 92.3 65.58 71.08 46.32 86.43 46.32 63.65"/>
    </g>
    <g>
      <g>
        <polygon class="cls-4" points="131.48 114.37 144 119.98 135.78 139.78 117.86 132.96 119.45 114.37 131.48 114.37"/>
        <path class="cls-2" d="M132.42,138.44l-.74-.16,2.08-9.63-14.27-7.36,.35-.68,14.53,7.49c.15,.08,.23,.25,.2,.42l-2.15,9.91Z"/>
        <path class="cls-2" d="M134.44,139.32l-.73-.22,3.68-11.91-8.92-8.02,.51-.56,9.1,8.18c.11,.1,.15,.25,.11,.39l-3.75,12.14Z"/>
      </g>
      <polygon class="cls-4" points="53.38 68.13 83.97 46.66 133.94 66.14 128.44 107.71 115.08 115.55 53.38 68.13"/>
      <g>
        <polygon class="cls-6" points="120.96 106.99 130.62 103.58 131.63 119.44 120.96 121.57 120.96 106.99"/>
        <path class="cls-7" d="M121.2,115.5l-.59-.47,4.62-5.84s.09-.09,.15-.11l2.81-1.18,.29,.7-2.72,1.14-4.56,5.76Z"/>
      </g>
      <polygon class="cls-6" points="105.75 139.7 114.35 164.6 101.26 182.69 82.45 164.6 78.35 150.42 105.75 139.7"/>
      <path class="cls-5" d="M48.31,159.28c-10.33,22.43-30.63,65.47-30.63,65.47l142.76-1.61-17.12-62.88-30.51-.13-11.67,8.51,.12,12.85-3.72-12.35-16.63-9.85"/>
      <path class="cls-3" d="M121.03,88.85l.1,39.82c0,2.76-1.45,5.32-3.83,6.72l-33.65,19.77c-2.08,1.22-4.7,1.05-6.6-.44l-21.44-16.77c-2.42-1.9-3.81-4.82-3.75-7.9l.62-40.94,29.8-18.01,38.75,17.75Z"/>
      <path class="cls-4" d="M94.64,75.95c-14.53,8.36-42.19,25.05-42.19,25.05l.07-32.87s22.24,.22,31.78-.12c3.43,2.97,6.91,4.98,10.34,7.95Z"/>
      <g>
        <path class="cls-5" d="M76.41,99.21c.24,8.44,.73,25.31,.73,25.31l-7.7,.15s-1.94-18.26,6.98-25.47Z"/>
        <path class="cls-7" d="M69.43,125.08c-.21,0-.38-.16-.4-.36-.08-.75-1.86-18.56,7.12-25.82,.12-.1,.28-.12,.42-.05,.14,.06,.23,.2,.23,.35l.73,25.31c0,.11-.04,.21-.11,.29-.07,.08-.18,.12-.28,.12l-7.7,.15h0Zm6.6-25.01c-7.27,6.73-6.43,21.67-6.23,24.2l6.92-.14-.69-24.06Z"/>
      </g>
      <path class="cls-7" d="M97.85,147.2c-.18,0-.34-.13-.37-.31-.47-2.58-.82-7.66,2.15-12.81,2.3-3.99,5.91-6.85,10.73-8.49,4.2-1.43,8.01-1.2,10.46-.76,.21,.04,.34,.23,.3,.44-.04,.21-.23,.34-.44,.3-2.37-.43-6.04-.65-10.08,.73-4.64,1.58-8.11,4.33-10.32,8.15-2.85,4.93-2.51,9.82-2.06,12.29,.04,.21-.1,.4-.3,.44-.02,0-.05,0-.07,0Z"/>
      <path class="cls-7" d="M66.45,146.8s-.03,0-.04,0c-.21-.02-.36-.21-.33-.42,.27-2.37,.81-10.54-3.71-16.16-3.49-4.34-8-5.94-10.38-6.5-.2-.05-.33-.25-.28-.45,.05-.2,.25-.33,.45-.28,2.47,.58,7.16,2.24,10.79,6.76,4.71,5.85,4.15,14.28,3.87,16.72-.02,.19-.19,.33-.37,.33Z"/>
      <path class="cls-2" d="M70.36,67.77s34.45,27.35,51.7,41.94c-.47-13.45-1.45-42.33-1.45-42.33l-50.25,.39Z"/>
      <path class="cls-13" d="M75.65,138.04l-.66-.27,.13-.33c.05-.13,1.3-3.11,5.11-5.1,3.98-2.07,7.25,2.94,7.28,2.99l.19,.3-.6,.38-.19-.3c-.12-.19-2.94-4.51-6.35-2.74-3.57,1.86-4.77,4.71-4.78,4.73l-.14,.33Z"/>
      <polygon class="cls-2" points="66.44 102.3 48.54 98.7 48.8 91.04 67.49 98.38 66.44 102.3"/>
      <polygon class="cls-1" points="122.14 45.61 119.51 56.84 125.47 59.87 132.42 52.27 141.89 55.53 150.25 47.19 143.74 37.57 136.77 38.37 139.54 29.92 132.89 25.41 124.18 28.24 123.7 35.28 117.35 32.31 111.62 36.93 114.35 42.82 122.14 45.61"/>
      <g>
        <polygon class="cls-9" points="157.44 62.8 169.55 70.57 149.79 86.55 142.56 82.38 157.44 62.8"/>
        <polygon class="cls-9" points="141.01 85.07 147.76 89.13 142.18 94.53 137.38 90 141.01 85.07"/>
      </g>
      <g>
        <path class="cls-12" d="M57.41,108.84c-1.53,1.5-.85,3.93-.68,4.56,.19,.7,.74,2.65,2.34,3.07,1.13,.29,2.1-.35,2.15-.39,1.57-1.08,1.26-3.59,1.15-4.45-.14-1.12-.39-3.08-1.84-3.65-1.11-.43-2.4,.14-3.13,.85Z"/>
        <path class="cls-4" d="M51.8,111.82c1.02-.79,1.39-1.86,5.1-3.08,3.71-1.22,8.19,1.77,8.19,1.77l.52-.84s-3.99-2.86-7.92-2.25-5.7,2.6-6.64,3.37l.76,1.03Z"/>
        <polygon class="cls-4" points="50.44 108.76 51.04 110.79 52.62 109.78 50.44 108.76"/>
      </g>
      <g>
        <path class="cls-12" d="M96.96,108.84c1.53,1.5,.85,3.93,.68,4.56-.19,.7-.74,2.65-2.34,3.07-1.13,.29-2.1-.35-2.15-.39-1.57-1.08-1.26-3.59-1.15-4.45,.14-1.12,.39-3.08,1.84-3.65,1.11-.43,2.4,.14,3.13,.85Z"/>
        <path class="cls-4" d="M102.57,111.82c-1.02-.79-1.39-1.86-5.1-3.08s-8.19,1.77-8.19,1.77l-.52-.84s3.99-2.86,7.92-2.25,5.7,2.6,6.64,3.37l-.76,1.03Z"/>
        <polygon class="cls-4" points="103.93 108.76 103.33 110.79 101.74 109.78 103.93 108.76"/>
      </g>
      <g>
        <path class="cls-2" d="M70.02,67.76s34.62,27.48,51.94,42.14c-.43-10.44-.79-20.98-1.08-31.62-.11-3.86-.2-7.7-.29-11.53-16.86,.34-33.72,.68-50.58,1.01Z"/>
        <polygon class="cls-2" points="52.11 68.76 52.1 68 52.47 68 133.72 66.05 133.74 66.81 133.36 66.82 52.11 68.76"/>
        <rect class="cls-4" x="112.83" y="62.36" width=".76" height="47.57" transform="translate(-22.28 42.78) rotate(-19.52)"/>
        <rect class="cls-4" x="103.31" y="59.51" width=".76" height="54.5" transform="translate(-31.51 85.78) rotate(-39.5)"/>
      </g>
      <polygon class="cls-2" points="87.83 101.72 105.73 98.12 105.47 90.47 86.77 97.8 87.83 101.72"/>
      <g>
        <polygon class="cls-1" points="116.37 71.25 114.27 79.48 105.29 77.49 106.81 82.78 116.63 83.45 120.58 73.4 116.37 71.25"/>
        <polygon class="cls-1" points="123.49 74.34 120.58 83.89 131.45 86.43 131.45 82.68 125.47 81.98 128.22 75.65 123.49 74.34"/>
        <polygon class="cls-1" points="106.07 85.01 115.81 87.19 115.81 98.01 109.79 98.01 111.45 90.58 105.29 90.39 106.07 85.01"/>
        <polygon class="cls-1" points="119.67 87.6 119.67 98.03 123.38 98.6 123.31 91.83 130.32 95.25 132.37 89.33 119.67 87.6"/>
      </g>
    </g>
    <path class="cls-15" d="M153.15,140.35l-30.66,28.85-.69-11.04s-5.44,6.97-9.15,12.25c-2.61,3.72-5.09,13.45-5.72,17.95-.75,5.36-1.68,18.46-1.68,18.46l-2.63,16.48,62.62,2.42,16.76-24.77-22.9-28.68,2.42-15.82-10.24,6.89,1.86-22.98Z"/>
    <polygon class="cls-9" points="138.1 170.33 123.67 187.72 121.15 183.19 118.51 197.75 115.58 220.82 160.51 217.14 147.58 188.63 148.64 178.41 140.06 181.46 138.1 170.33"/>
  </g>
</svg>