<?xml version="1.0" encoding="UTF-8"?>
<svg id="Layer_2" data-name="Layer 2" xmlns="http://www.w3.org/2000/svg" viewBox="0 0 93.79 109.42">
  <defs>
    <style>
      .cls-1 {
        fill: #fff;
      }

      .cls-2 {
        fill: #ffb600;
      }

      .cls-3 {
        fill: #f4c0ab;
      }

      .cls-4 {
        fill: #de4e4d;
      }

      .cls-5 {
        fill: #d89a87;
      }

      .cls-6 {
        fill: #3864ab;
      }
    </style>
  </defs>
  <g>
    <g>
      <path class="cls-5" d="M46.51,33.46c-2.23,1.19-4.37,2.34-4.28,3.77,.1,1.55,2.74,2.71,4.64,3.06,5.97,1.1,12.81-4.34,12.19-6.88-.3-1.22-2.29-1.69-3.57-1.99-3.58-.84-6.55,.74-8.97,2.04Z"/>
      <path class="cls-1" d="M48.52,42.94c-.7,0-1.41-.06-2.11-.19-2.38-.44-6.47-2.06-6.68-5.36-.19-3.04,2.89-4.68,5.6-6.13h0c2.63-1.4,6.22-3.33,10.72-2.27,1.66,.39,4.76,1.12,5.43,3.83,.28,1.15,.17,3-1.97,5.27-2.36,2.51-6.61,4.86-10.99,4.86Zm-3.31-5.84c.52,.28,1.29,.59,2.11,.74,3.67,.67,7.75-2.03,8.95-3.61-.47-.16-1.05-.29-1.36-.37-2.67-.62-4.98,.61-7.22,1.81l-1.18-2.2,1.18,2.2c-.73,.39-1.8,.96-2.48,1.43Z"/>
    </g>
    <g>
      <path class="cls-6" d="M36.55,35.71c-2.09,5.6-4.18,11.19-6.27,16.79,7.66,.02,15.32,.05,22.98,.07,.53-4.55,1.07-9.1,1.6-13.65-6.11-1.07-12.21-2.14-18.32-3.2Z"/>
      <path class="cls-1" d="M53.27,55.06h0l-22.98-.07c-.82,0-1.58-.4-2.05-1.08-.47-.67-.57-1.53-.29-2.3l6.27-16.79c.42-1.13,1.59-1.79,2.77-1.59l18.32,3.2c1.31,.23,2.21,1.44,2.05,2.75l-1.6,13.65c-.15,1.26-1.22,2.21-2.48,2.21Zm-19.39-5.06l17.16,.05,1.07-9.09-13.94-2.44-4.29,11.48Z"/>
    </g>
    <g>
      <g>
        <rect class="cls-4" x="24.73" y="51.68" width="37.59" height="37.59"/>
        <path class="cls-1" d="M62.33,91.78H24.73c-1.38,0-2.5-1.12-2.5-2.5V51.68c0-1.38,1.12-2.5,2.5-2.5H62.33c1.38,0,2.5,1.12,2.5,2.5v37.59c0,1.38-1.12,2.5-2.5,2.5Zm-35.09-5H59.83V54.18H27.23v32.59Z"/>
      </g>
      <g>
        <path class="cls-1" d="M43.77,56.47c-2.12-.13-4.01,1.84-3.76,3.99,.24,2.06,2.35,3.52,4.33,3.08,1.59-.36,2.76-1.87,2.74-3.53-.03-1.85-1.52-3.42-3.31-3.53Z"/>
        <path class="cls-1" d="M43.62,66.11c-1.25,0-2.49-.4-3.55-1.15-1.42-1.01-2.35-2.55-2.54-4.22-.2-1.76,.4-3.53,1.66-4.86,1.26-1.33,2.99-2.02,4.74-1.92h0c3.12,.19,5.61,2.83,5.65,5.99,.04,2.86-1.93,5.39-4.69,6.01-.42,.09-.85,.14-1.27,.14Zm-.05-7.16c-.26,0-.54,.13-.76,.37-.11,.12-.37,.44-.32,.84,.04,.38,.34,.63,.47,.72,.26,.19,.58,.26,.83,.21,.43-.1,.79-.58,.79-1.06,0-.53-.47-1.04-.96-1.08-.01,0-.03,0-.04,0Z"/>
      </g>
      <g>
        <path class="cls-2" d="M39.37,65.98c0,1.17,0,2.34,0,3.51,.79,.33,1.58,.66,2.37,.99-.43,4.97-.87,9.94-1.3,14.91,2.42-.01,4.84-.02,7.27-.03-.4-6.25-.8-12.5-1.2-18.74-2.38-.21-4.75-.42-7.13-.63Z"/>
        <path class="cls-1" d="M40.43,87.89c-.7,0-1.37-.29-1.84-.81-.48-.52-.71-1.21-.65-1.91l1.14-13.09-.68-.29c-.93-.39-1.54-1.3-1.53-2.31v-3.51c0-.7,.3-1.37,.81-1.84,.52-.47,1.21-.71,1.91-.65l7.13,.63c1.23,.11,2.2,1.1,2.27,2.33l1.2,18.74c.04,.69-.2,1.36-.67,1.87s-1.13,.79-1.82,.79l-7.27,.03h-.01Zm3.22-19.02c.42,.5,.64,1.15,.58,1.83l-1.06,12.18h1.87s-.89-13.96-.89-13.96l-.49-.04Z"/>
      </g>
    </g>
    <g>
      <path class="cls-3" d="M59.57,15.56c-10.29,8.21-20.58,16.41-30.87,24.62-.7,.79-.95,1.86-.6,2.74,.53,1.37,2.36,1.67,3.51,1.48,1.15-.19,1.88-.91,2.16-1.22,.93-2.49,1.86-4.99,2.79-7.48,2.64,.47,5.27,.94,7.91,1.41,2.33-1.29,4.67-2.58,7-3.87,.67-.23,1.65-.48,2.86-.5,1.08-.02,1.97,.14,2.62,.31-4.24,2.38-8.48,4.75-12.72,7.13-.43,.76-.39,1.71,.11,2.41,.47,.66,1.27,1.02,2.08,.93,4.02-.91,8.04-1.83,12.06-2.74,1.4-1.05,3.11-2.53,4.77-4.55,2.03-2.47,3.28-4.87,4.06-6.69,.99-1.35,1.97-2.71,2.96-4.06-3.56-3.31-7.13-6.62-10.69-9.93Z"/>
      <path class="cls-1" d="M30.93,46.96c-2.11,0-4.34-.98-5.17-3.13-.69-1.76-.28-3.8,1.07-5.31,.09-.11,.2-.2,.31-.29L58.01,13.61c.97-.77,2.35-.72,3.26,.12l10.69,9.93c.93,.86,1.07,2.28,.32,3.31l-2.8,3.83c-1.11,2.53-2.56,4.9-4.31,7.03-1.52,1.85-3.28,3.52-5.21,4.97-.28,.21-.6,.36-.94,.44l-12.06,2.74c-.1,.02-.19,.04-.29,.05-1.72,.18-3.4-.57-4.39-1.98-1-1.42-1.14-3.28-.38-4.84l-3.74-.67-2.06,5.53c-.11,.3-.28,.57-.49,.81-.97,1.07-2.25,1.78-3.6,2.01-.35,.06-.71,.09-1.08,.09Zm-.4-5.04c.19,.04,.44,.06,.66,.02,.17-.03,.31-.1,.44-.19l.38-1.01-1.47,1.17Zm23.99-11.67c1.03,0,2.05,.13,3.04,.39,.99,.26,1.72,1.09,1.85,2.1s-.37,2-1.26,2.5l-9.18,5.15,8.41-1.91c1.45-1.13,2.76-2.41,3.92-3.82,1.51-1.84,2.75-3.88,3.69-6.08,.07-.17,.17-.34,.28-.49l1.65-2.26-7.49-6.95-18.85,15.03,3.43,.61,6.22-3.44c.13-.07,.27-.13,.41-.18,1.16-.39,2.38-.61,3.6-.64,.09,0,.17,0,.26,0Z"/>
    </g>
  </g>
  <g>
    <path class="cls-5" d="M46.51,33.46c-2.23,1.19-4.37,2.34-4.28,3.77,.1,1.55,2.74,2.71,4.64,3.06,5.97,1.1,12.81-4.34,12.19-6.88-.3-1.22-2.29-1.69-3.57-1.99-3.58-.84-6.55,.74-8.97,2.04Z"/>
    <path class="cls-6" d="M36.55,35.71c-2.09,5.6-4.18,11.19-6.27,16.79,7.66,.02,15.32,.05,22.98,.07,.53-4.55,1.07-9.1,1.6-13.65-6.11-1.07-12.21-2.14-18.32-3.2Z"/>
    <g>
      <rect class="cls-4" x="24.73" y="51.68" width="37.59" height="37.59"/>
      <path class="cls-1" d="M43.77,56.47c-2.12-.13-4.01,1.84-3.76,3.99,.24,2.06,2.35,3.52,4.33,3.08,1.59-.36,2.76-1.87,2.74-3.53-.03-1.85-1.52-3.42-3.31-3.53Z"/>
      <path class="cls-2" d="M39.37,65.98c0,1.17,0,2.34,0,3.51,.79,.33,1.58,.66,2.37,.99-.43,4.97-.87,9.94-1.3,14.91,2.42-.01,4.84-.02,7.27-.03-.4-6.25-.8-12.5-1.2-18.74-2.38-.21-4.75-.42-7.13-.63Z"/>
    </g>
    <path class="cls-3" d="M59.57,15.56c-10.29,8.21-20.58,16.41-30.87,24.62-.7,.79-.95,1.86-.6,2.74,.53,1.37,2.36,1.67,3.51,1.48,1.15-.19,1.88-.91,2.16-1.22,.93-2.49,1.86-4.99,2.79-7.48,2.64,.47,5.27,.94,7.91,1.41,2.33-1.29,4.67-2.58,7-3.87,.67-.23,1.65-.48,2.86-.5,1.08-.02,1.97,.14,2.62,.31-4.24,2.38-8.48,4.75-12.72,7.13-.43,.76-.39,1.71,.11,2.41,.47,.66,1.27,1.02,2.08,.93,4.02-.91,8.04-1.83,12.06-2.74,1.4-1.05,3.11-2.53,4.77-4.55,2.03-2.47,3.28-4.87,4.06-6.69,.99-1.35,1.97-2.71,2.96-4.06-3.56-3.31-7.13-6.62-10.69-9.93Z"/>
  </g>
</svg>