<?xml version="1.0" encoding="UTF-8"?>
<svg id="Layer_1" data-name="Layer 1" xmlns="http://www.w3.org/2000/svg" viewBox="0 0 161.56 161.88">
  <defs>
    <style>
      .cls-1 {
        fill: #191317;
      }

      .cls-2 {
        fill: #fff;
      }

      .cls-3 {
        fill: #e48c72;
      }

      .cls-4 {
        fill: #ef9d7f;
      }

      .cls-5 {
        fill: #363636;
      }

      .cls-6 {
        fill: #fac300;
      }

      .cls-7 {
        fill: #f05757;
      }

      .cls-8 {
        fill: #f55;
      }

      .cls-9 {
        fill: #e58e73;
      }

      .cls-10 {
        fill: #ec1c24;
      }

      .cls-11 {
        fill: #f4ae32;
      }

      .cls-12 {
        fill: #b62d2c;
      }

      .cls-13 {
        fill: #353535;
      }
    </style>
  </defs>
  <g>
    <rect class="cls-11" x="-.5" y="-.7" width="162.56" height="162.56"/>
    <g>
      <polygon class="cls-6" points="69.13 -.97 97.29 -.97 87.86 80.9 83.4 81.44 69.13 -.97"/>
      <polygon class="cls-6" points="-.5 71.33 -.5 98.98 88.04 87.8 162.06 106.07 162.06 72.11 87.86 80.9 -.5 71.33"/>
      <polygon class="cls-6" points="-.5 -.7 21.01 -.7 87.86 80.9 162.06 142.77 162.06 161.86 135.73 162.15 85.58 85.39 -.5 19.09 -.5 -.7"/>
      <polygon class="cls-6" points="140.55 -.26 162.06 -.7 162.06 19.55 88.04 83.9 16.51 162.15 -.5 161.86 -.5 143.94 83.95 80.56 140.55 -.26"/>
    </g>
  </g>
  <g>
    <g>
      <g>
        <g>
          <polygon class="cls-2" points="40.3 112.81 39.93 112.89 40.29 112.75 40.3 112.81"/>
          <polygon class="cls-2" points="40.67 116.31 39.65 112.91 36.85 113.37 36.84 113.3 39.63 112.85 38.67 109.63 43.06 107.92 44.28 115.47 40.67 116.31"/>
        </g>
        <g>
          <polygon class="cls-2" points="38.17 113.66 37.42 113.9 37.4 113.84 38.14 113.56 38.17 113.66"/>
          <polygon class="cls-2" points="35.18 118.3 33.04 111.82 36.9 110.29 40.41 108.96 42.51 115.95 35.18 118.3"/>
        </g>
      </g>
      <g>
        <polygon class="cls-2" points="51.46 79.9 51.45 79.93 51.45 79.89 51.46 79.9"/>
        <polygon class="cls-2" points="47.95 94.44 47.95 71.76 55.76 79.16 54.57 81.52 47.95 94.44"/>
      </g>
      <g>
        <polygon class="cls-2" points="51.46 79.9 51.45 79.93 51.45 79.89 51.46 79.9"/>
        <polygon class="cls-2" points="47.95 94.44 47.95 71.76 55.76 79.16 54.57 81.52 47.95 94.44"/>
      </g>
      <g>
        <polygon class="cls-2" points="51.46 79.9 51.45 79.93 51.45 79.89 51.46 79.9"/>
        <polygon class="cls-2" points="47.95 94.44 47.95 71.76 55.76 79.16 54.57 81.52 47.95 94.44"/>
      </g>
      <g>
        <path class="cls-2" d="M60.16,135.88l-32.12,.14-7.03,25.84h119.55c-4.55-9.71-9.05-19.38-12.5-26.87h-34.32l1.03-3.54c1.09-.13,2.13-.55,3.04-1.26l10.86-8.5c.07,.1,.18,.16,.31,.16h.04c.22-.03,.38-.22,.35-.44-.01-.08-.02-.16-.03-.24l11.04-8.63c2.56-1.99,4.01-5.08,3.95-8.31l-.1-6.67c.19-.07,.31-.27,.26-.47-.03-.14-.14-.25-.27-.28l-.22-14.51,.4-.55,.63-2.13-1.07,.49-.13-8.19,1.38,.2-1-5.91h-.46s-.07-.01-.07-.01v-5.06s-.05-22.11-.05-22.11h-.01v-.11l-1.11-.03-31.99-22.45-52.4,20.44h-.01s-.19,.08-.19,.08l5.29,40.04-1.8-.63-.73,11.44h-.17l-13.1,5.87,8.6,20.72,1.39-.53,.74-.28,1.76-.66h.03s.36-.15,.36-.15l12.86-4.89c.61,.78,1.39,1.46,2.27,1.98l11.42,6.7-6.68,19.34h-.01Zm-8.7-55.96v-.03h.01s-.01,.03-.01,.03Z"/>
        <path class="cls-2" d="M146.06,165.36H16.43l8.94-32.83,32.31-.14,4.93-14.28-8.95-5.25c-.48-.28-.93-.59-1.36-.93l-18.22,6.94-11.22-27.01,14.46-6.47,.89-13.87,.78,.27-4.91-37.16,.53-.19v-1.06h2.85S91,12.49,91,12.49l32.71,22.92,3.4,.09,.06,27.26,1.88,11.12,1.53-.71-3.08,10.23,.19,12.27c.08,.2,.15,.4,.2,.62,.18,.78,.12,1.57-.16,2.28l.08,5.6c.08,4.31-1.9,8.47-5.3,11.12l-10.04,7.85c-.13,.27-.29,.52-.48,.75-.57,.7-1.36,1.18-2.24,1.37l-7.94,6.22h28.48l.94,2.03c3.46,7.49,8.01,17.28,12.49,26.85l2.33,4.98Zm-120.47-7h109.47c-3.31-7.08-6.54-14.04-9.23-19.87h-36.74l2.97-10.24,2.3-.28c.48-.06,.92-.24,1.31-.55l13.76-10.77h0s8.8-6.88,8.8-6.88c1.68-1.31,2.65-3.36,2.61-5.49l-.14-9.17h0s-.21-13.95-.21-13.95h0s-.3-14.98-.3-14.98l-.05-24.71-30.08-21.11-48.3,18.84,5.68,42.97-2.82-.99-.65,10.11h-2.71l-9.31,4.17,5.99,14.44,16.38-6.23,1.59,2.03c.34,.44,.79,.83,1.3,1.13l13.88,8.15-8.43,24.41h-2.49l-29.45,.13-5.13,18.85Zm80.3-36.54s0,.04,0,.07v-.07Zm-57.93-27.4v-22.69s7.8,7.44,7.8,7.44l-1.18,2.34-6.62,12.92Z"/>
      </g>
      <g>
        <polygon class="cls-2" points="123.75 66.19 123.68 66.19 123.68 61.49 123.75 66.19"/>
        <polygon class="cls-2" points="127.3 69.69 120.18 69.69 120.18 61.49 127.18 61.44 127.3 69.69"/>
      </g>
      <g>
        <g>
          <polygon class="cls-2" points="51.46 79.9 51.45 79.93 51.45 79.89 51.46 79.9"/>
          <polygon class="cls-2" points="47.95 94.44 47.95 71.76 55.76 79.16 54.57 81.52 47.95 94.44"/>
        </g>
        <g>
          <polygon class="cls-2" points="51.46 79.9 51.45 79.93 51.45 79.89 51.46 79.9"/>
          <polygon class="cls-2" points="47.95 94.44 47.95 71.76 55.76 79.16 54.57 81.52 47.95 94.44"/>
        </g>
      </g>
    </g>
    <g>
      <g>
        <polygon class="cls-5" points="40.51 87.8 27.4 93.66 36.01 114.38 54.76 107.25 53.09 87.8 40.51 87.8"/>
        <path class="cls-1" d="M39.53,112.98l-2.25-10.37c-.04-.18,.05-.36,.21-.44l15.21-7.84,.36,.71-14.94,7.7,2.18,10.07-.78,.17Z"/>
        <path class="cls-1" d="M37.41,113.9l-3.92-12.7c-.05-.15,0-.31,.11-.41l9.52-8.56,.53,.59-9.33,8.39,3.85,12.46-.76,.23Z"/>
      </g>
      <polygon class="cls-5" points="122.72 39.04 90.52 16.43 37.92 36.94 43.71 80.7 57.77 88.95 122.72 39.04"/>
      <g>
        <polygon class="cls-3" points="51.58 79.95 41.42 76.35 40.35 93.05 51.58 95.29 51.58 79.95"/>
        <path class="cls-10" d="M51.33,88.9l-4.8-6.06-2.86-1.2,.31-.73,2.96,1.24c.06,.03,.12,.07,.16,.12l4.86,6.15-.62,.49Z"/>
      </g>
      <polygon class="cls-9" points="67.59 114.38 58.53 140.59 72.32 159.64 92.12 140.59 96.44 125.66 67.59 114.38"/>
      <path class="cls-8" d="M21.01,161.86l7.03-25.84,32.12-.14,12.28,8.96-.13,13.53,3.91-13,17.51-10.37h34.32c3.45,7.49,7.95,17.15,12.49,26.87"/>
      <path class="cls-4" d="M51.5,60.85l-.11,41.92c0,2.91,1.53,5.6,4.03,7.07l35.42,20.81c2.19,1.29,4.94,1.1,6.94-.46l22.57-17.66c2.55-2,4.01-5.08,3.95-8.31l-.65-43.1-31.37-18.96-40.79,18.68Z"/>
      <path class="cls-5" d="M79.29,47.27c15.29,8.8,44.41,26.37,44.41,26.37l-.07-34.61s-23.42,.23-33.45-.13c-3.61,3.13-7.27,5.24-10.88,8.37Z"/>
      <polygon class="cls-1" points="104.57 65.9 124.22 66.2 125.21 72.11 103.51 68.94 104.57 65.9"/>
      <polygon class="cls-1" points="83.64 64.79 64.11 62.65 62.39 68.39 84.32 67.93 83.64 64.79"/>
      <g>
        <path class="cls-7" d="M98.48,71.75c-.25,8.88-.76,26.65-.76,26.65l8.11,.16s2.04-19.22-7.34-26.81Z"/>
        <path class="cls-10" d="M105.82,98.98h0l-8.11-.16c-.11,0-.22-.05-.3-.13-.08-.08-.12-.19-.12-.3l.76-26.65c0-.16,.1-.31,.25-.37,.15-.07,.32-.05,.44,.06,9.46,7.64,7.58,26.39,7.5,27.18-.02,.22-.2,.38-.42,.38Zm-7.67-1l7.29,.14c.21-2.67,1.1-18.39-6.56-25.47l-.73,25.33Z"/>
      </g>
      <path class="cls-10" d="M75.91,122.27s-.05,0-.07,0c-.22-.04-.36-.25-.32-.46,.48-2.6,.83-7.75-2.17-12.94-2.33-4.03-5.98-6.92-10.86-8.58-4.25-1.45-8.12-1.22-10.62-.77-.22,.04-.42-.1-.46-.32-.04-.22,.1-.42,.32-.46,2.59-.47,6.6-.71,11.02,.8,5.07,1.73,8.87,4.74,11.29,8.94,3.13,5.41,2.76,10.77,2.26,13.48-.03,.19-.2,.33-.39,.33Z"/>
      <path class="cls-10" d="M108.97,121.85c-.2,0-.37-.15-.39-.35-.3-2.57-.88-11.44,4.07-17.6,3.83-4.76,8.76-6.5,11.36-7.12,.21-.05,.43,.08,.48,.3,.05,.21-.08,.43-.3,.48-2.5,.59-7.25,2.27-10.92,6.84-4.76,5.92-4.19,14.52-3.9,17.01,.03,.22-.13,.42-.35,.44-.02,0-.03,0-.05,0Z"/>
      <g>
        <path class="cls-13" d="M75.33,79.68c-1.61,1.58-.9,4.14-.72,4.8,.2,.74,.78,2.79,2.47,3.24,1.19,.31,2.21-.37,2.26-.41,1.65-1.14,1.32-3.78,1.21-4.68-.15-1.18-.41-3.24-1.93-3.84-1.17-.46-2.53,.15-3.29,.9Z"/>
        <path class="cls-5" d="M69.41,82.82c1.07-.83,1.47-1.96,5.37-3.25s8.62,1.87,8.62,1.87l.54-.89s-4.2-3.01-8.34-2.37-6,2.74-6.99,3.55l.8,1.08Z"/>
        <polygon class="cls-5" points="67.98 79.6 68.62 81.74 70.28 80.67 67.98 79.6"/>
      </g>
      <g>
        <path class="cls-13" d="M117.68,79.68c1.61,1.58,.9,4.14,.72,4.8-.2,.74-.78,2.79-2.47,3.24-1.19,.31-2.21-.37-2.26-.41-1.65-1.14-1.32-3.78-1.21-4.68,.15-1.18,.41-3.24,1.93-3.84,1.17-.46,2.53,.15,3.29,.9Z"/>
        <path class="cls-5" d="M123.6,82.82c-1.07-.83-1.47-1.96-5.37-3.25s-8.62,1.87-8.62,1.87l-.54-.89s4.2-3.01,8.34-2.37,6,2.74,6.99,3.55l-.8,1.08Z"/>
        <polygon class="cls-5" points="125.03 79.6 124.39 81.74 122.73 80.67 125.03 79.6"/>
      </g>
      <g>
        <path class="cls-1" d="M104.84,38.66s-36.27,28.79-54.42,44.15c.45-10.94,.83-21.99,1.13-33.13,.11-4.04,.21-8.07,.3-12.08,17.66,.35,35.33,.71,52.99,1.06Z"/>
        <polygon class="cls-1" points="123.6 39.71 123.21 39.7 38.09 37.66 38.11 36.87 38.5 36.88 123.62 38.92 123.6 39.71"/>
        <rect class="cls-5" x="34.67" y="57.53" width="49.84" height=".79" transform="translate(-14.91 94.74) rotate(-70.49)"/>
        <rect class="cls-5" x="41.02" y="58.17" width="57.1" height=".8" transform="translate(-19.88 74.98) rotate(-50.49)"/>
      </g>
      <path class="cls-12" d="M83.75,103.7c.68-.76,3.5,2.41,10.56,4.03,1.97,.45,3.32,.57,3.46,1.25,.22,1.12-2.9,3.35-5.85,3.26-5.23-.15-9.08-7.51-8.16-8.54Z"/>
    </g>
  </g>
</svg>