<?xml version="1.0" encoding="UTF-8"?>
<svg id="Layer_1" data-name="Layer 1" xmlns="http://www.w3.org/2000/svg" viewBox="0 0 161.56 161.88">
  <defs>
    <style>
      .cls-1 {
        fill: #fff;
      }

      .cls-2 {
        fill: #363636;
      }

      .cls-3 {
        fill: #dd1f26;
      }

      .cls-4 {
        fill: #e08bfc;
      }
    </style>
  </defs>
  <g>
    <rect class="cls-4" x="-1" y="-.7" width="163.56" height="163.56"/>
    <g>
      <polygon class="cls-3" points="69.06 -.97 97.39 -.97 87.9 81.41 83.42 81.95 69.06 -.97"/>
      <polygon class="cls-3" points="-1 71.77 -1 99.6 88.08 88.34 162.56 106.73 162.56 72.56 87.9 81.41 -1 71.77"/>
      <polygon class="cls-3" points="-1 -.7 20.64 -.7 87.9 81.41 162.56 143.66 162.56 162.86 136.07 163.16 85.6 85.92 -1 19.22 -1 -.7"/>
      <polygon class="cls-3" points="140.92 -.26 162.56 -.7 162.56 19.68 88.08 84.42 16.12 163.16 -1 162.86 -1 144.83 83.97 81.06 140.92 -.26"/>
    </g>
  </g>
  <g>
    <path class="cls-1" d="M135.7,163.16c-1.7-5.65-3.41-11.29-5.11-16.94l-33.35-11.85-3.54-19.22,25.67-9.94,4.58-66.51-58.19-21.3L30.33,50.13l8.8,58.71,34.75,9.22,.36,15.83-32.99,13.7c-1.49,5.09-2.99,10.18-4.48,15.27,32.98,.1,65.95,.2,98.93,.29Z"/>
    <path class="cls-2" d="M98.05,72.42c2.88,0,5.81,3.3,5.54,6.15-.23,2.4-2.8,5.3-5.54,5.31-2.79,0-5.55-3.03-5.61-5.61-.06-2.7,2.79-5.84,5.61-5.84Z"/>
    <path class="cls-2" d="M65.85,80.56c-.23,2.4-2.8,5.3-5.54,5.31-2.79,0-5.55-3.03-5.61-5.61-.06-2.7,2.79-5.84,5.61-5.84,2.88,0,5.81,3.3,5.54,6.15Z"/>
    <path class="cls-2" d="M71.21,92.85c.08-.65,2.01-.71,8.32-1.48,8.95-1.09,10.34-1.6,10.53-1.12,.4,1.06-5.45,5.67-11.94,5.32-3.53-.19-7.02-1.84-6.91-2.73Z"/>
  </g>
</svg>