<?xml version="1.0" encoding="UTF-8"?><svg id="Layer_2" xmlns="http://www.w3.org/2000/svg" viewBox="0 0 3106.09 2143.25"><defs><style>.cls-1{fill:#f4ae32;}.cls-2{fill:#f7f2dc;}.cls-3{fill:#ef9d7f;}.cls-4{fill:#f55;}.cls-5{fill:#e58e73;}.cls-6{fill:#fff;}.cls-7{fill:#f80500;}.cls-8{fill:#ffbda9;}.cls-9{fill:#e01717;}.cls-10{fill:#e27c5d;}.cls-11{fill:#181216;}.cls-12{fill:#363636;}.cls-13{fill:#2b9947;}.cls-14{fill:#353535;}.cls-15{fill:#3ba45b;}.cls-16{fill:#4ea978;}</style></defs><g id="Layer_1-2"><g><polygon class="cls-15" points="0 1734.67 2399.58 2143.25 2777.58 892.25 464.58 307.25 0 1734.67"/><polyline class="cls-13" points="1495.07 1888.08 152.48 1615.95 513.44 458.2 1929.9 727.22 1928.99 729.64 1930.15 727.27 2655 1116 2295 1998 1495.32 1888.13"/><path class="cls-9" d="M3008.03,603.28l15.78,4.8-40.96,77.17-43.18-24.18-40.83,104.69-63.84-27.76-17.85,72,107.85,81-224.75,361.56,6.91-7.36-601.93,11.45,413.41-536.65,135.55,22.2,3.15,1.76v-.06l-1.47-1.33,42.92-63.15-.26-19.3-133.49-77.05,73.31-104.31,25.97-104.66,41.38-101.45,122.98-24.99,.61-47.6s10.55,17.53,15.9,24.54,12.03,16.91,20.45,26.06c8.41,9.15,240.46,201.87,240.46,201.87l-98.06,150.75Z"/><path class="cls-9" d="M2110.93,1337.13l203.5,71.91s66.26-681.68,52.47-733.32c-4.1-15.36-87.9-234.27-87.9-234.27l86.26-270.53L2224.98,0l-198.33,39.59h0l-97.78,271.55-185,92.5-285.91,857.74,502.09,22.44,150.88,53.32Z"/><g><g><polygon class="cls-12" points="2588.1 921.58 2625.05 948.67 2584.28 1007.54 2530.56 972.69 2548.83 913.12 2588.1 921.58"/><path class="cls-11" d="M2573.9,999.89l-1.06-.48,13.5-29.82-41.31-33.95,.74-.9,41.66,34.23c.2,.17,.27,.45,.16,.69l-13.69,30.22Z"/><path class="cls-11" d="M2579.96,1004.17l-1.02-.57,20.26-36.07-23.33-32.25,.94-.68,23.55,32.55c.13,.18,.15,.43,.04,.63l-20.44,36.4Z"/></g><polygon class="cls-12" points="2362.12 711.63 2478.97 662.23 2630.88 762.59 2582.93 896.62 2533.01 913.09 2362.12 711.63"/><g><polygon class="cls-5" points="2558.63 888.89 2593.11 884.45 2585.15 937.82 2548.22 937.26 2558.63 888.89"/><path class="cls-7" d="M2553.43,916.31l-.75-.91,18.97-15.63c.08-.06,.17-.11,.27-.12l9.49-1.77,.22,1.16-9.34,1.74-18.85,15.54Z"/></g><polygon class="cls-5" points="2488.38 989.95 2478.99 1071.78 2423.65 1138.24 2373.12 1048.99 2389.78 1005.94 2488.38 989.95"/><polyline class="cls-13" points="2284.65 1014.1 2133 1287 2631.31 1293.2 2581.97 1081.49 2480.81 1059.25 2436 1079.16 2427.23 1121.9 2423.72 1078.25 2375.56 1033.67"/><path class="cls-3" d="M2571.83,828.73l-28.11,132.24c-1.95,9.17-8.62,16.61-17.51,19.55l-125.8,41.57c-7.78,2.57-16.34,.13-21.58-6.17l-59.19-70.98c-6.69-8.02-9.21-18.72-6.8-28.89l31.29-135.43,111.77-38.48,115.93,86.58Z"/><path class="cls-12" d="M2493.45,767.06c-54.18,17.36-157.9,52.98-157.9,52.98l23.72-109.05s73.66,16.61,105.55,22.3c9.26,12.31,19.36,21.46,28.63,33.77Z"/><g><path class="cls-4" d="M2416.34,831.23l-15.68,84.53-25.67-5s6.61-61.98,41.35-79.53Z"/><path class="cls-7" d="M2400.66,918.26c-.16,0-.32-.02-.48-.05l-25.67-5c-1.27-.25-2.15-1.43-2.01-2.72,.07-.64,1.75-15.97,7.77-33.72,8.17-24.12,19.93-40.19,34.94-47.77,.85-.43,1.87-.34,2.63,.23,.76,.57,1.13,1.52,.96,2.46l-15.68,84.53c-.12,.66-.5,1.24-1.05,1.61-.42,.29-.91,.43-1.41,.43Zm-22.89-9.51l20.89,4.07,14.22-76.67c-25.76,17.38-33.59,62.01-35.11,72.6Z"/></g><path class="cls-7" d="M2453.48,1007.05s-.05,0-.08,0c-1.38-.04-2.46-1.2-2.42-2.58,.28-9.05,2.8-26.51,16.59-41.75,10.7-11.82,24.97-18.85,42.43-20.9,15.21-1.79,27.9,1.75,35.87,5.04,1.28,.53,1.89,1.99,1.36,3.26-.53,1.28-1.99,1.88-3.26,1.36-7.43-3.06-19.24-6.36-33.39-4.7-16.22,1.91-29.44,8.4-39.31,19.29-12.72,14.05-15.05,30.18-15.3,38.55-.04,1.35-1.15,2.42-2.5,2.42Z"/><path class="cls-7" d="M2349.55,983.31c-.27,0-.54-.04-.8-.13-1.31-.44-2.01-1.86-1.56-3.17,10.14-29.86,2.03-49.91-.7-55.34-8.33-16.59-21.89-24.93-29.23-28.43-1.25-.59-1.78-2.08-1.18-3.33,.59-1.25,2.08-1.78,3.33-1.18,7.92,3.77,22.55,12.77,31.55,30.7,11.66,23.22,3.69,51.17,.96,59.19-.35,1.04-1.33,1.7-2.37,1.7Z"/><polygon class="cls-11" points="2460.12 828.15 2523.89 861.22 2525.04 842.57 2464.44 819.08 2460.12 828.15"/><polygon class="cls-11" points="2392.41 818.17 2320.76 813.11 2329.51 796.6 2393.46 808.19 2392.41 818.17"/><g><path class="cls-11" d="M2419.38,721.83s95.41,116.13,142.52,177.24c6.04-35.03,12.38-70.32,19.03-105.88,2.41-12.9,4.84-25.74,7.3-38.54-56.28-10.94-112.57-21.88-168.85-32.82Z"/><polygon class="cls-11" points="2631.31 763.45 2630.73 763.34 2359.95 711.8 2360.17 710.63 2360.75 710.75 2631.54 762.29 2631.31 763.45"/><polygon class="cls-12" points="2559.51 893.47 2559.43 892.88 2538.93 734.42 2540.1 734.27 2540.18 734.86 2560.68 893.32 2559.51 893.47"/><rect class="cls-12" x="2517.11" y="717.13" width="1.18" height="183.94" transform="translate(-90.24 1247.41) rotate(-27.36)"/></g><g><path class="cls-14" d="M2345.09,849.16c-6.25,3.95-5.74,12.66-5.61,14.89,.15,2.5,.56,9.5,5.68,12.08,3.6,1.82,7.34,.34,7.54,.26,6.08-2.51,6.85-11.2,7.11-14.18,.34-3.87,.94-10.68-3.55-13.66-3.42-2.27-8.22-1.26-11.18,.61Z"/><path class="cls-12" d="M2335.64,856.72c4.01-1.92,6.05-5.28,19.45-6.7,13.39-1.42,26.35,11.94,26.35,11.94l2.36-2.47s-11.39-12.56-25.11-13.34c-13.72-.78-21.14,4.65-24.85,6.55l1.81,4.02Z"/><polygon class="cls-12" points="2333.27 845.41 2333.84 852.7 2339.92 850.43 2333.27 845.41"/></g><g><path class="cls-14" d="M2466.21,877.99c4.13,5.92,.17,13.23-.85,15.1-1.14,2.1-4.32,7.97-10.04,8.15-4.02,.12-6.84-2.65-7-2.8-4.55-4.6-1.76-12.41-.81-15.09,1.24-3.48,3.43-9.6,8.72-10.37,4.04-.59,8.02,2.21,9.97,5.01Z"/><path class="cls-12" d="M2497.18,890.7c-2.89-3.26-3.41-6.99-15.08-13.59-11.67-6.6-28.87-.26-28.87-.26l-1.16-3.08s15.45-6.27,28.3-1.45c12.85,4.83,17.45,12.49,20.08,15.63l-3.26,2.75Z"/><polygon class="cls-12" points="2503.89 881.88 2500.45 887.95 2495.8 883.55 2503.89 881.88"/></g><path class="cls-7" d="M2398.14,970.73c-8.82,0-16-7.18-16-16s7.18-16,16-16,16,7.18,16,16-7.18,16-16,16Zm0-27c-6.07,0-11,4.93-11,11s4.93,11,11,11,11-4.93,11-11-4.93-11-11-11Z"/></g><g><path class="cls-3" d="M2170.21,1058.12c-2.51-7.91-17-32.55-17-32.55l-24.81-36.45-127.05-11.98-7.37,58.51s40.44,11.61,53.03,14.26c23.73,5,36.82,12.15,36.82,12.15l18.78,34.7s45.94-25.43,67.61-38.64Z"/><path class="cls-7" d="M2051.43,995.53s-.04,0-.07,0l-47.58-6.41c-.27-.04-.47-.29-.43-.56s.28-.48,.56-.43l47.58,6.41c.27,.04,.47,.29,.43,.56-.03,.25-.25,.43-.5,.43Z"/><path class="cls-7" d="M2044.89,1034.16s-.09,0-.13-.02l-46.43-12.71c-.27-.07-.42-.35-.35-.61,.07-.27,.35-.42,.61-.35l46.43,12.71c.27,.07,.42,.35,.35,.61-.06,.22-.26,.37-.48,.37Z"/><path class="cls-7" d="M2051.36,1013.72s-.06,0-.09,0l-50.18-8.69c-.27-.05-.45-.31-.41-.58,.05-.27,.31-.46,.58-.41l50.18,8.69c.27,.05,.45,.31,.41,.58-.04,.24-.25,.42-.49,.42Z"/><g><polygon class="cls-15" points="1854.51 1000 2025.41 753.64 2189.15 860.94 2012.46 1108.51 1854.51 1000"/><polyline class="cls-6" points="1976.78 856.87 1880.36 997.51 2007.85 1087.04 2111.07 940.52 2110.79 940.35 2111.09 940.5 2166.7 864.8 2033.42 776.47 1976.8 856.84"/><rect class="cls-4" x="2011.16" y="801.32" width="65.64" height="72.4" transform="translate(795.06 -984.43) rotate(33.29)"/><polygon class="cls-16" points="2112.09 925.69 2058.22 890.32 2098.07 829.62 2157 866.08 2112.09 925.69"/><polygon class="cls-16" points="2008.15 1069.27 1959.22 1034.96 2051.95 899.7 2104.72 935.9 2008.15 1069.27"/><polygon class="cls-4" points="1954.57 1027.75 1905.64 993.44 1991.78 861.92 2044.56 898.11 1954.57 1027.75"/><rect class="cls-6" x="2036.01" y="815.5" width="19.09" height="42.8" transform="translate(-130.63 451.03) rotate(-12.2)"/><polygon class="cls-6" points="2028.71 850.09 2022.87 833.25 2064.71 824.21 2070.55 841.05 2028.71 850.09"/><rect class="cls-6" x="2096.28" y="857.99" width="19.09" height="42.8" transform="translate(-138.25 464.72) rotate(-12.2)"/><rect class="cls-6" x="2097.47" y="857.99" width="16.72" height="42.8" transform="translate(2520.5 -1364.69) rotate(77.8)"/></g><path class="cls-15" d="M2084.15,1086.95l91.24-38.79s97.18,209.19,145.77,313.78l-176.5,3.55"/><polygon class="cls-10" points="2156.04 1029.42 2128.46 972.71 2059.34 970.38 2058.04 987.8 2106.21 996.62 2113.88 1021.9 2156.04 1029.42"/><polyline class="cls-8" points="2067.6 985.49 2058.25 985.01 2059.17 972.58 2069.2 973.76"/></g><g><g><path class="cls-9" d="M890.76,1583.68c10.99-12.35,18.61-25.57,22.66-39.34,4.93-11.51,8.61-21.69,10.96-30.35l201.72-767-30.86-22.39h-222.72l-96.85,350.52h-58.15l95.51-350.52h-263.27l-94.7,363.76c-7.13,26.28-13.22,50.13-18.11,70.88l-.17,.71-.07,.72c-2.4,23.62-.36,43.97,6.05,60.47,6.89,17.76,19.56,31.52,37.67,40.89l.73,.35c20.31,9.16,47.38,14.23,82.75,15.49h156.86l-24.63,109.98c-6.89,24.63-12.92,31.66-15.23,33.57-5.31,4.42-13.24,6.56-24.25,6.56-15.12,0-25.62-2.34-29.13-6.45-1.85-5.22-1.21-11.87,1.9-19.8l20.2-61.38-64.6-26.37-204.83,26.37-42.67,159.07-.04,.14c-8.53,33.56-.86,63.84,22.81,89.98l.36,.38c25.43,25.91,61.88,39.05,108.33,39.05h317.93c26.91,0,48.7-4.75,64.79-14.13,16.75-7.93,29.89-18.41,39.08-31.19Z"/><path class="cls-9" d="M1212.76,1223.91l87.36-391.09c5.33-20.73,8.52-37,9.74-49.73l.06-.83c.69-16.18-1.43-28.85-6.47-38.71l-.34-.66-.4-.61c-5.73-8.83-14.62-15.01-26.33-18.35-9.1-2.66-21.21-3.95-37.02-3.95h-113.48c-28.53,0-47.54,7.1-58.12,21.71l-.14,.2c-8.98,12.88-16.36,30.01-22.56,52.37l-98.88,428.54,132.35,1.18,.63-.09h133.61Zm-46.35-380.7l-14.83,66.83h-.46l13.02-66.83h2.26Z"/><path class="cls-9" d="M1490.56,1223.91l90.88-396.4c7.42-33.13,6.85-58.06-1.75-76.19-8.28-20.36-29.32-30.5-64.31-31h-177.2l-167.08,503.68,184.95-.09h134.51Z"/><path class="cls-9" d="M1853.77,902.15l16.91-88.18,.04-.2c5.87-33.01,.79-57.2-15.06-71.84-14.03-13.12-33.59-19.77-58.13-19.77h-130.82c-25.25,0-43.23,4.46-54.98,13.64l-.3,.24c-11.4,9.47-19.72,26.23-25.43,51.24l-76.79,335.97v.04c-6.53,28.85-7.3,51.38-2.37,68.86l.24,.78c3.92,11.49,12.31,19.86,24.95,24.88,10.56,4.19,24.05,6.07,41.23,5.73h132.08c5.37,.32,10.44,.47,15.18,.47s9.49-.17,13.65-.51l.9-.11c9.21-1.5,17.71-4.59,25.27-9.19,7.74-4.74,14.55-12.23,20.23-22.26,5.24-9.26,9.82-21.78,13.98-38.26l43.83-194.85h-158.24l22.61-100.82h32.69l-10.01,44.14h128.33Zm-205.4,199.44l3.44-15.43h30.81l-3.84,15.43h-30.41Z"/><path class="cls-9" d="M1505.73,1256.03c-22.65-31.52-60.17-47.49-111.51-47.49h-421.78l-234.44,843.47,58.85,62.1h347.83c9.42,.44,18.42,.66,26.98,.66,22.21,0,41.5-1.48,57.57-4.42,23.56-3.92,42.63-11.98,56.68-23.97,14.59-10.24,26.35-24.42,34.98-42.14l.43-1c6.57-17.37,13.69-39.23,21.16-64.95l55.35-189.06c8.75-24.69,9.96-44.68,3.71-61.13l-.25-.67-.34-.64c-8.51-16.2-18.94-29.71-30.99-40.15l-.56-.49-.62-.43c-13.75-9.5-28.22-16.35-43.05-20.39,19.74-5.46,40.64-12.7,62.52-21.7l1.09-.5c39.36-20.09,64.41-48.25,74.45-83.61l53.49-182.92c14.46-49.64,10.55-90.24-11.57-120.6Z"/><polygon class="cls-9" points="1528.93 1219.91 1413 1641.99 1440 1690.87 1547.23 1690.87 1665.64 1219.91 1528.93 1219.91"/><path class="cls-9" d="M1947.49,1219.91h-135.57l-87.54,356.82h-3.54l21.88-89.58h-133.36l-31.05,125.3-.03,.14c-4.1,17.38-5.65,30.69-4.72,40.68l.08,.65c1.58,10.87,5.68,19.49,12.2,25.62,6.04,6.21,14.24,9.8,24.38,10.67,7.5,.84,15.48,.86,23.72,.06h144.23c3.84,.39,7.59,.59,11.23,.59,3.91,0,7.7-.23,11.31-.68,7.72-.93,14.62-4.5,20.54-10.61,4.96-4.6,9.6-11.09,14.17-19.83l.48-.91,.32-.97c2.84-8.58,6.02-20.02,9.43-33.92l101.84-404.04Z"/><path class="cls-9" d="M2219.78,1277.87l.06-.74c.71-15.07-1.46-26.85-6.66-36l-.34-.59-.4-.55c-5.88-8.17-15.01-13.89-27.07-16.99-9.41-2.48-21.96-3.68-38.36-3.68h-118c-29.49,0-49.11,6.59-60,20.15l-.14,.18c-9.3,12.03-16.94,28.04-23.37,48.94l-118.51,352.55,15.88,48.71,136.46,1.1,43.79-178.05h4.47l-46.43,177.97h137.76l90.73-366.44c5.54-19.42,8.85-34.65,10.11-46.56Zm-147.88,55.88l-15.7,63.83h-1.62l13.79-63.83h3.53Z"/><polygon class="cls-9" points="2399.17 1221.1 2374.36 1264.18 2385.63 1221.1 2249.59 1221.1 2118.41 1641.13 2135.52 1689.98 2270.09 1689.98 2281.73 1642.21 2283.41 1689.98 2418.74 1689.98 2400.22 1458.29 2518.95 1245.01 2473.95 1214.46 2399.17 1221.1"/><path class="cls-9" d="M2776.14,1218.01h-144.87c-26.42,0-44.39,5.28-54.95,16.15l-.18,.19c-9.81,10.55-45.14,92.72-51.28,113.4l5.52,21.36h126.73l10.29-42.84h13.21l-15.26,64.75-34.21,.67c-7.44,.03-15,2.41-22.46,7.07l-.53,.33-.49,.38c-7.89,6.09-13.04,13.36-15.3,21.58l-18.4,79.52c-3.64,15.42-1.64,27.14,5.94,34.87,6.13,7.75,15.71,11.67,28.51,11.67h7.13l-5.92,22.18c-.72,2.68-3.77,3.96-6.18,2.6l-33.14-18.71c-3.59-2.02-7.66,1.74-5.93,5.47l16.08,34.77c1.16,2.5-.35,5.43-3.06,5.95l-37.44,7.13c-4.04,.77-4.73,6.25-1.01,8l34.55,16.24c2.49,1.17,3.22,4.37,1.49,6.51l-24.15,29.7c-2.6,3.19,.42,7.84,4.39,6.77l36.75-9.88c2.67-.72,5.31,1.27,5.34,4.04l.47,38.28c.05,4.12,5.36,5.75,7.72,2.37l21.81-31.29c1.59-2.28,4.9-2.44,6.7-.33l24.77,28.97c2.68,3.13,7.8,.99,7.45-3.12l-3.29-38.15c-.24-2.76,2.18-5,4.91-4.55l37.55,6.18c4.06,.67,6.6-4.25,3.7-7.17l-26.95-27.16c-1.94-1.96-1.53-5.21,.83-6.63l32.79-19.6c3.53-2.11,2.29-7.5-1.8-7.86l-37.94-3.37c-2.75-.24-4.54-3.01-3.63-5.62l12.58-36.18c1.35-3.89-3.08-7.23-6.44-4.86l-31.14,21.9c-2.27,1.6-5.43,.62-6.41-1.98l-7.74-20.61h21.92l.74-.09c6.93-.84,13.93-3.86,20.87-9.04,7.48-5.65,12.53-12.92,15.03-21.62,3.26-10.02,5.62-14.65,6.95-16.75,.43-.1,1.23-.23,2.52-.23h18c19.63,0,34.31-6.49,43.63-19.29,7.97-9.94,14.57-25.14,20.17-46.43l37.17-150.47-44.11-65.17Z"/><path class="cls-9" d="M600.26,653.6h102.68l67.38-267.13c4.12-14.19,6.59-25.37,7.54-34.17l.06-.75c.55-11.58-1.2-20.71-5.36-27.92l-.34-.59-.4-.55c-4.8-6.54-12.14-11.1-21.74-13.52-7.19-1.86-16.68-2.76-29.02-2.76h-86.81c-22.73,0-37.99,5.16-46.67,15.76l-.15,.18c-7.1,9.02-12.92,20.95-17.77,36.45l-76.67,294.22,107.25,.85,.02-.08Z"/><path class="cls-9" d="M815.52,653.39l11.78-48.62,7.2,48.62h274.49l22.06-89.26h-75.58l10.66-39.48h75.05l22.3-89.91h-73.99l9.7-39.26h74.48l25.67-89.48h-184.02l-81.4,315.74-17.12-100.94c.12-.04,.24-.07,.36-.11l1.11-.33,1.03-.53c4.51-2.31,9.27-5,14.16-8.02l.23-.14c5.53-3.58,10.6-7.9,15.08-12.83l.3-.34c5.54-6.56,9.46-14.27,11.67-22.92l30.34-110.71-.15-2.13c-1.41-19.8-7.84-34.39-19.12-43.38-9.9-8.36-23.95-12.59-42.95-12.93h-132.68l-87.46,346.96h106.81Z"/><path class="cls-9" d="M1271.04,636.01c9.84,11.25,23.69,16.95,41.17,16.95h103.57c10.15,0,18.57-2.1,25.07-6.24,6.39-3.45,11.48-8.02,15.14-13.6,4.04-5.16,6.89-10.72,8.48-16.56,1.68-4.43,2.89-8.25,3.73-11.71l70.2-298.21h-100.86l-31.55,128.1h-2.81l31.11-128.1h-101.98l-32.26,139c-2.33,9.64-4.33,18.43-5.94,26.1l-.15,.71-.07,.73c-.88,9.76-.08,18.32,2.38,25.41,2.88,8.33,8.18,14.79,15.76,19.19l.63,.34c7.63,3.86,17.5,5.99,30.17,6.5h41.83l-6.09,30.55c-1.28,5.1-2.34,7.39-2.79,8.24-.39,.12-1.17,.27-2.41,.27-.42,0-.81,0-1.17-.02l9.38-32h-104.44l-15.35,64.18-.03,.14c-3.3,14.55-.19,28.25,8.99,39.63l.32,.38Z"/><path class="cls-9" d="M1475.04,597.38c-3.78,14.74-1.64,28.31,6.2,39.26,5.46,8.06,16.48,17.4,38.09,16.75h101.25c.85,.02,1.69,.03,2.52,.03,18.41,0,32.4-5.25,41.54-15.57,9.32-10.38,16.34-24.9,20.88-43.11l55.87-220.76c6.8-23.96-.53-39.55-7.94-48.48-10.21-12.14-24.1-18.48-41.28-18.85h-93.65c-17.59,.36-31.97,6.59-42.74,18.52l-.15,.17c-9.2,10.58-15.88,23.46-19.86,38.37l-60.71,233.66Z"/><path class="cls-9" d="M1670.02,577.16c-5.52,23.14-5.23,40.61,.91,53.49,7.17,14.8,24.79,22.31,52.37,22.31h134.59l88.88-346.31h-208.85l-67.87,270.38-.03,.14Z"/></g><g><g><path class="cls-1" d="M992.14,728.57l-173.05,744.23c-1.89,7.92-4.91,17.35-9.05,28.28-3.02,12.07-8.86,23.57-17.53,34.5-6.79,10.94-16.6,19.79-29.41,26.58-11.69,7.92-27.9,11.88-48.63,11.88H445.28c-35.82,0-63.34-11.12-82.57-33.37-17.73-22.24-23.38-47.69-16.97-76.34l33.93-143.64h202.46l-12.44,42.98c-3.77,10.94-4.15,20.36-1.13,28.28,4.9,8.68,16.77,13.01,35.63,13.01,12.44,0,22.05-3.2,28.84-9.61,6.03-5.66,11.5-18.47,16.4-38.46l23.75-120.46h-147.04c-27.9-1.13-49.58-5.65-65.03-13.57-12.82-7.54-21.68-18.47-26.58-32.8-4.91-14.32-6.42-32.04-4.52-53.16,4.14-19.98,9.23-42.6,15.27-67.86l78.04-340.44h197.93l-80.87,337.05h74.08l82-337.05h195.67Z"/><path class="cls-4" d="M714.47,1579.03H445.28c-37.17,0-66.22-11.81-86.35-35.1l-.13-.15c-18.63-23.38-24.67-50.48-17.93-80.55l34.85-147.55h213.07l-14.37,49.61c-3.3,9.58-3.75,17.82-1.32,24.5,4.05,6.74,14.51,10.15,31.09,10.15,11.07,0,19.62-2.77,25.41-8.25,3.64-3.42,9.17-12.41,14.95-35.9l22.55-114.38h-141.16c-28.5-1.16-51.08-5.91-67.11-14.12l-.25-.14c-13.83-8.13-23.51-20.07-28.78-35.5-5.11-14.93-6.72-33.51-4.77-55.22l.08-.57c4.13-19.91,9.28-42.79,15.3-68.01l78.92-344.28h208.26l-80.87,337.05h63.81l82-337.05h205.9l-174.47,750.36c-1.93,8.08-5,17.7-9.14,28.65-3.18,12.52-9.31,24.59-18.21,35.88-7.17,11.46-17.58,20.87-30.93,27.99-12.46,8.35-29.69,12.58-51.21,12.58Zm-347.91-41.56c18.14,20.94,44.62,31.56,78.72,31.56h269.19c19.62,0,35.04-3.71,45.83-11.02l.46-.28c11.97-6.34,21.23-14.68,27.5-24.8l.33-.47c8.18-10.32,13.76-21.29,16.6-32.6l.18-.56c4.04-10.66,7.02-19.97,8.86-27.67l171.62-738.06h-185.44l-82,337.05h-84.35l80.87-337.05h-187.61l-77.15,336.56c-5.98,25.05-11.09,47.73-15.19,67.48-1.78,20.18-.33,37.28,4.3,50.81,4.52,13.24,12.46,23.06,24.26,30.04,14.71,7.5,35.82,11.86,62.73,12.96h153.02l-24.98,126.65c-5.19,21.13-11.02,34.51-17.83,40.91-7.7,7.27-18.56,10.97-32.26,10.97-21,0-34.08-5.09-39.98-15.55l-.18-.33-.13-.35c-3.42-8.97-3.07-19.59,1.03-31.57l10.56-36.47h-191.85l-33.02,139.79c-6.1,27.26-.89,50.83,15.95,72Z"/></g><g><path class="cls-2" d="M968.06,1135.07l91.17-354.26c5.48-17.7,12.05-31.48,19.71-41.34,7.67-9.49,23.18-14.24,46.54-14.24h109.24c14.05,0,24.91,1,32.58,3.01,8.58,2.19,14.78,5.93,18.62,11.22,3.65,6.39,5.2,15.33,4.65,26.83-1.09,10.22-4.11,23.91-9.03,41.07l-81.86,328.53h-103.49l42.98-163.72h-28.2l-40.52,163.72-102.39-.82Zm166.73-245.85h24.91l20.26-81.86h-27.38l-17.8,81.86Z"/><path class="cls-4" d="M1074.36,1140.92l-112.73-.9,92.83-360.69c5.63-18.2,12.54-32.65,20.54-42.93,8.81-10.9,25.3-16.17,50.49-16.17h109.24c14.62,0,25.69,1.04,33.85,3.17,9.67,2.47,16.88,6.89,21.4,13.13l.29,.45c4.17,7.3,5.91,16.97,5.31,29.55l-.02,.29c-1.12,10.44-4.21,24.52-9.18,41.83l-82.78,332.23h-113.88l42.98-163.72h-17.8l-40.53,163.75Zm28.31-10.03h93.1l80.96-324.91c4.8-16.71,7.78-30.2,8.85-40.07,.47-10.25-.83-18.24-3.88-23.73-3.13-4.19-8.39-7.25-15.65-9.1-7.25-1.9-17.78-2.86-31.34-2.86h-109.24c-21.67,0-36.02,4.16-42.65,12.38-7.18,9.24-13.52,22.57-18.79,39.56l-89.54,347.95,92.05,.74,40.51-163.69h38.59l-42.98,163.72Zm60.95-236.67h-35.03l19.97-91.86h37.79l-22.73,91.86Zm-22.62-10h14.8l17.78-71.86h-16.96l-15.62,71.86Z"/></g><g><path class="cls-2" d="M1236.91,1135.89l102.39-410.39h160.98c28.47,.37,45.54,7.03,51.2,19.99,6.93,12.78,7.21,31.94,.82,57.49l-85.14,332.91h-102.67l82.95-328.8h-26.01l-83.77,328.8h-100.75Z"/><path class="cls-4" d="M1471.03,1140.89h-112.97l82.95-328.8h-15.71l-83.77,328.8h-111.04l104.89-420.39h164.88c30.84,.4,49.04,7.85,55.69,22.79,7.53,14.04,7.91,33.96,1.18,60.91l-86.11,336.7Zm-100.13-10h92.37l84.18-329.15c6.04-24.15,5.91-42.28-.37-53.87l-.19-.38c-4.78-10.93-20.48-16.65-46.68-16.99h-157.01l-99.9,400.39h90.46l83.77-328.8h36.31l-82.95,328.8Z"/></g><g><path class="cls-2" d="M1523.55,1063.89l73.92-289.93c4.74-18.62,11.4-31.12,19.98-37.51,9.12-6.39,24.46-9.58,45.99-9.58h125.94c20.81,0,36.87,4.75,48.18,14.24,11.68,9.68,15.15,26.47,10.4,50.37l-14.24,66.53h-98.29l12.32-49.55h-56.4l-61.05,245.85h53.93l10.4-37.51h-32.85l23.27-85.69h128.13l-38.33,152.77c-3.65,12.96-7.67,22.91-12.05,29.84-4.38,6.94-9.4,11.96-15.06,15.06-6.02,3.28-12.78,5.48-20.26,6.57-7.49,.55-16.34,.55-26.56,0h-127.58c-29.94,.55-47.36-5.65-52.29-18.62-4.02-12.77-3.2-30.39,2.46-52.84Z"/><path class="cls-4" d="M1715.25,1140.75c-4.49,0-9.31-.14-14.43-.41h-127.45c-32.48,.59-51.15-6.55-56.96-21.84l-.1-.28c-4.34-13.8-3.56-31.97,2.39-55.56h0l73.92-289.94c5.08-19.94,12.23-33.12,21.84-40.28l.12-.09c10.08-7.06,26.06-10.49,48.86-10.49h125.94c21.91,0,39.2,5.18,51.4,15.4,13.12,10.88,17.2,29.45,12.1,55.18l-15.1,70.55h-108.72l12.32-49.55h-46.09l-58.57,235.85h43.74l7.63-27.51h-32.82l25.99-95.69h138.36l-39.93,159.12c-3.82,13.56-7.95,23.75-12.63,31.15-4.81,7.63-10.49,13.27-16.88,16.77-6.53,3.56-13.9,5.96-21.94,7.13l-.36,.04c-3.84,.28-8.06,.42-12.62,.42Zm-14.3-10.41h.27c9.88,.54,18.54,.54,25.74,.03,6.79-1.01,12.98-3.03,18.41-5.99,4.87-2.67,9.33-7.16,13.22-13.34,4.09-6.48,7.94-16.05,11.44-28.46l36.75-146.48h-117.89l-20.55,75.69h32.89l-13.18,47.51h-64.13l63.54-255.85h66.7l-12.32,49.55h87.85l13.39-62.57c4.32-21.78,1.4-37.11-8.7-45.48-10.37-8.69-25.5-13.09-44.99-13.09h-125.94c-20.34,0-34.83,2.91-43.07,8.64-7.57,5.67-13.65,17.34-18.07,34.69l-73.92,289.93c-5.38,21.34-6.25,38.15-2.58,49.96,4.16,10.63,20.13,15.77,47.48,15.26h127.67Z"/></g><g><path class="cls-1" d="M744.47,2048.96l216.59-846.58h356.28c40.34,0,69.18,13.39,86.53,40.15,17.34,26.39,20.16,61.84,8.48,106.32l-46.37,175.88c-7.92,30.92-27.52,55.24-58.81,72.95-33.93,15.46-64.47,25.26-91.62,29.41,10.18,3.39,22.62,7.92,37.32,13.57,12.06,3.39,23.75,9.43,35.06,18.1,9.42,9.05,17.53,20.74,24.32,35.06,4.52,13.2,3.39,30.35-3.39,51.46l-48.07,182.1c-6.42,24.51-12.44,45.06-18.1,61.64-6.79,15.46-15.83,27.52-27.15,36.19-10.56,10.18-25.08,16.97-43.54,20.36-18.48,3.76-42.04,4.9-70.69,3.39h-356.84Zm299.73-337.05l-44.11,169.09h61.08l45.24-169.09h-62.21Zm86.52-339.88l-42.98,169.09h58.25l45.24-169.09h-60.51Z"/><path class="cls-4" d="M1124.45,2054.6c-7.37,0-15.13-.21-23.26-.64h-363.15l1.6-6.24,217.56-850.34h360.16c41.95,0,72.47,14.28,90.72,42.43,18.05,27.48,21.12,64.6,9.12,110.31l-46.37,175.88c-8.22,32.1-28.81,57.7-61.19,76.03l-.39,.2c-26.78,12.21-51.78,21-74.57,26.26,6.08,2.22,12.69,4.69,19.78,7.42,12.54,3.56,24.83,9.91,36.52,18.88l.42,.36c9.82,9.44,18.36,21.73,25.37,36.53l.21,.52c4.85,14.15,3.73,32.49-3.32,54.49l-48.04,181.97c-6.44,24.58-12.56,45.44-18.2,61.98l-.15,.4c-7.05,16.07-16.63,28.85-28.46,37.98-11.21,10.72-26.66,17.94-45.91,21.48-13.42,2.73-29.67,4.11-48.46,4.11Zm-373.54-10.64h350.67c28.09,1.48,51.45,.37,69.43-3.29,17.49-3.21,31.28-9.62,41.07-19.06l.43-.37c10.53-8.07,19.12-19.53,25.52-34.04,5.54-16.28,11.57-36.83,17.92-61.09l48.1-182.24,.04-.13c6.37-19.82,7.55-35.98,3.51-48.05-6.42-13.48-14.13-24.63-22.94-33.14-10.69-8.15-21.84-13.9-33.15-17.08l-.44-.15c-14.56-5.6-27.05-10.14-37.11-13.5l-19.67-6.56,20.5-3.13c26.52-4.05,56.83-13.78,90.1-28.92,29.81-16.93,48.73-40.4,56.24-69.74l46.38-175.91c11.25-42.84,8.62-77.26-7.83-102.3-16.53-25.51-43.46-37.9-82.35-37.9h-352.4l-214.04,836.58Zm314.09-157.96h-71.39l46.72-179.09h72.58l-47.92,179.09Zm-58.44-10h50.77l42.56-159.09h-51.83l-41.5,159.09Zm143.27-329.88h-68.52l45.52-179.09h70.91l-47.92,179.09Zm-55.66-10h47.98l42.56-159.09h-50.11l-40.44,159.09Z"/></g><g><path class="cls-2" d="M1418.16,1641.99l107.31-428.68h107.31l-108.46,428.68h-106.17Z"/><path class="cls-4" d="M1528.22,1646.99h-116.47l109.82-438.68h117.64l-110.99,438.68Zm-103.65-10h95.87l105.93-418.68h-96.99l-104.81,418.68Z"/></g><g><path class="cls-2" d="M1714.63,1556.43l84.71-343.11h106.17l-94.72,373.45c-3.25,13.16-6.2,23.75-8.87,31.76-3.82,7.25-7.63,12.59-11.45,16.03-3.82,4.01-8.11,6.3-12.88,6.87-6.11,.76-12.69,.76-19.75,0h-140.79c-7.44,.76-14.5,.76-21.18,0-7.06-.57-12.5-2.86-16.31-6.87-4.39-4.01-7.16-9.92-8.3-17.74-.76-8.2,.67-19.93,4.29-35.2l27.76-111.32h104.17l-21.18,86.14h28.33Z"/><path class="cls-4" d="M1768.08,1646.99c-3.39,0-6.9-.19-10.5-.57h-140.28c-7.64,.77-15.01,.76-21.91-.02-8.18-.68-14.68-3.46-19.32-8.27-5.17-4.78-8.45-11.71-9.75-20.59l-.03-.26c-.82-8.83,.62-20.87,4.41-36.82l28.72-115.17h114.45l-21.18,86.14h18.04l84.71-343.12h116.51l-96.3,379.68c-3.26,13.23-6.29,24.05-8.98,32.12l-.13,.39-.19,.36c-4.08,7.76-8.14,13.42-12.38,17.28-4.59,4.77-9.9,7.54-15.77,8.25-3.23,.4-6.61,.6-10.11,.6Zm-151.28-10.57l141.59,.03c6.64,.72,12.89,.72,18.59,0,3.63-.44,6.86-2.19,9.88-5.36l.27-.26c3.3-2.97,6.72-7.77,10.18-14.28,2.57-7.78,5.48-18.2,8.63-30.99l93.15-367.25h-95.83l-84.71,343.12h-38.62l21.18-86.14h-93.88l-26.81,107.53c-3.45,14.53-4.86,25.78-4.18,33.39,.98,6.55,3.23,11.48,6.7,14.64l.25,.25c2.96,3.11,7.25,4.86,13.09,5.33l.16,.02c6.29,.72,13.05,.71,20.1,0l.25-.03Z"/></g><g><path class="cls-2" d="M1835.4,1641.13l95.29-370.3c5.72-18.5,12.59-32.91,20.6-43.21,8.01-9.92,24.23-14.88,48.65-14.88h114.18c14.69,0,26.04,1.05,34.05,3.15,8.96,2.29,15.45,6.2,19.46,11.73,3.81,6.68,5.44,16.02,4.86,28.04-1.14,10.69-4.29,24.99-9.44,42.92l-85.56,343.4h-108.17l44.93-171.13h-29.48l-42.35,171.13-107.03-.86Zm174.28-256.98h26.04l21.18-85.56h-28.62l-18.6,85.56Z"/><path class="cls-4" d="M1946.33,1647.02l-117.37-.94,96.95-376.73c5.88-19,13.09-34.08,21.43-44.8,9.16-11.33,26.34-16.81,52.59-16.81h114.18c15.25,0,26.81,1.08,35.32,3.31,10.06,2.57,17.55,7.16,22.24,13.64l.29,.45c4.34,7.6,6.14,17.66,5.52,30.76l-.02,.29c-1.17,10.91-4.39,25.6-9.58,43.69l-86.49,347.11h-118.56l44.93-171.13h-19.08l-42.36,171.16Zm29.48-10.03h97.78l84.64-339.7,.02-.09c5.02-17.49,8.14-31.59,9.26-41.93,.5-10.77-.88-19.16-4.08-24.94-3.3-4.42-8.85-7.66-16.49-9.61-7.6-1.99-18.63-2.99-32.82-2.99h-114.18c-22.72,0-37.78,4.38-44.76,13.02-7.53,9.68-14.17,23.64-19.68,41.43l-93.67,363.99,96.68,.78,42.35-171.1h39.87l-44.93,171.13Zm63.82-247.84h-36.16l20.77-95.56h39.03l-23.65,95.56Zm-23.75-10h15.92l18.7-75.56h-18.2l-16.43,75.56Z"/></g><g><path class="cls-2" d="M2118.41,1641.13l104.45-426.68h106.45l-29.76,113.04,65.53-113.04h104.74l-123.05,213.19,17.17,213.48h-106.17l-4.29-121.34-29.76,121.34h-105.31Z"/><path class="cls-4" d="M2369.37,1646.13h-116.41l-3.19-90.17-22.12,90.17h-115.6l106.9-436.68h116.87l-21.97,83.43,48.37-83.43h116.28l-126.6,219.35,17.48,217.33Zm-106.76-10h95.92l-16.86-209.63,.78-1.35,118.72-205.7h-93.2l-82.69,142.64,37.56-142.64h-96.04l-102,416.68h95.02l37.41-152.51,5.39,152.51Z"/></g><g><path class="cls-2" d="M2748.75,1418.82c-4.98,18.8-10.78,32.26-17.42,40.37-6.64,9.22-17.51,13.82-32.63,13.82h-17.42c-5.72,0-9.68,1.57-11.89,4.7-2.77,3.87-5.72,10.6-8.85,20.18-1.66,5.9-5.07,10.78-10.23,14.65-4.98,3.69-9.77,5.81-14.38,6.36h-44.51c-8.85,0-15.03-2.39-18.53-7.19-4.61-4.24-5.63-11.8-3.04-22.67l17.7-76.04c1.47-5.34,4.98-10.14,10.51-14.38,5.35-3.32,10.51-4.98,15.49-4.98l42.58-.83,20.46-86.27h-37.6l-9.95,41.2h-97.6l17.42-69.4c5.35-17.88,12.07-31.15,20.18-39.81,7.74-7.92,22.58-11.89,44.52-11.89h140.18l30.97,47.56-35.94,144.61Z"/><path class="cls-4" d="M2636.24,1523.91h-44.81c-10.27,0-17.76-2.98-22.27-8.85-5.72-5.57-7.12-14.71-4.16-27.17l17.74-76.21c1.76-6.39,5.9-12.11,12.28-17.01l.41-.28c6.12-3.8,12.22-5.73,18.12-5.73l38.61-.75,18.11-76.34h-27.34l-9.95,41.2h-107.95l19.04-75.83c5.54-18.54,12.72-32.61,21.33-41.8l.07-.08c8.81-9.01,24.54-13.4,48.09-13.4h142.9l33.63,51.65-36.49,146.79c-5.19,19.59-11.17,33.38-18.29,42.14-7.6,10.47-19.92,15.78-36.59,15.78h-17.42c-3.97,0-6.6,.87-7.81,2.58-1.7,2.38-4.48,7.54-8.15,18.76-1.97,6.9-6.01,12.69-12.01,17.2-5.68,4.21-11.32,6.67-16.79,7.33l-.3,.04Zm-43.84-109.66l-17.67,75.93c-1.46,6.16-2.38,14.24,1.56,17.86l.36,.33,.29,.4c2.49,3.41,7.36,5.14,14.49,5.14h44.2c3.64-.5,7.58-2.31,11.72-5.38,4.28-3.21,7.03-7.14,8.39-11.99l.06-.2c3.32-10.17,6.44-17.21,9.53-21.54,3.18-4.5,8.55-6.79,15.96-6.79h17.42c13.53,0,22.88-3.84,28.57-11.75l.19-.25c6.15-7.51,11.68-20.45,16.45-38.45l35.41-142.46-28.3-43.46h-137.47c-20.4,0-34.16,3.48-40.91,10.35-7.51,8.04-13.89,20.72-18.97,37.68l-15.83,63.08h87.26l9.95-41.2h47.86l-22.82,96.19-46.45,.91c-4.04,0-8.3,1.38-12.73,4.1-4.48,3.48-7.34,7.35-8.51,11.5Z"/></g><g><path class="cls-2" d="M2595.77,1661.27c-2.83,0-5.17-2.3-5.2-5.14l-.32-25.77-25.53,6.82h-.71c-2,0-3.84-1.16-4.7-2.96-.86-1.8-.59-3.97,.67-5.52l16.32-19.95-23.35-10.91c-2.06-.97-3.24-3.12-2.96-5.37,.29-2.25,1.97-4.04,4.19-4.46l25.32-4.79-10.87-23.36c-.75-1.62-.63-3.49,.33-4.99,.96-1.51,2.6-2.4,4.38-2.4,.89,0,1.77,.23,2.55,.67l22.47,12.6,6.69-24.89c.6-2.26,2.67-3.85,5.02-3.85,2.15,0,4.11,1.35,4.87,3.37l9.11,24.1,21.12-14.76c.87-.61,1.9-.94,2.98-.94,1.68,0,3.27,.82,4.24,2.2,.97,1.37,1.22,3.14,.66,4.73l-8.51,24.32,25.67,2.27c2.26,.21,4.11,1.82,4.61,4.03s-.47,4.46-2.41,5.62l-22.16,13.16,18.21,18.24c1.49,1.49,1.93,3.71,1.13,5.66-.81,1.95-2.69,3.21-4.8,3.21h-.4l-.43-.07-25.44-4.16,2.23,25.67c.13,1.44-.36,2.89-1.34,3.96-.98,1.07-2.38,1.69-3.84,1.69s-2.95-.66-3.94-1.81l-16.81-19.53-14.8,21.1c-.97,1.38-2.56,2.21-4.26,2.21Z"/><path class="cls-4" d="M2610.08,1542.01c.08,0,.15,.04,.19,.13l11.3,29.87c.03,.08,.11,.13,.19,.13,.04,0,.08-.01,.11-.04l26.18-18.3s.08-.04,.11-.04c.13,0,.24,.13,.19,.27l-10.55,30.15c-.04,.12,.04,.25,.17,.27l31.81,2.81c.19,.02,.25,.27,.08,.37l-27.46,16.31c-.11,.07-.13,.22-.04,.31l22.57,22.6c.13,.13,.03,.34-.14,.34-.01,0-.02,0-.04,0l-31.52-5.15s-.02,0-.03,0c-.12,0-.21,.1-.2,.22l2.76,31.82c.01,.13-.09,.22-.2,.22-.05,0-.11-.02-.15-.07l-20.83-24.21s-.1-.07-.15-.07c-.06,0-.12,.03-.16,.09l-18.34,26.15c-.04,.06-.1,.09-.16,.09-.1,0-.2-.08-.2-.2l-.4-31.94c0-.11-.09-.2-.2-.2-.02,0-.03,0-.05,0l-30.86,8.24s-.04,0-.05,0c-.16,0-.26-.19-.15-.33l20.22-24.72c.08-.1,.05-.25-.07-.31l-28.94-13.52c-.18-.08-.14-.34,.05-.38l31.38-5.94c.13-.02,.2-.16,.14-.28l-13.48-28.96c-.07-.14,.05-.29,.18-.29,.03,0,.07,0,.1,.03l27.86,15.62s.07,.03,.1,.03c.09,0,.17-.06,.19-.15l8.29-30.84c.03-.1,.11-.15,.19-.15m0-10c-4.6,0-8.65,3.1-9.85,7.55l-5.02,18.68-16.87-9.46c-1.53-.85-3.25-1.3-4.99-1.3-3.5,0-6.72,1.76-8.6,4.72-1.88,2.95-2.12,6.61-.65,9.79l8.16,17.54-19,3.6c-4.36,.82-7.67,4.34-8.22,8.75-.56,4.41,1.78,8.63,5.8,10.52l17.52,8.19-12.25,14.97c-2.48,3.04-3,7.29-1.32,10.83,1.68,3.54,5.3,5.83,9.22,5.83,.89,0,1.77-.12,2.63-.34l18.69-4.99,.24,19.34c.07,5.55,4.64,10.07,10.2,10.07,3.32,0,6.44-1.62,8.35-4.35l11.1-15.83,12.61,14.66c1.94,2.25,4.76,3.55,7.73,3.55s5.59-1.21,7.52-3.31c1.93-2.1,2.89-4.93,2.64-7.77l-1.67-19.27,19.09,3.12,.8,.13h.85c4.13,0,7.83-2.47,9.42-6.29,1.59-3.82,.72-8.18-2.2-11.11l-13.67-13.69,16.63-9.88c3.82-2.27,5.72-6.71,4.74-11.04-.99-4.33-4.63-7.5-9.05-7.89l-19.26-1.7,6.39-18.26c1.09-3.12,.6-6.58-1.31-9.27-1.91-2.69-5.02-4.3-8.32-4.3-2.1,0-4.11,.63-5.83,1.83l-15.86,11.09-6.84-18.09c-1.49-3.94-5.33-6.59-9.54-6.59h0Z"/></g></g><g><g><path class="cls-2" d="M506.74,617.54l70.11-269.11c4.21-13.45,9.26-23.92,15.16-31.4,5.89-7.21,17.82-10.82,35.79-10.82h84.01c10.81,0,19.16,.77,25.05,2.29,6.6,1.66,11.37,4.51,14.32,8.53,2.8,4.85,4,11.65,3.58,20.38-.84,7.77-3.16,18.16-6.95,31.19l-62.95,249.56h-79.58l33.05-124.37h-21.68l-31.16,124.37-78.74-.62Zm128.22-186.76h19.16l15.58-62.18h-21.05l-13.68,62.18Z"/><path class="cls-4" d="M589.38,623.19l-89.09-.71,71.8-275.55c4.37-13.97,9.76-25.07,16-33,7.02-8.58,19.99-12.72,39.72-12.72h84.01c11.33,0,19.94,.8,26.31,2.45,7.69,1.94,13.45,5.44,17.1,10.41l.3,.46c3.33,5.76,4.71,13.32,4.24,23.12l-.02,.3c-.87,8-3.25,18.76-7.09,31.96l-63.88,253.25h-89.98l33.05-124.37h-11.28l-31.17,124.4Zm22.4-10.03h69.19l62.05-245.96c3.67-12.6,5.94-22.76,6.76-30.19,.34-7.49-.59-13.29-2.78-17.25-2.25-2.93-6.07-5.09-11.35-6.42-5.5-1.42-13.5-2.14-23.83-2.14h-84.01c-16.31,0-27.05,3.02-31.92,8.98-5.42,6.88-10.22,16.87-14.22,29.62l-68.46,262.78,68.39,.54,31.15-124.33h32.09l-33.05,124.37Zm46.25-177.38h-29.28l15.88-72.18h31.48l-18.08,72.18Zm-16.84-10h9.04l13.07-52.18h-10.63l-11.48,52.18Z"/></g><g><path class="cls-2" d="M715.39,617.95l78.53-311.54h118.75c15.44,.28,26.81,3.54,34.11,9.77,8.28,6.52,12.98,17.68,14.11,33.48l-28.84,105.23c-1.68,6.66-4.63,12.48-8.84,17.47-3.65,4.02-7.72,7.49-12.21,10.4-4.49,2.78-8.77,5.2-12.84,7.28-4.21,1.25-7.72,2.49-10.53,3.74l21.05,124.16h-76.64l-14.53-98.16-23.79,98.16h-78.32Zm141.27-248.73l-17.26,61.77h21.47l15.16-61.77h-19.37Z"/><path class="cls-4" d="M914.58,622.96h-86.87l-11.4-77.03-18.67,77.03h-88.67l81.05-321.54h122.64c16.6,.3,29.11,3.97,37.28,10.91,9.34,7.4,14.7,19.85,15.92,36.99l.06,.85-29.07,106.06c-1.84,7.27-5.16,13.82-9.84,19.37l-.12,.13c-3.92,4.32-8.36,8.1-13.19,11.23l-.09,.06c-4.57,2.82-9.01,5.34-13.2,7.48l-.41,.21-.44,.13c-2.35,.7-4.47,1.39-6.34,2.08l21.37,126.03Zm-78.24-10h66.4l-20.71-122.15,3.55-1.58c2.88-1.28,6.47-2.57,10.69-3.83,3.82-1.96,7.86-4.27,12.04-6.85,4.07-2.64,7.81-5.83,11.12-9.47,3.67-4.37,6.28-9.55,7.76-15.4l28.64-104.49c-1.12-13.82-5.2-23.6-12.15-29.07l-.16-.13c-6.36-5.43-16.77-8.32-30.95-8.58h-114.76l-76.01,301.54h67.97l28.91-119.29,17.65,119.29Zm28.45-176.96h-31.98l20.06-71.77h29.54l-17.61,71.77Zm-18.81-10h10.96l12.71-51.77h-9.2l-14.47,51.77Z"/></g><g><path class="cls-2" d="M925.5,617.95l80.43-311.95h152.64l-17.9,62.39h-72.42l-15.37,62.18h71.58l-15.58,62.81h-72.42l-16.84,62.39h73.48l-15.37,62.18h-152.22Z"/><path class="cls-4" d="M1081.64,622.96h-162.59l83-321.96h163.15l-20.76,72.39h-72.28l-12.9,52.18h71.59l-18.06,72.81h-72.51l-14.14,52.39h73.33l-17.84,72.18Zm-149.68-10h141.85l12.9-52.18h-73.62l19.54-72.39h72.34l13.1-52.81h-71.58l17.84-72.18h72.57l15.03-52.39h-142.13l-77.85,301.96Z"/></g><g><path class="cls-2" d="M1487.43,306.62l-64.43,273.69c-.7,2.91-1.83,6.38-3.37,10.4-1.13,4.44-3.3,8.67-6.53,12.68-2.52,4.02-6.18,7.28-10.95,9.77-4.35,2.91-10.39,4.37-18.11,4.37h-100.22c-13.34,0-23.58-4.09-30.74-12.27-6.6-8.18-8.7-17.54-6.32-28.08l12.63-52.82h75.37l-4.63,15.81c-1.41,4.02-1.55,7.49-.42,10.4,1.82,3.19,6.24,4.78,13.26,4.78,4.63,0,8.21-1.18,10.74-3.54,2.24-2.08,4.28-6.79,6.11-14.14l8.84-44.3h-54.74c-10.39-.42-18.46-2.08-24.21-4.99-4.78-2.77-8.07-6.79-9.9-12.06-1.83-5.27-2.39-11.78-1.68-19.55,1.54-7.35,3.44-15.67,5.68-24.96l29.06-125.2h73.69l-30.11,123.95h27.58l30.53-123.95h72.85Z"/><path class="cls-4" d="M1384.06,622.54h-100.22c-14.78,0-26.39-4.7-34.5-13.98l-.13-.15c-7.58-9.39-10.03-20.26-7.3-32.32l13.56-56.72h85.99l-6.59,22.46c-.92,2.63-1.13,4.82-.62,6.52,.87,1.02,3.54,2.01,8.74,2.01,3.3,0,5.77-.74,7.33-2.19,.54-.5,2.44-2.79,4.64-11.58l7.62-38.2h-48.84c-11.22-.45-19.81-2.26-26.27-5.53l-.25-.14c-5.82-3.38-9.9-8.34-12.11-14.75-2.05-5.92-2.7-13.2-1.94-21.63l.09-.58c1.55-7.37,3.47-15.82,5.72-25.1l29.94-129.03h84.02l-30.11,123.95h17.3l30.53-123.95h83.08l-65.87,279.83c-.74,3.07-1.9,6.68-3.46,10.78-1.3,4.93-3.73,9.66-7.22,14.07-2.94,4.58-7.13,8.34-12.47,11.18-5.15,3.36-12.09,5.06-20.65,5.06Zm-127.13-20.49c6.21,7.06,15.02,10.49,26.91,10.49h100.22c6.68,0,11.83-1.19,15.33-3.52l.46-.28c4.01-2.1,6.97-4.72,9.03-8l.34-.47c2.76-3.43,4.64-7.06,5.58-10.78l.18-.56c1.46-3.81,2.53-7.1,3.18-9.79l62.97-267.51h-62.61l-30.53,123.95h-37.86l30.11-123.95h-63.36l-28.16,121.33c-2.2,9.11-4.08,17.35-5.6,24.56-.6,6.89-.11,12.67,1.45,17.17,1.41,4.09,3.89,7.13,7.56,9.3,5.06,2.52,12.43,4,21.93,4.39h60.73l-10.08,50.5c-2.11,8.51-4.52,13.78-7.56,16.61-3.45,3.23-8.22,4.87-14.14,4.87-9.04,0-14.8-2.39-17.6-7.31l-.19-.33-.14-.35c-1.55-4-1.44-8.62,.32-13.72l2.72-9.28h-64.75l-11.71,48.99c-2.03,8.96-.31,16.73,5.28,23.69Z"/></g><g><path class="cls-2" d="M1484.06,617.95c-12.63,.42-21.55-3.26-26.74-11.02-5.61-7.76-7.02-17.12-4.21-28.08l58.74-226.06c3.37-12.61,8.91-23.36,16.64-32.23,8.14-9.01,19.02-13.66,32.63-13.94h90.11c13.05,.28,23.37,4.92,30.95,13.94,7.72,9.29,9.47,21.28,5.26,35.98l-54.11,213.79c-3.93,15.8-9.76,28.01-17.48,36.6-6.88,7.77-18.04,11.44-33.48,11.02h-98.32Zm102.53-249.36l-47.16,187.17h19.37l48-187.17h-20.21Z"/><path class="cls-4" d="M1482.17,622.99c-13.32,0-23.05-4.43-28.95-13.2-6.46-8.98-8.12-19.8-4.95-32.17l58.74-226.08c3.56-13.33,9.51-24.84,17.7-34.26,9.12-10.1,21.31-15.34,36.3-15.65h90.32c14.5,.31,26.16,5.6,34.67,15.72,8.81,10.61,10.91,24.22,6.26,40.5l-54.09,213.72c-4.11,16.52-10.37,29.55-18.6,38.72-7.84,8.85-20.38,13.12-37.26,12.68h-98.17c-.67,.02-1.33,.03-1.97,.03Zm79-311.36c-12.27,.26-21.75,4.28-28.97,12.29-7.12,8.18-12.36,18.36-15.52,30.17l-58.73,226.03c-2.44,9.51-1.32,17.33,3.42,23.89l.1,.15c4.2,6.28,11.53,9.15,22.42,8.8h98.62c13.83,.37,23.78-2.77,29.6-9.34,7.15-7.96,12.65-19.56,16.37-34.49l54.15-213.96c3.76-13.12,2.35-23.39-4.3-31.41-6.64-7.89-15.53-11.87-27.16-12.13h-90Zm1.51,249.15h-29.66l49.68-197.17h30.55l-50.57,197.17Zm-16.83-10h9.07l45.44-177.17h-9.87l-44.64,177.17Z"/></g><g><path class="cls-2" d="M1905.99,306.62l-79.8,310.92h-120.85c-21.76,0-35.02-4.92-39.79-14.77-4.63-9.7-4.63-24.26,0-43.68l63.37-252.48h78.74l-64.43,248.73h22.95l60-248.73h79.8Z"/><path class="cls-4" d="M1830.07,622.54h-124.73c-24.07,0-38.56-5.75-44.29-17.58-5.2-10.89-5.31-26.26-.36-47.01l64.34-256.32h89.1l-64.43,248.73h12.55l60-248.73h90.18l-82.36,320.92Zm-97.25-310.92l-62.42,248.69c-4.32,18.12-4.44,31.7-.34,40.3,3.83,7.9,15.7,11.92,35.28,11.92h116.97l77.23-300.92h-69.41l-60,248.73h-33.35l64.43-248.73h-68.38Z"/></g></g><path class="cls-2" d="M546.99,765h108s-108,117-144,189l36-189Z"/></g><path class="cls-2" d="M996.99,1269h108s-108,117-144,189l36-189Z"/><path class="cls-2" d="M798.99,1341s9,198-108,189l108-189Z"/><path class="cls-2" d="M1341,1413s18,162-117.16,170.7l117.16-170.7Z"/><path class="cls-2" d="M1242.16,1827s-.16,179.7-117.16,170.7l117.16-170.7Z"/><path class="cls-1" d="M2187.69,192.25l-45.1,118.63,71.41,22.13-26.31-140.75Z"/><polygon class="cls-1" points="2793.93 439.52 2840.09 457.32 2797.8 567 2718 540.06 2742.7 503.12 2767.13 507.62 2793.93 439.52"/><polygon class="cls-4" points="1608.9 1836 2052 1848.57 2038.34 2018.17 1903.43 2042.56 1909.17 2124.71 1826.34 2058.61 1648.25 2062.67 1608.9 1836"/><polygon class="cls-2" points="1741.6 1912.11 1691.64 1888.53 1666.74 1930.41 1686.91 1984.65 1782.58 2029 1827 1935.29 1811.72 1881.57 1764.07 1863 1741.6 1912.11"/><g><polygon class="cls-1" points="2202.78 1922.35 2258.12 1851.83 2558.43 1827 2543.96 1966.19 2267.83 1955.95 2124 2024.64 2242.35 1940.59 2202.78 1922.35"/><circle class="cls-2" cx="2306.68" cy="1901.2" r="17.66"/><circle class="cls-2" cx="2392.97" cy="1901.2" r="17.66"/><circle class="cls-2" cx="2485.05" cy="1901.2" r="17.66"/></g><g><polygon class="cls-4" points="356.37 1744.85 375.58 1932.41 505.88 1932.16 577.3 1980 557.4 1927.66 595.21 1924.77 603 1735.14 356.37 1744.85"/><g><rect class="cls-6" x="473.81" y="1767.77" width="19.95" height="129.67" transform="translate(-1222.13 1006.56) rotate(-49.37)"/><rect class="cls-6" x="418.95" y="1822.63" width="129.67" height="19.95" transform="translate(-1222.14 1006.58) rotate(-49.38)"/></g></g></g></g></svg>